<svg xmlns="http://www.w3.org/2000/svg" viewBox="0 0 197.62 112.48"><defs><style>.cls-1{fill:#fff;}.cls-2{fill:none;stroke:#fff;stroke-miterlimit:10;stroke-width:2px;}</style></defs><title>andromeda</title><g id="Layer_2" data-name="Layer 2"><g id="andromeda"><circle class="cls-1" cx="178.89" cy="106.5" r="5.98"/><circle class="cls-1" cx="126" cy="87" r="3"/><circle class="cls-1" cx="84" cy="59" r="3"/><circle class="cls-1" cx="44" cy="3" r="3"/><circle class="cls-1" cx="6" cy="27" r="6"/><circle class="cls-1" cx="140" cy="106" r="4"/><circle class="cls-1" cx="84" cy="78" r="5"/><line class="cls-2" x1="126" y1="87" x2="179" y2="106"/><line class="cls-2" x1="140" y1="106" x2="179" y2="106"/><line class="cls-2" x1="84" y1="78" x2="140" y2="106"/><line class="cls-2" x1="84" y1="59" x2="126" y2="86"/><line class="cls-2" x1="6" y1="27" x2="84" y2="78"/><line class="cls-2" x1="44" y1="3" x2="84" y2="59"/><path class="cls-1" d="M82.08,47.05l2.2-.33h.44l2.42.33v.88H82.08Zm6.56-14H90L95,47.93H93L88.55,34.75h.5L84.57,47.93h-1Zm-2.58,9H92l.35,1H85.71Zm4.34,4.95,2.77-.33h.44l2.73.33v.88H90.4Z"/><path class="cls-1" d="M99.09,47.93c0-1,.06-3.26.06-4.62v-1c0-1.21,0-1.89-.06-2.77l-1.76-.2v-.77l3-1.32.33.22.26,2.56v3.32c0,1.36,0,3.63.07,4.62Zm3.43-.77v.77H97.46v-.77l2.42-.44h.44Zm5.08-5.87v2c0,1.41,0,3.63.07,4.62h-1.9c0-1,.07-3.21.07-4.62V41.46c0-2.05-.53-2.71-1.85-2.71a4.8,4.8,0,0,0-3.25,1.52h-.47v-1h1.13l-1,.4a5.94,5.94,0,0,1,4.36-2.47C106.7,37.21,107.6,38.38,107.6,41.29ZM107,46.72l2.2.44v.77h-5.06v-.77l2.42-.44Z"/><path class="cls-1" d="M115.85,47c1.12,0,1.89-.49,2.9-1.79l.2.6a3.91,3.91,0,0,1-3.58,2.4c-2.69,0-4.49-2.23-4.49-5.42s2-5.59,4.68-5.59c1.26,0,2.34.51,3.48,2.23l-.22.57c-1.28-1.23-2.16-1.59-3-1.59-1.65,0-3.08,1.32-3.08,4.34S114.07,47,115.85,47Zm6.12.15v.77l-3.37.22-.22-2.24V39.46l.07-.29V33.63l-1.9-.22v-.77l3.37-1,.31.17L120.14,35v13l-.35-1.12Z"/><path class="cls-1" d="M124.89,43.31v-1c0-1.21,0-1.89-.06-2.77l-1.77-.2v-.77l3-1.32.33.22.26,2.75v3.13c0,1.36,0,3.63.07,4.62h-1.89C124.87,46.94,124.89,44.67,124.89,43.31Zm-1.65,3.85,2.42-.44h.44l2.42.44v.77h-5.28Zm2.53-6.82H127l-.55.15c.7-2,2-3.28,3.34-3.28a1.88,1.88,0,0,1,1.56.75c0,1-.39,1.61-1.27,1.61a2,2,0,0,1-1.32-.53l-.6-.51,1.08-.22a5.27,5.27,0,0,0-2.66,3.5h-.84Z"/><path class="cls-1" d="M132.33,42.76c0-3.65,2.48-5.55,5-5.55s5,1.9,5,5.55-2.53,5.46-5,5.46S132.33,46.41,132.33,42.76Zm8,0c0-2.95-1.12-4.56-3-4.56s-3,1.61-3,4.56,1.08,4.47,3,4.47S140.38,45.71,140.38,42.76Z"/><path class="cls-1" d="M145.9,47.93c0-1,.07-3.26.07-4.62v-1c0-1.21,0-1.89-.07-2.77l-1.76-.2v-.77l3-1.32.33.22.27,2.56v3.32c0,1.36,0,3.63.06,4.62Zm3.43-.77v.77h-5.06v-.77l2.42-.44h.44Zm5-5.87v2c0,1.41,0,3.63.06,4.62H152.5c.05-1,.07-3.21.07-4.62V41.46c0-2.05-.53-2.71-1.85-2.71a4.63,4.63,0,0,0-3.17,1.52h-.46v-1h1.12l-.94.4a5.81,5.81,0,0,1,4.26-2.47C153.43,37.21,154.33,38.38,154.33,41.29Zm-.6,5.43,2.2.44v.77h-5.06v-.77l2.42-.44Zm7.2-5.68v2.27c0,1.41,0,3.63.07,4.62h-1.9c.05-1,.07-3.21.07-4.62V41.42c0-2.07-.57-2.67-1.87-2.67a4.58,4.58,0,0,0-3.15,1.52h-.53V39.5h1.19l-1,.18a5.39,5.39,0,0,1,4.33-2.47C159.9,37.21,160.93,38.31,160.93,41Zm-.6,5.68,2.21.44v.77h-5.07v-.77l2.43-.44Z"/><path class="cls-1" d="M173.29,41.42a4.42,4.42,0,0,1-.15,1.23H165v-.93h5.24c1.05,0,1.29-.5,1.29-1.12a2.44,2.44,0,0,0-2.44-2.4c-1.41,0-3,1.19-3,4.34,0,2.79,1.41,4.29,3.61,4.29a3.81,3.81,0,0,0,3.08-1.56l.51.39a4.46,4.46,0,0,1-4.2,2.56c-2.95,0-4.87-2-4.87-5.39s2.29-5.62,5-5.62A3.93,3.93,0,0,1,173.29,41.42Z"/><path class="cls-1" d="M180.38,47c1.12,0,1.89-.49,2.9-1.79l.2.6a3.92,3.92,0,0,1-3.59,2.4c-2.68,0-4.49-2.23-4.49-5.42s2-5.59,4.69-5.59c1.25,0,2.33.51,3.48,2.23l-.22.57c-1.28-1.23-2.16-1.59-3-1.59-1.65,0-3.08,1.32-3.08,4.34S178.59,47,180.38,47Zm6.11.15v.77l-3.36.22-.22-2.24V39.46l.06-.29V33.63l-1.89-.22v-.77l3.37-1,.3.17L184.67,35v13l-.36-1.12Z"/><path class="cls-1" d="M191.22,42.17a22.84,22.84,0,0,1,3.41-.93V42a20.72,20.72,0,0,0-2.95.88c-2,.77-2.2,1.61-2.2,2.25,0,1.16.77,1.63,1.78,1.63.77,0,1.21-.29,2.6-1.28l.44-.33.31.46-.64.64c-1.32,1.32-2.07,1.94-3.41,1.94a2.69,2.69,0,0,1-2.95-2.76C187.61,44.23,188.27,43.24,191.22,42.17Zm2.53,3.74v-5c0-2.16-.62-2.69-2.07-2.69a5.18,5.18,0,0,0-2,.4l.88-.68L190,39.81c-.2.64-.53,1-1.12,1a.89.89,0,0,1-1-.88c.42-1.67,2-2.71,4.24-2.71s3.37,1,3.37,3.81v4.67c0,1,.31,1.34.82,1.34a1.07,1.07,0,0,0,.85-.49l.44.49a2.05,2.05,0,0,1-1.87,1.12A2,2,0,0,1,193.75,45.91Z"/></g></g></svg>