<svg xmlns="http://www.w3.org/2000/svg" viewBox="0 0 138 300"><defs><style>.cls-1{fill:none;}.cls-2{fill:#fc94ad;}.cls-3{fill:#d87591;}.cls-4{fill:#fe7d68;}.cls-5{fill:#feb9cb;}.cls-6{fill:#e11584;}.cls-7{fill:#fff;}.cls-8{fill:#f7f374;}.cls-9{fill:#b3b3b3;}.cls-10{fill:#8f8b44;}.cls-11{fill:#a89d05;}.cls-12{fill:#c2be8f;}.cls-13{fill:#dd1884;}.cls-14{fill:#c1272d;}.cls-15{fill:#0071bc;}.cls-16{fill:#f7931e;}.cls-17{fill:#e9d28e;}.cls-18{fill:#a04242;}</style></defs><title>aphrodite</title><g id="Layer_2" data-name="Layer 2"><g id="Layer_1-2" data-name="Layer 1"><g id="Layer_2-2" data-name="Layer 2"><g id="Layer_1-2-2" data-name="Layer 1-2"><rect class="cls-1" width="138" height="300"/></g></g><path class="cls-2" d="M59.87,263.29c-.47-5.39-1.9-10.16-3-15.45-1.55-7.35-2.71-15-2-22.49l12.45.42c.63,13.61.63,25.75-.82,38.5Z"/><path class="cls-2" d="M77.58,264.65c-1.23-6.67-3.12-13-4.31-19.74-1.15-6.49-3.19-13.13-3-19.72l13.59,0c1.27,14.81.68,26.46-.17,39.74Z"/><path class="cls-2" d="M71.61,154.65c2.54-.55,9.75,5.37,11.21,3.22,1.05-1.54,1.18-3.5,1.28-5.35l.57-10.44L74.56,118a101.49,101.49,0,0,1,12.78-2.81,3.61,3.61,0,0,1,2.6.28c1,.68,1.08,2.08,1.08,3.28,0,10.65,1.44,21.28,1,31.92a24.41,24.41,0,0,1-.45,4.18l-.93,3.87a16.83,16.83,0,0,1-.86,3.65,5.29,5.29,0,0,1-1.88,3.07,7.93,7.93,0,0,1-3.3,1.14c-2,.38-8.45-5.87-10.47-5.49a10.65,10.65,0,0,1-4.16.21Z"/><path class="cls-2" d="M69.06,155.75c-2.55-.55-12,5.37-13.42,3.22-1-1.54-1.19-3.5-1.29-5.36l-.56-10.43,10.55-24.53c-3.75-1.14-9.35-1.79-13.22-2.37a3.64,3.64,0,0,0-2.61.28c-1,.68-1.07,2.08-1.08,3.28,0,10.65-1.44,21.28-1,31.92a24.42,24.42,0,0,0,.46,4.18l.93,3.87a16.83,16.83,0,0,0,.86,3.65,5.32,5.32,0,0,0,1.88,3.07,8,8,0,0,0,3.3,1.14c2,.37,10.66-5.87,12.68-5.49a10.4,10.4,0,0,0,4.15.2Z"/><path class="cls-3" d="M74.93,118a3.13,3.13,0,0,1-1.83-1.72,8.21,8.21,0,0,1-.63-2.5,56.12,56.12,0,0,1-.51-9.52l-3.34-2.1-4.33,1.94.28,11.44s-.39,1.17-.94,2.79c-.15.42-1.84-.68-2-.22s-.14,2.57-.32,3.11.89,1.27.67,1.9l-2.31,6.69,9.5,7.6,10.07-9.1-2.72-6.52.15-1.22.41-3.41Z"/><path class="cls-4" d="M84.13,179.11c-1.19-11.75-2.55-9.92-3.94-22.57-.5-4.6,3.36-13.09,3.5-17.69.24-7.39-2.06-15.84-1.41-23.13L77,117.27a17.22,17.22,0,0,1-1.36,5.82,12,12,0,0,1-13.55-.29,9,9,0,0,1-.32-4.94l-5.1-1c.59,5.84-1.46,19.85-1.74,25.71-.15,3,4,12.51,4.32,15.46,0,0-5.34,18.84-6,26-.3,3-3.09,41.28-3.69,44.23l39.35-.76Z"/><path class="cls-5" d="M43.67,90.31c2.92,1.94,6.15,2.21,7.21.6s-1.06-3.76-3.38-6.4-5.25-7.41-6.31-5.81S40.74,88.37,43.67,90.31Z"/><path class="cls-5" d="M94.33,90.31c-2.92,1.94-6.15,2.21-7.21.6s1.06-3.76,3.38-6.4,5.25-7.41,6.31-5.81S97.26,88.37,94.33,90.31Z"/><path class="cls-2" d="M68.56,63.69c0,3,24.12,10.42,23.81,13.29-2.18,20.49-11.77,35.93-23.26,35.93-11.88,0-21.71-16.48-23.45-38Z"/><circle class="cls-6" cx="68.85" cy="54.15" r="13.19"/><path class="cls-6" d="M68.66,55.86C54.57,55.86,44,69,44,85.23a33.9,33.9,0,0,0,1.05,7.47l3.73-17.26h5.56L54.84,72l.64,3.44h6.85l.19-6.12L63,75.44h6.33l.6-4.21.83,4.21h3.66l.43-.76.46.76h4L79.49,72l.42,3.44h2.57l.24-1.15.37,1.15h5l4.33,16.82a64.87,64.87,0,0,0,.83-7C93.28,69,82.74,55.86,68.66,55.86Z"/><circle class="cls-7" cx="57.22" cy="56.25" r="1.61"/><circle class="cls-7" cx="59.22" cy="57.48" r="1.61"/><circle class="cls-7" cx="58.45" cy="59.63" r="1.61"/><circle class="cls-7" cx="56" cy="59.63" r="1.61"/><circle class="cls-7" cx="55.38" cy="57.48" r="1.61"/><circle class="cls-8" cx="57.15" cy="58.02" r="1.07"/><circle class="cls-7" cx="71.06" cy="57.79" r="1.66"/><circle class="cls-7" cx="73.48" cy="57.84" r="1.66"/><circle class="cls-7" cx="73.93" cy="60.15" r="1.66"/><circle class="cls-7" cx="71.75" cy="61.44" r="1.66"/><circle class="cls-7" cx="70.07" cy="59.85" r="1.66"/><circle class="cls-8" cx="71.92" cy="59.4" r="1.11"/><circle class="cls-7" cx="64.01" cy="61.76" r="1.81"/><circle class="cls-7" cx="62.14" cy="59.9" r="1.81"/><circle class="cls-7" cx="63.55" cy="57.75" r="1.81"/><circle class="cls-7" cx="66.24" cy="58.39" r="1.81"/><circle class="cls-7" cx="66.34" cy="60.9" r="1.81"/><circle class="cls-8" cx="64.55" cy="59.85" r="1.21"/><circle class="cls-7" cx="79.29" cy="56.89" r="1.81"/><circle class="cls-7" cx="81.53" cy="58.27" r="1.81"/><circle class="cls-7" cx="80.67" cy="60.69" r="1.81"/><circle class="cls-7" cx="77.91" cy="60.69" r="1.81"/><circle class="cls-7" cx="77.21" cy="58.27" r="1.81"/><circle class="cls-8" cx="79.2" cy="58.88" r="1.21"/><path class="cls-6" d="M84.55,80.46,83,79.53c-.28-.16-.56-.33-.85-.46a11.32,11.32,0,0,0-5.57-.71,8.57,8.57,0,0,0-.86.27,9.94,9.94,0,0,0-2.63,1.25l-.71.45A4.33,4.33,0,0,0,74,80c.26-.1.51-.23.78-.33a6.49,6.49,0,0,1,1.24-.25,18.79,18.79,0,0,1,4.1-.19,20,20,0,0,1,3.81.87"/><path class="cls-6" d="M66.89,80.46l-1.56-.93c-.28-.16-.56-.33-.85-.46a8.2,8.2,0,0,0-2.07-.6,8.28,8.28,0,0,0-3.5-.11c-.29.07-.57.17-.86.27a9.94,9.94,0,0,0-2.63,1.25l-.71.45A4.33,4.33,0,0,0,56.37,80c.26-.1.51-.23.78-.33a6.59,6.59,0,0,1,1.25-.25,18.7,18.7,0,0,1,4.09-.19,20,20,0,0,1,3.81.87"/><path class="cls-7" d="M78.17,81.93a5.19,5.19,0,0,1,4.59,2.4c.06-.25.22-.51.1-.71-1.09-1.69-2.18-2.54-4.87-2.54a5.37,5.37,0,0,0-4.87,2.54c-.24.31.08.76.23,1.17A5.06,5.06,0,0,1,78.17,81.93Z"/><path class="cls-6" d="M78.17,83.9c1.79,0,3.24,1.14,3.24,2.54a1.66,1.66,0,0,1,0,.32,5.58,5.58,0,0,0,1.38-2.43,5.19,5.19,0,0,0-4.59-2.4,5.06,5.06,0,0,0-4.82,2.86,6.13,6.13,0,0,0,1.74,2.45,2.16,2.16,0,0,1-.17-.8C74.92,85,76.38,83.9,78.17,83.9Z"/><path d="M78,88.41a4.74,4.74,0,0,0,3.39-1.65,1.66,1.66,0,0,0,0-.32c0-1.4-1.45-2.54-3.24-2.54S74.92,85,74.92,86.44a2.16,2.16,0,0,0,.17.8A4.52,4.52,0,0,0,78,88.41Z"/><ellipse class="cls-7" cx="75.65" cy="84.46" rx="0.72" ry="0.56"/><ellipse class="cls-7" cx="75.93" cy="85.54" rx="0.29" ry="0.23"/><path class="cls-7" d="M61,82.59a5.22,5.22,0,0,1,4.6,2.4c.06-.25.22-.51.09-.71-1.08-1.69-2.18-2.53-4.87-2.53a5.37,5.37,0,0,0-4.87,2.53c-.23.31.09.76.24,1.17A5,5,0,0,1,61,82.59Z"/><path class="cls-6" d="M61,84.56c1.8,0,3.25,1.14,3.25,2.54a1.66,1.66,0,0,1,0,.32A5.78,5.78,0,0,0,65.55,85a5.22,5.22,0,0,0-4.6-2.4,5,5,0,0,0-4.81,2.86,6.13,6.13,0,0,0,1.74,2.46,2.06,2.06,0,0,1-.17-.81C57.71,85.7,59.16,84.56,61,84.56Z"/><path d="M60.77,89.07a4.78,4.78,0,0,0,3.4-1.65,1.66,1.66,0,0,0,0-.32c0-1.4-1.45-2.54-3.25-2.54s-3.24,1.14-3.24,2.54a2.06,2.06,0,0,0,.17.81A4.5,4.5,0,0,0,60.77,89.07Z"/><ellipse class="cls-7" cx="58.43" cy="85.13" rx="0.72" ry="0.56"/><ellipse class="cls-7" cx="58.72" cy="86.2" rx="0.29" ry="0.23"/><path d="M68.46,88.38c-.39,1.84-1.44,3.47-1.55,5.37a3.83,3.83,0,0,0,2.25,3.89.77.77,0,0,0,.93-.52.78.78,0,0,0-.53-.93c-1.12-.45-1.28-2-1.08-3,.3-1.53,1.1-2.89,1.43-4.41.2-.94-1.24-1.34-1.45-.4Z"/><path class="cls-6" d="M69.37,101.86a1.65,1.65,0,0,1,.57-.74,2.41,2.41,0,0,1,.81-.38A2.3,2.3,0,0,1,72,100.6,1.54,1.54,0,0,1,73.08,102,3.9,3.9,0,0,1,72,104.56l-2.58,3.35-2.58-3.35A3.9,3.9,0,0,1,65.68,102a1.54,1.54,0,0,1,1.09-1.37,2.3,2.3,0,0,1,1.24.14,1.84,1.84,0,0,1,.7.38Z"/><path d="M63.35,102.1a11.1,11.1,0,0,0,4.45,2.34,6.92,6.92,0,0,0,4.56-.3,8.93,8.93,0,0,0,3.29-2.81c.55-.8-.75-1.55-1.3-.76a7.19,7.19,0,0,1-2.83,2.32,4.21,4.21,0,0,1-1.93.24,5.49,5.49,0,0,1-1.93-.3c-.54-.2-1.08-.42-1.61-.64-.09,0-.22-.13-.07,0l-.5-.33c-.36-.25-.73-.51-1.07-.79-.74-.6-1.81.45-1.06,1.06Z"/><path class="cls-9" d="M46.81,90q.16,7.27.83,14.52c0,.48.8.48.75,0q-.66-7.24-.83-14.52a.38.38,0,0,0-.75,0Z"/><path class="cls-6" d="M47.28,94.05a.56.56,0,0,1,.2-.28,1.17,1.17,0,0,1,.3-.14,1,1,0,0,1,.46,0,.58.58,0,0,1,.4.51,1.48,1.48,0,0,1-.41,1l-.95,1.23-1-1.23a1.39,1.39,0,0,1-.41-1,.57.57,0,0,1,.4-.51,1,1,0,0,1,.45,0,.82.82,0,0,1,.26.14Z"/><path class="cls-6" d="M47.5,97.58a.51.51,0,0,1,.21-.27.78.78,0,0,1,.29-.14.92.92,0,0,1,.46-.06.58.58,0,0,1,.4.51,1.48,1.48,0,0,1-.41.95l-1,1.23-1-1.23a1.43,1.43,0,0,1-.41-.95.58.58,0,0,1,.4-.51.87.87,0,0,1,.45.06.6.6,0,0,1,.26.14Z"/><path class="cls-6" d="M47.72,101.11a.6.6,0,0,1,.21-.27.78.78,0,0,1,.29-.14.81.81,0,0,1,.46,0,.56.56,0,0,1,.4.5,1.48,1.48,0,0,1-.41.95l-1,1.23-.95-1.23a1.43,1.43,0,0,1-.41-.95.56.56,0,0,1,.4-.5.81.81,0,0,1,.46,0,.62.62,0,0,1,.25.14Z"/><path class="cls-6" d="M47.94,104.64a.6.6,0,0,1,.21-.27.78.78,0,0,1,.29-.14.81.81,0,0,1,.46,0,.57.57,0,0,1,.4.5,1.41,1.41,0,0,1-.41.95l-1,1.24L47,105.63a1.41,1.41,0,0,1-.41-.95.57.57,0,0,1,.4-.5.81.81,0,0,1,.46,0,.62.62,0,0,1,.25.14Z"/><path class="cls-9" d="M90.83,89.8q-.17,7.28-.83,14.52c0,.48.7.48.75,0q.66-7.25.83-14.52a.38.38,0,0,0-.75,0Z"/><path class="cls-6" d="M91.11,93.85a.66.66,0,0,0-.2-.27.91.91,0,0,0-.3-.14.81.81,0,0,0-.46,0,.56.56,0,0,0-.4.5,1.48,1.48,0,0,0,.41,1l1,1.24,1-1.24a1.43,1.43,0,0,0,.41-1,.56.56,0,0,0-.4-.5.77.77,0,0,0-.45,0,.6.6,0,0,0-.26.14Z"/><path class="cls-6" d="M90.89,97.38a.6.6,0,0,0-.21-.27.78.78,0,0,0-.29-.14.81.81,0,0,0-.46,0,.57.57,0,0,0-.4.5,1.46,1.46,0,0,0,.41,1l1,1.24,1-1.24a1.41,1.41,0,0,0,.41-1,.57.57,0,0,0-.4-.5.77.77,0,0,0-.45,0,.6.6,0,0,0-.26.14Z"/><path class="cls-6" d="M90.67,100.91a.6.6,0,0,0-.21-.27.78.78,0,0,0-.29-.14.81.81,0,0,0-.46,0,.57.57,0,0,0-.4.51,1.48,1.48,0,0,0,.41,1l1,1.23,1-1.23a1.43,1.43,0,0,0,.41-1,.57.57,0,0,0-.4-.51.81.81,0,0,0-.46,0,.62.62,0,0,0-.25.14Z"/><path class="cls-6" d="M90.45,104.44a.6.6,0,0,0-.21-.27A1,1,0,0,0,90,104a.91.91,0,0,0-.46,0,.57.57,0,0,0-.4.51,1.43,1.43,0,0,0,.41,1l1,1.23,1-1.23a1.48,1.48,0,0,0,.41-1,.57.57,0,0,0-.4-.51.91.91,0,0,0-.46,0,.77.77,0,0,0-.25.14Z"/><ellipse class="cls-10" cx="53.53" cy="141.5" rx="0.48" ry="1.19" transform="translate(-51.22 32.34) rotate(-23.1)"/><ellipse class="cls-10" cx="53.23" cy="144.48" rx="0.48" ry="1.19" transform="translate(-52.41 32.47) rotate(-23.1)"/><ellipse class="cls-10" cx="53.23" cy="147.45" rx="0.48" ry="1.19" transform="translate(-78.32 62.19) rotate(-37.2)"/><ellipse class="cls-10" cx="54.61" cy="142.74" rx="1.19" ry="0.48" transform="translate(-93.78 106.18) rotate(-55.22)"/><ellipse class="cls-10" cx="54.55" cy="147.05" rx="1.37" ry="0.48" transform="translate(-100.07 120.76) rotate(-60)"/><path class="cls-10" d="M53.44,142.06q.11,1.71.06,3.42a10.94,10.94,0,0,0,.23,3.23c.23.81.77,1.45,1,2.24a20.52,20.52,0,0,1,.56,2,.37.37,0,0,0,.72-.19,19.25,19.25,0,0,0-.51-1.88c-.26-.78-.77-1.42-1-2.19a9.45,9.45,0,0,1-.25-3.31c0-1.11,0-2.22-.07-3.32,0-.48-.78-.49-.75,0Z"/><ellipse class="cls-10" cx="64.68" cy="144.03" rx="1.19" ry="0.48" transform="translate(-93.18 147.02) rotate(-66.9)"/><ellipse class="cls-10" cx="64.98" cy="147" rx="1.19" ry="0.48" transform="translate(-95.73 149.1) rotate(-66.9)"/><ellipse class="cls-10" cx="64.98" cy="149.98" rx="1.19" ry="0.48" transform="translate(-93.77 111.05) rotate(-52.8)"/><ellipse class="cls-10" cx="63.6" cy="145.26" rx="0.48" ry="1.19" transform="translate(-71.5 62.22) rotate(-34.78)"/><ellipse class="cls-10" cx="63.66" cy="149.58" rx="0.48" ry="1.37" transform="translate(-66.26 51.87) rotate(-30)"/><path class="cls-10" d="M64,144.58c-.07,1.11-.09,2.22-.07,3.32a9.75,9.75,0,0,1-.25,3.32c-.26.77-.77,1.41-1,2.19-.2.61-.37,1.24-.52,1.87-.11.47.62.67.73.2.15-.65.32-1.3.53-1.94.27-.81.82-1.47,1.06-2.3a10.6,10.6,0,0,0,.23-3.13c0-1.17,0-2.35.06-3.53,0-.48-.73-.48-.75,0Z"/><ellipse class="cls-10" cx="74.9" cy="147.12" rx="0.48" ry="1.19" transform="translate(-51.71 41.18) rotate(-23.1)"/><ellipse class="cls-10" cx="74.6" cy="150.09" rx="0.48" ry="1.19" transform="translate(-52.9 41.3) rotate(-23.1)"/><ellipse class="cls-10" cx="74.6" cy="153.07" rx="0.48" ry="1.19" transform="translate(-77.37 76.25) rotate(-37.2)"/><ellipse class="cls-10" cx="75.98" cy="148.35" rx="1.19" ry="0.48" transform="translate(-89.21 126.14) rotate(-55.22)"/><ellipse class="cls-10" cx="75.91" cy="152.67" rx="1.37" ry="0.48" transform="matrix(0.5, -0.87, 0.87, 0.5, -94.26, 142.08)"/><path class="cls-10" d="M74.81,147.67c.06,1.15.08,2.29.06,3.43a10.93,10.93,0,0,0,.22,3.23c.23.81.77,1.45,1,2.24s.4,1.33.56,2c.11.47.83.27.72-.2-.15-.63-.32-1.26-.52-1.87-.25-.78-.76-1.42-1-2.19a10,10,0,0,1-.25-3.32c0-1.1,0-2.21-.06-3.32,0-.47-.78-.48-.75,0Z"/><ellipse class="cls-10" cx="59.38" cy="146.46" rx="1.19" ry="0.48" transform="translate(-98.63 143.62) rotate(-66.9)"/><ellipse class="cls-10" cx="59.68" cy="149.43" rx="1.19" ry="0.48" transform="translate(-101.19 145.7) rotate(-66.9)"/><ellipse class="cls-10" cx="59.68" cy="152.41" rx="1.19" ry="0.48" transform="translate(-97.8 107.79) rotate(-52.8)"/><ellipse class="cls-10" cx="58.3" cy="147.69" rx="0.48" ry="1.19" transform="translate(-73.83 59.63) rotate(-34.78)"/><ellipse class="cls-10" cx="58.36" cy="152.01" rx="0.48" ry="1.37" transform="translate(-68.18 49.55) rotate(-30)"/><path class="cls-10" d="M58.72,147c-.06,1.11-.09,2.21-.06,3.32a9.75,9.75,0,0,1-.26,3.32c-.25.77-.76,1.4-1,2.18-.2.62-.37,1.25-.51,1.88-.11.47.61.67.72.2.15-.65.33-1.3.54-1.94.27-.81.82-1.48,1-2.31a10.54,10.54,0,0,0,.23-3.12c0-1.18,0-2.35.06-3.53,0-.48-.72-.48-.75,0Z"/><ellipse class="cls-10" cx="81.78" cy="142.39" rx="1.19" ry="0.48" transform="translate(-81.28 161.76) rotate(-66.9)"/><ellipse class="cls-10" cx="82.08" cy="145.37" rx="1.19" ry="0.48" transform="translate(-83.84 163.84) rotate(-66.9)"/><ellipse class="cls-10" cx="82.08" cy="148.34" rx="1.19" ry="0.48" transform="translate(-85.7 124.03) rotate(-52.8)"/><ellipse class="cls-10" cx="80.7" cy="143.63" rx="0.48" ry="1.19" transform="translate(-67.51 71.68) rotate(-34.78)"/><ellipse class="cls-10" cx="80.76" cy="147.94" rx="0.48" ry="1.37" transform="translate(-63.15 60.2) rotate(-30)"/><path class="cls-10" d="M81.12,143c-.06,1.1-.08,2.21-.06,3.32a9.94,9.94,0,0,1-.25,3.31c-.26.77-.77,1.41-1,2.19-.2.62-.38,1.25-.52,1.88-.11.47.61.67.72.2.15-.66.33-1.31.54-1.94.27-.82.82-1.48,1.06-2.31a10.53,10.53,0,0,0,.22-3.12c0-1.18,0-2.36.06-3.53,0-.48-.72-.48-.75,0Z"/><ellipse class="cls-11" cx="59.99" cy="141.67" rx="0.48" ry="1.19" transform="translate(-87.51 97.92) rotate(-50.53)"/><ellipse class="cls-11" cx="61.66" cy="141.64" rx="1.21" ry="0.51" transform="translate(-91.03 118.18) rotate(-57.74)"/><ellipse class="cls-11" cx="61.05" cy="140.58" rx="1.54" ry="0.48" transform="translate(-83.52 191.44) rotate(-85.91)"/><ellipse class="cls-11" cx="62.25" cy="144.02" rx="1.21" ry="0.51" transform="translate(-92.76 119.8) rotate(-57.74)"/><ellipse class="cls-11" cx="60.94" cy="144.89" rx="0.54" ry="1.61" transform="translate(-82.18 79.89) rotate(-42.76)"/><path class="cls-11" d="M60.51,140.83c-.29.67.23,1.39.38,2,.21.91.11,1.82.24,2.73s.4,1.6.44,2.45c0,.44,0,.88,0,1.31a5.11,5.11,0,0,0,.09,1.24.37.37,0,0,0,.72-.2,5.4,5.4,0,0,1-.07-1.21c0-.41,0-.81,0-1.22a13.9,13.9,0,0,0-.39-2.2c-.17-.8-.07-1.62-.18-2.43a7.77,7.77,0,0,0-.26-1.16c-.07-.2-.41-.77-.32-1,.19-.44-.46-.82-.65-.38Z"/><path class="cls-11" d="M61.7,150.45,62,153a.38.38,0,0,0,.75,0l-.3-2.5a.38.38,0,1,0-.75,0Z"/><ellipse class="cls-11" cx="68.94" cy="142.39" rx="0.48" ry="1.19" transform="translate(-79.03 86.4) rotate(-43.44)"/><ellipse class="cls-11" cx="70.6" cy="142.57" rx="1.21" ry="0.51" transform="translate(-84.41 106.78) rotate(-50.65)"/><ellipse class="cls-11" cx="70.13" cy="141.44" rx="1.54" ry="0.48" transform="translate(-82.22 182.81) rotate(-78.82)"/><ellipse class="cls-11" cx="70.9" cy="145" rx="1.21" ry="0.51" transform="translate(-86.19 107.9) rotate(-50.65)"/><ellipse class="cls-11" cx="69.48" cy="145.71" rx="0.54" ry="1.61" transform="translate(-71.93 67.86) rotate(-35.67)"/><path class="cls-11" d="M69.54,141.66a1,1,0,0,0-.08.86,10.63,10.63,0,0,1,.25,1.39c.06.85-.14,1.67-.13,2.51a22.72,22.72,0,0,1,.14,2.47,13.63,13.63,0,0,0-.17,2.62c.07.48.8.28.73-.2a5.79,5.79,0,0,1,.1-1.31l.09-1.11a15.77,15.77,0,0,0-.13-2.28c0-.78.15-1.56.13-2.34a6.64,6.64,0,0,0-.09-1,5.12,5.12,0,0,0-.1-.54c0-.17-.2-.51-.1-.69a.37.37,0,0,0-.64-.38Z"/><path class="cls-11" d="M69.55,151.36v2.52a.38.38,0,0,0,.75,0v-2.52a.38.38,0,1,0-.75,0Z"/><ellipse class="cls-11" cx="76.13" cy="143.82" rx="0.48" ry="1.19" transform="translate(-83.29 111.16) rotate(-50.53)"/><ellipse class="cls-11" cx="77.8" cy="143.8" rx="1.21" ry="0.51" transform="translate(-85.33 132.84) rotate(-57.74)"/><ellipse class="cls-11" cx="77.19" cy="142.73" rx="1.54" ry="0.48" transform="translate(-70.68 209.54) rotate(-85.91)"/><ellipse class="cls-11" cx="78.4" cy="146.18" rx="1.21" ry="0.51" transform="translate(-87.06 134.45) rotate(-57.74)"/><ellipse class="cls-11" cx="77.08" cy="147.05" rx="0.54" ry="1.61" transform="translate(-79.35 91.42) rotate(-42.76)"/><path class="cls-11" d="M76.65,143c-.29.66.23,1.38.38,2,.21.9.11,1.81.24,2.72s.4,1.61.44,2.46c0,.43,0,.87.05,1.31a5.18,5.18,0,0,0,.09,1.24.37.37,0,0,0,.72-.2,6.2,6.2,0,0,1-.07-1.22c0-.4,0-.81,0-1.21a13.51,13.51,0,0,0-.39-2.2c-.17-.8-.07-1.63-.18-2.44a7.64,7.64,0,0,0-.26-1.15c-.07-.21-.41-.77-.32-1,.19-.44-.46-.82-.65-.38Z"/><path class="cls-11" d="M76.72,152.6l.29,2.5a1.27,1.27,0,0,0,.13.58,1.11,1.11,0,0,0,.31.48,1.52,1.52,0,0,0,1.06.44,1.54,1.54,0,0,0,1.07-.44A1.41,1.41,0,0,0,80,155.1l-.29-2.5a1.29,1.29,0,0,0-.13-.58,1.24,1.24,0,0,0-.31-.48,1.56,1.56,0,0,0-1.06-.44,1.54,1.54,0,0,0-1.06.44,1.4,1.4,0,0,0-.44,1.06Z"/><ellipse class="cls-10" cx="86.42" cy="150.31" rx="0.7" ry="0.45" transform="translate(-85.09 175.67) rotate(-68.51)"/><ellipse class="cls-10" cx="84.67" cy="150.39" rx="0.7" ry="0.45" transform="translate(-86.28 174.09) rotate(-68.51)"/><ellipse class="cls-10" cx="83.05" cy="150.74" rx="0.83" ry="0.38" transform="matrix(0.07, -1, 1, 0.07, -73.18, 222.93)"/><ellipse class="cls-10" cx="86.25" cy="151.43" rx="0.31" ry="1.01" transform="translate(-87.28 135.45) rotate(-55.07)"/><ellipse class="cls-10" cx="83.88" cy="151.88" rx="0.32" ry="1.1" transform="translate(-89.55 146.91) rotate(-59.45)"/><path class="cls-10" d="M86.16,150.27a13.43,13.43,0,0,1-1.87.46,3.48,3.48,0,0,0-1.6.55,1.5,1.5,0,0,0-.49.57,3.37,3.37,0,0,1-.28.61,4.31,4.31,0,0,1-.86.8.39.39,0,0,0-.14.52.38.38,0,0,0,.52.13,7.49,7.49,0,0,0,.9-.79,2,2,0,0,0,.34-.48,2,2,0,0,1,.37-.69,2.77,2.77,0,0,1,1.49-.5,12.63,12.63,0,0,0,1.81-.46c.46-.15.27-.87-.19-.72Z"/><ellipse class="cls-12" cx="66.45" cy="139.44" rx="0.48" ry="1.75" transform="translate(-49.38 37.25) rotate(-23.1)"/><ellipse class="cls-12" cx="67.39" cy="140.79" rx="1.43" ry="0.48" transform="translate(-87.25 161.96) rotate(-72.22)"/><ellipse class="cls-12" cx="66.5" cy="143.02" rx="0.48" ry="1.43" transform="translate(-71.41 66.48) rotate(-36.03)"/><ellipse class="cls-12" cx="66.65" cy="144.95" rx="1.43" ry="0.48" transform="translate(-92.21 130.19) rotate(-60)"/><ellipse class="cls-12" cx="67.84" cy="144.95" rx="1.43" ry="0.48" transform="translate(-91.61 131.22) rotate(-60)"/><path class="cls-12" d="M66.38,140.16c.12.5.5.86.37,1.4a4.84,4.84,0,0,0-.31,1.3,2.53,2.53,0,0,0,.18,1c.08.17.22.28.3.44a1.19,1.19,0,0,1,0,.89,18.66,18.66,0,0,0-.15,2.48c-.05,2.14-.06,4.27-.06,6.41a.38.38,0,0,0,.75,0c0-2.18,0-4.37.07-6.55,0-.9.12-1.77.21-2.66a1.48,1.48,0,0,0-.25-1,1.87,1.87,0,0,1-.24-1.58,3,3,0,0,0,.29-1.17c0-.42-.36-.74-.45-1.15s-.84-.28-.73.19Z"/><ellipse class="cls-12" cx="56.27" cy="137.73" rx="0.48" ry="1.82" transform="translate(-47.52 31.13) rotate(-22.01)"/><ellipse class="cls-12" cx="57.21" cy="139.14" rx="1.49" ry="0.48" transform="translate(-92.54 153.57) rotate(-73.15)"/><ellipse class="cls-12" cx="56.32" cy="141.48" rx="0.49" ry="1.47" transform="matrix(0.82, -0.57, 0.57, 0.82, -70.18, 56.71)"/><ellipse class="cls-12" cx="56.47" cy="143.51" rx="1.48" ry="0.48" transform="matrix(0.48, -0.88, 0.88, 0.48, -96.56, 124.42)"/><ellipse class="cls-12" cx="57.66" cy="143.51" rx="1.48" ry="0.48" transform="translate(-95.94 125.46) rotate(-61.41)"/><path class="cls-12" d="M56.2,138.49c.12.52.5.9.37,1.47a5.18,5.18,0,0,0-.31,1.36,2.7,2.7,0,0,0,.18,1.05c.08.18.22.3.3.47a1.32,1.32,0,0,1,0,.94,20.39,20.39,0,0,0-.15,2.6c0,2.23-.06,4.47-.06,6.71a.38.38,0,0,0,.75,0c0-2.29,0-4.58.06-6.86,0-.95.13-1.85.22-2.79a1.6,1.6,0,0,0-.25-1.06,2.08,2.08,0,0,1-.24-1.67,3.2,3.2,0,0,0,.29-1.21c-.05-.44-.36-.79-.45-1.21s-.83-.27-.73.2Z"/><ellipse class="cls-12" cx="73.79" cy="139.12" rx="1.75" ry="0.48" transform="translate(-83.13 152.41) rotate(-66.9)"/><ellipse class="cls-12" cx="72.84" cy="140.47" rx="0.48" ry="1.43" transform="translate(-39.42 28.96) rotate(-17.78)"/><ellipse class="cls-12" cx="73.74" cy="142.7" rx="1.43" ry="0.48" transform="translate(-85.04 118.39) rotate(-53.97)"/><ellipse class="cls-12" cx="73.59" cy="144.63" rx="0.48" ry="1.43" transform="translate(-62.46 56.17) rotate(-30)"/><ellipse class="cls-12" cx="72.4" cy="144.63" rx="0.48" ry="1.43" transform="translate(-62.62 55.58) rotate(-30)"/><path class="cls-12" d="M73.13,139.65c-.1.41-.41.73-.46,1.16A3,3,0,0,0,73,142a1.9,1.9,0,0,1-.2,1.51,1.54,1.54,0,0,0-.31,1c0,.4.14.79.17,1.2s.05,1,.06,1.56c.06,2.18.07,4.37.06,6.55a.38.38,0,0,0,.75,0c0-2.13,0-4.27-.06-6.41a18.76,18.76,0,0,0-.15-2.48,1.27,1.27,0,0,1,0-.88c.08-.16.23-.28.3-.45a2.7,2.7,0,0,0,.19-1,4.12,4.12,0,0,0-.28-1.2c-.16-.63.2-.94.33-1.5s-.61-.67-.72-.2Z"/><ellipse class="cls-10" cx="83.93" cy="151.91" rx="0.31" ry="1.01" transform="translate(-89.6 148.64) rotate(-60)"/><circle class="cls-13" cx="87.87" cy="151.34" r="0.98"/><circle class="cls-13" cx="86.44" cy="151.32" r="0.98"/><circle class="cls-13" cx="86.18" cy="149.95" r="0.98"/><circle class="cls-13" cx="87.47" cy="149.19" r="0.98"/><circle class="cls-13" cx="88.45" cy="150.13" r="0.98"/><circle class="cls-8" cx="87.36" cy="150.39" r="0.65"/><circle class="cls-14" cx="57.1" cy="139.59" r="1.44"/><circle class="cls-14" cx="55.62" cy="138.1" r="1.44"/><circle class="cls-14" cx="56.74" cy="136.39" r="1.44"/><circle class="cls-14" cx="58.88" cy="136.9" r="1.44"/><circle class="cls-14" cx="58.96" cy="138.9" r="1.44"/><circle class="cls-8" cx="57.54" cy="138.06" r="0.96"/><circle class="cls-7" cx="63.96" cy="145.64" r="1.08"/><circle class="cls-7" cx="62.85" cy="144.53" r="1.08"/><circle class="cls-7" cx="63.68" cy="143.25" r="1.08"/><circle class="cls-7" cx="65.29" cy="143.63" r="1.08"/><circle class="cls-7" cx="65.35" cy="145.13" r="1.08"/><circle class="cls-8" cx="64.28" cy="144.5" r="0.72"/><circle class="cls-15" cx="82.28" cy="142.33" r="1.08"/><circle class="cls-15" cx="81.17" cy="141.22" r="1.08"/><circle class="cls-15" cx="82" cy="139.94" r="1.08"/><circle class="cls-15" cx="83.6" cy="140.32" r="1.08"/><circle class="cls-15" cx="83.67" cy="141.82" r="1.08"/><circle class="cls-8" cx="82.6" cy="141.19" r="0.72"/><circle class="cls-16" cx="72.77" cy="139.81" r="1.44"/><circle class="cls-16" cx="71.29" cy="138.32" r="1.44"/><circle class="cls-16" cx="72.41" cy="136.61" r="1.44"/><circle class="cls-16" cx="74.55" cy="137.12" r="1.44"/><circle class="cls-16" cx="74.64" cy="139.12" r="1.44"/><circle class="cls-8" cx="73.21" cy="138.28" r="0.96"/><path class="cls-17" d="M84.37,152c0,5.41.61,10.36-1.5,14.13-2.49,4.46-8.18,4.16-14.31,4.16-5.81,0-11.37.59-13.9-3.48-2.39-3.84-1.9-9.06-1.9-14.81Z"/><path class="cls-18" d="M74.31,259.21c.82,6.89,1.37,5.38,2.19,12.27a51.53,51.53,0,0,1,.22,10.31c-.66,4.42-3.27,5.38-4.72,9.51a3.18,3.18,0,0,0-.22,1.69,2,2,0,0,0,1.51,1.34c2.46.75,5.47-3.14,7.93-3.92,1-.31,1.56,2.45,2.25,1.55a7.84,7.84,0,0,0,1.08-4.16c.83-12.14,3.49-16,2.38-28.11Z"/><path class="cls-18" d="M57.52,259.3c.83,6.89,1.37,5.39,2.2,12.27a52.29,52.29,0,0,1,.22,10.31c-.66,4.43-3.27,5.38-4.72,9.51a3.09,3.09,0,0,0-.22,1.69,2,2,0,0,0,1.5,1.35c2.47.74,5.48-3.14,7.94-3.93,1-.3,1.55,2.45,2.24,1.56a7.79,7.79,0,0,0,1.09-4.17c.83-12.14,3.48-16,2.37-28.1Z"/><path class="cls-2" d="M84.3,164.15a1.3,1.3,0,0,1-1.11,1,1.32,1.32,0,0,1-1.29-.75,3.55,3.55,0,0,1-.12-1.42c0-1.21-.52-2.49,0-3.59A2.84,2.84,0,0,1,83.3,158a8.87,8.87,0,0,1,2-.48,20.07,20.07,0,0,1,.58,4.42,5,5,0,0,1-.33,1.88,2.6,2.6,0,0,1-1.27,1.38"/><path class="cls-2" d="M52.38,164.33a1.26,1.26,0,0,0,2.33.59,3.55,3.55,0,0,0,.34-1.38c.2-1.2.89-2.39.55-3.55a2.92,2.92,0,0,0-1.32-1.58,8.43,8.43,0,0,0-2-.77,20.06,20.06,0,0,0-1.24,4.27,5.39,5.39,0,0,0,0,1.92,2.57,2.57,0,0,0,1,1.55"/></g></g></svg>