<svg xmlns="http://www.w3.org/2000/svg" viewBox="0 0 138 300"><defs><style>.cls-1{fill:#ce803a;}.cls-2{fill:#e0a80a;}.cls-3{fill:#cd7722;}.cls-4{fill:#fbb03b;}.cls-5{fill:#ffc30b;}.cls-6{fill:#fff;}.cls-7{fill:#d2b45a;}.cls-14,.cls-8,.cls-9{fill:none;}.cls-8{stroke:#fec463;}.cls-10,.cls-8,.cls-9{stroke-miterlimit:10;}.cls-10,.cls-9{stroke:#42210b;}.cls-9{stroke-width:3px;}.cls-10{fill:#f8cf11;}.cls-11{fill:#42210b;}.cls-12{fill:#c3b090;}.cls-13{fill:#603813;}</style></defs><title>apollo</title><g id="Layer_2" data-name="Layer 2"><g id="Layer_1-2" data-name="Layer 1"><path d="M48.75,286.44a12,12,0,0,0-4.61,4,5,5,0,0,0-1,2.38,6.38,6.38,0,0,0,.61,2.72,1.12,1.12,0,0,0,.49.68,1.16,1.16,0,0,0,.64,0,34,34,0,0,0,6.28-1.75c.2-.08,4.09-1.76,4.25-1.91.43-.42.28-1.14.08-1.72-.73-2.17-5.33-2.68-6.42-4.69"/><path d="M47.23,283.85a14.76,14.76,0,0,0-4.1,3.09,10,10,0,0,0-2.92,5.69,7.43,7.43,0,0,0,.39,2.92,5.32,5.32,0,0,0,2.18,3.29c1.3.72,2.73.39,4.09.1.92-.2,1.82-.43,2.71-.7a50.78,50.78,0,0,0,6.19-2.46,4.61,4.61,0,0,0,2.46-1.91,5.25,5.25,0,0,0-1.11-5.95,11.53,11.53,0,0,0-3.54-2.21,14.2,14.2,0,0,1-1.64-.86l-.22-.14c-.41-.26.59.57.1.08a3,3,0,0,0-.25-.25c-.34-.3.47.72.15.15a3,3,0,0,0-5.19,3c1.14,2,3.28,2.77,5.21,3.75a10.28,10.28,0,0,1,1.07.62c.1.06.47.34,0,0s-.1-.08,0,0l.16.17c.36.31-.44-.62-.19-.25s-.08.27-.12-.31a3,3,0,0,0,.1.32c.15.46,0-.22,0-.29v.17a2,2,0,0,1,.59-1.4s.86-.54.47-.38l-.39.18c-.67.32-1.36.62-2,.92l-.95.41c-.44.19-1.05.39,0,0a37,37,0,0,1-4,1.28c-.67.17-1.36.29-2,.44l-.22,0c1.33-.1,2.16.3,2.47,1.2l.08.2-.15-.41c-.13-.34-.23-.68-.33-1-.2-.66,0,.48,0,.05,0-.12.07-.81,0-.35s.08-.17.09-.22c.16-.64-.3.49,0-.08a10.23,10.23,0,0,1,.62-1l.05-.08c.2-.26.16-.22-.1.13,0-.12.31-.37.38-.46.22-.25.46-.49.7-.72l.37-.33.22-.2-.13.1c.12-.22.6-.43.82-.57a11.59,11.59,0,0,1,1-.58,3,3,0,0,0,1.08-4.11,3.08,3.08,0,0,0-4.11-1.07Z"/><path d="M79.6,286.48a12.06,12.06,0,0,0-5,3.45,5,5,0,0,0-1.24,2.24,6.44,6.44,0,0,0,.28,2.78.85.85,0,0,0,1,.83,34.21,34.21,0,0,0,6.44-1c.21-.06,4.28-1.25,4.45-1.38.48-.37.42-1.1.29-1.7-.47-2.24-5-3.3-5.8-5.43"/><path d="M78.81,283.59a16.17,16.17,0,0,0-5.06,2.91,9.92,9.92,0,0,0-3.26,4.59,7.53,7.53,0,0,0,0,3.5,5.42,5.42,0,0,0,1.44,3.21,4.49,4.49,0,0,0,3.71.91c1.15-.1,2.3-.25,3.44-.43a44.2,44.2,0,0,0,6-1.53,5.34,5.34,0,0,0,3.21-1.92,5.17,5.17,0,0,0-.27-5.54,11.83,11.83,0,0,0-3.59-3l-.82-.52c-.25-.17-1-.87-.26-.15-.19-.18-.39-.34-.58-.53s.05-.23.16.23a2.12,2.12,0,0,1-.12-.2c-.14-.26-.09-.13.15.41a3.32,3.32,0,0,0-1.38-1.79,3,3,0,0,0-2.31-.3c-1.38.44-2.75,2.14-2.1,3.69a6.48,6.48,0,0,0,1.24,2.06,8.77,8.77,0,0,0,1.42,1.23c.76.57,1.59,1.05,2.39,1.58l.53.37c.38.25-.26-.21-.27-.22s.17.14.26.22l.41.4c.34.35-.36-.58-.21-.27a1.83,1.83,0,0,0,.18.3c.18.27-.23-.8-.17-.35a1.81,1.81,0,0,0,.06.27c-.21-.54,0-.57,0-.28,0,.53.09-.37.15-.51a2.45,2.45,0,0,1,1.51-1.3l-.37.13c-1.28.43-2.58.82-3.87,1.17-.56.15-1.13.27-1.7.39l-1.07.19-.59.1c-.65.1.55-.06-.16,0l-1,.1a7,7,0,0,0-1.21.09h-.16l1.89,1.14c.36.56.17.42.09.11s-.09-.38-.13-.57l0-.23c-.06-.34-.06-.31,0,.1a1.81,1.81,0,0,1,0-.46c0-.29,0-.31,0-.07s0,.23,0,0l0-.19c.09-.25.09-.25,0,0s-.1.23,0,0l.15-.26c.07-.1.18-.36.29-.41l-.22.29.26-.3a8.5,8.5,0,0,1,.73-.74l.38-.35c.08-.07.65-.45.26-.21s.15-.1.2-.13l.52-.34c.29-.18.59-.34.9-.5l.47-.22-.25.11.39-.15a3.07,3.07,0,0,0,2.1-3.69,3,3,0,0,0-3.69-2.09Z"/><path class="cls-1" d="M84.59,134.22a1,1,0,0,0-.25-.73,1.18,1.18,0,0,0-.79-.21c-3,0-5.89.32-8.84.51a77.25,77.25,0,0,1-30-4c0,3.62-.39,7.33-.64,10.73,0,.47-.11,1-.2,1.52H85.25Z"/><path class="cls-2" d="M78.48,101.64c-1.52,6.5-.06,18.13,1.13,23.5,0,0-12.27.9-15.06.23l-12.32-1.24c-3.19-.26-5.82,2.41-7.6,5.08a2,2,0,0,0-.45,1.27,1.67,1.67,0,0,0,.48.88c1.94,2.25,5.06,3,8,3.58,1.41.3,15.59,1.77,16.89,1.91,1.68.19,8.43.55,10.2.13,2.4-.56,4.93-.38,7.34-.91a12.67,12.67,0,0,0,7.39-4.85,2.94,2.94,0,0,0,.7-1.7l-.68-4.45c-1.13-4.15-2.56-8.29-2.72-12.58-.18-4.61,1.11-9.14,1.61-13.72a40.76,40.76,0,0,0-.56-12.42A5.36,5.36,0,0,0,92,84.24a5.63,5.63,0,0,0-3.49-1.77,100.06,100.06,0,0,0-10.17-1.76c-1.5-.19-5.08-.34-6.5-.9a8.51,8.51,0,0,1-4.85-10H57a8.51,8.51,0,0,1-4.85,10,37.25,37.25,0,0,1-6.5,1.1,103,103,0,0,0-10.17,1.77A5.57,5.57,0,0,0,32,84.44a5.33,5.33,0,0,0-.78,2.12A40.7,40.7,0,0,0,30.65,99c.5,4.59,1.79,9.11,1.61,13.72a47.92,47.92,0,0,1-1.49,11.76,95.07,95.07,0,0,0-2.21,10.42,3.23,3.23,0,0,0,.3,2.51,2.93,2.93,0,0,0,1.61.89,12.63,12.63,0,0,0,8.8-.87c2.21-1.09,2.83-2,5.06-3.07,1.64-.79,6.66-5.31,7.86-6.51.92-.92,11-11,12-12.09,1.88-2.29,3.85-4.82,4-7.79a1.76,1.76,0,0,0-.19-1,2,2,0,0,0-1.15-.7c-3.05-1-6.79-1.39-9.1.82l-8.81,8.69a17.46,17.46,0,0,1-6.7,5.28,25.12,25.12,0,0,0,3.38-19.2L64,108.69Z"/><path class="cls-3" d="M83.44,52.46H63.77V67.21a5.2,5.2,0,0,0,1,1.85c3.11,3.58,11.38,2.54,20.69-1.85h0a4.83,4.83,0,0,1-4.63-3.43,5.72,5.72,0,0,1-.49-2.3,6.64,6.64,0,0,1,.24-2.24,9.94,9.94,0,0,1,1.66-3.72"/><path class="cls-3" d="M70.74,33.2c0,11.77-6.1,21.31-13.63,21.31S39.8,45,39.8,33.2s9.79-21.31,17.31-21.31S70.74,21.43,70.74,33.2Z"/><path class="cls-3" d="M68.69,34.42c0,11.77-7.33,42.41-14.86,42.41-2.93,0-8.3-4.82-11-11.15-2-4.56-2.26-9.39-3.58-14.65-1.55-6.19-1.48-12.73-1.48-16.61,0-11.77,9.79-21.31,17.31-21.31S68.69,22.65,68.69,34.42Z"/><path class="cls-3" d="M84.26,33.2c0,6.78,1,18.81-2.31,23-2.82,3.56-.18,9.4-4.24,9.4-8.83,0-25.41-19.81-25.41-32.37s7.15-22.75,16-22.75S84.26,20.64,84.26,33.2Z"/><ellipse class="cls-4" cx="42.56" cy="44.67" rx="3.59" ry="5.12"/><ellipse class="cls-4" cx="80.68" cy="44.26" rx="3.59" ry="5.12"/><path class="cls-5" d="M81.8,40.37c0,14.94-12.27,34.22-20.08,34.22S41.44,56.33,41.44,41.39,53.3,20.08,61.11,20.08,81.8,25.43,81.8,40.37Z"/><path class="cls-6" d="M59.06,43.24h0Z"/><polygon class="cls-6" points="48.2 43.03 48.21 43.03 48.2 43.03 48.2 43.03"/><polygon class="cls-6" points="48.19 43.02 48.2 43.03 48.22 43.02 48.19 43.02"/><polygon class="cls-6" points="59.05 43.23 59.03 43.23 59.05 43.23 59.05 43.23"/><path class="cls-6" d="M55.78,43.18l3.25.06h0l-3.25-.06Z"/><polygon class="cls-6" points="51.89 43.09 48.22 43.02 48.2 43.03 48.21 43.03 51.89 43.1 51.89 43.09"/><path class="cls-7" d="M72.36,43.14a1.95,1.95,0,0,1-3.89,0l3.89-.08Z"/><polygon class="cls-7" points="51.89 43.09 51.89 43.1 55.78 43.18 55.78 43.17 51.89 43.09"/><path class="cls-6" d="M55.78,43.17l3.25.06c-1-.36-1.63-1.07-3.65-1.27a1.93,1.93,0,0,1,.4,1.18Z"/><path class="cls-6" d="M52.26,42a11,11,0,0,0-4,1l3.67.06A2,2,0,0,1,52.26,42Z"/><path class="cls-6" d="M59,43.24l-3.25-.06a1.95,1.95,0,0,1-3.89,0v0L48.21,43c1.23.63,2.84,2.35,5.82,2.35S57.81,43.66,59,43.24Z"/><path class="cls-7" d="M55.78,43.17v0a1.93,1.93,0,0,0-.4-1.18c-.33,0-.71-.05-1.14-.05-.72,0-1.38,0-2,.08a2,2,0,0,0-.37,1.1Z"/><path class="cls-7" d="M51.89,43.14a1.95,1.95,0,0,0,3.89,0l-3.89-.08Z"/><circle cx="53.83" cy="43.14" r="1.13"/><path class="cls-6" d="M68.47,43.17l-3.25.06c1-.36,1.63-1.07,3.65-1.27a1.93,1.93,0,0,0-.4,1.18Z"/><path class="cls-6" d="M72,42A11.08,11.08,0,0,1,76,43l-3.68.06A1.91,1.91,0,0,0,72,42Z"/><path class="cls-6" d="M65.22,43.24l3.25-.06a1.95,1.95,0,0,0,3.89,0v0L76,43c-1.23.63-2.84,2.35-5.82,2.35S66.44,43.66,65.22,43.24Z"/><path class="cls-7" d="M68.47,43.17v0a1.93,1.93,0,0,1,.4-1.18c.34,0,.71-.05,1.14-.05.73,0,1.38,0,2,.08a1.91,1.91,0,0,1,.37,1.1Z"/><circle cx="70.43" cy="43.14" r="1.13"/><path class="cls-3" d="M65.66,22.71a17.65,17.65,0,0,1-5.49.95c-1.84-.11-3.83-.81-5.27.33a8.3,8.3,0,0,0-2.35,3.9,69.64,69.64,0,0,0-2.79,37.32L44.91,50.87a38.39,38.39,0,0,1-1.54-5.45A38.84,38.84,0,0,1,43,41.53c-.43-6.06-.77-12.52,2.22-17.81a8.82,8.82,0,0,1,2-2.54,10.54,10.54,0,0,1,3.1-1.57l9.87-2.7,6.41-1.7a17.54,17.54,0,0,1,2.88-.6c4.09-.37,7.92,2.21,10.57,5.35a8.8,8.8,0,0,1,1.24,1.79,10.79,10.79,0,0,1,.82,2.86c1,5.54,1.64,11.49-.64,16.65-.46,1-1,2-1.5,3.06-1.52,3.34-2,7.2-4.22,10.12a21.21,21.21,0,0,0,.61-6.56c0-3.41-.09-6.82-.37-10.22-.25-2.9-.66-5.78-1.08-8.66a34.46,34.46,0,0,0-.68-3.76,16.77,16.77,0,0,0-.83-2.38,2.56,2.56,0,0,0-1-1.21,2.76,2.76,0,0,0-1.6-.39,6.69,6.69,0,0,0-3.52.63Z"/><path class="cls-3" d="M59.15,40.43a13.64,13.64,0,0,0-4.55-1.29,7.23,7.23,0,0,0-1.23,0,11.56,11.56,0,0,0-1.18.17c-1.37.26-2.94.51-4.31.77.4-.17.47-.54.82-.81a3.2,3.2,0,0,1,1.45-.87,17.73,17.73,0,0,1,4.44-.71,6.83,6.83,0,0,1,1.53.37l1.29.42a3.12,3.12,0,0,1,1,.47,3,3,0,0,1,.81,1.33"/><path class="cls-3" d="M65.16,40.43a13.58,13.58,0,0,1,4.54-1.29,7.35,7.35,0,0,1,1.24,0c.39,0,.79.1,1.18.17,1.37.26,2.94.51,4.31.77-.4-.17-.48-.54-.82-.81a3.23,3.23,0,0,0-1.46-.87,17.73,17.73,0,0,0-4.43-.71,6.78,6.78,0,0,0-1.54.37l-1.28.42a3.28,3.28,0,0,0-1,.47,3,3,0,0,0-.81,1.33"/><path d="M61.2,46.73A33,33,0,0,1,60.87,50a14.8,14.8,0,0,1-1,2.8c-.42,1-1.5,3.92.28,4.36a.37.37,0,0,0,.19-.72c-.74-.19-.33-1.65-.2-2.14A22.39,22.39,0,0,1,61,52,17.16,17.16,0,0,0,62,46.73c0-.48-.71-.48-.75,0Z"/><path d="M61.73,57v0l0,0,0,0s0,0,0,0a1.32,1.32,0,0,1,.2-.12,1.6,1.6,0,0,1,.44-.13h.18a.93.93,0,0,1,.24,0,.84.84,0,0,1,.41.28.23.23,0,0,0,.32-.32,1.33,1.33,0,0,0-1.25-.42,1.54,1.54,0,0,0-1,.56.23.23,0,0,0,.08.31.24.24,0,0,0,.31-.08Z"/><path d="M57.1,63.62c2.86,1.12,7,2,9-1.11.27-.41-.38-.78-.64-.38-1.79,2.76-5.68,1.75-8.17.76-.45-.17-.65.55-.2.73Z"/><path class="cls-3" d="M69.52,136.86c1.68.18,8.43.54,10.2.13,2.4-.57,4.93-.38,7.34-.92a12.58,12.58,0,0,0,7.39-4.85,2.91,2.91,0,0,0,.7-1.7l-.68-4.45c-1.13-4.15-1.12-8.28-1.29-12.58a93.75,93.75,0,0,1,.18-13.72,40.7,40.7,0,0,0-.56-12.41A5.35,5.35,0,0,0,92,84.24a5.68,5.68,0,0,0-3.49-1.77,84.18,84.18,0,0,0-9.14-1.76l-.87,0c-2.24-.31-4.29,1.34-5.7,3.12-4.22,5.33-5.42,7.86-6.48,14.57-.32,2-.63,4.38-.94,6.36-1.23-3.36-2.53-4.47-2.57-8.4a12.9,12.9,0,0,0-.9-5.21c-.82-2.29-2.76-3.94-4.5-5.63S54,81.21,53.88,78.79l-1.74,1a37.25,37.25,0,0,1-6.5,1.1,103,103,0,0,0-10.17,1.77A5.57,5.57,0,0,0,32,84.44a5.33,5.33,0,0,0-.78,2.12,39.36,39.36,0,0,0-.15,12.21,97.07,97.07,0,0,1,1,13.92c-.17,4.3-1.34,7.41-2.11,11.76-.6,3.42-1.42,7.11-1.39,10.42,0,.87-.23,1.83.3,2.52a2.91,2.91,0,0,0,1.61.88,12.63,12.63,0,0,0,8.8-.86c2.21-1.1,2.83-2,5.06-3.08.71-.34.87-4.65,6.23-6.27,3.46-1,8.72.81,12.79.58s6.94-.89,7.28-1.22"/><path class="cls-3" d="M48.85,115.77a17.53,17.53,0,0,1-6.7,5.27,25.11,25.11,0,0,0,3.38-19.2l17.3-.1,2.56,7.16,1.15-7.19,11.94-.07c-1.52,6.5-.06,18.14,1.13,23.5"/><line class="cls-8" x1="65.92" y1="128.99" x2="65.92" y2="97.23"/><line class="cls-8" x1="68.59" y1="128.99" x2="68.59" y2="97.23"/><line class="cls-8" x1="63.26" y1="128.99" x2="63.26" y2="97.23"/><line class="cls-8" x1="60.6" y1="128.99" x2="60.6" y2="97.23"/><line class="cls-8" x1="57.93" y1="128.99" x2="57.93" y2="97.23"/><line class="cls-8" x1="71.25" y1="128.99" x2="71.25" y2="97.23"/><line class="cls-8" x1="55.27" y1="128.99" x2="55.27" y2="97.23"/><line class="cls-9" x1="47.99" y1="97.13" x2="78.32" y2="97.13"/><path class="cls-10" d="M78.83,87.6c0,7.4,8.85,26.33,5.79,31.87-4.57,8.26-11.73,12.39-20,12.39-7.55,0-16.36-4-21-11-3.85-5.87,2.84-24,2.84-32.4l3.14,3.85c0,6.89-5.48,21.74-2.32,26.55,3.77,5.75,11,9.05,17.18,9.05,6.8,0,12.66-3.39,16.41-10.16,2.51-4.54-4.74-20-4.74-26.11Z"/><ellipse class="cls-11" cx="63.98" cy="129.76" rx="0.61" ry="2.71"/><ellipse class="cls-11" cx="66.23" cy="129.76" rx="0.61" ry="2.71"/><ellipse class="cls-11" cx="61.72" cy="129.76" rx="0.61" ry="2.71"/><path class="cls-12" d="M85.54,148.77H81.78a21.68,21.68,0,0,1-3,1.61c-5.12,2.21-11,2.31-16.56,2a40.15,40.15,0,0,1-6.65-.82,48,48,0,0,1-5.6-1.79l-2.7-1H43.44c.28,47.48-3.84,94.9-6.09,142.24l18.92.2a2.36,2.36,0,0,0,1.55-.37c.91-.72,1.28-2.53,1.54-4.16a306.85,306.85,0,0,0,3.53-35.58c.9-21.87-.48-55.78,1.71-77.91,0-.51-.1-1-.16-1.53h.32c-.06.5-.11,1-.16,1.53,2.18,22.13.81,56,1.71,77.91a306.85,306.85,0,0,0,3.53,35.58c.26,1.63.62,3.44,1.54,4.16a2.35,2.35,0,0,0,1.55.37l18.92-.2C89.6,243.67,85.27,196.25,85.54,148.77Z"/><path class="cls-12" d="M64.44,171.66c.06.5.11,1,.16,1.53.05-.51.1-1,.16-1.53Z"/><path class="cls-5" d="M39.13,137.36c2.21-1.1,2.83-2,5.06-3.08,1.64-.78,6.66-5.31,7.86-6.5.92-.93,6.73-6.47,7.64-7.58,1.89-2.3,3.86-4.83,4-7.8a1.76,1.76,0,0,0-.18-1,2,2,0,0,0-1.16-.7c-3.05-1-6.78-1.39-9.1.82l-4.5,4.19A17.53,17.53,0,0,1,42,121"/><path class="cls-12" d="M50,149.76a48,48,0,0,0,5.6,1.79,40.15,40.15,0,0,0,6.65.82c5.61.32,11.44.22,16.56-2a21.68,21.68,0,0,0,3-1.61H47.26Z"/><path class="cls-13" d="M85.48,146.1a5.42,5.42,0,0,0,0-.9L85.25,142H43.87a33.62,33.62,0,0,0-.38,4.09Z"/><path class="cls-13" d="M85.48,145.27a1.63,1.63,0,0,1-.07.3,2.33,2.33,0,0,1-.68.89,19.51,19.51,0,0,1-3,2.31h3.76l0-3.5Z"/><path class="cls-13" d="M44.33,147.7l-.6-.76c-.18-.51.17-1.08.17-1.67h-.41c0,1.17-.06,2.33-.05,3.5h3.82Z"/><path class="cls-13" d="M85.41,145.57a1.63,1.63,0,0,0,.07-.3h-42a5,5,0,0,0,.24,1.67l.6.76,2.93,1.07H81.78a19.51,19.51,0,0,0,3-2.31A2.33,2.33,0,0,0,85.41,145.57Z"/><rect class="cls-14" width="138" height="300"/></g></g></svg>