<svg xmlns="http://www.w3.org/2000/svg" viewBox="0 0 138 300"><defs><style>.cls-1{fill:#611714;}.cls-2{fill:#3e0e0c;}.cls-3{fill:#541f1b;}.cls-4{fill:#bc5449;}.cls-5{fill:#cc332e;}.cls-6{fill:#fff;}.cls-7{fill:#600f0b;}.cls-8{fill:#d0312d;}.cls-9{fill:#a08538;}.cls-10{fill:#791812;}.cls-11{fill:#d4af37;}.cls-12{fill:none;}</style></defs><title>ares</title><g id="Layer_2" data-name="Layer 2"><g id="Layer_1-2" data-name="Layer 1"><path class="cls-1" d="M98.88,251.59l1-30.15a2.34,2.34,0,0,0-.31-1.55,2.29,2.29,0,0,0-1.65-.62,120.85,120.85,0,0,0-20.4-.19,128.74,128.74,0,0,0,4.11,37.49,3.23,3.23,0,0,0,.69,1.5,3.16,3.16,0,0,0,2,.71,35.61,35.61,0,0,0,8.57-.1"/><path class="cls-2" d="M80.19,249.36c1,16.7,2.65,26.78,3.62,43.47.08,1.35.21,2.82,1.17,3.77a5.61,5.61,0,0,0,3.68,1.16l13.89,1c2.25.15,4.69.26,6.58-1,3.1-2.05,3.11-6.51,2.77-10.2a1.93,1.93,0,0,0-.4-1.21,2,2,0,0,0-1.35-.42,26.8,26.8,0,0,1-11-3.2,4.5,4.5,0,0,1-1.84-1.55,4.86,4.86,0,0,1-.33-2.81l2.34-28.48Z"/><path class="cls-1" d="M44.2,251.59l-1-30.15a2.34,2.34,0,0,1,.32-1.55,2.29,2.29,0,0,1,1.65-.62,120.85,120.85,0,0,1,20.4-.19,129.08,129.08,0,0,1-4.11,37.49,3.23,3.23,0,0,1-.69,1.5,3.19,3.19,0,0,1-1.95.71,35.61,35.61,0,0,1-8.57-.1"/><polygon class="cls-3" points="106.99 228.12 35.04 228.12 45.75 161.34 96.28 161.34 106.99 228.12"/><path class="cls-1" d="M45.48,105.19l-8.57,1.07-3,10.35L36,124.47l2.14,8L43,136.86a17.41,17.41,0,0,1,5.79.53,2.81,2.81,0,0,1,1.49.76,3.06,3.06,0,0,1,.41,2.42c-.44,3.55-1.54,9.91-4.56,11.83-.94.6-2-1.71-3.11-1.47a15.93,15.93,0,0,1-6.22.32A20.37,20.37,0,0,1,32.65,150a27.92,27.92,0,0,1-15.48-16.49c-2.36-6.86-1.93-14.33-1.35-21.56.21-2.6.43-5.2.85-7.78A105.53,105.53,0,0,1,21.09,87.9a8.35,8.35,0,0,1,1.05-2.36,6.8,6.8,0,0,1,3.15-2.16,30.58,30.58,0,0,1,9.56-1.66,169.21,169.21,0,0,1,24.56.41l17.87-.71c8.8-1.8,17.87-1.5,26.84-1.2a17.17,17.17,0,0,1,4.17.49,17.17,17.17,0,0,1,6,3.77,18.16,18.16,0,0,1,2.6,2.51,17.5,17.5,0,0,1,1.71,2.85c3.81,7.33,7.68,14.9,8.47,23.12a20.94,20.94,0,0,1-.2,6,20.2,20.2,0,0,1-5.18,9.51,54.93,54.93,0,0,1-8.38,7A19.11,19.11,0,0,1,109,138.1c-1.29.49-4.3,1.78-5.62,2.15-6.4,1.81-10.2,3.05-16.11,3.95l2.11-15.84c2-1.45-1.27-1.13.35-3.05a43.52,43.52,0,0,0,3.4-3.54c1.19-2.71,6-3.6,6.48-6.51a5.74,5.74,0,0,0-.15-3.34,19,19,0,0,0-1.11-2.21,20.33,20.33,0,0,1-2.3-4.46V154l-50.37,2c-.26-9.55-.26-40.53,0-50.08"/><path class="cls-4" d="M45.48,105.19l-8.57,1.07-3,10.35L36,124.47l2.14,8s.72,19.11-1.33,18.75A20.37,20.37,0,0,1,32.65,150a27.92,27.92,0,0,1-15.48-16.49c-2.36-6.86-1.93-14.33-1.35-21.56.21-2.6.43-5.2.85-7.78A105.53,105.53,0,0,1,21.09,87.9a8.35,8.35,0,0,1,1.05-2.36,6.8,6.8,0,0,1,3.15-2.16,30.58,30.58,0,0,1,9.56-1.66,169.21,169.21,0,0,1,24.56.41l17.87-.71c8.8-1.8,17.87-1.5,26.84-1.2a17.17,17.17,0,0,1,4.17.49,17.17,17.17,0,0,1,6,3.77,18.16,18.16,0,0,1,2.6,2.51,17.5,17.5,0,0,1,1.71,2.85c3.81,7.33,7.68,14.9,8.47,23.12a20.94,20.94,0,0,1-.2,6,20.2,20.2,0,0,1-5.18,9.51,54.93,54.93,0,0,1-8.38,7c-1.36,1-14.21-17.36-13.71-20.27a5.74,5.74,0,0,0-.15-3.34,19,19,0,0,0-1.11-2.21,20.33,20.33,0,0,1-2.3-4.46V154l-50.37,2c-.26-9.55-.26-40.53,0-50.08"/><path class="cls-1" d="M60.78,84.68q2,4.2,4.2,8.29a11.91,11.91,0,0,1,1,2,12.14,12.14,0,0,1,.48,2.69l.9,8.82a55.14,55.14,0,0,1,2.76-5.14c.6-1,1.25-1.92,1.84-2.91a36.26,36.26,0,0,0,2.87-6.31,58,58,0,0,0,3.11-12.84"/><path class="cls-5" d="M89.36,64.09c0,15.26-9.47,27.62-21.15,27.62S47.06,79.35,47.06,64.09s9.47-20.32,21.15-20.32S89.36,48.84,89.36,64.09Z"/><path class="cls-6" d="M75.14,65.4,72,65.74c1-.43,1.49-1.19,3.44-1.56a1.91,1.91,0,0,0-.28,1.18Z"/><path class="cls-6" d="M78.45,63.94a10.89,10.89,0,0,1,4,.65L78.91,65A1.84,1.84,0,0,0,78.45,63.94Z"/><path class="cls-6" d="M72,65.75l3.15-.35A1.9,1.9,0,0,0,78.92,65v0l3.57-.39c-1.13.71-2.54,2.54-5.45,2.8S73.21,66.06,72,65.75Z"/><path class="cls-7" d="M75.14,65.4v0a1.91,1.91,0,0,1,.28-1.18c.32-.06.69-.11,1.1-.15.71-.07,1.35-.09,1.93-.09a1.84,1.84,0,0,1,.46,1Z"/><path class="cls-7" d="M78.92,65a1.9,1.9,0,0,1-3.78.38L78.91,65Z"/><ellipse cx="77.03" cy="65.19" rx="1.1" ry="1.1" transform="translate(-5.59 7.25) rotate(-5.2)"/><path class="cls-6" d="M61.23,65.4l3.16.34c-1-.43-1.49-1.19-3.44-1.56a1.85,1.85,0,0,1,.29,1.18Z"/><path class="cls-6" d="M57.92,63.94a10.89,10.89,0,0,0-4,.65l3.57.39A1.84,1.84,0,0,1,57.92,63.94Z"/><path class="cls-6" d="M64.39,65.75l-3.16-.35A1.9,1.9,0,0,1,57.45,65v0l-3.57-.39c1.13.71,2.55,2.54,5.45,2.8S63.17,66.06,64.39,65.75Z"/><path class="cls-7" d="M61.23,65.4v0A1.85,1.85,0,0,0,61,64.18c-.32-.06-.68-.11-1.1-.15-.71-.07-1.35-.09-1.93-.09a1.84,1.84,0,0,0-.46,1Z"/><path class="cls-7" d="M57.45,65a1.9,1.9,0,0,0,3.78.38L57.46,65Z"/><ellipse cx="59.34" cy="65.19" rx="1.1" ry="1.1" transform="translate(-10.96 118.39) rotate(-84.8)"/><path class="cls-7" d="M54.19,61a19.75,19.75,0,0,1,4.56,1.35,22.67,22.67,0,0,0,4.79,1.18.79.79,0,0,0,.93-.53.75.75,0,0,0-.53-.92A22.76,22.76,0,0,1,59,60.88a20.26,20.26,0,0,0-4.81-1.35.75.75,0,0,0-.75.75.77.77,0,0,0,.75.75Z"/><path class="cls-7" d="M82.07,59.53a20.26,20.26,0,0,0-4.81,1.35,22.76,22.76,0,0,1-4.94,1.23.75.75,0,0,0-.53.92.78.78,0,0,0,.93.53,22.67,22.67,0,0,0,4.79-1.18A19.75,19.75,0,0,1,82.07,61a.77.77,0,0,0,.75-.75.75.75,0,0,0-.75-.75Z"/><path d="M66.54,69.29c-.13,1.47-.92,2.79-1,4.27a3,3,0,0,0,1.54,3c.44.2.82-.45.38-.65A2.48,2.48,0,0,1,66.35,73c.24-1.26.82-2.42.94-3.71,0-.48-.71-.48-.75,0Z"/><path d="M62.4,83a36,36,0,0,0,6.22.21c1,0,2-.11,3.06-.18a6.75,6.75,0,0,1,3.16.14c.44.19.82-.46.38-.65a5.81,5.81,0,0,0-2.81-.3c-1.1.08-2.19.17-3.3.22a37.61,37.61,0,0,1-6.71-.19c-.48-.07-.47.68,0,.75Z"/><path d="M70.48,76.35l.09,0-.09,0a.86.86,0,0,1,.23-.06h-.1a1.13,1.13,0,0,1,.26,0h0A.38.38,0,0,0,71.3,76a.36.36,0,0,0,0-.29.39.39,0,0,0-.22-.18,2.48,2.48,0,0,0-.27,0l-.26,0a1.34,1.34,0,0,0-.41.15.37.37,0,0,0-.17.22.36.36,0,0,0,.26.46.37.37,0,0,0,.29,0Z"/><circle class="cls-7" cx="48.47" cy="54.81" r="5.41"/><ellipse class="cls-7" cx="47.29" cy="59.28" rx="4.94" ry="5.41"/><circle class="cls-7" cx="53.87" cy="50.82" r="5.41"/><circle class="cls-7" cx="57.87" cy="45.88" r="5.41"/><circle class="cls-7" cx="55.99" cy="44.71" r="5.41"/><circle class="cls-7" cx="65.86" cy="45.88" r="5.41"/><circle class="cls-7" cx="73.61" cy="45.88" r="5.41"/><circle class="cls-7" cx="80.43" cy="47.53" r="5.41"/><circle class="cls-7" cx="85.13" cy="51.99" r="5.41"/><circle class="cls-7" cx="88.65" cy="63.98" r="4.23"/><circle class="cls-7" cx="88.65" cy="69.38" r="3.06"/><circle class="cls-7" cx="47.76" cy="64.92" r="4.23"/><circle class="cls-7" cx="48" cy="70.32" r="3.06"/><circle class="cls-7" cx="77.14" cy="53.87" r="5.41"/><circle class="cls-7" cx="70.32" cy="53.87" r="5.41"/><circle class="cls-7" cx="63.27" cy="53.87" r="5.41"/><circle class="cls-7" cx="56.46" cy="53.87" r="5.41"/><circle class="cls-7" cx="51.05" cy="49.41" r="5.41"/><circle class="cls-7" cx="70.32" cy="44.71" r="5.41"/><circle class="cls-7" cx="62.57" cy="43.3" r="5.41"/><circle class="cls-7" cx="70.32" cy="42.12" r="5.41"/><circle class="cls-7" cx="75.96" cy="43.3" r="5.41"/><circle class="cls-7" cx="79.72" cy="44.71" r="5.41"/><circle class="cls-7" cx="83.48" cy="47.53" r="5.41"/><ellipse class="cls-7" cx="87.83" cy="57.87" rx="4.58" ry="5.41"/><polygon class="cls-8" points="45.75 154.02 45.75 161.34 96.28 161.52 96.1 154.02 45.75 154.02"/><polygon class="cls-2" points="52.59 216.34 46.59 224.37 40.59 216.34 45.94 162 57.95 162 52.59 216.34"/><polygon class="cls-2" points="68.76 216.34 62.76 224.37 56.75 216.34 58.54 162 70.55 162 68.76 216.34"/><polygon class="cls-2" points="84.93 216.34 78.93 224.37 72.92 216.34 71.14 162 83.14 162 84.93 216.34"/><polygon class="cls-2" points="101.1 216.34 95.09 224.37 89.09 216.34 83.73 162 95.74 162 101.1 216.34"/><path class="cls-2" d="M62.89,249.36c-1,16.7-2.65,26.78-3.62,43.47-.08,1.35-.21,2.82-1.17,3.77a5.61,5.61,0,0,1-3.68,1.16l-13.89,1c-2.26.15-4.7.26-6.58-1-3.1-2.05-3.11-6.51-2.77-10.2a1.93,1.93,0,0,1,.4-1.21,2,2,0,0,1,1.35-.42,26.8,26.8,0,0,0,11-3.2,4.5,4.5,0,0,0,1.84-1.55,4.86,4.86,0,0,0,.33-2.81l-2.34-28.48Z"/><path class="cls-1" d="M38.16,132.59c1.14,1,6.05,4.2,7.55,4.49,6.14,1.17,10.34-.68,16.55,0a2.1,2.1,0,0,1,1.1.34A2.26,2.26,0,0,1,64,139a67.61,67.61,0,0,1,.3,11.38.82.82,0,0,1-.14.51.84.84,0,0,1-.64.23l-13.57,1.09a34.78,34.78,0,0,1-6.44.29c-.51-.06-2.11.21-2.48-.14l-3.92-1.21Z"/><path class="cls-4" d="M37.73,139.5a5.43,5.43,0,0,1-3.87,1.36,4.3,4.3,0,0,1-3.35-2,8.57,8.57,0,0,1-.49-1l-3.64-8.48a20.14,20.14,0,0,1-1.57-4.68c1.69.2,2.9,1.66,4.4,2.47a13.54,13.54,0,0,1,2.23,1.18c.3.25.55.54.85.79a10.93,10.93,0,0,0,2.37,1.18,15.32,15.32,0,0,1,3.56,2.31Z"/><path class="cls-1" d="M59.15,139.22c.82-1.06,2-3,3.42-3.81a6,6,0,0,1,2-.78,6.47,6.47,0,0,1,4.61,1.13c3,2.16,2.38,5.19,1,7.78A26.85,26.85,0,0,1,64.07,151"/><path class="cls-8" d="M55.73,109.12a36.05,36.05,0,0,1,.39-11.4c-1.47-1-3.41-1-5.2-.89a41,41,0,0,0-12,2.35,20.75,20.75,0,0,0-9.66,7.23A31.07,31.07,0,0,0,27.24,110a23.77,23.77,0,0,0-1.68,4,19.1,19.1,0,0,0-.27,8A41.13,41.13,0,0,0,28,131.85,8.58,8.58,0,0,0,29.14,134a11.43,11.43,0,0,0,1.94,1.73,60.42,60.42,0,0,1,8.62,8.89l1.87-.19-2.08-6.19L37.12,129l.78-6.22,7.59-8,6.59-2.4L56,110.92Z"/><path class="cls-9" d="M68.65,123.09a1.05,1.05,0,0,0-1.14-.6,2.33,2.33,0,0,0-1.2.67c-.64.6-1.15,1.33-1.79,1.92a3,3,0,0,1-2.37.94,5.84,5.84,0,0,1-1.22-.41c-2.89-1.08-6.08.08-8.94,1.23a1,1,0,0,0-.57.42,1,1,0,0,0,0,.58A5.73,5.73,0,0,0,52.84,131a5.48,5.48,0,0,0,1.67.89,22.25,22.25,0,0,0,5.54,1.67,4.47,4.47,0,0,1,1.54.33,3.57,3.57,0,0,1,1.19,1.25,27.48,27.48,0,0,1,2.73,5.48l-1.46.66a123.87,123.87,0,0,1-18.16.91l-.27-1.39a32.28,32.28,0,0,1-5.38-10.32,16.44,16.44,0,0,1-.9-3.37,9.59,9.59,0,0,1,2.59-7.88c.36-.37.76-.71,1.16-1,.71-.6,1.42-1.18,2.17-1.71a18.5,18.5,0,0,1,14.88-2.75,8,8,0,0,1,2.53,1A9.93,9.93,0,0,1,64,115.9l1.93,1.86c1.28,1.25,2.63,2.6,3,4.35l-.21,1"/><path class="cls-10" d="M55.81,109a13.79,13.79,0,0,1,1.72-5.17,46.32,46.32,0,0,0,2.79-5.44c-1.9.19-4.47-2-6.3-1.53Z"/><path class="cls-11" d="M68.81,123a1.29,1.29,0,0,0-1.41-.75,2.88,2.88,0,0,0-1.49.83c-.8.74-1.43,1.65-2.23,2.38a3.72,3.72,0,0,1-2.94,1.16,7,7,0,0,1-1.51-.5c-3.58-1.35-7.54.1-11.09,1.53a1.18,1.18,0,0,0-.69.52,1.15,1.15,0,0,0,0,.71,6.89,6.89,0,0,0,1.75,3.94,6.92,6.92,0,0,0,2.07,1.12A27.87,27.87,0,0,0,58.14,136a5.35,5.35,0,0,1,1.91.41,4.29,4.29,0,0,1,1.47,1.55,33,33,0,0,1,3.39,6.8l-1.81.81a151.38,151.38,0,0,1-22.52,1.13l-.33-1.72c-3.12-3.69-5.08-8.23-6.67-12.8A20.89,20.89,0,0,1,32.46,128a11.88,11.88,0,0,1,3.21-9.77c.45-.47.95-.89,1.44-1.31.88-.74,1.76-1.47,2.7-2.12a22.9,22.9,0,0,1,18.44-3.41,9.59,9.59,0,0,1,3.14,1.28A12.55,12.55,0,0,1,63,114l2.4,2.32c1.59,1.54,3.25,3.21,3.71,5.38l-.26,1.21"/><path class="cls-1" d="M64.56,150.4c0,.17-.29.37-.41.51a.84.84,0,0,1-.64.23l-13.57,1.09a34.78,34.78,0,0,1-6.44.29c-.51-.06-2.11.21-2.48-.14l-3.92-1.21-1.66-11.44c1.14,1,8.41,4.2,9.91,4.49,6.14,1.17,10.35-.68,16.56,0a2.09,2.09,0,0,1,1.09.34A3.69,3.69,0,0,1,65.23,147,3.43,3.43,0,0,1,64.56,150.4Z"/><rect class="cls-12" width="138" height="300"/></g></g></svg>