<svg xmlns="http://www.w3.org/2000/svg" viewBox="0 0 138 300"><defs><style>.cls-1{fill:#3f3d53;}.cls-2{fill:#333;}.cls-3{fill:#290916;}.cls-4{fill:#8c6239;}.cls-5{fill:#322d31;}.cls-6{fill:#42210b;}.cls-7{fill:#311432;}.cls-8{fill:#adadc7;}.cls-9{fill:#787276;}.cls-10{fill:#c6c6d0;}.cls-11{fill:#fff;}.cls-12{fill:#7c6e7f;}.cls-13{fill:#222023;}.cls-14,.cls-15,.cls-16{fill:none;}.cls-14{stroke:#b3b3b3;stroke-width:3px;}.cls-14,.cls-15{stroke-miterlimit:10;}.cls-15{stroke:#42210b;stroke-width:5px;}</style></defs><title>artemis</title><g id="Layer_2" data-name="Layer 2"><g id="Layer_1-2" data-name="Layer 1"><path class="cls-1" d="M73.34,48.39c0,15-7.75,27.07-17.31,27.07S34,63.34,34,48.39,46.47,21.31,56,21.31,73.34,33.43,73.34,48.39Z"/><path class="cls-1" d="M70.73,49.93c0,14.95-4.89,44-14.45,44-3.72,0-11.59,1.69-15-6.36C38.76,81.77,35,77.71,33.31,71c-2-7.87-1.88-16.17-1.88-21.11,0-15,12.43-27.07,22-27.07S70.73,35,70.73,49.93Z"/><path class="cls-1" d="M90.51,48.39c0,8.61,1.26,23.89-2.94,29.18-3.58,4.52-.22,11.94-5.38,11.94C71,89.51,49.91,64.34,49.91,48.39s9.09-28.9,20.3-28.9S90.51,32.43,90.51,48.39Z"/><path class="cls-1" d="M40.11,83.4A20.68,20.68,0,0,1,41.7,96,34.2,34.2,0,0,1,37,108a33.94,33.94,0,0,0-1.84,3.2c-1.56,3.37-1.55,7.23-1.48,10.94A4,4,0,0,0,34,124a4,4,0,0,0,2.61,1.54c2.76.77,5.62,1.55,8.44,1.06,2.31-.4,4.39-1.63,6.56-2.53a16.3,16.3,0,0,1,9.86-1.16c2.53.59,4.78,2,7.13,3.07s5,2,7.51,1.38,4.41-2.33,6.68-3.43c5.77-2.81,12.6-.87,19-.9,2.12,0,4.78-.73,5.09-2.82s-2.17-3.6-3.84-5.08-2.69-3.48-4-5.22a20.31,20.31,0,0,1-2.22-3c-1.61-3.1-.48-6.85-.54-10.34-.08-4.29-2-8.3-3.75-12.22s-3.42-8.06-3.76-12.38a1.89,1.89,0,0,0-.29-1,1.51,1.51,0,0,0-.77-.45,6,6,0,0,0-5.35,1c-1.15.88-1.94,2.17-3.07,3.07-2.55,2-6.14,1.73-9.38,2-9.28.85-17.28,7.27-26.51,8.49"/><path class="cls-2" d="M51.45,82.28l-.05,0a1.77,1.77,0,0,1,.16.22Z"/><path class="cls-2" d="M25.7,93.48l.1.22a2,2,0,0,1-.05-.24Z"/><path class="cls-3" d="M25.9,94a2.14,2.14,0,0,0,.17.3l-.27-.63A2.07,2.07,0,0,0,25.9,94Z"/><path class="cls-3" d="M51.71,82.8a1.51,1.51,0,0,0-.15-.28l.25.58A1.51,1.51,0,0,0,51.71,82.8Z"/><path class="cls-3" d="M37.36,83.66c-6.14,2.89-10.46,7.11-10.17,9.8L50.93,82.3C49.31,80.24,43.51,80.77,37.36,83.66Z"/><path class="cls-3" d="M41.19,93.16c6.35-3,10.75-7.39,10.12-10.06l-.23-.58-.15-.22L27.19,93.46a2,2,0,0,0,0,.24l.26.63C28.9,96.62,34.86,96.14,41.19,93.16Z"/><path class="cls-4" d="M36.51,88.27l-1.12-6.82c-.09-.52-.17-1-.29-1.56A29.53,29.53,0,0,0,32.92,74c.18,1,.37,2.06.56,3.1a3.22,3.22,0,0,1-.33,2.59A2.86,2.86,0,0,1,30.84,81a4,4,0,0,1-2.37-1.07,21.64,21.64,0,0,1-2.36-2.1A16.7,16.7,0,0,0,30,82.71c.28.27.48.45,1.18,1.06,1.23,1.08,3,2.61,5.23,4.52"/><path class="cls-5" d="M36.87,88.17c-.41-2.53-.79-5.08-1.25-7.6a28.68,28.68,0,0,0-2.38-6.73c-.19-.42-.75-.1-.68.29a21.26,21.26,0,0,1,.65,4.18,2.39,2.39,0,0,1-2.46,2.27c-1.21,0-2.49-1.25-3.31-2-.28-.26-.88-1.19-1.33-1.15a.35.35,0,0,0-.32.18c-.25.51.47,1.31.73,1.68a24.37,24.37,0,0,0,3,3.51c2.09,2,4.4,3.87,6.62,5.76.36.32.89-.21.53-.53-2-1.75-4.13-3.48-6.13-5.3a23.61,23.61,0,0,1-2.82-3.09,14.87,14.87,0,0,1-.86-1.22,4.48,4.48,0,0,0-.28-.47c-.14-.19,0-.26-.13,0l-.32.19c-.4,0-.17-.15-.13,0s.12.12.16.16.33.35.49.52a15.23,15.23,0,0,0,1.76,1.45c1.1.78,2.2,1.35,3.56.83C35,80,33.71,76.3,33.28,73.93l-.69.28A27.54,27.54,0,0,1,34.94,81c.42,2.44.81,4.89,1.21,7.34.08.47.8.27.72-.2Z"/><path class="cls-6" d="M39.11,93C38.05,91.61,37,90.25,36,88.81A67.28,67.28,0,0,1,29.8,76.38l-2-4.95c1.94,3,3.77,6.1,5.46,9.23,2.19,4,4.16,8.17,6.07,12.3"/><path class="cls-5" d="M39.43,92.81a61.2,61.2,0,0,1-4.87-7,76.34,76.34,0,0,1-3.67-7.76c-.93-2.23-1.82-4.48-2.73-6.72l-.68.29A178.67,178.67,0,0,1,39,93.15c.2.44.85.06.65-.37A176.72,176.72,0,0,0,28.12,71.24c-.21-.34-.85-.13-.68.29.95,2.36,1.89,4.73,2.88,7.07A74.93,74.93,0,0,0,33.82,86a59.51,59.51,0,0,0,5,7.17c.29.37.94,0,.64-.38Z"/><path class="cls-4" d="M33.19,93l-1.12-6.82c-.09-.52-.17-1-.29-1.56a30.17,30.17,0,0,0-2.18-5.86c.18,1,.37,2.07.55,3.1a3.22,3.22,0,0,1-.32,2.59,2.86,2.86,0,0,1-2.31,1.24,4,4,0,0,1-2.38-1.07,22,22,0,0,1-2.35-2.1,16.8,16.8,0,0,0,3.86,4.93c.28.27.47.44,1.18,1.06,1.23,1.07,3,2.61,5.23,4.51"/><path class="cls-5" d="M33.55,92.86c-.42-2.53-.8-5.08-1.25-7.6a28.68,28.68,0,0,0-2.38-6.73c-.19-.42-.76-.1-.69.29A20.56,20.56,0,0,1,29.89,83a2.4,2.4,0,0,1-2.46,2.28c-1.21,0-2.49-1.25-3.32-2-.27-.26-.88-1.19-1.32-1.15a.39.39,0,0,0-.33.18c-.24.51.48,1.31.73,1.68a24.43,24.43,0,0,0,3,3.51c2.09,2,4.4,3.87,6.61,5.77.37.31.9-.22.53-.53-2.05-1.76-4.13-3.49-6.12-5.31a23.47,23.47,0,0,1-2.82-3.08,14.33,14.33,0,0,1-.86-1.23c-.1-.15-.17-.33-.28-.47s0-.26-.13,0l-.32.19c-.4,0-.17-.15-.13,0s.12.12.16.17l.49.51A14.33,14.33,0,0,0,25.06,85c1.11.78,2.21,1.35,3.57.83C31.69,84.64,30.38,81,30,78.62l-.69.29a27.47,27.47,0,0,1,2.35,6.81c.42,2.44.8,4.89,1.21,7.34.08.47.8.27.72-.2Z"/><path class="cls-6" d="M35.79,97.69c-1.07-1.39-2.15-2.75-3.14-4.19a67.29,67.29,0,0,1-6.18-12.43l-2-4.95c1.94,3,3.76,6.1,5.46,9.24,2.19,4,4.16,8.16,6.07,12.3"/><path class="cls-5" d="M36.11,97.5a59.13,59.13,0,0,1-4.87-7,74.26,74.26,0,0,1-3.67-7.76c-.93-2.23-1.83-4.48-2.73-6.72l-.69.29A178.11,178.11,0,0,1,35.69,97.85c.2.43.85.05.64-.38A177.4,177.4,0,0,0,24.8,75.93c-.22-.34-.85-.12-.69.29C25.07,78.58,26,81,27,83.3a70.51,70.51,0,0,0,3.5,7.41,58.65,58.65,0,0,0,5,7.17c.29.37.95,0,.65-.38Z"/><path class="cls-4" d="M39.05,92l-1.12-6.82c-.08-.52-.17-1-.28-1.56a29.57,29.57,0,0,0-2.19-5.86c.19,1,.37,2.07.56,3.1a3.21,3.21,0,0,1-.33,2.59,2.87,2.87,0,0,1-2.31,1.25A4.07,4.07,0,0,1,31,83.6a22.92,22.92,0,0,1-2.36-2.1,16.66,16.66,0,0,0,3.86,4.93c.28.27.48.44,1.18,1.06,1.24,1.07,3,2.61,5.23,4.51"/><path class="cls-5" d="M39.41,91.88c-.41-2.53-.79-5.07-1.25-7.6a28.84,28.84,0,0,0-2.38-6.73c-.18-.41-.75-.1-.68.29A21.26,21.26,0,0,1,35.75,82a2.4,2.4,0,0,1-2.46,2.28c-1.21,0-2.49-1.25-3.31-2-.28-.26-.88-1.18-1.33-1.15a.37.37,0,0,0-.32.18c-.25.51.47,1.32.73,1.68a23.84,23.84,0,0,0,3,3.51c2.09,2,4.4,3.88,6.62,5.77.36.31.9-.22.53-.53-2-1.75-4.13-3.49-6.12-5.31a23,23,0,0,1-2.83-3.08c-.3-.4-.59-.8-.86-1.23a4.34,4.34,0,0,0-.28-.46c-.14-.19,0-.27-.13,0l-.32.19c-.4,0-.17-.14-.13,0a.85.85,0,0,0,.16.17l.5.51A13.47,13.47,0,0,0,30.93,84c1.1.78,2.2,1.35,3.56.83,3.07-1.17,1.76-4.82,1.33-7.19l-.68.29a28,28,0,0,1,2.34,6.81c.42,2.45.81,4.9,1.21,7.34.08.48.8.28.72-.2Z"/><path class="cls-6" d="M41.65,96.71c-1.06-1.38-2.15-2.75-3.13-4.19a66.67,66.67,0,0,1-6.18-12.43l-2-5q2.91,4.53,5.47,9.24c2.18,4,4.15,8.16,6.06,12.3"/><path class="cls-5" d="M42,96.52a60.33,60.33,0,0,1-4.87-7,75.34,75.34,0,0,1-3.67-7.76c-.93-2.23-1.82-4.47-2.73-6.72l-.68.29A178.8,178.8,0,0,1,41.55,96.87c.2.44.85,0,.65-.38A177.47,177.47,0,0,0,30.66,75c-.21-.33-.85-.12-.68.29.95,2.36,1.89,4.73,2.88,7.08a74.76,74.76,0,0,0,3.5,7.41,59.07,59.07,0,0,0,5,7.17c.29.38.94,0,.64-.38Z"/><path class="cls-4" d="M41.4,87.29l-1.12-6.82c-.09-.52-.17-1-.29-1.56a30.17,30.17,0,0,0-2.18-5.86c.18,1,.37,2.07.55,3.1A3.22,3.22,0,0,1,38,78.74,2.86,2.86,0,0,1,35.73,80a4,4,0,0,1-2.38-1.07A20.82,20.82,0,0,1,31,76.81a16.72,16.72,0,0,0,3.85,4.93c.29.27.48.44,1.19,1.06,1.23,1.07,3,2.61,5.23,4.51"/><path class="cls-5" d="M41.76,87.19c-.42-2.53-.8-5.07-1.25-7.6a28.84,28.84,0,0,0-2.38-6.73c-.19-.41-.76-.1-.69.29a21.28,21.28,0,0,1,.66,4.18,2.4,2.4,0,0,1-2.47,2.28c-1.2,0-2.48-1.25-3.31-2-.27-.26-.88-1.18-1.32-1.15a.39.39,0,0,0-.33.18c-.24.51.48,1.31.73,1.68a23.9,23.9,0,0,0,3,3.51c2.09,2,4.4,3.88,6.61,5.77.37.31.9-.22.53-.53-2.05-1.76-4.13-3.49-6.12-5.31a23.47,23.47,0,0,1-2.82-3.08,12.92,12.92,0,0,1-.86-1.23c-.1-.14-.17-.33-.28-.47s0-.26-.13,0l-.32.19c-.4,0-.17-.15-.13,0s.12.12.15.17l.5.51a14.33,14.33,0,0,0,1.75,1.45c1.11.78,2.21,1.35,3.57.83C39.9,79,38.59,75.32,38.17,73l-.69.29a27.61,27.61,0,0,1,2.35,6.81c.42,2.44.8,4.89,1.21,7.34.08.48.8.27.72-.2Z"/><path class="cls-6" d="M44,92c-1.07-1.38-2.15-2.75-3.14-4.19A67.29,67.29,0,0,1,34.68,75.4l-2-5c1.94,3,3.76,6.1,5.46,9.24,2.19,4,4.16,8.16,6.07,12.3"/><path class="cls-5" d="M44.32,91.83a59.13,59.13,0,0,1-4.87-7,73.31,73.31,0,0,1-3.67-7.76c-.93-2.23-1.83-4.48-2.73-6.72l-.69.29A178.87,178.87,0,0,1,43.9,92.18c.2.43.85,0,.64-.38A177.4,177.4,0,0,0,33,70.26c-.22-.34-.85-.12-.69.29,1,2.36,1.9,4.73,2.89,7.08A70.51,70.51,0,0,0,38.71,85a58.65,58.65,0,0,0,5,7.17c.29.37.94,0,.65-.38Z"/><path class="cls-4" d="M46.48,87.29l-1.12-6.82c-.09-.52-.17-1-.29-1.56a30.17,30.17,0,0,0-2.18-5.86c.18,1,.37,2.07.55,3.1a3.18,3.18,0,0,1-.32,2.59A2.86,2.86,0,0,1,40.81,80a4,4,0,0,1-2.37-1.07,21.64,21.64,0,0,1-2.36-2.1,16.66,16.66,0,0,0,3.86,4.93c.28.27.47.44,1.18,1.06,1.23,1.07,3,2.61,5.23,4.51"/><path class="cls-5" d="M46.84,87.19c-.41-2.53-.8-5.07-1.25-7.6a28.84,28.84,0,0,0-2.38-6.73c-.19-.41-.75-.1-.68.29a21.26,21.26,0,0,1,.65,4.18,2.4,2.4,0,0,1-2.46,2.28c-1.21,0-2.49-1.25-3.32-2-.27-.26-.87-1.18-1.32-1.15a.39.39,0,0,0-.33.18c-.24.51.48,1.31.74,1.68a23.24,23.24,0,0,0,3,3.51c2.09,2,4.4,3.88,6.62,5.77.36.31.89-.22.53-.53-2-1.76-4.13-3.49-6.13-5.31a23.47,23.47,0,0,1-2.82-3.08,12.92,12.92,0,0,1-.86-1.23c-.1-.14-.17-.33-.28-.47s0-.26-.13,0l-.32.19c-.4,0-.17-.15-.13,0s.12.12.16.17l.49.51a15.23,15.23,0,0,0,1.76,1.45c1.1.78,2.2,1.35,3.56.83C45,79,43.67,75.32,43.25,73l-.69.29a27.61,27.61,0,0,1,2.35,6.81c.42,2.44.81,4.89,1.21,7.34.08.48.8.27.72-.2Z"/><path class="cls-6" d="M49.08,92C48,90.64,46.93,89.27,46,87.83A66.67,66.67,0,0,1,39.77,75.4l-2-5c1.94,3,3.77,6.1,5.46,9.24,2.19,4,4.16,8.16,6.07,12.3"/><path class="cls-5" d="M49.4,91.83a60.33,60.33,0,0,1-4.87-7,75.34,75.34,0,0,1-3.67-7.76c-.93-2.23-1.82-4.48-2.73-6.72l-.69.29A177.47,177.47,0,0,1,49,92.18c.2.43.85,0,.65-.38A178.87,178.87,0,0,0,38.09,70.26c-.21-.34-.85-.12-.68.29,1,2.36,1.89,4.73,2.88,7.08A74.76,74.76,0,0,0,43.79,85a59.78,59.78,0,0,0,5,7.17c.3.37,1,0,.65-.38Z"/><path class="cls-2" d="M63,112.21,51.31,83.1c.63,2.67-3.77,7.08-10.12,10.06s-12.29,3.46-13.7,1.17L39.2,123.41Z"/><path class="cls-7" d="M98.84,234.25c-2.13-26,1.09-93.49-3-119.24a47.08,47.08,0,0,0-3.72-13.28A26.31,26.31,0,0,0,71.86,87.1L52.93,88.55a26.32,26.32,0,0,0-20.25,14.62A47.24,47.24,0,0,0,29,116.46c-4.1,25.75-.89,93.22-3,119.24Z"/><path class="cls-8" d="M92.45,123.39c-.07.53.06,1,0,1.54-.79,5.39-.42,8.42-.31,14.28,0,1.91-.09,4.19,0,6.1.11,1.74.3,4.29.3,5.39,0,1.8.28,4.53.43,6.32.65,7.75.34,12.59.25,20.36a6.62,6.62,0,0,1-.49,2.92A2.94,2.94,0,0,1,90.06,182c-1.88,0-2.79-2-3.24-3.57l-4.93-17.46c-.46-1.65-.92-3.3-1.23-5a51.4,51.4,0,0,1-.62-5.39c-.62-8.16-1-20.84-1.26-29Z"/><path class="cls-9" d="M81.59,127.82a67.43,67.43,0,0,0-1.82,9.35c-.5,3.48-1,7-1.21,10.47-.56,9.32,1,18.63,2.81,27.78,2.37,11.72,8.61,43.85,12.06,55.3l-59.55.78c3.45-11.45,9.49-44,11.86-55.69,1.84-9.15,3.37-18.46,2.81-27.78-.21-3.51-.71-7-1.22-10.47a66,66,0,0,0-1.81-9.35"/><path class="cls-8" d="M92.44,123.6l-1.52-9.41a34,34,0,0,0-5.53-16.94,10.19,10.19,0,0,0-2.58-2.94c-2.65-1.91-6.46-1.79-9.62-3-4.85-1.78-7.7-7-6.26-11.42L56.62,82.1c1.44,4.45-1.41,9.64-6.26,11.42-3.16,1.16-7,1-9.62,3a10.46,10.46,0,0,0-2.58,2.94,34.19,34.19,0,0,0-5.3,14.28c-.69,5.44-1.59,10.85-2.47,16.28l-.82,5.12c-.28,1.73-.55,3.58.19,5.17a8.88,8.88,0,0,0,1.51,2.06c3.29,3.7,6.74,7.52,11.3,9.46A52.17,52.17,0,0,1,48.09,154c.62.34,1.19.75,1.83,1.05a10.41,10.41,0,0,0,2.91.76c2,.32,4,.57,6.05.74a5.83,5.83,0,0,0,3.44-.44,6,6,0,0,0,2.19-3,3.62,3.62,0,0,0,.4-1.36,2.63,2.63,0,0,0-.54-1.56,6.78,6.78,0,0,0-4-2.36,42.37,42.37,0,0,1-4-1.47,32.23,32.23,0,0,1-6.1-2.84c-.42-.22-1.72-1.14-2.16-1.31a7.32,7.32,0,0,1-2.46-1.64c-.48-.51-1.33-.91-2-1.69-.35-.39-1.23-1-1.28-1.54-.56-7.13,1.49-14.26,1-21.4"/><ellipse class="cls-8" cx="42.91" cy="55.38" rx="3.42" ry="4.89"/><ellipse class="cls-8" cx="79.27" cy="54.99" rx="3.42" ry="4.89"/><path class="cls-10" d="M80.34,51.27c0,14.25-11.7,32.65-19.15,32.65S41.84,66.5,41.84,52.25,53.15,31.92,60.6,31.92,80.34,37,80.34,51.27Z"/><path class="cls-11" d="M58.65,54h0Z"/><polygon class="cls-11" points="48.29 53.81 48.3 53.81 48.29 53.81 48.29 53.81"/><polygon class="cls-11" points="48.28 53.81 48.29 53.81 48.3 53.81 48.28 53.81"/><polygon class="cls-11" points="58.64 54 58.62 54 58.63 54.01 58.64 54"/><path class="cls-11" d="M55.52,54l3.1.06h0l-3.1-.06Z"/><polygon class="cls-11" points="51.81 53.87 48.3 53.81 48.29 53.81 48.3 53.81 51.81 53.88 51.81 53.87"/><path class="cls-12" d="M71.34,53.91a1.86,1.86,0,0,1-3.71,0l3.71-.07Z"/><polygon class="cls-12" points="51.81 53.87 51.81 53.88 55.52 53.95 55.52 53.94 51.81 53.87"/><path class="cls-11" d="M55.52,53.94l3.1.06c-1-.34-1.55-1-3.48-1.21a1.82,1.82,0,0,1,.38,1.12Z"/><path class="cls-11" d="M52.16,52.82a10.73,10.73,0,0,0-3.86,1l3.51.06A1.91,1.91,0,0,1,52.16,52.82Z"/><path class="cls-11" d="M58.62,54,55.52,54a1.86,1.86,0,0,1-3.71,0v0l-3.51-.06c1.17.59,2.7,2.23,5.55,2.23S57.46,54.41,58.62,54Z"/><path class="cls-12" d="M55.52,53.94v0a1.82,1.82,0,0,0-.38-1.12c-.32,0-.68,0-1.09,0-.69,0-1.32,0-1.89.08a1.91,1.91,0,0,0-.35,1Z"/><path class="cls-12" d="M51.81,53.91a1.86,1.86,0,0,0,3.71,0l-3.71-.07Z"/><circle cx="53.66" cy="53.91" r="1.08"/><path class="cls-11" d="M67.63,53.94,64.52,54c1-.34,1.56-1,3.48-1.21a1.89,1.89,0,0,0-.38,1.12S67.63,53.93,67.63,53.94Z"/><path class="cls-11" d="M71,52.82a10.67,10.67,0,0,1,3.86,1l-3.5.06A1.85,1.85,0,0,0,71,52.82Z"/><path class="cls-11" d="M64.52,54,67.63,54a1.86,1.86,0,0,0,3.71,0v0l3.51-.06c-1.17.59-2.71,2.23-5.56,2.23S65.68,54.41,64.52,54Z"/><path class="cls-12" d="M67.63,53.94s0,0,0,0A1.89,1.89,0,0,1,68,52.79c.33,0,.68,0,1.09,0,.69,0,1.32,0,1.89.08a1.85,1.85,0,0,1,.36,1Z"/><circle cx="69.5" cy="53.91" r="1.08"/><path class="cls-1" d="M64.86,37.12a17.93,17.93,0,0,1-5.5.93c-1.84-.1-3.84-.79-5.28.33a8.12,8.12,0,0,0-2.37,3.83,67.3,67.3,0,0,0-2.79,36.67L44.06,64.79a37.23,37.23,0,0,1-1.54-5.36,37.61,37.61,0,0,1-.42-3.81c-.43-6-.77-12.31,2.23-17.5a8.4,8.4,0,0,1,2.05-2.5,10.39,10.39,0,0,1,3.11-1.54l9.89-2.65,6.42-1.68a16.81,16.81,0,0,1,2.89-.58c4.1-.37,8,2.16,10.6,5.25a9.06,9.06,0,0,1,1.25,1.76,10.38,10.38,0,0,1,.82,2.8c1,5.46,1.65,11.3-.64,16.37-.47,1-1,2-1.51,3-1.52,3.29-2,7.08-4.23,9.94a20.1,20.1,0,0,0,.61-6.43c0-3.35-.09-6.71-.37-10C75,49,74.56,46.13,74.14,43.3a30.74,30.74,0,0,0-.69-3.69,16.23,16.23,0,0,0-.82-2.34,2.53,2.53,0,0,0-1-1.19A2.76,2.76,0,0,0,70,35.7a6.87,6.87,0,0,0-3.54.61Z"/><path class="cls-1" d="M58.73,51.33a12.86,12.86,0,0,0-4.34-1.23,7.63,7.63,0,0,0-1.17,0,10.61,10.61,0,0,0-1.13.17c-1.3.24-2.81.48-4.11.73.38-.17.45-.52.78-.77a3,3,0,0,1,1.39-.83,17,17,0,0,1,4.23-.68,6.84,6.84,0,0,1,1.47.35l1.22.41a2.85,2.85,0,0,1,1,.44,3,3,0,0,1,.77,1.27"/><path class="cls-1" d="M64.47,51.33A12.81,12.81,0,0,1,68.8,50.1a7.76,7.76,0,0,1,1.18,0,10.43,10.43,0,0,1,1.12.17c1.31.24,2.81.48,4.11.73-.38-.17-.45-.52-.78-.77A2.93,2.93,0,0,0,73,49.36a17,17,0,0,0-4.23-.68,6.75,6.75,0,0,0-1.46.35l-1.23.41a3,3,0,0,0-1,.44,3,3,0,0,0-.77,1.27"/><path d="M60.67,57.34a30.09,30.09,0,0,1-.32,3.14,14,14,0,0,1-.93,2.66c-.41,1-1.44,3.76.27,4.19a.38.38,0,0,0,.2-.73c-.7-.17-.3-1.56-.18-2a22.7,22.7,0,0,1,.84-2.26,16.5,16.5,0,0,0,.87-5c0-.48-.71-.48-.75,0Z"/><path d="M61.2,67.09h0l0,0,0,0s0,0,0,0l.2-.11a2.19,2.19,0,0,1,.41-.13s.05,0,0,0,0,0,0,0h.12a.57.57,0,0,1,.22,0,.84.84,0,0,1,.39.26.23.23,0,0,0,.32-.32,1.3,1.3,0,0,0-1.21-.41,1.55,1.55,0,0,0-1,.54.23.23,0,0,0,.08.31.22.22,0,0,0,.3-.08Z"/><path class="cls-1" d="M64.11,73.23A3.52,3.52,0,0,0,63,72.77a1.15,1.15,0,0,0-1.12.37s-.07.1-.13.11a.23.23,0,0,1-.14,0,4.53,4.53,0,0,0-.81-.27,3.29,3.29,0,0,0-2,.56s-.47.09-.42.09l1,1c.16.13.39.35.56.47a3.09,3.09,0,0,0,.82.31c.18.06.76.13,1,.17a2.17,2.17,0,0,0,1.28-.28c.78-.34.78-.94,1.13-1.67l.06-.41"/><path class="cls-1" d="M64.49,72.58A3.72,3.72,0,0,0,62.7,72a2.17,2.17,0,0,0-.87.2,2.11,2.11,0,0,0-.4.26l-.11.12-.08.1c-.11.13-.08.11.08-.08l.38-.1c.16,0-.1-.06-.14-.07l-.25-.09a2.6,2.6,0,0,0-.66-.14,3,3,0,0,0-1.16.14,8.06,8.06,0,0,0-1.08.48c.12-.06,0,0-.1,0l-.23,0a.74.74,0,0,0-.54.83.75.75,0,0,0,.74.65h0l-.53-.22A6.66,6.66,0,0,0,59.87,76a4.81,4.81,0,0,0,.92.25,6.72,6.72,0,0,0,1,.16,3.45,3.45,0,0,0,1.44-.4,2,2,0,0,0,.92-.77,5.77,5.77,0,0,0,.46-1,1.46,1.46,0,0,0,.14-.38,2,2,0,0,0,0-.34.77.77,0,0,0-.52-.92.75.75,0,0,0-.92.52,1.33,1.33,0,0,0,0,.34c0,.17.08-.15,0,0l-.16.4-.08.21a.78.78,0,0,0-.05.14c0-.07,0-.07,0,0s-.08.16-.13.24,0,.07,0,0a.47.47,0,0,0-.1.1c.09-.08-.1.06-.14.07a.72.72,0,0,1-.2.09,1.59,1.59,0,0,1-.64.18,8.07,8.07,0,0,1-.85-.15c-.2-.06-.39-.13-.59-.18.08,0-.13-.06,0,0a2.75,2.75,0,0,1-.26-.22,6,6,0,0,1-.44-.43c-.34-.35-.8-1-1.33-1l.2,1.47.35-.07a5.05,5.05,0,0,0,.71-.33A1.76,1.76,0,0,1,61,73.82a1.22,1.22,0,0,0,1.07.08,1.45,1.45,0,0,0,.36-.34c-.06.07.05,0,.06,0a.78.78,0,0,1,.46,0,3.8,3.8,0,0,1,.77.35c.85.46,1.6-.83.76-1.3Z"/><path d="M56.77,73.47c2.74,1.08,6.71,1.88,8.62-1.07.26-.4-.38-.78-.65-.38-1.69,2.63-5.4,1.66-7.77.72-.45-.17-.64.55-.2.73Z"/><path class="cls-10" d="M40.66,71.44A4.57,4.57,0,0,1,43.71,67a4.33,4.33,0,0,0-.63,0,4.55,4.55,0,0,0,.44,9.06A3.9,3.9,0,0,0,45,75.71,4.66,4.66,0,0,1,40.66,71.44Z"/><path class="cls-10" d="M41.4,58.52a5.84,5.84,0,0,0-.11,2c0,.73.08,1.45.13,2.18.1,1.45.22,2.91.36,4.36,0,.47.79.48.75,0-.14-1.4-.25-2.79-.35-4.19,0-.67-.09-1.35-.13-2a6.35,6.35,0,0,1,.07-2.13.37.37,0,0,0-.72-.2Z"/><path class="cls-10" d="M82.08,71.05a4.56,4.56,0,0,0-3-4.43,4.42,4.42,0,0,1,.63,0,4.55,4.55,0,0,1-.44,9.06,4,4,0,0,1-1.43-.34A4.65,4.65,0,0,0,82.08,71.05Z"/><path class="cls-10" d="M80.36,58.72a6.13,6.13,0,0,1,.07,2.05c0,.7-.08,1.4-.13,2.1-.1,1.4-.21,2.79-.35,4.19,0,.48.71.48.75,0,.14-1.45.26-2.91.36-4.36,0-.73.1-1.45.13-2.18a5.84,5.84,0,0,0-.1-2,.38.38,0,0,0-.73.2Z"/><path class="cls-9" d="M45.5,128.4c-.87-2.94-2.15-5.77-2.6-8.8a33,33,0,0,1-.12-6.37l.83-18.35,8.7-2.34a2.74,2.74,0,0,0,.83,2.2,6.91,6.91,0,0,0,2,1.34,38.52,38.52,0,0,0,7.44,2.79,8.85,8.85,0,0,0,3.95.33A9.21,9.21,0,0,0,70.43,97a7.66,7.66,0,0,0,1.72-1.83c.85-1.41.79-3.21,1.55-4.68A23.3,23.3,0,0,1,81.13,93a21.61,21.61,0,0,1,2.32,1.47l.84,18.35a33,33,0,0,1-.13,6.37c-.45,3-1.73,5.86-2.59,8.8"/><path class="cls-8" d="M61.77,231.19c1.09,18.81.31,37-1,55.82-.2,2.83.56,3.1.29,5.77l-10.38-.59c-.84-8.56-3.2-23.61-5.07-32C43,248.5,41,243.37,42,231.39"/><path class="cls-8" d="M61.08,292.85c-1.3,3.07-5,4.13-8.32,4.77-5.55,1.1-11.47,2-16.71-.09-1.5-.6-3.08-1.75-3.06-3.37s1.67-2.74,3.21-3.25a59.26,59.26,0,0,1,6.36-1.31c2.11-.45,6.22-1.28,7.59-3Z"/><path class="cls-13" d="M61,293c-1.3,3.08-5,4.14-8.32,4.78-5.55,1.09-11.47,2-16.71-.09-1.49-.61-3.08-1.76-3.05-3.37,2.78,1,7,.94,12.18,1C52.34,295.38,57,293.8,61,293Z"/><path class="cls-13" d="M38.34,290.77a27.68,27.68,0,0,1,4.2,6c.21.43.86.05.65-.38a28.54,28.54,0,0,0-4.32-6.19c-.32-.37-.85.17-.53.53Z"/><path class="cls-7" d="M81.13,92.68A15.32,15.32,0,0,1,79,98.74a21.25,21.25,0,0,1-3.55,3.91,8.39,8.39,0,0,1-1.9,1.48,7.81,7.81,0,0,1-2.07.6,39.79,39.79,0,0,1-11.27.41,15.37,15.37,0,0,1-3.15-.6c-2.46-.8-4.53-2.55-6.52-4.27A21.32,21.32,0,0,1,47.27,97a6.43,6.43,0,0,0-1.48-1.67,5.54,5.54,0,0,1-.76-.5.75.75,0,0,1-.2-.85l2.55-2.7a.64.64,0,0,0,.17.73,4.88,4.88,0,0,0,.65.43,5.38,5.38,0,0,1,1.26,1.42,18.28,18.28,0,0,0,2.82,2.81,17.16,17.16,0,0,0,5.58,3.65,13.59,13.59,0,0,0,2.69.51,34.17,34.17,0,0,0,9.63-.35A6.34,6.34,0,0,0,72,100a7,7,0,0,0,1.63-1.26,18.13,18.13,0,0,0,3-3.34,13.06,13.06,0,0,0,1.79-5.18Z"/><path class="cls-7" d="M80.4,92.48a14.22,14.22,0,0,1-2.68,6.8,21.46,21.46,0,0,1-2.13,2.24,8.21,8.21,0,0,1-3,2.2,26.1,26.1,0,0,1-7.15.88,28.79,28.79,0,0,1-7.24-.54,14.47,14.47,0,0,1-5.81-3.24,27.76,27.76,0,0,1-4.68-4.51c-.44-.6-1-1.56-1.78-1.79s-.53.14-.34-.23a2.64,2.64,0,0,1,.36-.39l2-2.09-1.25-.73A1.49,1.49,0,0,0,47,92.53a10.09,10.09,0,0,0,.95.66,7,7,0,0,1,1,1.19,24.16,24.16,0,0,0,4.12,3.9,15.34,15.34,0,0,0,4.22,2.61,18.56,18.56,0,0,0,5.93.86,35.13,35.13,0,0,0,6.23-.4,7.7,7.7,0,0,0,4.37-1.84,19.39,19.39,0,0,0,3.46-3.78,13.83,13.83,0,0,0,1.86-5.36l-1.25.33,2.73,2.51c.71.66,1.77-.4,1.06-1.06l-2.73-2.51c-.37-.34-1.16-.26-1.25.33a13.24,13.24,0,0,1-1.5,4.64,15,15,0,0,1-2.83,3.27,6.68,6.68,0,0,1-2,1.52,10.54,10.54,0,0,1-2.29.51,34.19,34.19,0,0,1-5.35.35,21.47,21.47,0,0,1-5.18-.55,11.84,11.84,0,0,1-4.23-2.35,35,35,0,0,1-3.41-3c-.49-.52-.88-1.09-1.33-1.64a15.86,15.86,0,0,0-1.43-1.23.75.75,0,0,0-1.25-.73l-1.76,1.87c-.58.61-1.34,1.2-1,2.15.25.64.78.83,1.28,1.21a13.2,13.2,0,0,1,1.86,2.21,33.89,33.89,0,0,0,4.53,4.1,17,17,0,0,0,4.71,2.85,21,21,0,0,0,6.31,1,41,41,0,0,0,6.83-.31c1.87-.24,3.77-.47,5.3-1.66a21.42,21.42,0,0,0,4.6-4.81,15.84,15.84,0,0,0,2.3-6.42C82,91.94,80.55,91.53,80.4,92.48Z"/><path class="cls-13" d="M50,283.53l5.92-9.69c1.87-3,3.64-6.21,6.13-8.81.33-.35-.2-.88-.53-.53a49.58,49.58,0,0,0-6.06,8.65l-6.11,10c-.25.41.4.79.65.38Z"/><path class="cls-13" d="M61.46,282.37c-2.34-2.72-4.64-5.47-7-8.18a66.52,66.52,0,0,0-7.18-7.55c-.36-.31-.9.21-.53.53a66.65,66.65,0,0,1,7.18,7.56c2.35,2.7,4.65,5.45,7,8.17.32.37.85-.16.54-.53Z"/><path class="cls-13" d="M62.78,259.53c-7.09-6.52-13-14.28-20.83-20-.39-.29-.76.36-.38.64,7.78,5.68,13.64,13.42,20.68,19.89.36.33.89-.2.53-.53Z"/><path class="cls-13" d="M45.77,260.17c2.8-3.18,5.57-6.39,8.36-9.57s5.35-6.18,8.33-9c.36-.33-.17-.86-.53-.53-3,2.78-5.64,5.9-8.33,9s-5.56,6.39-8.36,9.57c-.31.36.21.9.53.53Z"/><path class="cls-8" d="M66.1,231.19c-1.08,18.81-.31,37,1,55.82.2,2.83-.57,3.1-.3,5.77l10.38-.59c.84-8.56,3.21-23.61,5.08-32,2.6-11.68,4.6-17.4,3.66-29.38"/><path class="cls-8" d="M66.8,292.85c1.3,3.07,5,4.13,8.32,4.77,5.54,1.1,11.47,2,16.7-.09,1.5-.6,3.08-1.75,3.06-3.37s-1.66-2.74-3.21-3.25a59.08,59.08,0,0,0-6.35-1.31c-2.12-.45-6.22-1.28-7.6-3Z"/><path class="cls-13" d="M66.88,293c1.3,3.08,5.05,4.14,8.32,4.78,5.55,1.09,11.47,2,16.71-.09,1.5-.61,3.08-1.76,3.06-3.37-2.79,1-7,.94-12.18,1C75.53,295.38,70.86,293.8,66.88,293Z"/><path class="cls-13" d="M89,290.24a28.19,28.19,0,0,0-4.32,6.19c-.21.43.43.81.64.38a27.73,27.73,0,0,1,4.21-6c.32-.36-.21-.9-.53-.53Z"/><path class="cls-13" d="M78.51,283.15l-6.11-10a49.53,49.53,0,0,0-6.05-8.65c-.34-.35-.87.18-.53.53a50.22,50.22,0,0,1,6.12,8.81l5.92,9.69c.26.41.9,0,.65-.38Z"/><path class="cls-13" d="M67,282.9c2.33-2.72,4.63-5.47,7-8.17a67.55,67.55,0,0,1,7.18-7.56c.37-.31-.16-.84-.53-.53a68.33,68.33,0,0,0-7.18,7.55c-2.35,2.71-4.65,5.46-7,8.18-.31.37.21.9.53.53Z"/><path class="cls-13" d="M65.62,260.06c7-6.47,12.91-14.21,20.68-19.89.39-.28,0-.93-.38-.64-7.83,5.72-13.74,13.48-20.83,20-.36.33.17.86.53.53Z"/><path class="cls-13" d="M82.63,259.64c-2.8-3.18-5.56-6.39-8.36-9.57s-5.35-6.18-8.33-9c-.35-.33-.88.2-.53.53,3,2.78,5.64,5.9,8.33,9s5.56,6.39,8.36,9.57c.32.37.85-.16.53-.53Z"/><path class="cls-3" d="M46.59,90.12l7.27,14.51,3.59,7.15a22.1,22.1,0,0,0,1.29,2.34c.63.93,1.41,1.76,2.06,2.68A33.88,33.88,0,0,1,63,120.61a92.84,92.84,0,0,0,5.94,9.27L70.35,132l5.46,7.82c.53.76,1.06,1.52,1.64,2.25A5.5,5.5,0,0,0,79,143.71l-.58,3.71a29,29,0,0,1-3.71-3.81c-.57-.73-1.11-1.49-1.64-2.26l-5.46-7.82-1.46-2.08a92.24,92.24,0,0,1-5.93-9.28,34,34,0,0,0-2.16-3.81c-.65-.91-1.42-1.74-2.05-2.68a21.27,21.27,0,0,1-1.3-2.33l-3.59-7.16q-3.63-7.25-7.26-14.5Z"/><path class="cls-3" d="M46,90.5q3,6,6,12.09l3,6a59.77,59.77,0,0,0,3,5.73c1.05,1.63,2.37,3,3.31,4.74s2,3.71,3.1,5.5c2.22,3.53,4.69,6.92,7.08,10.34,1.41,2,2.8,4,4.22,6a17.07,17.07,0,0,0,2.78,3.31l-.19-.73-.59,3.72,1.26-.34c-3.19-2.74-5.43-6.21-7.82-9.63s-5-7-7.31-10.55c-2.2-3.34-3.78-7.07-6.26-10.21a31.33,31.33,0,0,1-3.26-5.64c-.95-1.9-1.91-3.8-2.86-5.71Q48,98.24,44.51,91.31l-.27,1L47,90.77a.75.75,0,0,0-.75-1.3L43.48,91a.76.76,0,0,0-.27,1q3.07,6.16,6.16,12.31l3,6a54.16,54.16,0,0,0,3,5.7c1.12,1.68,2.44,3.14,3.4,4.94s2,3.71,3.14,5.5c2.29,3.59,4.81,7.05,7.25,10.54,2.68,3.84,5.16,7.83,8.74,10.92.38.32,1.15.27,1.25-.34l.47-3a4,4,0,0,0,.14-.92c-.06-.61-.67-.83-1-1.25a52,52,0,0,1-3.88-5.4l-4.31-6.17a123.8,123.8,0,0,1-7.82-12.41c-1.14-2.11-2.84-3.8-4-5.89s-2.25-4.44-3.36-6.66L47.24,89.74C46.81,88.88,45.52,89.64,46,90.5Z"/><path class="cls-14" d="M111.31,131.72c-3.8,1.65-7.31,3.22-11,4.58-5.08,2.15-9.77,4.3-14.85,6.26-3.33,1.37-6.45,2.74-9.58,4.3-.39.19-.59,0-1,.19-3.32,1.37-7.51,3.63-11,4.88"/><path class="cls-14" d="M16.87,171.69c12.65-5.28,27.29-11.56,39.79-16.94"/><path class="cls-15" d="M5.53,173.17c5.25,2,9.92-1.62,14.83-.09,17.1,5.33,35,13.76,53.85,8.85,27.31-7.11,29.17-27.89,36.67-47.65,1.91-5,8.66-8,10.46-10.31"/><rect class="cls-16" width="138" height="300"/></g></g></svg>