<svg xmlns="http://www.w3.org/2000/svg" viewBox="0 0 138 300"><defs><style>.cls-1{fill:#42210b;}.cls-2{fill:#051093;}.cls-3{fill:#52b2bf;}.cls-4{fill:#0a1172;}.cls-5{fill:#77c7c9;}.cls-18,.cls-6{fill:#fff;}.cls-7{fill:#1a00bf;}.cls-8{fill:#2832c2;}.cls-9{fill:#0b00d4;}.cls-10{fill:#2c3e4c;}.cls-11{fill:#d4af37;}.cls-12{fill:#016064;}.cls-13{fill:#1338bf;}.cls-14{fill:#301507;}.cls-15,.cls-19{fill:#ffaf13;}.cls-16{fill:#9c602e;}.cls-17{fill:#6d3f1d;}.cls-18,.cls-19{stroke:#000;stroke-miterlimit:10;}.cls-20{fill:none;}</style></defs><title>athena</title><g id="Layer_2" data-name="Layer 2"><g id="Layer_1-2" data-name="Layer 1"><path class="cls-1" d="M74.79,114.71a47.37,47.37,0,0,1,.18,9.82q-1.34,26.53-1.33,53.11l31.47-2-2.61-8.46a57.76,57.76,0,0,1-2.09-8.26,56.27,56.27,0,0,1-.31-10.14l.94-33.23c.24-8.11.47-16.25-.43-24.32a87.5,87.5,0,0,0-4.88-20.67A28.12,28.12,0,0,0,92,63.18a23.87,23.87,0,0,0-7.39-6.1c-3.15-1.8-6.67-3.2-10.3-3.06s-7.35,2.1-8.74,5.45Z"/><path class="cls-1" d="M74.43,114.81c.77,5.16.11,10.5-.12,15.67s-.43,10.42-.58,15.63q-.47,15.76-.46,31.53a.38.38,0,0,0,.37.38l27.53-1.77,3.94-.25a.39.39,0,0,0,.36-.48c-1.53-5-3.37-10-4.41-15.09-1.08-5.29-.61-10.78-.46-16.13.3-10.72.64-21.45.91-32.17.27-10.35.12-20.68-2.19-30.81a73.69,73.69,0,0,0-4.49-14,21.85,21.85,0,0,0-8.57-9.7c-3.66-2.32-8-4.32-12.45-3.94-3.33.28-7,2.09-8.4,5.28a2.67,2.67,0,0,0,0,1.72L66,64.34l4.72,28.35,2.34,14.08c.43,2.55.74,5.15,1.28,7.68,0,.12,0,.24.06.36.08.47.8.27.73-.2l-2.9-17.39-4.83-29L66.08,60.1a2.17,2.17,0,0,1-.11-.66c.16-.91,1.42-2.12,2.14-2.73,3.52-3,8.41-2.72,12.48-1.16,4.35,1.66,8.78,4.49,11.49,8.35s4.19,8.91,5.47,13.49c2.77,9.92,3.45,20.09,3.3,30.35s-.55,20.57-.84,30.86c-.15,5.15-.46,10.33-.35,15.48.1,5,1.39,9.61,2.84,14.35l2.24,7.29.37-.47L77.58,177l-3.94.26.38.37q0-24.94,1.16-49.89c.21-4.37.62-8.78,0-13.14C75.08,114.13,74.36,114.34,74.43,114.81Z"/><path class="cls-2" d="M123.71,297.83a79.14,79.14,0,0,1-5.25-8.75A177.22,177.22,0,0,1,98.74,220.2c-1.79-23.33.92-47-2.54-70.12a44.22,44.22,0,0,0-3.13-11.91C89.78,131,83.13,125.89,76,125.05l-16,1.3c-7.15.84-13.8,5.94-17.09,13.11a44.38,44.38,0,0,0-3.13,11.92c-3.46,23.09-.75,46.79-2.54,70.12a177.22,177.22,0,0,1-19.72,68.88,80.07,80.07,0,0,1-5.25,8.75,301.24,301.24,0,0,1,111.44-1.3Z"/><path class="cls-3" d="M73.63,239.63c-.84,14.66-.24,33.78.78,48.41.16,2.21-.43,2.42-.22,4.5l8.08-.46c.66-6.67,2.5-18.39,4-24.93,2-9.1,3.59-18.54,2.85-27.87"/><path class="cls-3" d="M74.17,292.52c.82,2,3.2,2.62,5.27,3,3.51.7,7.27,1.29,10.59-.05.94-.39,1.94-1.12,1.93-2.14s-1-1.73-2-2.06a38.89,38.89,0,0,0-4-.83,6.18,6.18,0,0,1-3.57-1.87Z"/><path class="cls-1" d="M74.23,292.63c.82,1.95,3.19,2.62,5.27,3,3.51.69,7.26,1.28,10.58-.06,1-.39,2-1.12,1.94-2.14-1.77.64-4.43.6-7.72.63C79.71,294.12,76.74,293.12,74.23,292.63Z"/><path class="cls-1" d="M88.14,290.77a18.68,18.68,0,0,0-2.76,4,.4.4,0,0,0,.14.51.37.37,0,0,0,.51-.13,17.57,17.57,0,0,1,2.64-3.8c.32-.36-.21-.9-.53-.53Z"/><path class="cls-1" d="M82.54,288.16a13.77,13.77,0,0,1-8,.27c-.46-.15-.65.57-.2.72a14.44,14.44,0,0,0,8.41-.27.37.37,0,0,0-.2-.72Z"/><path class="cls-1" d="M83,286.24a72,72,0,0,1-8.67-1c-.47-.08-.68.64-.2.72A73.27,73.27,0,0,0,83,287c.48,0,.48-.72,0-.75Z"/><path class="cls-1" d="M83.16,284.33a44.34,44.34,0,0,1-4.62-.47c-1.46-.23-2.88-.64-4.33-.85-.48-.07-.68.66-.2.72,1.51.22,3,.66,4.5.88s3.09.39,4.65.47c.48,0,.48-.73,0-.75Z"/><path class="cls-1" d="M83.34,282.76A48.42,48.42,0,0,1,74.1,281a.37.37,0,0,0-.2.72,49.73,49.73,0,0,0,9.44,1.77c.49,0,.48-.71,0-.75Z"/><path class="cls-1" d="M83.61,280.64c-3.12-.43-6.54.25-9.42-1.34-.42-.23-.8.42-.37.65,3,1.65,6.37,1,9.59,1.42.47.06.68-.66.2-.73Z"/><path class="cls-1" d="M83.71,279c-3.2-.39-6.45-.07-9.63-.64-.47-.09-.68.64-.2.72,3.25.59,6.57.27,9.83.67.48.06.48-.69,0-.75Z"/><path class="cls-3" d="M112.36,152.34l-11.15-.05c-2.5,1.24-5.23,2.26-8,2a.88.88,0,0,1-.62-.24.83.83,0,0,1-.16-.47l-1.36-8.43a33.3,33.3,0,0,0-4.35-15.2,9.22,9.22,0,0,0-2-2.64c-2.08-1.7-5.09-1.6-7.57-2.64a8.86,8.86,0,0,1-4.93-10.24l-8.11,1.94a8.86,8.86,0,0,1-4.94,10.24c-2.48,1-5.48.93-7.57,2.64a9.22,9.22,0,0,0-2,2.64,33.42,33.42,0,0,0-4.35,15.2l-1.35,8.43a1,1,0,0,1-.17.47.84.84,0,0,1-.62.24c-2.77.27-5.51-.75-8-2l-20.85-5.76-7.27,2.82A1.27,1.27,0,0,0,7,153.7l2.79.83a.36.36,0,0,1,.2.06l.28.09.3,0a4.09,4.09,0,0,0,.61,0l1.29.05c.31,0,.63,0,.94.06,8.53-.82,18.48,7.06,27.92,8.66a54.19,54.19,0,0,0,7.31.73,2.07,2.07,0,0,0,2.64-1.7,88.09,88.09,0,0,0,3-13.61L82,147a88.12,88.12,0,0,0,3,13.61,2.67,2.67,0,0,0,.59,1.19,2.72,2.72,0,0,0,2,.51,52.92,52.92,0,0,0,7.32-.73c10-1.69,5.88-6.23,16-7.62Z"/><path class="cls-4" d="M78.72,63.14a5.47,5.47,0,0,0-3.78-5,8.34,8.34,0,0,0-3,0,16.06,16.06,0,0,0-7.28,2.21,2.18,2.18,0,0,0-.12,1.59A4.79,4.79,0,0,0,66.11,64a13.47,13.47,0,0,0,5.56,3.25,6.51,6.51,0,0,0,6.07-1.38,3.47,3.47,0,0,0,.83-1.24A3.67,3.67,0,0,0,78.72,63.14Z"/><path class="cls-5" d="M85.19,81.35a3.42,3.42,0,0,1-.68-1.77c0-10.73-2.82-14.78-8.62-16.23a2.09,2.09,0,0,1-.28.24,2.4,2.4,0,0,1-1.42.45c-.2,0-.4,0-.6,0l-.21.08a4.71,4.71,0,0,1-1,.32A3.89,3.89,0,0,0,71.5,66c-.15.47-.9.27-.75-.21.06-.18.13-.36.2-.54l-.06,0A.4.4,0,0,1,70.2,65a.43.43,0,0,1-.28-.49,2.74,2.74,0,0,1,.25-.58,9.37,9.37,0,0,1-2.35-.43.39.39,0,0,1,.1-.76,5.75,5.75,0,0,0,.94-.11l-1.74,0c-5,0-8.82.33-11.6,1.86a.41.41,0,0,1,0,.39l-.1.18a4.83,4.83,0,0,1-.28.89c.11.29.21.59.3.89a.38.38,0,0,1-.27.47.39.39,0,0,1-.48-.27.14.14,0,0,0,0-.06l-.37.72c-.35.69-.62,1.42-.9,2.14s-.63,1.64-.92,2.48a.35.35,0,0,1-.21.23c-.05.39-.11.77-.19,1.15v0a.33.33,0,0,1,0,.15c-.15.69-.34,1.36-.55,2a.39.39,0,0,1,.29.47c-.09.43-.19.85-.3,1.28-.24,1.09-.41,2.2-.59,3.3a.39.39,0,0,1,.33.38,6.45,6.45,0,0,1-.31,2.14,5.7,5.7,0,0,1-.06,1.7.37.37,0,0,1-.05.11l.31.22a.41.41,0,0,1,.11.28.44.44,0,0,1-.11.27.34.34,0,0,1-.25.11v.08a.33.33,0,0,1-.07.13c.06.24.1.48.16.73a4.19,4.19,0,0,0,.14.47,0,0,0,0,1,0,0v0l.06.11a.41.41,0,0,0,.05.09l0,0s0,0,0,0a.4.4,0,0,1,0,.55.39.39,0,0,1-.55,0l-.14-.21c0,.38.06.76.1,1.14a34,34,0,0,1,.35,4,.39.39,0,0,1-.57.33c2.66,6,.51,8.8,3.06,13.14,3.69,6.27,8.45,10.72,13.63,10.72s9.76-4.27,13.42-10.35c3-4.94.88-8.41,4.61-15.87,0-.69-.05-1.39-.05-2.09,0-1.5,0-3,.07-4.5C85.15,83.62,85.16,82.48,85.19,81.35Z"/><path class="cls-3" d="M57.79,292.08c-.66-6.67-2.5-18.39-4-24.93-2-9.1-3.58-18.54-2.85-27.87l15.44.35c.85,14.66.25,33.78-.78,48.41-.15,2.21.44,2.42.23,4.5Z"/><path class="cls-3" d="M65.89,292.52c-.83,2-3.2,2.62-5.27,3-3.52.7-7.27,1.29-10.59-.05-1-.39-2-1.12-1.93-2.14s1-1.73,2-2.06a38.71,38.71,0,0,1,4-.83,6.21,6.21,0,0,0,3.58-1.87Z"/><path class="cls-6" d="M64.53,90.62A3.45,3.45,0,0,0,62.12,89,1.61,1.61,0,0,1,62.54,90a2,2,0,0,1-3.88,0,1.61,1.61,0,0,1,.47-1.12,4,4,0,0,0-1.5.57c-.45.31-1,.72-1,1.25l.63.46a2.18,2.18,0,0,0,.42.24l1,.42a3.25,3.25,0,0,0,1,.25l.62,0a2.88,2.88,0,0,0,.72,0l1.78-.3h.05l1.29-.35A.6.6,0,0,0,64.53,90.62Z"/><path class="cls-7" d="M58.66,90a2,2,0,0,0,3.88,0A1.61,1.61,0,0,0,62.12,89a6.22,6.22,0,0,0-1.46-.17,8.56,8.56,0,0,0-1.53.12A1.61,1.61,0,0,0,58.66,90Zm1.84-1a.87.87,0,1,1-.87.87A.87.87,0,0,1,60.5,89.08Z"/><circle cx="60.5" cy="89.95" r="0.87"/><path class="cls-6" d="M71,90.62A3.45,3.45,0,0,1,73.43,89,1.61,1.61,0,0,0,73,90a2,2,0,0,0,3.88,0,1.64,1.64,0,0,0-.46-1.12,4.07,4.07,0,0,1,1.49.57c.45.31,1,.72,1,1.25l-.63.46a2.18,2.18,0,0,1-.42.24l-1,.42a3.25,3.25,0,0,1-1,.25l-.62,0a2.9,2.9,0,0,1-.72,0l-1.78-.3h0l-1.3-.35A.61.61,0,0,1,71,90.62Z"/><path class="cls-7" d="M76.89,90A2,2,0,0,1,73,90,1.61,1.61,0,0,1,73.43,89a6.24,6.24,0,0,1,1.47-.17,8.72,8.72,0,0,1,1.53.12A1.64,1.64,0,0,1,76.89,90Zm-1.84-1a.87.87,0,1,0,.87.87A.87.87,0,0,0,75.05,89.08Z"/><circle cx="75.05" cy="89.95" r="0.87"/><path class="cls-8" d="M71.07,86.75A1.94,1.94,0,0,1,71.6,86c.29-.21.54,0,.79.16a1.3,1.3,0,0,0,1.72.09c.56-.46.7-1.31,1.55-1.34a5.78,5.78,0,0,1,2.46.68c.44.2.82-.45.38-.65a7.61,7.61,0,0,0-2.67-.78,1.92,1.92,0,0,0-1.12.26,3,3,0,0,0-.8.93,1.05,1.05,0,0,1-.47.44.56.56,0,0,1-.5-.16,2.24,2.24,0,0,0-.91-.46c-.78-.12-1.3.59-1.61,1.21-.21.43.44.81.65.38Z"/><path class="cls-8" d="M65.07,86.37c-.3-.61-.79-1.3-1.56-1.22a2.14,2.14,0,0,0-.91.44.74.74,0,0,1-.48.2c-.24,0-.41-.27-.53-.45a3.28,3.28,0,0,0-.76-.9,1.87,1.87,0,0,0-1.11-.29,7.31,7.31,0,0,0-2.73.78c-.43.2-.05.85.38.65a6.06,6.06,0,0,1,2.41-.68c.9,0,1,.86,1.61,1.34a1.25,1.25,0,0,0,1.67-.06c.24-.17.5-.4.8-.21a1.71,1.71,0,0,1,.56.78c.22.43.87,0,.65-.38Z"/><path d="M66.59,93.68a33.63,33.63,0,0,1-.68,8.31c-.09.62-.19,1.24-.26,1.86a10.41,10.41,0,0,0-.19,1.92.71.71,0,0,0,.66.71,11.67,11.67,0,0,0,2-.1c.48,0,.48-.78,0-.75l-.94.05c-.14,0-.83.14-.93,0s0-1.27.06-1.53c.15-1.22.35-2.43.55-3.64a28.36,28.36,0,0,0,.44-6.88c0-.48-.8-.48-.75,0Z"/><path class="cls-9" d="M70.53,90.44a7.19,7.19,0,0,1,1-.67c.4-.15.81-.27,1.21-.4a8,8,0,0,1,2.81-.5,14.24,14.24,0,0,1,2.75.54,4.89,4.89,0,0,0,2.46-.07c.28-.07.16-.51-.12-.44a4.33,4.33,0,0,1-1.75.18,11.78,11.78,0,0,1-1.3-.33A8.86,8.86,0,0,0,75,88.42,9.57,9.57,0,0,0,72.5,89c-.4.13-.81.24-1.2.41a8.23,8.23,0,0,0-1,.66.22.22,0,0,0,.23.38Z"/><path class="cls-9" d="M70.7,91.81A4.93,4.93,0,0,1,73,92a6.81,6.81,0,0,0,2,.33c1.35-.07,2.64-.83,4-.56.28,0,.41-.38.12-.44-1.43-.28-2.72.48-4.12.55a7.77,7.77,0,0,1-2.24-.41,5.1,5.1,0,0,0-2.2,0c-.28.06-.16.49.12.43Z"/><path class="cls-9" d="M65.16,90.06a8.11,8.11,0,0,0-1-.66c-.39-.16-.8-.28-1.2-.41a9.64,9.64,0,0,0-2.54-.57,8.76,8.76,0,0,0-2.6.33,11.78,11.78,0,0,1-1.3.33,4.51,4.51,0,0,1-1.75-.18c-.28-.07-.4.37-.12.44a5,5,0,0,0,2.36.1,15.21,15.21,0,0,1,2.84-.57,7.69,7.69,0,0,1,2.73.47l1.21.4a7.42,7.42,0,0,1,1.14.7.22.22,0,0,0,.22-.38Z"/><path class="cls-9" d="M64.89,91.38a4.94,4.94,0,0,0-2.13,0,8.34,8.34,0,0,1-2.31.43c-1.41-.07-2.69-.83-4.12-.55-.29.06-.17.49.12.44,1.36-.27,2.65.49,4,.56A6.27,6.27,0,0,0,62.37,92a5.14,5.14,0,0,1,2.4-.16c.28.06.4-.37.12-.43Z"/><path d="M63.9,110.46a28.42,28.42,0,0,0,4,.66,4.56,4.56,0,0,0,3.28-1c.38-.3-.15-.83-.53-.53a4,4,0,0,1-3,.76,30.45,30.45,0,0,1-3.56-.62c-.47-.1-.67.62-.2.73Z"/><path d="M66.16,112.27a5.54,5.54,0,0,0,2.8,0,.37.37,0,1,0-.19-.72,4.8,4.8,0,0,1-2.41,0,.37.37,0,0,0-.2.72Z"/><path class="cls-10" d="M82.33,182.8c-2.62-7.32-5.29-14.88-4.92-22.65a9.3,9.3,0,0,1,.81-3.81,16.32,16.32,0,0,1,2-2.74A15.12,15.12,0,0,0,83,141.14l-2.19-2.79c-1.11-1.22-2.23-2.44-3.43-3.58a6.37,6.37,0,0,1-1.63-2,26.5,26.5,0,0,0-5.08,5.85,10.09,10.09,0,0,1-1.58,2.12l-1,1.52-1.65-1.52a9.72,9.72,0,0,1-1.57-2.12,26.81,26.81,0,0,0-5.09-5.85,6.24,6.24,0,0,1-1.63,2c-1.2,1.14-2.31,2.36-3.43,3.58l-2.15,2.79a15.09,15.09,0,0,0,2.78,12.46,17.5,17.5,0,0,1,2,2.74,9.3,9.3,0,0,1,.81,3.81c.36,7.77-2.3,15.33-4.92,22.65Z"/><path class="cls-11" d="M52.66,141.23c-.07-4.67,2.25-9,3-13.64l4.11-1.5a38,38,0,0,0-.1,7.07Z"/><path class="cls-11" d="M83,141.62c.07-5-2.38-11.35-3.14-16.26l-4.33-1.6a63.75,63.75,0,0,1,.11,9.27Z"/><path class="cls-3" d="M84.45,127.23a9.08,9.08,0,0,1,2,2.64,33.42,33.42,0,0,1,4.35,15.19l1.35,8.44a1,1,0,0,0,.17.47.84.84,0,0,0,.62.24,15.16,15.16,0,0,0,8-2l20.85-5.76,7.27,2.82a1.27,1.27,0,0,1-.09,2.41l-2.79.83a.36.36,0,0,0-.2.06l-.28.09-.3.05a4.16,4.16,0,0,1-.61,0l-1.29.05c-.31,0-.63,0-.94.06-8.53-.82-18.49,7.06-27.92,8.66a54.34,54.34,0,0,1-7.32.73,2.07,2.07,0,0,1-2.63-1.7"/><path class="cls-12" d="M81.34,179.81c.76,3.47,3.77,14,4.85,18.3,4.38,17.46,7.93,35.19,13.15,52.42l-15.2-.91C73.31,249,62.05,248.38,52,252.47a73.63,73.63,0,0,0-8.52,4.38c1.29-26.22,4.65-52.31,11.16-77.75Z"/><path class="cls-11" d="M60.82,125.57a3.33,3.33,0,0,0,1.43,2.19,14.68,14.68,0,0,1,1.26,1,4.1,4.1,0,0,1,.89,1.38A11.55,11.55,0,0,0,66,132.8a25.58,25.58,0,0,0,2.22,2.44c.34.35.87-.18.53-.53a15.93,15.93,0,0,1-3.6-4.83,4.9,4.9,0,0,0-1.61-2.13c-.74-.56-1.78-1.15-1.92-2.18-.06-.47-.81-.48-.75,0Z"/><path class="cls-11" d="M75.15,123.76a4.4,4.4,0,0,1-1.67,2.59A6.1,6.1,0,0,0,71.92,129a20.06,20.06,0,0,1-3.29,5.82c-.29.38.36.76.64.38a20.57,20.57,0,0,0,3.38-6,5,5,0,0,1,.78-1.65,12.14,12.14,0,0,1,1.17-1.21,4.25,4.25,0,0,0,1.3-2.55c0-.48-.71-.47-.75,0Z"/><ellipse class="cls-11" cx="68.45" cy="134.9" rx="1.61" ry="2.42"/><ellipse class="cls-13" cx="68.4" cy="134.9" rx="0.73" ry="1.45"/><path class="cls-1" d="M65.83,292.63c-.82,1.95-3.2,2.62-5.27,3-3.51.69-7.27,1.28-10.58-.06-.95-.39-1.95-1.12-1.94-2.14,1.76.64,4.43.6,7.72.63C60.35,294.12,63.31,293.12,65.83,292.63Z"/><path class="cls-1" d="M51.38,291.3A17.27,17.27,0,0,1,54,295.1a.37.37,0,0,0,.51.13.38.38,0,0,0,.13-.51,18,18,0,0,0-2.76-4c-.32-.37-.84.17-.53.53Z"/><path class="cls-1" d="M57.32,288.88a14.41,14.41,0,0,0,8.4.27c.46-.15.26-.87-.2-.72a13.73,13.73,0,0,1-8-.27.37.37,0,0,0-.2.72Z"/><path class="cls-1" d="M57.07,287a73.27,73.27,0,0,0,8.87-1.06c.47-.08.27-.8-.2-.72a72.2,72.2,0,0,1-8.67,1c-.48,0-.48.78,0,.75Z"/><path class="cls-1" d="M56.9,285.08c1.56-.08,3.11-.24,4.65-.47s3-.66,4.5-.88c.48-.06.27-.79-.2-.72-1.46.21-2.87.62-4.33.85a44.62,44.62,0,0,1-4.62.47c-.48,0-.48.77,0,.75Z"/><path class="cls-1" d="M56.71,283.51a49.83,49.83,0,0,0,9.45-1.77A.37.37,0,0,0,66,281a48.52,48.52,0,0,1-9.25,1.74c-.47,0-.48.79,0,.75Z"/><path class="cls-1" d="M56.65,281.37c3.22-.45,6.62.23,9.59-1.42.42-.23.05-.88-.38-.65-2.87,1.59-6.29.91-9.41,1.34-.48.07-.27.79.2.73Z"/><path class="cls-1" d="M56.34,279.74c3.27-.4,6.59-.08,9.84-.67.47-.08.27-.81-.2-.72-3.18.57-6.44.25-9.64.64-.47.06-.48.81,0,.75Z"/><path class="cls-14" d="M49.82,105.6q.32-8.09.62-16.18c.05-1.53.11-3.06.2-4.58.2-3.32.55-6.63,1-9.91A26.42,26.42,0,0,1,53.86,67a10.59,10.59,0,0,1,5.84-5.46A13,13,0,0,1,62.92,61c2.25-.17,4.65-.1,6.58,1.07L72.25,64a12.32,12.32,0,0,1,3.87-2,8,8,0,0,1,4.37-.25,6,6,0,0,1,3.74,2.9,11.52,11.52,0,0,1,1.06,4.9c.34,5.61.41,11.23.48,16.85l-.27,3.35a37.9,37.9,0,0,1-.53,9.4l-2.08-4.69A64.46,64.46,0,0,1,72.54,74.61,12.16,12.16,0,0,1,70,79.16a13,13,0,0,1-1.32,1c-1.18.84-2.37,1.67-3.6,2.43-.6.37-1.21.72-1.79,1.12a23.35,23.35,0,0,0-2.59,2.18,52.37,52.37,0,0,0-3.74,3.71,26.47,26.47,0,0,0-5.49,9.85Z"/><path class="cls-14" d="M50.2,105.6c.33-8.71.32-17.53,1.28-26.2.47-4.27.88-9,3.06-12.83a10.7,10.7,0,0,1,3.83-4,12.57,12.57,0,0,1,6.26-1.25,8.82,8.82,0,0,1,5.08,1.37c.79.53,1.57,1.1,2.35,1.65a.37.37,0,0,0,.38,0c3.46-2.5,9.44-3.9,11.66.93,1,2.06.84,4.59,1,6.81s.17,4.45.23,6.68a92.68,92.68,0,0,1,0,9.72c-.3,3.56.12,7.07-.63,10.62l.69-.09-1.57-3.54a28.78,28.78,0,0,0-2.83-4.39,64.57,64.57,0,0,1-8-16.58.38.38,0,0,0-.72,0,17,17,0,0,1-1.53,3.22A9.57,9.57,0,0,1,68,80.15c-1.74,1.23-3.62,2.25-5.33,3.51a35.67,35.67,0,0,0-8.19,8.44c-2.78,4.11-3.83,8.69-5.06,13.4a.38.38,0,0,0,.73.2c1.28-4.93,2.4-9.69,5.46-13.91a34.36,34.36,0,0,1,9.57-8.85,30.49,30.49,0,0,0,5-3.51,12.54,12.54,0,0,0,2.69-4.72h-.72A65.39,65.39,0,0,0,80,91.13a32.24,32.24,0,0,1,3,4.63l1.61,3.64a.38.38,0,0,0,.69-.09,31.37,31.37,0,0,0,.6-6.19c0-1.4-.1-2.79,0-4.18a90.46,90.46,0,0,0,.11-9.17c0-2.23-.11-4.46-.21-6.69A44.22,44.22,0,0,0,85.39,67a6.65,6.65,0,0,0-6.65-5.75,11.21,11.21,0,0,0-5,1.41,12.75,12.75,0,0,1-1.31.8c-.23.08.2.19-.12.15s-1-.67-1.22-.86a12.14,12.14,0,0,0-2.41-1.47,12.29,12.29,0,0,0-5.32-.65c-3.55.2-6.47,1.4-8.63,4.32-2.35,3.19-3,7.23-3.55,11.06-1.39,9.78-1.34,19.75-1.71,29.6C49.43,106.09,50.18,106.09,50.2,105.6Z"/><path class="cls-15" d="M124.64,148.05a.83.83,0,0,1-.07.79,1.42,1.42,0,0,1-1.17.44.79.79,0,0,1-.51-.17.27.27,0,0,1-.06-.21.91.91,0,0,1,.38-.86,1.69,1.69,0,0,1,1.47-.14"/><path class="cls-15" d="M121.81,149.67a7.34,7.34,0,0,1,3.1-.59,7.71,7.71,0,0,1,2.63,1.47l-3.11-.67Z"/><path class="cls-15" d="M118.11,148.23a.92.92,0,0,0,.1.79,1.24,1.24,0,0,0,1.07.38.7.7,0,0,0,.45-.2.39.39,0,0,0,0-.21,1,1,0,0,0-.38-.84,1.4,1.4,0,0,0-1.33-.06"/><path class="cls-15" d="M120.82,149.65a7.19,7.19,0,0,0-3.13-.38,7.78,7.78,0,0,0-2.53,1.65l3.06-.88Z"/><path class="cls-16" d="M113.48,127.78a3.48,3.48,0,0,1-2.45-1,5.74,5.74,0,0,1-1.26-1.72c-.86-2.16.14-3.85.11-5.83,0-2.33-1.45-4.34-1.61-6.67a27,27,0,0,0,5.22,2.32c3.43,1,7.07.55,10.61.12a12.38,12.38,0,0,0,2.71-.53c1.35-.47,2.52-1.39,3.88-1.8a5.6,5.6,0,0,1,2.19-.2,15.5,15.5,0,0,0-2.38,4.21,4.07,4.07,0,0,0-.27,1.08,5.8,5.8,0,0,0,.55,2.17,9.46,9.46,0,0,1,.34,5.11,4.05,4.05,0,0,1-.9,2,1.9,1.9,0,0,1-2,.58"/><path class="cls-16" d="M130.11,127.28a46.77,46.77,0,0,1-1.3,10,23.4,23.4,0,0,0-.51,2.35,18.59,18.59,0,0,0-.16,2.36c-.06,2.16-1,4.36-1.1,6.53a8,8,0,0,0-3.47-.49c-3.34,0-6,0-9,1.29.2-1.75-.5-3.38-.71-5.12-.41-3.51-2.08-6.77-2.53-10.27a15.09,15.09,0,0,1,.56-6.37"/><path class="cls-17" d="M129.56,127l1.09,2.23a20.19,20.19,0,0,1,1.86,4.7c.57,2.71,0,5.51-.65,8.19a13.82,13.82,0,0,1-1.84,4.67c-.15.22-.36.45-.62.42a.83.83,0,0,1-.43-.28,13.51,13.51,0,0,1-3.54-11.11,26.86,26.86,0,0,1,1.81-5.86,5.37,5.37,0,0,1,2.1-3"/><path class="cls-17" d="M111.58,127.47l-1,2.28a20.65,20.65,0,0,0-1.59,4.8c-.41,2.73.3,5.5,1.11,8.14a13.83,13.83,0,0,0,2.09,4.56c.17.21.39.42.65.38a.82.82,0,0,0,.42-.3,13.52,13.52,0,0,0,2.9-11.29,26.53,26.53,0,0,0-2.13-5.75,5.35,5.35,0,0,0-2.27-2.88"/><circle class="cls-18" cx="124.65" cy="122.78" r="4.19"/><circle cx="124.56" cy="122.98" r="1.38"/><circle class="cls-18" cx="116.17" cy="123.01" r="4.19"/><circle cx="116.07" cy="123.12" r="1.38"/><path class="cls-19" d="M118.63,126.71c0-1.8.72-2.71,1.71-2.74s1.81.84,1.86,2.64l-2,2.58Z"/><path class="cls-15" d="M11.54,150.05a.84.84,0,0,0,.07.8,1.46,1.46,0,0,0,1.17.44.74.74,0,0,0,.51-.18.25.25,0,0,0,.06-.2.9.9,0,0,0-.38-.86,1.66,1.66,0,0,0-1.47-.14"/><path class="cls-15" d="M14.37,151.67a7.13,7.13,0,0,0-3.09-.58,7.59,7.59,0,0,0-2.64,1.47l3.11-.68Z"/><path class="cls-15" d="M18.08,150.24A.93.93,0,0,1,18,151a1.21,1.21,0,0,1-1.07.37.66.66,0,0,1-.45-.2.38.38,0,0,1,0-.21,1,1,0,0,1,.39-.84,1.38,1.38,0,0,1,1.32-.06"/><path class="cls-15" d="M15.36,151.65a7.18,7.18,0,0,1,3.13-.37A7.62,7.62,0,0,1,21,152.93L18,152Z"/><path class="cls-16" d="M22.7,129.78a3.47,3.47,0,0,0,2.45-1,5.7,5.7,0,0,0,1.26-1.72c.86-2.17-.14-3.85-.11-5.84,0-2.33,1.45-4.34,1.61-6.67a26.76,26.76,0,0,1-5.22,2.33c-3.43,1-7.07.55-10.61.12a13.82,13.82,0,0,1-2.71-.53C8,116,6.86,115.1,5.49,114.69a5.78,5.78,0,0,0-2.19-.21,15.65,15.65,0,0,1,2.38,4.21A3.72,3.72,0,0,1,6,119.77,5.66,5.66,0,0,1,5.4,122a9.62,9.62,0,0,0-.34,5.1,4.08,4.08,0,0,0,.9,2,1.91,1.91,0,0,0,2,.57"/><path class="cls-16" d="M6.07,129.29a46.77,46.77,0,0,0,1.3,10,23.83,23.83,0,0,1,.51,2.34A18.59,18.59,0,0,1,8,144c.06,2.17,1,4.36,1.1,6.53a8,8,0,0,1,3.47-.48c3.34,0,6,0,9,1.28-.2-1.74.5-3.38.71-5.12.41-3.51,2.08-6.76,2.53-10.27a15.25,15.25,0,0,0-.55-6.37"/><path class="cls-17" d="M6.63,129l-1.1,2.22a19.8,19.8,0,0,0-1.85,4.71c-.57,2.7,0,5.5.64,8.18a13.74,13.74,0,0,0,1.84,4.67c.15.22.36.45.62.42a.73.73,0,0,0,.43-.28,13.51,13.51,0,0,0,3.54-11.11,27,27,0,0,0-1.81-5.86,5.41,5.41,0,0,0-2.1-3"/><path class="cls-17" d="M24.6,129.47l1,2.28a20.73,20.73,0,0,1,1.59,4.81,18.46,18.46,0,0,1-1.11,8.13A13.63,13.63,0,0,1,24,149.25c-.16.21-.39.43-.65.38a.76.76,0,0,1-.41-.3A13.49,13.49,0,0,1,20,138a26.56,26.56,0,0,1,2.14-5.75,5.41,5.41,0,0,1,2.26-2.88"/><circle class="cls-18" cx="11.53" cy="124.78" r="4.19"/><circle cx="11.63" cy="124.99" r="1.38"/><circle class="cls-18" cx="20.01" cy="125.02" r="4.19"/><circle cx="20.11" cy="125.12" r="1.38"/><path class="cls-19" d="M17.55,128.71c.05-1.79-.72-2.71-1.71-2.74s-1.81.85-1.86,2.64l2,2.58Z"/><rect class="cls-20" width="138" height="300"/></g></g></svg>