<svg xmlns="http://www.w3.org/2000/svg" viewBox="0 0 76.66 157.8"><defs><style>.cls-1{fill:#fff;}.cls-2{fill:none;stroke:#fff;stroke-miterlimit:10;stroke-width:3px;}</style></defs><title>auriga</title><g id="Layer_2" data-name="Layer 2"><g id="auriga"><circle class="cls-1" cx="40.08" cy="26.25" r="5.44"/><circle class="cls-1" cx="51.08" cy="71.25" r="9.79"/><circle class="cls-1" cx="37.15" cy="104.66" r="4.15"/><circle class="cls-1" cx="4.15" cy="53.66" r="4.15"/><circle class="cls-1" cx="19.15" cy="153.66" r="4.15"/><line class="cls-2" x1="40.29" y1="25.81" x2="51.29" y2="72.81"/><line class="cls-2" x1="3.79" y1="53.31" x2="39.79" y2="26.31"/><line class="cls-2" x1="36.79" y1="105.31" x2="50.79" y2="71.31"/><line class="cls-2" x1="19.79" y1="153.31" x2="36.79" y2="104.31"/><line class="cls-2" x1="3.79" y1="54.31" x2="18.79" y2="153.31"/><path class="cls-1" d="M12.11,15.09l2.2-.33h.44l2.42.33V16H12.11Zm6.56-14H20L25.05,16H23L18.58,2.79h.51L14.6,16h-1Zm-2.58,9H22l.35,1H15.74Zm4.34,4.95,2.77-.33h.44l2.73.33V16H20.43Z"/><path class="cls-1" d="M30,12.08c0,2,.57,2.64,1.78,2.64a4.88,4.88,0,0,0,3.37-1.65h.46v1.12H34.47l.77-.33a5.22,5.22,0,0,1-4.19,2.4c-1.76,0-2.86-1.06-2.83-4l.06-5.81.46.42-2-.44V5.7l3.17-.29.22.22L30,8.71Zm5.23,4.07-.3-2.57L35,6.49l.46.42-2-.44V5.7l3.12-.29.22.22-.06,3.08v6.58l-.53-.53,2,.44V16Z"/><path class="cls-1" d="M41.55,11.35v-1c0-1.21,0-1.89-.07-2.77l-1.76-.2V6.58l3-1.32.33.22.27,2.75v3.12c0,1.37,0,3.63.06,4.62H41.48C41.53,15,41.55,12.72,41.55,11.35ZM39.9,15.2l2.42-.44h.44l2.42.44V16H39.9Zm2.53-6.82h1.25l-.55.16c.71-2,2-3.28,3.35-3.28A1.91,1.91,0,0,1,48,6c0,1-.4,1.6-1.28,1.6a2,2,0,0,1-1.32-.53l-.59-.5,1.08-.22a5.24,5.24,0,0,0-2.67,3.5h-.83Z"/><path class="cls-1" d="M50.63,16c0-1,.07-3.25.07-4.62v-1c0-1.21,0-1.89-.07-2.77l-1.8-.2V6.58l3.32-1.32.33.22-.06,3v2.9c0,1.37,0,3.63.06,4.62ZM54,15.2V16H49V15.2l2.42-.44h.44ZM50.08,1.39a1.46,1.46,0,0,1,2.91,0,1.46,1.46,0,0,1-2.91,0Z"/><path class="cls-1" d="M63.88,18c0-1-.62-1.74-2.22-1.74h-2.6a7.73,7.73,0,0,1-1.1-.07v-.06c-1.12-.24-1.69-.82-1.69-1.74s.5-1.61,2-2.9l.48.33a2.57,2.57,0,0,0-.94,1.84c0,.6.24,1,1.27,1H62c2.35,0,3.47,1,3.47,2.82s-1.8,3.78-5.37,3.78c-3.16,0-4.55-1.1-4.55-2.68,0-1.08.68-1.89,2.9-2.84l.11.13a3.17,3.17,0,0,0-1.23,2.38c0,1.45,1.12,2,2.84,2C62.58,20.26,63.88,19.25,63.88,18ZM60,5.26c2.24,0,3.91,1.19,3.91,3.61S62.21,12.48,60,12.48s-3.93-1.19-3.93-3.61S57.76,5.26,60,5.26ZM57.76,8.89c0,1.61.79,2.71,2.16,2.71s2.29-1.17,2.29-2.8S61.41,6.14,60,6.14,57.76,7.28,57.76,8.89Zm7.48-3.63.33.22V6.84H62.34V6.25Z"/><path class="cls-1" d="M70.26,10.21a22.86,22.86,0,0,1,3.41-.92v.79a19.5,19.5,0,0,0-3,.88c-2,.77-2.2,1.6-2.2,2.24,0,1.17.77,1.63,1.78,1.63.77,0,1.21-.29,2.6-1.28l.44-.33.31.47-.64.63c-1.32,1.32-2.07,1.94-3.41,1.94a2.68,2.68,0,0,1-2.95-2.75C66.65,12.28,67.31,11.29,70.26,10.21ZM72.79,14v-5c0-2.15-.62-2.68-2.07-2.68a5.07,5.07,0,0,0-2,.39L69.62,6l-.57,1.89c-.2.64-.53,1-1.12,1a.89.89,0,0,1-1-.89c.41-1.67,2-2.7,4.24-2.7s3.37,1,3.37,3.8v4.67c0,1,.31,1.34.81,1.34a1.09,1.09,0,0,0,.86-.48l.44.48a2,2,0,0,1-1.87,1.12A2,2,0,0,1,72.79,14Z"/></g></g></svg>