<svg xmlns="http://www.w3.org/2000/svg" viewBox="0 0 214.64 74.57"><defs><style>.cls-1{fill:#fff;}.cls-2{fill:none;stroke:#fff;stroke-miterlimit:10;stroke-width:2px;}</style></defs><title>bootes</title><g id="Layer_2" data-name="Layer 2"><g id="bootes"><circle class="cls-1" cx="209.97" cy="4.68" r="4.68"/><circle class="cls-1" cx="183.97" cy="21.68" r="8.86"/><circle class="cls-1" cx="107.18" cy="40.16" r="5.19"/><circle class="cls-1" cx="98.18" cy="23.16" r="3.45"/><circle class="cls-1" cx="100.18" cy="27.16" r="3.45"/><circle class="cls-1" cx="40.41" cy="28.16" r="4.41"/><circle class="cls-1" cx="4.41" cy="57.16" r="4.41"/><circle class="cls-1" cx="40.41" cy="70.16" r="4.41"/><line class="cls-2" x1="4.83" y1="57.35" x2="40.83" y2="28.35"/><line class="cls-2" x1="40.83" y1="70.35" x2="4.83" y2="57.35"/><line class="cls-2" x1="106.83" y1="40.35" x2="40.83" y2="70.35"/><line class="cls-2" x1="98.83" y1="23.35" x2="40.83" y2="28.35"/><line class="cls-2" x1="106.83" y1="40.35" x2="183.83" y2="22.35"/><line class="cls-2" x1="99.83" y1="27.35" x2="183.83" y2="22.35"/><line class="cls-2" x1="209.83" y1="4.35" x2="182.83" y2="22.35"/><path class="cls-1" d="M80.72,57.27v-.88h3.09V57.6h-.22Zm3.09,12.65v1.21H80.72v-.88l2.87-.33Zm-1-6.71c0-2.26,0-4.55-.07-6.82h2.11c-.06,2.22-.06,4.51-.06,6.82V64c0,2.6,0,4.89.06,7.15H82.75c.07-2.22.07-4.51.07-6.82Zm1-.2H86c2.71,0,3.88-.85,3.88-2.88s-1.17-2.73-3.44-2.73H83.81v-1h3.25c3,0,4.78,1.5,4.78,3.61,0,1.72-1.19,3.23-4.12,3.59v-.2c3.43.28,4.84,1.82,4.84,3.72s-1.65,4-5.81,4H83.81v-1h2.42c2.86,0,4.24-1.08,4.24-3S89.13,64,86.05,64H83.81Z"/><path class="cls-1" d="M94.56,66c0-3.65,2.49-5.54,5-5.54s5,1.89,5,5.54-2.53,5.46-5,5.46S94.56,69.62,94.56,66Zm8.06,0c0-2.95-1.13-4.55-3-4.55s-3,1.6-3,4.55,1.08,4.47,3,4.47S102.62,68.91,102.62,66Z"/><path class="cls-1" d="M106.62,66c0-3.65,2.48-5.54,5-5.54s5,1.89,5,5.54-2.53,5.46-5,5.46S106.62,69.62,106.62,66Zm8,0c0-2.95-1.12-4.55-3-4.55s-3,1.6-3,4.55,1.08,4.47,3,4.47S114.67,68.91,114.67,66Z"/><path class="cls-1" d="M122.48,70.32a2.5,2.5,0,0,0,1.5-.62l.5.6a3.15,3.15,0,0,1-2.55,1.12,2.22,2.22,0,0,1-2.46-2.49c0-.52,0-1,0-1.85V61.85h-1.85v-1l2.73-.35-.88.73.66-3.57h1.27l-.17,3.85v7.13C121.25,69.84,121.73,70.32,122.48,70.32Zm1.81-9.62v1.15h-3.92V60.7Z"/><path class="cls-1" d="M134.65,64.62a4.26,4.26,0,0,1-.16,1.23h-8.12v-.92h5.24c1.06,0,1.3-.51,1.3-1.12a2.44,2.44,0,0,0-2.44-2.4c-1.41,0-3,1.19-3,4.33,0,2.8,1.41,4.29,3.61,4.29a3.79,3.79,0,0,0,3.08-1.56l.51.4a4.48,4.48,0,0,1-4.21,2.55c-2.95,0-4.86-2-4.86-5.39s2.29-5.61,5-5.61A3.93,3.93,0,0,1,134.65,64.62Z"/><path class="cls-1" d="M136.89,70.58l-.09-2.39H138l.59,2.59-1.08-.5v-.75a4.21,4.21,0,0,0,2.71.9c1.69,0,2.49-.68,2.49-1.69s-.66-1.44-2.05-1.94l-1-.37c-1.61-.6-2.66-1.46-2.66-3s1.34-3.06,3.78-3.06a5.63,5.63,0,0,1,3.06.9l-.09,2.22h-1.1l-.44-2.22.79.35v.57a3.58,3.58,0,0,0-2.24-.83c-1.37,0-2.07.59-2.07,1.52s.55,1.36,2,1.91l.66.24c2.2.82,3,1.85,3,3.22,0,1.62-1.43,3.12-4.24,3.12A6.71,6.71,0,0,1,136.89,70.58Z"/></g></g></svg>