<svg xmlns="http://www.w3.org/2000/svg" viewBox="0 0 112.64 107.77"><defs><style>.cls-1{fill:#fff;}.cls-2{fill:none;stroke:#fff;stroke-miterlimit:10;stroke-width:2px;}</style></defs><title>cancer</title><g id="Layer_2" data-name="Layer 2"><g id="cancer"><circle class="cls-1" cx="72.29" cy="104.32" r="3.45"/><circle class="cls-1" cx="37.45" cy="35.45" r="3.45"/><circle class="cls-1" cx="48.45" cy="3.45" r="3.45"/><circle class="cls-1" cx="3.45" cy="37.45" r="3.45"/><line class="cls-2" x1="37.79" y1="35.31" x2="47.79" y2="3.31"/><line class="cls-2" x1="3.79" y1="38.31" x2="37.79" y2="35.31"/><line class="cls-2" x1="72.79" y1="104.31" x2="37.79" y2="35.31"/><path class="cls-1" d="M55.88,40v1.21l-1.36.31.55-3.25h1.34l-.09,3.19a9.31,9.31,0,0,1-4.44,1c-4.45,0-7.44-3.21-7.44-7.7a7.36,7.36,0,0,1,7.42-7.7,8.47,8.47,0,0,1,4.24,1.06l.09,3.19H54.85l-.55-3.26,1.36.31v1.34a5.1,5.1,0,0,0-3.54-1.54c-3,0-5.37,2.31-5.37,6.6s2.16,6.6,5.22,6.6A6,6,0,0,0,55.88,40Z"/><path class="cls-1" d="M61.91,36.39a24.11,24.11,0,0,1,3.41-.93v.8a18.41,18.41,0,0,0-2.95.88c-2,.77-2.2,1.6-2.2,2.24,0,1.17.77,1.63,1.78,1.63.77,0,1.21-.29,2.6-1.28L65,39.4l.31.46-.64.64c-1.32,1.32-2.07,1.94-3.41,1.94a2.69,2.69,0,0,1-3-2.75C58.3,38.46,59,37.47,61.91,36.39Zm2.53,3.74v-5c0-2.15-.62-2.68-2.07-2.68a5.07,5.07,0,0,0-2,.39l.88-.68L60.7,34c-.2.64-.53,1-1.12,1a.89.89,0,0,1-1-.88c.41-1.67,2-2.7,4.24-2.7s3.37,1,3.37,3.8v4.67c0,1,.31,1.34.81,1.34a1.09,1.09,0,0,0,.86-.48l.44.48a2,2,0,0,1-1.87,1.12A2,2,0,0,1,64.44,40.13Z"/><path class="cls-1" d="M70.88,42.15c.05-1,.07-3.25.07-4.62v-1c0-1.21,0-1.89-.07-2.77l-1.76-.2v-.77l3-1.32.33.22.26,2.55v3.32c0,1.37,0,3.63.07,4.62Zm3.44-.77v.77H69.26v-.77l2.42-.44h.44Zm5.08-5.87v2c0,1.41,0,3.63.07,4.62h-1.9c.05-1,.07-3.21.07-4.62V35.68c0-2-.53-2.7-1.85-2.7a4.83,4.83,0,0,0-3.26,1.52h-.46v-1H73.2l-1,.39a6,6,0,0,1,4.36-2.46C78.5,31.44,79.4,32.6,79.4,35.51Zm-.59,5.43,2.2.44v.77H76v-.77l2.42-.44Z"/><path class="cls-1" d="M84.44,36.76c0,2.77,1.47,4.29,3.54,4.29a3.54,3.54,0,0,0,3.08-1.71l.53.26a3.94,3.94,0,0,1-4.07,2.84c-3,0-4.91-2.11-4.91-5.48s2.42-5.52,5-5.52a3.75,3.75,0,0,1,3.87,2.84.91.91,0,0,1-1,.81,1.13,1.13,0,0,1-1.16-1l-.55-1.94,1,.82a4.54,4.54,0,0,0-2.11-.55C85.8,32.43,84.44,34,84.44,36.76Z"/><path class="cls-1" d="M102.46,35.64a4.26,4.26,0,0,1-.16,1.23H94.18V36h5.24c1.06,0,1.3-.51,1.3-1.12a2.44,2.44,0,0,0-2.44-2.4c-1.41,0-3,1.19-3,4.33,0,2.8,1.41,4.29,3.61,4.29a3.81,3.81,0,0,0,3.08-1.56l.5.4a4.47,4.47,0,0,1-4.2,2.55c-3,0-4.86-2-4.86-5.39s2.29-5.61,5-5.61A3.93,3.93,0,0,1,102.46,35.64Z"/><path class="cls-1" d="M106.15,37.53v-1c0-1.21,0-1.89-.07-2.77l-1.76-.2v-.77l3-1.32.33.22.26,2.75v3.12c0,1.37,0,3.63.07,4.62h-1.9C106.13,41.16,106.15,38.9,106.15,37.53Zm-1.65,3.85,2.42-.44h.44l2.42.44v.77H104.5ZM107,34.56h1.25l-.55.16c.71-2,2-3.28,3.35-3.28a1.88,1.88,0,0,1,1.56.75c0,1-.4,1.6-1.27,1.6a2,2,0,0,1-1.33-.53l-.59-.5,1.08-.22a5.2,5.2,0,0,0-2.66,3.5H107Z"/></g></g></svg>