<svg xmlns="http://www.w3.org/2000/svg" viewBox="0 0 101.55 106.55"><defs><style>.cls-1{fill:#fff;}.cls-2{fill:none;stroke:#fff;stroke-miterlimit:10;stroke-width:2px;}</style></defs><title>canisMajor</title><g id="Layer_2" data-name="Layer 2"><g id="canis_major" data-name="canis major"><circle class="cls-1" cx="78.1" cy="3.45" r="3.45"/><circle class="cls-1" cx="98.1" cy="6.45" r="3.45"/><circle class="cls-1" cx="74.1" cy="19.45" r="3.45"/><circle class="cls-1" cx="40.1" cy="29.45" r="4.1"/><circle class="cls-1" cx="19.1" cy="42.45" r="4.1"/><circle class="cls-1" cx="4.1" cy="102.45" r="4.1"/><circle class="cls-1" cx="25.1" cy="28.45" r="5.1"/><circle class="cls-1" cx="12.1" cy="48.45" r="5.1"/><circle class="cls-1" cx="7.1" cy="16.45" r="5.1"/><circle class="cls-1" cx="72.1" cy="70.45" r="5.1"/><circle class="cls-1" cx="77.1" cy="35.45" r="9.1"/><line class="cls-2" x1="74.36" y1="19.55" x2="78.36" y2="3.55"/><line class="cls-2" x1="98.36" y1="6.55" x2="74.36" y2="19.55"/><line class="cls-2" x1="77.36" y1="35.55" x2="74.36" y2="19.55"/><line class="cls-2" x1="71.36" y1="71.55" x2="77.36" y2="35.55"/><line class="cls-2" x1="40.36" y1="29.55" x2="77.36" y2="35.55"/><line class="cls-2" x1="25.36" y1="29.55" x2="40.36" y2="29.55"/><line class="cls-2" x1="6.36" y1="16.55" x2="25.36" y2="28.55"/><line class="cls-2" x1="19.36" y1="42.55" x2="25.36" y2="28.55"/><line class="cls-2" x1="12.36" y1="48.55" x2="19.36" y2="42.55"/><line class="cls-2" x1="4.36" y1="102.55" x2="12.36" y2="48.55"/><path class="cls-1" d="M25.55,67.21v1.21l-1.36.31.55-3.26h1.34L26,68.66a9.2,9.2,0,0,1-4.44,1.06c-4.44,0-7.44-3.21-7.44-7.7a7.36,7.36,0,0,1,7.42-7.7,8.42,8.42,0,0,1,4.24,1l.09,3.19H24.52L24,55.31l1.36.3V57a5.1,5.1,0,0,0-3.54-1.54c-3,0-5.37,2.31-5.37,6.6s2.16,6.6,5.22,6.6A6.1,6.1,0,0,0,25.55,67.21Z"/><path class="cls-1" d="M31.58,63.62A24.5,24.5,0,0,1,35,62.7v.79a20.72,20.72,0,0,0-3,.88c-2,.77-2.2,1.61-2.2,2.25,0,1.16.77,1.62,1.79,1.62.76,0,1.21-.28,2.59-1.27l.44-.33.31.46-.64.64c-1.32,1.32-2.07,1.93-3.41,1.93a2.68,2.68,0,0,1-3-2.75C28,65.69,28.63,64.7,31.58,63.62Zm2.53,3.74v-5c0-2.16-.61-2.69-2.07-2.69a5.18,5.18,0,0,0-2,.4l.88-.68-.57,1.89c-.2.64-.53,1-1.12,1a.89.89,0,0,1-1-.88c.42-1.67,2-2.71,4.25-2.71s3.36,1,3.36,3.81v4.66c0,1,.31,1.35.82,1.35a1.07,1.07,0,0,0,.85-.49l.44.49a2.05,2.05,0,0,1-1.87,1.12A2,2,0,0,1,34.11,67.36Z"/><path class="cls-1" d="M40.56,69.39c0-1,.06-3.26.06-4.62v-1c0-1.21,0-1.89-.06-2.77l-1.76-.2V60l3-1.32.33.22.26,2.55v3.33c0,1.36,0,3.63.07,4.62ZM44,68.62v.77H38.93v-.77l2.42-.44h.44Zm5.08-5.88v2c0,1.41,0,3.63.07,4.62H47.25c0-1,.06-3.21.06-4.62V62.92c0-2.05-.53-2.71-1.85-2.71a4.8,4.8,0,0,0-3.25,1.52h-.46v-1h1.12l-.95.4a6,6,0,0,1,4.36-2.47C48.17,58.67,49.07,59.84,49.07,62.74Zm-.59,5.44,2.2.44v.77H45.62v-.77L48,68.18Z"/><path class="cls-1" d="M53.78,69.39c0-1,.07-3.26.07-4.62v-1c0-1.21,0-1.89-.07-2.77L52,60.76V60l3.33-1.32.33.22-.07,3v2.91c0,1.36,0,3.63.07,4.62Zm3.39-.77v.77H52.11v-.77l2.42-.44H55ZM53.23,54.8a1.45,1.45,0,1,1,1.45,1.39A1.39,1.39,0,0,1,53.23,54.8Z"/><path class="cls-1" d="M59,68.84l-.08-2.4h1.16l.6,2.6-1.08-.51v-.75a4.15,4.15,0,0,0,2.7.9C64,68.68,64.8,68,64.8,67s-.66-1.43-2-1.94l-1-.37c-1.6-.59-2.66-1.45-2.66-3s1.34-3.06,3.79-3.06a5.6,5.6,0,0,1,3.05.9l-.08,2.23h-1.1l-.44-2.23.79.36v.57a3.62,3.62,0,0,0-2.25-.84c-1.36,0-2.07.6-2.07,1.52s.55,1.37,2,1.92l.66.24c2.2.81,3,1.85,3,3.21,0,1.63-1.43,3.12-4.25,3.12A6.72,6.72,0,0,1,59,68.84Z"/><path class="cls-1" d="M13.94,74.65h2.9v1.21h-.26l-2.64-.33Zm0,13.86,2.31-.33h.44l2.15.33v.88h-4.9Zm2-13.86h.92L17,81.2v8.19H15.92Zm0,0h2l5.39,13.2h-.75l5.1-13.2h1.17L23.07,89.39H22ZM26,88.51l2.64-.33h.44l2.86.33v.88H26Zm1.92-5.94V74.65h2c-.07,2.22-.07,4.51-.07,6.82v1.1c0,2.26,0,4.55.07,6.82H27.82C27.89,87.17,27.89,84.88,27.89,82.57Zm.94-7.92h3.08v.88l-2.86.33h-.22Z"/><path class="cls-1" d="M37.08,83.62a24.5,24.5,0,0,1,3.41-.92v.79a20.72,20.72,0,0,0-3,.88c-2,.77-2.2,1.61-2.2,2.25,0,1.16.77,1.62,1.79,1.62.77,0,1.21-.28,2.59-1.27l.44-.33.31.46-.64.64c-1.32,1.32-2.07,1.93-3.41,1.93a2.69,2.69,0,0,1-3-2.75C33.47,85.69,34.13,84.7,37.08,83.62Zm2.53,3.74v-5c0-2.16-.61-2.69-2.07-2.69a5.18,5.18,0,0,0-2,.4l.88-.68-.57,1.89c-.2.64-.53,1-1.12,1a.9.9,0,0,1-1-.88c.42-1.67,2.05-2.71,4.25-2.71s3.36,1,3.36,3.81v4.66c0,1,.31,1.35.82,1.35a1.11,1.11,0,0,0,.86-.49l.43.49a2.05,2.05,0,0,1-1.87,1.12A2,2,0,0,1,39.61,87.36Z"/><path class="cls-1" d="M46.12,83.73c0-1.21,0-1.89-.06-2.77l-1.76-.2V80l3.23-1.32.33.22-.06,3v5.26c0,3.65-.14,5.28-1.3,6.54a3.38,3.38,0,0,1-2.73,1.23c-1.32,0-1.92-.68-1.92-1.25a1.23,1.23,0,0,1,1.28-.86,2.77,2.77,0,0,1,1.63.63l1,.71-2.84.37v-.85a1.81,1.81,0,0,0,1.28.5,1.34,1.34,0,0,0,1.45-1c.35-.92.48-2.68.48-6.07Zm-.59-8.93A1.45,1.45,0,1,1,47,76.19,1.39,1.39,0,0,1,45.53,74.8Z"/><path class="cls-1" d="M50.7,84.22c0-3.66,2.48-5.55,5-5.55s5,1.89,5,5.55-2.53,5.45-5,5.45S50.7,87.87,50.7,84.22Zm8,0c0-3-1.12-4.56-3-4.56s-3,1.61-3,4.56,1.08,4.46,3,4.46S58.75,87.17,58.75,84.22Z"/><path class="cls-1" d="M64.34,84.77v-1c0-1.21,0-1.89-.07-2.77l-1.76-.2V80l3-1.32.33.22.26,2.75v3.13c0,1.36,0,3.63.07,4.62h-1.9C64.32,88.4,64.34,86.13,64.34,84.77Zm-1.65,3.85,2.42-.44h.44l2.42.44v.77H62.69Zm2.53-6.82h1.25l-.55.15c.71-2,2-3.28,3.35-3.28a1.88,1.88,0,0,1,1.56.75c0,1-.4,1.61-1.28,1.61a2,2,0,0,1-1.32-.53L67.64,80l1.08-.22a5.28,5.28,0,0,0-2.67,3.5h-.83Z"/></g></g></svg>