<svg xmlns="http://www.w3.org/2000/svg" viewBox="0 0 140.18 125"><defs><style>.cls-1{fill:#fff;}.cls-2{fill:none;stroke:#fff;stroke-miterlimit:10;stroke-width:2px;}</style></defs><title>capricornus</title><g id="Layer_2" data-name="Layer 2"><g id="capricornus"><circle class="cls-1" cx="3" cy="3" r="3"/><circle class="cls-1" cx="15" cy="14" r="4"/><circle class="cls-1" cx="17" cy="72" r="3"/><circle class="cls-1" cx="12" cy="93" r="3"/><circle class="cls-1" cx="9" cy="111" r="3"/><circle class="cls-1" cx="47" cy="105" r="3"/><circle class="cls-1" cx="65" cy="87" r="3"/><circle class="cls-1" cx="78" cy="71" r="3"/><circle class="cls-1" cx="69" cy="62" r="3"/><circle class="cls-1" cx="6" cy="121" r="4"/><line class="cls-2" x1="69" y1="62" x2="78" y2="71"/><line class="cls-2" x1="65" y1="87" x2="78" y2="71"/><line class="cls-2" x1="47" y1="105" x2="65" y2="87"/><line class="cls-2" x1="6" y1="121" x2="47" y2="105"/><line class="cls-2" x1="9" y1="111" x2="6" y2="121"/><line class="cls-2" x1="12" y1="93" x2="9" y2="111"/><line class="cls-2" x1="17" y1="72" x2="12" y2="93"/><line class="cls-2" x1="15" y1="14" x2="17" y2="72"/><line class="cls-2" x1="3" y1="3" x2="15" y2="14"/><path class="cls-1" d="M32.84,48.58v1.21l-1.36.31L32,46.84h1.34L33.28,50a9.2,9.2,0,0,1-4.44,1.06c-4.45,0-7.44-3.21-7.44-7.7a7.35,7.35,0,0,1,7.42-7.7,8.45,8.45,0,0,1,4.24,1.05l.09,3.19H31.81l-.55-3.25,1.36.3v1.35a5.1,5.1,0,0,0-3.54-1.54c-3,0-5.37,2.31-5.37,6.6S25.87,50,28.93,50A6.1,6.1,0,0,0,32.84,48.58Z"/><path class="cls-1" d="M38.87,45a24.13,24.13,0,0,1,3.41-.92v.79a20.72,20.72,0,0,0-3,.88c-2,.77-2.2,1.61-2.2,2.25,0,1.16.77,1.62,1.78,1.62.77,0,1.21-.28,2.6-1.27L42,48l.31.46-.64.64C40.3,50.43,39.55,51,38.21,51a2.68,2.68,0,0,1-3-2.75C35.26,47.06,35.92,46.07,38.87,45Zm2.53,3.74v-5c0-2.16-.62-2.69-2.07-2.69a5.11,5.11,0,0,0-2,.4l.88-.68-.57,1.89c-.2.64-.53,1-1.12,1a.89.89,0,0,1-1-.88c.41-1.67,2-2.71,4.24-2.71s3.37,1,3.37,3.81v4.66c0,1,.31,1.35.81,1.35a1.08,1.08,0,0,0,.86-.49l.44.49A2.06,2.06,0,0,1,43.4,51,2,2,0,0,1,41.4,48.73Z"/><path class="cls-1" d="M51.39,55.27V56H45.75v-.77l2.49-.44h.44ZM47.6,45.1c0-1.21,0-1.89-.06-2.77l-1.76-.2v-.77l3-1.32.33.22.17,1.87.09,0V49l-.06.13v2.2c0,1.54,0,3.13.06,4.67H47.54q.06-2.31.06-4.62Zm4.49-3.85c-.81,0-1.91.4-3.52,2l-.2-.4C49.65,40.88,51.08,40,52.58,40c2.33,0,4.18,2.07,4.18,5.46S54.82,51,52.25,51c-1.35,0-2.71-.61-3.88-2.9l.2-.35c1.14,1.45,2.2,2,3.28,2,1.67,0,3-1.29,3-4.13S53.72,41.25,52.09,41.25Z"/><path class="cls-1" d="M60.36,46.14v-1c0-1.21,0-1.89-.06-2.77l-1.76-.2v-.77l3-1.32.33.22L62.12,43v3.13c0,1.36,0,3.63.07,4.62H60.3C60.34,49.77,60.36,47.5,60.36,46.14ZM58.71,50l2.42-.44h.44L64,50v.77H58.71Zm2.53-6.82H62.5l-.55.15c.7-2,2-3.28,3.34-3.28a1.88,1.88,0,0,1,1.56.75c0,1-.39,1.61-1.27,1.61a2,2,0,0,1-1.32-.53l-.6-.51,1.08-.22a5.27,5.27,0,0,0-2.66,3.5h-.84Z"/><path class="cls-1" d="M69.45,50.76c0-1,.06-3.26.06-4.62v-1c0-1.21,0-1.89-.06-2.77l-1.81-.2v-.77L71,40l.33.22-.07,3v2.91c0,1.36,0,3.63.07,4.62ZM72.84,50v.77H67.78V50l2.42-.44h.44ZM68.9,36.17a1.45,1.45,0,0,1,2.9,0,1.45,1.45,0,0,1-2.9,0Z"/><path class="cls-1" d="M76.31,45.37c0,2.77,1.48,4.29,3.54,4.29a3.57,3.57,0,0,0,3.09-1.72l.52.27A3.94,3.94,0,0,1,79.39,51c-3,0-4.9-2.11-4.9-5.47s2.42-5.53,5-5.53a3.77,3.77,0,0,1,3.88,2.84.91.91,0,0,1-1,.81,1.14,1.14,0,0,1-1.17-1l-.55-1.94,1,.81A4.61,4.61,0,0,0,79.59,41C77.68,41,76.31,42.55,76.31,45.37Z"/><path class="cls-1" d="M85.24,45.59c0-3.66,2.49-5.55,5-5.55s5,1.89,5,5.55S92.75,51,90.26,51,85.24,49.24,85.24,45.59Zm8.06,0c0-3-1.12-4.56-3-4.56s-3,1.61-3,4.56,1.08,4.46,3,4.46S93.3,48.54,93.3,45.59Z"/><path class="cls-1" d="M98.88,46.14v-1c0-1.21,0-1.89-.06-2.77l-1.76-.2v-.77l3-1.32.33.22.26,2.75v3.13c0,1.36,0,3.63.07,4.62H98.82C98.86,49.77,98.88,47.5,98.88,46.14ZM97.23,50l2.42-.44h.44l2.42.44v.77H97.23Zm2.53-6.82H101l-.55.15c.7-2,2-3.28,3.34-3.28a1.91,1.91,0,0,1,1.57.75c0,1-.4,1.61-1.28,1.61a2,2,0,0,1-1.32-.53l-.6-.51,1.08-.22a5.3,5.3,0,0,0-2.66,3.5h-.84Z"/><path class="cls-1" d="M108.06,50.76c0-1,.06-3.26.06-4.62v-1c0-1.21,0-1.89-.06-2.77l-1.76-.2v-.77l3-1.32.33.22.26,2.55v3.33c0,1.36,0,3.63.07,4.62Zm3.43-.77v.77h-5.06V50l2.42-.44h.44Zm5.08-5.88v2c0,1.4,0,3.63.07,4.62h-1.89c0-1,.06-3.22.06-4.62V44.29c0-2-.53-2.71-1.85-2.71a4.8,4.8,0,0,0-3.25,1.52h-.46v-1h1.12l-1,.4A6,6,0,0,1,113.78,40C115.67,40,116.57,41.21,116.57,44.11ZM116,49.55l2.2.44v.77h-5.06V50l2.42-.44Z"/><path class="cls-1" d="M122.56,46.86c0,2,.57,2.64,1.78,2.64a4.88,4.88,0,0,0,3.37-1.65h.46V49H127l.77-.33A5.21,5.21,0,0,1,123.63,51c-1.76,0-2.86-1-2.83-4l.06-5.81.46.42-2-.44v-.77l3.17-.28.22.22-.11,3.08Zm5.23,4.07-.31-2.57.07-7.09.46.42-2-.44v-.77l3.12-.28.22.22-.06,3.08v6.58l-.53-.53,2,.44v.77Z"/><path class="cls-1" d="M132.68,50.21l-.09-2.4h1.16l.6,2.6-1.08-.51v-.75a4.16,4.16,0,0,0,2.71.9c1.69,0,2.48-.68,2.48-1.69s-.66-1.43-2-1.94l-1-.37c-1.6-.59-2.66-1.45-2.66-2.95S134.08,40,136.53,40a5.6,5.6,0,0,1,3.05.9l-.08,2.23h-1.1L138,40.94l.79.36v.57A3.62,3.62,0,0,0,136.5,41c-1.36,0-2.06.6-2.06,1.52s.55,1.37,2,1.91l.66.25c2.2.81,3,1.85,3,3.21,0,1.63-1.43,3.12-4.25,3.12A6.66,6.66,0,0,1,132.68,50.21Z"/></g></g></svg>