<svg xmlns="http://www.w3.org/2000/svg" viewBox="0 0 102.98 88.56"><defs><style>.cls-1{fill:#fff;}.cls-2{fill:none;stroke:#fff;stroke-miterlimit:10;stroke-width:2px;}</style></defs><title>cassiopeia</title><g id="Layer_2" data-name="Layer 2"><g id="cassiopeia"><circle class="cls-1" cx="22.02" cy="31.08" r="4.08"/><circle class="cls-1" cx="9.02" cy="4.08" r="4.08"/><circle class="cls-1" cx="39.02" cy="28.08" r="5.4"/><circle class="cls-1" cx="70.02" cy="36.08" r="5.4"/><circle class="cls-1" cx="52.02" cy="56.08" r="5.4"/><circle class="cls-1" cx="45.47" cy="45.82" r="3.45"/><line class="cls-2" x1="9.1" y1="4.48" x2="22.1" y2="31.48"/><line class="cls-2" x1="39.1" y1="28.48" x2="23.1" y2="31.48"/><line class="cls-2" x1="45.1" y1="45.48" x2="39.1" y2="28.48"/><line class="cls-2" x1="52.1" y1="56.48" x2="45.1" y2="45.48"/><line class="cls-2" x1="70.1" y1="35.48" x2="52.1" y2="56.48"/><path class="cls-1" d="M11.44,81.1v1.21l-1.36.31.55-3.26H12l-.09,3.19a9.2,9.2,0,0,1-4.44,1.06C3,83.61,0,80.4,0,75.91a7.35,7.35,0,0,1,7.42-7.7,8.55,8.55,0,0,1,4.24,1.05l.09,3.2H10.41L9.86,69.2l1.36.31v1.34a5.1,5.1,0,0,0-3.54-1.54c-3,0-5.37,2.31-5.37,6.6s2.16,6.6,5.21,6.6A6.05,6.05,0,0,0,11.44,81.1Z"/><path class="cls-1" d="M17.47,77.52a24.11,24.11,0,0,1,3.41-.93v.79a20.72,20.72,0,0,0-2.95.88c-2,.77-2.2,1.61-2.2,2.25,0,1.16.77,1.63,1.78,1.63.77,0,1.21-.29,2.6-1.28l.44-.33.31.46-.64.64c-1.32,1.32-2.07,1.94-3.41,1.94a2.69,2.69,0,0,1-2.95-2.75C13.86,79.58,14.52,78.59,17.47,77.52ZM20,81.26v-5c0-2.16-.62-2.69-2.07-2.69a5.11,5.11,0,0,0-2,.4l.88-.68-.57,1.89c-.2.64-.53,1-1.12,1a.89.89,0,0,1-1-.88c.41-1.67,2-2.71,4.24-2.71s3.37,1,3.37,3.81V81c0,1,.31,1.34.81,1.34a1.08,1.08,0,0,0,.86-.49l.44.49A2.06,2.06,0,0,1,22,83.5,2,2,0,0,1,20,81.26Z"/><path class="cls-1" d="M25.17,82.73l-.09-2.4h1.17l.59,2.6-1.08-.51v-.75a4.17,4.17,0,0,0,2.71.91c1.69,0,2.48-.69,2.48-1.7s-.66-1.43-2-1.93l-1-.38c-1.61-.59-2.67-1.45-2.67-2.95s1.35-3.06,3.79-3.06a5.56,5.56,0,0,1,3.06.91L32,75.69h-1.1l-.44-2.22.79.35v.57A3.59,3.59,0,0,0,29,73.55c-1.37,0-2.07.6-2.07,1.52s.55,1.37,2,1.92l.66.24c2.2.81,3,1.85,3,3.21,0,1.63-1.43,3.13-4.25,3.13A6.7,6.7,0,0,1,25.17,82.73Z"/><path class="cls-1" d="M34.69,82.73l-.08-2.4h1.16l.6,2.6-1.08-.51v-.75a4.14,4.14,0,0,0,2.7.91c1.7,0,2.49-.69,2.49-1.7s-.66-1.43-2-1.93l-1-.38c-1.6-.59-2.66-1.45-2.66-2.95s1.34-3.06,3.78-3.06a5.53,5.53,0,0,1,3.06.91l-.09,2.22h-1.1L40,73.47l.8.35v.57a3.64,3.64,0,0,0-2.25-.84c-1.36,0-2.07.6-2.07,1.52s.55,1.37,2,1.92l.66.24c2.2.81,3,1.85,3,3.21,0,1.63-1.43,3.13-4.25,3.13A6.73,6.73,0,0,1,34.69,82.73Z"/><path class="cls-1" d="M45.52,83.28c0-1,.06-3.26.06-4.62v-1c0-1.21,0-1.9-.06-2.78l-1.81-.19v-.78L47,72.56l.33.23-.07,3v2.9c0,1.36,0,3.63.07,4.62Zm3.39-.77v.77H43.85v-.77l2.42-.44h.44ZM45,68.69a1.45,1.45,0,0,1,2.9,0,1.45,1.45,0,0,1-2.9,0Z"/><path class="cls-1" d="M50.62,78.11c0-3.65,2.49-5.55,5-5.55s5,1.9,5,5.55-2.53,5.46-5,5.46S50.62,81.76,50.62,78.11Zm8.05,0c0-3-1.12-4.56-3-4.56s-3,1.61-3,4.56,1.08,4.47,3,4.47S58.67,81.06,58.67,78.11Z"/><path class="cls-1" d="M67.85,87.79v.77H62.22v-.77l2.48-.44h.44ZM64.06,77.63c0-1.21,0-1.9-.06-2.78l-1.76-.19v-.78l3-1.32.33.23.18,1.87.08,0v6.86l-.06.14v2.2c0,1.54,0,3.12.06,4.66H64q.06-2.31.06-4.62Zm4.49-3.86c-.81,0-1.91.4-3.52,2l-.2-.39c1.28-1.94,2.71-2.78,4.21-2.78,2.33,0,4.18,2.07,4.18,5.46s-1.94,5.55-4.51,5.55c-1.35,0-2.71-.62-3.88-2.91l.2-.35c1.15,1.45,2.2,2,3.28,2,1.67,0,3-1.3,3-4.14S70.18,73.77,68.55,73.77Z"/><path class="cls-1" d="M84.33,76.77A4.37,4.37,0,0,1,84.17,78H76.05v-.92h5.24c1.06,0,1.3-.51,1.3-1.13a2.45,2.45,0,0,0-2.44-2.4c-1.41,0-3,1.19-3,4.34,0,2.79,1.41,4.29,3.61,4.29a3.81,3.81,0,0,0,3.08-1.56l.5.39a4.46,4.46,0,0,1-4.2,2.56c-2.95,0-4.86-2-4.86-5.39s2.29-5.62,5-5.62A3.93,3.93,0,0,1,84.33,76.77Z"/><path class="cls-1" d="M87.87,83.28c0-1,.06-3.26.06-4.62v-1c0-1.21,0-1.9-.06-2.78l-1.81-.19v-.78l3.33-1.32.33.23-.07,3v2.9c0,1.36,0,3.63.07,4.62Zm3.39-.77v.77H86.19v-.77l2.43-.44h.44ZM87.32,68.69a1.45,1.45,0,0,1,2.9,0,1.45,1.45,0,0,1-2.9,0Z"/><path class="cls-1" d="M96.58,77.52a24.11,24.11,0,0,1,3.41-.93v.79a20.72,20.72,0,0,0-2.95.88c-2,.77-2.2,1.61-2.2,2.25,0,1.16.77,1.63,1.78,1.63.77,0,1.21-.29,2.6-1.28l.44-.33L100,81l-.64.64C98,83,97.26,83.57,95.92,83.57a2.69,2.69,0,0,1-3-2.75C93,79.58,93.63,78.59,96.58,77.52Zm2.53,3.74v-5c0-2.16-.62-2.69-2.07-2.69a5.18,5.18,0,0,0-2,.4l.88-.68-.57,1.89c-.2.64-.53,1-1.12,1a.89.89,0,0,1-1-.88c.42-1.67,2-2.71,4.24-2.71s3.37,1,3.37,3.81V81c0,1,.31,1.34.81,1.34a1.08,1.08,0,0,0,.86-.49l.44.49a2.06,2.06,0,0,1-1.87,1.12A2,2,0,0,1,99.11,81.26Z"/></g></g></svg>