<svg xmlns="http://www.w3.org/2000/svg" viewBox="0 0 392.13 501.99"><defs><style>.cls-1{fill:#44040c;}.cls-2{fill:#35060c;}.cls-3{fill:#a67c52;}.cls-4{fill:#b3b3b3;}.cls-5{fill:#59070d;}.cls-6{fill:#666;}.cls-7{fill:none;stroke:#59070d;stroke-miterlimit:10;}</style></defs><title>centaur</title><g id="Layer_2" data-name="Layer 2"><g id="Layer_1-2" data-name="Layer 1"><path d="M334.19,285.19c2.3-8.82,10.92-14.56,19.59-17.39,5.77-1.88,12.26-2.79,17.8-.29,3.9,1.76,6.92,5,9.39,8.54a52.93,52.93,0,0,1,9.48,33.69c-1,15.73-.78,30.38-1.6,46.12-.5,9.73,1.78,19.35,2.92,29,2.55,21.67-9.07,44-17.79,64a90.93,90.93,0,0,0,1.85-17.68,92.44,92.44,0,0,0-4.95-30.46c-1.51,3.67-3.26,7.51-6.55,9.74-3.67,2.51-8.63,2.47-12.82,1s-7.8-4.23-11.34-6.94c5.05-.12,10.87-.64,13.77-4.77a15,15,0,0,0,2.12-6.51c2.55-17.2.18-34.71-2.18-51.94-.54-3.93-1.1-7.94-2.81-11.52-2.07-4.34-6.21-6.35-8.66-7.54"/><path class="cls-1" d="M254.23,56.23a52.72,52.72,0,0,0,7.11,8.86c1.62-4.35-1-9-3.44-12.94l4.62,2.22-4.23-6.45,7.95,3.48-5.72-8c-2.14-3-4.34-6.12-4.95-9.75-.44-2.56-.14-5.49-1.88-7.43a16,16,0,0,1-1.53,6.45c-2.3-8.32-8.8-14.71-15-20.69l-4.5-4.31c-3.55-3.4-7.44-7-12.3-7.69a5.45,5.45,0,0,0,2.12,5.44c-1.54,1.81-4.4.43-6.53-.61a17.25,17.25,0,0,0-9.3-1.67,38.45,38.45,0,0,1-5.53.59c-4.05-.18-7.79-3-11.8-2.48l1.56,6.22q-5.88-2.38-12-4.19a15.51,15.51,0,0,1,4.85,7.75,37,37,0,0,0-23-1.24,53.08,53.08,0,0,1,18.64,5.67q-5.58,1.95-11,4.44c-1.82.84-3.86,2.07-4,4.07a33.62,33.62,0,0,1,8.88-1,17.38,17.38,0,0,0-16,12.71,40.59,40.59,0,0,1,11.48-6.58l-1.76,12.18a5.43,5.43,0,0,1-.52,1.94,5.2,5.2,0,0,1-2.54,2,30,30,0,0,1-21.3,1.28,16.19,16.19,0,0,0,8.49,6.8A48.4,48.4,0,0,0,162,55.59l-15.83.06,3.13,2.69a10.84,10.84,0,0,1,6.63,1.2,49.94,49.94,0,0,0-11.77,5.33l15.76.51c-4.84,2.86-10.66,3.39-16.26,3.82q-6.63.49-13.28.91,9.18,1.83,18.2,4.31a16.41,16.41,0,0,0-8.23,2.25,56.57,56.57,0,0,0,19.86-1.56c.11,6.21-4.61,11.84-10.42,14.08a8.84,8.84,0,0,1-4.55.69,9.39,9.39,0,0,1-3.76-1.75A13.09,13.09,0,0,1,136.33,82l-1.52,6.44a2.13,2.13,0,0,0-.05,1.17,1.89,1.89,0,0,0,.87.85c2.7,1.6,5.91,2,9,2.3a114.82,114.82,0,0,0,35.5-2.5c3.65-.85,7.26-1.87,11-2.45,2.87-.44,5.79-.62,8.63-1.23a58.73,58.73,0,0,0,7.18-2.18l27.81-9.78Z"/><path class="cls-2" d="M77.54,309.82c1.09,3.65,5.2,7,3.45,10.41a8.17,8.17,0,0,1-3,2.7c-4.89,3.2-8.75,7.72-12.51,12.19-3.29,3.91-6.6,7.9-8.78,12.53s-3.12,10.05-1.49,14.9c1.47,4.38,4.83,7.81,8,11.15A367.66,367.66,0,0,1,112,437.18l3.1,4a65.29,65.29,0,0,0,7.7,7.81l4.45-1.2,5.06-5.88a18.9,18.9,0,0,0,1.93-2.52,21.49,21.49,0,0,0,1.25-2.66,93.57,93.57,0,0,1,9.11-16.63,4,4,0,0,0,.82-1.7c.15-1.3-1-2.37-2-3.15A55.09,55.09,0,0,0,130.14,408l-4-1.5c-2.45,1.29-5.57,0-7.43-2.09s-2.9-4.7-4.41-7a42.44,42.44,0,0,0-3.83-4.74q-8.19-9.3-15.53-19.29a47.79,47.79,0,0,1-4-6.18l-2.54-3c-2.28-2.86-2-7.08-3.92-10.17l4.69-3.64c1.52-1.18,3.15-2.41,5.06-2.65l2.24,4.56"/><path d="M126.09,406.45l4,1.5a55.09,55.09,0,0,1,13.21,7.28c1.05.78,2.18,1.85,2,3.15a4,4,0,0,1-.82,1.7,93.57,93.57,0,0,0-9.11,16.63,21.49,21.49,0,0,1-1.25,2.66,18.9,18.9,0,0,1-1.93,2.52l-5.06,5.88-4.45,1.2a65.29,65.29,0,0,1-7.7-7.81l-6.12-9.28Z"/><path class="cls-3" d="M113.15,226.26c.17-4.82,2.6-9.64,2.77-14.46.07-1.93,1.63-4,.72-5.69s-2.37-2.69-3.18-4.28a10.77,10.77,0,0,1-.78-5c.09-11.89.77-23.79,2-35.61.16,5.12-5.94,8.28-7.26,13.24A25.17,25.17,0,0,0,107,179c-.46,6.25-3.91,12-8.36,16.37s-9.88,7.68-15.25,10.9l1,4c-.59,1.43-2.78.58-4.26,1-3,.91-1.25,6-3.31,8.36-1.26,1.48-3.8,1.65-4.61,3.41-.55,1.19-.07,2.66-.59,3.86-.84,1.93-3.53,2-5.61,1.69L60,227.85c-3.59-.48-7.45-1.08-10-3.63-2-2-2.92-4.92-3.46-7.74a47.91,47.91,0,0,1-.29-16.42c.66-4.16,2.25-8.72,6.07-10.51,2.55-1.19,5.56-.87,8.26-1.68,5.77-1.74,8.66-8,11.95-13A63.67,63.67,0,0,1,87.87,159a7.42,7.42,0,0,0,1.62-1.49,6.85,6.85,0,0,0,1-2.36c2.36-8.91,4.25-18.36,10.08-25.5,1.42-1.75,3.06-3.32,4.37-5.17,6-8.53,4.3-21.9,12.76-28,5.59-4,13.25-3,20-1.75L150.14,97l5.11-1.72a39.3,39.3,0,0,0,21.1-11.22,11.69,11.69,0,0,0,2.25-3,41.26,41.26,0,0,0,1.25-4c.94-2.68,3-5.1,2.83-7.92a12.41,12.41,0,0,0-1.61-4.34,28.41,28.41,0,0,1-2.79-13.75,4.29,4.29,0,0,1,1-3c1.41-1.37,3.74-.48,5.46.47l4.83,2.68a7.39,7.39,0,0,1,2.75,2.18,7.1,7.1,0,0,1,.81,3.77,111.73,111.73,0,0,1-.44,12.27c-.15,1.71-.47,3.64-1.9,4.59a30.4,30.4,0,0,0,8.61,7.15l-1.2-7.3c-1-6.3-2-13.22,1.38-18.66,2.38-3.89,6.52-6.29,10.49-8.51a3.15,3.15,0,0,1,2.18-.59c1.33.32,1.62,2.19,1,3.42s-1.7,2.14-2.36,3.34c.84-.85,2.18-.87,3.37-.83l16.46.54a120.88,120.88,0,0,0-11.65,7.43c6.5-1.83,13.33-3.84,18-8.7.93,1,.07,2.72-1,3.54s-2.56,1.36-3.21,2.59a23,23,0,0,0,9.08-4.35,10.76,10.76,0,0,1-.77,7.76c.37-1.52,2-2.28,3.47-2.83l8.58-3.25q.83,6,1.66,11.92a5.72,5.72,0,0,1-.07,2.73c-.47,1.3-1.79,2.06-2.72,3.1-2.92,3.24-1.54,8.29-2.11,12.61-1.09,8.39-9.64,14-11.79,22.18-.27,1-.53,2.26-1.49,2.77a4.82,4.82,0,0,1-1.65.35,6.77,6.77,0,0,0-4.84,3.12,7.32,7.32,0,0,1-1.45,2.08,4.73,4.73,0,0,1-2.62.73c-3.9.26-7.91.33-11.61-.9s-7.12-4-8.17-7.75a42.68,42.68,0,0,1,4.89,13.13l4.33,2.51a125.74,125.74,0,0,1,16.7,5.45,13.18,13.18,0,0,1,4.49,2.61c2.34,2.36,2.66,6,2.84,9.31q.34,6.38.7,12.75a8.53,8.53,0,0,0,.46,2.75,7.68,7.68,0,0,0,1.51,2.21c3.09,3.47,6.84,6.56,8.65,10.85.73,1.72,1.18,3.69,2.6,4.91,1.71,1.47,4.26,1.38,6.23,2.47,3.44,1.89,4.15,6.64,7.1,9.23,4.34,3.79,12.5,2.16,15.2,7.24a10.05,10.05,0,0,1,.82,5.13,49.87,49.87,0,0,1-6.69,23.29,8.77,8.77,0,0,1-1.72,2.28,8.29,8.29,0,0,1-5.19,1.65,26.71,26.71,0,0,1-9.14-1.18c-2.79-.88-5.66-2.46-6.72-5.19-.38-1-.5-2-.92-3-1.91-4.37-8.62-4.46-11.14-8.51a26.29,26.29,0,0,1-1.48-3.49c-1.81-4-6-6.37-9.53-9a46.67,46.67,0,0,1-15.49-19.76l-17.91,20.89a19,19,0,0,0-2.72,3.79,17.82,17.82,0,0,0-1.32,4.43c-1.64,8.24-1.2,16.59-1.71,25a82.12,82.12,0,0,1-39.49,7.8C134.86,236.27,118.88,229.8,113.15,226.26Z"/><path class="cls-1" d="M95.63,353,100,366.26a81,81,0,0,0,5.77,14.52,25.46,25.46,0,0,0,7.27,8.58,33.66,33.66,0,0,0,4.61,2.6,215.53,215.53,0,0,0,38.84,14.72l3.93-3a66.34,66.34,0,0,0-3.23-36.65,3.33,3.33,0,0,0-.88-1.44,3.24,3.24,0,0,0-1.94-.52,83.29,83.29,0,0,0-17.91,1l-3.87,1.77c-.26,2.28-3.57,3-5.45,1.7s-2.63-3.69-3.25-5.89l-2.54-9-4.12-14.62a3.08,3.08,0,0,1-.16-1.61,3,3,0,0,1,1.53-1.59,43.63,43.63,0,0,1,6.32-3.12l4.52,2,18.19,10.14a37.31,37.31,0,0,0,4.47,2.24,67.33,67.33,0,0,0,8.21,2.14c6.67,1.68,12.84,5,19.45,6.91A99.47,99.47,0,0,0,194.86,360c5.5.72,11,1.44,16.51,2.11,8.22,1,16.76,1.91,24.62-.68a1.79,1.79,0,0,1,2.75,1.06,48.77,48.77,0,0,0,12.31,15.46c5.31,4.41,11.55,7.69,16.45,12.55a4.26,4.26,0,0,1,1,1.33,4.05,4.05,0,0,1-.33,3.18l-3.8,7.52-6.94,14.21A152.25,152.25,0,0,0,251.06,431a6.4,6.4,0,0,1-3.64,4.31,45.49,45.49,0,0,0-10.65,8.51c-3.45,3.91-5.86,8.61-8.24,13.25L223,467.81c-.55,1.08-1.11,2.37-.57,3.46a4.68,4.68,0,0,0,1.36,1.41c2.34,1.88,4,4.48,6.45,6.28,4.28,3.21,10.05,3.37,15.4,3.39a33,33,0,0,0,8.43-.67,11.25,11.25,0,0,0,6.89-4.6l1.85-3.82L264,455.69a1.31,1.31,0,0,1,.28-.86,1.49,1.49,0,0,1,.86-.27c3.32-.37,5.84-3.32,7-6.46s1.25-6.54,1.84-9.83a67.72,67.72,0,0,1,2.82-9.74L281.16,416c2.67-7.73,5.37-15.53,9.65-22.5l4,1.25a292.86,292.86,0,0,0,29.57,13,5.39,5.39,0,0,1,2.54,1.54,5.28,5.28,0,0,1,.77,2.83q1.74,22,2,44a6.69,6.69,0,0,1-.24,2.28,7.07,7.07,0,0,1-1.25,2A73.26,73.26,0,0,0,313.9,491.1a2.39,2.39,0,0,0,.84,2.75c2.42,2.49,4.92,5,8.07,6.48a21,21,0,0,0,7.56,1.61c7.45.41,15.29-1.42,20.88-6.37l1.18-5.26c1.14-6.73,2.29-13.54,1.86-20.36-.4-6.34-2.17-12.6-1.89-18.95.14-3.23.81-6.41,1.22-9.62,1.19-9.23.25-18.58-.7-27.83l-.77-6.17a24.62,24.62,0,0,0-8-17.68c-2.74-2.47-6.32-4.84-6.54-8.52a11.08,11.08,0,0,1,.88-4.25l14-39.85a56.7,56.7,0,0,0,2.91-10.33c1.45-9.62-2-19.23-5.44-28.34-5.18-13.81-11.12-28.59-23.59-36.48a49.21,49.21,0,0,0-15.78-6.05,81.4,81.4,0,0,0-35.25-.26l-8.16-.54a65.82,65.82,0,0,1-29.62-4.28c-2.69-1.06-5.3-2.29-7.92-3.52l-4.17-2a31.74,31.74,0,0,1-3.7-1.94,39.69,39.69,0,0,1-3.29-2.51,86.27,86.27,0,0,0-16.15-10.28l-4-2.39A13.79,13.79,0,0,1,191.4,221c-5,4.24-10.18,8.61-16.49,10.38-3.91,1.1-8,1.13-12.1,1.11-3.3,0-6.61-.06-9.91-.14-6.54-.15-13.16-.44-19.45-2.27-6.14-1.79-11.76-5-17.32-8.17-.74-.42-1.58-1-1.62-1.85a59.23,59.23,0,0,0-3,12.15l-.88,4.05a133,133,0,0,0-6.51,52.86c-10.34-3.18-21.8,4-26.22,13.91-1.07,2.39-1.83,5.09-1.08,7.6Z"/><path d="M320.65,471.27c-5.29,11.34-4.54,9.07-6.75,19.83a2.39,2.39,0,0,0,.84,2.75c2.42,2.49,4.92,5,8.07,6.48a21,21,0,0,0,7.56,1.61c7.45.41,15.29-1.42,20.88-6.37l1.18-5.26c1.14-6.73,2.29-13.54,1.86-20.36"/><path d="M232.24,449.9c-2.39,4.64-1.33,2.56-3.71,7.2L223,467.81c-.55,1.08-1.11,2.37-.57,3.46a4.68,4.68,0,0,0,1.36,1.41c2.34,1.88,4,4.48,6.45,6.28,4.28,3.21,10.05,3.37,15.4,3.39a33,33,0,0,0,8.43-.67,11.25,11.25,0,0,0,6.89-4.6l1.85-3.82c.4-5.86.8-8.69,1.19-14.54"/><path d="M133.4,367.53l2.79-1.28a1.88,1.88,0,0,1,.46-.14,83.64,83.64,0,0,1,17.67-1,3.24,3.24,0,0,1,1.94.52,3.33,3.33,0,0,1,.88,1.44,66.33,66.33,0,0,1,3.36,36,1.77,1.77,0,0,1-.67,1.08l-2.71,2.05a1.77,1.77,0,0,1-1.51.29c-12.24-3.3-6.57-1-18.72-5.62-.71-.27-1.83-1.07-1.72-1.82l-2.77-30.16A1.76,1.76,0,0,1,133.4,367.53Z"/><path class="cls-2" d="M281.16,416c2.67-7.73,5.37-15.53,9.65-22.5l4,1.25-2.63-4.46c-6.66-8.57-14.62-16.46-22.07-24.71a62.17,62.17,0,0,0-11.26-10.37c-4.56-3.05-9.75-5-14.88-6.94l-17.4-6.54a152.28,152.28,0,0,0-17-5.63A130.52,130.52,0,0,0,196,333.64c-15.12-2-30.43-3.19-45.64-2.07-8.41.63-16.83,1.94-25.22,1.18l-6.58,4.15a43.63,43.63,0,0,1,6.32-3.12l4.52,2,18.19,10.14a37.31,37.31,0,0,0,4.47,2.24,67.33,67.33,0,0,0,8.21,2.14c6.67,1.68,12.84,5,19.45,6.91A99.47,99.47,0,0,0,194.86,360c5.5.72,11,1.44,16.51,2.11,8.22,1,16.76,1.91,24.62-.68a1.79,1.79,0,0,1,2.75,1.06,48.77,48.77,0,0,0,12.31,15.46c5.31,4.41,11.55,7.69,16.45,12.55a4.26,4.26,0,0,1,1,1.33,4.05,4.05,0,0,1-.33,3.18l-3.8,7.52"/><path class="cls-4" d="M340.53,5q-.3,18.93-.61,37.85a23.22,23.22,0,0,1-.58,5.77,24.1,24.1,0,0,1-2,4.58,241.49,241.49,0,0,0-10.17,22.64l-44.72,104-9.34-3.34c2.36-8.23,5.84-16.09,9-24,4.84-12.16,9-24.59,13.09-37l4.11-12.37c3.56-10.72,7.12-21.45,9.93-32.4a242.35,242.35,0,0,0,4.91-24.32,23.72,23.72,0,0,1,1.06-4.88,23.07,23.07,0,0,1,2.88-5L339.66,5.32Z"/><path class="cls-5" d="M271.06,181.41c-1.68,2.41-3.16,5-4.63,7.49l-3.2,5.51-3.91,6.73-4.94,8.5L253,212a31.65,31.65,0,0,0-2.25,4.37,16.25,16.25,0,0,0-1,4c-.24,2.11.05,4.51,1.68,5.87,1.83,1.54,4.72,1.13,6.64-.3s3.11-3.62,4.22-5.74c1.34-2.57,2.67-5.14,4-7.73q1.56-3,3.09-6.1l6.07-12a51.26,51.26,0,0,0,3.76-8.76,1.62,1.62,0,0,0,.09-.75,1.64,1.64,0,0,0-.37-.67,10.11,10.11,0,0,0-6.73-3.62"/><path class="cls-6" d="M279.81,187.89a7.94,7.94,0,0,0,2.73.53c4.63.19,9.92-1.9,14.84-5.89,0,0-13.63-1.72-16.23-4.43a26.87,26.87,0,0,1-2.16-3,22.43,22.43,0,0,1-3.59.44c-3.74-.17-14-9.28-14-9.28.24,6.33,2.15,11.68,5.36,15a7.89,7.89,0,0,0,2.19,1.7Z"/><path class="cls-3" d="M265.05,224.26c-1.55-.36-3.81,0-5.36-.41-.53-.12-1.86-3.11-2.19-3.52a2,2,0,0,1-.35-1.21c-.11-2.58,1-5.06,2.07-7.43L261,207.8l3.61-7.9c.91-2,2.73-3.34,3.88-5.21,1.47-2.36,5.57-5.68,7.85-5.15,1.12.26,1.4,5.51,1.81,6.54a3.29,3.29,0,0,1,0,1.89,24,24,0,0,1-2.89,7.34,20.92,20.92,0,0,0-2,3.55c-.34.94-.48,1.93-.84,2.86-.89,2.25-3,4-3.31,6.4"/><path class="cls-3" d="M258,189.09l1.51,8.75a10,10,0,0,0,1,3.28,3.39,3.39,0,0,0,2.71,1.86,5,5,0,0,0,2.58-.91,8,8,0,0,0,2.66-2.1,6,6,0,0,0,.77-1.71,12.73,12.73,0,0,0-3.63-12.9,2.9,2.9,0,0,0-1.18-.72,3.33,3.33,0,0,0-2.65,1l-3.25,2.48"/><path class="cls-4" d="M75.81,246c6-6.91,12.34-13.44,18.71-20,2.94-3,5.88-6,9-8.77,2.68-2.34,5.51-4.49,8.1-6.92a72,72,0,0,0,6.33-6.86A81.77,81.77,0,0,0,126.14,192c9.22-16.14,10.48-35.46,11.53-54L137.11,122a19.46,19.46,0,0,1-8,10.83c-1.46,1-3,1.71-4.45,2.74a45.56,45.56,0,0,1-3.64,2.74c-2.87,1.65-6.38,1.56-9.68,1.4-2.92-.14-6-.34-8.48-1.88a47,47,0,0,1-4.28-3.59c-1.58-1.26-3.42-2.17-5-3.46a26,26,0,0,1-4.19-4.8c-2.81-3.8-5.63-7.6-8.21-11.56-3.23-5-6.09-10.15-8.94-15.33l-3.21-5.82h-1L64.91,99.1c-2.86,5.18-5.72,10.37-8.95,15.33-2.58,4-5.4,7.76-8.21,11.56a26,26,0,0,1-4.19,4.8c-1.55,1.29-3.39,2.2-5,3.46a47,47,0,0,1-4.28,3.59c-2.49,1.54-5.55,1.74-8.48,1.88-3.3.16-6.81.25-9.68-1.4a45.56,45.56,0,0,1-3.64-2.74c-1.41-1-3-1.78-4.45-2.74A19.46,19.46,0,0,1,.11,122L0,137.94c1.05,18.55,2.31,37.87,11.53,54a81.77,81.77,0,0,0,8.14,11.52A73.37,73.37,0,0,0,26,210.33c2.59,2.43,5.42,4.58,8.1,6.92,3.17,2.76,6.11,5.77,9,8.77,6.37,6.52,12.75,13,18.71,20q3.58,4.17,7,8.52C70.75,257,71.38,251.12,75.81,246Z"/><path class="cls-5" d="M9,163.69c.49-4.07-1-8.18-1.35-12.22a55.77,55.77,0,0,1,.2-12.32l-1.28.53a65.57,65.57,0,0,0,5.91,4.74A20.62,20.62,0,0,0,19.89,147c4.95.95,10.16,1.45,14.87-.7.88-.4.12-1.69-.75-1.29-4.44,2-9.53,1.39-14.15.46a18.82,18.82,0,0,1-6.59-2.37,60.6,60.6,0,0,1-5.61-4.52.76.76,0,0,0-1.28.54,55.77,55.77,0,0,0-.2,12.32c.38,4,1.84,8.16,1.35,12.22-.11,1,1.39.95,1.5,0Z"/><path class="cls-5" d="M130.29,162.94c-.48-4.06,1-8.19,1.36-12.23a55.78,55.78,0,0,0-.21-12.32.76.76,0,0,0-1.28-.53,60.81,60.81,0,0,1-5.61,4.51,18.84,18.84,0,0,1-6.58,2.37c-4.63.93-9.72,1.56-14.15-.46-.87-.4-1.64.9-.76,1.3,4.72,2.15,9.92,1.64,14.87.69a20.92,20.92,0,0,0,7.19-2.49,56,56,0,0,0,6.1-4.86l-1.28-.53a55.78,55.78,0,0,1,.21,12.32c-.38,4-1.84,8.16-1.36,12.23.12.95,1.62,1,1.5,0Z"/><path class="cls-5" d="M55.09,129.13a67.31,67.31,0,0,1,4.84-8.07c1.72-2.67,3.47-5.34,5.07-8.09a32,32,0,0,0,3.15-6.3l1.16-3.75H67.86a77.94,77.94,0,0,0,4.59,9.85c1.59,2.76,3.34,5.42,5.07,8.09a69.34,69.34,0,0,1,5,8.27c.41.87,1.71.11,1.3-.76-2.64-5.63-6.66-10.59-9.8-16a76.23,76.23,0,0,1-4.67-9.89.76.76,0,0,0-1.45,0l-1.11,3.56a32.2,32.2,0,0,1-3.28,6.53c-3.11,5.28-7.08,10.19-9.68,15.75-.41.87.89,1.63,1.3.76Z"/><path class="cls-5" d="M37.78,210.37c3.31,2.43,5.65,5.85,8.21,9a92.47,92.47,0,0,0,9,9.2A85.43,85.43,0,0,1,64,238.2c1.57,2,3.06,4.07,4.59,6.1.57.76,1.88,0,1.29-.76-1.51-2-3-4-4.54-6a85.23,85.23,0,0,0-9.19-10A94,94,0,0,1,46.79,218c-2.55-3.18-4.94-6.48-8.26-8.92-.77-.57-1.52.73-.75,1.3Z"/><path class="cls-5" d="M99.73,209.07c-3,2.19-5.21,5.06-7.48,7.94a76,76,0,0,1-7.94,8.5A112.81,112.81,0,0,0,75.84,234c-2.64,3.06-5,6.33-7.36,9.64-.55.79.75,1.54,1.3.75a117.6,117.6,0,0,1,7.42-9.68c2.54-2.89,5.36-5.49,8.17-8.11a75.18,75.18,0,0,0,7.68-8.18c2.27-2.86,4.47-5.85,7.44-8,.77-.57,0-1.87-.76-1.3Z"/><path class="cls-7" d="M65,181.84v8.31q0,6.4,5.08,8.45a9.9,9.9,0,0,0,3.64.64,12.78,12.78,0,0,0,3.75-.54A8.76,8.76,0,0,0,80.58,197a8,8,0,0,0,2.14-3,9.61,9.61,0,0,0,.79-3.82,5.37,5.37,0,0,0-.78-3.12,2.4,2.4,0,0,1,2.26-.94,3.25,3.25,0,0,1,2.64,1.11,5.25,5.25,0,0,1,.92,3.42,10.69,10.69,0,0,1-1.22,4.78,13.24,13.24,0,0,1-3.45,4.32,18.72,18.72,0,0,1-12.28,4q-8.79,0-14.44-5.52t-6.93-16.12C49.85,179,48.7,177,46.79,176A5.65,5.65,0,0,0,49,174.47a8.13,8.13,0,0,0,1.26-3.75,27.18,27.18,0,0,1,1.1-4.93,24.79,24.79,0,0,1,2.13-4.86,22.27,22.27,0,0,1,3.18-4.24,19.89,19.89,0,0,1,4.24-3.35,22.63,22.63,0,0,1,11.78-3,17.34,17.34,0,0,1,10.87,3.3,13.66,13.66,0,0,1,5,8.15c.36,1.7.82,2.76,1.38,3.16a4,4,0,0,0,.85.5,3.71,3.71,0,0,1-3.07,1.85,3.31,3.31,0,0,1-1.95-.37,6.24,6.24,0,0,1-5.21,3.37,1.38,1.38,0,0,1-1.08-.27,4.34,4.34,0,0,0,.84-2.83,1.8,1.8,0,0,0-.1-.6,3.92,3.92,0,0,1-2.63-.27c-1.16-.67-1.77-1.4-1.81-2.19a1.47,1.47,0,0,1,.1-.54,4.14,4.14,0,0,0,4-.94,2.79,2.79,0,0,0,1.21-2.35,5.27,5.27,0,0,0-.6-2.29,5.66,5.66,0,0,0-1.55-1.75,8.94,8.94,0,0,0-5.72-1.82q-5.87,0-7.61,5.25a13.27,13.27,0,0,0-.57,4.1v18Zm-7.13,12.08a.71.71,0,0,0,.5-.7,6.67,6.67,0,0,0-.71-2.33q-1.78-4.06-1.78-14.87a41.88,41.88,0,0,1,1.88-13.39,5.13,5.13,0,0,0,.24-1.28.56.56,0,0,0-.44-.57,13.44,13.44,0,0,0-2.25,3.93,48.39,48.39,0,0,0-2,9.66c-.06.58-.73,1.13-2,1.65,1.25.56,1.92,1.13,2,1.72q1.22,10.42,3.1,13.93A12.77,12.77,0,0,0,57.87,193.92Z"/></g></g></svg>