<svg xmlns="http://www.w3.org/2000/svg" viewBox="0 0 166.94 166.39"><defs><style>.cls-1{fill:#fff;}.cls-2{fill:none;stroke:#fff;stroke-miterlimit:10;stroke-width:2px;}</style></defs><title>centaurus</title><g id="Layer_2" data-name="Layer 2"><g id="centaurus"><circle class="cls-1" cx="158.23" cy="84.62" r="4.62"/><circle class="cls-1" cx="127.23" cy="70.62" r="4.62"/><circle class="cls-1" cx="58.23" cy="72.62" r="4.62"/><circle class="cls-1" cx="51.23" cy="43.62" r="4.62"/><circle class="cls-1" cx="49.23" cy="38.62" r="4.62"/><circle class="cls-1" cx="16.43" cy="14.82" r="5.43"/><circle class="cls-1" cx="5.43" cy="55.82" r="5.43"/><circle class="cls-1" cx="81.43" cy="102.82" r="5.43"/><circle class="cls-1" cx="75.43" cy="145.82" r="7.43"/><circle class="cls-1" cx="53.43" cy="156.82" r="9.57"/><circle class="cls-1" cx="67.23" cy="4.62" r="4.62"/><line class="cls-2" x1="157.85" y1="83.39" x2="126.85" y2="70.39"/><line class="cls-2" x1="57.85" y1="72.39" x2="126.85" y2="70.39"/><line class="cls-2" x1="81.85" y1="102.39" x2="57.85" y2="72.39"/><line class="cls-2" x1="75.85" y1="145.39" x2="81.85" y2="102.39"/><line class="cls-2" x1="53.85" y1="156.39" x2="75.85" y2="145.39"/><line class="cls-2" x1="50.85" y1="42.39" x2="57.85" y2="72.39"/><line class="cls-2" x1="66.85" y1="4.39" x2="48.85" y2="38.39"/><line class="cls-2" x1="16.85" y1="14.39" x2="48.85" y2="38.39"/><line class="cls-2" x1="5.85" y1="55.39" x2="48.85" y2="38.39"/><path class="cls-1" d="M79.36,55.6v1.21L78,57.12l.55-3.26h1.34l-.09,3.19a9.2,9.2,0,0,1-4.44,1.06c-4.44,0-7.44-3.22-7.44-7.7a7.36,7.36,0,0,1,7.42-7.71,8.44,8.44,0,0,1,4.24,1.06L79.67,47H78.33l-.55-3.25,1.36.3v1.35a5.1,5.1,0,0,0-3.54-1.54c-3,0-5.37,2.31-5.37,6.6S72.39,57,75.45,57A6.1,6.1,0,0,0,79.36,55.6Z"/><path class="cls-1" d="M90.87,51.26a4.39,4.39,0,0,1-.16,1.24H82.6v-.93h5.23c1.06,0,1.3-.5,1.3-1.12a2.45,2.45,0,0,0-2.44-2.4c-1.41,0-3,1.19-3,4.34,0,2.79,1.41,4.29,3.61,4.29a3.79,3.79,0,0,0,3.08-1.57l.51.4a4.48,4.48,0,0,1-4.21,2.55c-2.94,0-4.86-2-4.86-5.39s2.29-5.61,5-5.61A3.93,3.93,0,0,1,90.87,51.26Z"/><path class="cls-1" d="M94.5,57.78c0-1,.06-3.26.06-4.62v-1c0-1.21,0-1.89-.06-2.77l-1.76-.2v-.77l3-1.32.33.22.26,2.55v3.33c0,1.36,0,3.63.07,4.62ZM97.93,57v.77H92.87V57l2.42-.44h.44ZM103,51.13v2c0,1.4,0,3.63.07,4.62h-1.89c0-1,.06-3.22.06-4.62V51.31c0-2.05-.53-2.71-1.84-2.71a4.8,4.8,0,0,0-3.26,1.52h-.46v-1h1.12l-1,.4a6,6,0,0,1,4.36-2.47C102.11,47.06,103,48.23,103,51.13Zm-.59,5.44,2.2.44v.77H99.56V57l2.42-.44Z"/><path class="cls-1" d="M110.21,57a2.47,2.47,0,0,0,1.49-.61l.51.59a3.12,3.12,0,0,1-2.55,1.12,2.22,2.22,0,0,1-2.47-2.48c0-.53,0-1,0-1.85V48.49h-1.84v-.94l2.72-.36-.88.73.66-3.56h1.28L109,48.21v7.12C109,56.48,109.46,57,110.21,57Zm1.8-9.61v1.14h-3.92V47.35Z"/><path class="cls-1" d="M116.89,52a24.5,24.5,0,0,1,3.41-.92v.79a20.56,20.56,0,0,0-2.94.88c-2,.77-2.2,1.61-2.2,2.24,0,1.17.77,1.63,1.78,1.63.77,0,1.21-.28,2.59-1.27L120,55l.31.46-.64.64c-1.32,1.32-2.06,1.93-3.41,1.93a2.68,2.68,0,0,1-2.94-2.75C113.29,54.08,114,53.09,116.89,52Zm2.53,3.74v-5c0-2.16-.61-2.69-2.06-2.69a5.11,5.11,0,0,0-2,.4l.88-.68-.58,1.89c-.19.64-.52,1-1.12,1a.9.9,0,0,1-1-.88c.42-1.67,2.05-2.71,4.25-2.71s3.36,1,3.36,3.81v4.66c0,1,.31,1.34.82,1.34a1.08,1.08,0,0,0,.86-.48l.44.48A2.07,2.07,0,0,1,121.43,58,2,2,0,0,1,119.42,55.75Z"/><path class="cls-1" d="M127.28,53.88c0,2,.57,2.64,1.78,2.64a4.86,4.86,0,0,0,3.37-1.65h.46V56h-1.12l.77-.34a5.21,5.21,0,0,1-4.18,2.4c-1.76,0-2.86-1.05-2.84-4l.06-5.81.47.42-2-.44V47.5l3.17-.28.22.22-.11,3.08ZM132.51,58l-.3-2.57.06-7.09.46.42-2-.44V47.5l3.12-.28.22.22L134,50.52V57.1l-.53-.53,2.05.44v.77Z"/><path class="cls-1" d="M138.85,53.16v-1c0-1.21,0-1.89-.07-2.77l-1.76-.2v-.77l3-1.32.33.22.26,2.75v3.13c0,1.36,0,3.63.07,4.62h-1.9C138.83,56.79,138.85,54.52,138.85,53.16ZM137.2,57l2.42-.44h.44l2.42.44v.77H137.2Zm2.53-6.82H141l-.55.15c.71-2.05,2-3.28,3.35-3.28a1.88,1.88,0,0,1,1.56.75c0,1-.4,1.61-1.28,1.61a2,2,0,0,1-1.32-.53l-.59-.51,1.08-.22a5.24,5.24,0,0,0-2.66,3.5h-.84Z"/><path class="cls-1" d="M149.32,53.88c0,2,.57,2.64,1.78,2.64a4.84,4.84,0,0,0,3.37-1.65h.46V56h-1.12l.77-.34a5.19,5.19,0,0,1-4.18,2.4c-1.76,0-2.86-1.05-2.84-4l.07-5.81.46.42L146,48.27V47.5l3.17-.28.22.22-.11,3.08ZM154.56,58l-.31-2.57.07-7.09.46.42-2.05-.44V47.5l3.13-.28.22.22L156,50.52V57.1l-.53-.53,2.05.44v.77Z"/><path class="cls-1" d="M159.44,57.23l-.09-2.4h1.17l.59,2.6L160,56.92v-.75a4.13,4.13,0,0,0,2.7.9c1.7,0,2.49-.68,2.49-1.69s-.66-1.43-2-1.94l-1-.37c-1.61-.6-2.66-1.45-2.66-3s1.34-3.06,3.78-3.06a5.63,5.63,0,0,1,3.06.9l-.09,2.23h-1.1L164.72,48l.79.36v.57a3.59,3.59,0,0,0-2.24-.84c-1.36,0-2.07.6-2.07,1.52s.55,1.36,2.05,1.91l.66.25c2.2.81,3,1.84,3,3.21,0,1.63-1.43,3.12-4.24,3.12A6.7,6.7,0,0,1,159.44,57.23Z"/></g></g></svg>