<svg xmlns="http://www.w3.org/2000/svg" viewBox="0 0 164.57 98.54"><defs><style>.cls-1{fill:#fff;}.cls-2{fill:none;stroke:#fff;stroke-miterlimit:10;stroke-width:2px;}</style></defs><title>cepheus</title><g id="Layer_2" data-name="Layer 2"><g id="cepheus"><circle class="cls-1" cx="57.71" cy="15.71" r="4.71"/><circle class="cls-1" cx="101.71" cy="32.71" r="4.71"/><circle class="cls-1" cx="80.71" cy="45.71" r="6.71"/><circle class="cls-1" cx="4.71" cy="4.71" r="4.71"/><circle class="cls-1" cx="27.94" cy="64.25" r="3.45"/><circle class="cls-1" cx="66.94" cy="94.25" r="4.29"/><line class="cls-2" x1="101.43" y1="32.54" x2="79.43" y2="46.54"/><line class="cls-2" x1="57.43" y1="14.54" x2="80.43" y2="46.54"/><line class="cls-2" x1="4.43" y1="4.54" x2="57.43" y2="15.54"/><line class="cls-2" x1="28.43" y1="64.54" x2="4.43" y2="4.54"/><line class="cls-2" x1="67.43" y1="94.54" x2="28.43" y2="64.54"/><line class="cls-2" x1="80.43" y1="45.54" x2="67.43" y2="94.54"/><path class="cls-1" d="M93.77,70.23v1.21l-1.36.31L93,68.49H94.3l-.09,3.19a9.2,9.2,0,0,1-4.44,1.06c-4.45,0-7.44-3.21-7.44-7.7a7.35,7.35,0,0,1,7.42-7.7,8.45,8.45,0,0,1,4.24,1l.09,3.19H92.74l-.55-3.25,1.36.3V60A5.1,5.1,0,0,0,90,58.44c-3,0-5.37,2.31-5.37,6.6s2.16,6.6,5.21,6.6A6.11,6.11,0,0,0,93.77,70.23Z"/><path class="cls-1" d="M105.28,65.89a4.39,4.39,0,0,1-.16,1.24H97V66.2h5.24c1.06,0,1.3-.5,1.3-1.12a2.45,2.45,0,0,0-2.44-2.4c-1.41,0-3,1.19-3,4.34,0,2.79,1.41,4.29,3.61,4.29a3.79,3.79,0,0,0,3.08-1.57l.51.4a4.49,4.49,0,0,1-4.21,2.55c-3,0-4.86-2-4.86-5.39s2.29-5.61,5-5.61A3.93,3.93,0,0,1,105.28,65.89Z"/><path class="cls-1" d="M112.56,76.92v.77h-5.63v-.77l2.48-.44h.44Zm-3.79-10.17c0-1.21,0-1.89-.06-2.77l-1.76-.2V63l3-1.32.33.22.18,1.87.08,0v6.86l-.06.13V73c0,1.54,0,3.13.06,4.67h-1.82q.06-2.31.06-4.62Zm4.49-3.85c-.81,0-1.91.4-3.52,2l-.2-.4c1.28-1.93,2.71-2.77,4.21-2.77,2.33,0,4.18,2.07,4.18,5.46s-1.94,5.54-4.51,5.54c-1.35,0-2.71-.61-3.88-2.9l.2-.35c1.15,1.45,2.2,2,3.28,2,1.67,0,3-1.29,3-4.13S114.89,62.9,113.26,62.9Z"/><path class="cls-1" d="M121.09,58.11l-1.82-.22v-.77l3.3-1,.31.17-.09,3.13v4.66l.06.29v3.41c0,1.36,0,3.63.07,4.62H121c0-1,.06-3.26.06-4.62Zm3.35,13.53v.77h-5.06v-.77l2.42-.44h.44Zm5.19-5.88v2c0,1.41,0,3.63.07,4.62h-1.9c0-1,.07-3.21.07-4.62V65.94c0-2-.53-2.71-1.85-2.71a4.62,4.62,0,0,0-3.25,1.52h-.47v-1h1.13l-1,.4a6,6,0,0,1,4.4-2.47C128.73,61.69,129.63,62.86,129.63,65.76ZM129,71.2l2.2.44v.77h-5.06v-.77l2.42-.44Z"/><path class="cls-1" d="M142,65.89a4.39,4.39,0,0,1-.16,1.24h-8.12V66.2H139c1.06,0,1.3-.5,1.3-1.12a2.45,2.45,0,0,0-2.44-2.4c-1.41,0-3,1.19-3,4.34,0,2.79,1.41,4.29,3.61,4.29a3.79,3.79,0,0,0,3.08-1.57l.51.4a4.49,4.49,0,0,1-4.21,2.55c-2.95,0-4.86-2-4.86-5.39s2.29-5.61,5-5.61A3.93,3.93,0,0,1,142,65.89Z"/><path class="cls-1" d="M146.94,68.51c0,2,.58,2.64,1.79,2.64a4.84,4.84,0,0,0,3.36-1.65h.46v1.13h-1.12l.77-.33A5.21,5.21,0,0,1,148,72.69c-1.76,0-2.86-1-2.84-4l.07-5.81.46.42-2-.44v-.77l3.16-.28.22.22-.11,3.08Zm5.24,4.07L151.87,70l.07-7.09.46.42-2.05-.44v-.77l3.13-.28.22.22-.07,3.08v6.58l-.53-.53,2.05.44v.77Z"/><path class="cls-1" d="M157.06,71.86l-.08-2.4h1.16l.6,2.6-1.08-.51V70.8a4.13,4.13,0,0,0,2.7.9c1.7,0,2.49-.68,2.49-1.69s-.66-1.43-2-1.94l-1-.37c-1.6-.6-2.66-1.45-2.66-3s1.34-3.06,3.78-3.06a5.61,5.61,0,0,1,3.06.9l-.09,2.23h-1.1l-.44-2.23.8.36v.57a3.64,3.64,0,0,0-2.25-.84c-1.36,0-2.07.6-2.07,1.52s.55,1.36,2.05,1.91l.66.25c2.2.81,3,1.84,3,3.21,0,1.63-1.43,3.12-4.25,3.12A6.72,6.72,0,0,1,157.06,71.86Z"/></g></g></svg>