<svg xmlns="http://www.w3.org/2000/svg" viewBox="0 0 635.61 429.39"><defs><style>.cls-1{fill:#2b2f30;}.cls-2{fill:#232222;}.cls-3{fill:#1e1a1a;}.cls-4{fill:#353131;}.cls-5{fill:#fff;}.cls-6{fill:#231b1b;}.cls-7{fill:#262632;}.cls-8{fill:#3d3c3c;}.cls-9{fill:#4d4d4d;}</style></defs><title>cerberus</title><g id="Layer_2" data-name="Layer 2"><g id="Layer_1-2" data-name="Layer 1"><path d="M540.85,80.11c8.54.47,38.82,3.18,59.48,27.27,5.36,6.26,23.79,27.75,15.83,49.05-4.47,12-16.9,22.83-30.35,23.93-18.27,1.49-25.74-16.12-55.8-23.49a95.84,95.84,0,0,0-23.26-2.75L492.33,163l-17.85-18.62,15.61-5.63a95.63,95.63,0,0,1,29.3,1.5c19.35,4.11,25.93,12.12,50.15,18.11,20.91,5.17,25.72,1.6,27.07.44,8.92-7.61,3.33-26.58,2.91-28-9.43-30.79-55-39.88-61.2-41l3.85,10.67L498.66,82.79l46.88-14.12Z"/><path d="M263.9,75.1l-76.38,53.69-123.09,41-7.06-26.25c18.07,4.24,25.64,3.35,29.05,1.4a13.4,13.4,0,0,1,5.94-2.22c4.15-.37,5.62,1.81,8.48.77s2.44-3.57,5.49-4.26c2.39-.54,3.31.65,5-.09,2.87-1.25,1.59-5.14,4.58-7.76s6.18-.25,8.93-2.93c2.39-2.34.91-5,3.29-7.55s5-.21,7.76-2.32c3.38-2.59,1.39-7,4.47-9s6.08,1.47,9.58-.34c4.19-2.16,2-8.35,6.13-11,4.36-2.81,9.47,2.4,13.57-.45,3.8-2.65,1.17-8.38,4.76-10.9,4.86-3.4,14.19,3.88,16.62,1,1.64-1.91-1.83-6.1,0-8s6.73,1.9,10.36-.37c3.11-1.94,1.72-6.18,4.48-7.49,3-1.42,5.79,2.93,11.33,3.21,4.57.24,7.18-2.5,10.93-4.52,4.57-2.46,11.85-4.38,23.57-1.74"/><path class="cls-1" d="M274.33,73.87l-5,68.06a18.65,18.65,0,0,0,2,8,28.31,28.31,0,0,0,2.39,3.75,62.68,62.68,0,0,0,30.3,22.22l-53.72,31.44-89.92,10.47L73.16,188.15,76.4,165.1c2.62-4.34,5.3-8.76,9.15-12a157.74,157.74,0,0,0,23-6.37c29.82-10.76,50.6-28.51,63.33-41.88A136.09,136.09,0,0,1,274.38,74.23"/><path d="M355.15,285.49l-34.38,9.07c-1.35.36-2.85.83-3.51,2.06s-.22,3-1,4.17c-.89,1.37-2.89,1.46-4.1,2.56-1.52,1.4-1.2,4,.17,5.58a10.12,10.12,0,0,0,5.45,2.7c15.19,3.59,36.19-1.46,51-6.45,7-2.36,8.81-8.24,15.31-11.76,6.76-3.67,12.94-5.09,20.27-7.4,2.39-.75,4.91-1.23,7.08-2.48,4-2.33,6.18-6.88,7.83-11.24,1.93-5.11,3.56-10.57,2.77-16-2.9.86-4.06,4.5-6.72,5.94a6.94,6.94,0,0,1-6.64-.49,20.38,20.38,0,0,1-5-4.73c-2.66-3.12-5.48-6.83-4.81-10.87.51-3.11,3-5.48,5.45-7.45A73.8,73.8,0,0,1,418,230c9.79-4.79,20.79-7.51,29.28-14.37l10.86-13.52-7.85-27.06-50.64-5.24L359.5,191.64l4.9,15.91a69.88,69.88,0,0,0-5.93,19c-.43,2.65-1,5.77-3.45,6.9-1.85.85-4.2.2-5.91,1.3-1.28.82-1.83,2.38-2.3,3.83,5.21,3,9.26,7.66,13,12.39A207.58,207.58,0,0,1,373,269.61a4.87,4.87,0,0,1,1,2.59c0,1.71-1.7,2.86-3.18,3.7l-8.08,4.61Z"/><path d="M489.57,124.42c-.13-2.09-.66-4.74-2.62-6.11s-3.44-.14-6.86-1.22c-4-1.27-3.95-3.57-7.11-4-3.35-.48-4,2-7.43,1.7-4.08-.39-4.55-4.15-8.28-4.32-3.41-.14-4,3-7.8,3s-4.14-2.85-7.91-3c-4.07-.18-4.69,3.12-9.13,3.31-4.27.19-5.05-2.81-9.21-2.43s-4.42,3.26-7.76,3.13c-3.84-.14-4.2-4-8.82-4.88-3.92-.75-5,1.75-8.33.58-3.47-1.22-3.42-4.41-6.51-4.94-2.9-.5-3.78,2.16-6.59,1.8-3.94-.51-4.07-6-8.25-7-3.52-.86-4.76,2.71-8.74,2.14-4.51-.65-4.66-5.46-9.6-6.51-3.8-.8-4.73,1.83-8.54.83s-3.82-4-8-5.19c-3.55-1-4.43.89-7.33-.34-3.58-1.51-3.33-4.87-6.64-5.77-2.68-.74-3.46,1.3-6,.75-4.66-1-5-8.25-8.8-8.61-2.64-.25-3.28,3.2-6.18,3.21-4.12,0-4.88-7-10.41-8.45-3.64-1-4.47,1.73-8.63,1.28-7.3-.8-9.63-9.67-14.07-9.13-1.74.2-4,1.88-6.1,8.31-9.56-7.6-19.14-13.69-22.71-10.93-1.3,1-2,3.39-.87,8.73l2.62,7.85L458.14,144.5,487,131.41Z"/><path class="cls-1" d="M492.83,128.69c-8.4-5-16.95-10-26.43-12.21a81,81,0,0,0-14.72-1.86c-13.75-.86-22.82.55-29.33,1.07-16,1.28-29.4-2.35-56.28-9.6-7.45-2-14.41-4-28.13-8.76L300.56,84.48l-8.11-3A65.62,65.62,0,0,0,274.07,75c-3.05-.6-6.14-1-9.23-1.35-10.31-1.25-20.78-2.5-31-.79-3.49.59-7.2,1.7-9.27,4.57l-7.42,10.17c-4.5,5.12-7.31,11.46-10,17.7q-9.2,21-18.16,42.05c-12.14,28.55-24,57.38-31.14,87.58l-3,8a38,38,0,0,0-3.51,7.16q-3,7.3-5.95,14.61c-7.37,18.13-14.87,36.49-26.57,52.18A116.27,116.27,0,0,1,110.27,327c-6.67,7.08-14.9,13.6-24.59,14.46-6.83.61-14.45-1.51-20.1,2.38A22,22,0,0,0,60.77,349l-7.26,9.62a13.86,13.86,0,0,0-3,5.61c-.39,2.11.49,4.62,2.49,5.36,2.45.92,6-.77,7.38,1.44,1,1.62-.29,4.06.89,5.57.82,1,2.37,1,3.7,1l21.13-1.48,8.22-3.18,28.12-8.71c6-1.86,12.37-4,16.13-9a38.13,38.13,0,0,0,3.6-6.77,138,138,0,0,1,8.41-14.7q28.3-45,58.53-88.67a144.9,144.9,0,0,1,11.59,17.81,3.67,3.67,0,0,1,.67,2.66c-.32,1.12-1.53,1.66-2.58,2.16-7.14,3.41-11.56,10.83-14,18.36s-3.28,15.49-5.62,23a121.08,121.08,0,0,1-5.52,13.78l-8.82,19.65c-3.13,7-6.3,14-10.85,20.17A53.76,53.76,0,0,1,149.56,381c-8.88,3.27-18.77,4.26-26.6,9.57s-12.51,14.32-16.73,22.91c-1.41,2.88-2.23,7.38.81,8.4,2.09.7,4.71-1.06,6.44.3.89.7,1.1,1.95,1.64,3,2.08,3.88,7.85,2.9,11.95,1.27s9.67-3,12.15.66a9,9,0,0,0,1,1.44,4.31,4.31,0,0,0,3,.87c16.16.3,29.91-11.36,40.76-23.33,15.87-17.48,29.24-37,42.56-56.53L239.89,330c3.57-5.23,7.15-10.47,10.27-16,4.67-8.24,8.28-17,11.88-25.79q6.93-16.86,13.84-33.72l4.87-10.25c12.36,1.17,25,2.32,37-1,8-2.2,15.25-6.28,22.45-10.33s14.65-8.25,21.14-13.55c3.47-2.84,6.7-6,10.56-8.32a56.41,56.41,0,0,1,8.4-3.84l16.31-6.38c9.57-3.74,20.1-7.52,29.87-4.34,12.44,4.05,18.66,17.49,24.73,29.09a194.07,194.07,0,0,0,31.5,43.94c2.88,3,5.92,6,9.64,7.89a45.11,45.11,0,0,0,10.09,3.21c9.65,2.33,19.37,5.36,27.37,11.24s14.12,15.08,14.07,25l4.23,10.27a86.18,86.18,0,0,1,3.16,11.82c.27,1.4.4,3.11-.72,4-.83.65-2,.56-3,1.05a4.29,4.29,0,0,0-1.81,2.53A12.47,12.47,0,0,0,547,357a3.54,3.54,0,0,0,1.57,1.54,6.26,6.26,0,0,0,2.16.21c2.72.09,5.08,1.91,7.74,2.5,3.16.7,6.49-.37,9.69.16,1.5.24,2.93.84,4.43,1.12a21.23,21.23,0,0,0,7.68-.51,14.17,14.17,0,0,0,4.1-1.22,9.48,9.48,0,0,0,4.18-5.36,28.63,28.63,0,0,0,1.15-6.83,6,6,0,0,0-.38-3.41c-1.23-2.23-4.57-2-6.54-3.63a8.43,8.43,0,0,1-1.91-2.62c-2-3.58-3.93-7.25-4.63-11.26-.26-1.47-.34-3-.67-4.43a26.3,26.3,0,0,0-2-5.17q-3.09-6.58-6.53-13c-1.48-2.77-3-5.51-4.49-8.27-4.29-8-8.19-16.3-10.16-25.16l-2-4.47c1.52-3.87-1.89-8-5.68-9.75s-8.13-2.08-11.71-4.2c-6.53-3.86-8.61-12.22-9.7-19.73A225.91,225.91,0,0,1,521.38,187a94.29,94.29,0,0,0,.34-11,65.12,65.12,0,0,0-2.9-14.65c-3.33-11.32-8.51-23.26-19-28.67Z"/><path d="M251.59,65.43c4.32,1,1,.2,5.14,1.66a11.09,11.09,0,0,1,3.86,2c3,2.83-.9,6.44,1.56,9.48,2.31,2.88,8.07,2.86,11.72,5a3.76,3.76,0,0,1,1.51,1.37,2.32,2.32,0,0,1-.31,2.19l-4.26,8.29-.23,4.25c2.37.83,5.32,1.48,6.37,3.19a3,3,0,0,1,.31,2.14,11,11,0,0,1-5.93,7.89c-.6.33-1.29.71-1.23,1.31.11,1.12,2.33,1.52,3.87,2,3.54,1.1,5.15,4.45,4.23,6.78s-3.62,3.87-6.21,5.3l1.8.9c2.37.83,5.32,1.48,6.37,3.19a3.08,3.08,0,0,1,.31,2.14,11,11,0,0,1-5.93,7.89c-.6.33-1.29.71-1.23,1.31.11,1.12,2.32,1.52,3.87,2,3.54,1.1,5.15,4.45,4.23,6.78s-3.62,3.87-6.21,5.3l-2.28,2.3c2.37.83,5.32,1.48,6.37,3.19a3.08,3.08,0,0,1,.31,2.14,11,11,0,0,1-5.93,7.88c-.6.34-1.29.72-1.23,1.32.11,1.12,2.33,1.52,3.87,2,3.54,1.1,5.15,4.45,4.23,6.78s-3.62,3.87-6.21,5.3L269,166.07a219.16,219.16,0,0,0-10.7-82.92Q255.24,74.07,251.59,65.43Z"/><path class="cls-2" d="M115.22,194.3c-1.27,6.3-2.6,12.76-6.07,18.17-6.24,9.75-18.08,14.23-26.27,22.41-4.19,4.18-7.36,9.28-11.41,13.59s-9.52,9-15.33,7.91c-8.09-1.55-6.1-2.44-13.86-6.2l-1.49-.51c-7.17-4-16.72-2.22-23.43-6.95-4.83-3.42-7-9.51-7.81-15.38s-.35-11.86-1.3-17.7C6.39,198.22-.6,187.65,0,176.1c.36-6.42,3.05-12.44,5.71-18.29l5.4-12.13c-2.29-2-2.71-5.43-2.38-8.46,1.07-9.84,8-17.92,14.54-25.33L38.19,95.16q2.67,12.27,5.69,24.47c1,4.21,2.13,8.42,3.56,12.52a3,3,0,0,0,1.36,1.92,3.2,3.2,0,0,0,1.57.07,21.16,21.16,0,0,1,15.31,4.53c2.17,1.75,4,3.92,6.3,5.45l.89.33c2.75.42,5.55,0,8.32.16a21.14,21.14,0,0,1,14.43,6.85,3.32,3.32,0,0,0,1.22,1,3,3,0,0,0,2.3-.52c3.79-2.1,7.41-4.51,11-7q10.39-7,20.57-14.41L130.62,153c-.05,9.9-.31,20.52-6.09,28.56-1.77,2.48-4.37,4.75-7.41,4.72Z"/><path class="cls-3" d="M47.25,219.42a60,60,0,0,0-14.74,3.76c-1.48.59-2.94,1.23-4.4,1.88a9.09,9.09,0,0,0-3.64,2.38,70.29,70.29,0,0,1,10.14,3.22,33.85,33.85,0,0,0,4.89,1.74c1.07.24,2.18.36,3.26.57,5.87,1.17,10.72,5.24,16.3,7.38a1,1,0,0,0,.75.08c.37-.15.44-.62.45-1A12.48,12.48,0,0,0,59,233.76a25.32,25.32,0,0,0-1.63-2.69l-6.21-9.35"/><path class="cls-4" d="M46.93,223a35.46,35.46,0,0,1-10.61,3.38c-.84.09-1.69.05-2.54.16a24.2,24.2,0,0,0-3.79,1,30.44,30.44,0,0,1-5.61.94,17.37,17.37,0,0,1-6.93-.4,6.71,6.71,0,0,1-4.68-4.73c-.43-2.15.58-4.31,1.57-6.27a31.07,31.07,0,0,1,3.42-5.78,31.35,31.35,0,0,1,2.51-2.65c2.36-2.3,4.77-4.63,7.74-6.07s6.6-1.89,9.51-.34l15,6.29"/><path class="cls-4" d="M46.72,223a35.85,35.85,0,0,0,5.64,9.6c.57.63,1.24,1.17,1.79,1.81a24.25,24.25,0,0,1,2.13,3.31,30.32,30.32,0,0,0,3.55,4.44,17.27,17.27,0,0,0,5.42,4.33,6.7,6.7,0,0,0,6.65-.39c1.75-1.32,2.44-3.6,3-5.72a30.92,30.92,0,0,0,1.3-6.58,29.61,29.61,0,0,0-.09-3.65,31,31,0,0,0-1.71-9.69c-1.24-3-3.66-5.81-6.86-6.6L52.2,208.48"/><path class="cls-4" d="M54,235.42a39.39,39.39,0,0,1,4.17,4.49"/><path d="M16.94,230.49c9.48-1.7,19.07,1.62,27.78,5.06,7.49,3,15.19,6.83,20,13.52,1.12,1.55,3.73.06,2.59-1.51-4-5.62-9.8-9.49-16-12.41a89.15,89.15,0,0,0-21.63-7.37,37.86,37.86,0,0,0-13.55-.18c-1.9.34-1.1,3.23.79,2.89Z"/><path class="cls-5" d="M25.1,228.25q2.34-5.3,5-10.42A.45.45,0,0,1,31,218c.17,1.42.4,2.84.67,4.25.09.44.18.88.28,1.32l1.1,5.28a.44.44,0,0,1-.47.53,22.94,22.94,0,0,1-3.47,0,22.1,22.1,0,0,1-3.62-.54C25.4,228.78,25,228.56,25.1,228.25Z"/><path class="cls-5" d="M62.84,242.5c1-3.72,1.94-7.48,2.73-11.26a.45.45,0,0,0-.75-.41q-1.56,1.48-3.23,2.85l-1.05.85-4.2,3.38a.45.45,0,0,0,0,.71A23.19,23.19,0,0,0,59,240.86a22,22,0,0,0,3.14,1.88C62.27,242.71,62.75,242.83,62.84,242.5Z"/><path class="cls-6" d="M31,209.43a1.13,1.13,0,0,0,0-2.25,1.13,1.13,0,0,0,0,2.25Z"/><path class="cls-6" d="M38.28,215.82a1.13,1.13,0,0,0,0-2.25,1.13,1.13,0,0,0,0,2.25Z"/><path class="cls-6" d="M27.4,217a1.13,1.13,0,0,0,0-2.25,1.13,1.13,0,0,0,0,2.25Z"/><path class="cls-6" d="M62.83,220.57a1.13,1.13,0,0,0,0-2.25,1.13,1.13,0,0,0,0,2.25Z"/><path class="cls-6" d="M68.94,227.26a1.13,1.13,0,0,0,0-2.25,1.13,1.13,0,0,0,0,2.25Z"/><path class="cls-6" d="M59.32,228.13a1.13,1.13,0,0,0,0-2.25,1.13,1.13,0,0,0,0,2.25Z"/><path class="cls-5" d="M90.51,190.41a25,25,0,0,0-2.64-.13,4.62,4.62,0,0,1,1.36,2.46,5.32,5.32,0,0,1-10.4,2,4.74,4.74,0,0,1,1.26-4.17l-5.78.44c.29,1.57,1.39,6.37,5.46,9,5.49,3.5,14.45,1.7,20.5-5.5A17.63,17.63,0,0,0,90.51,190.41Z"/><path class="cls-7" d="M78.83,194.79a5.32,5.32,0,0,0,10.4-2,4.62,4.62,0,0,0-1.36-2.46c-2.23,0-5,.14-7.78.34A4.74,4.74,0,0,0,78.83,194.79Z"/><path d="M68.86,192.12c5.7-.1,11.36-.91,17-1.07,6-.17,13,1.16,16.14,7,.44.86,1.74.1,1.29-.75-3.08-5.86-10-7.85-16.23-7.79s-12.15,1-18.25,1.09a.75.75,0,0,0,0,1.5Z"/><path class="cls-5" d="M34.54,169a24.12,24.12,0,0,1,2.05,1.67,4.57,4.57,0,0,0-2.65.92,5.32,5.32,0,0,0,6.38,8.47,4.76,4.76,0,0,0,1.84-4c1.38,1.43,2.75,2.87,4,4.19-1.26,1-5.29,3.81-10,3-6.43-1.07-11.9-8.39-11.6-17.78A17.66,17.66,0,0,1,34.54,169Z"/><path class="cls-7" d="M40.32,180.05a5.32,5.32,0,0,1-6.38-8.47,4.57,4.57,0,0,1,2.65-.92c1.67,1.48,3.62,3.42,5.57,5.44A4.76,4.76,0,0,1,40.32,180.05Z"/><path d="M50.55,183.63c-4.13-3.84-7.78-8.18-11.87-12.07a37.41,37.41,0,0,0-16.77-8.88.75.75,0,0,0-.4,1.44A43.27,43.27,0,0,1,31.58,168a30.81,30.81,0,0,1,6.5,5c3.9,3.77,7.43,7.93,11.41,11.63.7.65,1.77-.4,1.06-1.06Z"/><path d="M47.87,221.7c8,3.06,7.3-10.43,11.63-8.78,5.76,2.21,5.55,7.09,9,6.75,2.07-.21,3.65-5.22,2.1-8-2.11-5.45-7.09-10.39-13.89-13l-.32-.13c-6.8-2.6-13.81-2.24-19,.4-3,1.08-5.21,5.87-3.8,7.4,2.33,2.55,5.43-1.23,11.19,1,4.33,1.66-5.21,11.23,2.8,14.29Z"/><path class="cls-8" d="M339.48,189c1.59,6.33,3.2,12.84,2.39,19.32-1.46,11.66-10.36,20.95-14.29,32-2,5.67-2.69,11.73-4.52,17.46s-4.78,12.43-10.59,13.95c-8.1,2.12-6.66.43-15.43.38l-1.58.19c-8.32-.53-16.3,5.28-24.52,3.87-5.93-1-10.62-5.63-13.89-10.68s-5.51-10.72-8.94-15.66c-6.7-9.66-17.72-16.29-22.19-27.16-2.48-6-2.64-12.74-2.77-19.26L222.79,190c-3-.84-4.85-3.79-5.87-6.72-3.33-9.49-.54-19.91,2.25-29.58q3.15-10.92,6.32-21.85,7.8,10.09,15.92,19.94c2.8,3.41,5.63,6.79,8.73,9.93a3,3,0,0,0,2.1,1.16,3.32,3.32,0,0,0,1.47-.61,21.47,21.47,0,0,1,16-2.55c2.74.65,5.36,1.85,8.16,2.23l1-.07c2.7-.82,5.09-2.42,7.69-3.51a21.55,21.55,0,0,1,16.23,0,3.28,3.28,0,0,0,1.55.37,3,3,0,0,0,1.88-1.48c2.56-3.58,4.82-7.38,7.05-11.18q6.44-11,12.56-22.22,4.85,10.29,9.7,20.57c4.29,9.1,8.69,18.95,6.92,28.85-.55,3.05-1.93,6.27-4.74,7.57Z"/><path class="cls-3" d="M288.15,241.77a61.52,61.52,0,0,0-11.87,9.9c-1.1,1.19-2.16,2.42-3.21,3.65a9.09,9.09,0,0,0-2.29,3.78,71.37,71.37,0,0,1,10.7-1.49,34.1,34.1,0,0,0,5.24-.54c1.09-.25,2.16-.63,3.25-.91,5.89-1.49,12.11.12,18.17-.36a1.07,1.07,0,0,0,.72-.25c.27-.3.13-.77,0-1.13a12.68,12.68,0,0,0-3.65-4.63,24.51,24.51,0,0,0-2.67-1.75l-9.78-5.85"/><path class="cls-4" d="M289.44,245.23a36.36,36.36,0,0,1-8.25,7.74c-.74.44-1.54.78-2.26,1.25a25.78,25.78,0,0,0-3,2.61,30,30,0,0,1-4.73,3.32,17.52,17.52,0,0,1-6.52,2.67,6.83,6.83,0,0,1-6.36-2.29c-1.34-1.79-1.35-4.21-1.31-6.44a23.69,23.69,0,0,1,1.75-10.32c1.16-3.14,2.36-6.34,4.44-9s5.23-4.61,8.57-4.46l16.5-.8"/><path class="cls-4" d="M289.21,245.24a36.24,36.24,0,0,0,9.37,6.34c.8.32,1.64.53,2.43.87a26,26,0,0,1,3.4,2.11,30.42,30.42,0,0,0,5.2,2.52,17.56,17.56,0,0,0,6.86,1.6,6.84,6.84,0,0,0,5.93-3.27c1-2,.66-4.37.26-6.57a31,31,0,0,0-1.68-6.6,32.13,32.13,0,0,0-1.68-3.31c-1.64-2.92-3.33-5.88-5.81-8.13s-5.89-3.73-9.17-3.05l-16.42,1.83"/><path class="cls-4" d="M301.37,253.48a40.87,40.87,0,0,1,5.78,2.29"/><path d="M265,265.33c5.65-4.07,12.42-5.88,19.24-6.83,7-1,14.42-1.56,21.51-.7a32.08,32.08,0,0,1,11.54,3.54c1.69.93,3.21-1.66,1.51-2.59-6.76-3.69-14.51-4.51-22.1-4.28-7.33.22-14.93.89-22,3a36.86,36.86,0,0,0-11.22,5.32c-1.55,1.11-.06,3.72,1.52,2.59Z"/><path class="cls-5" d="M271.7,259.56q-.17-5.88.07-11.76a.45.45,0,0,1,.84-.22q1.17,1.84,2.48,3.6l.83,1.09,3.32,4.36a.45.45,0,0,1-.19.69,22.32,22.32,0,0,1-3.17,1.56,22.08,22.08,0,0,1-3.55,1.09C272.22,259.91,271.71,259.91,271.7,259.56Z"/><path class="cls-5" d="M312.54,256.12c-.67-3.87-1.49-7.71-2.43-11.52a.45.45,0,0,0-.86,0c-.52,1.37-1.09,2.71-1.71,4-.19.41-.39.83-.59,1.24l-2.38,4.93a.45.45,0,0,0,.33.64,22.14,22.14,0,0,0,7.11,1.25C312.11,256.56,312.6,256.46,312.54,256.12Z"/><path class="cls-6" d="M268.38,239.82a1.13,1.13,0,0,0,0-2.25,1.13,1.13,0,0,0,0,2.25Z"/><path class="cls-6" d="M277.86,242.49a1.13,1.13,0,0,0,0-2.25,1.13,1.13,0,0,0,0,2.25Z"/><path class="cls-6" d="M268.38,248.29a1.13,1.13,0,0,0,0-2.25,1.13,1.13,0,0,0,0,2.25Z"/><path class="cls-6" d="M302.45,236.1a1.13,1.13,0,0,0,0-2.25,1.13,1.13,0,0,0,0,2.25Z"/><path class="cls-6" d="M311,239.57a1.13,1.13,0,0,0,0-2.25,1.13,1.13,0,0,0,0,2.25Z"/><path class="cls-6" d="M302.54,244.58a1.13,1.13,0,0,0,0-2.25,1.13,1.13,0,0,0,0,2.25Z"/><path class="cls-5" d="M315.12,196.26a26.66,26.66,0,0,0-2.47,1A4.71,4.71,0,0,1,315,199a5.4,5.4,0,0,1-8.64,6.43,4.86,4.86,0,0,1-.67-4.38l-5.11,2.94c.95,1.31,4.07,5.23,8.93,5.82,6.57.81,14-4.76,16.39-14A17.84,17.84,0,0,0,315.12,196.26Z"/><path class="cls-7" d="M306.33,205.38A5.4,5.4,0,0,0,315,199a4.71,4.71,0,0,0-2.32-1.66c-2.06,1-4.51,2.31-7,3.71A4.86,4.86,0,0,0,306.33,205.38Z"/><path d="M296.07,207.25c5.06-2.52,9.8-5.65,14.81-8.26,5.59-2.89,12.68-4.87,18.22-.74.78.58,1.52-.72.76-1.29-5.53-4.13-12.9-2.67-18.64.18-5.43,2.7-10.48,6.11-15.9,8.82-.87.43-.11,1.72.75,1.29Z"/><path class="cls-5" d="M254.44,201.1c.74.13,1.64.36,2.61.63a4.69,4.69,0,0,0-2,2,5.4,5.4,0,0,0,9.55,5,4.84,4.84,0,0,0,0-4.43c1.88.7,3.77,1.43,5.5,2.08-.73,1.45-3.18,5.81-7.88,7.17-6.36,1.84-14.58-2.48-18.41-11.23A18,18,0,0,1,254.44,201.1Z"/><path class="cls-7" d="M264.57,208.72a5.4,5.4,0,0,1-9.55-5,4.69,4.69,0,0,1,2-2c2.18.63,4.81,1.56,7.49,2.56A4.84,4.84,0,0,1,264.57,208.72Z"/><path d="M275.46,207.51c-5.34-1.67-10.47-4-15.78-5.75a32.52,32.52,0,0,0-8-1.74,45.28,45.28,0,0,0-11.61.84c-.95.18-.55,1.63.4,1.45a42.81,42.81,0,0,1,11.68-.75,33.16,33.16,0,0,1,7.78,1.85c5.1,1.73,10,3.94,15.17,5.55.93.29,1.32-1.16.4-1.45Z"/><path d="M289.72,243.59c8.68-.69,2.13-12.75,6.82-13.13,6.25-.5,8.19,4.07,11.19,2.25,1.81-1.09,1.06-6.37-1.59-8.3-4.32-4.07-11.05-6.42-18.42-5.83l-.35,0c-7.37.59-13.64,4-17.26,8.68-2.32,2.32-2.21,7.66-.25,8.45,3.25,1.31,4.44-3.5,10.69-4,4.69-.38.13,12.57,8.82,11.88Z"/><path class="cls-1" d="M634.16,3a1.5,1.5,0,0,0,0-3,1.5,1.5,0,0,0,0,3Z"/><path d="M227.1,67.05c-7.5-9-5.82-12-15.92-18,1.22,17.22-.19,23.09,1,40.31-6.29.87-8-10.71-14.37-11.06a241.87,241.87,0,0,0,2.86,33.57L190.46,95.66c-.8-1.27-1.75-2.65-3.21-3-3.49-.8-4.91,4.31-4.67,7.87q1.09,16.83,2.2,33.65a84.38,84.38,0,0,0-8.9-12.91,250,250,0,0,0-.13,34.51q-3.94-3.53-7.88-7.06a4.13,4.13,0,0,0-2.38-1.3c-2.29-.09-2.88,3.13-2.6,5.41A166.78,166.78,0,0,0,171,187.9a184.09,184.09,0,0,1,34.37-82.25l25.32-33.17Z"/><path class="cls-9" d="M226.75,215.58c1.21,7.14,2.41,14.47.94,21.56-2.64,12.76-13.29,22.24-18.61,34.14-2.73,6.08-4,12.72-6.53,18.89s-6.38,13.31-13,14.48c-9.13,1.63-7.39-.11-17.07-.93l-1.77.06c-9.15-1.31-18.48,4.4-27.44,2.12-6.46-1.65-11.24-7.17-14.4-13s-5.15-12.33-8.5-18.1c-6.55-11.26-18.15-19.56-22.13-32-2.21-6.89-1.79-14.31-1.35-21.53l.79-14.93c-3.22-1.19-5-4.63-5.9-7.94C89,187.61,93,176.34,96.93,165.91l8.91-23.59q7.74,11.84,15.83,23.44c2.8,4,5.63,8,8.78,11.74a3.37,3.37,0,0,0,2.21,1.47,3.71,3.71,0,0,0,1.68-.55A23.85,23.85,0,0,1,152.27,177c3,1,5.76,2.53,8.81,3.2h1.07c3.06-.67,5.84-2.23,8.82-3.2a23.85,23.85,0,0,1,17.93,1.41,3.67,3.67,0,0,0,1.68.55,3.37,3.37,0,0,0,2.21-1.47c3.15-3.74,6-7.73,8.77-11.74q8.1-11.59,15.84-23.44l8.91,23.59c3.94,10.43,7.93,21.7,5.1,32.49-.88,3.31-2.69,6.75-5.9,7.94Z"/><path class="cls-3" d="M165.38,269.36a67.45,67.45,0,0,0-14,9.89c-1.32,1.21-2.6,2.48-3.87,3.75a10.18,10.18,0,0,0-2.87,4,79.68,79.68,0,0,1,12-.7,36.71,36.71,0,0,0,5.84-.14c1.23-.17,2.44-.5,3.67-.71,6.64-1.13,13.37,1.2,20.11,1.2a1.21,1.21,0,0,0,.82-.21c.32-.31.21-.84.06-1.25a14,14,0,0,0-3.62-5.43,26.62,26.62,0,0,0-2.8-2.18l-10.29-7.33"/><path class="cls-4" d="M166.5,273.29c-1.8,2.34-7.16,6.5-9.8,7.82-.85.43-1.76.74-2.61,1.19a29.2,29.2,0,0,0-3.57,2.62,34.75,34.75,0,0,1-5.52,3.25,19.59,19.59,0,0,1-7.44,2.37c-2.62.13-5.45-.87-6.84-3.09s-1.11-4.77-.87-7.23A26.24,26.24,0,0,1,132.69,269c1.56-3.37,3.17-6.79,5.7-9.5s6.19-4.64,9.87-4.18l18.3.57"/><path class="cls-4" d="M166.24,273.29c1.8,2.34,7.17,6.5,9.8,7.82.86.43,1.77.74,2.61,1.19a29.2,29.2,0,0,1,3.57,2.62,34.4,34.4,0,0,0,5.53,3.25,19.48,19.48,0,0,0,7.44,2.37c2.62.13,5.44-.87,6.83-3.09s1.12-4.77.88-7.23a35.31,35.31,0,0,0-1.28-7.45,34.91,34.91,0,0,0-1.57-3.8c-1.56-3.37-3.16-6.79-5.69-9.5s-6.19-4.64-9.87-4.18l-18.31.57"/><path class="cls-4" d="M179,283.46a44.93,44.93,0,0,1,6.19,3"/><path d="M137.72,293.14c6.83-4.14,14.81-5.46,22.67-5.84s15.93-.4,23.6,1.29a35.77,35.77,0,0,1,12,4.89c1.62,1.07,3.13-1.53,1.52-2.59-6.93-4.54-15.2-6.1-23.34-6.56a98.87,98.87,0,0,0-24.84,1.25,40.8,40.8,0,0,0-13.15,5,1.5,1.5,0,0,0,1.52,2.59Z"/><path class="cls-5" d="M145.64,287.57c.21-4.35.6-8.68,1.11-13a.51.51,0,0,1,.95-.17q1.13,2.14,2.42,4.2l.82,1.28,3.28,5.11a.5.5,0,0,1-.27.75,25.31,25.31,0,0,1-7.66,2.33C146.17,288,145.62,288,145.64,287.57Z"/><path class="cls-5" d="M191.07,287.36c-.4-4.33-1-8.64-1.67-12.94a.5.5,0,0,0-1-.13c-.7,1.46-1.44,2.9-2.24,4.3-.25.44-.51.88-.77,1.32l-3.06,5.24a.5.5,0,0,0,.3.74,26.24,26.24,0,0,0,3.7,1.29,25.91,25.91,0,0,0,4.06.72C190.55,287.81,191.1,287.74,191.07,287.36Z"/><path class="cls-6" d="M143.81,265.34a1.13,1.13,0,0,0,0-2.25,1.13,1.13,0,0,0,0,2.25Z"/><path class="cls-6" d="M154,269.12a1.13,1.13,0,0,0,0-2.25,1.13,1.13,0,0,0,0,2.25Z"/><path class="cls-6" d="M143.06,274.7a1.13,1.13,0,0,0,0-2.25,1.13,1.13,0,0,0,0,2.25Z"/><path class="cls-6" d="M181.78,264.24a1.13,1.13,0,0,0,0-2.25,1.13,1.13,0,0,0,0,2.25Z"/><path class="cls-6" d="M190.9,268.82a1.13,1.13,0,0,0,0-2.25,1.13,1.13,0,0,0,0,2.25Z"/><path class="cls-6" d="M181.13,273.61a1.13,1.13,0,0,0,0-2.25,1.13,1.13,0,0,0,0,2.25Z"/><path class="cls-5" d="M199.2,221.44a28.73,28.73,0,0,0-2.83.93,5.21,5.21,0,0,1,2.43,2,6,6,0,0,1-10.12,6.35,5.38,5.38,0,0,1-.35-4.9l-5.91,2.79c.94,1.53,4,6.14,9.35,7.23,7.19,1.47,15.89-4,19.35-14A19.84,19.84,0,0,0,199.2,221.44Z"/><path class="cls-7" d="M188.68,230.75a6,6,0,0,0,10.12-6.35,5.21,5.21,0,0,0-2.43-2c-2.35.88-5.18,2.14-8,3.48A5.38,5.38,0,0,0,188.68,230.75Z"/><path d="M177,231.88c5.85-2.35,11.4-5.41,17.21-7.86,6.36-2.68,14.48-4.32,20.19.71.72.63,1.78-.42,1.06-1.06-9.33-8.22-22.13-1-31.38,3.35-2.47,1.17-4.94,2.39-7.48,3.42-.88.35-.5,1.81.4,1.44Z"/><path class="cls-5" d="M131.72,221.44a28.73,28.73,0,0,1,2.83.93,5.21,5.21,0,0,0-2.43,2,6,6,0,0,0,10.12,6.35,5.38,5.38,0,0,0,.35-4.9l5.91,2.79c-.94,1.53-4,6.14-9.35,7.23-7.19,1.47-15.89-4-19.35-14A19.84,19.84,0,0,1,131.72,221.44Z"/><path class="cls-7" d="M142.24,230.75a6,6,0,0,1-10.12-6.35,5.21,5.21,0,0,1,2.43-2c2.35.88,5.18,2.14,8,3.48A5.38,5.38,0,0,1,142.24,230.75Z"/><path d="M154.3,230.44c-5.79-2.33-11.28-5.37-17-7.79a35.78,35.78,0,0,0-8.89-2.62A50.52,50.52,0,0,0,116,220c-1,.1-1,1.61,0,1.5a48.57,48.57,0,0,1,12.46.08,36.2,36.2,0,0,1,8.91,2.74c5.57,2.4,10.93,5.32,16.56,7.59.89.37,1.28-1.09.4-1.44Z"/><path d="M167,271.51c9.66,0,3.48-13.91,8.7-13.91,6.95,0,8.69,5.21,12.17,3.48,2.09-1.05,1.73-7-1-9.32-4.41-4.88-11.64-8.07-19.84-8.07h-.39c-8.19,0-15.43,3.19-19.84,8.07-2.76,2.36-3.12,8.27-1,9.32,3.48,1.73,5.21-3.48,12.17-3.48,5.21,0-1,13.91,8.69,13.91Z"/></g></g></svg>