<svg xmlns="http://www.w3.org/2000/svg" viewBox="0 0 630.33 405.02"><defs><style>.cls-1{fill:#fff;}.cls-2{fill:#dbbda9;}.cls-3{fill:#302823;}.cls-4{fill:#4c3f35;}.cls-5{fill:#aa7552;}.cls-6{fill:#c1875f;}.cls-7{fill:#c16425;}.cls-8{fill:#535b48;}</style></defs><title>chimera</title><g id="Layer_2" data-name="Layer 2"><g id="Layer_1-2" data-name="Layer 1"><path d="M104.19,26.45a17.39,17.39,0,0,1,6,9.31c1.19,4.7.35,9.65.66,14.48a4.23,4.23,0,0,0,.64,2.33,3.21,3.21,0,0,0,1.91,1.08c3.2.69,6.32-1.63,8.15-4.34a17.24,17.24,0,0,0,2.89-10.41,13.72,13.72,0,0,0-1.7-6.11,22.16,22.16,0,0,0-2.25-3.11,15.46,15.46,0,0,0-4.42-4.19,12.62,12.62,0,0,0-6.94-1"/><rect class="cls-1" x="100.45" y="27.59" width="16.22" height="5.28" rx="2.17" transform="translate(5.2 -14.67) rotate(7.92)"/><path class="cls-1" d="M120.44,47.15l-13,3.37a1.75,1.75,0,0,1-2.2-1.11l-.51-1.95a1.75,1.75,0,0,1,1.38-2,27.79,27.79,0,0,0,7.2-1,28.14,28.14,0,0,0,5.75-2.34,2,2,0,0,1,1.39.13,1.53,1.53,0,0,1,.81,1l.51,1.94A1.76,1.76,0,0,1,120.44,47.15Z"/><path class="cls-1" d="M62.41,269.23h0a4.69,4.69,0,0,0-4.7,4.7v17.93a4.7,4.7,0,0,0,4.7,4.7h0a4.7,4.7,0,0,0,4.69-4.7l-1.71-20.49C65.39,268.77,65,269.23,62.41,269.23Z"/><path class="cls-1" d="M62.41,269.23h0a4.69,4.69,0,0,0-4.7,4.7v17.93a4.7,4.7,0,0,0,4.7,4.7h0a4.7,4.7,0,0,0,4.69-4.7l-1.71-20.49C65.39,268.77,65,269.23,62.41,269.23Z"/><path class="cls-2" d="M203.6,11.47c5,4.12,11.45,6.1,17.69,8a65.27,65.27,0,0,0,7.27,1.9c7.09,1.28,14.36.18,21.47-.94-1.07,2.46-3.79,3.72-6.34,4.57a51,51,0,0,1-15.78,2.56,77.23,77.23,0,0,1-8.73-.57c-8.64-1-17.89-3.09-23.55-9.7Z"/><path class="cls-2" d="M187.12,2.41a41.6,41.6,0,0,1,28.7.29c2.45.94,4.81,2.11,7.28,3a66.71,66.71,0,0,0,7.51,2.07,109.38,109.38,0,0,0,16.7,3c9.92.74,19.86-1.23,29.41-4a4.3,4.3,0,0,1-2.44,3c-1.19.63-2.52,1-3.75,1.5a35.83,35.83,0,0,0-4.2,2.51,25.67,25.67,0,0,1-15,3.68,51.53,51.53,0,0,1-5.92-.88l-5.66-1.07c-6.28-1.18-12.57-2.36-18.93-3-4.19-.44-8.4-.66-12.62-.87l-21.07-1.08Z"/><path d="M496.41,368.13a17.46,17.46,0,0,0-17,5.89c-3.81,4.69-4.86,11-5.77,17l35.28,1.82a3.18,3.18,0,0,0,1.76-.24,3.14,3.14,0,0,0,1-1.13l5-7.9a3,3,0,0,0,.54-1.19,2.79,2.79,0,0,0-.29-1.44c-2.09-4.89-7.19-7.76-12.21-9.48Z"/><path d="M365.35,366.11c-5.84-.51-11.51,2.67-15.43,7s-6.41,9.77-8.84,15.1a2.25,2.25,0,0,0-.29,1.2c.12.81,1,1.19,1.8,1.47a26.2,26.2,0,0,1,7.19,4,40.4,40.4,0,0,0,4.62,3.54,22.46,22.46,0,0,0,3.25,1.44l10.09,3.86a2.32,2.32,0,0,0,1,.22,2.36,2.36,0,0,0,1-.41c5.58-3.58,8.38-10.11,10.87-16.25a5.61,5.61,0,0,0,.57-2.46,5.41,5.41,0,0,0-.82-2.14l-4.71-8.52Z"/><path class="cls-3" d="M428.4,305.2c17.07.36,34.56,4.87,47.78,15.69s21.35,28.64,17.76,45.34c-.5,2.32-1.15,5,.29,6.89,2.42,3.18,7.66.86,11.39,2.33,3.44,1.35,4.69,5.51,5.29,9.17a4.82,4.82,0,0,0,1.31,3.13,4.09,4.09,0,0,0,1.5.68c5.8,1.63,12,.11,17.69-1.83,3.21-1.08,6.72-2.63,8-5.79,1.07-2.76,0-5.86-1.12-8.59-6.45-15.41-16.41-29.74-18.61-46.29-.91-6.84-.45-13.8-1.26-20.65s-3.16-13.92-8.45-18.34c-2.91-2.42-6.5-3.87-10-5.32-8.51-3.54-17-7.4-24.12-13.32s-12.61-14.19-13.4-23.38c-.29-3.49-.18-7.63-3-9.71a10.22,10.22,0,0,0-4.91-1.47c-5.54-.65-11.35-1.28-16.52.8s-8.82,6.42-11.63,11.1C415.9,263,417,286.63,429,303"/><path class="cls-4" d="M171.64,129.73a97.5,97.5,0,0,0-.74-18,11.57,11.57,0,0,1-5.74,4.86,79.25,79.25,0,0,0,3.09-13.79,28.33,28.33,0,0,1-6.45,8l1.14-12.89a9,9,0,0,0-.31-4.26c-1.16-2.78-4.74-3.76-6.34-6.32a17.45,17.45,0,0,1-2.18,9.62A37.12,37.12,0,0,0,150,76.51c-.32,4.71-.95,10-4.68,12.89A97.24,97.24,0,0,0,144.71,69c-.24-1.73-.61-3.61-1.91-4.78a7.78,7.78,0,0,0-3.67-1.51l-7.37-1.66a1.74,1.74,0,0,0-1.4.09,1.76,1.76,0,0,0-.51,1.4,67.15,67.15,0,0,1-3.74,18.37,53.47,53.47,0,0,1-.79-10.87c-.71,10-8.91,18.3-9.72,28.3l-.49-7.72A13.5,13.5,0,0,1,105.65,94c4.77-5,9.88-10.78,9.55-17.67A6,6,0,0,1,109,81.82a31.6,31.6,0,0,0,.85-18.39,5.72,5.72,0,0,1-3.15,4.74c.65-2.27,1.28-4.79.23-6.9-.63-1.27-1.78-2.21-2.52-3.42-1.19-2-1.17-4.37-1.12-6.66,0-1,.16-2.26,1.07-2.76a3,3,0,0,1,1.42-.23c4.12.07,8.78.7,11.83-2.06,3.53-3.19,2.48-9.41-1-12.6s-8.56-4-13.31-4.14c-1.23,0-2.62-.09-3.45-1A4.22,4.22,0,0,1,99,25.63a40.7,40.7,0,0,1,.31-6.53,6.3,6.3,0,0,1,1.08-3.18c.71-.89,2.06-2.22,3-1.61l4.29-1c29.63,1.56,51.46-12.19,81.13-11.87,1.71,1.57-1.1,5,.54,6.6a3.31,3.31,0,0,0,1.89.73L205.6,11A21.56,21.56,0,0,1,198.52,20c-3.2,2.14-7.5,2.91-11,1.23l28.82,33.64c10.61,12.39,21.5,25,35.59,33.23,3.68,2.15,7.62,4,10.56,7.11,4,4.14,33,28.44,37,32.5l29,5.28c6.58-.51,13.18-.47,19.77-.42,9.74.07,19.7.18,28.84,3.54,4.21,1.54,8.38,3.8,12.85,3.5l8.05,2.55a183.58,183.58,0,0,1,32.58,16.06,37.71,37.71,0,0,1,8.57,6.68c2.76,3.13,4.53,7,6.43,10.7a139.13,139.13,0,0,0,10.52,17.29A142.52,142.52,0,0,0,500,233a127.57,127.57,0,0,0,32.32,13.54c4.82,1.25,9.71,2.18,14.6,3.12l20.84,4,15,1.09c-19.14,7.82-42.16,11.94-62.56,8.58a224,224,0,0,1-22.7-5.36l-10.5-2.87a49.38,49.38,0,0,1-9.87-3.46c-4.41-2.29-8-5.85-12-8.79s-8.83-5.34-13.77-4.74l-13.66,5.79-4.84,14.55c-3.48,10.46-6.95,22-2.88,32.23,2.58,6.5,7.93,11.55,13.84,15.29,4.48,2.83,9.89,5.71,10.91,10.92.71,3.6-1,7.21-2.77,10.43a145,145,0,0,1-12.83,19.43c-3.78,4.84-7.87,9.44-12,14q-8.23,9-16.82,17.62c-6.76,6.79-14,13.63-23.07,16.69-3.36,1.14-7.14,1.7-10.4.29-4-1.74-6.26-6-8.2-9.91l-7-14.23c-.66-1.35-1.34-2.88-.82-4.29.65-1.8,2.84-2.4,4.69-2.9,12.25-3.3,22.09-12.57,29.5-22.87a62.08,62.08,0,0,0,5.55-9,44.07,44.07,0,0,0,2.68-7,6.17,6.17,0,0,0,.32-3.11,6.06,6.06,0,0,0-1.28-2.31c-7.85-9.88-21-13.34-32.4-18.79a20.25,20.25,0,0,1-7.11-4.93c-2-2.39-2.87-5.45-3.73-8.42q-2.73-9.48-5.38-19v-7.17a17,17,0,0,0-6.35-1.63c-8.17-1-16.39-2-24.62-1.7s-16.54,1.79-23.85,5.58c-2.56,1.33-5,2.93-7.58,4.18-11.26,5.41-24.56,3.73-36.74,1a49.91,49.91,0,0,1-8.74-2.6l-2.63-2.62c-2.38-.87-3.07-3.8-4.16-6.08-1.19-2.5-3.16-4.53-4.92-6.68-3.88-4.75-6.81-10.19-9.69-15.6q-26.53-49.83-51.27-100.6Z"/><path class="cls-1" d="M57.71,293.63a12,12,0,0,0,3.22,1.61c5.25,1.68,10-.89,11.29-1.61a11,11,0,0,1-6.45,4.84,10.86,10.86,0,0,1-7-.54Z"/><path class="cls-1" d="M87.34,286.35a12.1,12.1,0,0,1-2.15,2.9c-3.91,3.88-9.35,3.76-10.79,3.69a11,11,0,0,0,7.94,1.38,10.9,10.9,0,0,0,6-3.65Z"/><path class="cls-1" d="M86.48,282.93a11.85,11.85,0,0,1-2.14,2.9c-3.91,3.88-9.35,3.77-10.79,3.69a11,11,0,0,0,7.94,1.38,10.85,10.85,0,0,0,6-3.65Z"/><path class="cls-1" d="M62.41,269.23h0a4.69,4.69,0,0,0-4.7,4.7v17.93a4.7,4.7,0,0,0,4.7,4.7h0a4.7,4.7,0,0,0,4.69-4.7l-1.71-20.49C65.39,268.77,65,269.23,62.41,269.23Z"/><path class="cls-1" d="M81.5,264.47h0a4.27,4.27,0,0,0-2.92,2.09,4.12,4.12,0,0,0-.38,2.67,58.48,58.48,0,0,1,2.56,8.54,58.88,58.88,0,0,1,1.32,9.8,4.8,4.8,0,0,0,2.09,2.92,4.68,4.68,0,0,0,3.55.58h0a4.69,4.69,0,0,0,3.5-5.64L84.9,265.87C84.31,263.34,84,263.88,81.5,264.47Z"/><path class="cls-5" d="M105.2,264.29a49.44,49.44,0,0,1-13.63,27.36c-2.08,2.11-4.34,4-6.6,5.93l-40.27,34a66.77,66.77,0,0,0-7.57,7.08C25,352.61,25.43,374.37,13.28,388.3c-3.3,3.77-7.71,7.51-7.57,12.52a3.86,3.86,0,0,0,.65,2.2c.82,1.1,2.35,1.33,3.71,1.45A87.84,87.84,0,0,0,35.29,403a10.43,10.43,0,0,0,4.62-1.81,10.28,10.28,0,0,0,2.85-5c2.74-8.61,3.55-17.73,5.94-26.45s6.73-17.47,14.44-22.19a45.85,45.85,0,0,1,5.48-2.73l34.27-15.25c12.61-5.62,25.41-11.35,35.93-20.28s18.62-21.69,18.75-35.5c-10.1-3.41-21.87-.58-31.27-5.61-5.24-2.81-10.35-8.09-16-6.38"/><path class="cls-6" d="M159.56,133.39a57.67,57.67,0,0,1,11.12-2.5,19.36,19.36,0,0,1,11.08,2,28.88,28.88,0,0,1,6.06,5l8.63,8.52,5.06,3.73,10.1,7.46a67,67,0,0,0,6.83,4.62,65.82,65.82,0,0,0,9,3.93c12.25,4.64,25.37,9.91,32.37,21,1.38,2.17,2.47,4.51,3.89,6.65,3.43,5.18,8.55,8.93,13,13.29s8.36,9.89,8.28,16.09a14.41,14.41,0,0,1-4.85,10.51,36.89,36.89,0,0,0-4.2,3.56c-1.56,1.83-2.21,4.24-2.81,6.57l-2.19,8.38c-1.38,5.29-2.88,10.81-6.6,14.81-3.15,3.39-7.61,5.33-12.15,6.23a66.56,66.56,0,0,1-13.83.78l.63.18c-2.86,8-5.75,16.13-10,23.51-2.75,4.76-6,9.17-9.12,13.74-9.65,14.34-17,30.07-24.77,45.51-3.84,7.62-8.09,15.52-15.25,20.14-4.51,2.9-10.54,5.05-11.75,10.28-.47,2-.06,4.17-.47,6.21-.65,3.34-3.42,6-6.56,7.26a25.88,25.88,0,0,1-10,1.47A99.3,99.3,0,0,1,135.66,401c-3.39-.53-6.91-1.24-10.18-.22-2.58.81-4.74,2.61-7.27,3.55a11.6,11.6,0,0,1-15.27-13.75,8.71,8.71,0,0,1,2.78-4.61,13.86,13.86,0,0,1,5.34-2.25L129,379c4.47-1.17,9-2.38,12.92-4.85,6.25-4,10.13-10.7,13.28-17.39,9.47-20.11,14.69-42.34,27.05-60.82,1.85-2.78,4-5.86,3.38-9.15-.52-2.93-3.16-5.12-6-6s-5.89-.68-8.86-.48L131.57,222.7Z"/><path class="cls-6" d="M16.27,234.42a59.76,59.76,0,0,0,19.09-3.48,32.25,32.25,0,0,1,5.41-1.68,26,26,0,0,1,6.59,0l13.54,1.25c5.24.49,10.52,1,15.54,2.53a38.21,38.21,0,0,1,14.38,8.23,19.52,19.52,0,0,1,4.71,6C97.19,251,97.1,255.1,97,259.09l-.88,27a6,6,0,0,1-.43,2.49,5.55,5.55,0,0,1-1.3,1.56,35.8,35.8,0,0,1-6.5,4.78,2.36,2.36,0,0,1-2,.43c-.82-.35-1-1.43-1-2.33-.31-8,0-16.36-3.77-23.36-1.17-2.16-3.18-4.34-5.63-4.08-3.61.38-5,5.55-8.54,6.35-1.09.25-2.36.07-3.21.8a3.67,3.67,0,0,0-.91,2.65,58.1,58.1,0,0,0,.73,12.84,27.58,27.58,0,0,1,.69,6.45,7.05,7.05,0,0,1-2.87,5.56c-1.77,1.13-4,1.06-6.12,1L45,300.62a8.57,8.57,0,0,1-4.77-1.2,8.66,8.66,0,0,1-2.22-3,24,24,0,0,1-3-7.56c-.42-2.73.11-5.56-.4-8.28-1.23-6.62-8.1-10.85-10.13-17.27a36.6,36.6,0,0,1-1-5.41,38.17,38.17,0,0,0-9.71-19.76Z"/><path class="cls-7" d="M174.27,127l-10.84,1.23c-2.1.24-5.26-.84-4.36-2.76a25.45,25.45,0,0,1-12.38,6.56l-.56-6.45a44.15,44.15,0,0,1-23.22,3.48,12,12,0,0,0,.27-8.6,35.09,35.09,0,0,1-21.3,8.08,12.5,12.5,0,0,1-6.27-1.11,5.54,5.54,0,0,1-3.1-5.21c-3.61,5.44-10.52,7.56-17,8.7s-13.28,1.8-18.61,5.59l.12-2.9-8.43,7.88a9.3,9.3,0,0,0,1.69-4.48c-5.25.24-10,3.59-13.11,7.79s-5,9.22-6.8,14.15l-.83-7.88a219.24,219.24,0,0,1-12.77,31.3,5.28,5.28,0,0,0-3.94-3.4,64.57,64.57,0,0,1-3.39,16.77,4,4,0,0,1-2.55-4.35l.74,16.34a8.56,8.56,0,0,1-3.56-5.94l.67,16.26L0,215.41l7.25,11.84-5.63-.82,5.06,7.62a11.24,11.24,0,0,0-6.4-1.14,27.78,27.78,0,0,0,11.45,12.52c1.5.85,3.48,1.52,4.85.48A6.15,6.15,0,0,0,18,243.77a11.8,11.8,0,0,1,12-5.91l12.13,2.43,16.12,5c6.22,1.95,12.51,3.93,18,7.35s10.34,8.51,12.06,14.79c1.09,4,.88,8.3,1.79,12.37a23.38,23.38,0,0,0,15.62,16.93,61.45,61.45,0,0,0-4.24-9.35,13.6,13.6,0,0,0,6.55,6.76c1.25-1.79.27-4.22-.72-6.16L99,271.66c1.6,2.63,4.36,5.67,7.16,4.4,2-.91,2.49-3.66,1.65-5.66s-2.64-3.43-4.36-4.76l18.3,11c3.2,1.92,6.51,3.94,8.56,7,2.21,3.37,3.14,8.11,6.87,9.61a91.41,91.41,0,0,0,1.72-14c2.31-.24,4.32,1.43,6.5,2.24s5.48,0,5.38-2.34a87.18,87.18,0,0,0,19.4,13.27c1.28.65,3,1.18,4,.1s.38-2.39-.21-3.49a18.36,18.36,0,0,0-5.66-6.32,13.5,13.5,0,0,0,13.21.57,2.27,2.27,0,0,0,.91-.73c.66-1.1-.66-2.28-1.76-2.93a32.68,32.68,0,0,1-15.28-22.74,6.54,6.54,0,0,0,5.43,1.48c-6-2.87-9.73-9.29-11-15.84s-.54-13.31.22-19.94a5.15,5.15,0,0,0,6.19,3.51c-2.74-2.54-3.07-6.69-3.1-10.43A173.13,173.13,0,0,1,164.69,191a34.4,34.4,0,0,0,5.85,11.54l3.17-23.39c.73,6.31,11,7.46,12.44,13.65a5.55,5.55,0,0,0-1.59-7.08l9.79,8.33a8.23,8.23,0,0,0,.5-5.42,12.29,12.29,0,0,0,5.58,7.51c-.12-6.78-.62-13.71-3.23-20-2.7-6.45-7.46-11.76-11.35-17.57-5.29-7.91-9-17-9.82-26.49Z"/><path class="cls-6" d="M27,215.75c.1-2.92-.33-5.86,0-8.76s1.67-5.92,4.26-7.26a8.36,8.36,0,0,1,6.28-.25,24.59,24.59,0,0,1,5.7,3l5.78,3.7a6.37,6.37,0,0,1,2.78,2.75l-4,0a22,22,0,0,0-6.37.66c-4.13,1.26-7.22,4.8-11.27,6.26Z"/><path class="cls-1" d="M205.34,132.09a14.42,14.42,0,0,0-2.4,3.66c-2.77,6.09-.35,12.24.35,13.85a13.4,13.4,0,0,1-4.92-8.47,13.22,13.22,0,0,1,1.63-8.35Z"/><path class="cls-1" d="M210.83,133.74a14.42,14.42,0,0,0-2.4,3.66c-2.77,6.08-.35,12.23.34,13.84a13.38,13.38,0,0,1-4.92-8.46,13.24,13.24,0,0,1,1.64-8.36Z"/><path d="M196,133.46l70,20.5a74.42,74.42,0,0,1-29,23,73,73,0,0,1-23.9,6c5.23-2.8,10.66-5.92,16.22-9.39a277.1,277.1,0,0,0,26.47-18.79,99.1,99.1,0,0,1-36.72-7.68A98.11,98.11,0,0,1,196,133.46Z"/><path class="cls-8" d="M383.32,140.66c12.23,2.76,29.9,6.51,40.24,13.59,6.88,4.72,12.45,11.1,17.5,17.74,15.13,19.9,26.68,43.31,46.78,58.18,16.44,12.16,37,17.29,57.13,20.68q12.94,2.18,26,3.54c4.49.46,9,.86,13.49,0,12.87-2.41,21.64-14.31,27.52-26,14.2-28.25,19.31-60.49,18.17-92.09-.42-11.42-1.67-23-6.17-33.52C619.4,92,611.61,82.93,603.93,74.06,588,55.63,570.81,36.49,547.67,28.85c-8.78-2.89-18-4-27.28-4.51C482.91,22.19,441.84,31,417.88,59.85,411,68.16,405.81,77.79,398.83,86c-9.56,11.3-22.12,19.57-34.49,27.69-13,8.49-26.57,13-42,14.58-11.14,1.17-22.29,1.07-33.17-1.57l-10.19-1a48.82,48.82,0,0,1-5.8.36q-22.74.51-45.5-.06c-3.62-.09-7.25-.2-10.87,0a63.92,63.92,0,0,0-24.29,6.29c2.55,2.8,6.73,3.2,10.3,4.48,4.31,1.56,8,4.55,12.18,6.34,5.38,2.29,24.06,7.14,27.75,8.15a51.51,51.51,0,0,0,8.66,1.35q5.06.48,10.13.85-10.06,8.37-20.67,16.08c-6.24,4.53-12.74,8.94-20.08,11.3A58.74,58.74,0,0,1,208,183.25a62.14,62.14,0,0,0,15.49,2.91c6.35.21,12.63-1.16,18.84-2.51,3.52-.77,7.05-1.54,10.48-2.63,3.89-1.22,7.65-2.85,11.53-4.08,10.48-3.32,20.09-4.62,31.75-5.77l9-1.13c20.36-2.85,42.06-7.92,61.63-17.68,12-6,23.64-12.91,33.84-21.63,9.23-7.88,17.18-17.11,25.52-25.92a381.85,381.85,0,0,1,28.31-27c9.71-8.36,20.54-16.53,33.26-18.11s25-2.37,37.46.37c5.5,1.21,25.53,14.74,29.81,17.62,8.89,6,18,12.14,24,21A61.71,61.71,0,0,1,585,111.13a121.54,121.54,0,0,1,1.56,81.28c-3.32,9.83-8.49,19.85-17.66,24.69-8.13,4.29-17.86,3.72-27,3-11.05-.82-22.39-1.72-32.39-6.48a58,58,0,0,1-14.28-10c-17.7-16.41-27.42-41.64-48.63-53.16-15.66-8.5-33.59-15.94-48.22-24.17"/></g></g></svg>