<svg xmlns="http://www.w3.org/2000/svg" viewBox="0 0 385.51 194.57"><defs><style>.cls-1{opacity:0.1;}.cls-2{fill:#fff;}.cls-3{fill:#0054a4;}</style></defs><title>cloud3</title><g id="Layer_2" data-name="Layer 2"><g id="Layer_1-2" data-name="Layer 1"><path class="cls-1" d="M385.51,143.92c0,20-10.79,37.35-26.45,45.56,0,0,0,0,0,0a43.93,43.93,0,0,1-20.5,5.07H60.37a30.22,30.22,0,0,1-12.51-2.68,51.55,51.55,0,1,1,36.6-95.57,59,59,0,0,1,91.63-34.08C187.16,30.49,218.51,7.6,255.46,7.6c46.19,0,83.64,35.77,83.64,79.89,0,1.94-.07,3.87-.21,5.78C364.67,93.47,385.51,116.06,385.51,143.92Z"/><path class="cls-2" d="M376.79,136.32c0,20-10.79,37.36-26.45,45.56,0,0,0,0,0,0a43.94,43.94,0,0,1-20.5,5.08H51.65a30.33,30.33,0,0,1-12.5-2.68A51.56,51.56,0,1,1,75.74,88.73a59.07,59.07,0,0,1,91.64-34.09C178.44,22.89,209.79,0,246.74,0c46.19,0,83.64,35.77,83.64,79.89,0,2-.07,3.87-.21,5.78C356,85.87,376.79,108.46,376.79,136.32Z"/><path class="cls-3" d="M133.92,82.05,132,112.2l-9.37.41.08-15.9-4.23,12.82H114.9l-3.25-11.46,0,13.31-9.49.28.42-28.38,10.55-.41,4.19,13.6,5.59-14.42Z"/><path class="cls-3" d="M158.13,95.4a25.21,25.21,0,0,1-.25,3.57c-2.34.15-4.67.4-7,.73l-6.94,1a5.08,5.08,0,0,0,1.67,2.36,4.31,4.31,0,0,0,2.72.88,5.87,5.87,0,0,0,1.8-.31,13.73,13.73,0,0,0,1.94-.77c.64-.3,1.26-.64,1.85-1s1.09-.68,1.52-1l-1,9.33a8.64,8.64,0,0,1-1.73,1,12.14,12.14,0,0,1-1.94.7,14.12,14.12,0,0,1-2,.39,17.23,17.23,0,0,1-2,.13,11.85,11.85,0,0,1-3.72-.56,11.1,11.1,0,0,1-3.05-1.55,11.57,11.57,0,0,1-2.39-2.35,14,14,0,0,1-1.7-3,17.1,17.1,0,0,1-1-3.39,19,19,0,0,1-.35-3.61,21.37,21.37,0,0,1,.35-3.82,19,19,0,0,1,1.06-3.68,15.62,15.62,0,0,1,1.78-3.27,12.64,12.64,0,0,1,2.52-2.64,11.15,11.15,0,0,1,3.26-1.77,12.13,12.13,0,0,1,4-.64,10.4,10.4,0,0,1,3.34.51,9.39,9.39,0,0,1,2.69,1.39,9.88,9.88,0,0,1,2,2.13A12.44,12.44,0,0,1,157,89a15.54,15.54,0,0,1,.84,3.1A19.32,19.32,0,0,1,158.13,95.4Zm-8.22-1.07a6.06,6.06,0,0,0-.12-1.18,3.61,3.61,0,0,0-.4-1.1,2.37,2.37,0,0,0-.73-.81,1.93,1.93,0,0,0-1.13-.32,2.49,2.49,0,0,0-1.45.44A4.53,4.53,0,0,0,145,92.47a6.39,6.39,0,0,0-.74,1.45,10.44,10.44,0,0,0-.44,1.44l6.08-.58Z"/><path class="cls-3" d="M182.38,95.4a25.21,25.21,0,0,1-.25,3.57c-2.34.15-4.66.4-7,.73l-6.94,1a5.17,5.17,0,0,0,1.68,2.36,4.27,4.27,0,0,0,2.72.88,5.86,5.86,0,0,0,1.79-.31,13.73,13.73,0,0,0,1.94-.77,20.28,20.28,0,0,0,1.85-1c.59-.36,1.1-.68,1.52-1l-1,9.33a9,9,0,0,1-1.74,1,11.79,11.79,0,0,1-1.94.7,14.25,14.25,0,0,1-2,.39,17.52,17.52,0,0,1-2,.13,11.81,11.81,0,0,1-3.72-.56,11,11,0,0,1-3-1.55,11.62,11.62,0,0,1-2.4-2.35,14,14,0,0,1-1.7-3,17.79,17.79,0,0,1-1-3.39,19,19,0,0,1-.34-3.61,21.36,21.36,0,0,1,.34-3.82,19.7,19.7,0,0,1,1.06-3.68A15.21,15.21,0,0,1,162,87.3a12.59,12.59,0,0,1,2.51-2.64,11.28,11.28,0,0,1,3.26-1.77,12.17,12.17,0,0,1,4-.64,10.36,10.36,0,0,1,3.34.51,9.26,9.26,0,0,1,2.69,1.39,9.92,9.92,0,0,1,2.06,2.13,12,12,0,0,1,1.43,2.7,15.54,15.54,0,0,1,.84,3.1A19.32,19.32,0,0,1,182.38,95.4Zm-8.21-1.07a5.4,5.4,0,0,0-.13-1.18,3.61,3.61,0,0,0-.4-1.1,2.27,2.27,0,0,0-.73-.81,1.91,1.91,0,0,0-1.13-.32,2.45,2.45,0,0,0-1.44.44,4.39,4.39,0,0,0-1.08,1.11,6.83,6.83,0,0,0-.74,1.45,10.31,10.31,0,0,0-.43,1.44l6.08-.58Z"/><path class="cls-3" d="M205.46,83l-.2,8.7-6.12.25-.74,19.06-8.67.45L189,92.44l-6.12.33.25-9.69Z"/><path class="cls-3" d="M236.6,83l-.21,8.7-6.12.25-.74,19.06-8.66.45-.78-19.06-6.12.33.24-9.69Z"/><path class="cls-3" d="M262.15,111.17l-10.27.49L251.8,103h-4.73l-.28,9h-9.21l.79-28.87,9.77.45-.62,14.74h4.56l0-15.44,9.37.25Z"/><path class="cls-3" d="M287,95.4a25.21,25.21,0,0,1-.25,3.57c-2.34.15-4.67.4-7,.73l-6.94,1a5.08,5.08,0,0,0,1.67,2.36,4.31,4.31,0,0,0,2.72.88,5.87,5.87,0,0,0,1.8-.31,13.73,13.73,0,0,0,1.94-.77c.64-.3,1.26-.64,1.85-1s1.09-.68,1.52-1l-1,9.33a8.64,8.64,0,0,1-1.73,1,12.14,12.14,0,0,1-1.94.7,14.12,14.12,0,0,1-2,.39,17.23,17.23,0,0,1-2,.13,11.85,11.85,0,0,1-3.72-.56,11.1,11.1,0,0,1-3.05-1.55,11.57,11.57,0,0,1-2.39-2.35,14,14,0,0,1-1.7-3,16.46,16.46,0,0,1-1-3.39,19,19,0,0,1-.35-3.61,21.37,21.37,0,0,1,.35-3.82,19,19,0,0,1,1.06-3.68,15.17,15.17,0,0,1,1.78-3.27,12.64,12.64,0,0,1,2.52-2.64,11.23,11.23,0,0,1,3.25-1.77,12.24,12.24,0,0,1,4-.64,10.4,10.4,0,0,1,3.34.51,9.39,9.39,0,0,1,2.69,1.39,9.88,9.88,0,0,1,2,2.13A12.44,12.44,0,0,1,285.9,89a16.24,16.24,0,0,1,.84,3.1A19.32,19.32,0,0,1,287,95.4Zm-8.22-1.07a6.06,6.06,0,0,0-.12-1.18,3.89,3.89,0,0,0-.4-1.1,2.48,2.48,0,0,0-.73-.81,1.93,1.93,0,0,0-1.13-.32,2.49,2.49,0,0,0-1.45.44,4.75,4.75,0,0,0-1.08,1.11,6.8,6.8,0,0,0-.73,1.45,10.44,10.44,0,0,0-.44,1.44l6.08-.58Z"/><path class="cls-3" d="M128.8,120.53c-.11,1.76-.22,3.5-.31,5.22s-.22,3.47-.36,5.23l-11.92.62v3.54h10.34l-.56,8.7-9.83.29,0,15.5-14.21.28.9-39.38Z"/><path class="cls-3" d="M162.2,158.06l-13.94,1.8-1.68-6.35h-6.41l-1.4,6.35-14.33-1.41L135.62,121l15.62-.79Zm-16.63-13.15-2.14-9.77-2.08,9.77Z"/><path class="cls-3" d="M211.89,141.43c0,2.68-.09,5.35-.25,8s-.37,5.33-.59,8l-14.44.67c.43-3.25.82-6.52,1.16-9.79a92,92,0,0,0,.52-9.81q0-.31,0-1.08c0-.52,0-1.1-.09-1.76s-.12-1.33-.2-2a16.37,16.37,0,0,0-.34-1.93,5.63,5.63,0,0,0-.52-1.45.86.86,0,0,0-.73-.56,1.83,1.83,0,0,0-1.54.74,4.93,4.93,0,0,0-.83,1.79,10.06,10.06,0,0,0-.32,2.12c0,.72-.06,1.3-.06,1.75,0,.79,0,1.57.06,2.36s.05,1.59.05,2.42q0,4.35-.21,8.68t-.52,8.68l-13.31.5q.65-4.89,1.13-9.76a96.8,96.8,0,0,0,.5-9.79c0-.2,0-.58,0-1.12s-.05-1.15-.1-1.83-.12-1.37-.21-2.1a19.85,19.85,0,0,0-.35-2,6.77,6.77,0,0,0-.52-1.51c-.21-.39-.46-.59-.76-.59a1.52,1.52,0,0,0-1.18.55,4.25,4.25,0,0,0-.77,1.42,10.32,10.32,0,0,0-.45,1.93c-.1.7-.18,1.39-.23,2.06s-.07,1.3-.08,1.87,0,1,0,1.28l-.62,20.5H161.83c.3-3.16.61-6.34.91-9.52s.59-6.36.82-9.54.43-6.35.57-9.53.23-6.37.23-9.55l13.37-.57,0,3.26a19.46,19.46,0,0,1,1.4-1.59,12.51,12.51,0,0,1,1.67-1.43,8.8,8.8,0,0,1,1.88-1,5.48,5.48,0,0,1,2.07-.4,13.23,13.23,0,0,1,2.47.21,6.57,6.57,0,0,1,2,.72,5.25,5.25,0,0,1,1.56,1.39,8.94,8.94,0,0,1,1.18,2.23c.6-.65,1.2-1.26,1.81-1.82a11.81,11.81,0,0,1,1.92-1.45,9.19,9.19,0,0,1,4.81-1.28,9.49,9.49,0,0,1,4.63,1.06,9.63,9.63,0,0,1,3.19,2.79,13.83,13.83,0,0,1,2,4,31.94,31.94,0,0,1,1.08,4.66,46.54,46.54,0,0,1,.46,4.81C211.86,138.64,211.89,140.1,211.89,141.43Z"/><path class="cls-3" d="M229.11,120.92l-2,38.26-11.85.62-1.13-38.09Z"/><path class="cls-3" d="M256,145.59l-1.18,12.47-23.65,1.85.89-40.11h14.61l-2.08,25.79Z"/><path class="cls-3" d="M287.51,122.44,274.3,144l.4,15.9H260.26l.34-15.78-10.29-20.85,14.33-1.79,4.49,12.13L274,121.49Z"/></g></g></svg>