<svg xmlns="http://www.w3.org/2000/svg" viewBox="0 0 358.98 215.88"><defs><style>.cls-1{opacity:0.1;}.cls-2{fill:#fff;}.cls-3{fill:#0054a4;}</style></defs><title>cloud2</title><g id="Layer_2" data-name="Layer 2"><g id="Layer_1-2" data-name="Layer 1"><path class="cls-1" d="M359,113.05a40.29,40.29,0,0,1-30.6,39.12,23.79,23.79,0,0,1-9.78,2.09h-4.44a53.62,53.62,0,0,1-80,31.64A49.16,49.16,0,0,1,143,184.26a60.53,60.53,0,0,1-98.3-32.1A28.44,28.44,0,1,1,28.9,97.51a47.94,47.94,0,0,1,76.74-50.68c9.78-22.71,33.17-38.71,60.48-38.71,28.88,0,53.39,17.89,62,42.71a46.16,46.16,0,0,1,71.62,26.64A40.3,40.3,0,0,1,359,113.05Z"/><path class="cls-2" d="M350.85,104.93A40.28,40.28,0,0,1,320.25,144a23.59,23.59,0,0,1-9.77,2.1H306a53.62,53.62,0,0,1-80,31.64,49.17,49.17,0,0,1-91.2-1.64A60.53,60.53,0,0,1,36.53,144,28.43,28.43,0,1,1,20.78,89.39,47.93,47.93,0,0,1,97.51,38.71C107.29,16,130.69,0,158,0c28.88,0,53.38,17.89,62,42.7a46.16,46.16,0,0,1,71.62,26.65,40.3,40.3,0,0,1,59.2,35.58Z"/><path class="cls-3" d="M107.81,75.63l-2,32.19-10,.44.09-17L91.37,105H87.51L84,92.74l0,14.2-10.13.31L74.31,77l11.27-.44L90.05,91l6-15.39Z"/><path class="cls-3" d="M136.45,77.91,126.14,94.75l.31,12.41H115.18l.26-12.32-8-16.27,11.18-1.4,3.51,9.47,3.81-9.47Z"/><path class="cls-3" d="M159.82,76.69,159.6,86l-6.53.26-.79,20.35-9.26.48-.83-20.34-6.53.35.26-10.35Z"/><path class="cls-3" d="M187.09,106.72l-11,.53L176,98h-5l-.31,9.6h-9.82l.83-30.83,10.44.49L171.48,93h4.87l0-16.49,10,.26Z"/><path class="cls-3" d="M200.62,76.73l-1.53,29.86-9.25.48L189,77.34Z"/><path class="cls-3" d="M223.32,77.65l-.79,9.25a9.8,9.8,0,0,0-1.25-.24c-.41,0-.83-.06-1.25-.06a11.09,11.09,0,0,0-3,.39,7.36,7.36,0,0,0-2.5,1.21,6,6,0,0,0-1.74,2,6.23,6.23,0,0,0-.64,2.92,5.78,5.78,0,0,0,.36,2.14,3.87,3.87,0,0,0,1,1.51,4.29,4.29,0,0,0,1.62.91,6.74,6.74,0,0,0,2.12.31,8.89,8.89,0,0,0,1.67-.16,13.34,13.34,0,0,0,1.7-.45,14.18,14.18,0,0,0,1.65-.66A14.44,14.44,0,0,0,223.8,96l-.35,10.3a12.71,12.71,0,0,1-1.84.78c-.66.23-1.34.43-2,.6s-1.39.29-2.09.38a15.29,15.29,0,0,1-2,.13,13.62,13.62,0,0,1-5.67-1.16,13.39,13.39,0,0,1-4.38-3.17,14.44,14.44,0,0,1-2.84-4.66,15.83,15.83,0,0,1-1-5.66,21.48,21.48,0,0,1,1-6.71,15.63,15.63,0,0,1,3-5.4,13.91,13.91,0,0,1,4.91-3.6,16.58,16.58,0,0,1,6.72-1.3,20,20,0,0,1,3.07.24A11.11,11.11,0,0,1,223.32,77.65Z"/><path class="cls-3" d="M253.07,105.72l-10.88,1.4-1.31-5h-5l-1.1,5L223.6,106l8.73-29.2,12.19-.62Zm-13-10.27-1.67-7.63-1.62,7.63Z"/><path class="cls-3" d="M272.76,96l-.92,9.74-18.46,1.44.7-31.31h11.4L263.86,96Z"/><path class="cls-3" d="M91.18,115.59l-.69,8.08a7.46,7.46,0,0,0-1.09-.21,10,10,0,0,0-1.1-.06,9.58,9.58,0,0,0-2.59.35,6.59,6.59,0,0,0-2.18,1A5.17,5.17,0,0,0,82,126.59a5.52,5.52,0,0,0-.56,2.56,5,5,0,0,0,.31,1.86,3.45,3.45,0,0,0,.9,1.32,3.8,3.8,0,0,0,1.42.8,6,6,0,0,0,1.85.27,7.29,7.29,0,0,0,1.45-.15,10.36,10.36,0,0,0,1.5-.39,15.21,15.21,0,0,0,1.43-.57q.69-.33,1.29-.69l-.31,9a13.2,13.2,0,0,1-1.61.68,19.27,19.27,0,0,1-3.59.85,13.07,13.07,0,0,1-1.73.11,11.78,11.78,0,0,1-5-1,11.6,11.6,0,0,1-3.83-2.77,12.57,12.57,0,0,1-2.48-4.07,13.7,13.7,0,0,1-.88-4.94,18.59,18.59,0,0,1,.89-5.86,13.66,13.66,0,0,1,2.62-4.72A12.24,12.24,0,0,1,80,115.73a14.3,14.3,0,0,1,5.87-1.14,17.48,17.48,0,0,1,2.68.21A9.49,9.49,0,0,1,91.18,115.59Z"/><path class="cls-3" d="M115.46,123.29a13.26,13.26,0,0,1-.26,2.71,8.12,8.12,0,0,1-.81,2.23A7.93,7.93,0,0,1,113,130.1a12.46,12.46,0,0,1-2.13,1.65l4.56,8.12-8.62,1.69-2.94-8.16-2.38.07-.34,8H92.86c.06-2.91.13-5.81.18-8.69s.13-5.79.2-8.7c0-1.47.05-2.92.08-4.36s.08-2.9.15-4.37A25.37,25.37,0,0,1,98.73,114c.88-.12,1.76-.21,2.66-.25s1.82-.07,2.77-.07a14.5,14.5,0,0,1,4.22.61,10.75,10.75,0,0,1,3.61,1.81,8.72,8.72,0,0,1,3.47,7.2Zm-8.58.61a4.64,4.64,0,0,0-.22-1.48,3.41,3.41,0,0,0-.65-1.15,3.09,3.09,0,0,0-1.07-.77,3.87,3.87,0,0,0-1.51-.28,6,6,0,0,0-.74,0,5.25,5.25,0,0,0-.71.14l-.31,7.13h.46a7,7,0,0,0,1.68-.21,5.23,5.23,0,0,0,1.53-.65,3.74,3.74,0,0,0,1.11-1.13A3,3,0,0,0,106.88,123.9Z"/><path class="cls-3" d="M138,126.27a25.11,25.11,0,0,1-.23,3.34c-2.18.14-4.35.36-6.51.68l-6.47.92a4.75,4.75,0,0,0,1.56,2.21,4,4,0,0,0,2.53.82,5.7,5.7,0,0,0,1.68-.29,14.43,14.43,0,0,0,1.81-.71c.6-.29,1.17-.6,1.72-.93l1.42-.9-.92,8.69a8.84,8.84,0,0,1-1.62,1,12.15,12.15,0,0,1-1.81.65,13.41,13.41,0,0,1-1.89.36,15.19,15.19,0,0,1-1.88.12,11.23,11.23,0,0,1-3.47-.52,10.43,10.43,0,0,1-2.84-1.45,10.76,10.76,0,0,1-2.23-2.19,12.55,12.55,0,0,1-1.59-2.76,16.11,16.11,0,0,1-1-3.16,17.26,17.26,0,0,1-.32-3.37,19.56,19.56,0,0,1,.32-3.56,18,18,0,0,1,1-3.43,14.32,14.32,0,0,1,1.67-3,11.63,11.63,0,0,1,2.34-2.46,10.61,10.61,0,0,1,3-1.65A11.37,11.37,0,0,1,128,114a9.58,9.58,0,0,1,3.11.47,8.42,8.42,0,0,1,2.51,1.3,9.26,9.26,0,0,1,1.92,2,12.13,12.13,0,0,1,1.34,2.52,15,15,0,0,1,.78,2.89A18.77,18.77,0,0,1,138,126.27Zm-7.66-1a5.22,5.22,0,0,0-.12-1.1,3.41,3.41,0,0,0-.37-1,2.23,2.23,0,0,0-.68-.75,1.76,1.76,0,0,0-1-.3,2.32,2.32,0,0,0-1.35.41,4.12,4.12,0,0,0-1,1,6.44,6.44,0,0,0-.69,1.36,9.83,9.83,0,0,0-.4,1.34l5.67-.54Z"/><path class="cls-3" d="M162.3,140.1l-9.5,1.23L151.65,137h-4.36l-1,4.33-9.77-1,7.62-25.51,10.65-.54Zm-11.34-9-1.45-6.67-1.42,6.67Z"/><path class="cls-3" d="M180.63,114.75l-.2,8.11-5.7.23L174,140.87l-8.08.42-.73-17.77-5.71.3.23-9Z"/><path class="cls-3" d="M204.54,114.78q-.85,6.75-1.47,13.42t-1.17,13.43l-7.85.58.34-3a3.85,3.85,0,0,1-.89.76,4.71,4.71,0,0,1-1.08.53,6.67,6.67,0,0,1-1.19.29,6.59,6.59,0,0,1-1.16.06,6.46,6.46,0,0,1-2.45-.5,8.1,8.1,0,0,1-2.11-1.31,10.06,10.06,0,0,1-1.72-1.89,12.29,12.29,0,0,1-1.3-2.28,12.89,12.89,0,0,1-.8-2.44,10.82,10.82,0,0,1-.28-2.41c0-1.15,0-2.34.07-3.58s.12-2.46.24-3.7.26-2.47.45-3.68a32.94,32.94,0,0,1,.7-3.48l4.69.21c1.57.06,3.13.08,4.69,0l-.87,3.35c-.29,1.11-.55,2.24-.78,3.37s-.41,2.26-.55,3.4a28,28,0,0,0-.21,3.44c0,.27,0,.65,0,1.15a8.23,8.23,0,0,0,.2,1.48,4,4,0,0,0,.49,1.27,1.07,1.07,0,0,0,1,.55,1.71,1.71,0,0,0,1.3-.63,5.61,5.61,0,0,0,1-1.67,15.56,15.56,0,0,0,.75-2.43c.22-.92.39-1.88.54-2.89s.27-2,.36-3,.15-2,.2-2.88.07-1.71.09-2.43,0-1.27,0-1.66,0-.51,0-.75,0-.49-.06-.75l2.48.06,2.46,0h1.93C203.24,114.84,203.89,114.82,204.54,114.78Z"/><path class="cls-3" d="M228.14,123.29a13.26,13.26,0,0,1-.26,2.71,7.9,7.9,0,0,1-2.25,4.1,12.46,12.46,0,0,1-2.13,1.65l4.56,8.12-8.62,1.69-2.95-8.16-2.37.07-.35,8h-8.23q.09-4.37.18-8.69t.2-8.7c0-1.47.05-2.92.08-4.36s.08-2.9.15-4.37a24.8,24.8,0,0,1,2.64-.82,23.75,23.75,0,0,1,2.62-.51c.87-.12,1.76-.21,2.66-.25s1.82-.07,2.77-.07a14.55,14.55,0,0,1,4.22.61,10.85,10.85,0,0,1,3.61,1.81,8.72,8.72,0,0,1,3.47,7.2Zm-8.58.61a4.94,4.94,0,0,0-.22-1.48,3.41,3.41,0,0,0-.65-1.15,3,3,0,0,0-1.08-.77,3.82,3.82,0,0,0-1.5-.28,6.16,6.16,0,0,0-.75,0,5.57,5.57,0,0,0-.71.14l-.3,7.13h.46a6.88,6.88,0,0,0,1.67-.21,5.18,5.18,0,0,0,1.54-.65,3.74,3.74,0,0,0,1.11-1.13A3.12,3.12,0,0,0,219.56,123.9Z"/><path class="cls-3" d="M250.64,126.27a25.11,25.11,0,0,1-.23,3.34c-2.19.14-4.36.36-6.51.68l-6.48.92a4.82,4.82,0,0,0,1.56,2.21,4,4,0,0,0,2.54.82,5.7,5.7,0,0,0,1.68-.29,15.05,15.05,0,0,0,1.81-.71c.6-.29,1.17-.6,1.72-.93l1.42-.9-.92,8.69a8.84,8.84,0,0,1-1.62,1,12.15,12.15,0,0,1-1.81.65,13.82,13.82,0,0,1-1.9.36,14.91,14.91,0,0,1-1.87.12,11.18,11.18,0,0,1-3.47-.52,10.29,10.29,0,0,1-2.84-1.45,10.76,10.76,0,0,1-2.23-2.19,12.55,12.55,0,0,1-1.59-2.76,16.11,16.11,0,0,1-1-3.16,17.27,17.27,0,0,1-.33-3.37,19.57,19.57,0,0,1,.33-3.56,18,18,0,0,1,1-3.43,14.74,14.74,0,0,1,1.66-3,11.68,11.68,0,0,1,2.35-2.46,10.56,10.56,0,0,1,3-1.65,11.43,11.43,0,0,1,3.75-.59,9.62,9.62,0,0,1,3.11.47,8.54,8.54,0,0,1,2.51,1.3,9,9,0,0,1,1.91,2,11.67,11.67,0,0,1,1.34,2.52,15,15,0,0,1,.79,2.89A18.77,18.77,0,0,1,250.64,126.27Zm-7.66-1a5.22,5.22,0,0,0-.12-1.1,3.41,3.41,0,0,0-.37-1,2.23,2.23,0,0,0-.68-.75,1.76,1.76,0,0,0-1.05-.3,2.29,2.29,0,0,0-1.35.41,4.12,4.12,0,0,0-1,1,6.44,6.44,0,0,0-.69,1.36,9.83,9.83,0,0,0-.4,1.34l5.67-.54Z"/><path class="cls-3" d="M271.51,131.94a10.37,10.37,0,0,1-.91,4.53,8.58,8.58,0,0,1-2.49,3.14,10.29,10.29,0,0,1-3.69,1.82,17.08,17.08,0,0,1-4.55.59,9.94,9.94,0,0,1-2.06-.25c-.75-.17-1.5-.38-2.27-.63s-1.5-.51-2.21-.8-1.34-.56-1.89-.81l.84-7.51a13.63,13.63,0,0,0,3.61,1.48,15.59,15.59,0,0,0,3.9.51l.88,0a4.55,4.55,0,0,0,1-.17,2.15,2.15,0,0,0,.79-.43,1,1,0,0,0,.33-.83.93.93,0,0,0-.23-.62,1.75,1.75,0,0,0-.59-.42,3.85,3.85,0,0,0-.83-.25,7.18,7.18,0,0,0-.9-.12,8,8,0,0,0-.82,0h-.62a8.2,8.2,0,0,1-3-.52,6.69,6.69,0,0,1-2.32-1.46,6.51,6.51,0,0,1-1.5-2.3,8,8,0,0,1-.54-3,8.81,8.81,0,0,1,.91-4,9.5,9.5,0,0,1,2.43-3,11,11,0,0,1,3.5-1.93,12.74,12.74,0,0,1,4.08-.67c.62,0,1.27,0,1.93.07a16.22,16.22,0,0,1,2,.24,17.45,17.45,0,0,1,1.93.44,11.46,11.46,0,0,1,1.78.67l-.73,7.77a24.75,24.75,0,0,0-2.73-.73,13.5,13.5,0,0,0-2.78-.3h-.65l-.82.06a8.74,8.74,0,0,0-.87.14,4.07,4.07,0,0,0-.79.26,1.49,1.49,0,0,0-.55.43.88.88,0,0,0-.19.63.83.83,0,0,0,.31.65,1.88,1.88,0,0,0,.77.34,4.74,4.74,0,0,0,1,.1l1.12,0,1-.06a7,7,0,0,1,.78,0,7.77,7.77,0,0,1,2.76.65,6.42,6.42,0,0,1,2.08,1.47,6.29,6.29,0,0,1,1.3,2.2A8.35,8.35,0,0,1,271.51,131.94Z"/></g></g></svg>