<svg xmlns="http://www.w3.org/2000/svg" viewBox="0 0 421.97 214"><defs><style>.cls-1{opacity:0.3;}.cls-2{fill:#fff;}.cls-3{fill:#0054a4;}</style></defs><title>cloud1</title><g id="Layer_2" data-name="Layer 2"><g id="Layer_1-2" data-name="Layer 1"><path class="cls-1" d="M422,70.08a32.4,32.4,0,0,1-32.4,32.4c-1,0-2.05,0-3.06-.14a67.9,67.9,0,0,1-73.73,47,103.25,103.25,0,0,1-165.22,37.78,66,66,0,0,1-92.93-26.5A35,35,0,1,1,57.39,96a65.91,65.91,0,0,1,66.74-30.28A103.26,103.26,0,0,1,279.81,28.83a67.84,67.84,0,0,1,95.75,12A32.41,32.41,0,0,1,422,70.08Z"/><path class="cls-2" d="M414.44,62.54A32.4,32.4,0,0,1,382,94.94c-1,0-2.05,0-3.06-.14a67.84,67.84,0,0,1-64.76,47.62,69.94,69.94,0,0,1-9-.59A103.24,103.24,0,0,1,140,179.6,66,66,0,0,1,47.1,153.1,35,35,0,1,1,35,85.15a34.76,34.76,0,0,1,14.81,3.28,66,66,0,0,1,66.74-30.29A103.27,103.27,0,0,1,272.28,21.29a67.84,67.84,0,0,1,95.75,12,32.41,32.41,0,0,1,46.41,29.22Z"/><path class="cls-3" d="M148.86,65.42l-1.45,23.2-7.21.32.06-12.24L137,86.57h-2.79l-2.49-8.82,0,10.24-7.3.22.32-21.84,8.12-.32,3.23,10.47,4.3-11.1Z"/><path class="cls-3" d="M169.68,87.11l-7.84,1-1-3.57h-3.6l-.79,3.57-8.07-.79,6.3-21.06,8.79-.44Zm-9.36-7.4-1.2-5.5L158,79.71Z"/><path class="cls-3" d="M188.43,73.89a7.42,7.42,0,0,1-.46,2.72,6.73,6.73,0,0,1-1.26,2.08,7.44,7.44,0,0,1-1.87,1.5,11.85,11.85,0,0,1-2.3,1,17.37,17.37,0,0,1-2.54.57,20.61,20.61,0,0,1-2.57.19v6.74h-7.37c0-1.2,0-2.37,0-3.51s0-2.27,0-3.39,0-2.26,0-3.39,0-2.32,0-3.53,0-2.57,0-3.86,0-2.58.08-3.88a27.82,27.82,0,0,1,8.22-1.21,15.32,15.32,0,0,1,2.43.2,11.27,11.27,0,0,1,2.33.63,10.43,10.43,0,0,1,2.08,1.06,7.51,7.51,0,0,1,1.65,1.53,7.15,7.15,0,0,1,1.1,2A7.76,7.76,0,0,1,188.43,73.89Zm-7,.54a2.11,2.11,0,0,0-.62-1.61,2.32,2.32,0,0,0-1.62-.57,5.34,5.34,0,0,0-.69,0,6.07,6.07,0,0,0-.67.14l-.19,4.61.42,0h.43a3.14,3.14,0,0,0,1.1-.19,2.85,2.85,0,0,0,.94-.54,3,3,0,0,0,.66-.84A2.38,2.38,0,0,0,181.41,74.43Z"/><path class="cls-3" d="M215.19,76.36a11.48,11.48,0,0,1-.33,2.77,10.69,10.69,0,0,1-1,2.51,10.34,10.34,0,0,1-1.51,2.14A9.61,9.61,0,0,1,208,86.53a10.11,10.11,0,0,1-5.49,0,10.1,10.1,0,0,1-2.41-1A9.16,9.16,0,0,1,198,84a9.37,9.37,0,0,1-1.55-2,10.62,10.62,0,0,1-1-2.43,10,10,0,0,1-.35-2.7,10.84,10.84,0,0,1,2.79-7.34,10.36,10.36,0,0,1,2-1.69,9.39,9.39,0,0,1,2.38-1.1,8.86,8.86,0,0,1,2.7-.4,11.86,11.86,0,0,1,4.18.71,8.82,8.82,0,0,1,5.3,5.23A11.32,11.32,0,0,1,215.19,76.36Zm-7,.41a4.44,4.44,0,0,0-.19-1.32,3.83,3.83,0,0,0-.58-1.14,3.06,3.06,0,0,0-.94-.81,2.73,2.73,0,0,0-1.29-.3,3.13,3.13,0,0,0-1.33.26,3.13,3.13,0,0,0-1.64,1.83,3.89,3.89,0,0,0-.22,1.32,4.7,4.7,0,0,0,.19,1.33,3.88,3.88,0,0,0,.56,1.2,3,3,0,0,0,1,.87,2.49,2.49,0,0,0,1.3.33,3.1,3.1,0,0,0,1.34-.29,3.21,3.21,0,0,0,1-.79,3.77,3.77,0,0,0,.63-1.15A4,4,0,0,0,208.17,76.77Z"/><path class="cls-3" d="M231.09,66c-.06,1-.12,2-.17,2.94s-.12,1.95-.2,2.94l-6.71.35v2h5.82l-.32,4.9-5.53.16L224,88l-8,.16L216.52,66Z"/><path class="cls-3" d="M255,66.18l-.16,6.7-4.71.19-.57,14.67-6.67.35-.6-14.67-4.71.25.19-7.46Z"/><path class="cls-3" d="M274.66,87.83l-7.9.38-.07-6.67h-3.63l-.22,6.93h-7.09l.61-22.23,7.52.35-.47,11.35h3.5l0-11.89,7.2.19Z"/><path class="cls-3" d="M293.8,75.69a19.45,19.45,0,0,1-.19,2.75c-1.8.12-3.59.31-5.37.56l-5.34.77a3.9,3.9,0,0,0,1.28,1.82,3.37,3.37,0,0,0,2.1.68,4.56,4.56,0,0,0,1.38-.24,11.64,11.64,0,0,0,1.5-.59c.49-.24,1-.49,1.42-.77s.84-.52,1.17-.74L291,87.11a7.2,7.2,0,0,1-1.34.8,9.44,9.44,0,0,1-1.49.54,10.6,10.6,0,0,1-1.57.3,13.56,13.56,0,0,1-1.54.1,9.29,9.29,0,0,1-2.87-.43,8.35,8.35,0,0,1-2.34-1.2A8.53,8.53,0,0,1,278,85.41a10.44,10.44,0,0,1-1.32-2.27,13.64,13.64,0,0,1-.79-2.61,14.39,14.39,0,0,1-.27-2.78,16.24,16.24,0,0,1,.27-2.94,14.17,14.17,0,0,1,.82-2.83,11.77,11.77,0,0,1,1.37-2.52,9.85,9.85,0,0,1,1.94-2,8.52,8.52,0,0,1,2.5-1.36,9.29,9.29,0,0,1,3.1-.49,8.29,8.29,0,0,1,2.56.38A7,7,0,0,1,290.25,67a7.45,7.45,0,0,1,1.59,1.63,10.06,10.06,0,0,1,1.1,2.08,12.37,12.37,0,0,1,.65,2.39A15.48,15.48,0,0,1,293.8,75.69Zm-6.32-.82a4.84,4.84,0,0,0-.09-.91,3.11,3.11,0,0,0-.31-.84,1.89,1.89,0,0,0-.56-.63,1.53,1.53,0,0,0-.87-.24,1.86,1.86,0,0,0-1.12.34,3.2,3.2,0,0,0-.83.85,5.28,5.28,0,0,0-.57,1.11,9.46,9.46,0,0,0-.33,1.11l4.68-.44Z"/><path class="cls-3" d="M154.91,123.49a17,17,0,0,1-1.44,7.24,14.48,14.48,0,0,1-3.93,5.16A16.74,16.74,0,0,1,143.7,139a24.1,24.1,0,0,1-7.18,1,15.17,15.17,0,0,1-3.25-.39c-1.18-.27-2.37-.59-3.58-1s-2.38-.81-3.5-1.27-2.11-.88-3-1.28l1.33-12.46a21.22,21.22,0,0,0,5.7,2.34,24.52,24.52,0,0,0,6.16.8c.38,0,.85,0,1.39,0a6.7,6.7,0,0,0,1.56-.27,3.35,3.35,0,0,0,1.25-.68,1.64,1.64,0,0,0,.52-1.3,1.4,1.4,0,0,0-.37-1,2.69,2.69,0,0,0-.93-.66,6,6,0,0,0-1.3-.4c-.49-.09-1-.15-1.42-.19s-.9-.06-1.31-.06h-1a12.06,12.06,0,0,1-4.74-.91,10.86,10.86,0,0,1-3.66-2.53,11.36,11.36,0,0,1-2.37-3.84,13.53,13.53,0,0,1-.85-4.82,13.92,13.92,0,0,1,1.44-6.4,15.13,15.13,0,0,1,3.84-4.81,17.42,17.42,0,0,1,5.52-3,20,20,0,0,1,6.44-1c1,0,2,0,3.06.1a30,30,0,0,1,3.13.38,27.42,27.42,0,0,1,3,.7,18.47,18.47,0,0,1,2.81,1l-1.15,12.28a37.2,37.2,0,0,0-4.31-1.16,21.75,21.75,0,0,0-4.4-.47l-1,0c-.42,0-.85,0-1.3.09a13.19,13.19,0,0,0-1.38.22,5.82,5.82,0,0,0-1.24.41,2.42,2.42,0,0,0-.88.68,1.56,1.56,0,0,0,.2,2.07,3.17,3.17,0,0,0,1.21.64,8.56,8.56,0,0,0,1.63.32c.6.06,1.19.09,1.77.1s1.13,0,1.63,0a8.81,8.81,0,0,1,1.24,0,12.19,12.19,0,0,1,4.36,1,10.15,10.15,0,0,1,3.28,2.32,10,10,0,0,1,2.06,3.47A13.28,13.28,0,0,1,154.91,123.49Z"/><path class="cls-3" d="M188.11,96.93l-.3,12.83-9,.36-1.09,28.07-12.76.66-1.15-28.06-9,.48L155.15,97Z"/><path class="cls-3" d="M224,137l-15,1.93-1.81-6.83h-6.9l-1.51,6.83L183.4,137.4l12-40.28,16.82-.85Zm-17.9-14.16-2.3-10.52-2.24,10.52Z"/><path class="cls-3" d="M260.12,110.42a20.13,20.13,0,0,1-.41,4.28,12.26,12.26,0,0,1-3.55,6.49,20.35,20.35,0,0,1-3.36,2.6l7.2,12.82-13.61,2.66-4.66-12.88-3.75.12-.54,12.58h-13q.15-6.89.28-13.73t.32-13.73q.06-3.48.12-6.89t.24-6.9a39.94,39.94,0,0,1,4.18-1.3,39.08,39.08,0,0,1,4.13-.8q2.07-.28,4.2-.39c1.42-.07,2.88-.11,4.37-.11a23.58,23.58,0,0,1,6.67,1,17.36,17.36,0,0,1,5.7,2.86,14.35,14.35,0,0,1,4,4.75A14.08,14.08,0,0,1,260.12,110.42Zm-13.55,1a7.5,7.5,0,0,0-.34-2.33,5.47,5.47,0,0,0-1-1.83,4.79,4.79,0,0,0-1.7-1.21,5.93,5.93,0,0,0-2.37-.44,9.11,9.11,0,0,0-1.18.08,8.23,8.23,0,0,0-1.12.23l-.48,11.25h.72a10.65,10.65,0,0,0,2.65-.34,8,8,0,0,0,2.42-1,5.75,5.75,0,0,0,1.75-1.79A4.73,4.73,0,0,0,246.57,111.39Z"/><path class="cls-3" d="M293.21,124.09a16.48,16.48,0,0,1-1.44,7.16,13.72,13.72,0,0,1-3.93,4.95,16.55,16.55,0,0,1-5.84,2.88,27,27,0,0,1-7.18.92,15.17,15.17,0,0,1-3.25-.39c-1.18-.27-2.37-.59-3.58-1s-2.38-.81-3.5-1.27-2.11-.88-3-1.28l1.34-11.86a21.3,21.3,0,0,0,5.7,2.35,24.85,24.85,0,0,0,6.15.8c.38,0,.85,0,1.39,0a6.53,6.53,0,0,0,1.56-.27,3.35,3.35,0,0,0,1.25-.68,1.62,1.62,0,0,0,.52-1.3,1.43,1.43,0,0,0-.36-1,2.86,2.86,0,0,0-.94-.67,6,6,0,0,0-1.3-.39c-.49-.09-1-.16-1.42-.2s-.9-.06-1.3-.06h-1a13.07,13.07,0,0,1-4.74-.82,10.34,10.34,0,0,1-3.65-2.31,10.46,10.46,0,0,1-2.38-3.63,12.8,12.8,0,0,1-.85-4.73,13.92,13.92,0,0,1,1.44-6.4,15.13,15.13,0,0,1,3.84-4.81,17.42,17.42,0,0,1,5.52-3,20.07,20.07,0,0,1,6.44-1c1,0,2,0,3.06.1a30,30,0,0,1,3.13.38,27.42,27.42,0,0,1,3,.7,18.47,18.47,0,0,1,2.81,1l-1.15,12.28a37.2,37.2,0,0,0-4.31-1.16,21.75,21.75,0,0,0-4.4-.47l-1,0c-.42,0-.85,0-1.3.09a13.19,13.19,0,0,0-1.38.22,5.82,5.82,0,0,0-1.24.41,2.51,2.51,0,0,0-.88.68,1.45,1.45,0,0,0-.3,1,1.32,1.32,0,0,0,.5,1,3.06,3.06,0,0,0,1.21.53,7.51,7.51,0,0,0,1.63.16c.6,0,1.19,0,1.77,0l1.64-.09a10.74,10.74,0,0,1,1.24,0,12.4,12.4,0,0,1,4.35,1,9.74,9.74,0,0,1,5.34,5.79A13.32,13.32,0,0,1,293.21,124.09Z"/></g></g></svg>