<svg xmlns="http://www.w3.org/2000/svg" viewBox="0 0 112.15 41.9"><defs><style>.cls-1{fill:#fff;}.cls-2{fill:none;stroke:#fff;stroke-miterlimit:10;stroke-width:2px;}</style></defs><title>coronaBorealis</title><g id="Layer_2" data-name="Layer 2"><g id="corona_borealis" data-name="corona borealis"><circle class="cls-1" cx="80.57" cy="6.45" r="3.45"/><circle class="cls-1" cx="98.57" cy="3.45" r="3.45"/><circle class="cls-1" cx="100.57" cy="23.45" r="3.45"/><circle class="cls-1" cx="84.57" cy="38.45" r="3.45"/><circle class="cls-1" cx="106.57" cy="13.45" r="5.58"/><line class="cls-2" x1="80.6" y1="6.03" x2="98.6" y2="3.03"/><line class="cls-2" x1="106.6" y1="14.03" x2="98.6" y2="3.03"/><line class="cls-2" x1="100.6" y1="24.03" x2="106.6" y2="14.03"/><line class="cls-2" x1="84.6" y1="38.03" x2="100.6" y2="25.03"/><path class="cls-1" d="M15.56,17.57v1.21l-1.37.31.55-3.26h1.34L16,19a9.27,9.27,0,0,1-4.45,1.06c-4.44,0-7.44-3.22-7.44-7.71a7.36,7.36,0,0,1,7.42-7.7,8.5,8.5,0,0,1,4.25,1.06l.08,3.19H14.52L14,5.66,15.34,6V7.31a5.18,5.18,0,0,0-3.55-1.54c-3,0-5.37,2.31-5.37,6.6S8.58,19,11.64,19A6.15,6.15,0,0,0,15.56,17.57Z"/><path class="cls-1" d="M18,14.57C18,10.92,20.46,9,23,9s5,1.89,5,5.54S25.48,20,23,20,18,18.23,18,14.57Zm8.06,0C26,11.63,24.9,10,23,10s-3,1.61-3,4.55S21,19,23,19,26,17.52,26,14.57Z"/><path class="cls-1" d="M31.61,15.12v-1c0-1.21,0-1.89-.06-2.77l-1.76-.2v-.77l3-1.32.33.22L33.37,12v3.12c0,1.37,0,3.63.07,4.63H31.55C31.59,18.75,31.61,16.49,31.61,15.12ZM30,19l2.42-.44h.44l2.42.44v.77H30Zm2.53-6.83h1.26l-.55.16c.7-2.05,2-3.28,3.34-3.28a1.88,1.88,0,0,1,1.56.75c0,1-.39,1.6-1.27,1.6a2,2,0,0,1-1.32-.52l-.6-.51L36,10.13a5.26,5.26,0,0,0-2.66,3.5h-.84Z"/><path class="cls-1" d="M39.05,14.57c0-3.65,2.49-5.54,5-5.54s5,1.89,5,5.54S46.55,20,44.07,20,39.05,18.23,39.05,14.57Zm8.05,0c0-2.94-1.12-4.55-3-4.55s-3,1.61-3,4.55,1.08,4.47,3,4.47S47.1,17.52,47.1,14.57Z"/><path class="cls-1" d="M52.62,19.75c.05-1,.07-3.26.07-4.63v-1c0-1.21,0-1.89-.07-2.77l-1.76-.2v-.77l3-1.32.33.22.26,2.55v3.32c0,1.37,0,3.63.07,4.63ZM56.06,19v.77H51V19l2.42-.44h.44Zm5.08-5.88v2c0,1.41,0,3.63.06,4.63H59.31c0-1,.07-3.22.07-4.63V13.28c0-2-.53-2.71-1.85-2.71a4.83,4.83,0,0,0-3.26,1.52h-.46v-1h1.12l-.94.39A6,6,0,0,1,58.34,9C60.24,9,61.14,10.2,61.14,13.1Zm-.6,5.44,2.2.44v.77H57.68V19l2.42-.44Z"/><path class="cls-1" d="M68,14a23.19,23.19,0,0,1,3.41-.92v.79a19.34,19.34,0,0,0-2.94.88c-2,.77-2.2,1.6-2.2,2.24,0,1.17.77,1.63,1.78,1.63.77,0,1.21-.28,2.59-1.28L71.1,17l.31.47-.64.63C69.45,19.42,68.71,20,67.36,20a2.68,2.68,0,0,1-2.94-2.75C64.42,16.05,65.08,15.06,68,14Zm2.53,3.74v-5c0-2.15-.61-2.68-2.06-2.68a5.11,5.11,0,0,0-2,.4l.88-.69-.58,1.9c-.19.63-.52,1-1.12,1a.9.9,0,0,1-1-.88C65.12,10.06,66.75,9,69,9s3.36,1,3.36,3.81V17.5c0,1,.31,1.34.82,1.34a1.1,1.1,0,0,0,.86-.48l.44.48A2.07,2.07,0,0,1,72.56,20,2,2,0,0,1,70.55,17.72Z"/><path class="cls-1" d="M0,25.88V25H3.08v1.21H2.86ZM3.08,38.54v1.21H0v-.89l2.86-.32Zm-1-6.72c0-2.26,0-4.55-.07-6.82H4.14c-.07,2.23-.07,4.51-.07,6.82v.77c0,2.6,0,4.89.07,7.16H2c.07-2.23.07-4.52.07-6.83Zm1-.19H5.26c2.7,0,3.87-.86,3.87-2.89S8,26,5.7,26H3.08V25H6.34c3,0,4.77,1.5,4.77,3.61,0,1.72-1.19,3.24-4.11,3.59V32c3.43.29,4.84,1.83,4.84,3.72s-1.65,4-5.81,4H3.08v-1H5.5c2.86,0,4.25-1.08,4.25-3s-1.34-3.08-4.43-3.08H3.08Z"/><path class="cls-1" d="M13.84,34.57c0-3.65,2.48-5.54,5-5.54s5,1.89,5,5.54S21.34,40,18.85,40,13.84,38.23,13.84,34.57Zm8.05,0c0-2.94-1.12-4.55-3-4.55s-3,1.61-3,4.55S16.9,39,18.85,39,21.89,37.52,21.89,34.57Z"/><path class="cls-1" d="M27.48,35.12v-1c0-1.21,0-1.89-.07-2.77l-1.76-.2v-.77l3-1.32.33.22L29.24,32v3.12c0,1.37,0,3.63.06,4.63H27.41C27.46,38.75,27.48,36.49,27.48,35.12ZM25.83,39l2.42-.44h.44l2.42.44v.77H25.83Zm2.53-6.83h1.25l-.55.16c.71-2.05,2.05-3.28,3.35-3.28a1.91,1.91,0,0,1,1.56.75c0,1-.4,1.6-1.28,1.6a2,2,0,0,1-1.32-.52l-.59-.51,1.08-.22a5.24,5.24,0,0,0-2.67,3.5h-.83Z"/><path class="cls-1" d="M44,33.23a4.31,4.31,0,0,1-.15,1.23H35.73v-.92H41c1.06,0,1.3-.51,1.3-1.12A2.43,2.43,0,0,0,39.82,30c-1.41,0-3,1.19-3,4.33,0,2.8,1.41,4.3,3.61,4.3a3.79,3.79,0,0,0,3.08-1.57l.51.4A4.47,4.47,0,0,1,39.78,40c-3,0-4.87-2.05-4.87-5.39S37.2,29,39.93,29A3.92,3.92,0,0,1,44,33.23Z"/><path class="cls-1" d="M49.5,34a22.86,22.86,0,0,1,3.41-.92v.79a19.5,19.5,0,0,0-2.95.88c-2,.77-2.2,1.6-2.2,2.24,0,1.17.77,1.63,1.78,1.63.77,0,1.21-.28,2.6-1.28l.44-.33.31.47-.64.63C50.93,39.42,50.18,40,48.84,40a2.68,2.68,0,0,1-3-2.75C45.89,36.05,46.55,35.06,49.5,34ZM52,37.72v-5C52,30.55,51.41,30,50,30a5.18,5.18,0,0,0-2,.4l.88-.69-.57,1.9c-.2.63-.53,1-1.12,1a.89.89,0,0,1-1-.88c.42-1.68,2-2.71,4.24-2.71s3.37,1,3.37,3.81V37.5c0,1,.31,1.34.81,1.34a1.07,1.07,0,0,0,.86-.48l.44.48A2,2,0,0,1,54,40,2,2,0,0,1,52,37.72Z"/><path class="cls-1" d="M60,23.46l.31.18-.09,3.12v8.36c0,1.54,0,3.09.07,4.63H58.37c0-1.54.06-3.09.06-4.63V25.44l-1.82-.22v-.77ZM62,39v.77H56.61V39l2.48-.44h.44Z"/><path class="cls-1" d="M65,39.75c0-1,.07-3.26.07-4.63v-1c0-1.21,0-1.89-.07-2.77l-1.8-.2v-.77L66.53,29l.33.22-.07,3v2.9c0,1.37,0,3.63.07,4.63ZM68.4,39v.77H63.34V39l2.42-.44h.44ZM64.46,25.16a1.45,1.45,0,1,1,1.45,1.38A1.37,1.37,0,0,1,64.46,25.16Z"/><path class="cls-1" d="M70.25,39.19l-.09-2.39h1.16l.6,2.59-1.08-.5v-.75a4.21,4.21,0,0,0,2.71.9c1.69,0,2.48-.68,2.48-1.69s-.66-1.43-2-1.94L73,35c-1.6-.6-2.66-1.46-2.66-2.95S71.65,29,74.1,29a5.6,5.6,0,0,1,3.05.9l-.08,2.22H76l-.44-2.22.79.35v.58A3.62,3.62,0,0,0,74.07,30c-1.36,0-2.06.59-2.06,1.52s.55,1.36,2,1.91l.66.24c2.2.82,3,1.85,3,3.22,0,1.63-1.43,3.12-4.25,3.12A6.56,6.56,0,0,1,70.25,39.19Z"/></g></g></svg>