<svg xmlns="http://www.w3.org/2000/svg" viewBox="0 0 134.15 105.49"><defs><style>.cls-1{fill:#fff;}.cls-2{fill:none;stroke:#fff;stroke-miterlimit:10;stroke-width:2px;}</style></defs><title>cygnus</title><g id="Layer_2" data-name="Layer 2"><g id="cygnus"><circle class="cls-1" cx="44.07" cy="4.4" r="4.4"/><circle class="cls-1" cx="79.43" cy="45.32" r="3.45"/><circle class="cls-1" cx="40.43" cy="54.32" r="5.82"/><circle class="cls-1" cx="53.43" cy="100.32" r="5.17"/><circle class="cls-1" cx="7.43" cy="52.32" r="7.43"/><circle class="cls-1" cx="129.43" cy="39.32" r="4.72"/><line class="cls-2" x1="44.33" y1="4.8" x2="40.33" y2="53.8"/><line class="cls-2" x1="6.33" y1="51.8" x2="41.33" y2="53.8"/><line class="cls-2" x1="53.33" y1="100.8" x2="40.33" y2="52.8"/><line class="cls-2" x1="79.33" y1="44.8" x2="40.33" y2="53.8"/><line class="cls-2" x1="129.33" y1="39.8" x2="79.33" y2="44.8"/><path class="cls-1" d="M65.51,71.9v1.21l-1.36.31.55-3.26H66L66,73.35a9.2,9.2,0,0,1-4.44,1.06c-4.45,0-7.44-3.22-7.44-7.71A7.35,7.35,0,0,1,61.49,59a8.47,8.47,0,0,1,4.24,1.06l.09,3.19H64.48L63.93,60l1.36.31v1.34a5.14,5.14,0,0,0-3.54-1.54c-3,0-5.37,2.31-5.37,6.6s2.16,6.61,5.22,6.61A6.1,6.1,0,0,0,65.51,71.9Z"/><path class="cls-1" d="M66.92,78.12a1.39,1.39,0,0,1,1.45-.92A2.18,2.18,0,0,1,70,78l.68.69-.86.48-.59-.48a6.44,6.44,0,0,0,2.9-3.79L72.79,73l3.39-9.35h1.19L73.45,73.94c-1.49,4-2.73,5.64-4.53,5.64C67.84,79.58,66.92,79,66.92,78.12Zm2.24-13.37L67,64.42v-.77h5.23v.79l-2.64.31Zm3.28,10.47-4.6-11.57h2L73.34,73Zm3.74-10.47-2.33-.33v-.77h4.31v.77l-1.54.33Z"/><path class="cls-1" d="M86.87,76.1c0-1-.61-1.74-2.22-1.74h-2.6A9.61,9.61,0,0,1,81,74.3v-.07c-1.12-.24-1.69-.81-1.69-1.74,0-.77.51-1.6,2-2.9l.49.33a2.61,2.61,0,0,0-1,1.85c0,.59.24,1,1.28,1H85c2.36,0,3.48,1,3.48,2.81s-1.81,3.79-5.37,3.79c-3.17,0-4.56-1.1-4.56-2.69,0-1.08.69-1.89,2.91-2.84l.11.14a3.14,3.14,0,0,0-1.23,2.37c0,1.45,1.12,2,2.83,2C85.57,78.37,86.87,77.35,86.87,76.1ZM83,63.36c2.24,0,3.92,1.19,3.92,3.61S85.2,70.58,83,70.58,79,69.39,79,67,80.76,63.36,83,63.36ZM80.76,67c0,1.61.79,2.71,2.15,2.71s2.29-1.17,2.29-2.8-.79-2.66-2.18-2.66S80.76,65.38,80.76,67Zm7.48-3.63.33.22V65H85.33v-.6Z"/><path class="cls-1" d="M91.6,74.08c.05-1,.07-3.26.07-4.63v-1c0-1.21,0-1.89-.07-2.77l-1.76-.2v-.77l3-1.32.33.22.27,2.55v3.32c0,1.37,0,3.64.06,4.63ZM95,73.31v.77H90v-.77l2.42-.44h.44Zm5.09-5.88v2c0,1.41,0,3.64.06,4.63H98.29c0-1,.07-3.22.07-4.63V67.61c0-2-.53-2.71-1.85-2.71a4.83,4.83,0,0,0-3.26,1.52h-.46v-1h1.12l-.94.4a5.94,5.94,0,0,1,4.35-2.47C99.22,63.36,100.12,64.53,100.12,67.43Zm-.6,5.44,2.2.44v.77H96.66v-.77l2.42-.44Z"/><path class="cls-1" d="M106.1,70.18c0,2,.57,2.64,1.78,2.64a4.84,4.84,0,0,0,3.37-1.65h.46v1.12h-1.12l.77-.33a5.19,5.19,0,0,1-4.18,2.4c-1.76,0-2.86-1-2.84-4l.07-5.81.46.42-2.05-.44V63.8l3.17-.29.22.22-.11,3.09Zm5.24,4.07L111,71.68l.07-7.09.46.42-2-.44V63.8l3.13-.29.22.22-.07,3.09v6.57l-.53-.52,2,.44v.77Z"/><path class="cls-1" d="M116.22,73.53l-.09-2.4h1.17l.59,2.59-1.08-.5v-.75a4.21,4.21,0,0,0,2.71.9c1.69,0,2.49-.68,2.49-1.69s-.66-1.43-2.05-1.94l-1-.37c-1.61-.6-2.66-1.46-2.66-3s1.34-3.06,3.78-3.06a5.63,5.63,0,0,1,3.06.9L123,66.49h-1.1l-.44-2.23.79.36v.57a3.59,3.59,0,0,0-2.24-.84c-1.37,0-2.07.6-2.07,1.52s.55,1.36,2,1.91l.66.25c2.2.81,3,1.84,3,3.21,0,1.63-1.43,3.12-4.24,3.12A6.7,6.7,0,0,1,116.22,73.53Z"/></g></g></svg>