<svg xmlns="http://www.w3.org/2000/svg" viewBox="0 0 98.63 39.18"><defs><style>.cls-1{fill:#fff;}.cls-2{fill:none;stroke:#fff;stroke-miterlimit:10;stroke-width:2px;}</style></defs><title>delphinus</title><g id="Layer_2" data-name="Layer 2"><g id="delphinus"><circle class="cls-1" cx="35.14" cy="11" r="3"/><circle class="cls-1" cx="41.14" cy="3" r="3"/><circle class="cls-1" cx="44.14" cy="11" r="3"/><circle class="cls-1" cx="51.14" cy="5" r="3"/><circle class="cls-1" cx="68.14" cy="9" r="3"/><line class="cls-2" x1="35.14" y1="11" x2="41.14" y2="3"/><line class="cls-2" x1="44.14" y1="11" x2="35.14" y2="11"/><line class="cls-2" x1="51.14" y1="5" x2="41.14" y2="3"/><line class="cls-2" x1="44.14" y1="11" x2="51.14" y2="5"/><line class="cls-2" x1="68.14" y1="9" x2="51.14" y2="5"/><path class="cls-1" d="M0,20v-.88H3.08v1.21H2.86ZM3.08,32.69V33.9H0V33l2.86-.33ZM2.09,26c0-2.27,0-4.56-.07-6.82H4.14c-.07,2.22-.07,4.51-.07,6.82v.83c0,2.53,0,4.82.07,7.09H2c.07-2.22.07-4.51.07-7.09Zm1,6.91H5.92c3.45,0,5.35-2.34,5.35-6.34,0-4.16-1.9-6.38-5.15-6.38h-3v-1H6.49c4.18,0,7.09,2.59,7.09,7.39S10.32,33.9,6.05,33.9h-3Z"/><path class="cls-1" d="M24.73,27.39a4.37,4.37,0,0,1-.16,1.23H16.46v-.93h5.23c1.06,0,1.3-.5,1.3-1.12a2.45,2.45,0,0,0-2.44-2.4c-1.41,0-3,1.19-3,4.34,0,2.79,1.41,4.29,3.61,4.29a3.81,3.81,0,0,0,3.08-1.56l.51.39a4.48,4.48,0,0,1-4.21,2.55c-2.94,0-4.86-2-4.86-5.39s2.29-5.61,5-5.61A3.93,3.93,0,0,1,24.73,27.39Z"/><path class="cls-1" d="M29.52,17.62l.31.17-.09,3.13v8.36c0,1.54,0,3.08.07,4.62H27.92q.06-2.31.06-4.62V19.6l-1.82-.22v-.77Zm2.05,15.51v.77H26.16v-.77l2.48-.44h.44Z"/><path class="cls-1" d="M38.08,38.41v.77H32.45v-.77L34.94,38h.44ZM34.3,28.24c0-1.21,0-1.89-.07-2.77l-1.76-.2V24.5l3-1.32.33.22L36,25.27l.09.05v6.86l-.07.13v2.2c0,1.54,0,3.13.07,4.67H34.23c.05-1.54.07-3.08.07-4.62Zm4.49-3.85c-.82,0-1.92.4-3.52,2l-.2-.39c1.27-1.94,2.7-2.78,4.2-2.78,2.33,0,4.18,2.07,4.18,5.46s-1.93,5.54-4.51,5.54c-1.34,0-2.71-.61-3.87-2.9l.2-.35c1.14,1.45,2.2,2,3.27,2,1.68,0,3-1.29,3-4.13S40.42,24.39,38.79,24.39Z"/><path class="cls-1" d="M46.62,19.6l-1.83-.22v-.77l3.3-1,.31.17-.09,3.13v4.66l.07.29v3.41c0,1.36,0,3.63.06,4.62H46.55c.05-1,.07-3.26.07-4.62ZM50,33.13v.77H44.9v-.77l2.42-.44h.44Zm5.19-5.88v2c0,1.41,0,3.63.07,4.62H53.33c0-1,.06-3.21.06-4.62V27.43c0-2.05-.52-2.71-1.84-2.71a4.64,4.64,0,0,0-3.26,1.52h-.46v-1H49l-1,.4a6,6,0,0,1,4.4-2.47C54.25,23.18,55.15,24.35,55.15,27.25Zm-.59,5.44,2.2.44v.77H51.7v-.77l2.42-.44Z"/><path class="cls-1" d="M59.88,33.9c0-1,.07-3.26.07-4.62v-1c0-1.21,0-1.89-.07-2.77l-1.8-.2V24.5l3.32-1.32.33.22-.06,3v2.91c0,1.36,0,3.63.06,4.62Zm3.39-.77v.77H58.21v-.77l2.42-.44h.44ZM59.33,19.31a1.46,1.46,0,0,1,2.91,0,1.46,1.46,0,0,1-2.91,0Z"/><path class="cls-1" d="M66.51,33.9c0-1,.06-3.26.06-4.62v-1c0-1.21,0-1.89-.06-2.77l-1.76-.2V24.5l3-1.32.33.22L68.33,26v3.32c0,1.36,0,3.63.07,4.62Zm3.43-.77v.77H64.88v-.77l2.42-.44h.44ZM75,27.25v2c0,1.41,0,3.63.07,4.62h-1.9c0-1,.07-3.21.07-4.62V27.43c0-2.05-.53-2.71-1.85-2.71a4.8,4.8,0,0,0-3.25,1.52h-.47v-1h1.13l-.95.4a5.94,5.94,0,0,1,4.36-2.47C74.12,23.18,75,24.35,75,27.25Zm-.59,5.44,2.2.44v.77H71.57v-.77L74,32.69Z"/><path class="cls-1" d="M81,30c0,2,.58,2.64,1.79,2.64A4.84,4.84,0,0,0,86.15,31h.46v1.13H85.49l.77-.33a5.21,5.21,0,0,1-4.18,2.39c-1.76,0-2.86-1-2.84-4l.07-5.8.46.41-2-.44v-.77l3.16-.28.22.22L81,26.64Zm5.24,4.07-.31-2.57L86,24.42l.46.41-2-.44v-.77l3.13-.28.22.22-.07,3.08v6.58l-.53-.53,2,.44v.77Z"/><path class="cls-1" d="M91.12,33.35,91,31H92.2l.6,2.6L91.72,33v-.75a4.13,4.13,0,0,0,2.7.9c1.7,0,2.49-.68,2.49-1.69s-.66-1.43-2-1.94l-1-.37c-1.6-.59-2.66-1.45-2.66-3s1.34-3.06,3.78-3.06a5.61,5.61,0,0,1,3.06.9l-.09,2.23h-1.1l-.44-2.23.8.36V25A3.64,3.64,0,0,0,95,24.17c-1.36,0-2.07.6-2.07,1.52s.55,1.37,2.05,1.92l.66.24c2.2.81,3,1.85,3,3.21,0,1.63-1.43,3.12-4.25,3.12A6.72,6.72,0,0,1,91.12,33.35Z"/></g></g></svg>