<?xml version="1.0" encoding="utf-8"?>
<!-- Generator: Adobe Illustrator 24.0.2, SVG Export Plug-In . SVG Version: 6.00 Build 0)  -->
<svg version="1.1" id="Layer_1" xmlns="http://www.w3.org/2000/svg" xmlns:xlink="http://www.w3.org/1999/xlink" x="0px" y="0px"
	 viewBox="0 0 170 400" style="enable-background:new 0 0 170 400;" xml:space="preserve">
<style type="text/css">
	.st0{fill:#914B17;}
	.st1{fill:#BA6523;}
	.st2{fill:#F9B017;}
	.st3{fill:#020203;}
</style>
<g>
	<g>
		<path class="st0" d="M141.8,361c0,16.3-30.6,29.4-68.3,29.4s-63-11.6-68.3-29.4v-55.1h136.6V361z"/>
		<ellipse class="st1" cx="73.4" cy="307.2" rx="68.3" ry="25"/>
	</g>
	<path class="st2" d="M125.3,368.7c-11,4.2-29.2,9.7-52.1,9.7c-22.7,0-40.7-5.4-51.7-9.7c0-11.6,0-23.2,0-34.8
		c10.6,4.3,28.6,10.1,51.7,10.1c23.3,0,41.5-5.8,52.1-10.1C125.3,345.5,125.3,357.1,125.3,368.7z"/>
</g>
<g>
	<path class="st3" d="M47.8,373l-4.6-0.7l0.6-5.4l-2.1-0.4l-0.7,5.1l-4.1-0.8l2.2-16.3l4.3,1.1l-1.2,8.3l2,0.4l1-9l4.1,1L47.8,373z"
		/>
	<path class="st3" d="M60.7,373.7l-4.6,0.2l-0.4-2.7l-2.1-0.3l-0.6,2.6l-4.6-1.2l4.7-15.2l5.1,0.3L60.7,373.7z M55.7,367.5l-0.4-4.2
		l-0.9,4L55.7,367.5z"/>
	<path class="st3" d="M72.3,363.9c0,0.6-0.1,1.2-0.2,1.7c-0.1,0.5-0.2,0.9-0.4,1.4c-0.2,0.4-0.4,0.8-0.7,1.1c-0.3,0.3-0.6,0.7-1,1
		l2.1,5.1l-4.2,0.8l-1.3-5.1l-1.1,0l-0.3,4.9l-3.9-0.2c0.1-1.8,0.1-3.6,0.2-5.3c0.1-1.8,0.1-3.6,0.2-5.3c0-0.9,0.1-1.8,0.1-2.7
		c0-0.9,0.1-1.8,0.1-2.7c0.4-0.2,0.9-0.3,1.3-0.4c0.4-0.1,0.8-0.2,1.3-0.2c0.4-0.1,0.8-0.1,1.3-0.1s0.9,0,1.3,0c0.7,0,1.4,0.2,2,0.5
		c0.6,0.3,1.2,0.7,1.7,1.2c0.5,0.5,0.9,1.2,1.2,1.9C72.2,362.1,72.3,362.9,72.3,363.9z M68.2,364.1c0-0.3,0-0.6-0.1-0.9
		c-0.1-0.3-0.2-0.5-0.3-0.7c-0.1-0.2-0.3-0.4-0.5-0.5c-0.2-0.1-0.4-0.2-0.7-0.2c-0.1,0-0.2,0-0.4,0c-0.1,0-0.2,0-0.3,0.1l-0.2,4.4
		l0.2,0c0.3,0,0.5,0,0.8-0.1s0.5-0.2,0.7-0.4c0.2-0.2,0.4-0.4,0.5-0.7C68.1,364.8,68.2,364.5,68.2,364.1z"/>
	<path class="st3" d="M83.8,358.5l-3,16.5l-4.5,0.4l-4.5-16.5l4.3-0.6l2,9.6l1.5-9.7L83.8,358.5z"/>
	<path class="st3" d="M92.5,357.3c0,0.7,0,1.5,0,2.2s0,1.5,0,2.2l-3.9,0.6l0,1.5l2.7-0.2l0,3.7l-2.7,0.4l0,1.7L91,369l1.6-0.1
		c0,0.9,0,1.7,0.1,2.6c0,0.9,0,1.7,0.1,2.6l-7.9,0.9l-0.8-17L92.5,357.3z"/>
	<path class="st3" d="M103,366.5c0.1,1.1,0.1,2-0.1,2.9c-0.2,0.8-0.5,1.6-1,2.2c-0.4,0.6-1,1.1-1.6,1.5s-1.4,0.6-2.1,0.7
		c-0.3,0-0.6,0-1,0c-0.4,0-0.7-0.1-1.1-0.2c-0.4-0.1-0.7-0.2-1.1-0.3c-0.4-0.1-0.7-0.2-0.9-0.4l-0.1-4.9c0.6,0.3,1.2,0.5,1.8,0.7
		c0.6,0.1,1.3,0.1,1.9,0c0.1,0,0.3,0,0.4-0.1c0.2,0,0.3-0.1,0.5-0.2c0.1-0.1,0.3-0.2,0.4-0.3c0.1-0.1,0.1-0.3,0.1-0.5
		c0-0.1-0.1-0.3-0.1-0.4c-0.1-0.1-0.2-0.2-0.3-0.2c-0.1,0-0.3-0.1-0.4-0.1c-0.1,0-0.3,0-0.4,0c-0.1,0-0.3,0-0.4,0
		c-0.1,0-0.2,0-0.3,0c-0.5,0.1-1,0-1.5-0.1c-0.5-0.2-0.9-0.4-1.2-0.8c-0.3-0.4-0.6-0.8-0.9-1.4c-0.2-0.5-0.4-1.2-0.4-1.8
		c-0.1-0.9,0-1.8,0.2-2.5c0.2-0.8,0.5-1.5,1-2c0.4-0.6,0.9-1.1,1.5-1.4c0.6-0.4,1.2-0.6,1.9-0.7c0.3,0,0.6-0.1,0.9-0.1
		c0.3,0,0.6,0,1,0c0.3,0,0.6,0.1,0.9,0.1c0.3,0.1,0.6,0.2,0.9,0.3l0.1,4.8c-0.4-0.1-0.9-0.2-1.3-0.3c-0.5-0.1-0.9,0-1.3,0
		c-0.1,0-0.2,0-0.3,0.1c-0.1,0-0.3,0.1-0.4,0.1c-0.1,0-0.3,0.1-0.4,0.1c-0.1,0.1-0.3,0.1-0.4,0.2c-0.1,0.1-0.2,0.2-0.2,0.3
		c-0.1,0.1-0.1,0.3-0.1,0.4c0,0.2,0.1,0.3,0.2,0.4c0.1,0.1,0.2,0.2,0.4,0.2c0.2,0,0.3,0.1,0.5,0c0.2,0,0.4,0,0.5,0
		c0.2,0,0.3,0,0.5-0.1c0.2,0,0.3,0,0.4,0c0.5,0,0.9,0,1.4,0.2c0.4,0.2,0.8,0.4,1.1,0.8c0.3,0.3,0.6,0.8,0.8,1.2
		C102.8,365.3,103,365.9,103,366.5z"/>
	<path class="st3" d="M111.6,353.9l0.6,4.9l-2.7,0.7l0.9,11.2l-3.8,1.1l-1.6-11l-2.7,0.8l-0.7-5.5L111.6,353.9z"/>
</g>
<g>
	<path class="st3" d="M48,351.9c-0.2,0.2-0.3,0.4-0.5,0.5c-0.2,0.1-0.4,0.3-0.7,0.3c-0.2,0.1-0.5,0.1-0.7,0.2c-0.2,0-0.5,0-0.7,0
		c-0.4-0.1-0.8-0.2-1.1-0.5c-0.3-0.3-0.6-0.6-0.8-1c-0.2-0.4-0.4-0.9-0.5-1.4c-0.1-0.5-0.1-1.1-0.1-1.6c0-0.4,0.1-0.9,0.2-1.3
		c0.1-0.4,0.2-0.8,0.4-1.1c0.2-0.4,0.4-0.7,0.6-0.9c0.2-0.3,0.5-0.5,0.7-0.7c0.3-0.2,0.5-0.3,0.8-0.4c0.3-0.1,0.6-0.1,0.9,0
		c0.1,0,0.3,0,0.4,0.1s0.3,0.1,0.4,0.1c0.1,0.1,0.3,0.1,0.4,0.2c0.1,0.1,0.2,0.2,0.3,0.3l-0.3,2.3c-0.2-0.1-0.3-0.2-0.5-0.3
		c-0.2-0.1-0.3-0.1-0.5-0.1c-0.2,0-0.5,0-0.7,0c-0.2,0.1-0.4,0.2-0.6,0.3c-0.2,0.2-0.3,0.4-0.4,0.6c-0.1,0.3-0.2,0.5-0.2,0.9
		c0,0.2,0,0.4,0,0.6c0,0.2,0.1,0.4,0.1,0.5c0.1,0.2,0.2,0.3,0.3,0.4c0.1,0.1,0.3,0.2,0.4,0.2c0.1,0,0.2,0,0.3,0
		c0.1,0,0.2-0.1,0.3-0.2l0.1-0.5l-1-0.2l0.2-1.8c0.4,0,0.9,0.1,1.3,0.2c0.4,0.1,0.9,0.1,1.3,0.1L48,351.9z"/>
	<path class="st3" d="M53.9,349.6c0,0.4-0.1,0.7-0.2,1c-0.1,0.3-0.2,0.6-0.3,0.9c-0.1,0.3-0.3,0.5-0.5,0.8c-0.2,0.2-0.4,0.4-0.6,0.6
		c-0.2,0.2-0.4,0.3-0.7,0.3c-0.2,0.1-0.5,0.1-0.8,0c-0.3,0-0.5-0.1-0.7-0.2c-0.2-0.1-0.4-0.3-0.6-0.5c-0.2-0.2-0.4-0.4-0.5-0.7
		c-0.2-0.3-0.3-0.5-0.4-0.8c-0.1-0.3-0.2-0.6-0.2-1c0-0.3-0.1-0.7,0-1c0-0.4,0.1-0.7,0.2-1c0.1-0.3,0.2-0.6,0.3-0.9
		c0.1-0.3,0.3-0.5,0.5-0.8c0.2-0.2,0.4-0.4,0.6-0.6c0.2-0.2,0.4-0.3,0.7-0.3c0.2-0.1,0.5-0.1,0.7-0.1c0.4,0.1,0.8,0.2,1.1,0.4
		c0.3,0.2,0.6,0.5,0.8,0.9c0.2,0.4,0.4,0.8,0.5,1.3C53.9,348.5,53.9,349,53.9,349.6z M51.9,349.5c0-0.2,0-0.3,0-0.5
		c0-0.2-0.1-0.3-0.1-0.5c-0.1-0.1-0.1-0.3-0.2-0.3c-0.1-0.1-0.2-0.1-0.3-0.2c-0.1,0-0.3,0-0.4,0.1c-0.1,0.1-0.2,0.1-0.3,0.2
		s-0.2,0.2-0.2,0.4c-0.1,0.2-0.1,0.3-0.1,0.5c0,0.2,0,0.3,0,0.5c0,0.2,0.1,0.3,0.1,0.5c0.1,0.1,0.1,0.3,0.2,0.4
		c0.1,0.1,0.2,0.2,0.4,0.2c0.1,0,0.3,0,0.4-0.1c0.1-0.1,0.2-0.1,0.3-0.3c0.1-0.1,0.1-0.3,0.2-0.4C51.9,349.8,51.9,349.7,51.9,349.5z
		"/>
	<path class="st3" d="M59,349.6c0,0.6-0.1,1.1-0.2,1.5s-0.3,0.8-0.5,1.2c-0.2,0.3-0.4,0.6-0.7,0.8c-0.3,0.2-0.6,0.4-0.9,0.5
		c-0.3,0.1-0.6,0.2-1,0.3c-0.3,0-0.7,0-1.1,0c-0.1,0-0.3,0-0.4-0.1c-0.1,0-0.3-0.1-0.4-0.1l0.5-8.1c0.3-0.1,0.7-0.2,1-0.2
		c0.3,0,0.7,0,1,0c0.4,0,0.8,0.2,1.1,0.4c0.3,0.2,0.6,0.5,0.9,0.8c0.2,0.4,0.4,0.8,0.5,1.3C59,348.4,59.1,349,59,349.6z M57.2,349.8
		c0-0.2,0-0.4,0-0.6c0-0.2-0.1-0.4-0.2-0.6c-0.1-0.2-0.2-0.3-0.3-0.4c-0.1-0.1-0.3-0.2-0.4-0.2l-0.4,3.7c0.2,0,0.3-0.1,0.5-0.2
		c0.1-0.1,0.3-0.2,0.4-0.4c0.1-0.2,0.2-0.4,0.3-0.6C57.2,350.3,57.2,350.1,57.2,349.8L57.2,349.8z"/>
	<path class="st3" d="M64.1,350c0,0.6-0.1,1.1-0.2,1.5c-0.1,0.4-0.3,0.8-0.5,1.2c-0.2,0.3-0.4,0.6-0.7,0.8c-0.3,0.2-0.6,0.4-0.9,0.5
		c-0.3,0.1-0.6,0.2-1,0.3c-0.3,0-0.7,0.1-1.1,0c-0.1,0-0.3,0-0.4,0c-0.1,0-0.3,0-0.4-0.1l0.4-7.9c0.3-0.1,0.7-0.2,1-0.2
		c0.3,0,0.7,0,1,0c0.4,0,0.8,0.1,1.1,0.3c0.3,0.2,0.6,0.5,0.9,0.8c0.2,0.3,0.4,0.7,0.5,1.2C64.1,348.9,64.2,349.4,64.1,350z
		 M61.1,352.1c0.2,0,0.3-0.1,0.5-0.2c0.1-0.1,0.3-0.2,0.4-0.4s0.2-0.3,0.3-0.5c0.1-0.2,0.1-0.4,0.1-0.7c0-0.2,0-0.4,0-0.7
		c0-0.2-0.1-0.4-0.2-0.5c-0.1-0.2-0.2-0.3-0.3-0.4c-0.1-0.1-0.3-0.2-0.5-0.2L61.1,352.1z"/>
	<path class="st3" d="M69.2,350.2c0,0.4,0,0.7-0.1,1.1c-0.5,0-1,0.1-1.5,0.1c-0.5,0.1-1,0.1-1.5,0.2c0.1,0.3,0.2,0.5,0.3,0.7
		c0.2,0.2,0.3,0.3,0.6,0.3c0.1,0,0.2,0,0.4-0.1c0.1-0.1,0.3-0.1,0.4-0.2s0.3-0.2,0.4-0.3c0.1-0.1,0.2-0.2,0.3-0.3l-0.3,2.7
		c-0.1,0.1-0.2,0.2-0.4,0.3c-0.1,0.1-0.3,0.1-0.4,0.2c-0.1,0-0.3,0.1-0.4,0.1c-0.1,0-0.3,0-0.4,0c-0.3,0-0.5-0.1-0.8-0.2
		c-0.2-0.1-0.4-0.3-0.6-0.5c-0.2-0.2-0.4-0.4-0.5-0.7c-0.1-0.3-0.3-0.6-0.3-0.9c-0.1-0.3-0.2-0.7-0.2-1c0-0.4-0.1-0.7,0-1.1
		c0-0.4,0-0.8,0.1-1.1c0.1-0.4,0.1-0.7,0.2-1.1c0.1-0.3,0.2-0.7,0.4-0.9s0.3-0.5,0.5-0.7c0.2-0.2,0.4-0.4,0.7-0.5
		c0.3-0.1,0.5-0.2,0.9-0.1c0.3,0,0.5,0.1,0.7,0.2c0.2,0.1,0.4,0.3,0.6,0.4c0.2,0.2,0.3,0.4,0.4,0.7c0.1,0.2,0.2,0.5,0.3,0.8
		c0.1,0.3,0.1,0.6,0.2,0.9C69.2,349.5,69.2,349.9,69.2,350.2z M67.4,349.8c0-0.1,0-0.2,0-0.4c0-0.1,0-0.2-0.1-0.3
		c0-0.1-0.1-0.2-0.1-0.2s-0.1-0.1-0.2-0.1c-0.1,0-0.2,0-0.3,0.1c-0.1,0.1-0.2,0.2-0.2,0.3c-0.1,0.1-0.1,0.3-0.2,0.4
		c0,0.2-0.1,0.3-0.1,0.4l1.3-0.1L67.4,349.8z"/>
	<path class="st3" d="M73.8,352.1c0,0.6-0.1,1-0.2,1.4c-0.1,0.4-0.3,0.7-0.6,1c-0.2,0.3-0.5,0.4-0.8,0.6c-0.3,0.1-0.7,0.2-1,0.2
		c-0.1,0-0.3,0-0.5-0.1c-0.2-0.1-0.3-0.1-0.5-0.2c-0.2-0.1-0.3-0.2-0.5-0.3c-0.2-0.1-0.3-0.2-0.4-0.3l0.2-2.4
		c0.2,0.2,0.5,0.4,0.8,0.5c0.3,0.1,0.6,0.2,0.9,0.2c0.1,0,0.1,0,0.2,0c0.1,0,0.2,0,0.2,0c0.1,0,0.1-0.1,0.2-0.1
		c0.1-0.1,0.1-0.1,0.1-0.3c0-0.1,0-0.1-0.1-0.2c0-0.1-0.1-0.1-0.1-0.1c-0.1,0-0.1-0.1-0.2-0.1c-0.1,0-0.1,0-0.2,0
		c-0.1,0-0.1,0-0.2,0c-0.1,0-0.1,0-0.1,0c-0.2,0-0.5-0.1-0.7-0.2c-0.2-0.1-0.4-0.3-0.5-0.5c-0.1-0.2-0.3-0.5-0.3-0.7
		c-0.1-0.3-0.1-0.6-0.1-1c0-0.5,0.1-0.9,0.2-1.3c0.1-0.4,0.3-0.7,0.6-0.9c0.2-0.3,0.5-0.5,0.8-0.6c0.3-0.1,0.6-0.2,0.9-0.2
		c0.1,0,0.3,0,0.4,0c0.2,0,0.3,0,0.5,0.1c0.1,0,0.3,0.1,0.4,0.2c0.1,0.1,0.3,0.1,0.4,0.2l-0.2,2.5c-0.2-0.1-0.4-0.2-0.6-0.3
		c-0.2-0.1-0.4-0.1-0.6-0.1c0,0-0.1,0-0.1,0c-0.1,0-0.1,0-0.2,0c-0.1,0-0.1,0-0.2,0c-0.1,0-0.1,0-0.2,0.1c-0.1,0-0.1,0.1-0.1,0.1
		c0,0.1,0,0.1,0,0.2c0,0.1,0,0.2,0.1,0.2c0,0.1,0.1,0.1,0.2,0.1c0.1,0,0.1,0,0.2,0c0.1,0,0.2,0,0.3,0c0.1,0,0.2,0,0.2,0s0.1,0,0.2,0
		c0.2,0,0.4,0.1,0.6,0.2c0.2,0.1,0.3,0.3,0.5,0.5c0.1,0.2,0.2,0.4,0.3,0.7C73.8,351.5,73.8,351.8,73.8,352.1z"/>
	<path class="st3" d="M78.4,352.2c0,0.6-0.1,1-0.2,1.4c-0.1,0.4-0.3,0.7-0.6,1s-0.5,0.4-0.8,0.6c-0.3,0.1-0.7,0.2-1,0.2
		c-0.1,0-0.3,0-0.5-0.1c-0.2-0.1-0.3-0.1-0.5-0.2c-0.2-0.1-0.3-0.2-0.5-0.3c-0.2-0.1-0.3-0.2-0.4-0.3l0.2-2.4
		c0.2,0.2,0.5,0.4,0.8,0.5c0.3,0.1,0.6,0.2,0.9,0.2c0.1,0,0.1,0,0.2,0c0.1,0,0.2,0,0.2-0.1c0.1,0,0.1-0.1,0.2-0.1
		c0-0.1,0.1-0.1,0.1-0.3c0-0.1,0-0.1-0.1-0.2c0-0.1-0.1-0.1-0.1-0.1c-0.1,0-0.1-0.1-0.2-0.1c-0.1,0-0.1,0-0.2,0c-0.1,0-0.1,0-0.2,0
		c-0.1,0-0.1,0-0.1,0c-0.2,0-0.5-0.1-0.7-0.2c-0.2-0.1-0.4-0.3-0.5-0.5c-0.1-0.2-0.3-0.4-0.3-0.7c-0.1-0.3-0.1-0.6-0.1-1
		c0-0.5,0.1-0.9,0.2-1.3c0.1-0.4,0.3-0.7,0.6-1c0.2-0.3,0.5-0.5,0.8-0.6c0.3-0.1,0.6-0.2,0.9-0.2c0.1,0,0.3,0,0.4,0
		c0.2,0,0.3,0,0.5,0.1c0.1,0,0.3,0.1,0.4,0.1c0.1,0.1,0.3,0.1,0.4,0.2l-0.2,2.5c-0.2-0.1-0.4-0.2-0.6-0.2c-0.2-0.1-0.4-0.1-0.6-0.1
		c0,0-0.1,0-0.1,0s-0.1,0-0.2,0s-0.1,0-0.2,0c-0.1,0-0.1,0-0.2,0.1c-0.1,0-0.1,0.1-0.1,0.1s0,0.1,0,0.2c0,0.1,0,0.2,0.1,0.2
		s0.1,0.1,0.2,0.1c0.1,0,0.1,0,0.2,0c0.1,0,0.2,0,0.3,0c0.1,0,0.2,0,0.2,0c0.1,0,0.1,0,0.2,0c0.2,0,0.4,0.1,0.6,0.2s0.3,0.3,0.5,0.5
		c0.1,0.2,0.2,0.4,0.3,0.7C78.4,351.6,78.4,351.9,78.4,352.2z"/>
	<path class="st3" d="M85.7,350.9c0,0.4,0,0.7-0.1,1.1c-0.1,0.3-0.1,0.7-0.2,1c-0.1,0.3-0.2,0.6-0.4,0.8c-0.2,0.3-0.3,0.5-0.5,0.7
		c-0.2,0.2-0.4,0.3-0.7,0.4c-0.2,0.1-0.5,0.2-0.8,0.2c-0.3,0-0.5,0-0.7-0.1c-0.2-0.1-0.5-0.2-0.7-0.4c-0.2-0.2-0.4-0.4-0.6-0.6
		c-0.2-0.2-0.3-0.5-0.4-0.8c-0.1-0.3-0.2-0.6-0.3-0.9c-0.1-0.3-0.1-0.7-0.1-1c0-0.4,0-0.7,0.1-1c0.1-0.3,0.1-0.7,0.2-1
		c0.1-0.3,0.2-0.6,0.4-0.8c0.2-0.3,0.3-0.5,0.5-0.7c0.2-0.2,0.4-0.3,0.6-0.4c0.2-0.1,0.5-0.2,0.7-0.2c0.4,0,0.8,0.1,1.2,0.2
		c0.3,0.2,0.7,0.4,0.9,0.8c0.3,0.3,0.4,0.7,0.6,1.2C85.7,349.7,85.7,350.3,85.7,350.9z M83.8,351.1c0-0.2,0-0.3-0.1-0.5
		c0-0.2-0.1-0.3-0.2-0.4c-0.1-0.1-0.2-0.2-0.3-0.3c-0.1-0.1-0.2-0.1-0.4-0.1c-0.1,0-0.3,0-0.4,0.1c-0.1,0.1-0.2,0.2-0.3,0.3
		c-0.1,0.1-0.1,0.3-0.2,0.4c0,0.2-0.1,0.3-0.1,0.5c0,0.2,0,0.3,0.1,0.5c0,0.2,0.1,0.3,0.2,0.5c0.1,0.1,0.2,0.2,0.3,0.3
		s0.2,0.1,0.4,0.1c0.1,0,0.3,0,0.4-0.1c0.1-0.1,0.2-0.2,0.3-0.3c0.1-0.1,0.1-0.3,0.2-0.4C83.8,351.4,83.8,351.2,83.8,351.1z"/>
	<path class="st3" d="M89.9,346.2c0,0.4,0,0.8,0,1.1c0,0.4,0,0.8,0,1.1l-1.8,0.2l0,0.8l1.6-0.1l0,1.9l-1.5,0.1l0.1,3.6l-2.2,0.2
		l-0.1-8.8L89.9,346.2z"/>
	<path class="st3" d="M96.4,345.9l0.1,2.6l-1.3,0.2l0.1,5.6l-1.8,0.3L93,349l-1.3,0.2l-0.1-2.9L96.4,345.9z"/>
	<path class="st3" d="M102.1,353.7l-2.2,0.4l-0.2-2.6l-1,0.1l0.1,2.7l-1.9,0.2l-0.3-8.5l2.1-0.1l0.1,4.4l1-0.1l-0.3-4.6l2-0.1
		L102.1,353.7z"/>
	<path class="st3" d="M107,348.4c0,0.4,0,0.7,0,1.1c-0.5,0.1-1,0.2-1.5,0.4s-1,0.3-1.4,0.5c0.1,0.3,0.2,0.5,0.4,0.7s0.4,0.2,0.6,0.2
		c0.1,0,0.2-0.1,0.4-0.1c0.1-0.1,0.3-0.2,0.4-0.3c0.1-0.1,0.3-0.2,0.4-0.3c0.1-0.1,0.2-0.2,0.3-0.3l0,2.8c-0.1,0.1-0.2,0.3-0.3,0.4
		c-0.1,0.1-0.3,0.2-0.4,0.3c-0.1,0.1-0.3,0.1-0.4,0.2c-0.1,0-0.3,0.1-0.4,0.1c-0.3,0-0.6,0-0.8-0.1c-0.2-0.1-0.5-0.2-0.7-0.4
		c-0.2-0.2-0.4-0.4-0.6-0.6c-0.2-0.2-0.3-0.5-0.4-0.8c-0.1-0.3-0.2-0.6-0.3-1c-0.1-0.3-0.1-0.7-0.1-1.1c0-0.4,0-0.8,0-1.1
		c0-0.4,0.1-0.8,0.1-1.1s0.2-0.7,0.3-1c0.1-0.3,0.3-0.6,0.5-0.8c0.2-0.2,0.4-0.4,0.6-0.6c0.2-0.2,0.5-0.3,0.8-0.3
		c0.3,0,0.5,0,0.7,0.1c0.2,0.1,0.4,0.2,0.6,0.3c0.2,0.2,0.3,0.3,0.5,0.6c0.1,0.2,0.3,0.5,0.4,0.8c0.1,0.3,0.2,0.6,0.2,0.9
		C106.9,347.7,106.9,348,107,348.4z M105.2,348.3c0-0.1,0-0.2-0.1-0.3c0-0.1-0.1-0.2-0.1-0.3s-0.1-0.2-0.2-0.2
		c-0.1-0.1-0.1-0.1-0.2-0.1c-0.1,0-0.2,0.1-0.3,0.2c-0.1,0.1-0.1,0.2-0.2,0.4c-0.1,0.1-0.1,0.3-0.1,0.4c0,0.2,0,0.3-0.1,0.4l1.3-0.3
		L105.2,348.3z"/>
</g>
</svg>
