<svg xmlns="http://www.w3.org/2000/svg" viewBox="0 0 138 300"><defs><style>.cls-1{fill:#2c051a;}.cls-2{fill:#4d0f28;}.cls-3{fill:#b660cd;}.cls-4{fill:#4d065e;}.cls-5{fill:#371456;}.cls-6{fill:#7a4a88;}.cls-7{fill:#710194;}.cls-8{fill:#311432;}.cls-9{fill:#fff;}.cls-10{fill:#a10559;}.cls-11{fill:#9e005d;opacity:0.3;}.cls-12{fill:#b58a2d;}.cls-13{fill:#c90060;}.cls-14{fill:#e4b22d;}.cls-15{fill:none;}</style></defs><title>dion</title><g id="Layer_2" data-name="Layer 2"><g id="Layer_1-2" data-name="Layer 1"><path class="cls-1" d="M52,280.81c-1.53-1.81-3.35-3.67-5.47-3.48-1.91.16-3.48,2.05-4.34,4.16a14.26,14.26,0,0,0-.35,9.39,10.91,10.91,0,0,0,5.39,6.64c3.09,1.47,6.54.86,9.8.19,5-1,10-2.16,14.36-5.26a4.32,4.32,0,0,0,1.34-1.35,6.2,6.2,0,0,0,.61-2.26,85.18,85.18,0,0,0,.72-10.36,1.25,1.25,0,0,0-.18-.8.78.78,0,0,0-.55-.2q-10.33-.69-20.69-.78Z"/><path class="cls-1" d="M96.31,280.81c1.53-1.81,3.36-3.67,5.47-3.48,1.91.16,3.48,2.05,4.34,4.16a14.33,14.33,0,0,1,.36,9.39,11,11,0,0,1-5.4,6.64c-3.09,1.47-6.54.86-9.8.19-5-1-10-2.16-14.36-5.26a4.32,4.32,0,0,1-1.34-1.35,6.2,6.2,0,0,1-.61-2.26,85.18,85.18,0,0,1-.72-10.36,1.25,1.25,0,0,1,.18-.8.8.8,0,0,1,.55-.2q10.33-.69,20.7-.78Z"/><path class="cls-2" d="M73.79,279.35a40.45,40.45,0,0,0,20.22,2,3.75,3.75,0,0,0,2-.76,3.65,3.65,0,0,0,.9-1.59c1.87-5.24,2.55-10.82,3.45-16.3a70.64,70.64,0,0,1,2.7-11.5c2-5.69,5.14-10.9,7.4-16.49A55.38,55.38,0,0,0,113,201.81H35.18a55.3,55.3,0,0,0,2.56,32.86c2.25,5.59,5.42,10.8,7.39,16.49a69.61,69.61,0,0,1,2.7,11.5c.91,5.48,1.59,11.06,3.45,16.3a3.86,3.86,0,0,0,.9,1.59,3.78,3.78,0,0,0,2,.76,40.48,40.48,0,0,0,20.23-2"/><path class="cls-3" d="M105,198.36a34.54,34.54,0,0,0,11.55-4,18.43,18.43,0,0,0,5-3.37,13.31,13.31,0,0,0,3.32-9.66,34.34,34.34,0,0,0-2.27-10.2c-1.51-4.43-3.19-8.8-5.09-13.07L110.38,156l-15.9,3.51v10.06l1.17,13.33,5.85,11Z"/><path class="cls-4" d="M123.44,148.56c-.51-2.64-2.71-4.63-4.13-6.91a16.19,16.19,0,0,0-8.59-6.91,12.64,12.64,0,0,0-10.78,1.39l2,30.75c4.35,3,10.08,3.27,15.3,2.39,2.62-.44,5.36-1.24,7-3.27.89-1.07.79-6.41.9-7.63"/><path class="cls-3" d="M37,199.37a34.69,34.69,0,0,1-11.56-4,18.13,18.13,0,0,1-5-3.36A13.33,13.33,0,0,1,17,182.37a34.72,34.72,0,0,1,2.27-10.21c1.52-4.42,3.2-8.79,5.1-13.06L31.58,157l15.9,3.51v10.05l-1.17,13.33-5.84,11Z"/><path class="cls-5" d="M19,148.4c.52-2.64,2.72-4.63,4.14-6.91a16.07,16.07,0,0,1,8.59-6.91A12.58,12.58,0,0,1,42.49,136l-2,30.75c-4.34,3-10.08,3.27-15.3,2.39-2.61-.44-5.35-1.24-7-3.28-.88-1.06-.78-6.4-.9-7.62"/><ellipse class="cls-6" cx="74.02" cy="173.11" rx="25.25" ry="35.31"/><path class="cls-7" d="M63.11,138.36c-2.55-2.73-6.35-4.35-10.17-5.57s-8.26-1.92-11.18.35c-2,1.59-2.54,4.15-2.85,6.51-1.19,8.95-2.85,18-3.2,27A112.25,112.25,0,0,1,33,189.34c-1.85,7.45-3.62,14.74-9.38,20.52l-2.94,2.63a17.59,17.59,0,0,0-3.77,14,3.32,3.32,0,0,0,.54,1.47,4,4,0,0,0,3.15,1.19c5.56.09,10-4.55,15.54-4.76,6.67-.26,11.82,5.86,18.49,6a11.7,11.7,0,0,0,8.68-3.75,12.63,12.63,0,0,0,3.15-8.09,30.52,30.52,0,0,0-.49-5.71l-4-26.8c-.74-5-1.48-10-2.54-14.92-.57-2.66-1.23-5.32-1.54-8a31,31,0,0,1,2.78-16.63c1.21-2.57,2.8-5.31,1.94-8Z"/><path class="cls-7" d="M123.86,210.31a10.19,10.19,0,0,1-2.67-3.53l-5.59-9.48c-1.1-1.88-2.21-3.76-3.16-5.71-4.44-9.18-5-19.5-4.65-29.53.19-4.88.58-9.84-.6-14.61a22.46,22.46,0,0,0-9.77-13.54,11.46,11.46,0,0,0-4.15-1.74c-4.47-.75-8.59,2.38-11.26,5.72l-.92,2.32,2.25,20.68,1,9.17,1.24,11.31c1,8.84,1.92,17.87-.26,26.53-1,4-2.67,7.9-2.65,12a13.23,13.23,0,0,0,5.88,11.05,8.21,8.21,0,0,0,4.92,1.47c3.79-.26,6.18-3.88,7.12-7.23a13,13,0,0,1,1.4-3.86c2.11-3.16,7-3.53,11-3.09s8.44,1.27,11.93-.63a4.82,4.82,0,0,0,2.41-2.61,2.68,2.68,0,0,0-1.12-3.1Z"/><path class="cls-3" d="M85.39,134.84a2.74,2.74,0,0,0,2.14-.81,8.19,8.19,0,0,0,.84-.72,10.16,10.16,0,0,0,1.56-5.21,2.27,2.27,0,0,0-.84-1.66.76.76,0,0,0-.59-.17.91.91,0,0,0-.37.21c-.63.49-1.23,1-1.81,1.54l-2.78,1.71Z"/><path d="M87.49,131.79l0,0-.05-.08a.71.71,0,0,1,.08.15l0-.09a.59.59,0,0,1,0,.19v-.1a.54.54,0,0,1,0,.18V132a1.16,1.16,0,0,1,0,.18l0-.09a.64.64,0,0,1-.08.14l.06-.08a.8.8,0,0,1-.13.13l.08-.06a.51.51,0,0,1-.16.09l.09,0-.18.06.09,0h-.17a.39.39,0,0,0-.27.11.44.44,0,0,0-.11.27.41.41,0,0,0,.11.26L87,133a.32.32,0,0,0,.19.05,1.07,1.07,0,0,0,.6-.12,1,1,0,0,0,.42-.41,1,1,0,0,0,.13-.59,1.08,1.08,0,0,0-.07-.31,1.17,1.17,0,0,0-.2-.34.35.35,0,0,0-.26-.11.4.4,0,0,0-.27.11.44.44,0,0,0-.11.27.5.5,0,0,0,.11.26Z"/><path class="cls-3" d="M56.85,134.91a2.73,2.73,0,0,1-2.14-.81,5.87,5.87,0,0,1-.84-.73,6.73,6.73,0,0,1-1.35-3.29,6.87,6.87,0,0,1-.21-1.91,2.2,2.2,0,0,1,.84-1.66.72.72,0,0,1,.59-.17.91.91,0,0,1,.37.21c.62.49,1.22,1,1.8,1.54l2.78,1.71Z"/><path class="cls-3" d="M88.17,123.65c0,9.43-7.64,22.21-17.07,22.21S54,133.08,54,123.65a17.07,17.07,0,0,1,34.14,0Z"/><ellipse class="cls-8" cx="53.73" cy="118.93" rx="3.68" ry="4.73"/><ellipse class="cls-8" cx="54.78" cy="125.24" rx="3.68" ry="4.73"/><ellipse class="cls-8" cx="55.57" cy="120.51" rx="3.68" ry="4.73"/><ellipse class="cls-8" cx="57.41" cy="115.52" rx="3.68" ry="4.73"/><ellipse class="cls-8" cx="88.04" cy="118.46" rx="3.68" ry="4.73"/><ellipse class="cls-8" cx="86.99" cy="124.77" rx="3.68" ry="4.73"/><ellipse class="cls-8" cx="86.2" cy="120.04" rx="3.68" ry="4.73"/><ellipse class="cls-8" cx="84.37" cy="115.05" rx="3.68" ry="4.73"/><path class="cls-9" d="M66.19,121.08a3.26,3.26,0,0,1,3,2c0-.2.14-.42.06-.59a3.07,3.07,0,0,0-3.16-2.1c-1.74,0-2.45.93-3.15,2.1-.16.26,0,.63.15,1A3.28,3.28,0,0,1,66.19,121.08Z"/><path class="cls-10" d="M66.19,122.72a2.1,2.1,0,0,1,2.1,2.1,2.44,2.44,0,0,1,0,.27,5.24,5.24,0,0,0,.89-2,3.23,3.23,0,0,0-6.1.38,5.15,5.15,0,0,0,1.13,2,2.14,2.14,0,0,1-.11-.67A2.1,2.1,0,0,1,66.19,122.72Z"/><path d="M66.07,126.46a2.91,2.91,0,0,0,2.21-1.37,2.44,2.44,0,0,0,0-.27,2.1,2.1,0,0,0-4.2,0,2.14,2.14,0,0,0,.11.67A2.62,2.62,0,0,0,66.07,126.46Z"/><circle class="cls-9" cx="64.55" cy="123.18" r="0.47"/><circle class="cls-9" cx="64.74" cy="124.07" r="0.19"/><path class="cls-9" d="M76.48,120.85a3.29,3.29,0,0,1,3,2c0-.2.14-.42.06-.59a3.09,3.09,0,0,0-3.16-2.1c-1.74,0-2.46.93-3.16,2.1-.15.26.06.63.15,1A3.3,3.3,0,0,1,76.48,120.85Z"/><path class="cls-10" d="M76.48,122.49a2.1,2.1,0,0,1,2.1,2.1,2.45,2.45,0,0,1,0,.27,5.27,5.27,0,0,0,.9-2,3.24,3.24,0,0,0-6.11.38,5.34,5.34,0,0,0,1.13,2,2.14,2.14,0,0,1-.11-.67A2.1,2.1,0,0,1,76.48,122.49Z"/><path d="M76.36,126.23a2.89,2.89,0,0,0,2.2-1.37,2.45,2.45,0,0,0,0-.27,2.11,2.11,0,0,0-4.21,0,2.14,2.14,0,0,0,.11.67A2.66,2.66,0,0,0,76.36,126.23Z"/><circle class="cls-9" cx="74.84" cy="122.95" r="0.47"/><circle class="cls-9" cx="75.03" cy="123.84" r="0.19"/><path d="M70.48,127.13a6.67,6.67,0,0,1-1,2.32l-.72,1.23c-.21.35-.52.75-.42,1.19.16.65,1.09,1,1.66,1.19a4.63,4.63,0,0,0,2.09.13,4.36,4.36,0,0,0,2.16-1c.37-.31-.17-.84-.53-.53a3.76,3.76,0,0,1-4.17.41,1.14,1.14,0,0,1-.44-.31c-.09-.15.09-.33.16-.46l.81-1.37a7.8,7.8,0,0,0,1.18-2.59.38.38,0,0,0-.27-.46.38.38,0,0,0-.46.26Z"/><ellipse class="cls-11" cx="80" cy="129.63" rx="3.71" ry="3.39" transform="matrix(0.94, -0.34, 0.34, 0.94, -39.25, 34.85)"/><ellipse class="cls-11" cx="62.23" cy="129.86" rx="3.71" ry="3.39" transform="translate(-40.39 28.84) rotate(-19.84)"/><path d="M63.39,119.91l4.66-1.66a1.15,1.15,0,0,0,.79-1.39,1.13,1.13,0,0,0-1.38-.78l-4.67,1.66a1.13,1.13,0,1,0,.6,2.17Z"/><path d="M79.28,117.74l-4.67-1.66a1.13,1.13,0,0,0-1.38.78,1.16,1.16,0,0,0,.78,1.39l4.67,1.66a1.13,1.13,0,0,0,1.38-.79,1.14,1.14,0,0,0-.78-1.38Z"/><path d="M64.76,136.27c.58.35.88,1,1.34,1.47a5.66,5.66,0,0,0,1.75,1.19,8.15,8.15,0,0,0,4.1.74,8.26,8.26,0,0,0,6.35-3.94.38.38,0,0,0-.65-.38,7.5,7.5,0,0,1-6.14,3.6,7.37,7.37,0,0,1-3.76-.91,4.86,4.86,0,0,1-1.56-1.36,3.82,3.82,0,0,0-1.06-1.06c-.41-.25-.79.4-.37.65Z"/><path d="M63.05,135.77a1.5,1.5,0,0,0,1.55.66,1.39,1.39,0,0,0,1.1-1.17,1.46,1.46,0,0,0-.18-1,.38.38,0,0,0-.51-.13.38.38,0,0,0-.14.51.54.54,0,0,0,.07.13s0-.07,0,0a.08.08,0,0,1,0,0l0,.08s0,0,0,.07,0,0,0,0,0,0,0,0a1,1,0,0,1,0,.17s0,.09,0,0,0,0,0,0a.83.83,0,0,1,0,.15s0,0,0,0,0,0,0,0,0,.06,0,.06a1,1,0,0,1-.08.14s0,0,0,0l0,0,0,.06-.05,0,0,0s.07-.05,0,0l-.13.08,0,0,0,0-.08,0-.07,0c-.06,0,.08,0,0,0h-.22l-.15,0,0,0s0,0-.06,0l-.07,0,0,0,0,0h0s0,0,0,0l0,0-.06-.06,0,0,0,0,0-.08a.39.39,0,0,0-.52-.14.4.4,0,0,0-.13.52Z"/><path d="M79.06,134.92l0,.06c0,.06,0,0,0,0l-.11.11,0,0s.06,0,0,0l-.06,0-.07,0,0,0c.05,0,0,0,0,0l-.07,0h-.1c-.06,0,0,0,0,0s-.11,0-.14,0h-.11s.07,0,0,0l-.14,0h0s0,0,0,0l-.07,0,0,0s0,0,0,0L78,135l0,0s0,0,0,0l0-.06s0-.09-.08-.14l0,0,0,0a.14.14,0,0,0,0-.06s0-.13,0-.15v-.19c0-.06,0,.08,0,0a1.42,1.42,0,0,0,0-.16s0,0,0,0,0,0,0,0a.56.56,0,0,1,0-.08.38.38,0,1,0-.65-.38,1.49,1.49,0,0,0,.08,1.62,1.39,1.39,0,0,0,.75.53,1.54,1.54,0,0,0,.85,0,1.48,1.48,0,0,0,.79-.62.37.37,0,0,0-.64-.38Z"/><path d="M54.21,131.33a1.18,1.18,0,0,0-.27.64,1.12,1.12,0,0,0,.13.6,1.08,1.08,0,0,0,1,.53.36.36,0,0,0,.26-.11.33.33,0,0,0,.11-.26.35.35,0,0,0-.11-.27.36.36,0,0,0-.26-.11.54.54,0,0,1-.18,0l.1,0a.6.6,0,0,1-.19-.06l.09,0a.46.46,0,0,1-.15-.09l.07.06a.49.49,0,0,1-.12-.13l.05.08a1,1,0,0,1-.08-.14l0,.09a1.21,1.21,0,0,1,0-.18l0,.1a.54.54,0,0,1,0-.18l0,.1a1.05,1.05,0,0,1,0-.19l0,.08a1,1,0,0,1,.08-.14l-.06.08,0,0a.38.38,0,0,0,.11-.26.37.37,0,0,0-.11-.27.38.38,0,0,0-.53,0Z"/><path class="cls-3" d="M41,178.91c.19-2.39-.25-4.74.66-6.95l-19.12-5.07q-2.05,5-4.1,9.9c-1.23,3-2.47,6.2-1.56,9.27.79,2.63,3,4.53,5.22,6.14a42.41,42.41,0,0,0,12.51,6.63,22.62,22.62,0,0,0,14,0,36.7,36.7,0,0,0,5.86-2.9l12.84-7.33a6.89,6.89,0,0,0,.53-7.2,7.07,7.07,0,0,0-5.47-3.5c-5.65,3.74-11.66,4.61-18.39,4.89a3.33,3.33,0,0,1-2.93-3.9Z"/><path class="cls-4" d="M46.21,140.26l-4-4.4a12,12,0,0,0-8.68-3.54,14,14,0,0,0-8.47,2.79,24.52,24.52,0,0,0-4.4,4.64,14.53,14.53,0,0,0-2.89,5c-1.35,4.07-1.22,8.25-1.8,12.49-.42,3.09-.59,6.43,1,9.14s4.69,4.34,7.75,5.29a32.86,32.86,0,0,0,17.73.42,6.13,6.13,0,0,0,2.2-.92,6,6,0,0,0,1.76-2.55c3.86-9,1.95-19.33-.34-28.86"/><ellipse class="cls-12" cx="64.18" cy="165.49" rx="10.99" ry="2.79"/><ellipse class="cls-13" cx="64.24" cy="166.36" rx="8.62" ry="1.63"/><path class="cls-14" d="M75.17,165.4v1.26c0,8.06-4.92,14.6-11,14.6h0c-6.07,0-11-6.54-11-14.6V165.4l2.6.78c3.23,1.14,13.68,1.14,16.77,0Z"/><rect class="cls-14" x="62.95" y="176.45" width="2.44" height="15.96"/><ellipse class="cls-14" cx="64.11" cy="194.13" rx="9.29" ry="1.78"/><path class="cls-3" d="M60.54,183.77a1.92,1.92,0,0,0,1.63.52h.08c-.7-.13-1.08-.45-1.11-1-.08-.21,0,0,0,.06a3.49,3.49,0,0,0,.1.79,3.13,3.13,0,0,0,.79,1.29l.36.37.16.18c.23.24-.24-.24,0,0l0,.09c-.07-.18-.09-.21-.06-.11,0,.31,0,0,0,0v.32c-.05-.06.07-.32,0,0,0,0,0,.23-.08.26l.05-.1a1.09,1.09,0,0,1-.08.15,3.21,3.21,0,0,1-.29.46,3,3,0,0,0-.54,1.63c0,.09,0,.19,0,.28s.09-.26,0,0a.92.92,0,0,1,.38-.52,1.14,1.14,0,0,1,1.29.18,1.5,1.5,0,0,0-2.12,0,1.54,1.54,0,0,0,0,2.12,1.88,1.88,0,0,0,2.42.24,2.49,2.49,0,0,0,1-2.19c0-.12.09-.4,0-.05s0,.06.05-.06a4.52,4.52,0,0,0,.39-.58,4.16,4.16,0,0,0,.53-2,3.26,3.26,0,0,0-.79-2.06c-.13-.16-.27-.3-.41-.45l-.26-.27c-.21-.22.16.28,0,0s-.07-.1,0,.12c0-.15,0-.1,0,.14,0-.06,0-.19,0-.26a2.19,2.19,0,0,0-.3-1.14,1.86,1.86,0,0,0-1.5-.85,1,1,0,0,0-.24,0c-.58,0,.11-.11.57.35a1.5,1.5,0,1,0-2.12,2.12Z"/><path d="M74.64,278.37a194.7,194.7,0,0,1,.42-51.1c.07-.48-.65-.68-.72-.2a195.36,195.36,0,0,0-.45,51.3c.06.48.81.48.75,0Z"/><rect class="cls-15" width="138" height="300"/></g></g></svg>