<?xml version="1.0" encoding="utf-8"?>
<!-- Generator: Adobe Illustrator 24.0.2, SVG Export Plug-In . SVG Version: 6.00 Build 0)  -->
<svg version="1.1" id="Layer_1" xmlns="http://www.w3.org/2000/svg" xmlns:xlink="http://www.w3.org/1999/xlink" x="0px" y="0px"
	 viewBox="0 0 170 400" style="enable-background:new 0 0 170 400;" xml:space="preserve">
<style type="text/css">
	.st0{fill:#914B17;}
	.st1{fill:#BA6523;}
	.st2{fill:#F9B017;}
	.st3{fill:#020203;}
</style>
<g>
	<g>
		<path class="st0" d="M141.4,360.9c0,16.3-30.6,29.4-68.3,29.4s-63-11.6-68.3-29.4v-55.1h136.6V360.9z"/>
		<ellipse class="st1" cx="73.1" cy="307.1" rx="68.3" ry="25"/>
	</g>
	<path class="st2" d="M125,368.6c-11,4.2-29.2,9.7-52.1,9.7c-22.7,0-40.7-5.4-51.7-9.7c0-11.6,0-23.2,0-34.8
		c10.6,4.3,28.6,10.1,51.7,10.1c23.3,0,41.5-5.8,52.1-10.1C125,345.4,125,357,125,368.6z"/>
</g>
<g>
	<path class="st3" d="M51.2,353.7c-0.2,0.2-0.4,0.4-0.7,0.6s-0.6,0.3-0.9,0.3c-0.3,0.1-0.6,0.1-0.9,0.1c-0.3,0-0.6,0-0.9,0
		c-0.5-0.1-1-0.3-1.4-0.6c-0.4-0.3-0.8-0.7-1.1-1.1c-0.3-0.4-0.5-1-0.6-1.5c-0.1-0.6-0.1-1.2-0.1-1.8c0.1-0.5,0.2-0.9,0.3-1.4
		c0.1-0.4,0.3-0.8,0.5-1.2c0.2-0.4,0.5-0.7,0.8-1c0.3-0.3,0.6-0.5,0.9-0.7c0.3-0.2,0.7-0.3,1.1-0.4c0.4-0.1,0.8-0.1,1.2,0
		c0.2,0,0.3,0.1,0.5,0.1c0.2,0,0.4,0.1,0.5,0.2c0.2,0.1,0.3,0.1,0.5,0.2c0.2,0.1,0.3,0.2,0.4,0.3l-0.4,2.4c-0.2-0.1-0.4-0.2-0.6-0.3
		c-0.2-0.1-0.4-0.1-0.6-0.2c-0.3,0-0.6,0-0.8,0c-0.3,0.1-0.5,0.2-0.7,0.3c-0.2,0.2-0.4,0.4-0.5,0.7c-0.1,0.3-0.2,0.6-0.3,0.9
		c0,0.2,0,0.4,0,0.7c0,0.2,0.1,0.4,0.2,0.6c0.1,0.2,0.2,0.3,0.3,0.5c0.1,0.1,0.3,0.2,0.5,0.2c0.1,0,0.3,0,0.4,0s0.3-0.1,0.4-0.2
		l0.1-0.5l-1.3-0.2l0.3-1.9c0.6,0.1,1.1,0.1,1.7,0.2c0.6,0.1,1.1,0.1,1.7,0.2L51.2,353.7z"/>
	<path class="st3" d="M58.7,351.4c0,0.4-0.1,0.8-0.2,1.1c-0.1,0.4-0.3,0.7-0.4,1c-0.2,0.3-0.4,0.6-0.6,0.8c-0.2,0.2-0.5,0.4-0.8,0.6
		c-0.3,0.2-0.6,0.3-0.9,0.3c-0.3,0.1-0.6,0.1-1,0c-0.3,0-0.6-0.1-0.9-0.3c-0.3-0.1-0.6-0.3-0.8-0.5c-0.2-0.2-0.5-0.5-0.7-0.7
		c-0.2-0.3-0.3-0.6-0.5-0.9c-0.1-0.3-0.2-0.7-0.3-1c-0.1-0.4-0.1-0.7,0-1.1c0-0.4,0.1-0.7,0.2-1.1c0.1-0.4,0.3-0.7,0.4-1
		c0.2-0.3,0.4-0.6,0.6-0.8c0.2-0.2,0.5-0.4,0.8-0.6c0.3-0.2,0.6-0.3,0.9-0.4c0.3-0.1,0.6-0.1,1,0c0.5,0.1,1,0.2,1.4,0.5
		c0.4,0.2,0.8,0.6,1.1,1c0.3,0.4,0.5,0.9,0.6,1.4S58.7,350.7,58.7,351.4z M56.2,351.2c0-0.2,0-0.4,0-0.6c0-0.2-0.1-0.3-0.2-0.5
		c-0.1-0.1-0.2-0.3-0.3-0.4c-0.1-0.1-0.3-0.2-0.4-0.2c-0.2,0-0.3,0-0.5,0.1c-0.1,0.1-0.3,0.1-0.4,0.3c-0.1,0.1-0.2,0.3-0.3,0.4
		c-0.1,0.2-0.1,0.3-0.1,0.5c0,0.2,0,0.4,0,0.6c0,0.2,0.1,0.4,0.2,0.5c0.1,0.2,0.2,0.3,0.3,0.4c0.1,0.1,0.3,0.2,0.4,0.2
		c0.2,0,0.3,0,0.5-0.1c0.1-0.1,0.3-0.2,0.4-0.3c0.1-0.1,0.2-0.3,0.3-0.4C56.1,351.6,56.2,351.4,56.2,351.2z"/>
	<path class="st3" d="M65.2,351.4c0,0.6-0.1,1.1-0.3,1.6c-0.2,0.5-0.4,0.9-0.6,1.3c-0.3,0.4-0.6,0.7-0.9,0.9
		c-0.3,0.2-0.7,0.4-1.1,0.6c-0.4,0.1-0.8,0.2-1.3,0.3c-0.5,0-0.9,0-1.4,0c-0.2,0-0.3,0-0.5-0.1c-0.2,0-0.3-0.1-0.5-0.1l0.7-8.7
		c0.4-0.1,0.8-0.2,1.3-0.2c0.4,0,0.9,0,1.3,0c0.5,0,1,0.2,1.5,0.4c0.4,0.2,0.8,0.5,1.1,0.9c0.3,0.4,0.5,0.8,0.7,1.4
		C65.2,350.1,65.3,350.7,65.2,351.4z M62.9,351.6c0-0.2,0-0.5,0-0.7s-0.1-0.4-0.2-0.6c-0.1-0.2-0.2-0.3-0.4-0.4
		c-0.2-0.1-0.3-0.2-0.6-0.2l-0.5,4c0.2,0,0.4-0.1,0.6-0.2c0.2-0.1,0.4-0.3,0.5-0.4c0.1-0.2,0.3-0.4,0.3-0.6
		C62.8,352.2,62.9,351.9,62.9,351.6L62.9,351.6z"/>
	<path class="st3" d="M74.5,352.3c0,0.4-0.1,0.8-0.1,1.1c-0.1,0.4-0.2,0.7-0.4,1c-0.2,0.3-0.3,0.6-0.6,0.9c-0.2,0.3-0.5,0.5-0.7,0.7
		c-0.3,0.2-0.6,0.3-0.9,0.4c-0.3,0.1-0.6,0.1-1,0.1c-0.3,0-0.7-0.1-1-0.2c-0.3-0.1-0.6-0.3-0.8-0.5s-0.5-0.4-0.7-0.7
		c-0.2-0.3-0.4-0.6-0.5-0.9c-0.1-0.3-0.3-0.7-0.3-1c-0.1-0.4-0.1-0.7-0.1-1.1c0-0.4,0.1-0.7,0.1-1.1c0.1-0.4,0.2-0.7,0.4-1
		s0.3-0.6,0.6-0.9c0.2-0.3,0.5-0.5,0.7-0.7c0.3-0.2,0.6-0.3,0.9-0.4c0.3-0.1,0.6-0.1,1-0.1c0.5,0,1,0.1,1.5,0.3
		c0.4,0.2,0.8,0.5,1.1,0.9c0.3,0.4,0.5,0.8,0.7,1.3C74.4,351.1,74.5,351.7,74.5,352.3z M72,352.4c0-0.2,0-0.4-0.1-0.5
		c0-0.2-0.1-0.3-0.2-0.5c-0.1-0.1-0.2-0.3-0.3-0.3c-0.1-0.1-0.3-0.1-0.5-0.1c-0.2,0-0.3,0-0.5,0.1c-0.1,0.1-0.3,0.2-0.4,0.3
		c-0.1,0.1-0.2,0.3-0.2,0.4c-0.1,0.2-0.1,0.3-0.1,0.5c0,0.2,0,0.4,0.1,0.6c0,0.2,0.1,0.4,0.2,0.5c0.1,0.2,0.2,0.3,0.3,0.4
		c0.1,0.1,0.3,0.1,0.5,0.2s0.3,0,0.5-0.1c0.1-0.1,0.3-0.2,0.4-0.3c0.1-0.1,0.2-0.3,0.2-0.5C72,352.8,72,352.6,72,352.4z"/>
	<path class="st3" d="M80.1,347.6c0,0.4,0,0.8-0.1,1.2c0,0.4,0,0.8-0.1,1.2l-2.4,0.1l0,0.8l2.1,0l-0.1,2l-2,0.1v3.9l-2.8,0.1
		l0.2-9.4L80.1,347.6z"/>
	<path class="st3" d="M88.2,347.4l0,2.8l-1.7,0.1l-0.3,6.2l-2.4,0.2l-0.2-6.2l-1.7,0.2l0-3.1L88.2,347.4z"/>
	<path class="st3" d="M95.3,356.2l-2.8,0.4l-0.2-3l-1.3,0.1l0.1,2.9l-2.5,0.2l-0.3-9.2l2.7-0.1l0.1,4.7l1.2-0.1l-0.3-5l2.6-0.1
		L95.3,356.2z"/>
	<path class="st3" d="M101.6,350.2c0,0.4,0,0.8,0,1.1c-0.6,0.1-1.3,0.3-1.9,0.4c-0.6,0.2-1.2,0.3-1.9,0.5c0.1,0.3,0.3,0.5,0.5,0.7
		c0.2,0.2,0.5,0.2,0.8,0.2c0.1,0,0.3-0.1,0.5-0.2c0.2-0.1,0.3-0.2,0.5-0.3c0.2-0.1,0.3-0.2,0.5-0.4c0.2-0.1,0.3-0.2,0.4-0.3l0,3
		c-0.1,0.1-0.3,0.3-0.4,0.4c-0.2,0.1-0.3,0.2-0.5,0.3c-0.2,0.1-0.4,0.1-0.5,0.2c-0.2,0-0.4,0.1-0.5,0.1c-0.4,0-0.7,0-1-0.1
		c-0.3-0.1-0.6-0.2-0.9-0.4c-0.3-0.2-0.5-0.4-0.7-0.7c-0.2-0.3-0.4-0.6-0.5-0.9c-0.1-0.3-0.3-0.7-0.4-1c-0.1-0.4-0.2-0.7-0.2-1.1
		c0-0.4,0-0.8,0-1.2c0-0.4,0.1-0.8,0.2-1.2c0.1-0.4,0.2-0.7,0.4-1.1c0.2-0.3,0.4-0.6,0.6-0.9c0.2-0.3,0.5-0.5,0.8-0.7
		c0.3-0.2,0.7-0.3,1.1-0.3c0.3,0,0.6,0,0.9,0.1c0.3,0.1,0.5,0.2,0.8,0.4c0.2,0.2,0.4,0.4,0.6,0.6c0.2,0.2,0.3,0.5,0.5,0.8
		s0.2,0.6,0.3,1C101.5,349.5,101.5,349.9,101.6,350.2z M99.3,350.1c0-0.1,0-0.2-0.1-0.4c0-0.1-0.1-0.2-0.1-0.3
		c-0.1-0.1-0.1-0.2-0.2-0.2s-0.2-0.1-0.3-0.1c-0.1,0-0.3,0.1-0.4,0.2c-0.1,0.1-0.2,0.2-0.3,0.4c-0.1,0.1-0.1,0.3-0.2,0.5
		c0,0.2-0.1,0.3-0.1,0.5l1.6-0.4L99.3,350.1z"/>
</g>
<g>
	<path class="st3" d="M34.9,357.4c-0.1,0.6-0.1,1.2-0.3,1.9c-0.1,0.7-0.2,1.4-0.4,2.1c-0.2,0.7-0.3,1.5-0.5,2.2
		c-0.2,0.7-0.4,1.4-0.7,2.1c-0.3,0.7-0.6,1.3-0.9,1.8c-0.3,0.5-0.7,1-1,1.4c-0.4,0.4-0.8,0.6-1.2,0.8c-0.4,0.1-0.9,0.2-1.4,0
		c-0.6-0.2-1.1-0.5-1.5-0.9c-0.4-0.4-0.7-0.9-1-1.5c-0.3-0.6-0.4-1.2-0.6-2c-0.1-0.7-0.2-1.5-0.2-2.3c0-0.8,0-1.6,0-2.4
		c0-0.8,0.1-1.5,0.2-2.3c0.1-1.1,0.3-2.2,0.4-3.3c0.2-1.1,0.4-2.2,0.6-3.2l3.5,1.2c-0.3,1.2-0.5,2.4-0.7,3.6
		c-0.2,1.2-0.4,2.5-0.5,3.7c0,0.1,0,0.3-0.1,0.6c0,0.3,0,0.6,0,0.9c0,0.3,0,0.7,0,1c0,0.4,0,0.7,0.1,1c0,0.3,0.1,0.6,0.2,0.8
		c0.1,0.2,0.2,0.3,0.3,0.4c0.1,0,0.3,0,0.4-0.2c0.1-0.2,0.3-0.4,0.4-0.8c0.1-0.3,0.2-0.7,0.4-1.2c0.1-0.5,0.2-0.9,0.3-1.4
		c0.1-0.5,0.2-1,0.3-1.5c0.1-0.5,0.2-1,0.2-1.4c0.1-0.4,0.1-0.8,0.2-1.2s0.1-0.6,0.1-0.8c0.1-0.6,0.1-1.2,0.2-1.9s0.1-1.2,0.1-1.8
		l3.5,1C35.1,355.1,35,356.3,34.9,357.4z"/>
	<path class="st3" d="M44.2,366.8c-0.1,0.9-0.1,1.8-0.2,2.7c-0.1,0.9-0.2,1.8-0.3,2.6l-4.4-1.1c0.3-1.4,0.5-2.8,0.7-4.1
		s0.4-2.8,0.5-4.2c0-0.1,0-0.3,0-0.5c0-0.2,0-0.5,0-0.8c0-0.3,0-0.6,0-0.9c0-0.3,0-0.6,0-0.9c0-0.3-0.1-0.5-0.1-0.7
		c-0.1-0.2-0.1-0.3-0.2-0.3c-0.2,0-0.3,0-0.5,0.1c-0.1,0.1-0.2,0.3-0.3,0.5c-0.1,0.2-0.2,0.5-0.3,0.8c-0.1,0.3-0.1,0.6-0.2,0.9
		c0,0.3-0.1,0.6-0.1,0.9c0,0.3,0,0.5-0.1,0.7c-0.1,1.4-0.3,2.8-0.4,4.2s-0.2,2.8-0.4,4.2l-3.9-0.6c0.3-2.8,0.6-5.6,0.9-8.3
		c0.3-2.8,0.6-5.5,0.9-8.3l3.6,0.5l-0.2,1.9c0.2-0.2,0.3-0.5,0.5-0.7c0.2-0.2,0.4-0.4,0.6-0.5c0.2-0.1,0.4-0.2,0.6-0.3
		c0.2-0.1,0.4-0.1,0.7,0c0.4,0.1,0.8,0.3,1.1,0.6c0.3,0.3,0.6,0.7,0.8,1.1c0.2,0.4,0.4,0.9,0.5,1.5c0.1,0.6,0.2,1.1,0.3,1.8
		c0.1,0.6,0.1,1.2,0.1,1.9c0,0.7,0,1.3,0,1.9c0,0.6-0.1,1.2-0.1,1.8C44.3,365.8,44.3,366.4,44.2,366.8z"/>
	<path class="st3" d="M53.9,364.9c-0.1,1.1-0.2,2.1-0.4,3c-0.2,0.9-0.5,1.6-0.9,2.2c-0.4,0.6-0.8,1.2-1.3,1.6
		c-0.5,0.4-1,0.7-1.5,0.9c-0.6,0.2-1.1,0.4-1.8,0.4c-0.6,0-1.2,0-1.9-0.1c-0.2,0-0.5-0.1-0.7-0.1c-0.2-0.1-0.5-0.1-0.7-0.2l1-15.6
		c0.6-0.2,1.2-0.3,1.8-0.3c0.6,0,1.2,0,1.8,0.1c0.7,0.1,1.4,0.4,2,0.8c0.6,0.4,1.1,1,1.5,1.7c0.4,0.7,0.7,1.5,0.9,2.5
		C53.9,362.7,54,363.7,53.9,364.9z M48.5,368.7c0.3,0,0.6-0.1,0.9-0.3c0.3-0.2,0.5-0.4,0.7-0.7c0.2-0.3,0.4-0.6,0.5-1
		c0.1-0.4,0.2-0.8,0.2-1.3c0-0.5,0-0.9,0-1.3c0-0.4-0.1-0.8-0.2-1.1c-0.1-0.3-0.3-0.6-0.5-0.8c-0.2-0.2-0.5-0.3-0.8-0.4L48.5,368.7z
		"/>
	<path class="st3" d="M62.9,365.7c0,0.7-0.1,1.4-0.2,2.1c-0.9,0-1.7,0-2.6,0.2c-0.9,0.1-1.7,0.2-2.6,0.3c0.1,0.6,0.3,1.1,0.6,1.4
		c0.3,0.4,0.6,0.6,1,0.6c0.2,0,0.4,0,0.7-0.1s0.5-0.2,0.7-0.4c0.2-0.2,0.5-0.3,0.7-0.5c0.2-0.2,0.4-0.4,0.6-0.5l-0.5,5.4
		c-0.2,0.2-0.4,0.4-0.7,0.5c-0.2,0.1-0.5,0.3-0.7,0.3c-0.3,0.1-0.5,0.1-0.8,0.1c-0.3,0-0.5,0-0.8,0c-0.5-0.1-1-0.2-1.4-0.5
		c-0.4-0.3-0.8-0.6-1.1-1c-0.3-0.4-0.6-0.9-0.9-1.5c-0.2-0.6-0.4-1.2-0.6-1.8c-0.2-0.6-0.3-1.3-0.3-2s-0.1-1.4-0.1-2.1
		c0-0.7,0.1-1.5,0.2-2.2c0.1-0.7,0.3-1.4,0.5-2.1c0.2-0.7,0.4-1.3,0.7-1.9s0.6-1,1-1.4s0.8-0.7,1.2-0.9c0.5-0.2,1-0.3,1.5-0.2
		c0.5,0,0.9,0.2,1.2,0.4c0.4,0.2,0.7,0.5,1,0.9c0.3,0.4,0.5,0.8,0.7,1.3c0.2,0.5,0.4,1.1,0.5,1.6c0.1,0.6,0.2,1.2,0.3,1.8
		C62.9,364.4,63,365,62.9,365.7z M59.9,364.8c0-0.2,0-0.5,0-0.7c0-0.2-0.1-0.5-0.1-0.7c-0.1-0.2-0.2-0.4-0.3-0.5s-0.2-0.2-0.4-0.2
		c-0.2,0-0.4,0-0.5,0.2c-0.2,0.2-0.3,0.4-0.4,0.6c-0.1,0.3-0.2,0.5-0.3,0.8c-0.1,0.3-0.1,0.6-0.2,0.8l2.3-0.1L59.9,364.8z"/>
	<path class="st3" d="M72.5,364.3c0,0.6,0,1.2-0.1,1.7c-0.1,0.5-0.2,1-0.3,1.4c-0.2,0.4-0.3,0.8-0.6,1.2c-0.2,0.4-0.5,0.7-0.9,1
		l1.8,5.2l-3.4,0.9l-1.2-5.2l-0.9,0l-0.2,5l-3.3-0.2c0-1.8,0.1-3.7,0.1-5.5c0-1.8,0.1-3.6,0.1-5.5c0-0.9,0-1.8,0-2.7
		c0-0.9,0-1.8,0.1-2.7c0.4-0.2,0.7-0.3,1.1-0.5c0.3-0.1,0.7-0.2,1-0.3c0.3-0.1,0.7-0.1,1.1-0.1c0.4,0,0.7,0,1.1,0
		c0.6,0,1.1,0.2,1.7,0.5s1,0.7,1.4,1.2c0.4,0.5,0.7,1.2,1,1.9C72.3,362.4,72.5,363.3,72.5,364.3z M69,364.5c0-0.3,0-0.6-0.1-0.9
		c-0.1-0.3-0.1-0.5-0.3-0.7c-0.1-0.2-0.3-0.4-0.4-0.5c-0.2-0.1-0.4-0.2-0.6-0.2c-0.1,0-0.2,0-0.3,0c-0.1,0-0.2,0-0.3,0.1l-0.1,4.5
		l0.2,0c0.2,0,0.4,0,0.7-0.1c0.2-0.1,0.4-0.2,0.6-0.4c0.2-0.2,0.3-0.4,0.4-0.7C69,365.2,69,364.9,69,364.5z"/>
	<path class="st3" d="M86.5,358.9l-1.4,16.3l-4.3,0.3l-1.1-8.2l-0.7,7.6l-4.3,0.4l-2.2-15.5l3.8-0.6l1,9.5l0.8-8.8l3-0.1l1.4,8.9
		l0.4-10.1L86.5,358.9z"/>
	<path class="st3" d="M96.4,365.3c0,0.7,0,1.4,0,2.1c-0.1,0.7-0.2,1.3-0.4,2c-0.2,0.6-0.4,1.2-0.6,1.7c-0.3,0.5-0.6,1-0.9,1.4
		c-0.3,0.4-0.7,0.7-1.1,0.9c-0.4,0.2-0.9,0.4-1.3,0.4c-0.5,0-0.9,0-1.3-0.1c-0.4-0.1-0.8-0.4-1.2-0.7c-0.4-0.3-0.7-0.7-1-1.1
		c-0.3-0.4-0.6-0.9-0.8-1.5s-0.4-1.2-0.6-1.8s-0.2-1.3-0.3-2c0-0.7,0-1.4,0-2.1c0.1-0.7,0.2-1.3,0.4-1.9c0.2-0.6,0.4-1.2,0.6-1.7
		c0.3-0.5,0.6-1,0.9-1.4c0.3-0.4,0.7-0.7,1.1-1c0.4-0.2,0.8-0.4,1.3-0.4c0.7-0.1,1.4,0,2,0.3c0.6,0.3,1.2,0.8,1.6,1.4
		c0.5,0.6,0.8,1.4,1.1,2.3C96.1,363.1,96.3,364.1,96.4,365.3z M93,365.9c0-0.3-0.1-0.7-0.2-1c-0.1-0.3-0.2-0.6-0.3-0.8
		c-0.1-0.2-0.3-0.4-0.5-0.6c-0.2-0.1-0.4-0.2-0.6-0.2c-0.2,0-0.4,0.1-0.6,0.3c-0.2,0.2-0.3,0.4-0.5,0.6c-0.1,0.3-0.2,0.5-0.3,0.9
		c-0.1,0.3-0.1,0.7-0.1,1c0,0.3,0.1,0.7,0.1,1c0.1,0.3,0.2,0.6,0.3,0.9c0.1,0.3,0.3,0.5,0.5,0.6c0.2,0.1,0.4,0.2,0.6,0.2
		c0.2,0,0.4-0.1,0.6-0.3c0.2-0.2,0.3-0.4,0.5-0.7c0.1-0.3,0.2-0.6,0.3-0.9C93,366.6,93,366.3,93,365.9z"/>
	<path class="st3" d="M105.7,361.4c0,0.6,0.1,1.2,0,1.7c0,0.5-0.1,1-0.2,1.5c-0.1,0.4-0.3,0.9-0.5,1.3c-0.2,0.4-0.5,0.8-0.8,1.2
		l2.2,4.8l-3.3,1.6l-1.6-4.9l-0.9,0.2l0.3,5l-3.3,0.5c-0.1-1.8-0.2-3.6-0.4-5.5c-0.1-1.8-0.2-3.6-0.4-5.5c-0.1-0.9-0.1-1.8-0.2-2.7
		c-0.1-0.9-0.1-1.8-0.2-2.7c0.3-0.3,0.7-0.5,1-0.7c0.3-0.2,0.7-0.4,1-0.5c0.3-0.1,0.7-0.2,1-0.3c0.4-0.1,0.7-0.2,1.1-0.2
		c0.6-0.1,1.1-0.1,1.7,0.1c0.6,0.2,1.1,0.5,1.5,0.9c0.5,0.4,0.8,1,1.1,1.7C105.4,359.5,105.6,360.4,105.7,361.4z M102.3,362.3
		c0-0.3-0.1-0.6-0.2-0.9c-0.1-0.3-0.2-0.5-0.3-0.7c-0.1-0.2-0.3-0.3-0.5-0.4c-0.2-0.1-0.4-0.1-0.6-0.1c-0.1,0-0.2,0-0.3,0.1
		c-0.1,0-0.2,0.1-0.3,0.1l0.2,4.5l0.2,0c0.2,0,0.4-0.1,0.7-0.2c0.2-0.1,0.4-0.3,0.6-0.5c0.2-0.2,0.3-0.5,0.4-0.8
		C102.3,363.1,102.3,362.7,102.3,362.3z"/>
	<path class="st3" d="M113.3,365l0.2,5.4l-6.3,2.2l-1.5-17.1l3.9-0.9l0.5,11.1L113.3,365z"/>
	<path class="st3" d="M121.9,359.5c0.1,1.1,0.2,2.1,0.1,3.1c-0.1,0.9-0.2,1.8-0.5,2.5c-0.2,0.8-0.6,1.4-0.9,2
		c-0.4,0.6-0.8,1.1-1.3,1.6c-0.5,0.4-1,0.8-1.6,1.1c-0.6,0.3-1.2,0.5-1.8,0.7c-0.2,0.1-0.5,0.1-0.7,0.2c-0.2,0-0.5,0.1-0.7,0.1
		l-1.7-15.5c0.5-0.4,1.1-0.8,1.6-1c0.6-0.3,1.1-0.5,1.7-0.6c0.7-0.2,1.4-0.2,2-0.1c0.6,0.2,1.2,0.5,1.7,1c0.5,0.5,0.9,1.2,1.3,2
		C121.5,357.3,121.8,358.3,121.9,359.5z M117.4,365.4c0.3-0.2,0.5-0.4,0.8-0.7c0.2-0.3,0.4-0.6,0.5-1c0.1-0.4,0.2-0.8,0.3-1.2
		c0-0.4,0-0.9,0-1.3c-0.1-0.5-0.1-0.9-0.2-1.2c-0.1-0.4-0.2-0.7-0.4-0.9c-0.2-0.3-0.4-0.4-0.6-0.5c-0.2-0.1-0.5-0.1-0.8-0.1
		L117.4,365.4z"/>
</g>
</svg>
