<svg xmlns="http://www.w3.org/2000/svg" viewBox="0 0 138 300"><defs><style>.cls-1{fill:#726c6a;}.cls-2{fill:#1f2022;}.cls-3{fill:#343839;}.cls-4{fill:#6d6967;}.cls-5{fill:#8f8a87;}.cls-6{fill:#fff;}.cls-7{fill:#484d51;}.cls-8{fill:#6e523d;}.cls-9{fill:#888f97;}.cls-10{fill:#75797c;}.cls-11{fill:#545556;}.cls-12{fill:#cac8bb;}.cls-13{fill:none;}</style></defs><title>heph</title><g id="Layer_2" data-name="Layer 2"><g id="Layer_1-2" data-name="Layer 1"><path class="cls-1" d="M48.56,100.73c-.08.23-.15.46-.23.69-1.16,3.38-3.13,6.57-4.7,9.77a2,2,0,0,1-.65.86,1.84,1.84,0,0,1-.8.15c-8.81.08-16.45-3.72-24.82-6.41l-4.82,9.9c8.68,2.2,17.89,4.91,26.68,6.61,2.55.49,8.27,2.12,10.5.62,1.53-1,3.45-4.6,4.28-6.31a92.14,92.14,0,0,0,5-12.27"/><path class="cls-1" d="M100.4,283.66a7.55,7.55,0,0,0,1.93.9c.89.32,2.94,1.41,3.83,1.73L104,290.48l-3.38,3.17-6,.34-2.89-1.51-4.13-2.7-2.91-2.54-.12-2.86.56-2.58-1.41-72.88,13.86,2.7-2.3,69v.19c1.21.41,2.41,1.59,3.61,2"/><path class="cls-2" d="M85,277.37c-.28,2.26.42,3.05-.42,5s-1,4.33.13,5.86a6.52,6.52,0,0,0,2.13,1.71c5.52,3.22,11.68,5.55,17.66,7.76a.82.82,0,0,0,.76,0,.76.76,0,0,0,.14-.95,1.55,1.55,0,0,0-.76-.54,134.12,134.12,0,0,1-13.75-6.69,17.94,17.94,0,0,1-4.68-3.45c-.83-.93-1.26-.95-.53-2.94.17-.47.56-1,.79-1.74.3-1-.64-2.95-1.36-4.23"/><path class="cls-2" d="M84.25,277.37a24.63,24.63,0,0,0,0,2.85,12.41,12.41,0,0,1-.83,3.22,6,6,0,0,0,1.2,5.84,12.42,12.42,0,0,0,2.82,1.86c1.21.67,2.44,1.3,3.69,1.9,2.34,1.13,4.74,2.14,7.15,3.1l3.54,1.36c.91.34,2.29,1.16,3.28,1a1.37,1.37,0,0,0,1.13-1.54c-.14-1.16-1.37-1.49-2.29-1.89a105,105,0,0,1-14.44-7.28,15,15,0,0,1-3-2.52c-.17-.18-.41-.36-.46-.61a3.29,3.29,0,0,1,.5-1.68,4.18,4.18,0,0,0,.59-3,12.22,12.22,0,0,0-1.4-3.26c-.46-.84-1.76-.09-1.29.76a12.59,12.59,0,0,1,1.18,2.62c.29,1.06-.26,1.73-.65,2.68-.54,1.35-.6,2.36.4,3.45,2.93,3.2,7.18,5.12,11,7,2.12,1,4.27,2,6.43,3,.51.22,1,.5,1.57.69.73.26-.61-.3-.77-.35l-3.36-1.27a90.94,90.94,0,0,1-12.73-5.84c-1.15-.66-2.29-1.32-2.7-2.66a6.06,6.06,0,0,1,.22-3.62,8.92,8.92,0,0,0,.69-2.73c0-1-.12-2,0-3.09s-1.39-.95-1.5,0Z"/><path class="cls-2" d="M101.34,296.27a10.67,10.67,0,0,1-2.63-.95c-2.36-1.3-5.49-2.43-6.91-4.73,0-.06-.74.14-.74.06s1,.27,1,.22c.58-.74-1.08,0-.15-.08s4.95-2.1,5.83-2.43a9,9,0,0,0,1.65-.93,17,17,0,0,1,2.83-1.49,3,3,0,0,1,1.74-.3,3.47,3.47,0,0,1,1.68,1.08l2.83,2.7a3.49,3.49,0,0,1,1.17,5.1,6,6,0,0,1-1.72,2.44c-1.23.88-2.91.73-4.38.38Z"/><path class="cls-2" d="M101.54,295.55a25.84,25.84,0,0,1-6-2.73A10.09,10.09,0,0,1,93,290.9c-.3-.34-.51-.89-1-1a2.34,2.34,0,0,0-.74.06v1.45c-.28.05-.25,0,0,.07a1.62,1.62,0,0,0,.43.12,1.09,1.09,0,0,0,.67,0,1,1,0,0,0,.48-1.35c-.49-.85-1.88-.28-2,.57a.74.74,0,0,0,.37.64c.68.38,1.64-.12,2.28-.38,1.08-.44,2.15-.94,3.22-1.42a24.63,24.63,0,0,0,3-1.54,16.09,16.09,0,0,1,2.65-1.42,2.17,2.17,0,0,1,2.69.59,28.68,28.68,0,0,1,3.92,3.87,2.48,2.48,0,0,1,.11,2.73,7.34,7.34,0,0,1-1.3,2.19,4.07,4.07,0,0,1-4.16.54c-.67-.27-1.32-.64-2-1-.87-.42-1.63.88-.76,1.3,1.66.8,3.11,1.56,5,1.44a4.47,4.47,0,0,0,3.43-1.87,7.84,7.84,0,0,0,1.63-4,5,5,0,0,0-1.92-3.51,42.56,42.56,0,0,0-3.67-3.44c-2.66-2-5.7,1.13-8.08,2.16-1,.44-2,.9-3,1.35-.53.24-1.06.47-1.6.68-.22.09-.47.14-.68.24s-.43-.05-.08.15l.37.65v0l-.22.53c-.14.14-.47-.12-.51-.15l-.22-.53,0-.1.65-.37c-.32,0-.79-.27-1.22-.19-.78.14-.64,1.23,0,1.45.26.08.59-.09.74-.06l-.45-.35a11.35,11.35,0,0,0,4.49,3.62,26.59,26.59,0,0,0,5.5,2.4A.75.75,0,0,0,101.54,295.55Z"/><path class="cls-2" d="M95,279.77a49.51,49.51,0,0,1-8.69.47.75.75,0,0,0,0,1.5,52.15,52.15,0,0,0,9.09-.52.75.75,0,0,0-.4-1.45Z"/><path class="cls-1" d="M58.85,283.66a7.55,7.55,0,0,1-1.93.9c-.89.32-2.94,1.41-3.83,1.73l2.11,4.19,3.38,3.17,6,.34,2.89-1.51,4.14-2.7,2.91-2.54.12-2.86-.56-2.58,1.4-72.88-13.85,2.7,2.3,69v.19c-1.2.41-2.4,1.59-3.61,2"/><path class="cls-2" d="M74.24,277.37c.29,2.26-.41,3.05.42,5s1,4.33-.12,5.86a6.45,6.45,0,0,1-2.14,1.71c-5.52,3.22-11.67,5.55-17.65,7.76a.82.82,0,0,1-.76,0,.75.75,0,0,1-.14-.95,1.57,1.57,0,0,1,.75-.54,132.14,132.14,0,0,0,13.75-6.69A17.83,17.83,0,0,0,73,286.07c.82-.93,1.26-.95.53-2.94-.17-.47-.56-1-.79-1.74-.3-1,.64-2.95,1.36-4.23"/><path class="cls-2" d="M73.49,277.37c.18,1.71-.24,3.39.39,5,.74,2,1.27,4.49-.58,6a28.73,28.73,0,0,1-6.12,3.38c-2.17,1-4.39,2-6.62,2.86l-3,1.16-1.59.6-.71.26s-1.06.35-.55.28a7.12,7.12,0,0,0,1.53-.67l1.61-.72c1.14-.5,2.27-1,3.4-1.55,2.19-1,4.36-2.12,6.48-3.3a26.64,26.64,0,0,0,5.12-3.4c1.2-1.11,2.15-2.06,1.67-3.76-.26-.91-1.09-1.9-1-2.84a8.42,8.42,0,0,1,1.31-3.21c.47-.85-.83-1.6-1.3-.76-.86,1.57-2,3.53-1.23,5.33.29.7,1.19,1.9.9,2.69-.07.21-.35.41-.5.58a15,15,0,0,1-1.4,1.36,38.25,38.25,0,0,1-6.72,4c-2.44,1.27-4.94,2.44-7.46,3.56-1.19.53-5.22,1.56-3.85,3.65.51.76,1.33.59,2.07.33,1.3-.47,2.59-1,3.89-1.47a78.4,78.4,0,0,0,14.18-6.59,5.59,5.59,0,0,0,2.63-5.8c-.18-1.29-.9-2.44-1-3.72-.09-1.12.11-2.22,0-3.34-.1-.95-1.6-1-1.5,0Z"/><path class="cls-2" d="M57.91,296.27a10.44,10.44,0,0,0,2.62-.95c2.37-1.3,5.5-2.43,6.92-4.73,0-.06.74.14.73.06s-1,.27-1,.22c-.59-.74,1.08,0,.15-.08s-4.95-2.1-5.83-2.43a9.37,9.37,0,0,1-1.66-.93A16.89,16.89,0,0,0,57,285.94a3,3,0,0,0-1.74-.3,3.49,3.49,0,0,0-1.69,1.08l-2.83,2.7a3.51,3.51,0,0,0-1.17,5.1A6.12,6.12,0,0,0,51.31,297c1.23.88,2.91.73,4.38.38Z"/><path class="cls-2" d="M58.11,297a26.82,26.82,0,0,0,5.5-2.4A11.25,11.25,0,0,0,68.09,291l-.44.35c.12,0,.5.14.73.06.65-.22.78-1.31,0-1.45-.42-.08-.89.21-1.21.19l.65.37,0,.1-.22.53s-.38.29-.51.15l-.22-.53v0l.38-.65c.26-.15.25,0,0-.11a2.6,2.6,0,0,0-.47-.16c-.51-.18-1-.4-1.51-.61-1-.43-1.91-.88-2.87-1.3-1.21-.53-2.27-1.26-3.43-1.9s-2.84-1.55-4.29-1-2.53,2-3.58,3-2.29,2-2.76,3.4.2,2.78.84,4a5,5,0,0,0,3,2.74,6.54,6.54,0,0,0,4-.27c.71-.3,1.39-.67,2.09-1,.86-.42.1-1.72-.76-1.3-.66.32-1.31.69-2,1a4.06,4.06,0,0,1-4.15-.54,7.34,7.34,0,0,1-1.3-2.19,2.48,2.48,0,0,1,.11-2.73,28.61,28.61,0,0,1,3.91-3.87,2.19,2.19,0,0,1,2.7-.59,15.61,15.61,0,0,1,2.64,1.42,24.76,24.76,0,0,0,3,1.54c1.07.48,2.13,1,3.22,1.42.63.26,1.6.76,2.27.38a.7.7,0,0,0,.37-.64c-.07-.85-1.46-1.42-1.95-.57a1,1,0,0,0,.39,1.31,1,1,0,0,0,.75.05,2,2,0,0,0,.35-.09c.23-.08.51,0,.09-.1v-1.45a2.3,2.3,0,0,0-.73-.06c-.45.14-.67.7-1,1a9.87,9.87,0,0,1-2.57,1.92,25.84,25.84,0,0,1-6,2.73A.75.75,0,0,0,58.11,297Z"/><path class="cls-2" d="M63.83,281.22a52.1,52.1,0,0,0,9.09.52.75.75,0,0,0,0-1.5,49.46,49.46,0,0,1-8.69-.47.78.78,0,0,0-.93.53.76.76,0,0,0,.53.92Z"/><path class="cls-1" d="M118.68,85.35a16.82,16.82,0,0,0-1.53-7.3A3.4,3.4,0,0,0,116,76.67a4.21,4.21,0,0,0-1.41-.43L96.41,73,86.2,71.52c-8.47-1.17-13.94-1.77-22.41-2.93a6,6,0,0,0-3.42.19c-1.65.79-2.22,2.82-2.59,4.61-2.5,11.8-4.82,20.6-7.24,31.1,3.41.36,6,2.71,8.57,4.84,1.49-5.7,2.76-8.19,5.16-14.26.85-2,2.57-6.66,4-5.75a4.26,4.26,0,0,1,1.83,3.19c.15,1.89-1.1,7.29-1.25,11.28a274.67,274.67,0,0,1-5.09,42.75c-.65,3.46-2.16,8.49-4,14.65L95,167c-.83-8.92,1.1-17.86,1.43-26.81.07-2,.06-4,.19-6a86.79,86.79,0,0,1,1.92-11.85l3.11-14.76c.74-3.55,1.49-7.1,2.48-10.59a7.42,7.42,0,0,1,1.14-2.62,2.72,2.72,0,0,1,2.49-1.15,1.7,1.7,0,0,1,1.38,2.1l6.45,18.41A95.49,95.49,0,0,0,118.68,85.35Z"/><path class="cls-3" d="M60.37,148.75a319.46,319.46,0,0,0-8.24,90.84,37.69,37.69,0,0,0,16.21-1.05c2.92-.84,5.8-2,8.82-2.25,5.37-.34,10.36,2.52,15.37,4.52s11.13,3.05,15.43-.44a353.86,353.86,0,0,0-4.46-52.28A354.38,354.38,0,0,0,94.89,149Z"/><path class="cls-1" d="M97.64,59.71a174.67,174.67,0,0,1-2.76,20.12L84.91,78a176.26,176.26,0,0,1,4.71-19.76Z"/><ellipse class="cls-4" cx="72.06" cy="33.18" rx="5.14" ry="7.97" transform="translate(-1.64 3.81) rotate(-3)"/><ellipse class="cls-4" cx="123.07" cy="42.74" rx="7.97" ry="5.14" transform="translate(33.62 137.45) rotate(-65.79)"/><path class="cls-5" d="M126.22,35.56c-2,10.89-11.29,15.52-16.28,23.45-4.31,6.86-11.31,5.55-17.21,4.44-6.08-1.14-14.11-2.64-15-9.58C76.57,44.72,69.6,36,71.6,25.33c3.35-17.9,17-22.92,32-20.09S129.57,17.66,126.22,35.56Z"/><path class="cls-6" d="M104.71,35.35,100.15,35c1.5-.36,2.42-1.29,5.27-1.3a2.71,2.71,0,0,0-.71,1.6Z"/><path class="cls-6" d="M109.78,34.17a15.67,15.67,0,0,1,5.52,2l-5.15-.39A2.61,2.61,0,0,0,109.78,34.17Z"/><path class="cls-6" d="M100.15,35l4.56.34a2.73,2.73,0,0,0,5.44.46v0l5.16.38c-1.8.71-4.28,2.92-8.46,2.53S101.8,35.77,100.15,35Z"/><path class="cls-7" d="M104.71,35.35v0a2.71,2.71,0,0,1,.71-1.6c.48,0,1,0,1.6.07,1,.1,1.93.23,2.76.39a2.61,2.61,0,0,1,.37,1.59Z"/><path class="cls-7" d="M110.15,35.82a2.73,2.73,0,0,1-5.44-.46l5.44.42Z"/><ellipse cx="107.43" cy="35.56" rx="1.59" ry="1.58" transform="translate(61.89 139.16) rotate(-84.59)"/><path class="cls-6" d="M88.89,32.39l4.38,1.33c-1.27-.88-1.79-2.08-4.45-3.12a2.75,2.75,0,0,1,.09,1.75Z"/><path class="cls-6" d="M84.59,29.45a15.69,15.69,0,0,0-5.86-.15l4.94,1.5A2.75,2.75,0,0,1,84.59,29.45Z"/><path class="cls-6" d="M93.26,33.73,88.89,32.4a2.73,2.73,0,0,1-5.24-1.54s0,0,0-.05l-4.94-1.5c1.42,1.31,2.93,4.27,7,5.41S91.45,33.84,93.26,33.73Z"/><path class="cls-7" d="M88.89,32.39l0,0a2.75,2.75,0,0,0-.09-1.75,13.46,13.46,0,0,0-1.52-.51c-1-.28-1.88-.49-2.71-.64a2.75,2.75,0,0,0-.92,1.35Z"/><path class="cls-7" d="M83.65,30.86a2.73,2.73,0,0,0,5.24,1.54l-5.23-1.59S83.65,30.84,83.65,30.86Z"/><ellipse cx="86.28" cy="31.6" rx="1.59" ry="1.58" transform="translate(32.37 106.01) rotate(-74.19)"/><path d="M80.05,26.3c2.18.41,4.41.23,6.58.59s4,1.47,6.12,1.91c1.42.3,2-1.87.6-2.17-2.1-.44-4-1.55-6.12-1.9s-4.41-.19-6.58-.6a1.15,1.15,0,0,0-1.38.79,1.13,1.13,0,0,0,.78,1.38Z"/><path d="M114.38,30.45c-2.1-.39-4-1.31-6.13-1.78s-4.42-.12-6.61-.49a1.17,1.17,0,0,0-1.39.79,1.12,1.12,0,0,0,.79,1.38c2.19.36,4.45,0,6.62.49s4,1.39,6.12,1.78a1.15,1.15,0,0,0,1.38-.79,1.13,1.13,0,0,0-.78-1.38Z"/><path d="M95.82,37.78c-.37,2.58-2,4.7-3,7a6.6,6.6,0,0,0-.74,3.44c.11.62.67.9,1.2,1.15a7.68,7.68,0,0,0,2,.64c.47.08.67-.65.2-.73a7.07,7.07,0,0,1-2-.6c-.29-.15-.69-.29-.76-.65a3.25,3.25,0,0,1,.08-.88A11.09,11.09,0,0,1,94,44c1-1.95,2.19-3.83,2.51-6,.07-.47-.66-.68-.73-.2Z"/><path d="M85.44,55.35c2.33.71,4.75.4,7.13.63,2.57.24,4.78,1.49,7,2.77a.37.37,0,0,0,.38-.64,18.37,18.37,0,0,0-6.74-2.82c-2.5-.34-5.08.08-7.53-.66a.37.37,0,0,0-.2.72Z"/><path class="cls-2" d="M74.35,29.26c2.46-3.16,2.34-7.83,5-10.85a3.21,3.21,0,0,1,1.07-.87,3.67,3.67,0,0,1,1.51-.21,23.93,23.93,0,0,1,5.95.84,15.85,15.85,0,0,0,4.58.95c2,0,3.82-1.07,5.78-1.4a8.36,8.36,0,0,1,5.6,1,38.67,38.67,0,0,1,3.2,2.4,14.46,14.46,0,0,0,5.66,2.52,39.14,39.14,0,0,1,4.71.9,4.82,4.82,0,0,1,3.33,3.15c.55,2.46-1.74,4.62-2.21,7.09a6.53,6.53,0,0,0,1.33,4.94,13.14,13.14,0,0,0,3.09,2.86,4,4,0,0,1,.43.37,22.05,22.05,0,0,0,2.87-7.42c3.35-17.9-7.51-27.5-22.59-30.32S75,7.43,71.6,25.33a21.26,21.26,0,0,0-.3,5.42A3.7,3.7,0,0,0,74.35,29.26Z"/><polygon class="cls-8" points="39.86 63.16 11.12 121.75 5.64 119.23 30.89 59.04 39.86 63.16"/><rect class="cls-9" x="21.93" y="47.91" width="29.62" height="16.37" transform="translate(27.19 -10.28) rotate(25.04)"/><polygon class="cls-10" points="53.4 55.35 26.52 42.8 31.68 36.75 58.57 49.3 53.4 55.35"/><polygon class="cls-11" points="50.27 66.61 46.59 69.81 53.52 54.98 58.27 49.56 50.27 66.61"/><path class="cls-8" d="M117.46,294.12c-1.22-37.84,2.62-73.32-3.66-113.53-.62-4-.48-8.49-3.57-11.14-3.53-3-7.54-3-9-7.34,3.27-2.94,5.61-4.18,9.95-3.21l3.55,2A28.44,28.44,0,0,1,119,166a25.27,25.27,0,0,1,2.77,8c8.19,38.56-1.74,78.53.73,117.82Z"/><path class="cls-1" d="M18.35,107.36a1.92,1.92,0,0,1-.5-1.13,2.27,2.27,0,0,1,.68-2.4,1.74,1.74,0,0,1,1.93.31,5.26,5.26,0,0,1,1.14,1.74l.56,1.2a.6.6,0,0,1,.07.53.58.58,0,0,1-.29.22,4.37,4.37,0,0,1-1.84.53,1.48,1.48,0,0,1-1.46-1"/><path class="cls-1" d="M13.91,102.11a2,2,0,0,1,1.8,1.67,2.23,2.23,0,0,1-1.08,2,7.51,7.51,0,0,1-2.43,1,2.52,2.52,0,0,1,2.11,1.33c.29.88-.6,1.68-1.6,1.93a20.53,20.53,0,0,1-3.16.23,1.76,1.76,0,0,1,1.73,1.14,1.89,1.89,0,0,1-.52,1.8,2.2,2.2,0,0,1-.74.56,3.25,3.25,0,0,1-2.5-.25.69.69,0,0,1-.29-.2.45.45,0,0,1,0-.34,19.49,19.49,0,0,1,2.65-7.06c.4-.68,1.21-1.29,1.45-2,.15-.49,1-.83,1.28-1.28s.62-.45,1.21-.57Z"/><path class="cls-1" d="M107.5,116.58c1,16,2,32.41-2.18,47.93a8.7,8.7,0,0,0-.46,3.8c.47,2.45,3,3.87,5.22,5a5.16,5.16,0,0,0,3.27.76c2.16-.5,2.67-3.29,2.74-5.5l.55-17.92c.41-13.34.81-26.84-2.18-39.85"/><path class="cls-12" d="M95,74.62c3-.41,5.88-1.57,8.86-1.7a21.81,21.81,0,0,1,4.7.42c2.63.45,6.1.53,8,2.55,2.84,3,2.31,8.55,2.34,13l0,6.58a129.48,129.48,0,0,0,.91,17.76,19.73,19.73,0,0,1,.34,6.22,1.25,1.25,0,0,1-.31.72.93.93,0,0,1-.74.17c-1.73-.17-3.29-1.09-5-1.59a10.66,10.66,0,0,0-5.69-.1c-2.27.59-4.59,1.9-6.79,1.26.59-8.14,3.13-12.41,2.3-20.44l.11-1.66c-.15,6.43-1.88,10-2.9,16.39-2.06,12.93-.91,26.47-3,39.41-.13.86-.36,1.86-1.07,2.23a1.85,1.85,0,0,1-1.52,0c-2.66-1-15.33-3.88-15.85-4.06-5.83-2.07-19.84-2.85-22.07-3.24a1,1,0,0,1-.75-.45,1,1,0,0,1-.09-.71c4.53-17.78,6.79-36,12.24-54.24l.56-.1a103.11,103.11,0,0,0-7.93,19.38c-2.29-.19-4-2.26-5.88-3.62a10.73,10.73,0,0,0-5.34-2c-1.73-.14-3.52.15-5.2-.31a.92.92,0,0,1-.63-.43,1.22,1.22,0,0,1,0-.78,19.88,19.88,0,0,1,2.57-5.67c2.9-5.13,3.25-7.5,5.43-13,.81-2,2.51-8.88,3.31-10.92,1.65-4.18,3.39-7.39,7.12-9.14,2.52-1.19,6.51-.58,9.13-.06a22.39,22.39,0,0,1,4.53,1.32,27.45,27.45,0,0,1,7.64,4.79"/><rect class="cls-13" width="138" height="300"/></g></g></svg>