<?xml version="1.0" encoding="utf-8"?>
<!-- Generator: Adobe Illustrator 24.0.2, SVG Export Plug-In . SVG Version: 6.00 Build 0)  -->
<svg version="1.1" id="Layer_1" xmlns="http://www.w3.org/2000/svg" xmlns:xlink="http://www.w3.org/1999/xlink" x="0px" y="0px"
	 viewBox="0 0 170 400" style="enable-background:new 0 0 170 400;" xml:space="preserve">
<style type="text/css">
	.st0{fill:#BA6523;}
	.st1{fill:#914B17;}
	.st2{fill:#F9B017;}
	.st3{fill:#020203;}
</style>
<path class="st0" d="M114.2,399.9"/>
<g>
	<g>
		<path class="st1" d="M138.6,360.7c0,16.2-30.5,29.3-68,29.3s-62.7-11.6-68-29.3v-54.8h136.1V360.7z"/>
		<ellipse class="st0" cx="70.6" cy="307.2" rx="68" ry="24.9"/>
	</g>
	<path class="st2" d="M122.3,368.4c-10.9,4.2-29,9.7-51.9,9.6c-22.6,0-40.6-5.4-51.4-9.6c0-11.5,0-23.1,0-34.6
		c10.6,4.3,28.5,10.1,51.4,10.1c23.2,0,41.3-5.8,51.9-10.1C122.3,345.3,122.3,356.9,122.3,368.4z"/>
</g>
<g>
	<path class="st3" d="M46.3,354.3c-0.2,0.2-0.4,0.4-0.7,0.6c-0.3,0.2-0.6,0.3-0.8,0.4c-0.3,0.1-0.6,0.1-0.9,0.2c-0.3,0-0.6,0-0.9,0
		c-0.5-0.1-1-0.3-1.4-0.6c-0.4-0.3-0.8-0.7-1.1-1.2c-0.3-0.5-0.5-1-0.6-1.6c-0.1-0.6-0.2-1.2-0.1-1.9c0-0.5,0.1-1,0.3-1.5
		c0.1-0.5,0.3-0.9,0.5-1.3c0.2-0.4,0.4-0.8,0.7-1.1c0.3-0.3,0.6-0.6,0.9-0.8s0.7-0.4,1.1-0.4c0.4-0.1,0.8-0.1,1.2,0
		c0.2,0,0.3,0.1,0.5,0.1c0.2,0,0.3,0.1,0.5,0.2s0.3,0.2,0.5,0.2c0.2,0.1,0.3,0.2,0.4,0.3l-0.4,2.6c-0.2-0.1-0.4-0.2-0.6-0.3
		c-0.2-0.1-0.4-0.1-0.6-0.2c-0.3,0-0.6,0-0.8,0c-0.3,0.1-0.5,0.2-0.7,0.4c-0.2,0.2-0.4,0.4-0.5,0.7c-0.1,0.3-0.2,0.6-0.3,1
		c0,0.2,0,0.5,0,0.7c0,0.2,0.1,0.4,0.2,0.6c0.1,0.2,0.2,0.4,0.3,0.5c0.1,0.1,0.3,0.2,0.5,0.2c0.1,0,0.3,0,0.4,0
		c0.2,0,0.3-0.1,0.4-0.2l0.1-0.5l-1.3-0.2l0.3-2.1c0.5,0.1,1.1,0.1,1.6,0.2c0.5,0.1,1.1,0.1,1.6,0.2L46.3,354.3z"/>
	<path class="st3" d="M53.6,351.7c0,0.4-0.1,0.8-0.2,1.2c-0.1,0.4-0.2,0.7-0.4,1.1c-0.2,0.3-0.4,0.6-0.6,0.9
		c-0.2,0.3-0.5,0.5-0.7,0.6c-0.3,0.2-0.6,0.3-0.9,0.4c-0.3,0.1-0.6,0.1-1,0c-0.3,0-0.6-0.1-0.9-0.3c-0.3-0.1-0.6-0.3-0.8-0.6
		c-0.2-0.2-0.5-0.5-0.7-0.8c-0.2-0.3-0.4-0.6-0.5-1c-0.1-0.4-0.2-0.7-0.3-1.1c-0.1-0.4-0.1-0.8,0-1.2c0-0.4,0.1-0.8,0.2-1.2
		c0.1-0.4,0.2-0.7,0.4-1.1c0.2-0.3,0.4-0.6,0.6-0.9s0.5-0.5,0.7-0.7c0.3-0.2,0.5-0.3,0.9-0.4c0.3-0.1,0.6-0.1,0.9-0.1
		c0.5,0.1,1,0.2,1.4,0.5c0.4,0.3,0.8,0.6,1.1,1c0.3,0.4,0.5,0.9,0.6,1.5C53.6,350.4,53.6,351.1,53.6,351.7z M51.2,351.6
		c0-0.2,0-0.4,0-0.6c0-0.2-0.1-0.4-0.2-0.5c-0.1-0.2-0.2-0.3-0.3-0.4c-0.1-0.1-0.3-0.2-0.4-0.2c-0.2,0-0.3,0-0.5,0.1
		c-0.1,0.1-0.3,0.2-0.4,0.3c-0.1,0.1-0.2,0.3-0.3,0.5c-0.1,0.2-0.1,0.4-0.1,0.6c0,0.2,0,0.4,0,0.6c0,0.2,0.1,0.4,0.2,0.6
		c0.1,0.2,0.2,0.3,0.3,0.4c0.1,0.1,0.3,0.2,0.4,0.2c0.2,0,0.3,0,0.5-0.1c0.1-0.1,0.3-0.2,0.4-0.3c0.1-0.1,0.2-0.3,0.3-0.5
		C51.1,352,51.1,351.8,51.2,351.6z"/>
	<path class="st3" d="M60,351.7c0,0.7-0.1,1.2-0.3,1.7c-0.2,0.5-0.4,1-0.6,1.3c-0.3,0.4-0.5,0.7-0.9,1c-0.3,0.3-0.7,0.5-1.1,0.6
		c-0.4,0.2-0.8,0.3-1.2,0.3c-0.4,0.1-0.9,0.1-1.3,0c-0.2,0-0.3,0-0.5-0.1c-0.2,0-0.3-0.1-0.5-0.1l0.5-9.3c0.4-0.1,0.8-0.2,1.2-0.2
		c0.4,0,0.8,0,1.3,0c0.5,0,1,0.2,1.4,0.4c0.4,0.2,0.8,0.6,1.1,1c0.3,0.4,0.5,0.9,0.7,1.4C60,350.4,60,351,60,351.7z M57.7,351.9
		c0-0.3,0-0.5,0-0.7c0-0.2-0.1-0.4-0.2-0.6c-0.1-0.2-0.2-0.3-0.4-0.5c-0.2-0.1-0.3-0.2-0.6-0.2l-0.4,4.3c0.2,0,0.4-0.1,0.6-0.2
		c0.2-0.1,0.3-0.3,0.5-0.5s0.2-0.4,0.3-0.7C57.7,352.5,57.7,352.3,57.7,351.9L57.7,351.9z"/>
	<path class="st3" d="M66.3,352c0,0.7-0.1,1.2-0.2,1.7c-0.1,0.5-0.3,1-0.6,1.3c-0.2,0.4-0.5,0.7-0.9,1c-0.3,0.3-0.7,0.5-1.1,0.6
		c-0.4,0.2-0.8,0.3-1.2,0.3s-0.9,0.1-1.3,0.1c-0.2,0-0.3,0-0.5,0c-0.2,0-0.3,0-0.5-0.1l0.3-9.1c0.4-0.1,0.8-0.2,1.2-0.3
		c0.4,0,0.8-0.1,1.3,0c0.5,0,1,0.1,1.4,0.3c0.4,0.2,0.8,0.5,1.1,0.9c0.3,0.4,0.6,0.8,0.7,1.4C66.3,350.7,66.3,351.3,66.3,352z
		 M62.6,354.5c0.2,0,0.4-0.1,0.6-0.2c0.2-0.1,0.3-0.3,0.5-0.5c0.1-0.2,0.2-0.4,0.3-0.6c0.1-0.2,0.1-0.5,0.1-0.8c0-0.3,0-0.5-0.1-0.7
		c0-0.2-0.1-0.4-0.2-0.6c-0.1-0.2-0.2-0.3-0.4-0.4c-0.2-0.1-0.4-0.2-0.6-0.2L62.6,354.5z"/>
	<path class="st3" d="M72.6,351.9c0,0.4,0,0.8-0.1,1.2c-0.6,0-1.2,0.1-1.9,0.2c-0.6,0.1-1.2,0.2-1.8,0.3c0.1,0.3,0.2,0.6,0.5,0.8
		c0.2,0.2,0.4,0.3,0.7,0.3c0.1,0,0.3,0,0.5-0.1c0.2-0.1,0.3-0.2,0.5-0.3c0.2-0.1,0.3-0.2,0.5-0.3c0.2-0.1,0.3-0.2,0.4-0.3l-0.2,3.2
		c-0.1,0.1-0.3,0.3-0.5,0.4c-0.2,0.1-0.3,0.2-0.5,0.2c-0.2,0.1-0.4,0.1-0.5,0.1c-0.2,0-0.4,0-0.5,0c-0.4,0-0.7-0.1-1-0.2
		c-0.3-0.1-0.6-0.3-0.8-0.5c-0.2-0.2-0.5-0.5-0.6-0.8c-0.2-0.3-0.3-0.6-0.5-1c-0.1-0.4-0.2-0.7-0.3-1.2s-0.1-0.8-0.1-1.2
		c0-0.4,0-0.9,0.1-1.3c0.1-0.4,0.1-0.8,0.3-1.2c0.1-0.4,0.3-0.8,0.5-1.1c0.2-0.3,0.4-0.6,0.7-0.9c0.3-0.3,0.5-0.5,0.9-0.6
		c0.3-0.1,0.7-0.2,1.1-0.2c0.3,0,0.6,0.1,0.9,0.2c0.3,0.1,0.5,0.3,0.7,0.5c0.2,0.2,0.4,0.4,0.6,0.7c0.2,0.3,0.3,0.6,0.4,0.9
		c0.1,0.3,0.2,0.7,0.2,1.1C72.5,351.2,72.6,351.5,72.6,351.9z M70.4,351.5c0-0.1,0-0.3,0-0.4c0-0.1-0.1-0.3-0.1-0.4
		c-0.1-0.1-0.1-0.2-0.2-0.3c-0.1-0.1-0.2-0.1-0.3-0.1c-0.1,0-0.3,0-0.4,0.1c-0.1,0.1-0.2,0.2-0.3,0.4c-0.1,0.2-0.1,0.3-0.2,0.5
		c-0.1,0.2-0.1,0.3-0.1,0.5l1.6-0.2L70.4,351.5z"/>
	<path class="st3" d="M78.4,353.8c0,0.6-0.1,1.2-0.2,1.7c-0.2,0.5-0.4,0.9-0.7,1.2c-0.3,0.3-0.6,0.5-1,0.7c-0.4,0.2-0.8,0.2-1.3,0.2
		c-0.2,0-0.4,0-0.6-0.1c-0.2-0.1-0.4-0.1-0.7-0.2c-0.2-0.1-0.4-0.2-0.6-0.3c-0.2-0.1-0.4-0.2-0.5-0.3L73,354c0.3,0.2,0.7,0.4,1,0.5
		c0.4,0.1,0.8,0.2,1.1,0.2c0.1,0,0.2,0,0.3,0c0.1,0,0.2,0,0.3-0.1c0.1,0,0.2-0.1,0.2-0.2c0.1-0.1,0.1-0.2,0.1-0.3
		c0-0.1,0-0.2-0.1-0.2c0-0.1-0.1-0.1-0.2-0.1c-0.1,0-0.1-0.1-0.2-0.1c-0.1,0-0.2,0-0.3,0c-0.1,0-0.2,0-0.2,0c-0.1,0-0.1,0-0.2,0
		c-0.3,0-0.6,0-0.9-0.2c-0.3-0.1-0.5-0.3-0.7-0.5c-0.2-0.2-0.3-0.5-0.5-0.8c-0.1-0.3-0.2-0.7-0.2-1.1c0-0.5,0.1-1,0.2-1.5
		c0.2-0.4,0.4-0.8,0.7-1.1c0.3-0.3,0.6-0.6,1-0.7c0.4-0.2,0.8-0.3,1.2-0.3c0.2,0,0.4,0,0.6,0c0.2,0,0.4,0,0.6,0.1
		c0.2,0,0.4,0.1,0.6,0.1c0.2,0.1,0.4,0.1,0.5,0.2l-0.1,2.8c-0.3-0.1-0.5-0.2-0.8-0.2s-0.5-0.1-0.8-0.1c0,0-0.1,0-0.2,0
		c-0.1,0-0.2,0-0.2,0c-0.1,0-0.2,0-0.2,0.1c-0.1,0-0.2,0.1-0.2,0.1c-0.1,0-0.1,0.1-0.2,0.2c0,0.1-0.1,0.1,0,0.2c0,0.1,0,0.2,0.1,0.2
		c0.1,0.1,0.1,0.1,0.2,0.1c0.1,0,0.2,0,0.3,0c0.1,0,0.2,0,0.3,0c0.1,0,0.2,0,0.3,0c0.1,0,0.2,0,0.2,0c0.3,0,0.6,0.1,0.8,0.2
		c0.2,0.1,0.4,0.3,0.6,0.5c0.2,0.2,0.3,0.5,0.4,0.8C78.4,353.1,78.4,353.5,78.4,353.8z"/>
	<path class="st3" d="M84.2,353.5c0,0.6,0,1.2-0.2,1.7c-0.1,0.5-0.4,0.9-0.7,1.2c-0.3,0.3-0.6,0.6-1,0.7c-0.4,0.2-0.8,0.3-1.3,0.3
		c-0.2,0-0.4,0-0.6-0.1c-0.2,0-0.4-0.1-0.7-0.2c-0.2-0.1-0.4-0.2-0.6-0.3c-0.2-0.1-0.4-0.2-0.6-0.3l0.1-2.7c0.3,0.2,0.7,0.4,1.1,0.5
		c0.4,0.1,0.8,0.1,1.1,0.1c0.1,0,0.2,0,0.3,0c0.1,0,0.2,0,0.3-0.1c0.1,0,0.2-0.1,0.2-0.2c0.1-0.1,0.1-0.2,0.1-0.3
		c0-0.1,0-0.2-0.1-0.2c0-0.1-0.1-0.1-0.2-0.1c-0.1,0-0.2-0.1-0.2-0.1c-0.1,0-0.2,0-0.3,0c-0.1,0-0.2,0-0.2,0s-0.1,0-0.2,0
		c-0.3,0-0.6,0-0.9-0.1c-0.3-0.1-0.5-0.3-0.7-0.5c-0.2-0.2-0.4-0.5-0.5-0.8c-0.1-0.3-0.2-0.7-0.2-1.1c0-0.5,0-1,0.2-1.5
		c0.2-0.4,0.4-0.8,0.6-1.2c0.3-0.3,0.6-0.6,1-0.8c0.4-0.2,0.7-0.3,1.1-0.3c0.2,0,0.4,0,0.6,0c0.2,0,0.4,0,0.6,0.1
		c0.2,0,0.4,0.1,0.6,0.1c0.2,0.1,0.4,0.1,0.5,0.2l-0.1,2.8c-0.3-0.1-0.5-0.2-0.8-0.2c-0.3-0.1-0.5-0.1-0.8-0.1c0,0-0.1,0-0.2,0
		c-0.1,0-0.2,0-0.2,0c-0.1,0-0.2,0-0.2,0.1c-0.1,0-0.2,0.1-0.2,0.1c-0.1,0-0.1,0.1-0.1,0.2c0,0.1-0.1,0.1,0,0.2c0,0.1,0,0.2,0.1,0.2
		c0.1,0.1,0.1,0.1,0.2,0.1c0.1,0,0.2,0,0.3,0c0.1,0,0.2,0,0.3,0c0.1,0,0.2,0,0.3,0c0.1,0,0.2,0,0.2,0c0.3,0,0.6,0.1,0.8,0.2
		c0.2,0.1,0.4,0.3,0.6,0.5s0.3,0.5,0.4,0.8C84.1,352.8,84.2,353.1,84.2,353.5z"/>
	<path class="st3" d="M93.1,351.2c0,0.4,0,0.8,0,1.2c0,0.4-0.1,0.8-0.2,1.1c-0.1,0.4-0.3,0.7-0.4,1c-0.2,0.3-0.4,0.6-0.6,0.8
		c-0.2,0.2-0.5,0.4-0.8,0.6c-0.3,0.1-0.6,0.2-0.9,0.3c-0.3,0-0.6,0-0.9-0.1c-0.3-0.1-0.6-0.2-0.9-0.4c-0.3-0.2-0.5-0.4-0.8-0.6
		c-0.2-0.2-0.4-0.5-0.6-0.8c-0.2-0.3-0.3-0.7-0.4-1c-0.1-0.4-0.2-0.8-0.2-1.2c0-0.4,0-0.8,0-1.2s0.1-0.8,0.2-1.1
		c0.1-0.4,0.3-0.7,0.4-1c0.2-0.3,0.4-0.6,0.6-0.8c0.2-0.2,0.5-0.4,0.8-0.6c0.3-0.1,0.6-0.2,0.9-0.3c0.5-0.1,1,0,1.5,0.2
		c0.5,0.2,0.8,0.4,1.2,0.8c0.3,0.4,0.6,0.8,0.8,1.3C92.9,349.9,93.1,350.5,93.1,351.2z M90.7,351.6c0-0.2-0.1-0.4-0.1-0.6
		c-0.1-0.2-0.1-0.3-0.2-0.5c-0.1-0.1-0.2-0.2-0.4-0.3c-0.1-0.1-0.3-0.1-0.5-0.1c-0.2,0-0.3,0.1-0.4,0.2c-0.1,0.1-0.2,0.2-0.3,0.4
		c-0.1,0.1-0.1,0.3-0.2,0.5c0,0.2,0,0.4,0,0.6c0,0.2,0.1,0.4,0.1,0.6c0.1,0.2,0.1,0.4,0.2,0.5c0.1,0.1,0.2,0.3,0.4,0.3
		c0.1,0.1,0.3,0.1,0.5,0.1c0.2,0,0.3-0.1,0.4-0.2c0.1-0.1,0.2-0.2,0.3-0.4c0.1-0.2,0.1-0.3,0.2-0.5C90.7,352,90.8,351.8,90.7,351.6z
		"/>
	<path class="st3" d="M97.9,345.3c0,0.4,0,0.9,0.1,1.3c0,0.4,0,0.9,0.1,1.3l-2.3,0.5l0.1,0.9l2-0.3l0.1,2.2l-1.9,0.4l0.4,4.1
		l-2.7,0.5l-0.9-10L97.9,345.3z"/>
</g>
<g>
	<path class="st3" d="M44,366c-0.1,1.1-0.2,2.2-0.4,3.2c-0.2,1.1-0.3,2.1-0.5,3.2l-4.4-0.6c0.3-1.3,0.5-2.6,0.7-3.9
		c0.2-1.3,0.4-2.6,0.6-3.9c0-0.1,0-0.2,0-0.4c0-0.2,0-0.4,0-0.7c0-0.3,0-0.5,0-0.8s0-0.6,0-0.8c0-0.2-0.1-0.5-0.1-0.6
		c0-0.2-0.1-0.3-0.2-0.3c-0.2,0-0.4,0-0.5,0.2c-0.1,0.2-0.2,0.4-0.3,0.7c-0.1,0.3-0.1,0.5-0.2,0.8c0,0.3-0.1,0.5-0.1,0.7
		c0,0.3-0.1,0.6-0.1,1c0,0.3,0,0.6-0.1,1c-0.1,1.2-0.3,2.3-0.4,3.5c-0.2,1.2-0.3,2.3-0.5,3.5l-4-0.6c0.3-1.3,0.5-2.6,0.7-3.9
		c0.2-1.3,0.4-2.6,0.5-3.9c0-0.1,0-0.2,0-0.5c0-0.2,0-0.5,0-0.7c0-0.3,0-0.6,0-0.9c0-0.3,0-0.6,0-0.8c0-0.3,0-0.5-0.1-0.6
		c0-0.2-0.1-0.3-0.2-0.3c-0.1,0-0.3,0-0.4,0.1c-0.1,0.1-0.2,0.3-0.3,0.5c-0.1,0.2-0.2,0.5-0.2,0.8c-0.1,0.3-0.1,0.6-0.2,0.8
		c0,0.3-0.1,0.5-0.1,0.8c0,0.2,0,0.4-0.1,0.5l-1,8.3l-4.3-0.9c0.2-1.3,0.4-2.5,0.7-3.8c0.2-1.3,0.4-2.5,0.6-3.8
		c0.2-1.3,0.4-2.5,0.6-3.8c0.2-1.3,0.3-2.6,0.5-3.9l4.1,0.6l-0.1,1.3c0.1-0.2,0.3-0.4,0.5-0.6c0.2-0.2,0.4-0.3,0.6-0.5
		c0.2-0.1,0.4-0.2,0.6-0.3c0.2-0.1,0.4-0.1,0.6,0c0.3,0.1,0.5,0.1,0.7,0.2c0.2,0.1,0.4,0.2,0.6,0.4c0.2,0.2,0.3,0.4,0.4,0.7
		c0.1,0.3,0.2,0.6,0.3,1c0.2-0.2,0.4-0.4,0.6-0.6c0.2-0.2,0.4-0.3,0.6-0.5c0.2-0.1,0.5-0.2,0.7-0.2s0.5,0,0.8,0
		c0.5,0.1,1,0.3,1.4,0.7c0.4,0.4,0.6,0.8,0.8,1.3c0.2,0.5,0.4,1.1,0.4,1.7c0.1,0.6,0.1,1.3,0.1,2c0,0.7,0,1.3-0.1,2
		C44.1,364.9,44.1,365.5,44,366z"/>
	<path class="st3" d="M55.3,374.1l-4.3,0.2l-0.4-2.6l-1.9-0.2l-0.6,2.5l-4.3-1.1l4.3-14.8l4.8,0.3L55.3,374.1z M50.5,368.2l-0.4-4.1
		l-0.9,3.9L50.5,368.2z"/>
	<path class="st3" d="M66,364.7c0,0.6-0.1,1.1-0.2,1.6c-0.1,0.5-0.2,0.9-0.4,1.3c-0.2,0.4-0.4,0.8-0.7,1.1s-0.6,0.6-1,0.9l1.9,5
		l-3.9,0.8l-1.2-5l-1.1,0l-0.3,4.8l-3.7-0.2c0.1-1.7,0.1-3.5,0.2-5.2c0.1-1.7,0.1-3.5,0.2-5.2c0-0.9,0.1-1.8,0.1-2.6
		c0-0.9,0.1-1.7,0.1-2.6c0.4-0.2,0.8-0.3,1.2-0.4c0.4-0.1,0.8-0.2,1.2-0.2c0.4,0,0.8-0.1,1.2-0.1c0.4,0,0.8,0,1.2,0
		c0.6,0,1.3,0.2,1.9,0.5c0.6,0.3,1.1,0.7,1.6,1.2c0.5,0.5,0.8,1.1,1.1,1.9C65.9,362.9,66,363.7,66,364.7z M62.2,364.8
		c0-0.3,0-0.6-0.1-0.9c-0.1-0.3-0.2-0.5-0.3-0.7c-0.1-0.2-0.3-0.4-0.5-0.5c-0.2-0.1-0.4-0.2-0.7-0.2c-0.1,0-0.2,0-0.3,0
		s-0.2,0-0.3,0.1l-0.2,4.3l0.2,0c0.2,0,0.5,0,0.7-0.1c0.3-0.1,0.5-0.2,0.7-0.3c0.2-0.2,0.4-0.4,0.5-0.6
		C62.1,365.5,62.2,365.2,62.2,364.8z"/>
	<path class="st3" d="M76.5,364.7c0,0.6,0,1.1-0.1,1.6c-0.1,0.5-0.2,0.9-0.3,1.3s-0.4,0.8-0.6,1.1c-0.3,0.3-0.6,0.7-0.9,1l2.1,4.9
		l-3.8,1l-1.4-4.9l-1.1,0l-0.1,4.8l-3.7,0c0-1.7,0-3.5,0-5.2c0-1.7,0-3.5,0-5.2c0-0.9,0-1.8,0-2.6c0-0.9,0-1.7,0-2.6
		c0.4-0.2,0.8-0.4,1.2-0.5c0.4-0.1,0.8-0.2,1.2-0.3c0.4-0.1,0.8-0.1,1.2-0.1c0.4,0,0.8,0,1.2,0c0.6,0,1.3,0.1,1.9,0.4
		c0.6,0.2,1.1,0.6,1.6,1.1c0.5,0.5,0.9,1.1,1.1,1.8C76.4,362.9,76.5,363.7,76.5,364.7z M72.7,365.1c0-0.3,0-0.6-0.1-0.9
		c-0.1-0.3-0.2-0.5-0.3-0.7c-0.1-0.2-0.3-0.3-0.5-0.5c-0.2-0.1-0.4-0.2-0.7-0.2c-0.1,0-0.2,0-0.3,0c-0.1,0-0.2,0-0.3,0.1l-0.1,4.3
		l0.2,0c0.2,0,0.5,0,0.7-0.1c0.3-0.1,0.5-0.2,0.7-0.4c0.2-0.2,0.4-0.4,0.5-0.7C72.7,365.8,72.7,365.5,72.7,365.1z"/>
	<path class="st3" d="M81.4,359.3l0,15.7l-3.6,0.4l-0.9-15.6L81.4,359.3z"/>
	<path class="st3" d="M93.4,373.6l-4.2,1.1l-0.7-2.5l-1.9,0.2l-0.3,2.6l-4.4-0.2l2.5-15.6l4.7-0.7L93.4,373.6z M88.1,368.6l-0.9-3.9
		l-0.4,4L88.1,368.6z"/>
	<path class="st3" d="M103.8,370.4c-0.2,0.5-0.5,0.9-0.9,1.3c-0.4,0.4-0.7,0.7-1.2,1c-0.4,0.3-0.9,0.5-1.3,0.7
		c-0.5,0.2-0.9,0.3-1.3,0.4c-0.8,0.1-1.6,0.1-2.3-0.2c-0.7-0.3-1.4-0.7-1.9-1.3c-0.6-0.6-1-1.3-1.4-2.2c-0.4-0.9-0.6-1.9-0.7-3
		c-0.1-0.8-0.1-1.6,0-2.5c0.1-0.8,0.2-1.6,0.4-2.3c0.2-0.7,0.5-1.4,0.8-2c0.3-0.6,0.7-1.2,1.1-1.7c0.4-0.5,0.9-0.9,1.5-1.2
		c0.6-0.3,1.2-0.5,1.8-0.6c0.2,0,0.5-0.1,0.8-0.1c0.3,0,0.6,0,0.8,0c0.3,0,0.6,0.1,0.8,0.1c0.3,0.1,0.5,0.2,0.8,0.3l0.2,4.4
		c-0.3-0.1-0.7-0.2-1-0.2c-0.3,0-0.7,0-1,0.1c-0.5,0.1-0.9,0.2-1.2,0.4c-0.4,0.2-0.7,0.5-1,0.9c-0.3,0.4-0.5,0.8-0.6,1.3
		c-0.1,0.5-0.2,1.1-0.1,1.7c0,0.4,0.1,0.8,0.2,1.1c0.1,0.4,0.3,0.7,0.5,0.9c0.2,0.3,0.4,0.5,0.7,0.6c0.3,0.1,0.5,0.2,0.9,0.1
		c0.2,0,0.4-0.1,0.7-0.2c0.2-0.1,0.4-0.3,0.6-0.5l-0.1-0.9l-2,0.3l-0.2-3.4c0.8-0.2,1.7-0.3,2.5-0.5c0.8-0.2,1.7-0.3,2.5-0.5
		L103.8,370.4z"/>
	<path class="st3" d="M113.2,361.6c0.1,0.7,0.1,1.3,0.2,2c-0.9,0.3-1.9,0.6-2.8,1c-0.9,0.4-1.8,0.8-2.8,1.2c0.2,0.5,0.5,0.9,0.9,1.2
		c0.4,0.3,0.7,0.3,1.2,0.3c0.2,0,0.5-0.2,0.7-0.3c0.3-0.2,0.5-0.4,0.7-0.6c0.2-0.2,0.5-0.5,0.7-0.7c0.2-0.2,0.4-0.5,0.6-0.7l0.3,5.2
		c-0.2,0.3-0.4,0.5-0.6,0.7c-0.2,0.2-0.5,0.4-0.7,0.6c-0.3,0.2-0.5,0.3-0.8,0.4c-0.3,0.1-0.5,0.2-0.8,0.2c-0.6,0.1-1.1,0.1-1.6,0
		c-0.5-0.1-0.9-0.3-1.4-0.6c-0.4-0.3-0.8-0.7-1.1-1.1c-0.3-0.4-0.6-0.9-0.9-1.5c-0.3-0.6-0.5-1.1-0.7-1.8c-0.2-0.6-0.3-1.3-0.4-2
		c-0.1-0.7-0.1-1.4-0.1-2.1c0-0.7,0.1-1.4,0.2-2.1c0.1-0.7,0.3-1.3,0.5-2s0.5-1.2,0.8-1.7s0.7-0.9,1.2-1.3c0.5-0.3,1-0.6,1.6-0.7
		c0.5-0.1,1-0.1,1.4,0c0.4,0.1,0.8,0.3,1.2,0.5c0.4,0.3,0.7,0.6,1,1s0.6,0.9,0.8,1.4c0.2,0.5,0.4,1.1,0.6,1.6
		C113.1,360.3,113.2,360.9,113.2,361.6z M109.8,361.7c0-0.2-0.1-0.4-0.1-0.6c-0.1-0.2-0.1-0.4-0.2-0.6c-0.1-0.2-0.2-0.3-0.4-0.4
		c-0.1-0.1-0.3-0.1-0.5-0.1c-0.2,0-0.4,0.2-0.6,0.4c-0.1,0.2-0.3,0.4-0.4,0.7c-0.1,0.3-0.2,0.6-0.2,0.9c0,0.3-0.1,0.6-0.1,0.8
		l2.5-0.8L109.8,361.7z"/>
</g>
</svg>
