<svg xmlns="http://www.w3.org/2000/svg" viewBox="0 0 125.05 96.05"><defs><style>.cls-1{fill:#fff;}.cls-2{fill:none;stroke:#fff;stroke-miterlimit:10;stroke-width:2px;}</style></defs><title>hercules</title><g id="Layer_2" data-name="Layer 2"><g id="hercules"><circle class="cls-1" cx="18.03" cy="4.03" r="4.03"/><circle class="cls-1" cx="58.03" cy="9.03" r="5.03"/><circle class="cls-1" cx="120.03" cy="12.03" r="5.03"/><circle class="cls-1" cx="116.03" cy="80.03" r="5.03"/><circle class="cls-1" cx="65.03" cy="59.03" r="5.03"/><circle class="cls-1" cx="25.03" cy="91.03" r="5.03"/><circle class="cls-1" cx="5.03" cy="40.03" r="5.03"/><circle class="cls-1" cx="43.76" cy="32.32" r="3.45"/><circle class="cls-1" cx="43.76" cy="75.32" r="3.45"/><line class="cls-2" x1="5.05" y1="39.43" x2="18.05" y2="3.43"/><line class="cls-2" x1="44.05" y1="32.43" x2="5.05" y2="39.43"/><line class="cls-2" x1="58.05" y1="9.43" x2="18.05" y2="4.43"/><line class="cls-2" x1="120.05" y1="12.43" x2="58.05" y2="9.43"/><line class="cls-2" x1="65.05" y1="59.43" x2="120.05" y2="12.43"/><line class="cls-2" x1="44.05" y1="32.43" x2="65.05" y2="59.43"/><line class="cls-2" x1="25.05" y1="91.43" x2="44.05" y2="75.43"/><line class="cls-2" x1="65.05" y1="59.43" x2="45.05" y2="75.43"/><line class="cls-2" x1="116.05" y1="79.43" x2="64.05" y2="59.43"/><path class="cls-1" d="M14.91,14v-.88h6.16V14l-2.86.33h-.44Zm3.3,12.66,2.86.33v.88H14.91V27l2.86-.33ZM17,20c0-2.27,0-4.56-.06-6.83h2.11C19,15.35,19,17.63,19,20v.65c0,2.71,0,5,.07,7.27H16.94c.06-2.23.06-4.51.06-6.82Zm1,.88v-1h9.24v1ZM24.15,14v-.88h6.16V14l-2.86.33H27Zm3.3,12.66,2.86.33v.88H24.15V27L27,26.66ZM26.24,20c0-2.27,0-4.56-.06-6.83h2.11c-.07,2.23-.07,4.51-.07,6.83v1.1c0,2.26,0,4.55.07,6.82H26.18c.06-2.23.06-4.51.06-7.27Z"/><path class="cls-1" d="M41,21.35a4.44,4.44,0,0,1-.15,1.24H32.69v-.93h5.23c1.06,0,1.3-.5,1.3-1.12a2.44,2.44,0,0,0-2.44-2.4c-1.41,0-3,1.19-3,4.34,0,2.79,1.41,4.29,3.61,4.29a3.79,3.79,0,0,0,3.08-1.57l.51.4a4.47,4.47,0,0,1-4.2,2.55c-3,0-4.87-2-4.87-5.39s2.29-5.61,5-5.61A3.92,3.92,0,0,1,41,21.35Z"/><path class="cls-1" d="M44.66,23.25v-1c0-1.21,0-1.89-.07-2.77l-1.76-.2v-.77l3-1.32.33.22.27,2.75v3.13c0,1.36,0,3.63.06,4.62H44.59C44.63,26.88,44.66,24.61,44.66,23.25ZM43,27.1l2.42-.44h.44l2.42.44v.77H43Zm2.53-6.83h1.25l-.55.16c.7-2.05,2-3.28,3.34-3.28a1.91,1.91,0,0,1,1.57.75c0,1-.4,1.6-1.28,1.6A2,2,0,0,1,48.55,19L48,18.47,49,18.25a5.3,5.3,0,0,0-2.66,3.5h-.83Z"/><path class="cls-1" d="M53.85,22.48c0,2.77,1.48,4.29,3.54,4.29a3.57,3.57,0,0,0,3.09-1.72l.52.26a3.94,3.94,0,0,1-4.07,2.84c-3,0-4.9-2.11-4.9-5.48s2.42-5.52,5-5.52A3.77,3.77,0,0,1,60.94,20a.91.91,0,0,1-1,.81,1.13,1.13,0,0,1-1.17-1l-.55-1.93,1,.81a4.51,4.51,0,0,0-2.11-.55C55.22,18.14,53.85,19.66,53.85,22.48Z"/><path class="cls-1" d="M65.6,24c0,2,.57,2.64,1.78,2.64A4.86,4.86,0,0,0,70.75,25h.46v1.12H70.09l.77-.33a5.21,5.21,0,0,1-4.18,2.4c-1.76,0-2.86-1-2.84-4l.07-5.81.46.42-2.05-.44v-.77l3.17-.29.22.22L65.6,20.6ZM70.84,28l-.31-2.57.06-7.09.47.42-2-.44v-.77l3.12-.29.23.22-.07,3.08v6.58l-.53-.52,2,.44v.77Z"/><path class="cls-1" d="M78.49,11.58l.31.18-.09,3.12v8.37c0,1.54,0,3.08.07,4.62H76.89q.06-2.31.06-4.62V13.56l-1.82-.22v-.77ZM80.54,27.1v.77H75.13V27.1l2.48-.44h.44Z"/><path class="cls-1" d="M91.19,21.35A4.39,4.39,0,0,1,91,22.59H82.91v-.93h5.24c1.06,0,1.3-.5,1.3-1.12A2.45,2.45,0,0,0,87,18.14c-1.41,0-3,1.19-3,4.34,0,2.79,1.41,4.29,3.61,4.29a3.79,3.79,0,0,0,3.08-1.57l.5.4A4.47,4.47,0,0,1,87,28.15c-2.95,0-4.86-2-4.86-5.39s2.29-5.61,5-5.61A3.93,3.93,0,0,1,91.19,21.35Z"/><path class="cls-1" d="M93.43,27.32l-.09-2.4h1.17l.59,2.59L94,27v-.75a4.21,4.21,0,0,0,2.71.9c1.69,0,2.49-.68,2.49-1.69s-.66-1.43-2-1.94l-1-.37c-1.61-.6-2.67-1.45-2.67-2.95s1.35-3.06,3.79-3.06a5.63,5.63,0,0,1,3.06.9l-.09,2.22h-1.1l-.44-2.22.79.35V19a3.59,3.59,0,0,0-2.24-.84c-1.37,0-2.07.59-2.07,1.52s.55,1.36,2,1.91l.66.25c2.2.81,3,1.84,3,3.21,0,1.63-1.43,3.12-4.24,3.12A6.7,6.7,0,0,1,93.43,27.32Z"/></g></g></svg>