<svg xmlns="http://www.w3.org/2000/svg" viewBox="0 0 138 300"><defs><style>.cls-1{fill:#fff;}.cls-2{fill:#fdae1d;}.cls-3{fill:#e08158;}.cls-4{fill:#42210b;}.cls-5{fill:#8c4004;}.cls-6{fill:#fca172;}.cls-7{fill:#fc6b02;}.cls-8{fill:#dd561c;}.cls-9{fill:#f9e5bc;}.cls-10{fill:none;}.cls-11{opacity:0.35;}</style></defs><title>hermes3</title><g id="Layer_2" data-name="Layer 2"><g id="Layer_1-2" data-name="Layer 1"><g id="Layer_2-2" data-name="Layer 2"><g id="Layer_1-2-2" data-name="Layer 1-2"><path class="cls-1" d="M94.73,237.85l1.13-2,.14-.76-.11-.62-.23-.53-.24-.33-.35-.3a17.44,17.44,0,0,0-1.18,2.37,10.85,10.85,0,0,1-1,1.24l-1.28,1.5c-.42.5-.85,1-1.32,1.46A10.66,10.66,0,0,1,88.86,241a1.23,1.23,0,0,0-.28.23,1.51,1.51,0,0,0-.11.22c-.3.91.07,1.62-.24,2.53-.07.23-.19.47-.24.69a1.76,1.76,0,0,0,0,.91h0l.32.32a1,1,0,0,0,.31.24l.29.07.65.12v.14a1.35,1.35,0,0,0,.52.36A2.21,2.21,0,0,0,91,247a6.6,6.6,0,0,0,1.07-.42c.2-.08.38-.12.57-.21a2.57,2.57,0,0,0,.44-.29,1.33,1.33,0,0,0,.29-.29.3.3,0,0,0-.05-.42l-.06,0c-.15-.08-.35-.12-.41-.28V245l1.12-.59.9-.5.47-.45-.16-.35-1.33-.21v-.05l1.48-1,1.33-1,1-1.11.09-.29H97.5l-.85.17-.77.27-1.13.44,1.78-1.83,1-1.51.29-1.25v-.28c-1,.83-2,1.64-3.11,2.42"/><path class="cls-2" d="M95.06,238a8.7,8.7,0,0,0,1.27-2.64,2.57,2.57,0,0,0-1-2.33.38.38,0,0,0-.55,0l0,0a6.29,6.29,0,0,0-.74,1.6,6.57,6.57,0,0,1-1.2,1.87,39.86,39.86,0,0,1-2.8,3.15c-.79.75-1.82,1.09-2,2.27a10.59,10.59,0,0,1-.12,1.95,3.26,3.26,0,0,0-.21,1.8l.36-.48h0a.37.37,0,0,0-.37.39.39.39,0,0,0,.1.25,2.76,2.76,0,0,0,1.74.84l-.28-.36c0,.45.41.71.78.86a2.14,2.14,0,0,0,1.85-.09c.61-.27,1.5-.48,1.87-1.12a.71.71,0,0,0,0-.69,1.7,1.7,0,0,0-.51-.38l-.19.33a11.22,11.22,0,0,0,2.57-1.61.38.38,0,0,0,.06-.45c-.16-.32-.22-.48-.58-.55s-.76-.12-1.14-.18l.27.36v-.05l-.18.33c.8-.54,1.58-1.07,2.35-1.66a4.43,4.43,0,0,0,1.73-2,.39.39,0,0,0-.28-.46h-.08a9.76,9.76,0,0,0-3.13.89l.37.63c1.31-1.35,3.38-3,3.2-5.13a.37.37,0,0,0-.39-.37.39.39,0,0,0-.25.1q-1.5,1.22-3,2.37c-.38.28,0,.93.38.65,1.08-.81,2.15-1.64,3.19-2.49l-.64-.26a3.57,3.57,0,0,1-.24,1.37h0a2.11,2.11,0,0,1-.21.31l-.6.86c-.06.08-.11.16-.17.23h0l-.58.59L94.49,240c-.25.25,0,.77.36.63a9.71,9.71,0,0,1,2.93-.87l-.36-.48c0,.08-.17.39,0,.14a2.09,2.09,0,0,1-.2.22l-.67.72a1.06,1.06,0,0,1-.29.27l-.79.6c-.34.26-.7.49-1,.73s-.93.46-.93.87a.38.38,0,0,0,.28.36l.92.15c.08,0,.32.09.39.06s-.37-.1-.15-.05a1.63,1.63,0,0,1,.11.23l.06-.46A4.16,4.16,0,0,1,94,244l-1.22.66a.38.38,0,0,0-.18.32.72.72,0,0,0,.29.59c.19.19.36.1,0,.36a3.26,3.26,0,0,1-.68.32,3,3,0,0,1-1.46.42,2.84,2.84,0,0,1-.49-.17.57.57,0,0,1-.18-.12h0a.39.39,0,0,0-.27-.37,2.15,2.15,0,0,1-1.41-.64L88,246h0a.37.37,0,0,0,.37-.37.34.34,0,0,0,0-.1c-.16-.74.26-1.27.34-2a9.77,9.77,0,0,1,0-1.71c.15-.55.84-.85,1.27-1.22a10.88,10.88,0,0,0,1.27-1.27c.81-.91,1.62-1.84,2.38-2.8s1-2.1,1.65-3l-.59.08a1.68,1.68,0,0,1,.68.89,3.9,3.9,0,0,1,.14.59h0a1.57,1.57,0,0,1-.08.42.84.84,0,0,1-.08.3c-.08.18-.26.45-.39.68l-.66,1.16a.38.38,0,0,0,.21.5.39.39,0,0,0,.44-.12Z"/><path class="cls-2" d="M94.87,233.63c1.5,1.25.26,3.07-.64,4.28a15.37,15.37,0,0,1-3.56,3.41.36.36,0,0,0-.17.42,4.94,4.94,0,0,1-.38,2.11c-.09.34-.18.68-.3,1a3.55,3.55,0,0,1-.54,1.32c-.32.35.21.88.53.53a6.62,6.62,0,0,0,1-2.67,5.67,5.67,0,0,0,.37-2.51l-.17.42a15.83,15.83,0,0,0,4.2-4.2,5.17,5.17,0,0,0,1.11-2.53,2.71,2.71,0,0,0-1-2.13c-.37-.3-.9.22-.53.53Z"/><path class="cls-2" d="M91,243.21a26.3,26.3,0,0,0,2.64-1.49,15.43,15.43,0,0,0,2.06-1.81,23.07,23.07,0,0,0,1.83-2,3.23,3.23,0,0,0,.71-2.39c0-.47-.79-.48-.75,0a2.7,2.7,0,0,1-.08,1.13,3.46,3.46,0,0,1-.71,1.1,20.92,20.92,0,0,1-1.7,1.82,12.69,12.69,0,0,1-2,1.66c-.77.49-1.61.89-2.41,1.33-.42.24,0,.88.38.65Z"/><path class="cls-2" d="M90.65,244.64a8.29,8.29,0,0,0,3-1.27,28,28,0,0,0,2.79-1.9,8.77,8.77,0,0,0,1.22-1.14c.24-.29.74-.79.37-1.16s-1-.07-1.33,0a12,12,0,0,0-1.77.64c-.44.18-.25.91.2.72s.88-.36,1.33-.51a6.32,6.32,0,0,1,.62-.18,1.42,1.42,0,0,1,.58-.06l-.22-.17h0v-.28c-.08.28-.46.59-.66.8a8,8,0,0,1-.82.72c-.57.44-1.17.83-1.76,1.23a9.72,9.72,0,0,1-3.76,1.77c-.48.07-.27.79.2.73Z"/><path class="cls-2" d="M90,245.37c.28.27.6.21,1,.17a5.57,5.57,0,0,1,1,0,3.89,3.89,0,0,0,2.15-.78c.36-.19.72-.38,1.07-.58a1.2,1.2,0,0,0,.69-.86c0-.41-.32-.57-.66-.62L94,242.49a.38.38,0,0,0-.46.27.38.38,0,0,0,.27.46l.93.15.44.07c.11,0,.16.07.07-.07s-.08-.07-.17,0a4.33,4.33,0,0,1-.75.44l-.83.45c-.26.14-.51.29-.78.41a1.38,1.38,0,0,1-.72.1c-.24,0-.49,0-.73,0a2.94,2.94,0,0,0-.42,0h-.25c-.35-.33-.89.2-.53.53Z"/><path class="cls-3" d="M76,246.38a6.16,6.16,0,0,1-1.58.74c-.73.26-2.41,1.16-3.14,1.42L73.06,252l2.77,2.59,4.93.28,2.37-1.24,3.38-2.21,2.39-2.08L89,247l-.45-2.11,1.15-59.71-11.36,2.21L80.23,244v.14c-1,.34-2,1.31-3,1.65"/><path class="cls-4" d="M88.66,241.23c.23,1.84-.34,2.49.34,4.09a5.13,5.13,0,0,1-.1,4.8,5.53,5.53,0,0,1-1.75,1.4,93.16,93.16,0,0,1-14.47,6.36.68.68,0,0,1-.62,0,.62.62,0,0,1-.11-.78,1.31,1.31,0,0,1,.62-.44,108.33,108.33,0,0,0,11.26-5.48,15,15,0,0,0,3.84-2.82c.67-.77,1-.79.43-2.42-.14-.38-.46-.83-.64-1.42-.25-.8.52-2.41,1.11-3.47"/><path class="cls-4" d="M87.91,241.23c.15,1.41-.2,2.8.31,4.16.6,1.56,1,3.58-.43,4.82a24.33,24.33,0,0,1-5,2.75c-1.77.84-3.57,1.6-5.39,2.32-.82.33-1.64.64-2.47,1l-1.3.48-.58.22c-.18.07-.92.29-.35.48.16.06,1.07-.47,1.26-.55l1.32-.59c.93-.41,1.86-.84,2.78-1.27,1.8-.85,3.57-1.74,5.31-2.71a21.24,21.24,0,0,0,4.22-2.81c1-.93,1.81-1.76,1.41-3.21-.21-.73-.89-1.53-.84-2.29a6.65,6.65,0,0,1,1-2.56c.47-.84-.83-1.6-1.29-.76-.75,1.34-1.66,3-1,4.51.23.53.94,1.49.73,2.09,0,.14-.28.31-.38.42a13.25,13.25,0,0,1-1.14,1.11,31.62,31.62,0,0,1-5.48,3.27c-2,1-4,2-6.11,2.92-1.08.48-4.42,1.35-3.2,3.19.46.67,1.18.55,1.84.31,1.07-.38,2.13-.79,3.19-1.19A65.35,65.35,0,0,0,88,251.88,4.72,4.72,0,0,0,90.22,247c-.14-1-.72-2-.81-3s.09-1.82,0-2.73-1.61-1-1.5,0Z"/><path class="cls-4" d="M75.27,256.71a8.27,8.27,0,0,0,2.15-.78c1.94-1.06,4.5-2,5.67-3.87,0-.05.6.11.6.05s-.8.22-.83.18c-.48-.61.89,0,.12-.07a48.54,48.54,0,0,1-4.77-2,7,7,0,0,1-1.36-.76,14.72,14.72,0,0,0-2.32-1.23,2.57,2.57,0,0,0-1.42-.24,2.86,2.86,0,0,0-1.38.88l-2.32,2.22a2.87,2.87,0,0,0-1,4.18,5,5,0,0,0,1.41,2,4.42,4.42,0,0,0,3.59.31Z"/><path class="cls-4" d="M75.47,257.43a21.62,21.62,0,0,0,4.54-2,9.49,9.49,0,0,0,3.73-3l-.45.34c-.26,0,.28.08.25.08a1,1,0,0,0,.35,0c.64-.21.78-1.3,0-1.44a3.37,3.37,0,0,0-1,.15l.65.37v.15l-.22.53c-.13.1-.44.29-.61.12l-.22-.53h0l.37-.65c.23-.13.32,0,.14-.1a1.79,1.79,0,0,0-.39-.13c-.41-.14-.81-.32-1.2-.49-.79-.35-1.57-.72-2.35-1.06a26.68,26.68,0,0,1-2.81-1.56c-1-.56-2.41-1.3-3.64-.85s-2.1,1.66-3,2.49a7.59,7.59,0,0,0-2.3,2.85,4.43,4.43,0,0,0,.7,3.39,4.14,4.14,0,0,0,2.52,2.31,5.29,5.29,0,0,0,3.4-.23c.58-.26,1.14-.55,1.71-.82.87-.42.11-1.72-.76-1.3-1.44.7-3.46,1.78-4.87.36a5.9,5.9,0,0,1-1-1.76,1.91,1.91,0,0,1,.09-2.1,23.74,23.74,0,0,1,3.19-3.15,1.65,1.65,0,0,1,2.07-.44,12.24,12.24,0,0,1,2.14,1.15,21,21,0,0,0,2.5,1.27c.88.4,1.77.81,2.67,1.18.57.23,1.37.63,2,.3a.76.76,0,0,0,.37-.65c-.08-.83-1.37-1.35-1.86-.53A.91.91,0,0,0,83.27,253l.29-.07c.24-.09.42,0,0-.09v-1.44c.26-.09-.14-.07-.23-.08a1.15,1.15,0,0,0-.37,0c-.41.12-.59.58-.85.87A8,8,0,0,1,80,253.77,21,21,0,0,1,75.1,256a.75.75,0,0,0-.41,1A.74.74,0,0,0,75.47,257.43Z"/><path class="cls-4" d="M80.09,244.51a42.57,42.57,0,0,0,7.48.43.75.75,0,0,0,0-1.5,40,40,0,0,1-7.09-.38.78.78,0,0,0-.92.53.75.75,0,0,0,.53.92Z"/><path class="cls-1" d="M70.85,237.38l1-2.15.07-.8-.18-.63-.29-.52-.28-.32-.39-.27a19.4,19.4,0,0,0-1,2.56,10.17,10.17,0,0,1-.86,1.37l-1.16,1.68c-.39.56-.78,1.12-1.22,1.64a10.13,10.13,0,0,1-1.36,1.34,1.11,1.11,0,0,0-.26.27.92.92,0,0,0-.09.23c-.22,1,.23,1.67,0,2.64-.06.24-.15.49-.19.73a2,2,0,0,0,.13.93h0l.37.3a1.13,1.13,0,0,0,.35.21h.29l.69.06v.15a1.4,1.4,0,0,0,.57.32,2.25,2.25,0,0,0,1,.08,6.72,6.72,0,0,0,1-.5c.19-.1.38-.16.56-.27a2.79,2.79,0,0,0,.42-.35,1.22,1.22,0,0,0,.28-.32.32.32,0,0,0-.11-.44l-.06,0c-.16-.07-.37-.09-.44-.25v-.14l1.09-.72.89-.6.44-.52-.21-.34-1.39-.08h0l1.43-1.17,1.27-1.18.94-1.24.06-.31h-.29L73,239l-.77.35-1.12.56,1.65-2.06.93-1.66.18-1.32-.06-.29c-1,1-2,1.91-3,2.81"/><path class="cls-2" d="M71.17,237.57a9.37,9.37,0,0,0,1.06-2.81,2.7,2.7,0,0,0-1.3-2.4.41.41,0,0,0-.52.14,6.68,6.68,0,0,0-.66,1.67,6.65,6.65,0,0,1-.94,1.93,39.53,39.53,0,0,1-2.63,3.67c-.42.48-.9.87-1.35,1.31a1.73,1.73,0,0,0-.46,1.39,8.18,8.18,0,0,1,.09,1.85,3.19,3.19,0,0,0-.06,1.86l.36-.47h0c-.29,0-.53.42-.26.64a3.12,3.12,0,0,0,.88.6,5,5,0,0,0,1.08.12l-.38-.38c0,.51.52.75,1,.87a2.32,2.32,0,0,0,1.88-.35c.58-.34,1.4-.6,1.72-1.26a.72.72,0,0,0,0-.75c-.11-.15-.56-.29-.57-.4l-.18.43a11.81,11.81,0,0,0,2.49-1.9.39.39,0,0,0,.06-.46c-.19-.32-.29-.49-.67-.53s-.84-.05-1.25-.08l.37.38c0,.17-.22.16,0,.14s.26-.21.32-.26l.8-.65c.34-.28.65-.58,1-.87a5,5,0,0,0,1.62-2.21c0-.21-.1-.51-.36-.47a10.2,10.2,0,0,0-3.23,1.26l.46.59c1.25-1.57,3.2-3.49,2.79-5.7a.38.38,0,0,0-.46-.26.39.39,0,0,0-.16.1c-1,1-2,1.9-3,2.81-.36.32.17.85.53.53,1-.91,2-1.85,3-2.81l-.63-.17a3.94,3.94,0,0,1-.13,1.49c.11-.38-.22.3-.28.41-.16.29-.33.57-.48.86a2.12,2.12,0,0,1-.11.21c.09-.15,0,0,0,.05-.18.24-.38.46-.56.69l-1,1.26a.37.37,0,0,0,0,.54.39.39,0,0,0,.4,0,9,9,0,0,1,2.85-1.16l-.36-.48c-.18.89-1.16,1.62-1.85,2.26-.3.28-.61.54-.93.8s-1,.58-.93,1a.39.39,0,0,0,.38.37l1.39.09-.32-.19.2.34.06-.46a11,11,0,0,1-2.33,1.79.41.41,0,0,0-.18.42.8.8,0,0,0,.31.49c.18.19.31,0,.15.33a1.35,1.35,0,0,1-.63.42,5.32,5.32,0,0,1-1.36.65,1.57,1.57,0,0,1-.61-.07c-.15,0-.35-.07-.35-.13a.38.38,0,0,0-.37-.37,2.24,2.24,0,0,1-1.43-.5l-.27.64h0a.37.37,0,0,0,.37-.39.28.28,0,0,0,0-.09c-.23-.73.11-1.3.14-2s-.17-1.13-.14-1.7.59-.92,1-1.34a12,12,0,0,0,1.19-1.38c.77-1,1.51-2.1,2.22-3.17a7.11,7.11,0,0,0,.85-1.67,8.19,8.19,0,0,1,.67-1.81l-.51.13a1.94,1.94,0,0,1,.77.88,2.41,2.41,0,0,1,.13,1.19h0l-.09.19c-.11.23-.21.48-.32.72l-.54,1.21c-.19.43.45.81.65.37Z"/><path class="cls-2" d="M70.62,233c1.7,1.15.45,3.28-.35,4.58a15.72,15.72,0,0,1-3.3,3.79.37.37,0,0,0-.1.37,4.83,4.83,0,0,1-.14,2.17,6.71,6.71,0,0,1-.69,2.63c-.28.4.37.77.65.38a3.64,3.64,0,0,0,.5-1.53c.11-.49.21-1,.29-1.46a5.23,5.23,0,0,0,.11-2.39l-.09.36a16,16,0,0,0,4-4.94,4.61,4.61,0,0,0,.74-2.65A2.75,2.75,0,0,0,71,232.4c-.4-.27-.77.37-.38.64Z"/><path class="cls-2" d="M67.49,243.3c.85-.58,1.75-1.12,2.54-1.78a14.31,14.31,0,0,0,2-2.12,23.06,23.06,0,0,0,1.72-2.34,3.39,3.39,0,0,0,.44-2.54c-.09-.47-.81-.27-.73.2a2.7,2.7,0,0,1,0,1.2,4.58,4.58,0,0,1-.61,1.13,25,25,0,0,1-1.66,2.18,12.32,12.32,0,0,1-1.78,1.83c-.73.57-1.54,1.06-2.31,1.59-.4.27,0,.92.38.65Z"/><path class="cls-2" d="M67.28,244.79a8.31,8.31,0,0,0,2.88-1.52A29.42,29.42,0,0,0,73,241a8.77,8.77,0,0,0,1.14-1.29c.22-.31.73-.92.29-1.26s-1.1.06-1.45.19a18,18,0,0,0-1.71.83c-.42.23,0,.88.38.65a11.43,11.43,0,0,1,1.26-.64,6.62,6.62,0,0,1,.62-.24,1.59,1.59,0,0,1,.57-.14l-.22-.17h0v-.29a2.57,2.57,0,0,1-.58.91,9.11,9.11,0,0,1-.73.79c-.55.52-1.14,1-1.73,1.48a10.16,10.16,0,0,1-3.7,2.23c-.47.11-.27.83.2.72Z"/><path class="cls-2" d="M66.73,245.64c.3.24.67.1,1,0a5.55,5.55,0,0,1,1-.09,4.37,4.37,0,0,0,2.19-1.06c.35-.24.72-.47,1.06-.74a1.16,1.16,0,0,0,.54-.87c0-.43-.39-.55-.74-.57l-1.39-.08a.38.38,0,0,0,0,.75l1,.06c.11,0,.33.07.43,0s.06,0-.07-.2h0l-.11.15a4.76,4.76,0,0,1-.74.53l-.85.57a6.09,6.09,0,0,1-.8.52,1.54,1.54,0,0,1-.67.13,5.16,5.16,0,0,0-.78.08,2.38,2.38,0,0,0-.37.06c-.11,0-.24.1-.33,0a.37.37,0,0,0-.51.13h0a.4.4,0,0,0,.14.51Z"/><path class="cls-3" d="M52.38,246.38a6.16,6.16,0,0,1-1.58.74c-.73.26-2.41,1.16-3.14,1.42L49.39,252l2.78,2.59,4.93.28,2.37-1.24,3.38-2.21,2.39-2.08.09-2.35-.45-2.11L66,185.14l-11.36,2.21,1.89,56.57v.14c-1,.34-2,1.31-3,1.65"/><path class="cls-4" d="M65,241.23c.23,1.84-.34,2.49.34,4.09a5.13,5.13,0,0,1-.1,4.8,5.53,5.53,0,0,1-1.75,1.4A94.33,94.33,0,0,1,49,257.88a.68.68,0,0,1-.62,0,.62.62,0,0,1-.12-.78,1.44,1.44,0,0,1,.62-.44,109.48,109.48,0,0,0,11.27-5.48A15.21,15.21,0,0,0,64,248.36c.67-.77,1-.79.43-2.42-.14-.38-.46-.83-.64-1.42-.25-.8.52-2.41,1.11-3.47"/><path class="cls-4" d="M64.25,241.23c.14,1.41-.2,2.8.31,4.16.6,1.56,1,3.58-.43,4.82a24.33,24.33,0,0,1-5,2.75c-1.77.84-3.57,1.6-5.39,2.32-.82.33-1.65.64-2.47,1l-1.3.48-.58.22c-.18.07-.92.29-.35.48.16.06,1.07-.47,1.26-.55l1.31-.59c.94-.41,1.87-.84,2.79-1.27,1.8-.85,3.57-1.74,5.31-2.71a21.24,21.24,0,0,0,4.22-2.81c1-.93,1.81-1.76,1.41-3.21-.21-.73-.89-1.53-.84-2.29a6.65,6.65,0,0,1,1-2.56c.47-.84-.83-1.6-1.3-.76-.74,1.34-1.65,3-1,4.51.22.53.94,1.49.73,2.09,0,.14-.28.31-.38.42a13.25,13.25,0,0,1-1.14,1.11A30.82,30.82,0,0,1,57,252.07c-2,1-4,2-6.11,2.92-1.08.48-4.42,1.35-3.2,3.19.45.67,1.18.55,1.84.31,1.07-.38,2.13-.79,3.18-1.19a65,65,0,0,0,11.66-5.42A4.73,4.73,0,0,0,66.56,247c-.14-1-.73-2-.81-3s.09-1.82,0-2.73-1.61-1-1.5,0Z"/><path class="cls-4" d="M51.61,256.71a8.27,8.27,0,0,0,2.15-.78c1.94-1.06,4.5-2,5.67-3.87,0-.05.6.11.6.05s-.8.22-.83.18c-.48-.61.89,0,.12-.07a48.54,48.54,0,0,1-4.77-2,7,7,0,0,1-1.36-.76,14.72,14.72,0,0,0-2.32-1.23,2.57,2.57,0,0,0-1.42-.24,2.86,2.86,0,0,0-1.38.88l-2.32,2.22a2.87,2.87,0,0,0-1,4.18,5,5,0,0,0,1.41,2,4.42,4.42,0,0,0,3.59.31Z"/><path class="cls-4" d="M51.81,257.43a21.62,21.62,0,0,0,4.54-2,9.3,9.3,0,0,0,3.72-3l-.44.34c-.26,0,.28.08.25.08a1,1,0,0,0,.35,0c.64-.21.78-1.3,0-1.44a3.37,3.37,0,0,0-1,.15l.65.37v.15l-.22.53c-.13.1-.44.29-.61.12l-.22-.53h0l.37-.65c.23-.13.32,0,.14-.1a1.79,1.79,0,0,0-.39-.13c-.41-.14-.81-.32-1.2-.49-.79-.35-1.57-.72-2.35-1.06a27.86,27.86,0,0,1-2.82-1.56c-1-.56-2.4-1.3-3.63-.85s-2.1,1.66-3,2.49a7.59,7.59,0,0,0-2.3,2.85,4.39,4.39,0,0,0,.7,3.39,4.14,4.14,0,0,0,2.52,2.31,5.29,5.29,0,0,0,3.4-.23c.58-.26,1.14-.55,1.71-.82.87-.42.11-1.72-.76-1.3-1.44.7-3.46,1.78-4.87.36a5.9,5.9,0,0,1-1-1.76,1.91,1.91,0,0,1,.09-2.1,23.74,23.74,0,0,1,3.19-3.15A1.65,1.65,0,0,1,50.7,249a12.24,12.24,0,0,1,2.14,1.15,22.34,22.34,0,0,0,2.49,1.26c.88.4,1.77.81,2.67,1.18.56.23,1.37.63,2,.3a.73.73,0,0,0,.38-.65c-.08-.83-1.37-1.35-1.86-.53A.91.91,0,0,0,59.61,253l.28-.07c.25-.09.43,0,0-.09v-1.44c.25-.09-.14-.07-.23-.08a1.15,1.15,0,0,0-.37,0c-.41.12-.59.58-.85.87a7.93,7.93,0,0,1-2.08,1.56,20.93,20.93,0,0,1-5,2.27.75.75,0,0,0,.4,1.43Z"/><path class="cls-4" d="M56.42,244.51a42.68,42.68,0,0,0,7.49.43.75.75,0,1,0,0-1.5,40,40,0,0,1-7.09-.38.78.78,0,0,0-.92.53.74.74,0,0,0,.52.92Z"/><path class="cls-3" d="M96.85,114.34c-2-10.13-4.82-20.09-7.61-30a4,4,0,0,0-.69-1.54A3.3,3.3,0,0,0,87,81.87c-4.38-1.47-9.21.27-13.8-.35a2.15,2.15,0,0,1-1.61-.79,2.28,2.28,0,0,1-.21-1.18V69.48H63.92V79.55a2.29,2.29,0,0,1-.22,1.18,2.09,2.09,0,0,1-1.6.79c-4.59.64-9.42-1.09-13.8.4a3.29,3.29,0,0,0-1.51.9,3.81,3.81,0,0,0-.68,1.54c-2.76,10-5.52,19.92-7.52,30.06a8.37,8.37,0,0,0-.19,3.38,8.79,8.79,0,0,0,2.61,4,22.07,22.07,0,0,0,3,2.64c1.22.86,2.61,2.18,3.79,3.08,1.43,1.1,2.49,1.86,3.81,3.08,2.57,2.39,6,3.62,9.27,4.79H74.7c3.3-1.18,6.69-2.43,9.25-4.82a48.65,48.65,0,0,1,3.79-3.09c1.18-.91,2.57-2.23,3.79-3.09a22.72,22.72,0,0,0,2.94-2.69,8.77,8.77,0,0,0,2.6-4A8.46,8.46,0,0,0,96.85,114.34Zm-9.54.3a4.94,4.94,0,0,1-.32,1.9,5.32,5.32,0,0,1-1,1.35c-3,3.3-7.42,6.26-11.12,8.79H61.28c-3.71-2.52-8.1-5.47-11.15-8.76a4.88,4.88,0,0,1-1-1.35,4.94,4.94,0,0,1-.32-1.9,20,20,0,0,1,.38-4.23,41.76,41.76,0,0,1,1.88-6.1c1.6-4.35,4.16-8.69,5.75-13H79.21c1.61,4.34,4.18,8.68,5.79,13a41.87,41.87,0,0,1,1.91,6.1A21.12,21.12,0,0,1,87.31,114.64Z"/><path class="cls-5" d="M70.72,162.12c-.22,17.4-1.26,29.48-.21,46.85,0,.58,0,1.27-.46,1.6a1.84,1.84,0,0,1-.92.22l-14.83.65a1.91,1.91,0,0,1-1.39-.3,2,2,0,0,1-.38-1.59c1.66-25.36,3.65-50.8,3.06-76.2L83.82,132c1.79,25.35,6.4,50.63,10.43,75.72a1.93,1.93,0,0,1-.22,1.62,1.87,1.87,0,0,1-1.36.43l-14.82.74a1.79,1.79,0,0,1-.94-.13c-.5-.29-.58-1-.6-1.55C75.72,191.44,72.8,179.4,71,162.1Z"/><path class="cls-1" d="M97.22,19l3.09-1.28,1-1,.59-1.15.41-1.2.18-.9v-1c-1.41.22-2.22,1.34-3.57,1.81a8.6,8.6,0,0,1-2.13.39l-2.68.3a17,17,0,0,1-2.67.14A8.48,8.48,0,0,1,89,14.56a1,1,0,0,0-.48-.09.76.76,0,0,0-.32.17c-1.25.94-1.74,2.64-3,3.58-.31.24-.66.42-1,.68a4.4,4.4,0,0,0-1,1.48v-.07l-.09,1a3.24,3.24,0,0,0,0,.88,2.37,2.37,0,0,0,.14.57L83.69,24l-.17.19a4.76,4.76,0,0,0,0,1.41,5.47,5.47,0,0,0,.55,1.76,6.8,6.8,0,0,0,1.32,1.07c.24.18.43.43.68.59a2.26,2.26,0,0,0,.67.25,1,1,0,0,0,.55,0c.35-.11.46-.56.43-.92a2.51,2.51,0,0,1,0-1.09l.15-.23,1.55.86,1.26.7.88.05.25-.81L91,25.39v-.07l2.28.84,2.18.57,2-.09.39-.31-.23-.45-.87-1.11-.9-.82-1.38-1.14H98l2.51-.66,1.61-1.5.3-.48c-1.74-.34-3.47-.75-5.17-1.23"/><path class="cls-2" d="M97.32,19.31c1.49-.62,3.3-1,4.28-2.42a8.55,8.55,0,0,0,1.27-4.48.4.4,0,0,0-.4-.38h-.07a6.36,6.36,0,0,0-2.25,1.09A6.72,6.72,0,0,1,97,14.22c-2.38.28-5,.83-7.35.14-.63-.18-1.06-.41-1.64,0a6.3,6.3,0,0,0-1.51,1.78,7.33,7.33,0,0,1-1.93,2.11,4.44,4.44,0,0,0-1.58,2l.68.09v-.07a.38.38,0,0,0-.44-.28.37.37,0,0,0-.29.38,6.62,6.62,0,0,0,0,2.43,7.08,7.08,0,0,1,.39,1.09c0,.05-.1.24-.14.38a4.82,4.82,0,0,0,.61,3.36A7.6,7.6,0,0,0,85.4,29a2.64,2.64,0,0,0,1.62.8,1,1,0,0,0,1-.56c.29-.6-.14-1.33.21-1.88l-.51.14,1.81,1a4,4,0,0,0,2.07.65.39.39,0,0,0,.37-.27,2.12,2.12,0,0,0,0-1.64l-.42-1.27a3.39,3.39,0,0,0-.17-.51c-.14-.23,0,.11,0,.08l-.43.17a39.37,39.37,0,0,0,3.81,1.24,4.11,4.11,0,0,0,3.44-.33.38.38,0,0,0,.06-.45,12.33,12.33,0,0,0-3.45-3.6l-.26.64a17.45,17.45,0,0,0,4.62-.28,4.11,4.11,0,0,0,1.9-.76,9,9,0,0,0,1.66-1.77.39.39,0,0,0-.14-.52l-.08,0c-1.74-.34-3.47-.75-5.17-1.23a.37.37,0,1,0-.2.72q2.56.72,5.17,1.23l-.23-.55a8.16,8.16,0,0,1-1.54,1.62c-.1.08-.19.2-.29.27.24-.16,0,0-.15,0-.47.09-.93.25-1.39.37a4.67,4.67,0,0,1-1.7.2H94.53c-.31,0-.53.43-.27.64a11.9,11.9,0,0,1,3.33,3.45l.06-.46c-.12.1-.56.31-.15.2H96A5.1,5.1,0,0,1,94.41,26c-1.11-.28-2.2-.62-3.28-1a.39.39,0,0,0-.42.17c-.29.42.21,1.29.35,1.7A7,7,0,0,1,91.42,28v-.09l-.09.27c-.06.15-.1.33-.15.49l.36-.28h-.83a8.68,8.68,0,0,1-1.08-.59L88,26.85a.4.4,0,0,0-.52.13,1.52,1.52,0,0,0-.25.68c0,.6.39,1.53-.66,1.29-.48-.11-1.09-.77-1.5-1.07A2.49,2.49,0,0,1,84,26.2a6.35,6.35,0,0,1-.18-1.37c0-.34.19-.49.21-.77a5.41,5.41,0,0,0-.44-1.52,7,7,0,0,1,0-2.23l-.74.1v.07c.11.26.53.41.68.09a4.18,4.18,0,0,1,.81-1.3,10.43,10.43,0,0,1,1-.75A6.43,6.43,0,0,0,86.81,17c.46-.67,1-1.78,1.79-2a4.63,4.63,0,0,1,1.69.29,8.83,8.83,0,0,0,1.35.14,33.46,33.46,0,0,0,6.16-.57,5.93,5.93,0,0,0,2.37-.85,7.46,7.46,0,0,1,2.43-1.24l-.48-.36A7.56,7.56,0,0,1,101,16.47a6.91,6.91,0,0,1-.86.85c-.14.13.21-.08-.07.05l-.54.23-2.39,1c-.44.18-.25.9.2.72Z"/><path class="cls-2" d="M102.14,12.58A7.4,7.4,0,0,1,101,16.35a5.65,5.65,0,0,1-3.4,2.1,12.41,12.41,0,0,1-7.6-.19.37.37,0,0,0-.43.17,9.23,9.23,0,0,1-2.49,2.68c-.53.45-1.06.91-1.62,1.32s-1.21,1.2-1.94,1.23c-.48,0-.48.77,0,.75a2.94,2.94,0,0,0,1.8-.94c.63-.52,1.31-1,1.93-1.52a10.82,10.82,0,0,0,3-3.14l-.42.17a13,13,0,0,0,8.89-.12,5.51,5.51,0,0,0,2.93-2.13,8.33,8.33,0,0,0,1.23-4.15.38.38,0,0,0-.75,0Z"/><path class="cls-2" d="M88.32,20.8A28.58,28.58,0,0,0,92,22.72a13,13,0,0,0,4.34.54,11.51,11.51,0,0,0,4-.49,5,5,0,0,0,2.28-2.31c.26-.41-.39-.79-.65-.38A4,4,0,0,1,99.7,22.2a14.66,14.66,0,0,1-3.91.31A10.85,10.85,0,0,1,92,21.92c-1.14-.48-2.23-1.17-3.32-1.76-.43-.23-.81.41-.38.64Z"/><path class="cls-2" d="M86.45,22.43a8.38,8.38,0,0,0,3.36,2.74,24.63,24.63,0,0,0,4.61,1.73,7.47,7.47,0,0,0,2.58.21c.55-.07,1.39-.17,1.24-.92A4.29,4.29,0,0,0,97,24.4a19.27,19.27,0,0,0-1.9-1.59c-.39-.3-.76.35-.38.64a17.37,17.37,0,0,1,1.55,1.29,6.78,6.78,0,0,1,.69.73c.07.08.61.71.55.82.06-.12-.2,0-.27,0a4.2,4.2,0,0,1-.62.07,4.84,4.84,0,0,1-1.14-.05,10.53,10.53,0,0,1-2.07-.55C91.15,25,88.54,24.1,87.12,22c-.27-.4-.92,0-.64.37Z"/><path class="cls-2" d="M85.2,23a1.75,1.75,0,0,0,.41,1.2,8.91,8.91,0,0,1,.57,1,4.69,4.69,0,0,0,1.37,2.1c.83.55,1.76,1,2.64,1.47a2.09,2.09,0,0,0,1.23.39.92.92,0,0,0,.82-.76,3.46,3.46,0,0,0-.37-1.54l-.58-1.75c-.15-.45-.87-.26-.72.2L91.11,27l.23.7c0,.14.25.55.14.7-.22.31-1-.25-1.18-.36l-1.44-.79a4.47,4.47,0,0,1-1.25-.81,4.76,4.76,0,0,1-.56-1.13c-.17-.37-.37-.74-.56-1.09S85.91,23.48,86,23s-.7-.48-.75,0Z"/><path class="cls-1" d="M34.85,19l-3.08-1.28-1-1-.59-1.15-.41-1.2-.18-.9-.05-1c1.41.22,2.22,1.34,3.57,1.81a8.6,8.6,0,0,0,2.13.39l2.68.3a17,17,0,0,0,2.67.14A8.4,8.4,0,0,0,43,14.62a1,1,0,0,1,.48-.09.76.76,0,0,1,.32.17c1.25.94,1.74,2.64,3,3.58.31.24.66.42,1,.68a4.4,4.4,0,0,1,1,1.48v-.07l.09,1a3.24,3.24,0,0,1,0,.88,4,4,0,0,1-.14.57L48.38,24l.17.19a4.76,4.76,0,0,1,0,1.41A5.58,5.58,0,0,1,48,27.38a6.51,6.51,0,0,1-1.32,1.07c-.24.18-.43.43-.68.59a2.26,2.26,0,0,1-.67.25,1,1,0,0,1-.55,0c-.35-.11-.46-.56-.43-.92a2.51,2.51,0,0,0,0-1.09l-.15-.23-1.54.86-1.27.7-.88.05-.25-.81.82-2.49-.08,0-2.28.84-2.18.57-2-.09-.39-.31.23-.45.87-1.11.9-.82,1.39-1.14H34.1l-2.51-.66L30,20.66l-.3-.48c1.74-.34,3.47-.75,5.17-1.23"/><path class="cls-2" d="M35,18.59l-2.31-1-.58-.24c-.23-.1-.09-.05-.08,0a6.1,6.1,0,0,1-.88-.88A7.56,7.56,0,0,1,30,12.41l-.48.36a6.73,6.73,0,0,1,2.31,1.17,6.23,6.23,0,0,0,2.31.9,32.11,32.11,0,0,0,6.34.59,9.26,9.26,0,0,0,1.17-.11c.5-.08,1.07-.38,1.55-.4,1,0,1.57,1.25,2,1.93a6.88,6.88,0,0,0,1.4,1.64c.31.24.67.41,1,.67a4.15,4.15,0,0,1,.92,1.41c.15.32.57.17.68-.09v-.07l-.74-.1a6.66,6.66,0,0,1,.06,2.09c-.1.45-.54,1.16-.49,1.62,0,.26.19.43.21.72A4.26,4.26,0,0,1,48,26.2a4.59,4.59,0,0,1-2.33,2.53c-.37.2-.83.35-1-.16-.08-.26.06-.59.06-.86a1.49,1.49,0,0,0-.25-.82.4.4,0,0,0-.52-.13l-1.64.91a8.68,8.68,0,0,1-1.08.59c-.11.06-.09.06,0,0h-.83l.36.28c0-.16-.09-.34-.15-.49l-.09-.27v.09a6.28,6.28,0,0,1,.42-1c.14-.41.64-1.28.35-1.7a.39.39,0,0,0-.42-.17,34.12,34.12,0,0,1-3.28,1.1,4.56,4.56,0,0,1-1.55.27,7.45,7.45,0,0,0-1.25,0,1.41,1.41,0,0,1-.29,0c.41.11,0-.1-.15-.2l.06.46a12,12,0,0,1,3.33-3.45c.26-.21,0-.64-.26-.64a16.56,16.56,0,0,1-4.16-.19c-.45-.12-.89-.25-1.34-.35-.07,0-.43-.14-.27-.05s-.13-.14-.18-.18A9.67,9.67,0,0,1,30,20l-.23.55c1.74-.34,3.47-.75,5.17-1.23a.37.37,0,0,0-.2-.72c-1.7.48-3.43.89-5.16,1.23a.38.38,0,0,0-.26.47s0,.05,0,.08A8.62,8.62,0,0,0,31,22.09a4.15,4.15,0,0,0,2,.81,17.52,17.52,0,0,0,4.63.28l-.27-.64a12.33,12.33,0,0,0-3.45,3.6.38.38,0,0,0,.06.45,4.11,4.11,0,0,0,3.44.33,39.37,39.37,0,0,0,3.81-1.24l-.43-.17s.11-.31,0-.08a3,3,0,0,0-.16.51l-.43,1.27a2.11,2.11,0,0,0,.06,1.58.39.39,0,0,0,.37.27,4,4,0,0,0,2.07-.65l1.81-1L44,27.27c.48.75-.41,2.48,1.15,2.45A2.51,2.51,0,0,0,46.6,29a8.48,8.48,0,0,0,1.71-1.45,5,5,0,0,0,.63-3.21c0-.13-.21-.43-.21-.51a2.43,2.43,0,0,0,.2-.35,4.48,4.48,0,0,0,.2-.62,6.54,6.54,0,0,0,0-2.57.38.38,0,0,0-.35-.39.39.39,0,0,0-.38.29v.07l.69-.09a4.64,4.64,0,0,0-1.46-1.88,7.17,7.17,0,0,1-2-2.07,6.39,6.39,0,0,0-1.56-1.87c-.6-.41-1-.2-1.67,0-2.3.68-4.84.15-7.17-.12a6.87,6.87,0,0,1-3.23-1A6.7,6.7,0,0,0,29.67,12a.39.39,0,0,0-.46.3.17.17,0,0,0,0,.07,8.55,8.55,0,0,0,1.27,4.48c1,1.4,2.8,1.8,4.28,2.42.45.18.64-.54.2-.72Z"/><path class="cls-2" d="M29.18,12.58a8.33,8.33,0,0,0,1.23,4.15,5.51,5.51,0,0,0,2.93,2.13,13,13,0,0,0,8.89.12l-.42-.17a10.82,10.82,0,0,0,3,3.14c.62.53,1.29,1,1.93,1.52a2.94,2.94,0,0,0,1.8.94.38.38,0,0,0,0-.75c-.73,0-1.37-.81-1.94-1.23s-1.09-.87-1.62-1.32a9.23,9.23,0,0,1-2.49-2.68.37.37,0,0,0-.43-.17,12.39,12.39,0,0,1-7.57.19,5.75,5.75,0,0,1-3.32-2A7.4,7.4,0,0,1,30,12.56a.38.38,0,0,0-.75,0Z"/><path class="cls-2" d="M43.37,20.16c-1,.56-2.07,1.19-3.15,1.69a10.21,10.21,0,0,1-3.94.66,16.15,16.15,0,0,1-3.8-.28,3.94,3.94,0,0,1-2.42-2.15c-.26-.41-.91,0-.65.38a5.14,5.14,0,0,0,2.23,2.29,11.15,11.15,0,0,0,4.1.51,13.38,13.38,0,0,0,4.22-.5,24.48,24.48,0,0,0,3.79-2c.43-.22,0-.87-.38-.64Z"/><path class="cls-2" d="M45,22.06c-1.42,2.07-4,2.94-6.29,3.73a11.62,11.62,0,0,1-1.92.53,5.91,5.91,0,0,1-1.19.08,3.76,3.76,0,0,1-1-.13,5,5,0,0,1,.56-.8,6.56,6.56,0,0,1,.62-.67,19,19,0,0,1,1.62-1.35c.38-.28,0-.94-.38-.64a19.27,19.27,0,0,0-1.9,1.59,4.78,4.78,0,0,0-1.25,1.73c-.46,1.52,3.12.94,3.8.77a25,25,0,0,0,4.54-1.7,8.46,8.46,0,0,0,3.44-2.77C45.92,22,45.27,21.66,45,22.06Z"/><path class="cls-2" d="M46.12,23c0,.47-.32.79-.54,1.18s-.39.72-.56,1.09a4.76,4.76,0,0,1-.56,1.13,4.47,4.47,0,0,1-1.25.81L41.77,28c-.2.11-1,.67-1.18.36-.11-.15.1-.56.14-.7L41,27l.54-1.63c.16-.46-.57-.66-.72-.2l-.5,1.51a8,8,0,0,0-.44,1.44.92.92,0,0,0,.5,1A1.38,1.38,0,0,0,41.55,29c.9-.44,1.78-1,2.66-1.46a2.89,2.89,0,0,0,1-.87,9.6,9.6,0,0,0,.52-1.13,10.46,10.46,0,0,1,.64-1.19,2,2,0,0,0,.5-1.32c0-.48-.8-.48-.75,0Z"/><path class="cls-6" d="M83.74,39.23C83.74,54.15,75.83,73,66.08,73S48.43,54.15,48.43,39.23s7.9-22.41,17.65-22.41S83.74,24.32,83.74,39.23Z"/><path class="cls-1" d="M63.06,42a3.61,3.61,0,0,0-2.52-1.75A1.69,1.69,0,0,1,61,41.4a2,2,0,1,1-4.06,0,1.65,1.65,0,0,1,.48-1.17,4.12,4.12,0,0,0-1.56.6c-.48.32-1.06.75-1.06,1.31l.66.48a2,2,0,0,0,.45.25l1,.44a3.05,3.05,0,0,0,1.07.26h.66a3.14,3.14,0,0,0,.75,0l1.86-.31h.06l1.35-.36a.63.63,0,0,0,.45-.77A.69.69,0,0,0,63.06,42Z"/><path class="cls-7" d="M56.91,41.4a2,2,0,1,0,4.06,0,1.72,1.72,0,0,0-.43-1.12A6.62,6.62,0,0,0,59,40.1a8.67,8.67,0,0,0-1.61.13A1.65,1.65,0,0,0,56.91,41.4Zm1.93-1a.92.92,0,1,1-.92.92h0a.91.91,0,0,1,.92-.9h0Z"/><circle cx="58.84" cy="41.32" r="0.91"/><path class="cls-8" d="M60.06,55.15a3,3,0,0,0-2.67,2.49,5.21,5.21,0,0,0,.23,1.75,1.94,1.94,0,0,0,.52,1.06,3.39,3.39,0,0,0,.88.72l1.44.47a6.35,6.35,0,0,0,3,.18,6.15,6.15,0,0,0,2.05-.89,2.62,2.62,0,0,0,1-.84,2.28,2.28,0,0,0,0-1.88,1.22,1.22,0,0,0-.43-.74,1.66,1.66,0,0,0-1-.17,2.86,2.86,0,0,0-1.69.39,4.76,4.76,0,0,0-.57.62,3,3,0,0,1-3.33.64,1.63,1.63,0,0,1-.49-.33,1.72,1.72,0,0,1-.29-1.3,2,2,0,0,1,.74-1.72c.15-.1.34-.15.49-.25Z"/><path class="cls-8" d="M73,55.15a3,3,0,0,1,2.68,2.49,5.18,5.18,0,0,1-.24,1.75,2.14,2.14,0,0,1-.51,1.06,3.39,3.39,0,0,1-.88.72l-1.45.47a6.35,6.35,0,0,1-3,.18,6.19,6.19,0,0,1-2-.89,2.9,2.9,0,0,1-1-.84,2.28,2.28,0,0,1,0-1.88,1.29,1.29,0,0,1,.44-.74,1.66,1.66,0,0,1,1-.17,2.86,2.86,0,0,1,1.69.39,4.76,4.76,0,0,1,.57.62,3,3,0,0,0,3.33.64,1.46,1.46,0,0,0,.49-.33,1.72,1.72,0,0,0,.29-1.3,2,2,0,0,0-.73-1.72c-.16-.1-.34-.15-.5-.25Z"/><path class="cls-1" d="M69.85,41.68a3.7,3.7,0,0,1,2.53-1.43,1.27,1.27,0,0,0-.43.91c0,.82.91,1.48,2,1.48s2-.66,2-1.48a1.27,1.27,0,0,0-.48-.95A4.51,4.51,0,0,1,77,40.7c.48.26,1.06.61,1.06,1.07l-.66.39a3.1,3.1,0,0,1-.45.21l-1,.36a3.91,3.91,0,0,1-1.07.21h-.66a4.69,4.69,0,0,1-.75,0l-1.87-.25h0l-1.35-.3A.5.5,0,0,1,69.85,41.68Z"/><path class="cls-7" d="M76,41.16c0,.82-.91,1.48-2,1.48s-2-.66-2-1.48a1.27,1.27,0,0,1,.43-.91A8,8,0,0,1,74,40.1a10.8,10.8,0,0,1,1.61.11A1.27,1.27,0,0,1,76,41.16Zm-1.93-.81a.77.77,0,1,0,.92.75.85.85,0,0,0-.91-.75Z"/><ellipse cx="74.08" cy="41.1" rx="0.91" ry="0.75"/><path d="M65.07,43.82a9.19,9.19,0,0,0,0,2.77,27.44,27.44,0,0,1,.21,3.14c0,2.07-.11,4.13-.26,6.2a.38.38,0,0,0,.37.37h0a13.71,13.71,0,0,0,2.22,0c.48,0,.48-.8,0-.75a13.71,13.71,0,0,1-2.22,0l.38.38c.14-2,.28-4,.27-6A27,27,0,0,0,65.88,47a10.78,10.78,0,0,1-.13-3c.08-.47-.64-.67-.72-.2Z"/><path d="M61.49,63.34c-.09.79.92,1.15,1.5,1.39a9.92,9.92,0,0,0,2.45.63,15.31,15.31,0,0,0,2.53.11A6,6,0,0,0,70.48,65c.43-.21,0-.86-.38-.65a4.72,4.72,0,0,1-2.06.41,16.68,16.68,0,0,1-2,0,10.39,10.39,0,0,1-2-.38A9.19,9.19,0,0,1,63,64c-.21-.1-.8-.29-.77-.59.06-.47-.69-.47-.75,0Z"/><path class="cls-8" d="M69.62,36.52c-.3.17-.18.68.13.83a1.56,1.56,0,0,0,1,0,8.82,8.82,0,0,1,2.76-.21,11.71,11.71,0,0,1,2.19.55l3.16,1a8.84,8.84,0,0,0-9.07-2.45Z"/><path class="cls-8" d="M62.74,36.76c.31.14.23.65-.06.83a1.5,1.5,0,0,1-1,.1,8.52,8.52,0,0,0-2.76.05,11.5,11.5,0,0,0-2.13.76l-3,1.3a8.82,8.82,0,0,1,8.79-3.3Z"/><path class="cls-8" d="M69.63,24.28q.09,2.34,0,4.68a8.61,8.61,0,0,1-.17,1.6,4.3,4.3,0,0,1-5.2,3.16,4.19,4.19,0,0,1-.68-.23c-1-.43-1.95-1.26-3-1a2.52,2.52,0,0,0-1.43,1C58,35,57.86,36.9,57.57,38.7A1.9,1.9,0,0,1,56,40.78a4.58,4.58,0,0,1-3.29-.62c-.73-.47-1.52-1.2-2.35-.93a2.07,2.07,0,0,0-1,1.1c-.39.78-.47,4-.65,4.84l-1.14-5.23a48.93,48.93,0,0,1,1.13-16,15.57,15.57,0,0,1,2.22-5.18A12.32,12.32,0,0,1,56.19,15c2-.86,4.18-1.42,6.24-2.21a23,23,0,0,1,2.93-1,10.79,10.79,0,0,1,6.83.85A25,25,0,0,1,78,16.43a17.18,17.18,0,0,1,2.88,2.9c3.05,4.13,2.53,12,4.27,16.85l.73,4.21-3.41-2.2a23,23,0,0,0-2.34-1.4A16.64,16.64,0,0,1,78.62,36a13.09,13.09,0,0,1-1.23-1c-1.48-1.25-3-2.41-4.39-3.77a11.59,11.59,0,0,1-3.07-4.83,8.38,8.38,0,0,1-.27-2"/><path class="cls-2" d="M45.17,38.63A73,73,0,0,1,47,26.06a15.19,15.19,0,0,1,1.3-4.37c.8-1.39,1.3-3.17,2.41-4.51,1.28-1.56,3.64-2.79,5.2-4.09s4-1.53,6.16-1.61c2.49-.09,5-.19,7.47-.07a18.62,18.62,0,0,1,6.13,1.13c3.68,1.5,6.38,4.82,8,8.46a45.88,45.88,0,0,1,2.89,11.53l.67,4.14c-2.19-.54-3.19-3-4.55-4.79-2.24-2.95-6-4.44-9.69-4.76a40,40,0,0,0-11,1.12,26.27,26.27,0,0,0-6.83,2c-3.54,1.77-6.06,5-8.47,8.16l-1.47,1.72Z"/><path class="cls-9" d="M72.41,80.41c2.35-.69,4.54-1.91,7-2.4a19.53,19.53,0,0,1,3.89-.33c2.21,0,4.54.07,6.41,1.25,2.77,1.76,3.69,5.29,4.4,8.49.34,1.56.68,3.12,1,4.68a83.85,83.85,0,0,0,3.45,12.55,12.93,12.93,0,0,1,1.2,4.35.84.84,0,0,1-.14.56.89.89,0,0,1-.58.22,26.69,26.69,0,0,1-4.28-.47,9.86,9.86,0,0,0-4.65.69c-1.76.72-3.44,2-5.33,1.8A66.38,66.38,0,0,0,81.51,97l-.16-.69a62.32,62.32,0,0,1,1.15,11.56c.3,9.5,2.29,19,2.58,28.5a2,2,0,0,1-.53,1.74,1.73,1.73,0,0,1-1.24.2c-2.32-.39-11-1.61-11.5-1.67-5.06-.7-14.56.18-16.44.2a.86.86,0,0,1-.67-.23.88.88,0,0,1-.19-.49c-2.33-13.65-1.47-25.22.18-39L54.63,97a66.72,66.72,0,0,0-3.51,14.88c-1.89.17-3.57-1.08-5.33-1.8a9.86,9.86,0,0,0-4.65-.69,26.69,26.69,0,0,1-4.28.47.89.89,0,0,1-.58-.22.84.84,0,0,1-.14-.56,13.13,13.13,0,0,1,1.22-4.38,83.28,83.28,0,0,0,3.45-12.6c.35-1.56.69-3.12,1-4.68.71-3.2,1.64-6.73,4.4-8.49,1.87-1.18,4.21-1.28,6.41-1.25a19.63,19.63,0,0,1,3.9.33,24.74,24.74,0,0,1,6.94,2.4"/><rect class="cls-10" width="138" height="300"/></g></g><ellipse class="cls-11" cx="70.92" cy="292.62" rx="32.97" ry="5.38"/></g></g></svg>