<?xml version="1.0" encoding="utf-8"?>
<!-- Generator: Adobe Illustrator 24.0.2, SVG Export Plug-In . SVG Version: 6.00 Build 0)  -->
<svg version="1.1" id="Layer_1" xmlns="http://www.w3.org/2000/svg" xmlns:xlink="http://www.w3.org/1999/xlink" x="0px" y="0px"
	 viewBox="0 0 170 400" style="enable-background:new 0 0 170 400;" xml:space="preserve">
<style type="text/css">
	.st0{fill:#914B17;}
	.st1{fill:#BA6523;}
	.st2{fill:#F9B017;}
	.st3{fill:#020203;}
</style>
<g>
	<g>
		<path class="st0" d="M141.4,359.4c0,16.3-30.6,29.4-68.3,29.4s-63-11.6-68.3-29.4v-55.1h136.6V359.4z"/>
		<ellipse class="st1" cx="73.1" cy="305.6" rx="68.3" ry="25"/>
	</g>
	<path class="st2" d="M125,367.1c-11,4.2-29.2,9.7-52.1,9.7c-22.7,0-40.7-5.4-51.7-9.7c0-11.6,0-23.2,0-34.8
		c10.6,4.3,28.6,10.1,51.7,10.1c23.3,0,41.5-5.8,52.1-10.1C125,343.9,125,355.5,125,367.1z"/>
</g>
<g>
	<path class="st3" d="M38.4,349.7c-0.2,0.2-0.4,0.4-0.7,0.5c-0.3,0.1-0.6,0.2-0.9,0.3c-0.3,0.1-0.6,0.1-0.9,0.1
		c-0.3,0-0.6,0-0.9-0.1c-0.5-0.1-1-0.3-1.4-0.6c-0.4-0.3-0.7-0.7-1-1.1c-0.3-0.4-0.4-0.9-0.5-1.4c-0.1-0.5-0.1-1.1,0-1.6
		c0.1-0.4,0.2-0.8,0.3-1.2c0.2-0.4,0.4-0.7,0.6-1.1c0.2-0.3,0.5-0.6,0.8-0.9c0.3-0.3,0.6-0.5,0.9-0.6c0.3-0.2,0.7-0.3,1.1-0.3
		c0.4,0,0.8,0,1.2,0.1c0.2,0,0.3,0.1,0.5,0.1c0.2,0.1,0.3,0.1,0.5,0.2c0.2,0.1,0.3,0.2,0.5,0.2c0.2,0.1,0.3,0.2,0.4,0.3l-0.5,2.2
		c-0.2-0.1-0.4-0.2-0.6-0.3c-0.2-0.1-0.4-0.1-0.6-0.2c-0.3-0.1-0.6-0.1-0.8,0c-0.3,0-0.5,0.1-0.7,0.3c-0.2,0.1-0.4,0.3-0.5,0.6
		c-0.2,0.2-0.3,0.5-0.3,0.8c0,0.2,0,0.4,0,0.6c0,0.2,0.1,0.4,0.1,0.6c0.1,0.2,0.2,0.3,0.3,0.4c0.1,0.1,0.3,0.2,0.5,0.2
		c0.1,0,0.3,0,0.4,0c0.2,0,0.3,0,0.4-0.1l0.1-0.5l-1.3-0.3l0.4-1.7c0.5,0.1,1.1,0.2,1.6,0.3c0.5,0.1,1.1,0.2,1.6,0.3L38.4,349.7z"/>
	<path class="st3" d="M45.7,348c-0.1,0.4-0.1,0.7-0.3,1c-0.1,0.3-0.3,0.6-0.5,0.9c-0.2,0.3-0.4,0.5-0.6,0.7
		c-0.2,0.2-0.5,0.4-0.8,0.5c-0.3,0.1-0.6,0.2-0.9,0.3s-0.6,0-1,0c-0.3-0.1-0.6-0.2-0.9-0.3c-0.3-0.1-0.5-0.3-0.8-0.5
		c-0.2-0.2-0.4-0.4-0.6-0.7c-0.2-0.3-0.3-0.6-0.4-0.9c-0.1-0.3-0.2-0.6-0.2-1c0-0.3,0-0.7,0-1c0-0.3,0.1-0.7,0.3-1
		c0.1-0.3,0.3-0.6,0.5-0.9c0.2-0.3,0.4-0.5,0.6-0.7c0.2-0.2,0.5-0.4,0.8-0.5c0.3-0.1,0.6-0.2,0.9-0.3c0.3,0,0.6,0,0.9,0
		c0.5,0.1,1,0.3,1.4,0.5c0.4,0.3,0.7,0.6,1,0.9c0.3,0.4,0.4,0.8,0.5,1.3C45.8,346.8,45.8,347.4,45.7,348z M43.3,347.7
		c0-0.2,0-0.3,0-0.5c0-0.2-0.1-0.3-0.1-0.5s-0.2-0.3-0.3-0.4c-0.1-0.1-0.3-0.2-0.4-0.2c-0.2,0-0.3,0-0.5,0c-0.1,0-0.3,0.1-0.4,0.2
		c-0.1,0.1-0.2,0.2-0.3,0.4c-0.1,0.1-0.1,0.3-0.1,0.5c0,0.2,0,0.3,0,0.5c0,0.2,0.1,0.3,0.1,0.5c0.1,0.1,0.2,0.3,0.3,0.4
		c0.1,0.1,0.3,0.2,0.4,0.2c0.2,0,0.3,0,0.5,0c0.1,0,0.3-0.1,0.4-0.2c0.1-0.1,0.2-0.2,0.3-0.4C43.3,348,43.3,347.9,43.3,347.7z"/>
	<path class="st3" d="M52.1,348.3c-0.1,0.6-0.2,1-0.4,1.5s-0.4,0.8-0.7,1.1c-0.3,0.3-0.6,0.6-0.9,0.8s-0.7,0.4-1.1,0.5
		c-0.4,0.1-0.8,0.2-1.3,0.2c-0.4,0-0.9,0-1.3-0.1c-0.2,0-0.3-0.1-0.5-0.1c-0.2,0-0.3-0.1-0.5-0.1l1-7.9c0.4-0.1,0.8-0.1,1.3-0.1
		c0.4,0,0.8,0,1.3,0.1c0.5,0.1,1,0.2,1.4,0.5c0.4,0.2,0.8,0.5,1,0.9c0.3,0.4,0.5,0.8,0.6,1.3C52.1,347.2,52.1,347.7,52.1,348.3z
		 M49.8,348.4c0-0.2,0-0.4,0-0.6c0-0.2-0.1-0.4-0.2-0.6c-0.1-0.2-0.2-0.3-0.3-0.4c-0.1-0.1-0.3-0.2-0.5-0.2l-0.6,3.6
		c0.2,0,0.4-0.1,0.6-0.2c0.2-0.1,0.4-0.2,0.5-0.4c0.1-0.2,0.3-0.3,0.4-0.5C49.7,348.9,49.8,348.7,49.8,348.4L49.8,348.4z"/>
	<path class="st3" d="M58.3,349c0,0.6-0.2,1-0.3,1.5c-0.2,0.4-0.4,0.8-0.6,1.1c-0.3,0.3-0.6,0.6-0.9,0.8c-0.3,0.2-0.7,0.4-1.1,0.5
		c-0.4,0.1-0.8,0.2-1.2,0.2c-0.4,0-0.9,0-1.3,0c-0.2,0-0.3,0-0.5-0.1c-0.2,0-0.3-0.1-0.5-0.1l0.8-7.7c0.4-0.1,0.8-0.2,1.2-0.2
		c0.4,0,0.8,0,1.3,0c0.5,0.1,1,0.2,1.4,0.4c0.4,0.2,0.8,0.5,1.1,0.8c0.3,0.3,0.5,0.7,0.6,1.2C58.4,347.8,58.4,348.4,58.3,349z
		 M54.5,350.9c0.2,0,0.4-0.1,0.6-0.2c0.2-0.1,0.4-0.2,0.5-0.4c0.1-0.1,0.3-0.3,0.3-0.5c0.1-0.2,0.1-0.4,0.2-0.6c0-0.2,0-0.4,0-0.6
		c0-0.2-0.1-0.4-0.2-0.5c-0.1-0.2-0.2-0.3-0.4-0.4c-0.2-0.1-0.3-0.2-0.6-0.2L54.5,350.9z"/>
	<path class="st3" d="M64.5,349.3c0,0.3-0.1,0.7-0.1,1c-0.6,0-1.2,0-1.9,0.1c-0.6,0.1-1.2,0.1-1.8,0.2c0.1,0.3,0.2,0.5,0.4,0.7
		c0.2,0.2,0.4,0.3,0.7,0.3c0.1,0,0.3,0,0.5-0.1c0.2,0,0.3-0.1,0.5-0.2s0.3-0.2,0.5-0.3s0.3-0.2,0.4-0.3l-0.4,2.7
		c-0.1,0.1-0.3,0.2-0.5,0.3c-0.2,0.1-0.3,0.1-0.5,0.2c-0.2,0-0.4,0.1-0.5,0.1c-0.2,0-0.4,0-0.5,0c-0.4,0-0.7-0.1-1-0.2
		c-0.3-0.1-0.5-0.3-0.8-0.5c-0.2-0.2-0.4-0.5-0.6-0.7c-0.2-0.3-0.3-0.6-0.4-0.9c-0.1-0.3-0.2-0.7-0.2-1c0-0.4-0.1-0.7,0-1.1
		c0-0.4,0.1-0.7,0.2-1.1c0.1-0.4,0.2-0.7,0.3-1c0.1-0.3,0.3-0.6,0.5-0.9c0.2-0.3,0.4-0.5,0.7-0.7c0.3-0.2,0.6-0.3,0.9-0.4
		s0.7-0.1,1.1-0.1c0.3,0,0.6,0.1,0.9,0.2c0.3,0.1,0.5,0.3,0.7,0.5c0.2,0.2,0.4,0.4,0.5,0.7c0.1,0.2,0.3,0.5,0.3,0.8
		c0.1,0.3,0.1,0.6,0.2,0.9C64.6,348.7,64.6,349,64.5,349.3z M62.4,348.9c0-0.1,0-0.2,0-0.3c0-0.1,0-0.2-0.1-0.3s-0.1-0.2-0.2-0.2
		c-0.1-0.1-0.2-0.1-0.3-0.1c-0.1,0-0.3,0-0.4,0.1c-0.1,0.1-0.2,0.2-0.3,0.3c-0.1,0.1-0.2,0.3-0.2,0.4c-0.1,0.1-0.1,0.3-0.1,0.4
		l1.6-0.1L62.4,348.9z"/>
	<path class="st3" d="M70.2,351.3c0,0.5-0.1,1-0.3,1.4c-0.2,0.4-0.4,0.7-0.7,0.9c-0.3,0.2-0.7,0.4-1.1,0.5c-0.4,0.1-0.8,0.1-1.3,0.1
		c-0.2,0-0.4,0-0.6-0.1c-0.2-0.1-0.4-0.1-0.6-0.2c-0.2-0.1-0.4-0.2-0.6-0.3c-0.2-0.1-0.4-0.2-0.5-0.3l0.3-2.3c0.3,0.2,0.6,0.4,1,0.5
		c0.4,0.1,0.7,0.2,1.1,0.2c0.1,0,0.2,0,0.2,0c0.1,0,0.2,0,0.3,0c0.1,0,0.2-0.1,0.2-0.1c0.1-0.1,0.1-0.1,0.1-0.3c0-0.1,0-0.1-0.1-0.2
		s-0.1-0.1-0.2-0.1c-0.1,0-0.1-0.1-0.2-0.1c-0.1,0-0.2,0-0.3,0c-0.1,0-0.2,0-0.2,0c-0.1,0-0.1,0-0.2,0c-0.3,0-0.6-0.1-0.8-0.2
		c-0.3-0.1-0.5-0.3-0.6-0.5c-0.2-0.2-0.3-0.4-0.4-0.7c-0.1-0.3-0.1-0.6-0.1-0.9c0-0.5,0.1-0.9,0.3-1.3c0.2-0.4,0.4-0.7,0.7-0.9
		c0.3-0.2,0.6-0.4,1-0.6c0.4-0.1,0.8-0.2,1.2-0.2c0.2,0,0.4,0,0.5,0c0.2,0,0.4,0.1,0.6,0.1c0.2,0,0.4,0.1,0.5,0.2
		c0.2,0.1,0.3,0.1,0.5,0.2l-0.3,2.4c-0.2-0.1-0.5-0.2-0.8-0.3c-0.3-0.1-0.5-0.1-0.8-0.1c0,0-0.1,0-0.2,0c-0.1,0-0.2,0-0.2,0
		c-0.1,0-0.2,0-0.2,0c-0.1,0-0.2,0-0.2,0.1c-0.1,0-0.1,0.1-0.2,0.1c0,0.1-0.1,0.1-0.1,0.2c0,0.1,0,0.2,0.1,0.2
		c0.1,0,0.1,0.1,0.2,0.1c0.1,0,0.2,0,0.3,0c0.1,0,0.2,0,0.3,0c0.1,0,0.2,0,0.3,0c0.1,0,0.2,0,0.2,0c0.3,0,0.5,0.1,0.8,0.2
		s0.4,0.3,0.6,0.5c0.2,0.2,0.3,0.4,0.3,0.7C70.2,350.7,70.2,351,70.2,351.3z"/>
	<path class="st3" d="M75.9,351.4c0,0.5-0.1,1-0.3,1.4c-0.2,0.4-0.4,0.7-0.7,1c-0.3,0.3-0.7,0.4-1.1,0.6c-0.4,0.1-0.8,0.2-1.3,0.2
		c-0.2,0-0.4,0-0.6-0.1c-0.2-0.1-0.4-0.1-0.6-0.2c-0.2-0.1-0.4-0.2-0.6-0.3c-0.2-0.1-0.4-0.2-0.5-0.3l0.3-2.3c0.3,0.2,0.6,0.4,1,0.5
		c0.4,0.1,0.7,0.2,1.1,0.2c0.1,0,0.2,0,0.2,0c0.1,0,0.2,0,0.3-0.1c0.1,0,0.2-0.1,0.2-0.1c0.1-0.1,0.1-0.1,0.1-0.3
		c0-0.1,0-0.1-0.1-0.2c0-0.1-0.1-0.1-0.2-0.1c-0.1,0-0.1-0.1-0.2-0.1c-0.1,0-0.2,0-0.3,0c-0.1,0-0.2,0-0.2,0c-0.1,0-0.1,0-0.2,0
		c-0.3,0-0.6-0.1-0.8-0.2c-0.3-0.1-0.5-0.3-0.7-0.5c-0.2-0.2-0.3-0.4-0.4-0.7s-0.1-0.6-0.1-0.9c0-0.5,0.1-0.9,0.3-1.3
		c0.2-0.4,0.4-0.7,0.7-0.9c0.3-0.3,0.6-0.5,1-0.6c0.4-0.1,0.8-0.2,1.2-0.2c0.2,0,0.4,0,0.5,0c0.2,0,0.4,0,0.6,0.1
		c0.2,0,0.4,0.1,0.5,0.1c0.2,0.1,0.3,0.1,0.5,0.2l-0.2,2.4c-0.2-0.1-0.5-0.2-0.8-0.2c-0.3-0.1-0.5-0.1-0.8-0.1c0,0-0.1,0-0.2,0
		c-0.1,0-0.2,0-0.2,0c-0.1,0-0.2,0-0.2,0c-0.1,0-0.2,0-0.2,0.1c-0.1,0-0.1,0.1-0.2,0.1c0,0.1-0.1,0.1-0.1,0.2c0,0.1,0,0.2,0.1,0.2
		c0.1,0,0.1,0.1,0.2,0.1s0.2,0,0.3,0c0.1,0,0.2,0,0.3,0c0.1,0,0.2,0,0.3,0c0.1,0,0.2,0,0.2,0c0.3,0,0.5,0.1,0.8,0.2
		c0.2,0.1,0.4,0.3,0.6,0.5c0.2,0.2,0.3,0.4,0.4,0.7C75.9,350.8,75.9,351.1,75.9,351.4z"/>
	<path class="st3" d="M85,350c0,0.4,0,0.7-0.1,1.1c-0.1,0.3-0.2,0.7-0.3,1c-0.1,0.3-0.3,0.6-0.5,0.8c-0.2,0.3-0.4,0.5-0.7,0.7
		c-0.2,0.2-0.5,0.3-0.8,0.4c-0.3,0.1-0.6,0.2-0.9,0.2c-0.3,0-0.6,0-0.9-0.1c-0.3-0.1-0.6-0.2-0.8-0.4s-0.5-0.3-0.7-0.6
		c-0.2-0.2-0.4-0.5-0.6-0.8c-0.2-0.3-0.3-0.6-0.4-0.9c-0.1-0.3-0.1-0.7-0.2-1c0-0.3,0-0.7,0.1-1c0.1-0.3,0.2-0.7,0.3-1
		c0.1-0.3,0.3-0.6,0.5-0.8c0.2-0.3,0.4-0.5,0.7-0.7c0.2-0.2,0.5-0.3,0.8-0.4c0.3-0.1,0.6-0.2,0.9-0.2c0.5,0,1,0.1,1.4,0.2
		c0.4,0.2,0.8,0.4,1.1,0.7c0.3,0.3,0.6,0.7,0.7,1.2C84.9,348.9,85,349.4,85,350z M82.6,350.2c0-0.2,0-0.3-0.1-0.5
		c-0.1-0.2-0.1-0.3-0.2-0.4c-0.1-0.1-0.2-0.2-0.3-0.3c-0.1-0.1-0.3-0.1-0.4-0.1c-0.2,0-0.3,0-0.5,0.1c-0.1,0.1-0.2,0.2-0.3,0.3
		c-0.1,0.1-0.2,0.3-0.2,0.4c0,0.2-0.1,0.3-0.1,0.5c0,0.2,0,0.3,0.1,0.5c0,0.2,0.1,0.3,0.2,0.4c0.1,0.1,0.2,0.2,0.3,0.3
		c0.1,0.1,0.3,0.1,0.5,0.1c0.2,0,0.3,0,0.5-0.1c0.1-0.1,0.2-0.2,0.3-0.3c0.1-0.1,0.2-0.3,0.2-0.4C82.6,350.6,82.6,350.4,82.6,350.2z
		"/>
	<path class="st3" d="M90.1,345.2c0,0.4,0,0.7,0,1.1c0,0.4,0,0.7,0,1.1l-2.3,0.3l0,0.8l2-0.1l0,1.9l-1.9,0.2l0.2,3.5l-2.7,0.2
		l-0.3-8.6L90.1,345.2z"/>
	<path class="st3" d="M97.9,344.5l0.2,2.5l-1.6,0.2l0.1,5.7l-2.3,0.4l-0.5-5.6l-1.6,0.3l-0.2-2.8L97.9,344.5z"/>
	<path class="st3" d="M105.2,352.1l-2.7,0.5l-0.3-2.7l-1.2,0.2l0.2,2.6l-2.4,0.3l-0.8-8.4l2.6-0.2l0.3,4.3l1.2-0.2l-0.5-4.6l2.5-0.3
		L105.2,352.1z"/>
	<path class="st3" d="M111,346.2c0,0.3,0.1,0.7,0.1,1c-0.6,0.1-1.2,0.3-1.8,0.5s-1.2,0.4-1.8,0.6c0.1,0.3,0.3,0.5,0.5,0.6
		c0.2,0.1,0.5,0.2,0.7,0.1c0.1,0,0.3-0.1,0.5-0.2c0.2-0.1,0.3-0.2,0.5-0.3c0.2-0.1,0.3-0.2,0.4-0.4s0.3-0.2,0.4-0.3l0.1,2.7
		c-0.1,0.1-0.3,0.3-0.4,0.4c-0.1,0.1-0.3,0.2-0.5,0.3c-0.2,0.1-0.3,0.1-0.5,0.2c-0.2,0.1-0.3,0.1-0.5,0.1c-0.4,0.1-0.7,0.1-1,0
		c-0.3-0.1-0.6-0.2-0.9-0.3c-0.3-0.1-0.5-0.3-0.7-0.6c-0.2-0.2-0.4-0.5-0.6-0.8c-0.2-0.3-0.3-0.6-0.4-0.9c-0.1-0.3-0.2-0.7-0.2-1
		c-0.1-0.4-0.1-0.7-0.1-1.1c0-0.4,0-0.7,0.1-1.1c0.1-0.4,0.2-0.7,0.3-1c0.1-0.3,0.3-0.6,0.5-0.9c0.2-0.3,0.5-0.5,0.8-0.7
		c0.3-0.2,0.6-0.3,1-0.4c0.3-0.1,0.6-0.1,0.9,0c0.3,0.1,0.5,0.1,0.8,0.3c0.2,0.1,0.4,0.3,0.6,0.5c0.2,0.2,0.3,0.4,0.5,0.7
		c0.1,0.3,0.3,0.5,0.3,0.9S110.9,345.9,111,346.2z M108.8,346.3c0-0.1,0-0.2-0.1-0.3c0-0.1-0.1-0.2-0.1-0.3
		c-0.1-0.1-0.1-0.2-0.2-0.2c-0.1,0-0.2-0.1-0.3,0c-0.1,0-0.3,0.1-0.4,0.2c-0.1,0.1-0.2,0.2-0.2,0.4c-0.1,0.1-0.1,0.3-0.1,0.4
		c0,0.2,0,0.3-0.1,0.4l1.6-0.4L108.8,346.3z"/>
</g>
<g>
	<path class="st3" d="M54.1,372.3l-5.8-0.3l0.5-5.4l-2.6-0.3l-0.7,5.1l-5.2-0.5l2.1-16.4l5.5,0.8l-1.2,8.3l2.6,0.3l0.9-9l5.2,0.7
		L54.1,372.3z"/>
	<path class="st3" d="M70.3,366.2c0,0.7-0.2,1.4-0.4,2c-0.2,0.7-0.5,1.3-0.8,1.8c-0.3,0.6-0.7,1.1-1.2,1.5c-0.5,0.5-1,0.8-1.5,1.2
		c-0.6,0.3-1.2,0.5-1.8,0.7c-0.6,0.2-1.3,0.2-2,0.2c-0.7,0-1.3-0.2-2-0.4c-0.6-0.2-1.2-0.5-1.7-0.9c-0.5-0.4-1-0.8-1.4-1.3
		c-0.4-0.5-0.8-1-1-1.6c-0.3-0.6-0.5-1.2-0.6-1.8c-0.1-0.6-0.2-1.3-0.1-2c0-0.7,0.2-1.3,0.4-2c0.2-0.6,0.5-1.2,0.8-1.8
		c0.3-0.6,0.7-1.1,1.2-1.5s1-0.8,1.5-1.2c0.6-0.3,1.1-0.6,1.8-0.7c0.6-0.2,1.3-0.2,2-0.2c1.1,0.1,2.1,0.3,3,0.7
		c0.9,0.4,1.7,0.9,2.3,1.6c0.6,0.7,1.1,1.5,1.4,2.5C70.2,364,70.4,365.1,70.3,366.2z M65.2,366.2c0-0.3,0-0.7-0.1-1
		c-0.1-0.3-0.2-0.6-0.4-0.9c-0.2-0.3-0.4-0.5-0.7-0.6c-0.3-0.2-0.6-0.3-0.9-0.3c-0.4,0-0.7,0-1,0.1c-0.3,0.1-0.5,0.3-0.8,0.5
		c-0.2,0.2-0.4,0.5-0.5,0.8c-0.1,0.3-0.2,0.6-0.2,1c0,0.3,0,0.7,0.1,1c0.1,0.3,0.2,0.6,0.4,0.9c0.2,0.3,0.4,0.5,0.7,0.7
		c0.3,0.2,0.6,0.3,0.9,0.3c0.4,0,0.7,0,1-0.2c0.3-0.1,0.6-0.3,0.8-0.5c0.2-0.2,0.4-0.5,0.5-0.8C65.1,366.9,65.1,366.6,65.2,366.2z"
		/>
	<path class="st3" d="M91.2,366.4c0,1.1,0,2.2-0.1,3.3c-0.1,1.1-0.1,2.2-0.2,3.3l-5.9,0.3c0.2-1.4,0.3-2.7,0.5-4.1
		c0.1-1.4,0.2-2.7,0.2-4.1c0-0.1,0-0.2,0-0.5c0-0.2,0-0.5,0-0.7c0-0.3,0-0.6-0.1-0.8c0-0.3-0.1-0.6-0.1-0.8
		c-0.1-0.2-0.1-0.4-0.2-0.6c-0.1-0.2-0.2-0.2-0.3-0.2c-0.3,0-0.5,0.1-0.6,0.3c-0.2,0.2-0.3,0.5-0.3,0.7c-0.1,0.3-0.1,0.6-0.1,0.9
		c0,0.3,0,0.5,0,0.7c0,0.3,0,0.7,0,1c0,0.3,0,0.7,0,1c0,1.2,0,2.4-0.1,3.6c-0.1,1.2-0.1,2.4-0.2,3.6l-5.5,0.2
		c0.2-1.4,0.3-2.7,0.5-4.1c0.1-1.4,0.2-2.7,0.2-4.1c0-0.1,0-0.2,0-0.5c0-0.2,0-0.5,0-0.8c0-0.3,0-0.6-0.1-0.9c0-0.3-0.1-0.6-0.1-0.8
		c-0.1-0.3-0.1-0.5-0.2-0.6c-0.1-0.2-0.2-0.2-0.3-0.2c-0.2,0-0.4,0.1-0.5,0.2c-0.1,0.2-0.2,0.3-0.3,0.6c-0.1,0.2-0.1,0.5-0.2,0.8
		c0,0.3-0.1,0.6-0.1,0.9s0,0.5,0,0.8c0,0.2,0,0.4,0,0.5l-0.3,8.6l-5.8,0c0.1-1.3,0.2-2.6,0.4-4c0.1-1.3,0.2-2.7,0.3-4
		c0.1-1.3,0.2-2.7,0.2-4c0.1-1.3,0.1-2.7,0.1-4l5.5-0.2l0,1.4c0.2-0.2,0.4-0.4,0.6-0.7c0.2-0.2,0.4-0.4,0.7-0.6
		c0.2-0.2,0.5-0.3,0.8-0.4c0.3-0.1,0.6-0.2,0.9-0.2c0.4,0,0.7,0,1,0.1c0.3,0.1,0.6,0.2,0.8,0.3c0.2,0.1,0.5,0.3,0.6,0.6
		c0.2,0.2,0.3,0.6,0.5,0.9c0.2-0.3,0.5-0.5,0.7-0.8c0.3-0.2,0.5-0.4,0.8-0.6c0.3-0.2,0.6-0.3,0.9-0.4c0.3-0.1,0.7-0.1,1.1-0.1
		c0.7,0,1.4,0.1,1.9,0.4c0.5,0.3,1,0.7,1.3,1.2c0.4,0.5,0.6,1,0.8,1.7c0.2,0.6,0.3,1.3,0.4,1.9c0.1,0.7,0.2,1.3,0.2,2
		C91.2,365.2,91.2,365.8,91.2,366.4z"/>
	<path class="st3" d="M105.2,362c0,0.7,0,1.4,0,2c-1.3,0.2-2.6,0.4-3.9,0.6s-2.6,0.5-3.9,0.8c0.2,0.6,0.6,1,1,1.3
		c0.4,0.3,1,0.5,1.6,0.4c0.3,0,0.6-0.1,1-0.2c0.4-0.1,0.7-0.3,1.1-0.5c0.4-0.2,0.7-0.4,1-0.6c0.3-0.2,0.6-0.4,0.8-0.6l-0.3,5.3
		c-0.3,0.3-0.6,0.5-0.9,0.7c-0.3,0.2-0.7,0.3-1.1,0.5c-0.4,0.1-0.7,0.2-1.1,0.3c-0.4,0.1-0.8,0.1-1.1,0.1c-0.8,0-1.5,0-2.1-0.2
		c-0.6-0.2-1.2-0.4-1.8-0.8c-0.5-0.3-1-0.8-1.4-1.3c-0.4-0.5-0.8-1-1-1.6c-0.3-0.6-0.5-1.2-0.7-1.9c-0.2-0.7-0.3-1.4-0.3-2
		c0-0.7,0-1.5,0.1-2.2c0.1-0.7,0.3-1.4,0.5-2.1c0.2-0.7,0.5-1.3,0.9-1.9c0.4-0.6,0.8-1.1,1.3-1.6c0.5-0.5,1.1-0.8,1.8-1.1
		c0.7-0.3,1.4-0.4,2.2-0.5c0.7,0,1.3,0,1.9,0.2c0.6,0.2,1.1,0.4,1.6,0.7c0.5,0.3,0.9,0.7,1.2,1.1c0.4,0.4,0.7,0.9,0.9,1.5
		c0.2,0.5,0.4,1.1,0.6,1.7S105.1,361.4,105.2,362z M100.5,361.7c0-0.2,0-0.4-0.1-0.7c-0.1-0.2-0.1-0.4-0.3-0.6
		c-0.1-0.2-0.3-0.3-0.4-0.4c-0.2-0.1-0.4-0.2-0.6-0.1c-0.3,0-0.6,0.1-0.8,0.3c-0.2,0.2-0.4,0.4-0.6,0.7c-0.2,0.3-0.3,0.5-0.4,0.8
		c-0.1,0.3-0.2,0.6-0.2,0.8l3.4-0.5L100.5,361.7z"/>
</g>
</svg>
