<svg xmlns="http://www.w3.org/2000/svg" viewBox="0 0 617.62 416.2"><defs><style>.cls-1{fill:#7c3f03;}.cls-2{fill:#3d3b39;}.cls-3{fill:#c56800;}.cls-4{fill:#c11b1b;}.cls-5{fill:#fff;}.cls-6{fill:#262423;}.cls-7{fill:#822609;}.cls-8{fill:#c43700;}.cls-9{fill:#ff8500;}</style></defs><title>hydra</title><g id="Layer_2" data-name="Layer 2"><g id="Layer_1-2" data-name="Layer 1"><path class="cls-1" d="M33.06,167.56,37,159.07a22,22,0,0,1,1.72-3.26,31.24,31.24,0,0,1,3-3.51c1.83-2,3.47-4.2,5.1-6.38,5-6.65,10.06-13.42,13.05-21.19,2.83-7.35,3.46-17.25,0-24.25A6,6,0,0,0,58.1,98.2a6.69,6.69,0,0,0-3.14-1,28.75,28.75,0,0,0-5.56-.34c-5.92.36-8.66,4.19-14.52,3.33L33.12,100c-5.92-.37-10.7-5-16.42-6.55a28.3,28.3,0,0,0-5.5-.81A6.61,6.61,0,0,0,7.92,93a5.93,5.93,0,0,0-2.14,1.88c-5.17,6.52-6.34,15.51-5,23.72S5.65,134.47,9.17,142c1.15,2.47,2.31,4.94,3.69,7.29a32.49,32.49,0,0,1,2.21,4,22.84,22.84,0,0,1,1,3.55L18.16,166"/><path class="cls-2" d="M170.93,239.28a242.73,242.73,0,0,1-50.8-10,37.39,37.39,0,0,1-7-2.75c-2.09-1.15-4-2.65-6-4-7.18-4.67-15.77-6.62-23.39-10.53a101.14,101.14,0,0,1-13.46-8.86c-9.7-7.16-19.67-14.62-25.71-25.06-8.48-14.66-7.83-32.72-6.22-49.58q.93-9.66,2.17-19.29l-19.26,0c-6.66,17.51-7.94,36.59-7.74,55.32.12,11.66.9,23.72,6.21,34.11a62.23,62.23,0,0,0,10.1,13.75c18.49,19.84,43.74,32.8,70.25,38.47,7.8,1.67,15.73,2.74,23.42,4.81,15.47,4.16,30,12.33,46,13.5Z"/><path class="cls-1" d="M92.53,264.8l3.38-8.71a24.17,24.17,0,0,1,1.52-3.36,30.88,30.88,0,0,1,2.78-3.68c1.71-2.13,3.21-4.41,4.71-6.68,4.58-7,9.21-14,11.72-22,2.38-7.51,2.41-17.43-1.5-24.2a6,6,0,0,0-1.85-2.17,6.74,6.74,0,0,0-3.2-.79,28.69,28.69,0,0,0-5.56,0c-5.89.72-8.39,4.71-14.3,4.21l-1.76-.08c-5.93,0-11-4.31-16.79-5.53a29.41,29.41,0,0,0-5.54-.48,6.86,6.86,0,0,0-3.25.51,6.09,6.09,0,0,0-2,2c-4.76,6.83-5.38,15.87-3.56,24s5.85,15.55,9.82,22.86c1.3,2.39,2.61,4.79,4.13,7.05a31.18,31.18,0,0,1,2.45,3.91,22.47,22.47,0,0,1,1.23,3.48l2.63,9"/><path class="cls-2" d="M210.45,281.74c-14.54,12.35-29.95,23.92-47.15,32.18S126.92,327,107.91,325.4c-5-.43-10-1.32-14.36-3.69-5.44-2.95-9.51-8-12.19-13.6s-4.08-11.67-5.21-17.75a221,221,0,0,1-.58-77l20.71-3.81c-1.41,2-1.72,4.48-2,6.89a180.29,180.29,0,0,0,1.55,45.41,31.61,31.61,0,0,0,3,10.21c2.92,5.32,8.43,8.73,14.06,11,14.77,6,31.54,5.65,47,1.64s29.71-11.5,43.42-19.62c8.8-5.21,17.68-10.94,23.44-19.38Z"/><path class="cls-1" d="M483.15,179.31l3-8.84a23.69,23.69,0,0,1,1.37-3.42,31.78,31.78,0,0,1,2.62-3.81c1.62-2.19,3-4.53,4.42-6.87,4.29-7.13,8.62-14.39,10.79-22.42,2.05-7.61,1.66-17.52-2.54-24.12a6,6,0,0,0-1.94-2.09,6.89,6.89,0,0,0-3.22-.65,28.67,28.67,0,0,0-5.56.25c-5.85,1-8.18,5.06-14.11,4.81h-1.76c-5.93.25-11.16-3.84-17-4.81a28.67,28.67,0,0,0-5.56-.25,6.89,6.89,0,0,0-3.22.65,6,6,0,0,0-1.94,2.09c-4.47,7-4.71,16.09-2.54,24.12s6.5,15.29,10.78,22.42c1.41,2.34,2.81,4.68,4.43,6.87a33,33,0,0,1,2.62,3.81,23.69,23.69,0,0,1,1.37,3.42l3,8.84"/><path class="cls-2" d="M260.57,258.42c-.18-15.4,7.93-29.74,17.72-41.63,4.68-5.68,9.89-11.08,16.28-14.75,5.38-3.1,11.42-4.86,17.39-6.6,10.23-3,20.58-6,31.22-6.46,24.46-1.12,49,11.06,72.79,5.25,10.63-2.6,20.07-8.61,29.12-14.77,5.41-3.67,10.87-7.54,14.65-12.87,4.62-6.51,6.32-14.61,7.5-22.5,1-7,1.75-14.11,2.12-21.2l11.41-.06A45.86,45.86,0,0,1,488.2,137a77.34,77.34,0,0,1-6.38,63.38,35.68,35.68,0,0,1-7.63,9.58c-6,5-14.12,6.72-21.85,8.21q-15,2.88-30,5.69l-31.84,6c-10.53,2-21.08,4-31.7,5.42-19.67,2.68-39.84,3.59-58.52,10.31Z"/><path class="cls-1" d="M370.33,124.38,377.58,111a38.25,38.25,0,0,1,3.14-5.13,52.39,52.39,0,0,1,5.25-5.39c3.2-3.08,6.09-6.46,9-9.83,8.83-10.29,17.77-20.76,23.46-33.08,5.38-11.66,7.45-27.69,2.52-39.43a9.81,9.81,0,0,0-2.55-3.9,11,11,0,0,0-5-1.92,47.16,47.16,0,0,0-9-1.13c-9.66,0-14.53,5.9-24,3.88l-2.84-.49c-9.59-1.21-16.88-9.22-26-12.38A46.88,46.88,0,0,0,342.69.29a11,11,0,0,0-5.35.16,9.78,9.78,0,0,0-3.69,2.83C324.56,13.35,321.7,27.84,323,41.34s6.26,26.33,11.19,39c1.61,4.14,3.23,8.28,5.22,12.25a51.4,51.4,0,0,1,3.17,6.82,37.52,37.52,0,0,1,1.27,5.88l2.42,15"/><path class="cls-2" d="M242.33,247.37c-3-2-2.48-24.26-2.34-25.7,1.29-14.07,19.35-24,35.16-35.27,0,0,5.64-4,38.57-34.52,17.13-15.86,35.13-46.8,36.07-113.5L392.7,37c-.22,40.37-6.66,82.51-30.41,115.15-12.75,17.54-31.21,28.89-36.81,36.39C296.91,226.79,262.91,346,242.33,351.94"/><path class="cls-3" d="M422,45.31c2-9.24,1.86-19.22-1.5-27.22a9.84,9.84,0,0,0-2.55-3.89,11,11,0,0,0-5-1.92,47.16,47.16,0,0,0-9-1.13c-9.66,0-14.53,5.9-24,3.87l-2.84-.48c-9.59-1.21-16.88-9.22-26-12.38A47,47,0,0,0,342.24.25a11,11,0,0,0-5.36.16,9.78,9.78,0,0,0-3.69,2.83c-6.38,7.06-9.69,16.3-10.65,25.85l2.85-3.81,7.77-13c1-1.72,2.16-3.54,4-4.39a6.53,6.53,0,0,1,6.23.79,14.24,14.24,0,0,1,4.2,5,7.58,7.58,0,0,1,1.31,4.32,9.35,9.35,0,0,1-1.07,3,16.79,16.79,0,0,0-2,8.4c.73,8.92,11.81,13.82,13.73,22.56.82,3.73-.17,7.66.58,11.4a4.62,4.62,0,0,0,.87,2.09,5.23,5.23,0,0,0,2.26,1.36L370.87,68a5.21,5.21,0,0,0,2.59-.54,4.51,4.51,0,0,0,1.5-1.68c2-3.28,2.32-7.32,4.32-10.57,4.71-7.61,16.79-8.57,20.43-16.75a16.71,16.71,0,0,0,.92-8.57,9.49,9.49,0,0,1,0-3.19,7.55,7.55,0,0,1,2.66-3.65,14.35,14.35,0,0,1,5.61-3.3A6.52,6.52,0,0,1,415,21.11c1.44,1.4,1.9,3.49,2.3,5.45l3,14.88Z"/><path class="cls-4" d="M382.43,29.17a22.58,22.58,0,0,1,7.83-3.66,6.2,6.2,0,0,1-1.07,5.5,5.94,5.94,0,0,1-6.77,1.48,3.53,3.53,0,0,1-.43-1.6A3.37,3.37,0,0,1,382.43,29.17Z"/><path d="M385.38,27.31l2.7-1.2a10.72,10.72,0,0,1-3,6.14,11.51,11.51,0,0,0,.41-2.42A11.37,11.37,0,0,0,385.38,27.31Z"/><path class="cls-4" d="M365.87,26.35A22.83,22.83,0,0,0,363,22.94a23.85,23.85,0,0,0-3.29-2.64,6.19,6.19,0,0,0-.81,5.55,6,6,0,0,0,5.9,3.64,3.51,3.51,0,0,0,.93-1.37A3.46,3.46,0,0,0,365.87,26.35Z"/><path d="M363.7,23.62l-2.15-2a11,11,0,0,0-.1,3.87,11.2,11.2,0,0,0,.88,2.92,11.67,11.67,0,0,1,1.37-4.76Z"/><path d="M366.17,66.74a5.76,5.76,0,0,1-4.67-3c-1.26-2.31-.78-5.12-.65-7.74a26.44,26.44,0,0,0-3.57-14.46l-1.08-1.75.66.09a80.3,80.3,0,0,0,9.87-4.12,14.65,14.65,0,0,1,2.89-1.22,6.83,6.83,0,0,1,5.94,1.33c.68.57,1.25,1.25,1.89,1.85,1.8,1.67,4.16,2.58,6.06,4.12a30.36,30.36,0,0,0,3.14,2.65l-1.89,1.73a26.5,26.5,0,0,0-8.15,12.46c-.75,2.52-1.22,5.32-3.17,7.09a5.76,5.76,0,0,1-5.39,1.25Z"/><path class="cls-5" d="M361.07,59.12,362.71,58a4.41,4.41,0,0,0-.47,1.36,4.22,4.22,0,0,0,0,1.44l1-.31a4.31,4.31,0,0,0-.23,1.4,4.46,4.46,0,0,0,.22,1.47,2.28,2.28,0,0,0,.55-.38,2.74,2.74,0,0,0,.62-.85l-.09,3.34a1.54,1.54,0,0,1-1.39-1.68,2.66,2.66,0,0,1-1-1.13,2.7,2.7,0,0,1-.18-1.71,1.28,1.28,0,0,1-.82-.86A1.24,1.24,0,0,1,361.07,59.12Z"/><path class="cls-5" d="M375,61.48l-1.16-1.63a4.31,4.31,0,0,1,0,1.44,4,4,0,0,1-.47,1.35l-.85-.62a4.43,4.43,0,0,1-.24,1.4,4.63,4.63,0,0,1-.7,1.32,3.43,3.43,0,0,1-.39-.55,2.93,2.93,0,0,1-.31-1l-1,3.18a1.57,1.57,0,0,0,1-.07,1.62,1.62,0,0,0,.89-1.05,2.64,2.64,0,0,0,1.33-.73,2.69,2.69,0,0,0,.74-1.55,1.3,1.3,0,0,0,1.05-.54A1.25,1.25,0,0,0,375,61.48Z"/><path class="cls-5" d="M367.05,36.64a1.44,1.44,0,0,1,2.57.44,39.79,39.79,0,0,0-2.08,5.16,41.23,41.23,0,0,0-2,11.65,28.49,28.49,0,0,1,0-12.71A27.48,27.48,0,0,1,367.05,36.64Z"/><path class="cls-5" d="M376.79,38.3a1.48,1.48,0,0,0-1.32-1.07,1.52,1.52,0,0,0-1.24.63,40.38,40.38,0,0,1,.25,5.56,41.12,41.12,0,0,1-2,11.65,28.6,28.6,0,0,0,4.2-12A26.83,26.83,0,0,0,376.79,38.3Z"/><path class="cls-4" d="M368.28,76.17c.77-8.08,1.28-16.23,2.91-24.18a2.42,2.42,0,0,1-2,.73,2.46,2.46,0,0,1-1.72-1.06c-.6,4-1.13,8-1.82,12s-1.37,8-1.82,12l2.6-4Z"/><path class="cls-1" d="M103.14,124.38,95.89,111a37.31,37.31,0,0,0-3.15-5.13,51.27,51.27,0,0,0-5.24-5.39c-3.2-3.08-6.1-6.46-9-9.83C69.68,80.36,60.74,69.89,55.06,57.57c-5.38-11.66-7.46-27.69-2.52-39.43a9.79,9.79,0,0,1,2.54-3.9,11,11,0,0,1,5-1.92,47.16,47.16,0,0,1,9-1.13c9.66,0,14.52,5.9,24,3.88l2.84-.49c9.58-1.21,16.87-9.22,26-12.38A47.05,47.05,0,0,1,130.77.29a11,11,0,0,1,5.36.16,9.78,9.78,0,0,1,3.69,2.83c9.09,10.07,12,24.56,10.66,38.06s-6.26,26.33-11.19,39c-1.61,4.14-3.23,8.28-5.22,12.25a51.46,51.46,0,0,0-3.18,6.82,36.4,36.4,0,0,0-1.26,5.88l-2.42,15"/><path class="cls-2" d="M231.13,247.37c3-2,2.49-24.26,2.35-25.7-1.29-14.07-19.35-24-35.16-35.27,0,0-5.64-4-38.57-34.52-17.13-15.86-35.13-46.8-36.07-113.5L80.77,37c.22,40.37,6.66,82.51,30.4,115.15C123.93,169.67,142.39,181,148,188.52c28.57,38.27,62.57,157.52,83.14,163.42"/><path class="cls-3" d="M51.5,45.31c-2-9.24-1.86-19.22,1.5-27.22a9.82,9.82,0,0,1,2.54-3.89,11,11,0,0,1,5-1.92,47.16,47.16,0,0,1,9-1.13c9.66,0,14.52,5.9,24,3.87l2.84-.48c9.58-1.21,16.87-9.22,26-12.38A47.05,47.05,0,0,1,131.23.25a11,11,0,0,1,5.36.16,9.78,9.78,0,0,1,3.69,2.83c6.38,7.06,9.69,16.3,10.65,25.85l-2.85-3.81-7.78-13c-1-1.72-2.15-3.54-4-4.39a6.53,6.53,0,0,0-6.23.79,14.24,14.24,0,0,0-4.2,5,7.51,7.51,0,0,0-1.31,4.32,9.35,9.35,0,0,0,1.07,3,16.89,16.89,0,0,1,2,8.4c-.73,8.92-11.81,13.82-13.74,22.56-.81,3.73.18,7.66-.58,11.4a4.72,4.72,0,0,1-.86,2.09,5.2,5.2,0,0,1-2.27,1.36L102.6,68A5.21,5.21,0,0,1,100,67.5a4.62,4.62,0,0,1-1.51-1.68c-1.94-3.28-2.31-7.32-4.31-10.57C89.48,47.64,77.4,46.68,73.76,38.5a16.82,16.82,0,0,1-.93-8.57,9.24,9.24,0,0,0,0-3.19,7.62,7.62,0,0,0-2.66-3.65,14.42,14.42,0,0,0-5.61-3.3,6.51,6.51,0,0,0-6.14,1.32c-1.44,1.4-1.91,3.49-2.31,5.45l-3,14.88Z"/><path class="cls-4" d="M91,29.17a22.58,22.58,0,0,0-7.83-3.66A6.2,6.2,0,0,0,84.28,31a5.94,5.94,0,0,0,6.77,1.48,3.42,3.42,0,0,0,.42-1.6A3.39,3.39,0,0,0,91,29.17Z"/><path d="M88.09,27.31l-2.7-1.2a11,11,0,0,0,1.18,3.68,10.72,10.72,0,0,0,1.81,2.46A11.45,11.45,0,0,1,88,29.83,11.3,11.3,0,0,1,88.09,27.31Z"/><path class="cls-4" d="M107.6,26.35a22.83,22.83,0,0,1,2.89-3.41,23.27,23.27,0,0,1,3.29-2.64,6.22,6.22,0,0,1,.81,5.55,6,6,0,0,1-5.9,3.64,3.41,3.41,0,0,1-.93-1.37A3.35,3.35,0,0,1,107.6,26.35Z"/><path d="M109.77,23.62l2.15-2a11,11,0,0,1,.1,3.87,10.8,10.8,0,0,1-.89,2.92,11.45,11.45,0,0,0-1.36-4.76Z"/><path d="M107.3,66.74a5.78,5.78,0,0,0,4.67-3c1.25-2.31.77-5.12.65-7.74a26.44,26.44,0,0,1,3.57-14.46l1.08-1.75-.66.09a79.66,79.66,0,0,1-9.87-4.12,14.9,14.9,0,0,0-2.89-1.22,6.86,6.86,0,0,0-5.95,1.33c-.68.57-1.24,1.25-1.89,1.85-1.79,1.67-4.15,2.58-6.05,4.12a31.45,31.45,0,0,1-3.14,2.65l1.88,1.73a26.35,26.35,0,0,1,8.15,12.46c.76,2.52,1.23,5.32,3.18,7.09a5.75,5.75,0,0,0,5.39,1.25Z"/><path class="cls-5" d="M112.4,59.12,110.76,58a4.41,4.41,0,0,1,.47,1.36,4.49,4.49,0,0,1,0,1.44l-1-.31a4.27,4.27,0,0,1,.24,1.4,4.42,4.42,0,0,1-.23,1.47,2.25,2.25,0,0,1-.54-.38,3,3,0,0,1-.63-.85l.09,3.34a1.67,1.67,0,0,0,.9-.39,1.73,1.73,0,0,0,.5-1.29,2.67,2.67,0,0,0,1.19-2.84,1.28,1.28,0,0,0,.81-.86A1.25,1.25,0,0,0,112.4,59.12Z"/><path class="cls-5" d="M98.51,61.48l1.16-1.63a4.26,4.26,0,0,0,0,1.44,4.44,4.44,0,0,0,.47,1.35L101,62a4.67,4.67,0,0,0,.23,1.4,4.61,4.61,0,0,0,.71,1.32,3.43,3.43,0,0,0,.39-.55,2.68,2.68,0,0,0,.3-1l1,3.18a1.54,1.54,0,0,1-1-.07,1.68,1.68,0,0,1-.9-1.05,2.66,2.66,0,0,1-1.32-.73A2.69,2.69,0,0,1,99.72,63a1.29,1.29,0,0,1-1-.54A1.25,1.25,0,0,1,98.51,61.48Z"/><path class="cls-5" d="M106.41,36.64a1.43,1.43,0,0,0-2.56.44,40.56,40.56,0,0,1,4.06,16.81,28.37,28.37,0,0,0,0-12.71A26.57,26.57,0,0,0,106.41,36.64Z"/><path class="cls-5" d="M96.68,38.3A1.47,1.47,0,0,1,98,37.23a1.54,1.54,0,0,1,1.24.63A40.86,40.86,0,0,0,101,55.07a28.46,28.46,0,0,1-4.2-12A26.83,26.83,0,0,1,96.68,38.3Z"/><path class="cls-4" d="M105.19,76.17c-.77-8.08-1.28-16.23-2.91-24.18a2.33,2.33,0,0,0,3.67-.33c.61,4,1.14,8,1.83,12s1.37,8,1.82,12l-2.6-4Z"/><path class="cls-1" d="M221.54,211.26c-2.66-7.81-9.12-15.62-11.77-23.43a60.78,60.78,0,0,0-3.64-9.06,82.22,82.22,0,0,0-6.94-10.07c-4.28-5.82-8-12-11.71-18.2-11.34-18.91-22.81-38.12-28.56-59.4s-5.11-45.27,6.71-63.88a16,16,0,0,1,5.14-5.54c2.55-1.47,5.61-1.63,8.54-1.72a76.28,76.28,0,0,1,14.73.65c15.49,2.57,29.35,13.41,45,12.74h4.68c15.69.67,21.87-10.17,37.36-12.74A76.32,76.32,0,0,1,295.85,20c2.93.09,6,.25,8.54,1.72a15.9,15.9,0,0,1,5.14,5.54C320.64,44.69,321.68,71,316.24,91.1c-5.75,21.28-17.22,40.49-28.56,59.4-3.71,6.19-7.43,12.38-11.71,18.2A82.22,82.22,0,0,0,269,178.77a60.78,60.78,0,0,0-3.64,9.06c-2.65,7.81-9.11,15.62-11.77,23.43"/><path class="cls-6" d="M616.07,131.52a135.2,135.2,0,0,1-48.64,92.08c-22.56,18.4-52,29.2-81,26-24.61-2.73-49.56-15.16-73.05-7.3C387.55,250.94,371.27,282.23,344,283c-13.24.39-25.48-6.89-38.59-8.71-19.74-2.75-40.64,8.46-49.27,26.43l1.72,46.51q-5.34-97.53-2.46-195.27A169.93,169.93,0,0,1,257,130.49c1.53-9.7,4.68-19.11,5.73-28.88,1.1-10.24-.14-20.59-1.38-30.82l-58.75.84c-.45,10.77,4.53,20.9,7.82,31.16,5.08,15.84,6.23,32.64,7.35,49.23,1.79,26.67,3.59,53.36,3.22,80.08-.7,50.46-9.09,101.23-1.42,151.11,2.06,13.44,7.45,29.05,20.63,32.39,14.33,3.65,27.31-10.17,32.57-24s6.93-29.59,16.55-40.82c8.51-10,21.91-14.49,35-15.66s26.15.56,39.24.9A50.08,50.08,0,0,0,377.09,335c9.53-2.42,17.1-9.45,24.33-16.12,12.43-11.48,25.92-23,42.43-26.71,27.92-6.24,39.43,8.27,72.13,3.09,18.73-3,33-11.66,42.06-18.44a157,157,0,0,0,58-145.27Z"/><path class="cls-3" d="M318.6,70.48c.64-15.34-2.26-31.3-9.82-43.2a15.81,15.81,0,0,0-5.14-5.54c-2.54-1.47-5.6-1.63-8.54-1.72a76.32,76.32,0,0,0-14.73.65C264.88,23.24,258.7,34.08,243,33.41h-4.68c-15.69.67-29.55-10.17-45-12.74A76.42,76.42,0,0,0,178.56,20c-2.93.09-6,.25-8.53,1.72a15.93,15.93,0,0,0-5.15,5.54c-8.29,13-11.08,28.76-10,44.32l3.54-6.88,8.9-23c1.17-3,2.49-6.26,5.17-8.1,2.93-2,6.95-1.9,10.2-.44s5.83,4.07,8.09,6.82c1.57,1.92,3.09,4.09,3.26,6.57a15,15,0,0,1-.89,5.11c-1.27,4.55-2,9.4-.85,14,3.6,14.1,22.7,18.93,28.16,32.41,2.33,5.75,1.82,12.33,4,18.12a7.43,7.43,0,0,0,2,3.09,8.31,8.31,0,0,0,4,1.57h12.48a8.31,8.31,0,0,0,4-1.57,7.43,7.43,0,0,0,2-3.09c2.22-5.79,1.71-12.37,4-18.12,5.46-13.48,24.56-18.31,28.16-32.41,1.16-4.58.42-9.43-.85-14a15,15,0,0,1-.89-5.11c.17-2.48,1.69-4.65,3.26-6.57,2.26-2.75,4.85-5.36,8.09-6.82s7.27-1.58,10.2.44c2.68,1.84,4,5.07,5.17,8.1l8.9,23Z"/><path class="cls-4" d="M250.84,55.4a36.85,36.85,0,0,1,11.56-8c.15.31,2.32,4.87-.22,9.11a9.69,9.69,0,0,1-10.45,4.22,5.62,5.62,0,0,1-.89-5.33Z"/><path d="M255.07,51.62l4-2.67a17.82,17.82,0,0,1-.89,6.22A17.61,17.61,0,0,1,256,59.62a19.64,19.64,0,0,0,0-4A19.2,19.2,0,0,0,255.07,51.62Z"/><path class="cls-4" d="M223.55,55.4a36.85,36.85,0,0,0-11.56-8c-.15.31-2.32,4.87.23,9.11a9.67,9.67,0,0,0,10.44,4.22,5.71,5.71,0,0,0,1.11-2.45A5.59,5.59,0,0,0,223.55,55.4Z"/><path d="M219.33,51.62l-4-2.67a17.63,17.63,0,0,0,3.11,10.67,18.3,18.3,0,0,1,0-4A18,18,0,0,1,219.33,51.62Z"/><path d="M235.05,120a9.42,9.42,0,0,1-8.31-3.48c-2.63-3.36-2.63-8-3.15-12.22a42.87,42.87,0,0,0-9.66-22.19l-2.2-2.52,1.08,0a130.35,130.35,0,0,0,14.69-9.3,23.85,23.85,0,0,1,4.3-2.73,11.11,11.11,0,0,1,9.89.51c1.24.71,2.33,1.66,3.53,2.45,3.33,2.17,7.36,3,10.82,5,1.94,1.09,3.69,2.54,5.76,3.37l-2.55,3.3a42.87,42.87,0,0,0-9.66,22.19c-.52,4.23-.52,8.86-3.15,12.22a9.41,9.41,0,0,1-8.3,3.48Z"/><path class="cls-5" d="M224.79,109.21l2.31-2.3a7,7,0,0,0-.38,2.3,7.14,7.14,0,0,0,.38,2.31l1.54-.77a7.36,7.36,0,0,0,.77,4.61,4.27,4.27,0,0,0,.76-.77,4.34,4.34,0,0,0,.77-1.53c.26,1.79.51,3.58.77,5.37a2.55,2.55,0,0,1-1.54-.38,2.72,2.72,0,0,1-1.15-1.92,4.33,4.33,0,0,1-1.92-1.54,4.4,4.4,0,0,1-.77-2.69,1.93,1.93,0,0,1-1.54-2.69Z"/><path class="cls-5" d="M247.69,109.21l-2.3-2.3a7.32,7.32,0,0,1,.38,2.3,7.14,7.14,0,0,1-.38,2.31l-1.54-.77a7.36,7.36,0,0,1-.77,4.61,4.63,4.63,0,0,1-.77-.77,4.28,4.28,0,0,1-.76-1.53q-.39,2.68-.77,5.37a2.51,2.51,0,0,0,1.53-.38,2.71,2.71,0,0,0,1.16-1.92,4.33,4.33,0,0,0,1.92-1.54,4.48,4.48,0,0,0,.77-2.69,2.07,2.07,0,0,0,1.53-1.15A2,2,0,0,0,247.69,109.21Z"/><path class="cls-5" d="M228.25,71.56a2.34,2.34,0,0,1,4.23,0,65.34,65.34,0,0,0-1.92,8.84,66.6,66.6,0,0,0,0,19.21,46.39,46.39,0,0,1-3.46-20.37A45.46,45.46,0,0,1,228.25,71.56Z"/><path class="cls-5" d="M244.31,71.56a2.4,2.4,0,0,0-2.42-1.34,2.51,2.51,0,0,0-1.81,1.34A66.23,66.23,0,0,1,242,99.61a46.39,46.39,0,0,0,3.46-20.37A45.46,45.46,0,0,0,244.31,71.56Z"/><path class="cls-4" d="M241,134.56c-1-13.14-2.38-26.35-1.92-39.52a3.82,3.82,0,0,1-6,.46c.12,6.56.36,13.12.35,19.68s0,13.13.35,19.69l3.08-7.06Z"/><path class="cls-7" d="M300.71,167.88l5.44-9a26.5,26.5,0,0,1,2.34-3.42,36.24,36.24,0,0,1,3.79-3.53c2.31-2,4.41-4.24,6.52-6.46,6.42-6.79,12.93-13.69,17.26-22,4.1-7.84,6.07-18.81,3.07-27.06a6.73,6.73,0,0,0-1.62-2.77,7.56,7.56,0,0,0-3.38-1.49A32.18,32.18,0,0,0,328,91.12c-6.65-.35-10.2,3.57-16.63,1.86l-1.94-.43c-6.56-1.16-11.3-6.92-17.48-9.4a32.25,32.25,0,0,0-6-1.62,7.57,7.57,0,0,0-3.69-.07,6.74,6.74,0,0,0-2.64,1.82c-6.6,6.62-9.06,16.5-8.63,25.84s3.43,18.34,6.39,27.2c1,2.91,1.94,5.81,3.18,8.61a35.49,35.49,0,0,1,1.95,4.8,25.86,25.86,0,0,1,.68,4.09l1.15,10.43"/><path class="cls-6" d="M247.78,210.56c-2.23-21.15,7.62-42.48,23.07-57.09,4.52-4.28,9.55-8.11,13.28-13.1,6.64-8.86,8.48-20.31,9.95-31.28l18.8,2.7c1.08,26-3.33,52.79-16.63,75.16-7.66,12.9-18,24-27.17,35.83s-17.34,25.16-19.55,40Z"/><path class="cls-6" d="M242.89,167.73c-.65,2.35,2.42,3.81,4.75,4.51,4.87,1.47,9.85,4.67,10.86,9.66,1.17,5.79-3.45,11.4-3,17.29.1,1.42.5,2.9,0,4.25a15.46,15.46,0,0,1-1.75,2.76c-2,3.33-.76,7.61-.86,11.52-.15,5.7-3.42,11.26-2.25,16.84.39,1.83,1.23,3.53,1.73,5.33,1.7,6.11-.67,12.53-3,18.42l-3.65,9.22A147.24,147.24,0,0,1,234,225.84c-2-15.73-1-33.17,9.36-45.22"/><path class="cls-6" d="M250.92,261.81a54,54,0,0,1-1.84-7L246.34,256c1.69,2.42,1.28,5.67,2,8.42l2.75-1.16a13.8,13.8,0,0,1-2.15-6.91l-2.8.76c.74,1,.74,2.4.88,3.59.2,1.56.36,3.13.5,4.7a1.51,1.51,0,0,0,1.3,1.47,1.49,1.49,0,0,0,1.65-1.07,38.86,38.86,0,0,0,.1-10.5l-2.95.4a30.92,30.92,0,0,1,1.65,7.1l2.94-.4a17.56,17.56,0,0,1-.47-4.63l-.13-5-2.95.4a23,23,0,0,1,.63,4.44,10.13,10.13,0,0,0,.58,4.24,1.51,1.51,0,0,0,2.79-.76,102.11,102.11,0,0,1-.56-12l-2.8.75c1.16,2.37,1.33,5.06,1.5,7.66l2.95-.4c-1-3.19-1-6.69-1.16-10l-2.8.75a12,12,0,0,1,1.45,5.76,1.5,1.5,0,0,0,3,0,15.12,15.12,0,0,0-1.86-7.27,1.51,1.51,0,0,0-2.79.76c.21,3.57.15,7.36,1.26,10.8.5,1.53,3.06,1.36,3-.4-.21-3.16-.5-6.29-1.9-9.17-.69-1.4-2.76-.64-2.8.76a102.11,102.11,0,0,0,.56,12l2.8-.76a3.91,3.91,0,0,1-.15-1.67c0-.7,0-1.4-.08-2.09a29.62,29.62,0,0,0-.67-4.2,1.51,1.51,0,0,0-3,.4c0,1.78.09,3.55.13,5.33a20.16,20.16,0,0,0,.58,5.08c.45,1.56,3.13,1.34,3-.4a34.47,34.47,0,0,0-1.76-7.9,1.5,1.5,0,0,0-1.64-1.07,1.47,1.47,0,0,0-1.3,1.47,35.81,35.81,0,0,1,0,9.7l3,.4q-.24-2.72-.59-5.42c-.19-1.49-.27-3.13-1.2-4.38-.81-1.1-2.85-.87-2.79.75a16.85,16.85,0,0,0,2.56,8.42,1.5,1.5,0,0,0,2.74-1.15c-.85-3.05-.45-6.42-2.34-9.13a1.51,1.51,0,0,0-2.74,1.16,52.44,52.44,0,0,0,1.84,7c.61,1.82,3.51,1,2.89-.8Z"/><path class="cls-6" d="M254.32,253.07c-.13-3-.38-6-.75-9a1.55,1.55,0,0,0-1.5-1.5c-.73,0-1.61.67-1.5,1.5.37,3,.62,6,.75,9a1.5,1.5,0,0,0,3,0Z"/><path class="cls-6" d="M250.58,243.76a3.78,3.78,0,0,0,.27,1.24c.08.2.16.39.25.59,0,0,.23.53.11.23a9.82,9.82,0,0,1,.5,1.86l0,.2c0-.18,0-.18,0,0s0,.35.05.53,0,.63,0,1c0,.67,0,1.35,0,2a1.5,1.5,0,0,0,3,0,25,25,0,0,0-.15-4.24,10.07,10.07,0,0,0-.44-1.88c-.14-.37-.29-.73-.46-1.08,0-.08-.07-.16-.1-.23.07.16.07.17,0,0s-.11-.58-.07-.21a1.54,1.54,0,0,0-1.5-1.5,1.52,1.52,0,0,0-1.5,1.5Z"/><path class="cls-8" d="M338.93,115.2c1.66-6.29,1.93-13.17-.11-18.78a6.75,6.75,0,0,0-1.63-2.77,7.52,7.52,0,0,0-3.37-1.49,32.46,32.46,0,0,0-6.16-1.08c-6.65-.36-10.2,3.56-16.64,1.85l-1.93-.43c-6.56-1.16-11.31-6.91-17.49-9.4a32,32,0,0,0-6-1.61,7.57,7.57,0,0,0-3.69-.08,6.74,6.74,0,0,0-2.63,1.83c-4.63,4.64-7.23,10.89-8.21,17.43l2.09-2.52,5.79-8.72a7,7,0,0,1,2.89-2.88,4.49,4.49,0,0,1,4.26.75,10,10,0,0,1,2.73,3.56,5.27,5.27,0,0,1,.75,3,6.48,6.48,0,0,1-.84,2,11.56,11.56,0,0,0-1.63,5.71c.2,6.17,7.66,9.91,8.69,16,.44,2.59-.38,5.27,0,7.87a3.19,3.19,0,0,0,.53,1.46,3.57,3.57,0,0,0,1.51,1l5.17,1.15a3.54,3.54,0,0,0,1.8-.29,3.13,3.13,0,0,0,1.1-1.1c1.45-2.19,1.83-5,3.33-7.13,3.49-5.08,11.84-5.33,14.62-10.84a11.62,11.62,0,0,0,.93-5.87,6.43,6.43,0,0,1,.1-2.19,5.19,5.19,0,0,1,1.95-2.43,10,10,0,0,1,4-2.08A4.51,4.51,0,0,1,335,98.31a7,7,0,0,1,1.4,3.83L338,112.48Z"/><path class="cls-9" d="M312.25,102.75a15.74,15.74,0,0,1,5.52-2.25,4.27,4.27,0,0,1-.93,3.75,4.1,4.1,0,0,1-4.71.79,2.39,2.39,0,0,1-.23-1.11A2.34,2.34,0,0,1,312.25,102.75Z"/><path d="M314.35,101.57l1.9-.74a7.73,7.73,0,0,1-.94,2.5A7.54,7.54,0,0,1,314,105a7.62,7.62,0,0,0,.37-1.66A8.36,8.36,0,0,0,314.35,101.57Z"/><path class="cls-9" d="M301,100.25a16.12,16.12,0,0,0-1.87-2.44,15.49,15.49,0,0,0-2.18-1.93,4.27,4.27,0,0,0-.74,3.79,4.1,4.1,0,0,0,3.93,2.71,2.45,2.45,0,0,0,.69-.91A2.4,2.4,0,0,0,301,100.25Z"/><path d="M299.55,98.3l-1.41-1.47a7.35,7.35,0,0,0-.2,2.66,7.27,7.27,0,0,0,.51,2,8.23,8.23,0,0,1,.36-1.66A8,8,0,0,1,299.55,98.3Z"/><path d="M299.79,128.07a4,4,0,0,1-3.12-2.2c-.78-1.63-.35-3.55-.18-5.35a18.12,18.12,0,0,0-2-10.07l-.68-1.25.45.09a55.11,55.11,0,0,0,6.93-2.51,10.5,10.5,0,0,1,2-.74,4.74,4.74,0,0,1,4.05,1.12c.45.41.81.91,1.24,1.34,1.18,1.2,2.77,1.92,4,3a22.2,22.2,0,0,0,2.07,1.93l-1.36,1.13a18.19,18.19,0,0,0-6,8.3c-.6,1.7-1,3.62-2.42,4.77a4,4,0,0,1-3.76.68Z"/><path class="cls-5" d="M296.54,122.65l1.16-.75a3.33,3.33,0,0,0-.37.92,3.27,3.27,0,0,0-.05,1l.71-.17a2.8,2.8,0,0,0-.21,1,2.87,2.87,0,0,0,.11,1,1.93,1.93,0,0,0,.38-.24,1.9,1.9,0,0,0,.46-.57l-.17,2.3a1.06,1.06,0,0,1-.9-1.2,1.87,1.87,0,0,1-.66-.81,1.92,1.92,0,0,1-.07-1.19.87.87,0,0,1-.53-.62A.82.82,0,0,1,296.54,122.65Z"/><path class="cls-5" d="M306,124.74l-.74-1.16a3,3,0,0,1-.06,1,3.06,3.06,0,0,1-.37.92l-.56-.46a3.29,3.29,0,0,1-.21,1,3.14,3.14,0,0,1-.53.89,2.2,2.2,0,0,1-.25-.39,2,2,0,0,1-.18-.71l-.81,2.16a1.09,1.09,0,0,0,.67,0,1.13,1.13,0,0,0,.66-.69,1.84,1.84,0,0,0,.93-.46,1.87,1.87,0,0,0,.57-1,.91.91,0,0,0,.74-.34A.85.85,0,0,0,306,124.74Z"/><path class="cls-5" d="M301.42,107.37a1,1,0,0,1,1.75.39,27.7,27.7,0,0,0-3.36,11.44,19.51,19.51,0,0,1,.43-8.75A19.08,19.08,0,0,1,301.42,107.37Z"/><path class="cls-5" d="M308.07,108.84a1,1,0,0,0-.88-.77,1,1,0,0,0-.87.39,28.94,28.94,0,0,1,0,3.83,28.22,28.22,0,0,1-1.76,8,19.2,19.2,0,0,0,3.53-11.41Z"/><path class="cls-4" d="M300.92,134.63a156.27,156.27,0,0,1,2.83-16.55,1.65,1.65,0,0,1-1.37.43,1.62,1.62,0,0,1-1.15-.78c-.56,2.72-1.06,5.46-1.66,8.18s-1.21,5.43-1.66,8.18l1.92-2.64Z"/><path class="cls-7" d="M181.67,233.42l3.49-15.53a39,39,0,0,1,1.7-6,54.42,54.42,0,0,1,3.75-6.92c2.34-4,4.29-8.24,6.24-12.45,6-12.88,12-26,14.18-40,2.1-13.27-.38-30-8.68-40.41a10.46,10.46,0,0,0-3.68-3.2,11.52,11.52,0,0,0-5.58-.5,49.44,49.44,0,0,0-9.38,1.42c-9.73,2.72-12.94,10.07-23,10.73l-3,.32c-10,1.51-19.6-4.47-29.69-5a48.52,48.52,0,0,0-9.47.6,11.46,11.46,0,0,0-5.34,1.68,10.16,10.16,0,0,0-2.91,3.9c-6.29,12.72-5,28.12.1,41.34s13.8,24.72,22.36,36c2.8,3.71,5.61,7.42,8.75,10.84a54.69,54.69,0,0,1,5.13,6,38.38,38.38,0,0,1,2.95,5.56l6.71,14.43"/><path class="cls-6" d="M227.3,354.28c-20.79,6.79-43.81-7.06-54.79-26s-12.82-41.59-14.4-63.4q-1.53-21.09-3.07-42.19c-1.6-22.08-3.28-44.51-10.94-65.29l27.58-6.66a194.54,194.54,0,0,0,8.15,68.66c2.45,8,5.47,15.94,10.3,22.78,3.66,5.19,8.26,9.62,12.84,14l26.27,25.22Z"/><path class="cls-8" d="M211.13,139.14c-.65-9.86-3.6-19.87-9.26-27a10.34,10.34,0,0,0-3.67-3.2,11.55,11.55,0,0,0-5.58-.5,49.32,49.32,0,0,0-9.38,1.42c-9.74,2.72-12.94,10.07-23,10.73l-3,.32c-10,1.51-19.61-4.47-29.69-5a48.47,48.47,0,0,0-9.47.6,11.54,11.54,0,0,0-5.35,1.68,10.37,10.37,0,0,0-2.91,3.9c-4.41,8.92-5.11,19.16-3.36,29.05l1.79-4.65,4.11-15.34c.54-2,1.16-4.17,2.75-5.54a6.85,6.85,0,0,1,6.5-1,15,15,0,0,1,5.64,3.8,7.91,7.91,0,0,1,2.54,4,9.91,9.91,0,0,1-.21,3.34,17.48,17.48,0,0,0,.41,9c3.28,8.77,15.83,10.55,20.25,18.8,1.89,3.52,2,7.76,3.83,11.31a4.77,4.77,0,0,0,1.47,1.85,5.4,5.4,0,0,0,2.66.72l8-.85a5.35,5.35,0,0,0,2.45-1.28,4.75,4.75,0,0,0,1-2.12c1-3.86.24-8,1.34-11.87,2.57-9,14.45-13.4,15.78-22.67a17.46,17.46,0,0,0-1.5-8.89,9.67,9.67,0,0,1-.92-3.21A7.83,7.83,0,0,1,186,122.1a14.92,14.92,0,0,1,4.7-4.91,6.83,6.83,0,0,1,6.56-.43c1.84,1,2.9,3,3.86,4.83l7.28,14.12Z"/><path class="cls-9" d="M166.74,134.15a23.92,23.92,0,0,1,6.84-5.91,6.48,6.48,0,0,1,.48,5.84,6.2,6.2,0,0,1-6.39,3.42,3.56,3.56,0,0,1-.93-3.35Z"/><path d="M169.18,131.45l2.37-2a11.13,11.13,0,0,1-.14,4,11,11,0,0,1-1.11,3,12,12,0,0,0-1.12-5.05Z"/><path class="cls-9" d="M149.27,136a23.93,23.93,0,0,0-3.87-2.6,23.41,23.41,0,0,0-4.07-1.72,6.48,6.48,0,0,0,.77,5.81,6.23,6.23,0,0,0,7,2,3.67,3.67,0,0,0,.54-1.64A3.64,3.64,0,0,0,149.27,136Z"/><path d="M146.31,133.91l-2.74-1.43a11.47,11.47,0,0,0,2.72,6.61,12.63,12.63,0,0,1-.27-2.56A12.27,12.27,0,0,1,146.31,133.91Z"/><path d="M161.08,176.6a6.06,6.06,0,0,1-5.55-1.65c-1.92-2-2.24-4.93-2.86-7.61A27.62,27.62,0,0,0,145,153.81l-1.58-1.46.69-.09a83.85,83.85,0,0,0,8.76-7,15.25,15.25,0,0,1,2.56-2.05,7.16,7.16,0,0,1,6.36-.35c.85.37,1.61.9,2.43,1.32,2.28,1.17,4.92,1.41,7.26,2.43a34.29,34.29,0,0,0,3.92,1.76l-1.4,2.28a27.55,27.55,0,0,0-4.66,14.86c0,2.75.28,5.71-1.17,8a6.07,6.07,0,0,1-5.07,2.8Z"/><path class="cls-5" d="M153.77,170.38l1.32-1.63a4.43,4.43,0,0,0-.09,1.5,4.7,4.7,0,0,0,.41,1.45l.93-.6a4.4,4.4,0,0,0,.16,1.47,4.7,4.7,0,0,0,.65,1.43,3.51,3.51,0,0,0,.44-.55,2.93,2.93,0,0,0,.38-1l.86,3.38a1.62,1.62,0,0,1-1-.14,1.77,1.77,0,0,1-.87-1.15,2.77,2.77,0,0,1-1.33-.85,2.83,2.83,0,0,1-.68-1.66,1.39,1.39,0,0,1-1.06-.64A1.3,1.3,0,0,1,153.77,170.38Z"/><path class="cls-5" d="M168.42,168.8l-1.63-1.31a4.55,4.55,0,0,1,.41,1.45,4.84,4.84,0,0,1-.09,1.5l-1-.39a4.93,4.93,0,0,1,.16,1.48,4.81,4.81,0,0,1-.33,1.52,2.68,2.68,0,0,1-.55-.43,3,3,0,0,1-.59-.93l-.13,3.49a1.64,1.64,0,0,0,1-.35,1.77,1.77,0,0,0,.61-1.31,2.79,2.79,0,0,0,1.12-1.12,2.87,2.87,0,0,0,.31-1.77,1.36,1.36,0,0,0,.9-.84A1.29,1.29,0,0,0,168.42,168.8Z"/><path class="cls-5" d="M153.39,146.05a1.51,1.51,0,0,1,1.26-1,1.49,1.49,0,0,1,1.45.71,41.79,41.79,0,0,0-.62,5.79,42.87,42.87,0,0,0,1.32,12.29,29.79,29.79,0,0,1-3.61-12.79A28.35,28.35,0,0,1,153.39,146.05Z"/><path class="cls-5" d="M163.67,145a1.56,1.56,0,0,0-1.64-.7,1.6,1.6,0,0,0-1.07,1,42.45,42.45,0,0,1,1.84,5.52,43,43,0,0,1,1.32,12.29,29.78,29.78,0,0,0,.81-13.27A28.88,28.88,0,0,0,163.67,145Z"/><path class="cls-4" d="M165.88,185.49c-1.52-8.35-3.33-16.7-3.95-25.16a2.46,2.46,0,0,1-3.8.7c.53,4.19,1.13,8.38,1.58,12.58s.89,8.39,1.58,12.57l1.48-4.73Z"/><path class="cls-6" d="M224.73,267.71a9.21,9.21,0,0,0-4,2.3c-.48.56-.81,1.23-1.26,1.82-.65.87-1.54,1.55-2.16,2.45a9,9,0,0,0-1.24,4.8c-.29,6.48,1.2,12.88,2.14,19.29a116.34,116.34,0,0,1,.48,30.06l-2.23,23.4a7.89,7.89,0,0,0,10.31,8.08,14.14,14.14,0,0,0,5.45-3.86,14.91,14.91,0,0,0,2.36-2.9,15.23,15.23,0,0,0,1.52-4.53A72.54,72.54,0,0,0,237.35,327a124.46,124.46,0,0,0-7-46.14A122.32,122.32,0,0,0,224.73,267.71Z"/><path class="cls-1" d="M358.83,365.93l6.91-20.31a52.83,52.83,0,0,1,3.15-7.86,72.81,72.81,0,0,1,6-8.73c3.71-5,6.93-10.41,10.15-15.77,9.83-16.39,19.77-33,24.75-51.49,4.72-17.47,3.82-40.24-5.81-55.38a13.83,13.83,0,0,0-4.46-4.81c-2.2-1.27-4.86-1.41-7.4-1.48a66.42,66.42,0,0,0-12.77.55c-13.43,2.23-18.79,11.63-32.39,11h-4.05c-13.6.58-25.62-8.82-39.05-11a66.42,66.42,0,0,0-12.77-.55c-2.54.07-5.2.21-7.4,1.48a13.83,13.83,0,0,0-4.46,4.81c-10.25,16.13-10.8,36.93-5.82,55.38s14.93,35.1,24.76,51.49c3.22,5.36,6.44,10.74,10.15,15.77a72.81,72.81,0,0,1,6,8.73,52.83,52.83,0,0,1,3.15,7.86l6.91,20.31"/><path class="cls-6" d="M311.59,355.93c-3-5-9.88-25.43-11.88-30.89-6.67-18.17-11.41,5.55-10-16.64l-7.61-10c-8.81,33.63-6,48.9,4.13,82.17,3.75,12.4,11.21,25,23.53,29A38.1,38.1,0,0,0,322,411.2c7.49-.05,15.19-1.35,21.49-5.39,7.49-4.81,12.24-13.06,14.59-21.65s2.55-17.59,2.69-26.49c.56-36.2.35-72.4.14-108.61L315.32,253,321,335c.86,12.39,1.63,25.34-3.27,36.76"/><path class="cls-3" d="M411.86,243.89c.56-13.3-1.95-27.14-8.51-37.45a13.82,13.82,0,0,0-4.46-4.81c-2.2-1.27-4.86-1.41-7.4-1.48a66.46,66.46,0,0,0-12.77.56c-13.43,2.23-18.78,11.62-32.38,11h-4.06c-13.6.57-25.62-8.82-39-11a66.42,66.42,0,0,0-12.77-.56c-2.54.07-5.2.21-7.4,1.48a14,14,0,0,0-4.46,4.81c-7.19,11.31-9.6,24.93-8.69,38.42l3.07-6,7.71-20c1-2.63,2.16-5.42,4.49-7,2.54-1.75,6-1.64,8.84-.37a20,20,0,0,1,7,5.91c1.37,1.66,2.68,3.54,2.84,5.69a13.35,13.35,0,0,1-.78,4.44c-1.1,3.94-1.75,8.15-.73,12.11,3.12,12.23,19.67,16.41,24.41,28.1,2,5,1.57,10.69,3.5,15.7a6.46,6.46,0,0,0,1.69,2.69,7.27,7.27,0,0,0,3.47,1.36h10.83a7.19,7.19,0,0,0,3.46-1.36,6.38,6.38,0,0,0,1.7-2.69c1.93-5,1.48-10.72,3.5-15.7,4.74-11.69,21.29-15.87,24.41-28.1,1-4,.37-8.17-.74-12.11a13.34,13.34,0,0,1-.77-4.44c.16-2.15,1.47-4,2.84-5.69a19.94,19.94,0,0,1,7-5.91c2.81-1.27,6.3-1.38,8.84.37,2.33,1.61,3.47,4.4,4.48,7l7.72,20Z"/><path class="cls-4" d="M353.12,230.81a32.19,32.19,0,0,1,4.82-4,31.68,31.68,0,0,1,5.2-2.89c.13.27,2,4.22-.19,7.89a8.39,8.39,0,0,1-9.06,3.66,4.88,4.88,0,0,1-1-2.11A5,5,0,0,1,353.12,230.81Z"/><path d="M356.78,227.54l3.47-2.31a15.27,15.27,0,0,1-.77,5.39,14.89,14.89,0,0,1-1.93,3.85,16,16,0,0,0-.77-6.93Z"/><path class="cls-4" d="M329.46,230.81a32.2,32.2,0,0,0-10-6.93c-.13.27-2,4.22.2,7.89a8.37,8.37,0,0,0,9.05,3.66,4.76,4.76,0,0,0,1-2.11A4.84,4.84,0,0,0,329.46,230.81Z"/><path d="M325.8,227.54l-3.47-2.31a15.17,15.17,0,0,0,2.7,9.24,16,16,0,0,1,.77-6.93Z"/><path d="M339.43,286.85a8.17,8.17,0,0,1-7.2-3c-2.28-2.92-2.28-6.93-2.73-10.6A37.14,37.14,0,0,0,321.12,254l-1.9-2.18.93,0a112.58,112.58,0,0,0,12.74-8.07,20.73,20.73,0,0,1,3.72-2.37,9.67,9.67,0,0,1,8.58.45c1.07.62,2,1.44,3.06,2.12,2.88,1.89,6.38,2.6,9.38,4.29a44,44,0,0,0,5,2.93L360.41,254A37.12,37.12,0,0,0,352,273.24c-.46,3.67-.45,7.68-2.74,10.6a8.14,8.14,0,0,1-7.19,3Z"/><path class="cls-5" d="M330.54,277.47l2-2a6.29,6.29,0,0,0-.33,2,6.16,6.16,0,0,0,.33,2l1.33-.67a6.58,6.58,0,0,0,0,2,6.51,6.51,0,0,0,.67,2,3.92,3.92,0,0,0,1.33-2c.22,1.55.44,3.11.67,4.66a2.22,2.22,0,0,1-1.34-.33,2.38,2.38,0,0,1-1-1.67,3.73,3.73,0,0,1-1.66-1.33,3.84,3.84,0,0,1-.67-2.33,1.81,1.81,0,0,1-1.33-1A1.7,1.7,0,0,1,330.54,277.47Z"/><path class="cls-5" d="M350.39,277.47l-2-2a6,6,0,0,1,.34,2,6.22,6.22,0,0,1-.34,2l-1.33-.67a6.38,6.38,0,0,1-.67,4,4.2,4.2,0,0,1-.66-.67,3.82,3.82,0,0,1-.67-1.33l-.66,4.66a2.21,2.21,0,0,0,1.33-.33,2.38,2.38,0,0,0,1-1.67,3.73,3.73,0,0,0,1.66-1.33,3.84,3.84,0,0,0,.67-2.33,1.81,1.81,0,0,0,1.33-1A1.7,1.7,0,0,0,350.39,277.47Z"/><path class="cls-5" d="M333.54,244.83a2,2,0,0,1,3.66,0,56.7,56.7,0,0,0-1.66,7.66,57.54,57.54,0,0,0,0,16.65,40.22,40.22,0,0,1-3-17.65A38.38,38.38,0,0,1,333.54,244.83Z"/><path class="cls-5" d="M347.45,244.83a2.07,2.07,0,0,0-2.09-1.17,2.16,2.16,0,0,0-1.57,1.17,57.2,57.2,0,0,1,1.67,24.31,40.1,40.1,0,0,0,3-17.65A37.44,37.44,0,0,0,347.45,244.83Z"/><path class="cls-4" d="M344.58,299.44c-.84-11.39-2.06-22.84-1.67-34.26a3.42,3.42,0,0,1-2.54,1.46,3.47,3.47,0,0,1-2.65-1.06c.1,5.68.32,11.37.3,17.06s0,11.38.31,17.07l2.67-6.12Z"/><path class="cls-3" d="M61.53,117.08c.84-5.73.37-11.84-2-16.6a6.11,6.11,0,0,0-1.72-2.29,6.66,6.66,0,0,0-3.14-1,27.92,27.92,0,0,0-5.55-.33c-5.92.36-8.66,4.19-14.53,3.32L32.84,100c-5.92-.36-10.7-5-16.42-6.54a28.3,28.3,0,0,0-5.51-.82A6.81,6.81,0,0,0,7.64,93a6.06,6.06,0,0,0-2.15,1.88A27.57,27.57,0,0,0,0,111.11l1.6-2.44,4.24-8.3a6.24,6.24,0,0,1,2.25-2.84,4,4,0,0,1,3.85.23,8.87,8.87,0,0,1,2.77,2.88,4.57,4.57,0,0,1,1,2.59,5.74,5.74,0,0,1-.53,1.89,10.24,10.24,0,0,0-.87,5.21c.81,5.44,7.79,8,9.31,13.27.65,2.25.2,4.7.81,7A2.7,2.7,0,0,0,25,131.8a3.12,3.12,0,0,0,1.44.75l4.69.48a3.12,3.12,0,0,0,1.56-.43,2.82,2.82,0,0,0,.85-1.08c1.07-2.09,1.13-4.58,2.23-6.65C38.37,120,45.72,119,47.63,113.8a10.37,10.37,0,0,0,.22-5.28,5.65,5.65,0,0,1-.13-2,4.59,4.59,0,0,1,1.48-2.34A8.84,8.84,0,0,1,52.51,102a4,4,0,0,1,3.81.56,6.24,6.24,0,0,1,1.62,3.25l2.45,9Z"/><path class="cls-4" d="M36.67,108.77a14.34,14.34,0,0,1,2.27-1.53,13.62,13.62,0,0,1,2.39-1,3.83,3.83,0,0,1-.44,3.41,3.67,3.67,0,0,1-4.09,1.18,2.19,2.19,0,0,1-.32-1A2.22,2.22,0,0,1,36.67,108.77Z"/><path d="M38.41,107.52l1.6-.85a6.65,6.65,0,0,1-.57,2.31,7.1,7.1,0,0,1-1,1.58,7,7,0,0,0,.15-1.5A7.07,7.07,0,0,0,38.41,107.52Z"/><path class="cls-4" d="M26.42,107.71a13.12,13.12,0,0,0-1.9-2,13.72,13.72,0,0,0-2.12-1.49,3.81,3.81,0,0,0-.27,3.43,3.63,3.63,0,0,0,3.75,2,2,2,0,0,0,.52-.87A2.09,2.09,0,0,0,26.42,107.71Z"/><path d="M25,106.12,23.59,105a6.55,6.55,0,0,0,.09,2.37,6.84,6.84,0,0,0,.66,1.75,7.11,7.11,0,0,1,.65-3Z"/><path d="M28.22,132.43a3.56,3.56,0,0,1-3-1.63c-.86-1.36-.68-3.1-.71-4.71a16.18,16.18,0,0,0-2.76-8.71l-.73-1,.41,0a50.25,50.25,0,0,0,5.88-2.92,8.64,8.64,0,0,1,1.72-.86,4.18,4.18,0,0,1,3.69.58c.44.32.81.71,1.23,1.06,1.17.94,2.65,1.41,3.87,2.28a20.71,20.71,0,0,0,2,1.49l-1.08,1.14a16.13,16.13,0,0,0-4.5,7.95c-.36,1.57-.54,3.31-1.66,4.47a3.56,3.56,0,0,1-3.25,1Z"/><path class="cls-5" d="M24.79,128l1-.77a2.65,2.65,0,0,0-.24.85,2.59,2.59,0,0,0,.06.88l.6-.23a3.25,3.25,0,0,0-.09.87,3.1,3.1,0,0,0,.2.89,1.41,1.41,0,0,0,.32-.26,1.61,1.61,0,0,0,.35-.54l.08,2a1,1,0,0,1-.56-.21,1,1,0,0,1-.36-.76,1.66,1.66,0,0,1-.66-.66,1.63,1.63,0,0,1-.19-1,.77.77,0,0,1-.53-.49A.8.8,0,0,1,24.79,128Z"/><path class="cls-5" d="M33.39,128.86l-.78-1a2.58,2.58,0,0,1-.18,1.73l-.54-.34a2.93,2.93,0,0,1-.09.86,2.78,2.78,0,0,1-.38.84,1.87,1.87,0,0,1-.26-.32,1.74,1.74,0,0,1-.23-.61l-.5,2A.94.94,0,0,0,31,132a1,1,0,0,0,.5-.68,1.57,1.57,0,0,0,.78-.5,1.65,1.65,0,0,0,.4-1,.82.82,0,0,0,.62-.37A.74.74,0,0,0,33.39,128.86Z"/><path class="cls-5" d="M27.56,114a.89.89,0,0,1,.85-.42.86.86,0,0,1,.74.59,24.82,24.82,0,0,0-1.82,10.45,17.5,17.5,0,0,1-.5-7.78A16.51,16.51,0,0,1,27.56,114Z"/><path class="cls-5" d="M33.59,114.59a.91.91,0,0,0-.86-.6.94.94,0,0,0-.73.43,23.84,23.84,0,0,1,.38,3.4,25.31,25.31,0,0,1-.75,7.21,17.59,17.59,0,0,0,2.09-7.51A16.94,16.94,0,0,0,33.59,114.59Z"/><path class="cls-4" d="M29.88,138.12a137.44,137.44,0,0,1,.83-14.92,1.45,1.45,0,0,1-2.27-.06c-.21,2.47-.38,4.94-.64,7.4s-.52,4.93-.64,7.41l1.44-2.53Z"/><path class="cls-3" d="M117.86,212.68c.49-5.77-.35-11.84-3-16.45a6,6,0,0,0-1.85-2.17,6.55,6.55,0,0,0-3.19-.78,28.79,28.79,0,0,0-5.57,0C98.36,194,95.86,198,90,197.49l-1.77-.08c-5.93,0-11-4.31-16.78-5.52a27.87,27.87,0,0,0-5.55-.48,6.71,6.71,0,0,0-3.24.5,6.1,6.1,0,0,0-2,2,27.52,27.52,0,0,0-4.49,16.56l1.44-2.54,3.73-8.54a6.11,6.11,0,0,1,2.08-3,4,4,0,0,1,3.85,0,8.72,8.72,0,0,1,2.94,2.7,4.59,4.59,0,0,1,1.13,2.53,5.8,5.8,0,0,1-.42,1.91,10.31,10.31,0,0,0-.54,5.26c1.13,5.38,8.25,7.5,10.1,12.68.78,2.2.48,4.68,1.23,6.9a2.89,2.89,0,0,0,.69,1.2,3.15,3.15,0,0,0,1.48.65l4.71.2a3.23,3.23,0,0,0,1.54-.53,2.8,2.8,0,0,0,.78-1.13c.94-2.15.85-4.64,1.82-6.77,2.27-5,9.55-6.51,11.14-11.77a10.32,10.32,0,0,0-.1-5.29,5.6,5.6,0,0,1-.25-1.94,4.53,4.53,0,0,1,1.34-2.43,8.74,8.74,0,0,1,3.16-2.44,4,4,0,0,1,3.84.33,6.25,6.25,0,0,1,1.82,3.14l3,8.82Z"/><path class="cls-4" d="M92.55,205.91a13.69,13.69,0,0,1,2.17-1.67A14,14,0,0,1,97,203.07a3.87,3.87,0,0,1-.23,3.44,3.66,3.66,0,0,1-4,1.42,2.06,2.06,0,0,1-.38-.94A2.17,2.17,0,0,1,92.55,205.91Z"/><path d="M94.2,204.55l1.55-.94a6.58,6.58,0,0,1-1.34,4,7,7,0,0,0,.06-1.51A6.84,6.84,0,0,0,94.2,204.55Z"/><path class="cls-4" d="M82.25,205.47a14,14,0,0,0-2-1.85A13.15,13.15,0,0,0,78,202.27a3.83,3.83,0,0,0-.06,3.44,3.67,3.67,0,0,0,3.87,1.76,2,2,0,0,0,.46-.91A2,2,0,0,0,82.25,205.47Z"/><path d="M80.72,204l-1.46-1.07a6.44,6.44,0,0,0,.23,2.36,6.58,6.58,0,0,0,.77,1.71,6.72,6.72,0,0,1,.06-1.51A6.86,6.86,0,0,1,80.72,204Z"/><path d="M85.55,230a3.56,3.56,0,0,1-3.07-1.45c-.94-1.31-.87-3.05-1-4.66a16.11,16.11,0,0,0-3.28-8.52l-.79-1h.4a50.37,50.37,0,0,0,5.7-3.28,9.43,9.43,0,0,1,1.66-1,4.21,4.21,0,0,1,3.72.35c.46.29.85.67,1.29,1,1.22.88,2.73,1.25,4,2a18.24,18.24,0,0,0,2.12,1.37l-1,1.2a16.26,16.26,0,0,0-4,8.22c-.26,1.59-.34,3.33-1.38,4.56a3.56,3.56,0,0,1-3.19,1.18Z"/><path class="cls-5" d="M81.86,225.79l.91-.83a2.62,2.62,0,0,0-.19.86,3.1,3.1,0,0,0,.11.87l.59-.26a2.92,2.92,0,0,0,0,.87,2.76,2.76,0,0,0,.25.88,1.26,1.26,0,0,0,.3-.28,1.75,1.75,0,0,0,.32-.56l.2,2a1,1,0,0,1-.57-.17,1.05,1.05,0,0,1-.41-.75,1.64,1.64,0,0,1-.7-.61,1.58,1.58,0,0,1-.24-1,.8.8,0,0,1-.56-.46A.78.78,0,0,1,81.86,225.79Z"/><path class="cls-5" d="M90.5,226.16l-.84-.91a2.52,2.52,0,0,1,.11.87,2.63,2.63,0,0,1-.18.87l-.57-.32a2.63,2.63,0,0,1,0,.87,2.91,2.91,0,0,1-.33.86,1.58,1.58,0,0,1-.54-.89l-.38,2a.94.94,0,0,0,.59-.12,1,1,0,0,0,.46-.7,1.69,1.69,0,0,0,.75-.55,1.64,1.64,0,0,0,.33-1,.83.83,0,0,0,.6-.41A.82.82,0,0,0,90.5,226.16Z"/><path class="cls-5" d="M83.77,211.64a.88.88,0,0,1,.82-.47.86.86,0,0,1,.77.54,24.62,24.62,0,0,0-.86,3.3,24.94,24.94,0,0,0-.31,7.25,17.5,17.5,0,0,1-1-7.74A16.72,16.72,0,0,1,83.77,211.64Z"/><path class="cls-5" d="M89.82,211.9a.91.91,0,0,0-.89-.55,1,1,0,0,0-.7.48,26.11,26.11,0,0,1,.58,3.37,24.93,24.93,0,0,1-.31,7.24,17.28,17.28,0,0,0,1.63-7.62A16.66,16.66,0,0,0,89.82,211.9Z"/><path class="cls-4" d="M87.56,235.61a140.52,140.52,0,0,1-.09-14.94,1.44,1.44,0,0,1-2.26.08c-.07,2.47-.08,4.95-.19,7.43s-.22,4.95-.18,7.43L86.11,233Z"/><path class="cls-3" d="M506.25,126.16c.24-5.79-.85-11.81-3.71-16.3a6,6,0,0,0-1.94-2.1,6.79,6.79,0,0,0-3.22-.64,28.81,28.81,0,0,0-5.57.24c-5.84,1-8.18,5.06-14.1,4.81h-1.77c-5.92.25-11.15-3.84-17-4.81a28.67,28.67,0,0,0-5.56-.24,6.76,6.76,0,0,0-3.22.64,6,6,0,0,0-2,2.1,27.51,27.51,0,0,0-3.78,16.73l1.34-2.6,3.36-8.69a6.21,6.21,0,0,1,1.95-3.06,4,4,0,0,1,3.85-.16,8.76,8.76,0,0,1,3.05,2.57,4.62,4.62,0,0,1,1.24,2.48,5.81,5.81,0,0,1-.34,1.93,10.32,10.32,0,0,0-.32,5.28c1.36,5.32,8.57,7.14,10.63,12.23.88,2.17.68,4.66,1.52,6.84a2.86,2.86,0,0,0,.74,1.17,3.16,3.16,0,0,0,1.51.59h4.72a3.16,3.16,0,0,0,1.51-.59,2.86,2.86,0,0,0,.74-1.17c.84-2.18.64-4.67,1.52-6.84,2.06-5.09,9.27-6.91,10.63-12.23a10.32,10.32,0,0,0-.32-5.28,5.81,5.81,0,0,1-.34-1.93,4.62,4.62,0,0,1,1.24-2.48,8.76,8.76,0,0,1,3-2.57,4,4,0,0,1,3.85.16,6.21,6.21,0,0,1,1.95,3.06l3.36,8.69Z"/><path class="cls-4" d="M480.67,120.47a14.31,14.31,0,0,1,2.09-1.76,14.56,14.56,0,0,1,2.27-1.26,3.8,3.8,0,0,1-.08,3.44,3.65,3.65,0,0,1-3.95,1.59,2.13,2.13,0,0,1-.42-.92A2.09,2.09,0,0,1,480.67,120.47Z"/><path d="M482.26,119l1.51-1a6.87,6.87,0,0,1-.33,2.35,7,7,0,0,1-.84,1.67,7.55,7.55,0,0,0,0-1.51A7.08,7.08,0,0,0,482.26,119Z"/><path class="cls-4" d="M470.36,120.47a14.31,14.31,0,0,0-2.09-1.76,14.56,14.56,0,0,0-2.27-1.26,3.8,3.8,0,0,0,.08,3.44,3.65,3.65,0,0,0,3.95,1.59,2.13,2.13,0,0,0,.42-.92A2.09,2.09,0,0,0,470.36,120.47Z"/><path d="M468.77,119l-1.51-1a6.87,6.87,0,0,0,.33,2.35,7,7,0,0,0,.84,1.67,7.55,7.55,0,0,1,0-1.51A7.08,7.08,0,0,1,468.77,119Z"/><path d="M474.7,144.87a3.53,3.53,0,0,1-3.13-1.31c-1-1.27-1-3-1.19-4.61a16.16,16.16,0,0,0-3.65-8.38l-.83-.95h.41a49.77,49.77,0,0,0,5.54-3.51,9,9,0,0,1,1.63-1,4.16,4.16,0,0,1,3.73.19c.47.27.88.63,1.33.92,1.26.82,2.78,1.13,4.09,1.87a19,19,0,0,0,2.17,1.28l-1,1.24a16.16,16.16,0,0,0-3.65,8.38c-.19,1.6-.19,3.34-1.19,4.61a3.52,3.52,0,0,1-3.13,1.31Z"/><path class="cls-5" d="M470.83,140.79l.87-.87a2.85,2.85,0,0,0-.14.87,2.74,2.74,0,0,0,.14.87l.58-.29a3.12,3.12,0,0,0,0,.87,2.83,2.83,0,0,0,.29.87,1.58,1.58,0,0,0,.29-.29,1.72,1.72,0,0,0,.29-.58l.29,2a.93.93,0,0,1-.58-.15,1,1,0,0,1-.43-.72,1.75,1.75,0,0,1-.73-.58,1.7,1.7,0,0,1-.29-1,.8.8,0,0,1-.58-.43A.76.76,0,0,1,470.83,140.79Z"/><path class="cls-5" d="M479.48,140.79l-.87-.87a2.85,2.85,0,0,1,.14.87,2.74,2.74,0,0,1-.14.87l-.58-.29a3.12,3.12,0,0,1,0,.87,2.83,2.83,0,0,1-.29.87,1.58,1.58,0,0,1-.29-.29,1.72,1.72,0,0,1-.29-.58l-.29,2a.93.93,0,0,0,.58-.15,1,1,0,0,0,.43-.72,1.75,1.75,0,0,0,.73-.58,1.7,1.7,0,0,0,.29-1,.8.8,0,0,0,.58-.43A.76.76,0,0,0,479.48,140.79Z"/><path class="cls-5" d="M472.14,126.57a.88.88,0,0,1,1.59,0,26.59,26.59,0,0,0-.72,3.34,24.94,24.94,0,0,0,0,7.25,17.5,17.5,0,0,1-1.31-7.69A16.87,16.87,0,0,1,472.14,126.57Z"/><path class="cls-5" d="M478.2,126.57a.9.9,0,0,0-.91-.5,1,1,0,0,0-.69.5,24.86,24.86,0,0,1,.73,3.34,25.29,25.29,0,0,1,0,7.25,17.38,17.38,0,0,0,1.3-7.69A16.92,16.92,0,0,0,478.2,126.57Z"/><path class="cls-4" d="M477,150.36a138,138,0,0,1-.73-14.92,1.45,1.45,0,0,1-2.26.17c0,2.48.14,4.95.13,7.43s0,5,.13,7.43l1.17-2.66Z"/></g></g></svg>