<svg xmlns="http://www.w3.org/2000/svg" viewBox="0 0 1371 645"><defs><style>.cls-1{fill:#a8cce9;}.cls-2{fill:#aaa2a2;}.cls-3{fill:#dbd2d2;}.cls-4{fill:#ccbebe;}.cls-5{fill:#e5e5e5;}.cls-6{fill:none;stroke:#000;stroke-miterlimit:10;stroke-width:0.25px;}</style></defs><title>insideBackground</title><g id="Layer_2" data-name="Layer 2"><g id="Layer_1-2" data-name="Layer 1"><polygon class="cls-1" points="1325 0 1210 0 1161 0 32 0 0 0 0 644 1370 644 1370 0 1325 0"/><path class="cls-2" d="M1371,502A2838.56,2838.56,0,0,0,0,502V417a2743.4,2743.4,0,0,1,1371,0Z"/><path class="cls-3" d="M1370,645H0V473.19a5453.51,5453.51,0,0,1,1370,0Z"/><path class="cls-4" d="M1370.5,563.5a2504.42,2504.42,0,0,0-1370,0v-95a2504.21,2504.21,0,0,1,1370,0Z"/><path class="cls-5" d="M51.5,0V408.88c7.5,7.38,25.89,23.23,51.21,22.92,24.45-.31,42.2-15.53,49.71-22.92V0Z"/><path class="cls-5" d="M249.46,0V373.13c7.06,6.95,24.37,21.88,48.21,21.58,23-.29,39.72-14.62,46.79-21.58V0Z"/><path class="cls-5" d="M447,0V347.83c6.69,6.58,23.09,20.73,45.67,20.44,21.8-.27,37.63-13.84,44.33-20.44V0Z"/><path class="cls-5" d="M1218,0V408.88c7.52,7.39,25.27,22.61,49.71,22.92,25.32.31,43.71-15.54,51.21-22.92V0Z"/><path class="cls-5" d="M1026,0V374.13c7.08,7,23.78,21.29,46.79,21.58,23.84.3,41.15-14.63,48.21-21.58V0Z"/><path class="cls-5" d="M833.5,0V349.83c6.7,6.6,22.53,20.17,44.33,20.44,22.58.29,39-13.86,45.67-20.44V0Z"/><path class="cls-5" d="M639,0V342.83c6.69,6.58,23.09,20.73,45.67,20.44,21.8-.27,37.63-13.84,44.33-20.44V0Z"/><line class="cls-6" x1="64.86" y1="419.81" x2="64.86"/><line class="cls-6" x1="56.7" y1="413.64" x2="56.7"/><line class="cls-6" x1="91.57" y1="430.89" x2="91.57"/><line class="cls-6" x1="106.41" y1="431.8" x2="106.41"/><line class="cls-6" x1="119.03" y1="429.34" x2="119.03"/><line class="cls-6" x1="130.9" y1="424.61" x2="130.9"/><line class="cls-6" x1="140.55" y1="418.8" x2="140.55"/><line class="cls-6" x1="147.23" y1="413.64" x2="147.23"/><line class="cls-6" x1="76.73" y1="426.36" x2="76.73"/><line class="cls-6" x1="262.03" y1="383.43" x2="262.03"/><line class="cls-6" x1="254.35" y1="377.61" x2="254.35"/><line class="cls-6" x1="287.18" y1="393.86" x2="287.18"/><line class="cls-6" x1="301.15" y1="394.71" x2="301.15"/><line class="cls-6" x1="313.03" y1="392.39" x2="313.03"/><line class="cls-6" x1="324.2" y1="387.94" x2="324.2"/><line class="cls-6" x1="333.28" y1="382.48" x2="333.28"/><line class="cls-6" x1="339.57" y1="377.61" x2="339.57"/><line class="cls-6" x1="273.21" y1="389.59" x2="273.21"/><line class="cls-6" x1="458.87" y1="357.59" x2="458.87"/><line class="cls-6" x1="451.59" y1="352.08" x2="451.59"/><line class="cls-6" x1="482.7" y1="367.46" x2="482.7"/><line class="cls-6" x1="495.93" y1="368.28" x2="495.93"/><line class="cls-6" x1="507.18" y1="366.08" x2="507.18"/><line class="cls-6" x1="517.77" y1="361.86" x2="517.77"/><line class="cls-6" x1="526.37" y1="356.69" x2="526.37"/><line class="cls-6" x1="532.33" y1="352.08" x2="532.33"/><line class="cls-6" x1="469.46" y1="363.42" x2="469.46"/><line class="cls-6" x1="1305.6" y1="419.81" x2="1305.6"/><line class="cls-6" x1="1313.77" y1="413.64" x2="1313.77"/><line class="cls-6" x1="1278.89" y1="430.89" x2="1278.89"/><line class="cls-6" x1="1264.05" y1="431.8" x2="1264.05"/><line class="cls-6" x1="1251.44" y1="429.34" x2="1251.44"/><line class="cls-6" x1="1239.56" y1="424.61" x2="1239.56"/><line class="cls-6" x1="1229.92" y1="418.8" x2="1229.92"/><line class="cls-6" x1="1223.24" y1="413.64" x2="1223.24"/><line class="cls-6" x1="1293.73" y1="426.36" x2="1293.73"/><line class="cls-6" x1="1108.43" y1="384.43" x2="1108.43"/><line class="cls-6" x1="1116.11" y1="378.61" x2="1116.11"/><line class="cls-6" x1="1083.28" y1="394.86" x2="1083.28"/><line class="cls-6" x1="1069.31" y1="395.71" x2="1069.31"/><line class="cls-6" x1="1057.44" y1="393.39" x2="1057.44"/><line class="cls-6" x1="1046.26" y1="388.94" x2="1046.26"/><line class="cls-6" x1="1037.18" y1="383.48" x2="1037.18"/><line class="cls-6" x1="1030.89" y1="378.61" x2="1030.89"/><line class="cls-6" x1="1097.25" y1="390.59" x2="1097.25"/><line class="cls-6" x1="911.59" y1="359.59" x2="911.59"/><line class="cls-6" x1="918.87" y1="354.08" x2="918.87"/><line class="cls-6" x1="887.77" y1="369.46" x2="887.77"/><line class="cls-6" x1="874.53" y1="370.28" x2="874.53"/><line class="cls-6" x1="863.28" y1="368.08" x2="863.28"/><line class="cls-6" x1="852.69" y1="363.86" x2="852.69"/><line class="cls-6" x1="844.09" y1="358.69" x2="844.09"/><line class="cls-6" x1="838.13" y1="354.08" x2="838.13"/><line class="cls-6" x1="901" y1="365.42" x2="901"/><line class="cls-6" x1="650.87" y1="352.59" x2="650.87"/><line class="cls-6" x1="643.59" y1="347.08" x2="643.59"/><line class="cls-6" x1="674.7" y1="362.46" x2="674.7"/><line class="cls-6" x1="687.93" y1="363.28" x2="687.93"/><line class="cls-6" x1="699.18" y1="361.08" x2="699.18"/><line class="cls-6" x1="709.77" y1="356.86" x2="709.77"/><line class="cls-6" x1="718.37" y1="351.69" x2="718.37"/><line class="cls-6" x1="724.33" y1="347.08" x2="724.33"/><line class="cls-6" x1="661.46" y1="358.42" x2="661.46"/></g></g></svg>