<svg xmlns="http://www.w3.org/2000/svg" viewBox="0 0 376.92 107.86"><defs><style>.cls-1{fill:#fff;}.cls-2{fill:none;stroke:#fff;stroke-miterlimit:10;stroke-width:2px;}</style></defs><title>leo</title><g id="Layer_2" data-name="Layer 2"><g id="leo"><circle class="cls-1" cx="373.47" cy="104.4" r="3.45"/><circle class="cls-1" cx="339.26" cy="86.2" r="4.66"/><circle class="cls-1" cx="324.47" cy="73.4" r="3.45"/><circle class="cls-1" cx="259.47" cy="54.4" r="3.86"/><circle class="cls-1" cx="247.47" cy="60.4" r="6.08"/><circle class="cls-1" cx="278.07" cy="96.01" r="7.47"/><circle class="cls-1" cx="281.47" cy="83.4" r="3.45"/><circle class="cls-1" cx="103.36" cy="27.36" r="3.45"/><circle class="cls-1" cx="96.36" cy="10.36" r="4.95"/><circle class="cls-1" cx="6.36" cy="6.36" r="6.36"/><line class="cls-2" x1="96.54" y1="10.54" x2="5.54" y2="5.54"/><line class="cls-2" x1="102.54" y1="26.54" x2="96.54" y2="10.54"/><line class="cls-2" x1="6.54" y1="6.54" x2="102.54" y2="26.54"/><line class="cls-2" x1="277.54" y1="95.54" x2="102.54" y2="26.54"/><line class="cls-2" x1="281.54" y1="83.54" x2="278.54" y2="95.54"/><line class="cls-2" x1="247.54" y1="60.54" x2="281.54" y2="83.54"/><line class="cls-2" x1="259.54" y1="54.54" x2="248.54" y2="59.54"/><line class="cls-2" x1="324.54" y1="72.54" x2="259.54" y2="54.54"/><line class="cls-2" x1="339.54" y1="85.54" x2="325.54" y2="74.54"/><line class="cls-2" x1="373.54" y1="104.54" x2="338.54" y2="86.54"/><path class="cls-1" d="M144.26,61.33v-.88h6.16v.88l-2.86.33h-.44ZM147.34,74v1.21h-3.08v-.88l2.86-.33Zm-1.05-13.53h2.11c-.07,2.27-.07,4.55-.07,6.82v1.54c0,1.87,0,4.16.07,6.38h-2.11c.06-2.26.06-4.55.06-6.82v-1.1C146.35,65,146.35,62.67,146.29,60.45Zm9.13,10.61-.22,4.13h-7.86v-1.1h7.09l-1.21,1.1.88-4.13Z"/><path class="cls-1" d="M166.51,68.68a4.26,4.26,0,0,1-.16,1.23h-8.12V69h5.24c1.06,0,1.3-.51,1.3-1.12a2.44,2.44,0,0,0-2.44-2.4c-1.41,0-3,1.19-3,4.33,0,2.8,1.41,4.29,3.61,4.29A3.81,3.81,0,0,0,166,72.53l.5.4a4.47,4.47,0,0,1-4.2,2.55c-2.95,0-4.86-2-4.86-5.39s2.29-5.61,5-5.61A3.93,3.93,0,0,1,166.51,68.68Z"/><path class="cls-1" d="M168.62,70c0-3.65,2.48-5.54,5-5.54s5,1.89,5,5.54-2.53,5.46-5,5.46S168.62,73.67,168.62,70Zm8,0c0-3-1.12-4.55-3-4.55s-3,1.6-3,4.55,1.07,4.47,3,4.47S176.67,73,176.67,70Z"/></g></g></svg>