<svg xmlns="http://www.w3.org/2000/svg" viewBox="0 0 87.63 65.63"><defs><style>.cls-1{fill:#fff;}.cls-2{fill:none;stroke:#fff;stroke-miterlimit:10;stroke-width:2px;}</style></defs><title>libra</title><g id="Layer_2" data-name="Layer 2"><g id="libra"><circle class="cls-1" cx="4.32" cy="4.32" r="4.32"/><circle class="cls-1" cx="60.32" cy="10.32" r="4.32"/><circle class="cls-1" cx="83.32" cy="61.32" r="4.32"/><line class="cls-2" x1="4.63" y1="4.59" x2="59.63" y2="10.59"/><line class="cls-2" x1="83.63" y1="61.59" x2="60.63" y2="10.59"/><path class="cls-1" d="M6.77,24.6v-.88h6.16v.88l-2.86.33H9.63ZM9.85,37.25v1.21H6.77v-.88l2.86-.33Zm-1-13.53h2.11c-.07,2.26-.07,4.55-.07,6.82v1.54c0,1.87,0,4.16.07,6.38H8.8c.06-2.27.06-4.56.06-6.82v-1.1C8.86,28.23,8.86,25.94,8.8,23.72Zm9.13,10.6-.22,4.14H9.85v-1.1h7.09l-1.21,1.1.88-4.14Z"/><path class="cls-1" d="M21.36,38.46c0-1,.06-3.26.06-4.62v-1c0-1.21,0-1.89-.06-2.77l-1.81-.2v-.77l3.33-1.32.33.22-.07,3v2.91c0,1.36,0,3.63.07,4.62Zm3.39-.77v.77H19.69v-.77l2.42-.44h.44ZM20.81,23.87a1.45,1.45,0,0,1,2.9,0,1.45,1.45,0,0,1-2.9,0Z"/><path class="cls-1" d="M26.11,37.69l2.38-.44-.73,1.21c0-1,.06-3.26.06-4.62V24.16L26,23.94v-.77l3.3-1,.31.17-.09,3.13V29.7l.07.29v6.73l-.22,2-3.26-.22Zm9.11-4.36c0-2.84-1.17-4.38-2.84-4.38-.79,0-1.87.36-3.48,2l-.19-.39c1.27-1.94,2.7-2.78,4.2-2.78,2.33,0,4.18,2,4.18,5.39s-1.94,5.61-4.51,5.61c-1.34,0-2.71-.59-3.87-2.88l.19-.35a4.47,4.47,0,0,0,3.37,2C33.85,37.53,35.22,36.17,35.22,33.33Z"/><path class="cls-1" d="M40.7,33.84v-1c0-1.21,0-1.89-.07-2.77l-1.76-.2v-.77l3-1.32.33.22.26,2.75v3.13c0,1.36,0,3.63.07,4.62H40.63C40.67,37.47,40.7,35.2,40.7,33.84ZM39,37.69l2.42-.44h.44l2.42.44v.77H39Zm2.53-6.82h1.26l-.55.15c.7-2,2-3.28,3.34-3.28a1.91,1.91,0,0,1,1.57.75c0,1-.4,1.61-1.28,1.61a2,2,0,0,1-1.32-.53l-.6-.51,1.08-.22a5.3,5.3,0,0,0-2.66,3.5h-.84Z"/><path class="cls-1" d="M51.74,32.69a24.13,24.13,0,0,1,3.41-.92v.79a20.72,20.72,0,0,0-2.95.88c-2,.77-2.2,1.61-2.2,2.25,0,1.16.77,1.62,1.78,1.62.77,0,1.21-.28,2.6-1.27l.44-.33.31.46-.64.64c-1.32,1.32-2.07,1.93-3.41,1.93A2.68,2.68,0,0,1,48.13,36C48.13,34.76,48.79,33.77,51.74,32.69Zm2.53,3.74v-5c0-2.16-.62-2.69-2.07-2.69a5.18,5.18,0,0,0-2,.4l.88-.68-.57,1.89c-.2.64-.53,1-1.12,1a.89.89,0,0,1-1-.88c.41-1.67,2-2.71,4.24-2.71s3.37,1,3.37,3.81v4.66c0,1,.31,1.35.81,1.35a1.08,1.08,0,0,0,.86-.49l.44.49a2.06,2.06,0,0,1-1.87,1.12A2,2,0,0,1,54.27,36.43Z"/></g></g></svg>