<svg xmlns="http://www.w3.org/2000/svg" viewBox="0 0 61.31 44.16"><defs><style>.cls-1{fill:#fff;}.cls-2{fill:none;stroke:#fff;stroke-miterlimit:10;stroke-width:2px;}</style></defs><title>lyra</title><g id="Layer_2" data-name="Layer 2"><g id="lyra"><circle class="cls-1" cx="23.06" cy="39.86" r="4.29"/><circle class="cls-1" cx="26.06" cy="28.86" r="3.45"/><circle class="cls-1" cx="6.75" cy="9.56" r="6.75"/><circle class="cls-1" cx="6.06" cy="23.86" r="3.45"/><line class="cls-2" x1="6" y1="24.16" x2="7" y2="10.16"/><line class="cls-2" x1="23" y1="40.16" x2="6" y2="24.16"/><line class="cls-2" x1="26" y1="29.16" x2="24" y2="40.16"/><line class="cls-2" x1="7" y1="10.16" x2="25" y2="29.16"/><path class="cls-1" d="M18.54.88V0h6.17V.88l-2.87.33H21.4Zm3.08,12.65v1.21H18.54v-.88l2.86-.33ZM20.57,0h2.11c-.07,2.27-.07,4.55-.07,6.82V8.36c0,1.87,0,4.16.07,6.38H20.57c.06-2.26.06-4.55.06-6.82V6.82C20.63,4.51,20.63,2.22,20.57,0ZM29.7,10.61l-.22,4.13H21.62v-1.1h7.09l-1.21,1.1.88-4.13Z"/><path class="cls-1" d="M30,18.79a1.38,1.38,0,0,1,1.45-.92,2.18,2.18,0,0,1,1.61.81l.68.68-.86.49-.59-.49a6.39,6.39,0,0,0,2.9-3.78l.68-1.92,3.39-9.35h1.19l-3.92,10.3c-1.49,4-2.73,5.63-4.53,5.63C31,20.24,30,19.65,30,18.79ZM32.27,5.41l-2.15-.33V4.31h5.23V5.1l-2.64.31Zm3.28,10.48L31,4.31H33l3.45,9.38ZM39.29,5.41,37,5.08V4.31h4.31v.77l-1.54.33Z"/><path class="cls-1" d="M43.87,10.12v-1c0-1.21,0-1.89-.07-2.78L42,6.12V5.35L45,4l.33.22L45.63,7v3.12c0,1.37,0,3.63.06,4.62H43.8C43.84,13.75,43.87,11.49,43.87,10.12ZM42.22,14l2.42-.44h.44L47.5,14v.77H42.22Zm2.53-6.82H46l-.55.16c.7-2,2-3.28,3.34-3.28a1.9,1.9,0,0,1,1.57.74c0,1-.4,1.61-1.28,1.61a2,2,0,0,1-1.32-.53l-.59-.5,1.07-.22a5.26,5.26,0,0,0-2.66,3.5h-.83Z"/><path class="cls-1" d="M54.91,9a24.11,24.11,0,0,1,3.41-.93v.8a18.41,18.41,0,0,0-3,.88c-2,.77-2.2,1.6-2.2,2.24,0,1.17.77,1.63,1.78,1.63.77,0,1.21-.29,2.6-1.28L58,12l.31.46-.64.64C56.34,14.41,55.59,15,54.25,15a2.69,2.69,0,0,1-3-2.75C51.3,11.05,52,10.06,54.91,9Zm2.53,3.74v-5c0-2.16-.62-2.68-2.07-2.68a5.13,5.13,0,0,0-2,.39l.88-.68L53.7,6.62c-.2.64-.53,1-1.12,1a.89.89,0,0,1-1-.88C52,5.06,53.63,4,55.83,4s3.37,1,3.37,3.8V12.5c0,1,.31,1.34.82,1.34a1.09,1.09,0,0,0,.85-.48l.44.48A2,2,0,0,1,59.44,15,2,2,0,0,1,57.44,12.72Z"/></g></g></svg>