<svg xmlns="http://www.w3.org/2000/svg" viewBox="0 0 331.19 516.23"><defs><style>.cls-1{fill:#c8a67b;}.cls-2{fill:#45140f;}.cls-3{fill:#a5aeb5;}.cls-4{fill:#4d5a60;}.cls-5{fill:#e58828;}.cls-6{fill:#6d4b3a;}.cls-7{fill:#f5f6ee;}.cls-8{fill:#967659;}.cls-9{fill:#846d55;}.cls-10{fill:#332b20;}.cls-11{fill:#fff8ed;}</style></defs><title>minotaur</title><g id="Layer_2" data-name="Layer 2"><g id="Layer_1-2" data-name="Layer 1"><path class="cls-1" d="M76.73,202.93c-3.41,9.2-5.12,17.1-8,26.34-.55,1.75-2,25.09-2,27.5.37,12.67-7.31,9.51-8.42,22.13-.75,8.56.07,17.17.88,25.72.25,2.59.52,5.27,1.78,7.55,2.6,4.74.25,6.36,5.14,8.66s9.83,7.36,7.9,12.41c-.78,2-2.53,3.53-3.5,5.47s-1.09,4-2,5.81c-2.88,6.08-11.28,6.38-18,5.79L25.05,348c-2.55-.23-5.56-.77-6.62-3.09a7.37,7.37,0,0,1-.33-3.59q.73-10.2,1.48-20.4c.55-7.58,1.1-15.32-.68-22.72-1.1-4.56-3-8.88-4.35-13.39-2.29-8-2.52-16.47-5.29-24.28-1.64-4.65-4.15-8.94-6.23-13.4-1.12-2.41-1.83-4.44-2-4.85C-3.8,229.84,9.58,209.39,13.87,185a70.45,70.45,0,0,1,5-17.28,81.18,81.18,0,0,1,5.46-10.09c5.52-9,11.06-16.38,13.4-18.45a74.19,74.19,0,0,1,56.86-18l81.1-.36c20.41-10.14,44.38-8.88,67.12-7.38,8.07.54,16.26,1.09,23.85,3.86s14.65,8.1,17.57,15.64c1.64,4.23,9.41,18.11,11.67,21,3.37,4.25,4.69,9.75,5.43,15.12,1,7.17,14.7,42.72,14.55,51.58A137.37,137.37,0,0,1,299,284.23c-5.13,9.31-11.51,18.55-12.16,29.16-.36,5.87,1.09,11.69,1.31,17.57s-1.1,12.34-5.71,16c-2.54,2-5.76,2.93-8.93,3.63a94.45,94.45,0,0,1-19.4,2.24c-2.08,0-4.37-.1-5.91-1.5-2.48-2.27-1.57-6.39.09-9.31s4-5.83,3.74-9.18c-.38-5.69-7.38-8.16-13.06-8.5-2.26-.13-5.1-.57-5.69-2.76a4.75,4.75,0,0,1,0-2c2.73-17.68,18.28-32.26,17.7-50.14-.11-3.27-.77-6.49-1.16-9.74-1.13-9.38,0-18.87,1.09-28.25-9.67-6-20.34-13.54-21.57-24.85-.07,6.78-.47,10.7-5.35,15.4-1.26,1.21-4,7.94-4.2,8.35-2.16,5.08-3.14,25.62-2.6,31.1,1.59,16.23,5.18,23.3-1.12,32.67s-27.34-3.56-51.25,7.06a50.34,50.34,0,0,1-15,4.3c-6.52.77-13-1.13-19.32-3a5.19,5.19,0,0,1-2.71-1.44c-1.49-1.86.24-5.18.58-6,3-7.22,5.48,20.19-4.89,6.85,0,0-28.64-53.19-35.46-70"/><path d="M119.06,482.12a16.43,16.43,0,0,0-8.54.85c-4,1.66-6.91,5.28-8.64,9.24s-2.41,8.28-3.09,12.55a20.66,20.66,0,0,0,5.36,4.2,6.94,6.94,0,0,0,6.55,0c2.35,2.35,5.83,3.12,9.14,3.43a46.49,46.49,0,0,0,21-2.92,4.74,4.74,0,0,0,2-1.18,5,5,0,0,0,.85-1.78c2.16-7,2.91-14.65.7-21.63-.68-2.16-1.92-4.48-4.12-5a7.48,7.48,0,0,0-2.71,0l-15,1.94"/><path d="M223.27,481.27a31.9,31.9,0,0,0-7.35,2,20.36,20.36,0,0,0-9.6,9.82,42,42,0,0,0-3.58,13.48c-.16,1.28-.24,2.72.57,3.72a4.56,4.56,0,0,0,2.39,1.29,26.31,26.31,0,0,0,8,1,5.71,5.71,0,0,1,1.89.13,6,6,0,0,1,1.57.87,18.93,18.93,0,0,0,11.09,2.69,56,56,0,0,0,11.39-2l9.52-2.33c1.49-.36,3.13-.83,3.94-2.13a5.87,5.87,0,0,0,.62-3q.15-6.72-.22-13.45a20.27,20.27,0,0,0-1-6.05,7.44,7.44,0,0,0-4-4.44,11.47,11.47,0,0,0-3.55-.57l-10.24-.51"/><path class="cls-2" d="M245.13,388.22l.09-43.45c0-8.76,0-17.78-3.34-25.89a68.07,68.07,0,0,0-6-10.71c-5.34-8.26-6.94-14-11.87-23.07-.85-1.56-3.2-7.71-4.6-8.8-1.05,1.67-11.29,13.6-20,16.24a25.74,25.74,0,0,1-18.18-1.36v5l-15-8.64V293l-6.37-5.91L163,298.91l-22.74-17.28-5.9,20L128.44,293l-5,8.63-5.32,14.11L106,367.51c-4.25,18.1-8.52,36.38-8.79,55-.06,3.59.07,7.32,1.69,10.52,2.9,5.74,9.62,8.2,15.67,10.35,2.64.94,5.44,2,7.08,4.31,1.75,2.45,1.76,5.77,1,8.68s-2.26,5.57-3.32,8.38c-2.38,6.32-2.61,13.21-2.72,20a91,91,0,0,1,27.13-2l1.16-7.13a77,77,0,0,1,12.29-24.9c3.44-4.62,7.58-9.3,7.89-15.05a12.78,12.78,0,0,0-10.49-12.85c-3.79-.58-9-.18-10-3.87-.45-1.6.25-3.27.94-4.78a281.14,281.14,0,0,1,18.9-34.58,12.5,12.5,0,0,1,2.57-3.16c3.83-3,9.51-.85,14.27-1.95l1.72,6.86a308.53,308.53,0,0,0,12.6,37.06c2.54,6.17,5.37,12.38,10,17.22s11.31,8.14,17.89,7.06l1.67,4.6a31.78,31.78,0,0,1-1.13,22.94c-1.43,3.16-3.39,6.15-4,9.56s.49,7.53,3.69,8.88c1.25-4.65,7-6.56,11.79-6.11s9.4,2.44,14.21,2.41a2.41,2.41,0,0,0,1.82-.56,2.58,2.58,0,0,0,.41-1.88c-.22-4.15-.76-8.31-.54-12.46.56-10.74,6.09-20.49,11.46-29.8,2.73-4.74,5.54-10.31,3.6-15.43-1.69-4.48-6.56-7-11.27-7.83-2.26-.41-4.75-.62-6.42-2.2a8.84,8.84,0,0,1-2-3.35,44.66,44.66,0,0,1-3-13.54Z"/><path d="M324.83,346H36.15V324.59H324.83a12.15,12.15,0,0,1,0,21.37Z"/><path class="cls-1" d="M175.24,120.84c20.4-10.14,44.38-8.88,67.12-7.38,8.07.54,16.26,1.09,23.85,3.86s14.64,8.1,17.56,15.64c1.64,4.23,2,9,4.36,12.85,1.94,3.09,5.05,5.26,7.32,8.11,3.37,4.25,4.68,9.75,5.43,15.12a93,93,0,0,1,.46,21.67,6.64,6.64,0,0,0,.45,4.08c.84,1.41,2.57,1.93,4,2.64,8,3.84,9.73,14.33,9.59,23.19a137.26,137.26,0,0,1-16.92,63.61c-5.12,9.31-11.51,18.55-12.16,29.16-.36,5.87,1.1,11.69,1.32,17.57s-1.11,12.34-5.71,16c-2.54,2-5.77,2.93-8.93,3.63a94.55,94.55,0,0,1-19.41,2.24c-2.08,0-4.36-.1-5.9-1.5-2.49-2.27-1.58-6.39.08-9.31s4-5.83,3.75-9.18c-.39-5.69-7.38-8.16-13.06-8.5-2.26-.13-5.11-.57-5.7-2.76a4.91,4.91,0,0,1,0-2c2.73-17.68,18.28-32.26,17.7-50.14-.1-3.27-.76-6.49-1.15-9.74-1.13-9.38,0-18.87,1.08-28.25-9.66-6-20.34-13.54-21.56-24.85"/><path class="cls-3" d="M70.32,349.6c4.55,9.64,9.17,19.38,15.8,27.72,4.83,6.07,10.63,11.27,16.4,16.45-2.26,2.78-19.44,23.11-48.61,23.28-29.6.17-47.14-20.58-49.35-23.28,5.77-5.18,11.57-10.38,16.4-16.45,6.64-8.34,11.25-18.08,15.8-27.72Z"/><path class="cls-3" d="M67.59,320.67c4.56-9.64,9.17-19.38,15.8-27.72,4.83-6.07,10.63-11.28,16.4-16.45-2.26-2.78-19.44-23.11-48.6-23.28C21.58,253,4,273.79,1.83,276.5c5.78,5.17,11.58,10.38,16.4,16.45C24.87,301.29,29.48,311,34,320.67Z"/><path class="cls-4" d="M32.06,320.5H69.79a29.14,29.14,0,0,1,3.86,10.68c1,6.76-.6,16.72-1.59,19.32H33.88a30.53,30.53,0,0,0,2.95-17A30.21,30.21,0,0,0,32.06,320.5Z"/><path class="cls-4" d="M28.42,325.5,16.6,332.78l13.64,10a14.89,14.89,0,0,0,2.27-8.64A12.57,12.57,0,0,0,28.42,325.5Z"/><path class="cls-5" d="M30.24,342.78l3.64,7.72c1.17-2.06,4.8-7.47,4.31-14.77a26.69,26.69,0,0,0-6.13-15.23l-3.64,5a14.27,14.27,0,0,1,3.86,8.87A13.25,13.25,0,0,1,30.24,342.78Z"/><path class="cls-6" d="M136.55,20.45l4.78-.87a44.3,44.3,0,0,1,59.49,11.19c2.31,3.15,4.3,6.71,7.54,8.9a32.38,32.38,0,0,0,7.12,3C224,45.79,231.54,50.93,239,56a37,37,0,0,1-32.26,16.45c2.35,21.57,4.56,44.25-3.92,64.23-1.72,4-3.86,7.91-5.31,12.06-3.82,10.89-3.62,24.59-13.05,31.24-6.24,4.4-14.57,3.93-22.17,3.19-11.72-1.14-23.86-2.62-33.86-8.83-5.94-3.69-10.81-8.88-15.25-14.28C96.66,139.94,84.9,114.89,85.1,88.84a4.42,4.42,0,0,0-.78-3.15,4.31,4.31,0,0,0-2.75-1l-28.82-3A65.52,65.52,0,0,1,80.17,63.86a8.59,8.59,0,0,0,2.93-1.38c2.16-1.82,1.86-5.14,1.7-7.95C84,39.38,94.62,24,109.41,20.65c9.17-2.09,18.74.18,28.13-.23"/><path class="cls-7" d="M106.58,56.88a8,8,0,0,0,1.65-2,6.65,6.65,0,0,0,.61-2.45,16.27,16.27,0,0,0-4.31-12.88,12.8,12.8,0,0,0-12.89-3.29,32,32,0,0,0-5.43,2.86c-6.54,3.76-14,5.47-21.41,7.1a39.7,39.7,0,0,1-10.26,1.34,13.49,13.49,0,0,1-9.34-3.86C43,41.28,42.08,38,41.26,34.8L37.6,20.72l-1.77-3.95-1.15,6.74Q33.24,36,33,48.59c-.07,3.31-.06,6.73,1.23,9.78,1.79,4.2,5.86,7.11,10.21,8.49s9,1.42,13.57,1.25a160.58,160.58,0,0,0,35.81-5.39Z"/><path class="cls-7" d="M194.19,52.79a8.51,8.51,0,0,1-2-1.68,6.7,6.7,0,0,1-1.06-2.28,16.3,16.3,0,0,1,1.79-13.47,12.81,12.81,0,0,1,12-5.67,31.16,31.16,0,0,1,5.86,1.78c7.15,2.45,14.83,2.71,22.38,2.91a39.59,39.59,0,0,0,10.32-.62A13.51,13.51,0,0,0,252,28.2c1.72-2.78,2-6.2,2.19-9.46l.92-14.52,1-4.22,2.41,6.4q3.78,12,6.43,24.3c.7,3.24,1.34,6.6.64,9.84-1,4.46-4.4,8.09-8.41,10.27s-8.58,3.1-13.09,3.8a161.63,161.63,0,0,1-36.18,1.49Z"/><path class="cls-8" d="M202.79,138.44c0,6.6,1.5,16.09-3.6,20.95-7.25,6.92-57.55,10.61-64.68,5.65-7.57-5.27-8.88-18.37-8.88-26.6,0-5.33.34-12.51,5.43-14.61,12.72-5.24,16.26,5,30.88,5,8.22,0,15.88-12.48,25.61-12.08C199.31,117.21,202.79,128.46,202.79,138.44Z"/><path class="cls-9" d="M156.19,140a12.36,12.36,0,0,1-16,16,11.33,11.33,0,0,0,16-16Z"/><path class="cls-10" d="M157,144.43a12.35,12.35,0,0,0-.85-4.48,11.33,11.33,0,1,0-16,16A12.37,12.37,0,0,0,157,144.43Z"/><path class="cls-9" d="M190.52,138.82a13.4,13.4,0,0,1,.76,4.47c0,6.84-5,12.38-11.14,12.38a10.09,10.09,0,0,1-4-.85,9.59,9.59,0,0,0,6.81,2.91c5.64,0,10.21-5.08,10.21-11.34A12,12,0,0,0,190.52,138.82Z"/><path class="cls-10" d="M191.28,143.29a13.4,13.4,0,0,0-.76-4.47,9.74,9.74,0,0,0-7.59-3.78c-5.64,0-10.21,5.08-10.21,11.35a11.88,11.88,0,0,0,3.4,8.43,10.09,10.09,0,0,0,4,.85C186.3,155.67,191.28,150.13,191.28,143.29Z"/><path d="M106.74,84.4c1.55-.79,6.25-3.23,11.18-1.55,5.11,1.74,7.29,6.79,8,8.35-.78.61-6.65,5.06-12.47,2.46C108.44,91.43,107,85.58,106.74,84.4Z"/><path d="M199.2,83.58C197.65,82.8,193,80.36,188,82c-5.1,1.74-7.29,6.78-8,8.34.77.61,6.64,5.06,12.46,2.47C197.5,90.62,198.93,84.76,199.2,83.58Z"/><circle class="cls-11" cx="112.79" cy="86.4" r="1.63"/><circle class="cls-11" cx="193.41" cy="85.58" r="1.63"/></g></g></svg>