<svg xmlns="http://www.w3.org/2000/svg" viewBox="0 0 68.44 41.2"><defs><style>.cls-1{fill:#fbb03b;}.cls-2{fill:none;stroke:#fbb03b;stroke-miterlimit:10;stroke-width:2px;}</style></defs><title>mobAries</title><g id="Layer_2" data-name="Layer 2"><g id="aries"><circle class="cls-1" cx="19.99" cy="6.25" r="6.25"/><circle class="cls-1" cx="53.99" cy="24.25" r="4.25"/><circle class="cls-1" cx="64.99" cy="34.25" r="3.45"/><line class="cls-1" x1="19.5" y1="6.51" x2="54.5" y2="24.51"/><line class="cls-1" x1="65.5" y1="34.51" x2="54.5" y2="24.51"/><path class="cls-1" d="M0,40l2.2-.33h.44L5.06,40v.88H0Zm6.56-14H7.88l5.06,14.85h-2L6.47,27.73H7L2.49,40.91h-1ZM4,35.08H9.92l.36,1H3.63Zm4.34,5,2.77-.33h.44l2.73.33v.88H8.32Z"/><path class="cls-1" d="M17.07,36.29v-1c0-1.21,0-1.9-.06-2.78l-1.76-.19v-.77l3-1.32.33.22.26,2.75v3.12c0,1.36,0,3.63.07,4.62H17C17.05,39.92,17.07,37.65,17.07,36.29Zm-1.65,3.85,2.42-.44h.44l2.42.44v.77H15.42ZM18,33.32h1.26l-.55.15c.7-2,2-3.27,3.34-3.27a1.87,1.87,0,0,1,1.56.74c0,1-.39,1.61-1.27,1.61A2,2,0,0,1,21,32l-.6-.5,1.08-.22a5.23,5.23,0,0,0-2.66,3.49H18Z"/><path class="cls-1" d="M26.16,40.91c0-1,.06-3.26.06-4.62v-1c0-1.21,0-1.9-.06-2.78l-1.81-.19v-.77l3.33-1.32.33.22-.07,3v2.9c0,1.36,0,3.63.07,4.62Zm3.39-.77v.77H24.49v-.77l2.42-.44h.44ZM25.61,26.32a1.45,1.45,0,0,1,2.9,0,1.45,1.45,0,0,1-2.9,0Z"/><path class="cls-1" d="M40.35,34.4a4.83,4.83,0,0,1-.15,1.23H32.08v-.92h5.23c1.06,0,1.3-.51,1.3-1.13a2.43,2.43,0,0,0-2.44-2.39c-1.41,0-3,1.18-3,4.33,0,2.79,1.41,4.29,3.61,4.29a3.81,3.81,0,0,0,3.08-1.56l.51.39a4.46,4.46,0,0,1-4.2,2.56c-3,0-4.87-2.05-4.87-5.39s2.29-5.61,5-5.61A3.92,3.92,0,0,1,40.35,34.4Z"/><path class="cls-1" d="M42.59,40.36,42.5,38h1.17l.59,2.6-1.07-.51V39.3a4.14,4.14,0,0,0,2.7.91c1.7,0,2.49-.68,2.49-1.7s-.66-1.43-2.05-1.93l-1-.38c-1.61-.59-2.66-1.45-2.66-3S44,30.2,46.44,30.2a5.63,5.63,0,0,1,3.06.9l-.09,2.22h-1.1l-.44-2.22.79.35V32a3.58,3.58,0,0,0-2.24-.83c-1.36,0-2.07.59-2.07,1.51s.55,1.37,2,1.92l.66.24c2.2.81,3,1.85,3,3.21,0,1.63-1.44,3.13-4.25,3.13A6.73,6.73,0,0,1,42.59,40.36Z"/><line class="cls-2" x1="19.5" y1="5.51" x2="54.5" y2="24.51"/><line class="cls-2" x1="64.5" y1="34.51" x2="54.5" y2="24.51"/></g></g></svg>