<svg xmlns="http://www.w3.org/2000/svg" viewBox="0 0 125.07 130.89"><defs><style>.cls-1{fill:#fbb03b;}.cls-2{fill:none;stroke:#fbb03b;stroke-miterlimit:10;stroke-width:2px;}</style></defs><title>mobAquarius</title><g id="Layer_2" data-name="Layer 2"><g id="aquarius"><circle class="cls-1" cx="51.45" cy="4.27" r="4.27"/><circle class="cls-1" cx="9.45" cy="30.27" r="5.27"/><circle class="cls-1" cx="13.45" cy="50.27" r="3.45"/><circle class="cls-1" cx="3.45" cy="54.27" r="3.45"/><circle class="cls-1" cx="3.45" cy="63.27" r="3.45"/><ellipse class="cls-1" cx="53.95" cy="101.83" rx="4.77" ry="4.83"/><circle class="cls-1" cx="119.45" cy="125.27" r="5.62"/><line class="cls-2" x1="51.73" y1="3.66" x2="9.73" y2="30.66"/><line class="cls-2" x1="13.73" y1="49.66" x2="9.73" y2="30.66"/><line class="cls-2" x1="3.73" y1="54.66" x2="13.73" y2="50.66"/><line class="cls-2" x1="2.73" y1="63.66" x2="3.73" y2="55.66"/><line class="cls-2" x1="53.73" y1="101.66" x2="3.73" y2="62.66"/><line class="cls-2" x1="119.73" y1="125.66" x2="53.73" y2="101.66"/><path class="cls-1" d="M17.84,54.57l2.2-.33h.44l2.42.33v.88H17.84Zm6.55-14h1.32l5.06,14.85h-2L24.31,42.27h.5L20.32,55.45h-1Zm-2.57,9h5.94l.35,1H21.47Zm4.33,5,2.78-.33h.44l2.73.33v.88h-6Z"/><path class="cls-1" d="M37.86,54.53c1.1,0,1.89-.51,2.9-1.78l.2.57c-1,1.69-2.07,2.42-3.59,2.42-2.68,0-4.48-2.2-4.48-5.39,0-3.35,2-5.61,4.59-5.61,1.24,0,2.42.5,3.57,2.22l-.22.57c-1.28-1.23-2.16-1.58-3-1.58-1.65,0-3.08,1.34-3.08,4.35S36.08,54.53,37.86,54.53Zm3.74,5,2.49.44v.77H38.45V60l2.71-.44Zm.7,1.21H40.48c0-1.54.06-3.12.06-4.66v-2.2l-.06-.31V46.32L42,44.74l.33.22-.06,3v8.14C42.24,57.61,42.26,59.19,42.3,60.73Z"/><path class="cls-1" d="M47.91,51.56c0,2,.57,2.64,1.78,2.64a4.84,4.84,0,0,0,3.37-1.65h.46v1.12H52.4l.77-.33A5.22,5.22,0,0,1,49,55.74c-1.76,0-2.86-1.06-2.84-4L46.22,46l.46.42-2-.44v-.77l3.17-.29.22.22-.11,3.08Zm5.24,4.07-.31-2.58L52.91,46l.46.42-2-.44v-.77l3.13-.29.22.22-.07,3.08v6.58l-.53-.53,2,.44v.77Z"/><path class="cls-1" d="M61.51,49.69a24.11,24.11,0,0,1,3.41-.93v.8a18.41,18.41,0,0,0-3,.88c-2,.76-2.2,1.6-2.2,2.24,0,1.17.77,1.63,1.78,1.63.77,0,1.21-.29,2.6-1.28l.44-.33.31.46-.64.64c-1.32,1.32-2.07,1.94-3.41,1.94a2.69,2.69,0,0,1-3-2.75C57.9,51.76,58.56,50.77,61.51,49.69ZM64,53.43v-5c0-2.16-.62-2.68-2.07-2.68a5.07,5.07,0,0,0-2,.39l.88-.68-.57,1.89c-.2.64-.53,1-1.12,1a.89.89,0,0,1-1-.88c.41-1.67,2-2.7,4.24-2.7s3.37,1,3.37,3.8v4.67c0,1,.31,1.34.81,1.34a1.09,1.09,0,0,0,.86-.48l.44.48A2,2,0,0,1,66,55.67,2,2,0,0,1,64,53.43Z"/><path class="cls-1" d="M70.55,50.83v-1c0-1.21,0-1.89-.07-2.77l-1.76-.2v-.77l3-1.32.33.22.26,2.75v3.12c0,1.37,0,3.63.07,4.62h-1.9C70.53,54.46,70.55,52.2,70.55,50.83ZM68.9,54.68l2.42-.44h.44l2.42.44v.77H68.9Zm2.53-6.82h1.25l-.55.15c.71-2,2.05-3.27,3.35-3.27a1.87,1.87,0,0,1,1.56.74c0,1-.4,1.61-1.28,1.61a2,2,0,0,1-1.32-.53l-.59-.5,1.08-.22a5.2,5.2,0,0,0-2.66,3.49h-.84Z"/><path class="cls-1" d="M79.64,55.45c0-1,.06-3.25.06-4.62v-1c0-1.21,0-1.89-.06-2.77l-1.81-.2v-.77l3.32-1.32.33.22-.06,3v2.9c0,1.37,0,3.63.06,4.62ZM83,54.68v.77H78v-.77l2.42-.44h.44ZM79.09,40.86a1.45,1.45,0,0,1,2.9,0,1.45,1.45,0,0,1-2.9,0Z"/><path class="cls-1" d="M87.56,51.56c0,2,.57,2.64,1.78,2.64a4.84,4.84,0,0,0,3.36-1.65h.47v1.12H92l.77-.33a5.22,5.22,0,0,1-4.18,2.4c-1.76,0-2.86-1.06-2.84-4L85.86,46l.46.42-2-.44v-.77l3.17-.29.22.22-.11,3.08Zm5.23,4.07-.31-2.58L92.55,46l.46.42L91,46v-.77l3.12-.29.22.22-.07,3.08v6.58l-.52-.53,2,.44v.77Z"/><path class="cls-1" d="M97.67,54.9l-.08-2.4h1.16l.6,2.6-1.08-.51v-.74a4.19,4.19,0,0,0,2.71.9c1.69,0,2.48-.68,2.48-1.7s-.66-1.43-2-1.93l-1-.38c-1.6-.59-2.66-1.45-2.66-3s1.34-3,3.78-3a5.61,5.61,0,0,1,3.06.9l-.08,2.22h-1.1L103,45.64l.79.35v.57a3.62,3.62,0,0,0-2.25-.83c-1.36,0-2.07.59-2.07,1.51s.55,1.37,2,1.92l.66.24c2.2.82,3,1.85,3,3.21,0,1.63-1.43,3.13-4.25,3.13A6.73,6.73,0,0,1,97.67,54.9Z"/></g></g></svg>