<svg xmlns="http://www.w3.org/2000/svg" viewBox="0 0 112 130"><defs><style>.cls-1{fill:#fbb03b;}.cls-2{fill:none;stroke:#fbb03b;stroke-miterlimit:10;stroke-width:2px;}</style></defs><title>mobAquila</title><g id="Layer_2" data-name="Layer 2"><g id="aquila"><circle class="cls-1" cx="55" cy="58" r="4"/><circle class="cls-1" cx="4" cy="63" r="4"/><circle class="cls-1" cx="51" cy="126" r="4"/><circle class="cls-1" cx="9" cy="75" r="7"/><circle class="cls-1" cx="108" cy="54" r="4"/><circle class="cls-1" cx="14" cy="4" r="4"/><circle class="cls-1" cx="49" cy="96" r="3"/><circle class="cls-1" cx="20" cy="88" r="3"/><line class="cls-2" x1="4" y1="63" x2="9" y2="75"/><line class="cls-2" x1="20" y1="88" x2="9" y2="75"/><line class="cls-2" x1="55" y1="58" x2="9" y2="75"/><line class="cls-2" x1="49" y1="97" x2="55" y2="58"/><line class="cls-2" x1="108" y1="54" x2="55" y2="58"/><line class="cls-2" x1="51" y1="126" x2="49" y2="97"/><line class="cls-2" x1="14" y1="4" x2="55" y2="58"/><path class="cls-1" d="M37,27.37l2.2-.33h.44l2.42.33v.88H37Zm6.56-14h1.32L50,28.25h-2L43.5,15.07H44L39.52,28.25h-1Zm-2.57,9H47l.35,1H40.66Zm4.33,4.95L48.12,27h.44l2.73.33v.88H45.35Z"/><path class="cls-1" d="M57.05,27.32c1.1,0,1.9-.5,2.91-1.78l.2.57c-.95,1.7-2.07,2.42-3.59,2.42-2.68,0-4.49-2.2-4.49-5.39,0-3.34,2-5.61,4.6-5.61a4.12,4.12,0,0,1,3.56,2.22l-.22.58c-1.27-1.24-2.15-1.59-3-1.59-1.65,0-3.08,1.34-3.08,4.36S55.27,27.32,57.05,27.32Zm3.74,5,2.49.44v.77H57.65v-.77l2.7-.44Zm.71,1.21H59.67c0-1.54.07-3.13.07-4.67v-2.2l-.07-.3V19.12l1.5-1.59.33.22-.07,3v8.14C61.43,30.4,61.45,32,61.5,33.53Z"/><path class="cls-1" d="M67.11,24.35c0,2,.57,2.64,1.78,2.64a4.86,4.86,0,0,0,3.37-1.65h.46v1.13H71.6l.77-.33a5.22,5.22,0,0,1-4.18,2.39c-1.76,0-2.86-1.05-2.84-4l.06-5.81.47.42-2-.44V18L67,17.69l.22.22L67.11,21Zm5.23,4.07L72,25.85l.06-7.09.46.42-2-.44V18l3.12-.28.22.22L73.8,21v6.58L73.27,27l2,.44v.77Z"/><path class="cls-1" d="M78.52,28.25c0-1,.07-3.26.07-4.62v-1c0-1.21,0-1.89-.07-2.77l-1.8-.2v-.77L80,17.53l.33.22-.06,3v2.91c0,1.36,0,3.63.06,4.62Zm3.39-.77v.77H76.85v-.77L79.27,27h.44ZM78,13.66a1.46,1.46,0,0,1,2.91,0,1.46,1.46,0,0,1-2.91,0Z"/><path class="cls-1" d="M86.53,12l.31.17-.09,3.13v8.36c0,1.54,0,3.08.07,4.62H84.93q.06-2.31.06-4.62V14l-1.82-.22V13Zm2,15.51v.77H83.17v-.77L85.65,27h.44Z"/><path class="cls-1" d="M93.53,22.48a24.13,24.13,0,0,1,3.41-.92v.79a20.72,20.72,0,0,0-3,.88c-2,.77-2.2,1.61-2.2,2.25,0,1.16.77,1.62,1.78,1.62.77,0,1.21-.28,2.6-1.27l.44-.33.31.46-.64.64c-1.32,1.32-2.07,1.93-3.41,1.93a2.68,2.68,0,0,1-3-2.75C89.92,24.55,90.58,23.56,93.53,22.48Zm2.53,3.74v-5c0-2.16-.62-2.69-2.07-2.69a5.11,5.11,0,0,0-2,.4l.88-.68-.57,1.89c-.2.64-.53,1-1.12,1a.89.89,0,0,1-1-.88c.41-1.67,2-2.71,4.24-2.71s3.37,1,3.37,3.81V26c0,1,.31,1.35.81,1.35a1.08,1.08,0,0,0,.86-.49l.44.49a2.06,2.06,0,0,1-1.87,1.12A2,2,0,0,1,96.06,26.22Z"/></g></g></svg>