<svg xmlns="http://www.w3.org/2000/svg" viewBox="0 0 95.69 36.26"><defs><style>.cls-1{fill:#fbb03b;}.cls-2{fill:none;stroke:#fbb03b;stroke-miterlimit:10;stroke-width:2px;}</style></defs><title>mobCanisMinor</title><g id="Layer_2" data-name="Layer 2"><g id="canis_minor" data-name="canis minor"><circle class="cls-1" cx="68.88" cy="12.78" r="8.82"/><circle class="cls-1" cx="90.52" cy="22.41" r="5.18"/><line class="cls-2" x1="67.22" y1="12.59" x2="90.22" y2="22.59"/><path class="cls-1" d="M14.94,13.8V15l-1.36.3.55-3.25h1.34l-.09,3.19a9.22,9.22,0,0,1-4.44,1.05c-4.45,0-7.44-3.21-7.44-7.7A7.35,7.35,0,0,1,10.91.9,8.5,8.5,0,0,1,15.16,2l.09,3.19H13.91l-.55-3.26,1.36.31V3.54A5.16,5.16,0,0,0,11.18,2c-3,0-5.37,2.31-5.37,6.6S8,15.2,11,15.2A6.1,6.1,0,0,0,14.94,13.8Z"/><path class="cls-1" d="M21,10.21a22.86,22.86,0,0,1,3.41-.92v.79a19.5,19.5,0,0,0-2.95.88c-2,.77-2.2,1.6-2.2,2.24,0,1.17.77,1.63,1.78,1.63.77,0,1.21-.29,2.6-1.28l.44-.33.3.47-.63.63c-1.32,1.32-2.07,1.94-3.41,1.94a2.68,2.68,0,0,1-2.95-2.75C17.36,12.28,18,11.29,21,10.21ZM23.5,14v-5c0-2.15-.62-2.68-2.07-2.68a5.07,5.07,0,0,0-2,.39L20.33,6l-.57,1.89c-.2.64-.53,1-1.13,1a.91.91,0,0,1-1-.89c.42-1.67,2.05-2.7,4.25-2.7s3.37,1,3.37,3.8v4.67c0,1,.31,1.34.81,1.34a1.09,1.09,0,0,0,.86-.48l.44.48a2,2,0,0,1-1.87,1.12A2,2,0,0,1,23.5,14Z"/><path class="cls-1" d="M29.94,16c0-1,.07-3.25.07-4.62v-1c0-1.21,0-1.89-.07-2.77l-1.76-.2V6.58l3-1.32.33.22L31.77,8v3.32c0,1.37,0,3.63.06,4.62Zm3.44-.77V16H28.31V15.2l2.42-.44h.44Zm5.08-5.87v2c0,1.41,0,3.63.06,4.62H36.63c0-1,.07-3.21.07-4.62V9.51c0-2-.53-2.71-1.85-2.71a4.83,4.83,0,0,0-3.26,1.52h-.46v-1h1.12l-.94.39a6,6,0,0,1,4.35-2.46C37.56,5.26,38.46,6.42,38.46,9.33Zm-.6,5.43,2.2.44V16H35V15.2l2.42-.44Z"/><path class="cls-1" d="M43.16,16c.05-1,.07-3.25.07-4.62v-1c0-1.21,0-1.89-.07-2.77l-1.8-.2V6.58l3.32-1.32.33.22-.06,3v2.9C45,12.72,45,15,45,16Zm3.39-.77V16H41.49V15.2l2.42-.44h.44ZM42.61,1.39a1.46,1.46,0,0,1,2.91,0,1.46,1.46,0,0,1-2.91,0Z"/><path class="cls-1" d="M48.4,15.42,48.31,13h1.17l.59,2.59L49,15.12v-.75a4.21,4.21,0,0,0,2.71.9c1.69,0,2.49-.68,2.49-1.69s-.66-1.43-2-1.94l-1-.37c-1.61-.6-2.66-1.46-2.66-2.95s1.34-3.06,3.78-3.06a5.63,5.63,0,0,1,3.06.9l-.09,2.22h-1.1l-.44-2.22.79.35v.57a3.58,3.58,0,0,0-2.24-.83c-1.37,0-2.07.59-2.07,1.52s.55,1.36,2.05,1.91l.66.24c2.2.82,3,1.85,3,3.22,0,1.62-1.43,3.12-4.24,3.12A6.71,6.71,0,0,1,48.4,15.42Z"/><path class="cls-1" d="M0,21.23H2.9v1.21H2.64L0,22.11ZM0,35.09l2.31-.33h.44l2.16.33V36H0ZM2,21.23H2.9l.2,6.56V36H2Zm0,0H4l5.39,13.2H8.6l5.11-13.2h1.16L9.13,36H8.05ZM12,35.09l2.64-.33h.44l2.86.33V36H12ZM14,29.15V21.23h2c-.06,2.22-.06,4.51-.06,6.82v1.1c0,2.27,0,4.56.06,6.82H13.88C14,33.75,14,31.46,14,29.15Zm1-7.92H18v.88l-2.86.33H14.9Z"/><path class="cls-1" d="M21.41,36c0-1,.06-3.25.06-4.62v-1c0-1.21,0-1.89-.06-2.77l-1.81-.2v-.77l3.32-1.32.33.22-.06,3v2.9c0,1.37,0,3.63.06,4.62Zm3.38-.77V36H19.73V35.2l2.42-.44h.44ZM20.86,21.39a1.45,1.45,0,0,1,2.9,0,1.45,1.45,0,0,1-2.9,0Z"/><path class="cls-1" d="M28,36c0-1,.06-3.25.06-4.62v-1c0-1.21,0-1.89-.06-2.77l-1.76-.2v-.77l3-1.32.33.22L29.85,28v3.32c0,1.37,0,3.63.07,4.62Zm3.43-.77V36H26.4V35.2l2.42-.44h.44Zm5.08-5.87v2c0,1.41,0,3.63.07,4.62H34.72c0-1,.06-3.21.06-4.62V29.51c0-2.05-.53-2.71-1.84-2.71a4.8,4.8,0,0,0-3.26,1.52h-.46v-1h1.12l-.95.39a6,6,0,0,1,4.36-2.46C35.64,25.26,36.54,26.42,36.54,29.33ZM36,34.76l2.2.44V36H33.09V35.2l2.42-.44Z"/><path class="cls-1" d="M39.82,30.8c0-3.65,2.49-5.54,5-5.54s5,1.89,5,5.54-2.53,5.46-5,5.46S39.82,34.46,39.82,30.8Zm8,0c0-2.95-1.12-4.55-3-4.55s-3,1.6-3,4.55,1.08,4.47,3,4.47S47.87,33.75,47.87,30.8Z"/><path class="cls-1" d="M53.46,31.35v-1c0-1.21,0-1.89-.07-2.77l-1.76-.2v-.77l3-1.32.33.22.26,2.75v3.12c0,1.37,0,3.63.07,4.62h-1.9C53.44,35,53.46,32.72,53.46,31.35ZM51.81,35.2l2.42-.44h.44l2.42.44V36H51.81Zm2.53-6.82h1.25l-.55.16c.71-2.05,2.05-3.28,3.35-3.28A1.88,1.88,0,0,1,60,26c0,1-.4,1.6-1.28,1.6a2,2,0,0,1-1.32-.53l-.59-.5,1.08-.22a5.2,5.2,0,0,0-2.66,3.5h-.84Z"/></g></g></svg>