<svg xmlns="http://www.w3.org/2000/svg" viewBox="0 0 173.21 184.37"><defs><style>.cls-1{fill:#fbb03b;}.cls-2{fill:none;stroke:#fbb03b;stroke-miterlimit:10;stroke-width:2px;}</style></defs><title>mobDraco</title><g id="Layer_2" data-name="Layer 2"><g id="draco"><circle class="cls-1" cx="20.13" cy="16.45" r="3.45"/><circle class="cls-1" cx="51.13" cy="16.45" r="3.45"/><circle class="cls-1" cx="127.13" cy="3.45" r="3.45"/><circle class="cls-1" cx="158.13" cy="47.45" r="3.45"/><circle class="cls-1" cx="130.13" cy="68.45" r="4.06"/><circle class="cls-1" cx="86.13" cy="99.45" r="4.06"/><circle class="cls-1" cx="31.45" cy="137.92" r="3.45"/><circle class="cls-1" cx="3.45" cy="180.92" r="3.45"/><circle class="cls-1" cx="28.45" cy="171.92" r="4.94"/><circle class="cls-1" cx="116.24" cy="130.92" r="3.45"/><circle class="cls-1" cx="142.24" cy="137.92" r="5.51"/><circle class="cls-1" cx="153.75" cy="115.43" r="4"/><line class="cls-2" x1="20.39" y1="16.43" x2="51.39" y2="16.43"/><line class="cls-2" x1="127.39" y1="3.43" x2="51.39" y2="16.43"/><line class="cls-2" x1="168.39" y1="24.43" x2="127.39" y2="3.43"/><line class="cls-2" x1="158.39" y1="47.43" x2="168.39" y2="24.43"/><line class="cls-2" x1="130.39" y1="68.43" x2="158.39" y2="47.43"/><line class="cls-2" x1="85.39" y1="99.43" x2="130.39" y2="68.43"/><line class="cls-2" x1="31.39" y1="137.43" x2="85.39" y2="99.43"/><line class="cls-2" x1="3.39" y1="181.43" x2="31.39" y2="137.43"/><line class="cls-2" x1="28.39" y1="171.43" x2="3.39" y2="180.43"/><line class="cls-2" x1="116.39" y1="131.43" x2="27.39" y2="171.43"/><line class="cls-2" x1="142.39" y1="138.43" x2="117.39" y2="131.43"/><line class="cls-2" x1="153.39" y1="114.43" x2="116.39" y2="132.43"/><line class="cls-2" x1="142.39" y1="138.43" x2="153.39" y2="116.43"/><path class="cls-1" d="M93.84,23.9V23h3.08v1.21H96.7Zm3.08,12.65v1.21H93.84v-.88l2.86-.33Zm-1-6.71c0-2.27,0-4.56-.07-6.82H98c-.06,2.22-.06,4.51-.06,6.82v.83c0,2.53,0,4.82.06,7.09H95.86c.07-2.22.07-4.51.07-7.09Zm1,6.91h2.83c3.46,0,5.35-2.34,5.35-6.34,0-4.16-1.89-6.38-5.15-6.38h-3V23h3.41c4.18,0,7.08,2.59,7.08,7.39s-3.25,7.35-7.52,7.35h-3Z"/><path class="cls-1" d="M111.06,33.14v-1c0-1.21,0-1.89-.06-2.77l-1.76-.2v-.77l3-1.32.33.22.26,2.75v3.13c0,1.36,0,3.63.07,4.62H111C111,36.77,111.06,34.5,111.06,33.14ZM109.41,37l2.42-.44h.44l2.42.44v.77h-5.28Zm2.53-6.82h1.26l-.55.15c.7-2.05,2-3.28,3.34-3.28a1.88,1.88,0,0,1,1.56.75c0,1-.39,1.61-1.27,1.61a2,2,0,0,1-1.32-.53l-.6-.51,1.08-.22a5.27,5.27,0,0,0-2.66,3.5h-.84Z"/><path class="cls-1" d="M122.11,32a24.13,24.13,0,0,1,3.41-.92v.79a20.72,20.72,0,0,0-3,.88c-2,.77-2.2,1.61-2.2,2.25,0,1.16.77,1.62,1.78,1.62.77,0,1.21-.28,2.6-1.27l.44-.33.3.46-.63.64c-1.32,1.32-2.07,1.93-3.41,1.93a2.68,2.68,0,0,1-3-2.75C118.5,34.06,119.16,33.07,122.11,32Zm2.53,3.74v-5c0-2.16-.62-2.69-2.07-2.69a5.11,5.11,0,0,0-2,.4l.88-.68-.57,1.89c-.2.64-.53,1-1.13,1a.9.9,0,0,1-1-.88c.42-1.67,2-2.71,4.25-2.71s3.37,1,3.37,3.81v4.66c0,1,.3,1.35.81,1.35a1.09,1.09,0,0,0,.86-.49l.44.49A2.06,2.06,0,0,1,126.64,38,2,2,0,0,1,124.64,35.73Z"/><path class="cls-1" d="M131.43,32.37c0,2.77,1.48,4.29,3.55,4.29a3.57,3.57,0,0,0,3.08-1.72l.52.27A3.94,3.94,0,0,1,134.51,38c-3,0-4.9-2.11-4.9-5.48S132,27,134.65,27a3.77,3.77,0,0,1,3.87,2.84.91.91,0,0,1-1,.81,1.14,1.14,0,0,1-1.17-1l-.55-1.93,1,.81a4.61,4.61,0,0,0-2.11-.55C132.8,28,131.43,29.55,131.43,32.37Z"/><path class="cls-1" d="M140.37,32.59c0-3.66,2.48-5.55,5-5.55s5,1.89,5,5.55-2.53,5.45-5,5.45S140.37,36.24,140.37,32.59Zm8,0c0-3-1.12-4.56-3-4.56s-3,1.61-3,4.56,1.07,4.46,3,4.46S148.42,35.54,148.42,32.59Z"/><circle class="cls-1" cx="168.13" cy="24.45" r="5.08"/></g></g></svg>