<svg xmlns="http://www.w3.org/2000/svg" viewBox="0 0 532.77 218.88"><defs><style>.cls-1{fill:#fbb03b;}.cls-2{fill:none;stroke:#fbb03b;stroke-miterlimit:10;stroke-width:2px;}</style></defs><title>mobEridanus</title><g id="Layer_2" data-name="Layer 2"><g id="eridanus"><circle class="cls-1" cx="9.32" cy="151.99" r="9.32"/><circle class="cls-1" cx="14.17" cy="176.08" r="3.45"/><circle class="cls-1" cx="42.17" cy="168.08" r="3.45"/><circle class="cls-1" cx="53.17" cy="177.08" r="3.45"/><circle class="cls-1" cx="80.17" cy="194.08" r="4.24"/><circle class="cls-1" cx="115.17" cy="180.08" r="4.24"/><circle class="cls-1" cx="147.17" cy="155.08" r="3.24"/><circle class="cls-1" cx="215.77" cy="137.55" r="3.45"/><circle class="cls-1" cx="223.77" cy="139.55" r="3.45"/><circle class="cls-1" cx="283.48" cy="109.2" r="3.45"/><circle class="cls-1" cx="291.48" cy="101.2" r="3.45"/><circle class="cls-1" cx="325.67" cy="89.2" r="5.1"/><circle class="cls-1" cx="291.32" cy="146.23" r="3.45"/><circle class="cls-1" cx="276.32" cy="161.23" r="3.45"/><circle class="cls-1" cx="243.32" cy="179.23" r="3.45"/><circle class="cls-1" cx="184.94" cy="215.43" r="3.45"/><circle class="cls-1" cx="190.94" cy="197.43" r="3.45"/><circle class="cls-1" cx="298.83" cy="195.76" r="3.45"/><circle class="cls-1" cx="369.2" cy="150.4" r="3.45"/><circle class="cls-1" cx="371.2" cy="137.4" r="3.45"/><circle class="cls-1" cx="384.43" cy="137.63" r="3.68"/><circle class="cls-1" cx="382.43" cy="123.63" r="5.34"/><circle class="cls-1" cx="453.41" cy="88.03" r="3.45"/><circle class="cls-1" cx="528.3" cy="4.47" r="4.47"/><circle class="cls-1" cx="513.28" cy="26.49" r="3.45"/><circle class="cls-1" cx="521.28" cy="32.49" r="3.45"/><circle class="cls-1" cx="511.28" cy="46.49" r="3.45"/><circle class="cls-1" cx="435.45" cy="66.4" r="3.45"/><line class="cls-2" x1="8.77" y1="152.31" x2="14.77" y2="176.31"/><line class="cls-2" x1="42.77" y1="168.31" x2="13.77" y2="176.31"/><line class="cls-2" x1="53.77" y1="177.31" x2="42.77" y2="168.31"/><line class="cls-2" x1="79.77" y1="194.31" x2="54.77" y2="177.31"/><line class="cls-2" x1="115.77" y1="180.31" x2="80.77" y2="194.31"/><line class="cls-2" x1="147.77" y1="155.31" x2="115.77" y2="180.31"/><line class="cls-2" x1="215.77" y1="137.31" x2="147.77" y2="155.31"/><line class="cls-2" x1="223.77" y1="139.31" x2="216.77" y2="137.31"/><line class="cls-2" x1="283.77" y1="109.31" x2="223.77" y2="139.31"/><line class="cls-2" x1="290.77" y1="101.31" x2="282.77" y2="109.31"/><line class="cls-2" x1="325.77" y1="88.31" x2="291.77" y2="101.31"/><line class="cls-2" x1="291.77" y1="146.31" x2="325.77" y2="89.31"/><line class="cls-2" x1="275.77" y1="161.31" x2="291.77" y2="146.31"/><line class="cls-2" x1="242.77" y1="180.31" x2="275.77" y2="161.31"/><line class="cls-2" x1="190.77" y1="198.31" x2="242.77" y2="180.31"/><line class="cls-2" x1="184.77" y1="216.31" x2="190.77" y2="198.31"/><line class="cls-2" x1="298.77" y1="196.31" x2="184.77" y2="216.31"/><line class="cls-2" x1="368.77" y1="151.31" x2="298.77" y2="196.31"/><line class="cls-2" x1="384.77" y1="138.31" x2="368.77" y2="151.31"/><line class="cls-2" x1="370.77" y1="137.31" x2="384.77" y2="137.31"/><line class="cls-2" x1="382.77" y1="123.31" x2="371.77" y2="137.31"/><line class="cls-2" x1="453.77" y1="88.31" x2="382.77" y2="123.31"/><line class="cls-2" x1="511.77" y1="46.31" x2="452.77" y2="88.31"/><line class="cls-2" x1="520.77" y1="33.31" x2="511.77" y2="46.31"/><line class="cls-2" x1="513.77" y1="26.31" x2="520.77" y2="32.31"/><line class="cls-2" x1="527.77" y1="4.31" x2="513.77" y2="25.31"/><line class="cls-2" x1="435.77" y1="66.31" x2="527.77" y2="4.31"/><path class="cls-1" d="M164.59,156.06v-.88h3.08v1.21h-.22Zm3.08,12.65v1.21h-3.08V169l2.86-.33Zm-1-6.71c0-2.27,0-4.56-.06-6.82h2.11c-.07,2.22-.07,4.51-.07,6.82v.83c0,2.53,0,4.82.07,7.09h-2.11c.06-2.23.06-4.51.06-6.82Zm7.09-6.82,1,1.1h-7.09v-1.1h7.86l.15,3.91h-1.23Zm-1.13,7.72h-5v-1h5Zm3.48,3.1-.15,3.92h-8.3v-1.1h7.53l-1,1.1.68-3.92Zm-4.18-3.89.33-2.34h1V165h-1l-.33-2.44Z"/><path class="cls-1" d="M179.49,165.3v-1c0-1.21,0-1.89-.07-2.77l-1.76-.2v-.77l3-1.32.33.22.27,2.75v3.13c0,1.36,0,3.63.06,4.62h-1.89C179.46,168.93,179.49,166.66,179.49,165.3Zm-1.65,3.85,2.42-.44h.44l2.42.44v.77h-5.28Zm2.53-6.82h1.25l-.55.15c.7-2,2.05-3.28,3.35-3.28A1.91,1.91,0,0,1,186,160c0,1-.4,1.61-1.28,1.61a2,2,0,0,1-1.32-.53l-.59-.51,1.07-.22a5.3,5.3,0,0,0-2.66,3.5h-.83Z"/><path class="cls-1" d="M188.57,169.92c.05-1,.07-3.26.07-4.62v-1c0-1.21,0-1.89-.07-2.77l-1.8-.2v-.77l3.32-1.32.33.22-.07,3v2.91c0,1.36,0,3.63.07,4.62Zm3.39-.77v.77H186.9v-.77l2.42-.44h.44ZM188,155.33a1.46,1.46,0,0,1,2.91,0,1.46,1.46,0,0,1-2.91,0Z"/><path class="cls-1" d="M198.65,169c1.12,0,1.89-.48,2.9-1.78l.2.6a3.91,3.91,0,0,1-3.59,2.39c-2.68,0-4.49-2.22-4.49-5.41,0-3.34,2-5.59,4.69-5.59,1.26,0,2.33.51,3.48,2.22l-.22.58c-1.28-1.24-2.16-1.59-3-1.59-1.65,0-3.08,1.32-3.08,4.34S196.87,169,198.65,169Zm6.11.16v.77l-3.36.22-.22-2.25v-6.44l.06-.29v-5.54l-1.89-.22v-.77l3.37-1,.31.17-.09,3.13v13l-.35-1.12Z"/><path class="cls-1" d="M209.49,164.15a24.5,24.5,0,0,1,3.41-.92V164a20.56,20.56,0,0,0-2.94.88c-2,.77-2.2,1.61-2.2,2.25,0,1.16.77,1.62,1.78,1.62.77,0,1.21-.28,2.59-1.27l.44-.33.31.46-.64.64c-1.32,1.32-2.06,1.93-3.41,1.93a2.69,2.69,0,0,1-3-2.75C205.88,166.22,206.55,165.23,209.49,164.15Zm2.53,3.74v-5c0-2.16-.61-2.69-2.06-2.69a5.11,5.11,0,0,0-2,.4l.88-.68-.58,1.89c-.19.64-.52,1-1.12,1a.9.9,0,0,1-1-.88c.42-1.67,2.05-2.71,4.25-2.71s3.36,1,3.36,3.81v4.66c0,1,.31,1.35.82,1.35a1.09,1.09,0,0,0,.86-.49l.44.49a2.07,2.07,0,0,1-1.87,1.12A2,2,0,0,1,212,167.89Z"/><path class="cls-1" d="M218.47,169.92c0-1,.07-3.26.07-4.62v-1c0-1.21,0-1.89-.07-2.77l-1.76-.2v-.77l3-1.32.33.22.27,2.55v3.33c0,1.36,0,3.63.06,4.62Zm3.43-.77v.77h-5.06v-.77l2.42-.44h.44Zm5.09-5.88v2c0,1.4,0,3.63.06,4.62h-1.89c0-1,.06-3.22.06-4.62v-1.85c0-2-.52-2.71-1.84-2.71a4.82,4.82,0,0,0-3.26,1.52h-.46v-1h1.12l-.95.4a6,6,0,0,1,4.36-2.47C226.08,159.2,227,160.37,227,163.27Zm-.6,5.44,2.2.44v.77h-5.06v-.77l2.42-.44Z"/><path class="cls-1" d="M233,166c0,2,.57,2.64,1.78,2.64a4.86,4.86,0,0,0,3.37-1.65h.46v1.13h-1.12l.77-.33a5.22,5.22,0,0,1-4.18,2.39c-1.76,0-2.86-1-2.84-4l.06-5.81.47.42-2.05-.44v-.77l3.17-.28.22.22-.11,3.08Zm5.24,4.07-.31-2.57.06-7.09.46.42-2-.44v-.77l3.12-.28.22.22-.06,3.08v6.58l-.53-.53,2.05.44v.77Z"/><path class="cls-1" d="M243.09,169.37,243,167h1.17l.59,2.6-1.08-.51v-.75a4.16,4.16,0,0,0,2.71.9c1.69,0,2.48-.68,2.48-1.69s-.66-1.43-2-1.94l-1-.37c-1.61-.6-2.67-1.45-2.67-3s1.35-3.06,3.79-3.06a5.63,5.63,0,0,1,3.06.9l-.09,2.23h-1.1l-.44-2.23.79.36V161a3.59,3.59,0,0,0-2.24-.84c-1.37,0-2.07.6-2.07,1.52s.55,1.36,2,1.91l.66.25c2.21.81,3,1.85,3,3.21,0,1.63-1.43,3.12-4.25,3.12A6.69,6.69,0,0,1,243.09,169.37Z"/></g></g></svg>