<svg xmlns="http://www.w3.org/2000/svg" viewBox="0 0 130.04 130.57"><defs><style>.cls-1{fill:#fbb03b;}.cls-2{fill:none;stroke:#fbb03b;stroke-miterlimit:10;stroke-width:2px;}</style></defs><title>mobOrion</title><g id="Layer_2" data-name="Layer 2"><g id="orion"><circle class="cls-1" cx="53.34" cy="92.55" r="3.45"/><circle class="cls-1" cx="60.34" cy="64.88" r="5.88"/><circle class="cls-1" cx="64.34" cy="69.88" r="5.88"/><circle class="cls-1" cx="69.34" cy="72.88" r="5.88"/><circle class="cls-1" cx="19.34" cy="72.88" r="4.69"/><circle class="cls-1" cx="102.34" cy="61.88" r="4.69"/><circle class="cls-1" cx="125.34" cy="35.88" r="4.69"/><circle class="cls-1" cx="112.34" cy="9.88" r="9.88"/><line class="cls-2" x1="9.04" y1="123.76" x2="19.04" y2="73.76"/><line class="cls-2" x1="60.04" y1="64.76" x2="19.04" y2="73.76"/><line class="cls-2" x1="112.04" y1="9.76" x2="60.04" y2="64.76"/><line class="cls-2" x1="125.04" y1="35.76" x2="112.04" y2="8.76"/><line class="cls-2" x1="103.04" y1="61.76" x2="125.04" y2="35.76"/><line class="cls-2" x1="70.04" y1="72.76" x2="103.04" y2="61.76"/><line class="cls-2" x1="53.04" y1="92.76" x2="70.04" y2="72.76"/><line class="cls-2" x1="9.04" y1="123.76" x2="53.04" y2="92.76"/><path class="cls-1" d="M23.67,43.12c0,4.82-3.3,7.7-6.71,7.7s-6.73-2.68-6.73-7.7c0-4.82,3.34-7.7,6.73-7.7S23.67,38.1,23.67,43.12ZM17,49.72c3.1,0,4.4-3.3,4.4-6.6s-1.3-6.6-4.4-6.6-4.42,3.3-4.42,6.6S13.86,49.72,17,49.72Z"/><path class="cls-1" d="M27.32,45.87v-1c0-1.21,0-1.9-.07-2.78l-1.76-.19v-.78l3-1.32.33.23.26,2.75v3.12c0,1.36,0,3.63.07,4.62h-1.9C27.3,49.5,27.32,47.23,27.32,45.87Zm-1.65,3.85,2.42-.44h.44l2.42.44v.77H25.67ZM28.2,42.9h1.25l-.55.15c.71-2,2.05-3.28,3.35-3.28a1.88,1.88,0,0,1,1.56.75c0,1-.4,1.61-1.28,1.61a2,2,0,0,1-1.32-.53l-.59-.51,1.08-.21A5.2,5.2,0,0,0,29,44.37H28.2Z"/><path class="cls-1" d="M36.41,50.49c0-1,.06-3.26.06-4.62v-1c0-1.21,0-1.9-.06-2.78l-1.81-.19v-.78l3.32-1.32.33.23-.06,3v2.91c0,1.36,0,3.63.06,4.62Zm3.38-.77v.77H34.73v-.77l2.42-.44h.44ZM35.86,35.9a1.45,1.45,0,0,1,2.9,0,1.45,1.45,0,0,1-2.9,0Z"/><path class="cls-1" d="M41.51,45.32c0-3.65,2.48-5.55,5-5.55s5,1.9,5,5.55-2.53,5.46-5,5.46S41.51,49,41.51,45.32Zm8.05,0c0-3-1.12-4.56-3-4.56s-3,1.61-3,4.56,1.08,4.47,3,4.47S49.56,48.27,49.56,45.32Z"/><path class="cls-1" d="M55.08,50.49c.05-1,.07-3.26.07-4.62v-1c0-1.21,0-1.9-.07-2.78l-1.76-.19v-.78l3-1.32.33.23.26,2.55v3.32c0,1.36,0,3.63.07,4.62Zm3.44-.77v.77H53.46v-.77l2.42-.44h.44Zm5.08-5.87v2c0,1.41,0,3.63.06,4.62H61.77c0-1,.07-3.21.07-4.62V44c0-2.05-.53-2.71-1.85-2.71a4.88,4.88,0,0,0-3.26,1.52h-.46v-1h1.12l-.94.4a5.94,5.94,0,0,1,4.35-2.47C62.7,39.77,63.6,40.94,63.6,43.85ZM63,49.28l2.2.44v.77H60.14v-.77l2.42-.44Z"/><circle class="cls-1" cx="9.02" cy="121.55" r="9.02"/></g></g></svg>