<svg xmlns="http://www.w3.org/2000/svg" viewBox="0 0 106.27 127.15"><defs><style>.cls-1{fill:#fbb03b;}.cls-2{fill:none;stroke:#fbb03b;stroke-miterlimit:10;stroke-width:2px;}</style></defs><title>mobTaurusRight</title><g id="Layer_2" data-name="Layer 2"><g id="taurus"><circle class="cls-1" cx="67.97" cy="119.57" r="7.58"/><circle class="cls-1" cx="102.2" cy="4.08" r="4.08"/><line class="cls-2" x1="67.61" y1="119.15" x2="102.61" y2="3.15"/><path class="cls-1" d="M1,95.57l1-1.1-.71,3.92H0l.18-3.92h12l.18,3.92H11.13l-.7-3.92,1,1.1ZM6.4,108l3.08.33v.88H2.88v-.88L6,108Zm-1.21-6.71c0-2.27,0-4.56-.06-6.82H7.24c-.07,2.22-.07,4.51-.07,6.82v1.1c0,2.27,0,4.55.07,6.82H5.13c.06-2.22.06-4.51.06-6.82Z"/><path class="cls-1" d="M16.54,103.45a24.26,24.26,0,0,1,3.42-.93v.79a20.34,20.34,0,0,0-2.95.88c-2,.77-2.2,1.61-2.2,2.25,0,1.16.77,1.63,1.78,1.63.77,0,1.21-.29,2.59-1.28l.45-.33.3.46-.64.64c-1.32,1.32-2.06,1.94-3.41,1.94a2.68,2.68,0,0,1-2.94-2.75C12.94,105.51,13.6,104.52,16.54,103.45Zm2.54,3.74v-5c0-2.16-.62-2.69-2.07-2.69a5.11,5.11,0,0,0-2,.4l.88-.68-.58,1.89c-.19.64-.52,1-1.12,1a.9.9,0,0,1-1-.88c.42-1.67,2-2.71,4.25-2.71s3.36,1,3.36,3.81V107c0,1,.31,1.34.82,1.34a1.09,1.09,0,0,0,.86-.49l.44.49a2.06,2.06,0,0,1-1.87,1.12A2,2,0,0,1,19.08,107.19Z"/><path class="cls-1" d="M26.93,105.32c0,2,.57,2.64,1.78,2.64a4.86,4.86,0,0,0,3.37-1.65h.46v1.12H31.42l.77-.33A5.23,5.23,0,0,1,28,109.5c-1.76,0-2.86-1.06-2.84-4l.06-5.81.47.42-2.05-.44v-.77l3.17-.29.22.22L26.93,102Zm5.24,4.07-.31-2.58.06-7.08.46.42-2-.44v-.77l3.12-.29.22.22L33.62,102v6.58l-.53-.53,2,.44v.77Z"/><path class="cls-1" d="M38.5,104.59v-1c0-1.21,0-1.9-.07-2.78l-1.76-.19v-.78l3-1.32.33.23.26,2.75v3.12c0,1.36,0,3.63.07,4.62h-1.9C38.48,108.22,38.5,106,38.5,104.59Zm-1.65,3.85,2.42-.44h.44l2.42.44v.77H36.85Zm2.53-6.82h1.25l-.55.15c.71-2,2.05-3.28,3.35-3.28a1.88,1.88,0,0,1,1.56.75c0,1-.4,1.61-1.28,1.61a2,2,0,0,1-1.32-.53l-.59-.51,1.08-.21a5.2,5.2,0,0,0-2.66,3.49h-.84Z"/><path class="cls-1" d="M49,105.32c0,2,.57,2.64,1.78,2.64a4.84,4.84,0,0,0,3.37-1.65h.46v1.12H53.46l.77-.33a5.22,5.22,0,0,1-4.18,2.4c-1.76,0-2.86-1.06-2.84-4l.07-5.81.46.42-2.05-.44v-.77l3.17-.29.22.22L49,102Zm5.24,4.07-.31-2.58L54,99.73l.46.42-2-.44v-.77l3.13-.29.22.22L55.66,102v6.58l-.53-.53,2,.44v.77Z"/><path class="cls-1" d="M59.09,108.66l-.09-2.4h1.17l.59,2.6-1.08-.51v-.75a4.18,4.18,0,0,0,2.71.91c1.69,0,2.49-.69,2.49-1.7s-.66-1.43-2-1.93l-1-.38c-1.61-.59-2.66-1.45-2.66-3s1.34-3.06,3.78-3.06A5.56,5.56,0,0,1,66,99.4l-.09,2.22h-1.1l-.44-2.22.79.35v.57a3.59,3.59,0,0,0-2.24-.84c-1.37,0-2.07.6-2.07,1.52s.55,1.37,2,1.92l.66.24c2.2.81,3,1.85,3,3.21,0,1.63-1.43,3.13-4.24,3.13A6.73,6.73,0,0,1,59.09,108.66Z"/></g></g></svg>