<svg xmlns="http://www.w3.org/2000/svg" viewBox="0 0 427.64 162.42"><defs><style>.cls-1{fill:#fbb03b;}.cls-2{fill:none;stroke:#fbb03b;stroke-miterlimit:10;stroke-width:2px;}</style></defs><title>mobUrsaMajor</title><g id="Layer_2" data-name="Layer 2"><g id="ursa_major" data-name="ursa major"><circle class="cls-1" cx="6.36" cy="113.06" r="4.36"/><circle class="cls-1" cx="71.36" cy="90.06" r="4.36"/><circle class="cls-1" cx="4.36" cy="158.06" r="4.36"/><circle class="cls-1" cx="98.39" cy="99.06" r="3.45"/><circle class="cls-1" cx="207.27" cy="54.02" r="5.38"/><circle class="cls-1" cx="298.27" cy="28.02" r="5.38"/><circle class="cls-1" cx="335.27" cy="41.02" r="5.38"/><circle class="cls-1" cx="358.27" cy="45.02" r="5.38"/><circle class="cls-1" cx="422.27" cy="32.02" r="5.38"/><circle class="cls-1" cx="294.27" cy="44.02" r="4.02"/><circle class="cls-1" cx="285.27" cy="4.02" r="4.02"/><circle class="cls-1" cx="175.27" cy="23.02" r="4.02"/><circle class="cls-1" cx="163.27" cy="31.02" r="4.02"/><circle class="cls-1" cx="184.12" cy="75.83" r="5.96"/><line class="cls-2" x1="6.81" y1="113.42" x2="71.81" y2="90.42"/><line class="cls-2" x1="4.81" y1="158.42" x2="98.81" y2="99.42"/><line class="cls-2" x1="71.81" y1="90.42" x2="97.81" y2="99.42"/><line class="cls-2" x1="206.81" y1="54.42" x2="98.81" y2="99.42"/><line class="cls-2" x1="185.81" y1="76.42" x2="206.81" y2="54.42"/><line class="cls-2" x1="293.81" y1="44.42" x2="183.81" y2="75.42"/><line class="cls-2" x1="297.81" y1="28.42" x2="293.81" y2="44.42"/><line class="cls-2" x1="206.81" y1="54.42" x2="297.81" y2="28.42"/><line class="cls-2" x1="284.81" y1="4.42" x2="297.81" y2="28.42"/><line class="cls-2" x1="174.81" y1="23.42" x2="284.81" y2="2.42"/><line class="cls-2" x1="162.81" y1="31.42" x2="284.81" y2="4.42"/><line class="cls-2" x1="293.81" y1="44.42" x2="336.81" y2="41.42"/><line class="cls-2" x1="357.81" y1="45.42" x2="334.81" y2="41.42"/><line class="cls-2" x1="421.81" y1="31.42" x2="357.81" y2="45.42"/><path class="cls-1" d="M307.43,10.06V9.18h6.16v.88l-2.86.33h-.44ZM315,22.71c2.53,0,3.81-1.43,3.81-5.37V9.18h1.1v8.73c0,4.62-2.25,6.34-5.22,6.34-3.19,0-5.34-1.78-5.34-5.88V16c0-2.27,0-4.56-.07-6.82h2.11c-.06,2.22-.06,4.51-.06,6.82v1.73C311.28,21.52,312.71,22.71,315,22.71Zm4-12.32-2.42-.33V9.18h5.28v.88l-2.42.33Z"/><path class="cls-1" d="M324.48,19.3v-1c0-1.21,0-1.89-.07-2.77l-1.76-.2v-.77l3-1.32.33.22.27,2.75V19.3c0,1.36,0,3.63.06,4.62h-1.89C324.45,22.93,324.48,20.66,324.48,19.3Zm-1.65,3.85,2.42-.44h.44l2.42.44v.77h-5.28Zm2.53-6.82h1.25l-.55.15c.71-2.05,2.05-3.28,3.35-3.28A1.91,1.91,0,0,1,331,14c0,1-.4,1.61-1.28,1.61a2,2,0,0,1-1.32-.53l-.59-.51,1.08-.22a5.28,5.28,0,0,0-2.67,3.5h-.83Z"/><path class="cls-1" d="M332,23.37,332,21h1.16l.6,2.6-1.08-.51v-.75a4.16,4.16,0,0,0,2.71.9c1.69,0,2.48-.68,2.48-1.69s-.66-1.43-2-1.94l-1-.37c-1.6-.6-2.66-1.45-2.66-2.95s1.34-3.06,3.79-3.06a5.6,5.6,0,0,1,3.05.9l-.08,2.23h-1.1l-.44-2.23.79.36V15a3.62,3.62,0,0,0-2.25-.84c-1.36,0-2.06.6-2.06,1.52s.55,1.36,2,1.91l.66.25c2.2.81,3,1.85,3,3.21,0,1.63-1.43,3.12-4.25,3.12A6.72,6.72,0,0,1,332,23.37Z"/><path class="cls-1" d="M345.05,18.15a24.13,24.13,0,0,1,3.41-.92V18a20.72,20.72,0,0,0-2.95.88c-2,.77-2.2,1.61-2.2,2.25,0,1.16.77,1.62,1.78,1.62.77,0,1.21-.28,2.6-1.27l.44-.33.31.46-.64.64c-1.32,1.32-2.07,1.93-3.41,1.93a2.68,2.68,0,0,1-2.95-2.75C341.44,20.22,342.1,19.23,345.05,18.15Zm2.53,3.74v-5c0-2.16-.62-2.69-2.07-2.69a5.11,5.11,0,0,0-2,.4l.88-.68-.57,1.89c-.2.64-.53,1-1.12,1a.91.91,0,0,1-1-.88c.42-1.67,2-2.71,4.25-2.71s3.37,1,3.37,3.81v4.66c0,1,.31,1.35.81,1.35a1.08,1.08,0,0,0,.86-.49l.44.49a2.06,2.06,0,0,1-1.87,1.12A2,2,0,0,1,347.58,21.89Z"/><path class="cls-1" d="M357.63,9.18h2.9v1.21h-.26l-2.64-.33Zm0,13.86,2.31-.33h.44l2.16.33v.88h-4.91Zm2-13.86h.92l.2,6.55v8.19h-1.12Zm0,0h2L367,22.38h-.75l5.11-13.2h1.16l-5.74,14.74h-1.08Zm10,13.86,2.64-.33h.44l2.86.33v.88h-5.94Zm1.91-5.94V9.18h2c-.06,2.22-.06,4.51-.06,6.82v1.1c0,2.26,0,4.55.06,6.82h-2.07C371.58,21.7,371.58,19.41,371.58,17.1Zm.95-7.92h3.08v.88l-2.86.33h-.22Z"/><path class="cls-1" d="M380.77,18.15a24.65,24.65,0,0,1,3.42-.92V18a20.72,20.72,0,0,0-2.95.88c-2,.77-2.2,1.61-2.2,2.25,0,1.16.77,1.62,1.78,1.62.77,0,1.21-.28,2.6-1.27l.44-.33.3.46-.63.64c-1.33,1.32-2.07,1.93-3.42,1.93a2.68,2.68,0,0,1-2.94-2.75C377.17,20.22,377.83,19.23,380.77,18.15Zm2.54,3.74v-5c0-2.16-.62-2.69-2.07-2.69a5.11,5.11,0,0,0-2,.4l.88-.68-.58,1.89c-.19.64-.52,1-1.12,1a.9.9,0,0,1-1-.88c.42-1.67,2.05-2.71,4.25-2.71s3.37,1,3.37,3.81v4.66c0,1,.3,1.35.81,1.35a1.09,1.09,0,0,0,.86-.49l.44.49a2.06,2.06,0,0,1-1.87,1.12A2,2,0,0,1,383.31,21.89Z"/><path class="cls-1" d="M389.82,18.26c0-1.21,0-1.89-.07-2.77l-1.76-.2v-.77l3.23-1.32.33.22-.06,3v5.26c0,3.65-.13,5.28-1.3,6.54a3.38,3.38,0,0,1-2.73,1.23c-1.32,0-1.91-.68-1.91-1.26a1.23,1.23,0,0,1,1.27-.85,2.75,2.75,0,0,1,1.63.63l1,.71L386.6,29v-.86a1.78,1.78,0,0,0,1.28.51,1.34,1.34,0,0,0,1.45-1c.35-.92.49-2.68.49-6.07Zm-.6-8.93a1.46,1.46,0,0,1,2.91,0,1.46,1.46,0,0,1-2.91,0Z"/><path class="cls-1" d="M394.39,18.75c0-3.66,2.49-5.55,5-5.55s5,1.89,5,5.55-2.54,5.45-5,5.45S394.39,22.4,394.39,18.75Zm8.06,0c0-2.95-1.13-4.56-3-4.56s-3,1.61-3,4.56,1.08,4.46,3,4.46S402.45,21.7,402.45,18.75Z"/><path class="cls-1" d="M408,19.3v-1c0-1.21,0-1.89-.06-2.77l-1.76-.2v-.77l3-1.32.33.22.26,2.75V19.3c0,1.36,0,3.63.07,4.62H408C408,22.93,408,20.66,408,19.3Zm-1.65,3.85,2.42-.44h.44l2.42.44v.77h-5.28Zm2.53-6.82h1.26l-.55.15c.7-2.05,2-3.28,3.34-3.28a1.88,1.88,0,0,1,1.56.75c0,1-.39,1.61-1.27,1.61a2,2,0,0,1-1.32-.53l-.6-.51,1.08-.22a5.27,5.27,0,0,0-2.66,3.5h-.84Z"/></g></g></svg>