<svg xmlns="http://www.w3.org/2000/svg" viewBox="0 0 225.15 140.75"><defs><style>.cls-1{fill:#fbb03b;}.cls-2{fill:none;stroke:#fbb03b;stroke-miterlimit:10;stroke-width:2px;}</style></defs><title>mobVirgo</title><g id="Layer_2" data-name="Layer 2"><g id="virgo"><circle class="cls-1" cx="159.69" cy="14.53" r="3.45"/><circle class="cls-1" cx="221.69" cy="51.53" r="3.45"/><circle class="cls-1" cx="174.69" cy="54.53" r="3.45"/><circle class="cls-1" cx="141.86" cy="58.81" r="4.81"/><circle class="cls-1" cx="60.86" cy="68.81" r="4.81"/><circle class="cls-1" cx="120.86" cy="114.81" r="7.05"/><circle class="cls-1" cx="94.86" cy="37.81" r="4.81"/><circle class="cls-1" cx="41.86" cy="4.81" r="4.81"/><circle class="cls-1" cx="57.45" cy="133.3" r="3.45"/><circle class="cls-1" cx="36.45" cy="117.3" r="3.45"/><circle class="cls-1" cx="15.45" cy="75.3" r="3.45"/><circle class="cls-1" cx="3.45" cy="137.3" r="3.45"/><line class="cls-2" x1="41.71" y1="5.29" x2="94.71" y2="38.29"/><line class="cls-2" x1="141.71" y1="58.29" x2="93.71" y2="38.29"/><line class="cls-2" x1="15.71" y1="75.29" x2="60.71" y2="68.29"/><line class="cls-2" x1="121.71" y1="115.29" x2="60.71" y2="69.29"/><line class="cls-2" x1="3.71" y1="137.29" x2="36.71" y2="117.29"/><line class="cls-2" x1="57.71" y1="133.29" x2="36.71" y2="117.29"/><line class="cls-2" x1="120.71" y1="114.29" x2="57.71" y2="133.29"/><line class="cls-2" x1="141.71" y1="58.29" x2="120.71" y2="114.29"/><line class="cls-2" x1="174.71" y1="54.29" x2="141.71" y2="58.29"/><line class="cls-2" x1="221.71" y1="52.29" x2="174.71" y2="54.29"/><line class="cls-2" x1="159.71" y1="14.29" x2="220.71" y2="51.29"/><path class="cls-1" d="M78.37,58.81l-2.86-.33V57.6h5.94v1l-2.64.22ZM76.81,57.6h2.11l4.4,12.49h-.46L87.08,57.6h1.19l-5,14.89h-.88Zm10.12,1.21-2.2-.22v-1h5.08v.88l-2.44.33Z"/><path class="cls-1" d="M91.81,72.34c0-1,.07-3.26.07-4.62v-1c0-1.21,0-1.89-.07-2.77L90,63.71v-.77l3.33-1.32.33.22-.07,3v2.91c0,1.36,0,3.63.07,4.62Zm3.39-.77v.77H90.14v-.77l2.42-.44H93ZM91.26,57.75a1.45,1.45,0,1,1,1.45,1.39A1.39,1.39,0,0,1,91.26,57.75Z"/><path class="cls-1" d="M98.5,67.72v-1c0-1.21,0-1.89-.07-2.77l-1.76-.2v-.77l3-1.32.33.22.27,2.75v3.13c0,1.36,0,3.63.06,4.62H98.43C98.48,71.35,98.5,69.08,98.5,67.72Zm-1.65,3.85,2.42-.44h.44l2.42.44v.77H96.85Zm2.53-6.82h1.25l-.55.15c.71-2.05,2-3.28,3.35-3.28a1.91,1.91,0,0,1,1.56.75c0,1-.4,1.61-1.28,1.61a2,2,0,0,1-1.32-.53l-.59-.51,1.08-.22a5.28,5.28,0,0,0-2.67,3.5h-.83Z"/><path class="cls-1" d="M114.08,74.36c0-1-.62-1.74-2.23-1.74h-2.59a9.48,9.48,0,0,1-1.1-.06v-.07c-1.13-.24-1.7-.81-1.7-1.74,0-.77.51-1.6,2-2.9l.49.33A2.61,2.61,0,0,0,108,70c0,.59.24,1,1.28,1h2.9c2.36,0,3.48,1,3.48,2.81s-1.8,3.79-5.37,3.79c-3.17,0-4.55-1.1-4.55-2.69,0-1.07.68-1.89,2.9-2.83l.11.13a3.17,3.17,0,0,0-1.23,2.37c0,1.46,1.12,2,2.84,2C112.78,76.63,114.08,75.62,114.08,74.36ZM110.2,61.62c2.25,0,3.92,1.19,3.92,3.61s-1.72,3.61-3.94,3.61-3.94-1.19-3.94-3.61S108,61.62,110.2,61.62ZM108,65.25c0,1.61.79,2.71,2.15,2.71s2.29-1.17,2.29-2.8-.79-2.66-2.18-2.66S108,63.65,108,65.25Zm7.48-3.63.33.22v1.37h-3.23v-.6Z"/><path class="cls-1" d="M117.07,67.17c0-3.66,2.48-5.55,5-5.55s5,1.89,5,5.55-2.53,5.45-5,5.45S117.07,70.82,117.07,67.17Zm8.05,0c0-3-1.12-4.56-3-4.56s-3,1.61-3,4.56,1.07,4.46,3,4.46S125.12,70.12,125.12,67.17Z"/></g></g></svg>