<svg xmlns="http://www.w3.org/2000/svg" viewBox="0 0 393.1 518.74"><defs><style>.cls-1{fill:#4788ba;}.cls-2{fill:#abecee;}.cls-3{fill:#219df9;}.cls-4{fill:#2f2d3a;}.cls-5{fill:#fff;}.cls-6{fill:#3f3b4c;}.cls-7{fill:#d7d8e2;}.cls-8{fill:#aaaecc;}.cls-9{fill:#7078a0;}.cls-10{fill:none;stroke:#7078a0;stroke-miterlimit:10;stroke-width:0.75px;}</style></defs><title>pegasus</title><g id="Layer_2" data-name="Layer 2"><g id="Layer_1-2" data-name="Layer 1"><path class="cls-1" d="M94.65,253c-2.81-4.3-5.7-8.69-9.78-11.83s-9.64-4.83-14.46-3c-8.31,3.08-10.12,13.81-10.68,22.65-.9,14-2,28-4.4,41.82-.74,4.2-1.65,8.5-4,12.07s-6.48,6.26-10.72,5.74c-5.32-.65-8.78-5.76-11.51-10.38-.71,5.86-1.4,12,.68,17.51s4.2,7.89,9.93,6.5c-2.28,5.39-6.64,10.49-10.46,14.94S19.38,358.5,14,356.25c-7-2.92-9.18-6.18-14-13.65.91,13.46,2.23,27.94,11,38.16a45.38,45.38,0,0,0,12.37,9.62c9.14,5.14,21.35,8.19,29.57,1.67,7.87-6.23,8.1-17.79,8.68-27.8A148,148,0,0,1,82.33,297.1c1.65-2.75,3.56-5.6,6.52-6.86s7.15-.05,7.85,3.09"/><path class="cls-2" d="M217.24,217.76c.14.17,1.33,1.45,2.76,3.35l2.22,2.95a62.18,62.18,0,0,1,6.52,9.94,11,11,0,0,1,1.35,4.77c0,1-.17,2-.07,3a13.25,13.25,0,0,0,.43,1.91,17.11,17.11,0,0,1,.37,6.33c-.15,1.23-.4,2.59.14,3.54l-.68,4.48c-.89,5.18-1.82,10.5-4.33,15.24a24.76,24.76,0,0,1-7,8.24,8.74,8.74,0,0,1-2.37,1.33,8.13,8.13,0,0,1-2.94.19c-5.66-.35-11.8-.93-15.32-5.41l-2.52-3.51A47,47,0,0,1,171,277c-4.84-.82-10.14-3.45-10.3-9.06-.11-3.45,1.92-7,4.49-9.45a33.44,33.44,0,0,1,8.64-5.41c-5.79.25-11.65,1.11-17.37.85s-11.41-1.73-15.48-5.65a5.5,5.5,0,0,1-1.53-2.23,7.23,7.23,0,0,1,.72-4.94,19.83,19.83,0,0,1,9-9.11,36,36,0,0,1,11.45-3.26A72.55,72.55,0,0,1,136,222a15.23,15.23,0,0,1-5.47-3.81,8.13,8.13,0,0,1-1.68-7,10.61,10.61,0,0,1,4.82-6.27,24.37,24.37,0,0,1,7-2.59l7.68-2c-3.86-2.8-8.76-3.7-12.74-6.31s-7-8.09-4.81-13.45a12,12,0,0,1,6.78-6.41,18.4,18.4,0,0,1,8.44-.81,22.9,22.9,0,0,1-5.39-6.66,11.08,11.08,0,0,1-.1-9.36,11.38,11.38,0,0,1,6.82-5.63c2.7-.85,5.71-1.86,8.1-.67-4.13-2.05-6.53-3.52-8.92-4.72-.92-.46-3.34-2.79-5.1-4.13a22.69,22.69,0,0,1-4.7-4.82l-.93-2.67c-2.6-3.21-3.56-6.22-.34-9.83a5.64,5.64,0,0,1,2-1.53c2.07-.84,5.6-2.32,7.7-3-5.78-2.41-10.1-7.13-13.75-12.54a13.53,13.53,0,0,1-1.33-4.59c-.25-1.45-1.22-3.44-.92-5A8.67,8.67,0,0,1,133.25,93a5.38,5.38,0,0,1,2.13-.52,80.85,80.85,0,0,1,11.52-.28c-1.61-.2-2.82-1.43-3.9-2.65-1.72-1.95-3.76-3.32-5.27-5.48-1.19-1.7-2.75-4.14-3.12-6.36a22.43,22.43,0,0,1,.1-5.48,8.92,8.92,0,0,1,.62-2.27c.77-2,3.63-3.6,5.45-3.82s2.91-.74,4.7-.66c3.44.15,7.9.6,10.48,2.77-6.24-3.58-9.39-9.37-15.85-18.14l-2.42-5a10.59,10.59,0,0,1,.88-9.61,6.07,6.07,0,0,1,1.8-2c2.31-1.5,3-1,7.38-1.58-2.91-1.82-5.18-4.57-7.42-7.3-3.38-4.11-6.86-8.44-7.93-14.16A9.08,9.08,0,0,1,133,4.69c1.41-2.75,4.5-3.85,7.13-3.94,3.8-.12,7.32,1.2,10.65,2.71,11.69,5.3,22.08,13.11,32.17,21.18,6.6,5.29,13.15,10.74,18.52,17.52a53.08,53.08,0,0,0,3.48,4.22c2.65,2.71,4.28,5.23,7.2,8.42l3.83,5.46c2.14,3.73,4.35,7.4,6.52,11.11,3.34,5.7,6.62,11.54,8.57,18.18.73,2.48,1.27,5.06,1.81,7.64.4,1.92.8,3.84,1,5.83s.27,4.25.29,6.41q.06,8.55-.25,17.17a55.28,55.28,0,0,1-.86,9.12c-.33,1.67-.8,3.32-1.27,5-.8,2.84-1.61,5.67-2.41,8.51-.73,2.56-2.78,4.29-3.92,6.67l-3.8,5.21c-2,1.84-14.67,13.51-14.31,30.65C207.63,205.62,216.31,216.68,217.24,217.76Z"/><path class="cls-3" d="M231.52,253.82l-.39-8.62c-.13-3,.14-6.49-.8-9.35a34.62,34.62,0,0,0-5.12-9c-2.06-2.88-4.16-5.77-6.45-8.47a48,48,0,0,1-5.85-8.28,38.82,38.82,0,0,1-1.07-34.88,42.39,42.39,0,0,1,7.28-10.69c.85-.91,1.75-1.76,2.67-2.6a15.81,15.81,0,0,0,1.93-2.44q1.31-1.78,2.6-3.58a44.5,44.5,0,0,0,2.55-3.72,21.06,21.06,0,0,0,1.78-4.81c1-3.63,2.22-7.26,3-11A63.45,63.45,0,0,0,234.71,125q.19-6,.2-12.08a76.18,76.18,0,0,0-.55-11.7A74,74,0,0,0,228,80c-3.3-6.75-7.4-13.11-11.16-19.6-1.89-3.27-4.58-6-6.87-9s-4.61-5.39-6.8-8.17A87.29,87.29,0,0,0,196,35a184.62,184.62,0,0,0-16.47-14A182.23,182.23,0,0,0,162,8.61a100.76,100.76,0,0,0-9.75-5.28A31.64,31.64,0,0,0,142.52.11a11.34,11.34,0,0,0-8,1.63,8,8,0,0,0-3.09,7.44c.56,6.41,4.7,11.62,8.63,16.39a32.89,32.89,0,0,0,7.28,7l.37-1.4c-4.79.14-10.61,1.45-11.52,7-1,6,2.9,12.4,6.19,17.07a80.88,80.88,0,0,0,10.57,12l.73-1.26c-5.78-1.8-15.85-2.65-19.09,4-2.33,4.78-.22,10.8,2.64,14.86a26.83,26.83,0,0,0,9.26,8l.57-1.37c-5.67-.84-16.26-1.32-18.39,5.77-1.57,5.22,1.87,11,5.07,14.86a40.53,40.53,0,0,0,10.92,8.92l.18-1.37c-5,1.15-11.79,3.72-12,9.78-.21,5.86,4.81,11.13,9,14.55A54.57,54.57,0,0,0,155,151.76l.57-1.37c-5.65-1-12.68,1-15.57,6.27a11.55,11.55,0,0,0-.64,9.16c1.12,3.31,3.59,5.8,6.05,8.15l.53-1.28c-4.44-.4-8.92.13-12.47,3.07a11.2,11.2,0,0,0-4.1,10.25,13.23,13.23,0,0,0,6.17,9c3.92,2.43,8.56,3.38,12.35,6.06l.18-1.37c-4.34,1.11-9.05,1.86-13.14,3.73-3.47,1.58-6.57,4.68-7,8.63s1.88,7.25,5.1,9.24a53.62,53.62,0,0,0,12.35,5.19,75.91,75.91,0,0,0,15.29,3l-.2-1.48c-8.64,1.31-18.11,4.83-21.37,13.79a6.35,6.35,0,0,0,.24,5.7,13.81,13.81,0,0,0,4.43,3.82A26.79,26.79,0,0,0,156,254.66c5.95.34,11.89-.55,17.82-.83l-.37-1.4c-4.27,2.09-8.56,4.38-11.25,8.45-2.24,3.37-3.26,8-.89,11.54,2,3.05,5.67,4.59,9.13,5.24a46.31,46.31,0,0,0,14.86.21,34,34,0,0,0,10.87-3.1c.86-.44.1-1.74-.76-1.29a29.63,29.63,0,0,1-7.86,2.49,46.21,46.21,0,0,1-12.64.75c-3.73-.28-7.88-.9-10.84-3.42-3.19-2.72-3.18-7-1.28-10.49,2.44-4.52,7-6.92,11.41-9.08a.76.76,0,0,0-.38-1.4c-8.49.4-17.48,2.22-25.74-.65-3.32-1.15-8.81-3.84-8-8.1.77-3.9,3.9-7.34,7.1-9.53,4.05-2.77,8.84-3.87,13.62-4.59.89-.14.57-1.4-.2-1.47a73.79,73.79,0,0,1-15.36-3.09,68.07,68.07,0,0,1-7.17-2.71,21.25,21.25,0,0,1-6.33-3.69c-4.08-3.92-2.46-9.74,1.87-12.66a21.07,21.07,0,0,1,6.68-2.62l8.13-2.07a.76.76,0,0,0,.18-1.37c-5.87-4.15-15-4.64-17.47-12.54a9.64,9.64,0,0,1,3-10.15c3.26-2.87,7.56-3.27,11.72-2.9a.75.75,0,0,0,.53-1.28c-2.09-2-4.25-4.08-5.4-6.8a10.21,10.21,0,0,1,.22-8.69c2.53-4.69,8.9-6.49,13.88-5.58.77.14,1.42-1,.58-1.37-6.81-2.91-13.73-7-18.24-13-3-4-5-9.5-.23-13.05a21,21,0,0,1,8-3.28.76.76,0,0,0,.18-1.37c-5.78-3.34-11.26-8-14.14-14.16-2-4.17-2.46-9.4,2.41-11.65,4-1.83,8.78-1.62,13-1,.77.11,1.38-.93.57-1.37-6.2-3.38-12.19-9.71-12.11-17.24.11-9.21,11.79-8.89,18.15-6.91a.76.76,0,0,0,.73-1.26c-5.67-5.37-11.1-11.46-14.42-18.6-1.59-3.41-3.53-8.9-.54-12.13,2.11-2.29,5.76-2.63,8.66-2.72a.75.75,0,0,0,.38-1.39c-3-1.95-5.29-4.77-7.54-7.52a46.47,46.47,0,0,1-5.43-7.72c-1.52-2.91-2.95-6.83-1.92-10.11s4.27-4.49,7.33-4.49c3.6,0,7,1.34,10.23,2.82a101,101,0,0,1,9.37,5,171.88,171.88,0,0,1,17.52,12.2,203.73,203.73,0,0,1,16.19,13.58,76.75,76.75,0,0,1,7,7.64c2.18,2.75,4.58,5.3,6.72,8.06,2.53,3.26,5.27,6.3,7.56,9.73,1.81,2.72,3.34,5.68,5,8.49,1.78,3,3.57,6,5.21,9.12a64.75,64.75,0,0,1,4.47,10.21A93,93,0,0,1,232.43,99c1.53,7.62,1,15.61.86,23.34a95.83,95.83,0,0,1-.69,11.61,85.24,85.24,0,0,1-2.69,10.57c-.5,1.77-.89,3.63-1.55,5.35a20.18,20.18,0,0,1-2.6,4.31c-.9,1.24-1.8,2.49-2.71,3.73l-1.46,2a6.94,6.94,0,0,1-.69.84c-.76.71-1.54,1.4-2.27,2.15a43.46,43.46,0,0,0-7,9.42,40.13,40.13,0,0,0-2.57,32.94,42.67,42.67,0,0,0,5.92,11c.77,1,1.6,2,2.43,2.95,2.35,2.76,4.51,5.72,6.62,8.67,2,2.78,4.29,5.95,5.07,9.32a20.53,20.53,0,0,1,.3,3.51l.48,10.73.11,2.46c0,1,1.54,1,1.5,0Z"/><path class="cls-3" d="M200.39,70.53c-1.6-3.14-4.74-5.36-7.11-7.9-1.26-1.35-2.49-2.74-3.74-4.11s-2.69-2.63-3.87-4.06a22.73,22.73,0,0,1-2.15-3.7,18.84,18.84,0,0,1-2-4.6c-.76-3.24-1.88-8,.9-10.64,3.09-2.88,8.43-2.11,11.67,0,.81.53,1.57-.77.76-1.3a12.36,12.36,0,0,0-10.78-1.41c-3.67,1.36-5.12,4.7-4.83,8.44a31.76,31.76,0,0,0,1,5.9,23.19,23.19,0,0,0,2.15,4.63,18.67,18.67,0,0,0,2.43,3.93c1.52,1.68,3.15,3.26,4.68,5s3.25,3.63,5,5.35,3.54,3.11,4.63,5.25c.44.86,1.73.1,1.3-.75Z"/><path class="cls-3" d="M195.91,91.7c-2.89-3.13-6.5-5.37-9.88-7.92A31.85,31.85,0,0,1,177,73.33a24.85,24.85,0,0,1-2.19-6.72,9.15,9.15,0,0,1,.8-6.58c1.49-2.35,4.33-2.55,6.83-2.16a16.33,16.33,0,0,1,3.44.85A23.93,23.93,0,0,0,189,59.88c.94.22,1.34-1.22.4-1.45-2-.48-3.83-1.5-5.91-1.89a11.59,11.59,0,0,0-5.85.08c-3.32,1.13-4.7,4.55-4.62,7.84a21.17,21.17,0,0,0,1.24,6,21.27,21.27,0,0,0,2.32,5.14,35.89,35.89,0,0,0,7.9,8.9c3.49,2.71,7.33,5,10.35,8.28.66.71,1.72-.35,1.07-1.06Z"/><path class="cls-3" d="M192.81,113.08c-2.58-3.09-6.2-4.82-9.37-7.2a54.19,54.19,0,0,1-4.85-4.37C177,100,175.46,98.57,174,97a22,22,0,0,1-3.76-5.41c-.83-1.74-1.84-4.15-1.68-6.12.17-2.23,2.63-3.93,4.47-4.78,2.36-1.09,4.77-.69,7.21-.1.94.23,1.34-1.22.4-1.44a14.87,14.87,0,0,0-5.7-.59,10.81,10.81,0,0,0-4.79,2.13,7.76,7.76,0,0,0-2.88,3.6c-.53,1.65,0,3.52.52,5.11a23.38,23.38,0,0,0,5.58,9.12,81.61,81.61,0,0,0,8.66,8.18c3.22,2.53,7,4.26,9.7,7.45.62.75,1.68-.32,1.06-1.06Z"/><path class="cls-3" d="M186.17,131.25a59.09,59.09,0,0,1-9.15-6.66c-2.75-2.38-5.93-4.89-7.76-8.08a20.93,20.93,0,0,1-1.95-5.09c-.48-1.83-1.12-3.87-.7-5.77a8.57,8.57,0,0,1,2.66-4.33,4.07,4.07,0,0,1,2.4-1.21c1-.12,2.1-.15,3.14-.22s1-1.57,0-1.5c-1.83.13-4-.07-5.54,1a10.59,10.59,0,0,0-3.52,4.19,8.35,8.35,0,0,0-.57,5.26,33,33,0,0,0,1.78,6.32c1.62,4,4.85,6.79,8,9.6a63.61,63.61,0,0,0,10.47,7.78.75.75,0,0,0,.75-1.3Z"/><path class="cls-3" d="M179.94,205.49c-2.7.14-4.88,1.77-6.63,3.73s-3.05,4.32-2.25,7c1.49,5,7.07,8.12,12.08,8l-.72-.95c-.95,2.58-3.49,4.1-4.3,6.8-.72,2.41-1.15,5.31-.12,7.69a9.7,9.7,0,0,0,5.66,5c3,1,6.47-.28,9.39-.88l-.85-1.1c-2.4,3.57-5.29,8-5.2,12.44.08,3.7,2.3,6.93,5,9.3s6.32,4.69,10.24,3.86a21.47,21.47,0,0,0,10.6-6.39c.66-.7-.39-1.77-1.06-1.06a21.06,21.06,0,0,1-9.09,5.79c-3.82,1.13-7.19-1-9.92-3.52-2.49-2.29-4.5-5.35-4.23-8.87.3-3.88,2.85-7.65,5-10.79.39-.59-.26-1.22-.85-1.1-2.61.53-6,1.77-8.59.88-2.27-.77-4.58-2.83-5.05-5.25a11.31,11.31,0,0,1,1-6.77c1.08-2,3-3.38,3.81-5.59a.75.75,0,0,0-.72-.95,11.18,11.18,0,0,1-10.26-5.94c-1.19-2.46-.2-4.6,1.49-6.5,1.47-1.64,3.28-3.18,5.57-3.29,1-.05,1-1.55,0-1.5Z"/><path class="cls-3" d="M171.13,120.13a10.3,10.3,0,0,0-8.2,3.39,11.9,11.9,0,0,0-2.38,9.33c.47,3.58,3,5.93,5.65,8.12a49.09,49.09,0,0,0,8.9,5.83,52.4,52.4,0,0,0,11.57,4.28c.94.23,1.34-1.22.4-1.45A49.14,49.14,0,0,1,166,138.84,11.17,11.17,0,0,1,162.3,134a11.5,11.5,0,0,1,0-6.24,8.57,8.57,0,0,1,8.79-6.11c1,0,1-1.46,0-1.5Z"/><path class="cls-3" d="M170.55,143.41a8.42,8.42,0,0,0-7.72,5.32c-1.29,3.05-1.41,7.16.59,9.93a27.67,27.67,0,0,0,7.88,6.8,35,35,0,0,0,10.25,4.23c.94.23,1.34-1.22.4-1.44a33.32,33.32,0,0,1-15.73-8.68,8.36,8.36,0,0,1-2.62-4.12,11.08,11.08,0,0,1,.21-5,7.1,7.1,0,0,1,6.74-5.55.75.75,0,0,0,0-1.5Z"/><path class="cls-3" d="M170.2,163.31c-3-.2-6.18,1-7.5,3.86a7.6,7.6,0,0,0,1.8,8.74c5,4.66,11.79,7.68,18.39,9.31a.75.75,0,0,0,.4-1.45,43.6,43.6,0,0,1-15.76-7.31,12.19,12.19,0,0,1-3.26-3.1,6.37,6.37,0,0,1-.6-4.41c.65-3,3.65-4.34,6.53-4.14,1,.06,1-1.44,0-1.5Z"/><path class="cls-4" d="M163.85,448.52a166.84,166.84,0,0,0-2.95,22,6.25,6.25,0,0,0,.24,2.76,5.71,5.71,0,0,0,1.38,1.83c5.79,5.63,14.12,8.06,22.2,8.19a24.71,24.71,0,0,0,5.5-.43,16.9,16.9,0,0,0,10.61-7.35,14,14,0,0,0,1.64-12.2,21.83,21.83,0,0,0-3.26-5.44,50.27,50.27,0,0,0-9.24-10,21.08,21.08,0,0,0-12.51-4.74"/><path class="cls-4" d="M247.49,461.35A90,90,0,0,0,242.81,488c-.08,3.35.12,7,2.14,9.63a12.74,12.74,0,0,0,3.57,3c5.49,3.32,12,4.49,18.27,5.6l7,1.24a21.56,21.56,0,0,0,4.86.49,22,22,0,0,0,7.7-2.31,11.41,11.41,0,0,0,2.73-1.52,8.12,8.12,0,0,0,2-2.67,13.88,13.88,0,0,0,.87-10,42.16,42.16,0,0,0-3.33-7c-2.74-5.4-4.22-11.42-7.44-16.55a28.22,28.22,0,0,0-17.57-12.34"/><path class="cls-5" d="M292.49,67.49c.15-4.27,3.93-7.4,5.8-11.23L309.84,44c3.11-1.18,5.52-3.81,8.67-4.87a19.15,19.15,0,0,1,5.6-.73,3.59,3.59,0,0,1,1.9.29,3.16,3.16,0,0,1,1.22,1.77c1.87,5.17.47,10.87-.94,16.18-2.42,9.12-4.85,18.26-8.36,27-.11.26-.25.55-.52.61a.87.87,0,0,1-.58-.14L308,79.49a19.45,19.45,0,0,1-5.06-3.35c-1.74-1.8-3.06-4.45-5.54-4.82Z"/><path class="cls-6" d="M77.7,479.6c.5,4.64-1.53,9.39-.44,13.92a15,15,0,0,0,4.52,7.16,27.23,27.23,0,0,0,9.86,6.05c8.64,3,18.24,1.45,26.86-1.59a14.48,14.48,0,0,0,4.81-2.48,10.18,10.18,0,0,0,2.45-3.42c2.4-5.16,1.52-11.26-.23-16.67a12.73,12.73,0,0,0-1.23-2.86c-.73-1.14-1.77-2.06-2.4-3.25-.53-1-.72-2.2-1.2-3.25-1.26-2.71-4.19-4.13-6.91-5.35a21.87,21.87,0,0,0-7.07-2.25,22,22,0,0,0-6.87.92l-6.35,1.54c-4.81,1.17-9.94,2.52-13.23,6.23"/><path class="cls-6" d="M210.13,486.88a30.77,30.77,0,0,0-.37,18.84,16.24,16.24,0,0,0,3,5.94c3.57,4.17,9.57,5,15,5.65l10.33,1.14a28,28,0,0,0,5.33.24,20.69,20.69,0,0,0,8.23-2.82,9.25,9.25,0,0,0,2.61-1.94,10.46,10.46,0,0,0,1.84-4.73c.6-2.83,1.2-5.76.63-8.6a21.86,21.86,0,0,0-1.95-5.07,35.12,35.12,0,0,0-3-5.25c-.63-.88-1.34-1.7-1.91-2.62-.88-1.43-1.38-3.08-2.36-4.44a15.23,15.23,0,0,0-4.08-3.53,39.31,39.31,0,0,0-7.25-4.16,33,33,0,0,0-6-1.59,25.33,25.33,0,0,0-8.18-.49,10.33,10.33,0,0,0-7,3.89"/><path class="cls-7" d="M170.82,363.83l10.56,4.71A9,9,0,0,1,185,371c1.81,2.37.85,5.74-.18,8.54a19,19,0,0,1-2.5,5.12,41.2,41.2,0,0,1-4.22,4A17.63,17.63,0,0,0,173,403.36a34.69,34.69,0,0,0,2.48,8.15c2.18,5.5,4.36,11,6.8,16.39,3.26,7.2,7.16,14.43,13.43,19.25a5.62,5.62,0,0,1-3.81.86,8.92,8.92,0,0,1-1.43,11.76,25.44,25.44,0,0,0-4.6-7.24,24.49,24.49,0,0,1-.93,12.56c-4.14-2.33-3.56-9.68-8-11.3q-.69,4.43-1.71,8.78a13.63,13.63,0,0,1-7.38-6.35l-.27,8.79a24.82,24.82,0,0,1-5.39-10.07,15.42,15.42,0,0,1-1.6,8.62c-2.5-4.49-3.12-9.76-3.62-14.87Q155,429,154.7,409.19a19.28,19.28,0,0,1,.62-6.34,2.36,2.36,0,0,0-.49-3.27,11.5,11.5,0,0,1-2.33-10.18,21.18,21.18,0,0,1,5.27-9.36,19.11,19.11,0,0,0,2.59-3.23c1.47-2.63,1.3-6,2.92-8.51Z"/><path class="cls-7" d="M287.75,318.27a147.62,147.62,0,0,1-.56,45.82c-.32,1.89-.68,3.77-1.14,5.62a51.42,51.42,0,0,1-3.16,9,7.46,7.46,0,0,0-.77,2.18,8.4,8.4,0,0,0,.2,2.54A27.23,27.23,0,0,1,281,397.14a49.17,49.17,0,0,1-3,5.81c-1.11,2.13-1.75,4.05-3.65,5.71a2.4,2.4,0,0,0-.67.75,2.29,2.29,0,0,0-.09,1.3c.67,6.14-.58,12.31-.62,18.48,0,1.79.08,3.59.18,5.38l.69,13.53a32.79,32.79,0,0,0,.58,5.41,17.19,17.19,0,0,0,11.78,12.56l.05.15a24.55,24.55,0,0,1-.82,4,2.09,2.09,0,0,1-2.37,2l-3.93.05a7.23,7.23,0,0,0,1.76,4.52,18.57,18.57,0,0,1-12.55-9.2q-.13,5.55-.07,11.12c-1.69-.17-3-1.56-4-2.88q-2.88-3.6-5.44-7.44a3.54,3.54,0,0,0-.67,2.22,77.19,77.19,0,0,0-.09,8.87,20.38,20.38,0,0,1-7.73-11,45.91,45.91,0,0,0,1.2,11.91c-.27-.24-.55-.49-.8-.75a13.12,13.12,0,0,1-2.52-4.86,27,27,0,0,1-1.9-8c-1.94,5.64-1.85,11.81-3.75,17.47-1.37-2.84-1.18-6.15-.95-9.29.58-7.87-.23-12.19,2.25-19.68l1.26-2c-.55-14.72-.52-29.72,3.73-43.83a75.69,75.69,0,0,1,8.84-19.15q.75-25.58,2.25-51.14Z"/><path class="cls-5" d="M304.57,292.74c.56-2.65,1.18-5.72,1.18-5.72.55-2.59,1.28-6.18,2.15-11,2.56-14.13-4.32-50.44-5.91-64.83-3-27.59,12.29-35.61,14.26-63.54a181.82,181.82,0,0,0-60.92-5.46c-6.23,9.79-6.47,22.1-6.52,33.7l-.16,35.93c0,7.91,2.54,19.76.24,27.37-5.06,16.77-34.34,23.64-49.06,23.64a22.18,22.18,0,0,1-5.86-.77c-3.74-1.13-6.78-3.81-9.7-6.43l-18.78-16.85a37,37,0,0,0-7.64-5.73c-3.25-1.65-6.9-2.28-10.5-2.87a88.86,88.86,0,0,0-14.45-1.5A48.06,48.06,0,0,0,102.32,240c-9.48,8-15.52,19.54-18.78,31.51s-4,24.5-4.26,36.91a54.93,54.93,0,0,0,.6,11.82c1.47,7.69,5.92,14.4,9.52,21.36a102.59,102.59,0,0,1,8.69,23.52l1.69,8.8c-.28,2.73-.88,5.94-3.39,7.06a5.86,5.86,0,0,1-2.31.44c-3.56.08-7.3-1.36-10.56.07-2.83,1.24-4.39,4.32-5.11,7.33a44.88,44.88,0,0,0-.93,9q-1,29.71-.38,59.46l.48,9.66a16.41,16.41,0,0,1-4,12.19A4.87,4.87,0,0,0,80.33,477a13.82,13.82,0,0,0,4.9,10.86l.39-12.3q4.35,3.9,9,7.5l.24-8.22a22.16,22.16,0,0,0,4.54,5.79c.28.25.65.52,1,.38s.45-.53.52-.87c.31-1.5.61-3,.91-4.48a.89.89,0,0,1,.3-.59.84.84,0,0,1,.76.1c3.14,1.57,6.55,3.86,9.84,2.66-1-2.08-1.94-4.18-2.82-6.32-.2-.48-.35-1.14.08-1.45s.88,0,1.29.19a12.22,12.22,0,0,0,6.57,1.69,7.22,7.22,0,0,0,5.75-3.26l-7.2-5.22a21.68,21.68,0,0,1-7.11-6.16,47.5,47.5,0,0,1-8.17-17.4A130.72,130.72,0,0,1,98,420.82l-.36-3.32a96.06,96.06,0,0,0,.85-17l6.22-.38,7.78-1.66a11.07,11.07,0,0,0,5-2,11.13,11.13,0,0,0,2.24-3.06q3.25-5.73,6.5-11.45a33.54,33.54,0,0,0,1.78-3.48,32.56,32.56,0,0,0,1.11-3.47c.85-3.05,1.7-6.11,2.54-9.16,1.21-4.33,2.42-8.86,1.54-13.27l2.87.94c16.62,18.12,41.46,29.91,65.79,26.38q1.31,8.52,2.6,17.05a72.88,72.88,0,0,1,1.06,10.2,113.39,113.39,0,0,1-.9,11.62c-1.5,16.25,1,32.66,5.12,48.45a46.71,46.71,0,0,1,2,10.76c.07,3.65-.92,7.49-3.49,10.08,2.15.58,4.46-.66,5.81-2.44a17.08,17.08,0,0,0,2.51-6.15l3.91,9.84.6-9.81a30.7,30.7,0,0,0,6.48,8.21,27,27,0,0,0,1.32-9.41,28.51,28.51,0,0,0,14,7.53,34.85,34.85,0,0,1-4.25-9.36l8.67,2.09c-3.64-3-5.71-7.45-7.52-11.8a229.57,229.57,0,0,1-13.4-45.66,28.72,28.72,0,0,1-.67-9,62.33,62.33,0,0,1,1.85-7.2,30.11,30.11,0,0,0,.26-13.81,29.39,29.39,0,0,1-1-5.47,19.84,19.84,0,0,1,.9-5.33c11.16-3.11,38.37-12.31,55.83-36.5C283.57,343.74,298,323.72,304.57,292.74Z"/><path class="cls-1" d="M270.51,70.14c8.84-4,17.92-8.1,27.61-8.81,5.57-.4,11.53.46,15.89,4A25.82,25.82,0,0,1,318.38,70a90.15,90.15,0,0,1,18.3,50.8c-11.41,3.74-23.78,2.14-35.67.5-7.22-1-14.62-2.06-21-5.6-4.11-2.28-7.61-5.51-11.06-8.71a12.39,12.39,0,0,1-2.91-3.43c-1.07-2.14-.82-4.69-.41-7A64.85,64.85,0,0,1,269,84.45"/><path class="cls-1" d="M161.69,213.75c1.56-15.64,3.64-32.4,15.74-44.36a42.73,42.73,0,0,0,3.87-4,24.1,24.1,0,0,0,3.34-6.86l8-22.35c2.1-5.84,4.23-11.72,7.73-17.07a32.64,32.64,0,0,1,15.11-12.76,8,8,0,0,0,3.36-1.88,5.38,5.38,0,0,0,.9-2.22,47.27,47.27,0,0,1,13.77-22.82,37.85,37.85,0,0,1,13.11-8.28,25.83,25.83,0,0,1,16.11-.59l8.52,16.92A223.32,223.32,0,0,1,260,157.05c-2.91,8.82-6.37,17.51-9.82,26.19q-11.19,28.09-22.36,56.2a37.88,37.88,0,0,1-4.89,9.5c-2.7,3.46-6.59,6.14-9.77,9.3-4.58,4.53-7.65,10-11.81,14.8a53.82,53.82,0,0,1-17.35,13l-30,2.11c-.26-10,3.46-19.7,5.25-29.57,1.4-7.72,1.62-15.55,1.85-23.36l.42-14.71Z"/><path class="cls-8" d="M371.58,126.15a173.34,173.34,0,0,1,16.2,10.46,14.73,14.73,0,0,1,3.18,2.86c1.86,2.48,2,5.79,2.08,8.89q.19,10.37-.18,20.74a3.69,3.69,0,0,1-.39,1.86,3.78,3.78,0,0,1-1.94,1.28l-9.44,3.66c-2.64,1-5.51,2.07-8.24,1.31-2.25,3.41-7,4.39-11,3.37s-7.31-3.59-10.53-6.11a24.55,24.55,0,0,1-5.5-5.31,44.11,44.11,0,0,1-2.41-4.56c-1-1.89-2.21-3.64-3.2-5.52a26.71,26.71,0,0,1,11-36.05Z"/><path class="cls-5" d="M160.09,303.08l123.47-18.15,12-114.19,19.5-4.49c7.59-1.36,15.34-2.64,22.93-1.31a17.7,17.7,0,0,1,8.91,3.88c-.65-6.93,5.2-12.72,6.12-19.61.38-2.83-.1-5.7-.12-8.56s.52-5.94,2.49-7.9c3.72-3.7,10.46-1.58,14.22-5.24l-4.49-3.93-6.87-5.23-11.09-8.44a18.43,18.43,0,0,1-2.68-2.32,25.24,25.24,0,0,1-2.06-2.93A39.49,39.49,0,0,0,331,93.23l-.52,5.55L322,88.87a26.75,26.75,0,0,0-3.59-3.7,12.74,12.74,0,0,0-2.3-1.49,15.85,15.85,0,0,0-9.6-1.27,30.66,30.66,0,0,0-9.26,3.31,20.46,20.46,0,0,1-3.5,1.61,12.3,12.3,0,0,1-3.62.48A41.88,41.88,0,0,1,283,87l-5.69-1,1.08-3.49c1.55-2.38,2-5.36,2.35-8.22l1.15-8.83c.81-6.14,1.57-12.66-.83-18.31a33.2,33.2,0,0,0-4.62-7.2c-2.72-3.52-5.56-7.16-9.43-9.13-1.13.23-1.85,1.37-2.43,2.42q-2,3.64-4,7.38a74.88,74.88,0,0,0-6,14.29c-2,7.37-2.17,15.15-2.29,22.83a18.62,18.62,0,0,0,.15,3.42,17.88,17.88,0,0,0,2.19,5.38l5.19,9.64-2.14,4.63-1.92,2.86c-1.38,2.06-2.79,4.21-3.2,6.7a19.63,19.63,0,0,0-.11,3.76c.19,5.87,0,11.75-.38,17.61q-.58,10.37-1.56,20.69c-1.21-1.08-1.19-3-1.57-4.62-.91-3.85-4.36-6.36-7.71-8.12A11.62,11.62,0,0,0,242,145a98.35,98.35,0,0,1,3.57,19.82l-.28,6.34a40.7,40.7,0,0,1-2.59,11,29.72,29.72,0,0,0-7.38-11.45c0,11.17,0,22.57-3.38,33.15A86.82,86.82,0,0,1,226,217.49c-2.87,5.54-6.09,11.13-11,14.69-.33-2.63,0-5.29,0-8s-.52-5.47-2.25-7.39a84.19,84.19,0,0,1-14.88,31,73.54,73.54,0,0,1-7.3,8.06l-3.42,2.13a10.54,10.54,0,0,0-7,3.91c.57-4.75-23.16.46-22.59-4.29"/><path class="cls-7" d="M263.76,115a140.8,140.8,0,0,0-.47,15.23c.11,4.49.16,9.24,1.45,13.57a17,17,0,0,0,2.83,5.49,35.16,35.16,0,0,1,3.53,5.7,23.3,23.3,0,0,0,7.36,8.65c6.14,4.36,13.83,5.47,21.18,5.8,4.95.22,9.69-1.6,14.5-2.5a91.11,91.11,0,0,1,16.93-2c5.16,0,11,.7,15.06,4.22.73.63,1.79-.43,1.06-1.06-3.12-2.72-7.08-3.84-11.1-4.35a54.52,54.52,0,0,0-14.32.41c-4.22.59-8.44,1.32-12.59,2.29a55,55,0,0,1-6.2,1.41,34.86,34.86,0,0,1-7.77-.3,37.82,37.82,0,0,1-11.82-2.81,22.93,22.93,0,0,1-8.94-7,48.54,48.54,0,0,1-3.16-5.63c-1-1.89-2.52-3.44-3.63-5.27C265,142.5,265,136.91,264.85,132a139,139,0,0,1,.41-17c.08-1-1.42-1-1.5,0Z"/><path class="cls-2" d="M194.25,229.3c.2.14,1.81,1.15,3.86,2.76l3.18,2.47a67.8,67.8,0,0,1,9.68,8.62,12.06,12.06,0,0,1,2.78,4.65c.29,1,.39,2.19.78,3.19a13.59,13.59,0,0,0,1,1.89,19,19,0,0,1,2.18,6.56c.19,1.34.3,2.85,1.15,3.7l.55,4.91c.53,5.7,1.05,11.58-.24,17.28a27.07,27.07,0,0,1-5,10.66,8.84,8.84,0,0,1-2.12,2.07,8.52,8.52,0,0,1-3,1c-6.06,1.24-12.69,2.36-17.67-1.36l-3.65-3a51.1,51.1,0,0,1-25.32,10.06c-5.33.51-11.66-.76-13.42-6.62-1.09-3.61,0-7.94,2.05-11.23s4.83-5.75,7.58-8.15c-6,1.91-12,4.47-18.07,5.82s-12.51,1.41-17.91-1.57a6,6,0,0,1-2.25-1.91,8,8,0,0,1-.64-5.42,21.73,21.73,0,0,1,6.94-12.16,39.63,39.63,0,0,1,11.13-6.68,78.87,78.87,0,0,1-27.92-.07,16.84,16.84,0,0,1-6.84-2.47,9,9,0,0,1-3.75-6.87,11.63,11.63,0,0,1,3.31-8,26.29,26.29,0,0,1,6.6-4.7l7.53-4.24c-4.85-1.86-10.28-1.42-15.2-3S91.8,221,92.59,214.72a13.09,13.09,0,0,1,5.33-8.67,20.1,20.1,0,0,1,8.67-3.24c-2.71-1.48-5.48-3-7.58-5.49a12.06,12.06,0,0,1-2.75-9.83,12.38,12.38,0,0,1,5.59-7.87c2.61-1.66,5.48-3.58,8.35-3-4.94-1-7.89-1.85-10.75-2.43-1.09-.23-4.3-2-6.53-2.91a24.86,24.86,0,0,1-6.32-3.75L84.86,165c-3.66-2.65-5.52-5.55-3.15-10.26a6.25,6.25,0,0,1,1.66-2.17c1.94-1.47,5.24-4,7.26-5.36-6.78-.9-12.67-4.65-18-9.32-1.11-1-2-3-2.7-4.46s-2.26-3.28-2.38-5a9.43,9.43,0,0,1,2.9-6.74,5.84,5.84,0,0,1,2.09-1.16A89.37,89.37,0,0,1,84.56,117c-1.76.25-3.39-.7-4.87-1.69-2.37-1.57-4.9-2.43-7.11-4.28-1.73-1.45-4.07-3.57-5.08-5.81A24.86,24.86,0,0,1,66,99.37a9.16,9.16,0,0,1,0-2.56c.25-2.3,2.8-4.82,4.66-5.58s2.86-1.6,4.77-2c3.66-.81,8.48-1.59,11.82,0-7.59-2-12.55-7.22-21.84-14.62l-4-4.56a11.53,11.53,0,0,1-1.8-10.38A6.6,6.6,0,0,1,61,57c2-2.23,2.83-1.92,7.34-3.75-3.59-1.09-6.77-3.35-9.9-5.59C53.76,44.28,48.86,40.7,46.11,35A9.94,9.94,0,0,1,45,28.69c.71-3.3,3.65-5.34,6.4-6.17,4-1.21,8.05-.82,12-.17,13.82,2.28,27,7.56,39.9,13.21,8.45,3.69,16.9,7.58,24.48,13.2a57.5,57.5,0,0,0,4.87,3.46c3.55,2.1,6,4.3,10,6.83l5.58,4.67c3.32,3.32,6.68,6.57,10,9.86,5.14,5.06,10.24,10.28,14.18,16.72,1.48,2.41,2.78,5,4.08,7.55,1,1.9,1.93,3.82,2.73,5.84a69.28,69.28,0,0,1,2.12,6.68q2.5,9,4.61,18.16a60.81,60.81,0,0,1,1.68,9.86c.12,1.84.09,3.71.07,5.58-.05,3.21-.09,6.43-.13,9.64,0,2.91-1.71,5.31-2.24,8.15l-2.53,6.56c-1.64,2.53-11.62,18.4-6.39,36.36C180.68,219.24,193,228.42,194.25,229.3Z"/><path class="cls-3" d="M219.45,263.27l-2.74-8.64c-.94-3-1.61-6.4-3.12-9.14-1.74-3.18-4.77-5.78-7.51-8.08s-5.78-4.71-8.78-6.9a75.76,75.76,0,0,1-8.46-6.61A42.65,42.65,0,0,1,176,189.34a45.11,45.11,0,0,1,4.65-15.79,42.67,42.67,0,0,1,2.31-4.05,14.62,14.62,0,0,0,1.39-3c.58-1.51,1.17-3,1.74-4.53s1.22-3.07,1.67-4.65a21.74,21.74,0,0,0,.64-5.85c0-4.25.29-8.56,0-12.81a70.35,70.35,0,0,0-2.09-12c-1-4.11-2-8.22-3.08-12.3a89.8,89.8,0,0,0-3.69-11.92A79.46,79.46,0,0,0,167.3,82c-5.11-6-11-11.37-16.62-16.92-1.54-1.53-3.09-2.86-4.77-4.23s-3.35-2.45-5.06-3.69c-1.53-1.11-3-2.28-4.52-3.4s-3.31-2.15-4.93-3.29c-3.31-2.31-6.45-4.76-9.93-6.82A181.1,181.1,0,0,0,99.82,33.23a205.19,205.19,0,0,0-22.91-8.52A109.94,109.94,0,0,0,65.18,21.9a34.9,34.9,0,0,0-11.34-.68,12.21,12.21,0,0,0-8,4.06c-2.15,2.68-2.07,6.12-.8,9.18,2.6,6.24,8.12,10.34,13.44,14.13A35.83,35.83,0,0,0,68.18,54V52.52c-5.21,1.56-11,4.73-10.06,11,.93,6.49,6.7,11.94,11.47,15.88a88.86,88.86,0,0,0,14.33,9.47l.37-1.4a25.84,25.84,0,0,0-12.76,2.46c-2.79,1.42-5.42,3.74-6.11,6.92-1.21,5.66,2.67,11.42,6.78,14.89a29.19,29.19,0,0,0,12.16,6l.2-1.48c-6.18.72-17.53,3.23-17.68,11.31-.11,5.92,5.14,11,9.59,14.13a44.22,44.22,0,0,0,14,6.25l-.18-1.37c-5,2.64-11.47,7.33-9.8,13.83,1.57,6.16,8.3,10.22,13.69,12.61A59.77,59.77,0,0,0,110,177.34l.2-1.48c-6.21.51-13.07,4.61-14.57,11a12.6,12.6,0,0,0,2,9.81c2.12,3.12,5.39,5,8.63,6.8l.18-1.38c-4.55.8-9,2.46-11.85,6.23a12.26,12.26,0,0,0-1.87,12.24,14.17,14.17,0,0,0,8.26,7.59c5,1.82,10.54,1.32,15.55,3.16l-.18-1.37c-4.15,2.34-8.74,4.43-12.48,7.41-3.21,2.57-5.74,6.58-5.27,10.83.44,4.05,3.36,7,7.07,8.36,4.51,1.65,9.77,2,14.52,2.24A82.34,82.34,0,0,0,138,257.63l-.57-1.37c-8.6,3.76-17.23,9.85-18.51,19.92-.25,2-.16,4.25,1.18,5.87s3.81,2.6,5.86,3.24c4.77,1.47,10,1.14,14.77.07,6.19-1.36,12-3.89,18.07-5.82l-.73-1.25c-4.11,3.58-8.17,7.44-9.69,12.86-1.2,4.27-.58,9.17,3.12,12,3.34,2.56,7.88,2.78,11.9,2.3a52,52,0,0,0,14.83-4.07,36,36,0,0,0,10-6.1c.71-.65-.35-1.71-1.06-1.06a31.31,31.31,0,0,1-7.11,4.64,51.42,51.42,0,0,1-12.51,4.4c-4.09.87-8.67,1.53-12.69,0-4.31-1.6-6.15-5.77-5.4-10.18,1-5.9,5.35-10,9.66-13.77a.76.76,0,0,0-.73-1.26c-9,2.88-18.12,7.46-27.8,6.58a19.77,19.77,0,0,1-6.74-1.8c-2.36-1.13-3.62-2.66-3.55-5.35.11-4.33,2.38-8.58,5.22-11.73,3.44-3.81,8-6.2,12.65-8.24.84-.36.2-1.5-.58-1.37a80.54,80.54,0,0,1-18,1.06,75.5,75.5,0,0,1-8.49-.95c-2.67-.45-5.51-1-7.74-2.58-4.72-3.44-3.93-9.75-.29-13.66a25.92,25.92,0,0,1,6.44-4.58l7.54-4.24a.76.76,0,0,0-.18-1.37c-7.55-2.78-17.71-.63-22.31-8.83a10.68,10.68,0,0,1,1-11.61c2.69-3.64,6.92-5.14,11.22-5.89a.76.76,0,0,0,.18-1.37c-2.78-1.52-5.65-3.1-7.64-5.64a11.15,11.15,0,0,1-2.25-9.27c1.33-5.7,7.56-9.43,13.12-9.89.77-.06,1.09-1.34.2-1.47-8-1.13-16.33-3.46-22.81-8.45-4.23-3.26-8-8.48-4.3-13.59,1.94-2.66,4.85-4.51,7.71-6a.76.76,0,0,0-.17-1.37c-7.06-1.88-14.18-5.25-19-10.94A14.41,14.41,0,0,1,68.5,129a6.78,6.78,0,0,1,2.7-6.59c3.64-3,8.78-4.15,13.36-4.69.78-.09,1.09-1.26.2-1.47C78.24,114.68,71.89,111,68.52,105a12.64,12.64,0,0,1-1.8-6.69c.16-2.86,2.06-5,4.42-6.5C75,89.45,79.8,88.77,84.29,89a.76.76,0,0,0,.38-1.4c-7.39-4-14.71-8.79-20.22-15.22C61.73,69.17,58,63.9,60.07,59.5c1.51-3.15,5.41-4.61,8.51-5.54a.75.75,0,0,0,0-1.44c-3.73-1.2-6.92-3.51-10.06-5.76A53,53,0,0,1,51,40.59c-2.51-2.59-5.12-6.15-5.36-9.88s2.43-6.26,5.64-7.36c4-1.38,8.38-.88,12.46-.19A108.89,108.89,0,0,1,75,25.72,191.82,191.82,0,0,1,97.61,33.9a210.78,210.78,0,0,1,21.09,9.9,87.89,87.89,0,0,1,9.93,6.51c2.93,2.21,6.07,4.09,9,6.31,3.36,2.56,6.89,4.82,10.07,7.62,3,2.61,5.67,5.59,8.49,8.35,2.63,2.58,5.26,5.17,7.75,7.88a67.89,67.89,0,0,1,7.31,9.34,108.11,108.11,0,0,1,5.58,10.33c3.64,7.4,5.35,15.77,7.28,23.75a108.88,108.88,0,0,1,2.6,12.38,90.5,90.5,0,0,1,.21,12c0,1.94.05,3.92-.09,5.86a22,22,0,0,1-1.69,6.1l-1.77,4.62-1,2.53a3.14,3.14,0,0,1-.48,1c-.73,1.08-1.39,2.21-2,3.35A47.48,47.48,0,0,0,175,185.44a43.81,43.81,0,0,0,8.83,35.17,45.82,45.82,0,0,0,8.4,8.18c4.41,3.31,8.94,6.42,13.15,10,2.64,2.24,5.75,4.85,7.21,8.07a30.62,30.62,0,0,1,1.13,3.39l3.48,11,.78,2.44c.29.92,1.74.53,1.45-.39Z"/><path class="cls-3" d="M134.71,79c-2.46-2.73-6.19-4.11-9.27-6-3.48-2.15-6.93-4.34-10.4-6.49a17.65,17.65,0,0,1-3.41-3.22,23.18,23.18,0,0,1-3.29-3.85,32.52,32.52,0,0,1-2.62-5.61c-.77-2.15-1.15-4.54.08-6.6,2.38-4,8.38-4.74,12.42-3.4.92.3,1.31-1.15.4-1.45a13.36,13.36,0,0,0-11.9,1.7c-3.7,2.74-3.72,7-2.12,11a31.08,31.08,0,0,0,2.87,5.81,33.79,33.79,0,0,0,3.58,4,17.74,17.74,0,0,0,4.06,3.42c2,1.17,4,2.42,5.94,3.69,2.15,1.39,4.3,2.8,6.54,4s4.39,2.19,6.06,4.06c.65.71,1.71-.35,1.06-1.07Z"/><path class="cls-3" d="M136,102.59c-6.47-4.1-14.4-5.15-20.51-9.92A43.29,43.29,0,0,1,111,88.74a26.5,26.5,0,0,1-3.47-5c-1.8-3-3.59-7.7-.88-10.78,1.52-1.73,4-2.22,6.14-2.41,2.38-.2,4.63.37,7,.3,1,0,1-1.53,0-1.5-2.36.07-4.61-.5-7-.3a12.81,12.81,0,0,0-5.59,1.53c-3.32,2-3.93,6-2.94,9.53A21.32,21.32,0,0,0,107,85.79a23.48,23.48,0,0,0,4,5A39.26,39.26,0,0,0,121.76,98c4.52,1.93,9.31,3.24,13.49,5.89.82.52,1.58-.78.76-1.29Z"/><path class="cls-3" d="M138.81,126c-2.79-2-6-2.92-9.23-4a62.72,62.72,0,0,1-10.31-4.89c-3.26-1.79-6.59-3.57-9.24-6.23a21.48,21.48,0,0,1-3.25-4.22c-1-1.73-1.87-3.4-1-5.4a10.64,10.64,0,0,1,4.18-4.75c2-1.19,4.24-1.3,6.48-1.36a.75.75,0,0,0,0-1.5,16.62,16.62,0,0,0-5.86.88A11.35,11.35,0,0,0,106.1,98a8.57,8.57,0,0,0-2.24,4.87c-.08,1.8.94,3.49,1.85,5a24.92,24.92,0,0,0,8.32,8.08c1.81,1.13,3.69,2.12,5.55,3.14s3.89,2.2,5.94,3.09c4.16,1.82,8.76,2.53,12.54,5.19.79.55,1.54-.75.75-1.3Z"/><path class="cls-3" d="M137,147a64.54,64.54,0,0,1-11.79-4.54c-3.55-1.74-7.56-3.47-10.36-6.33a23.32,23.32,0,0,1-3.5-4.91c-1-1.72-2.15-3.58-2.27-5.59a9.31,9.31,0,0,1,1.42-5.21,4.76,4.76,0,0,1,2.39-2.25c1.07-.41,2.17-.75,3.25-1.13.91-.32.52-1.77-.39-1.45-2.09.73-4.38,1.14-5.78,3a11.55,11.55,0,0,0-2.29,5.34,9.46,9.46,0,0,0,1.12,5.75,35.9,35.9,0,0,0,3.5,5.8c2.79,3.67,6.88,5.66,10.91,7.69a69.58,69.58,0,0,0,13.39,5.32A.75.75,0,0,0,137,147Z"/><path class="cls-3" d="M151.49,227c-2.67.86-4.45,3-5.71,5.44-1.38,2.62-2.23,5.6-.56,8.3,3,4.83,9.72,6.5,14.92,5l-.95-.72a15.18,15.18,0,0,1-1.71,4.67,9.84,9.84,0,0,0-.89,3.81c-.06,2.66.3,5.74,2,7.91a10.57,10.57,0,0,0,6.91,3.63c3.54.43,7.07-2,10.08-3.53l-1.1-.85c-1.25,3.67-2.53,7.73-2.39,11.64a11.66,11.66,0,0,0,3.89,8.28,21.2,21.2,0,0,0,7.94,4.41A10.56,10.56,0,0,0,194,283.54,25.1,25.1,0,0,0,201.5,275c.46-.85-.83-1.6-1.29-.75a23,23,0,0,1-7.86,8.63c-3.79,2.37-8,1.08-11.73-.87-3.08-1.63-5.94-4.12-6.79-7.64-1-4.3.68-9.26,2.06-13.31.23-.66-.55-1.12-1.1-.85-2.7,1.36-6,3.76-9.22,3.32-2.52-.34-5.29-1.67-6.46-4a12.58,12.58,0,0,1-.91-7.29c.5-2.53,2.26-4.56,2.49-7.18a.76.76,0,0,0-.95-.73,12.25,12.25,0,0,1-12.62-3.44c-2-2.3-1.41-4.95-.13-7.44,1.08-2.1,2.55-4.17,4.9-4.92.91-.29.52-1.74-.4-1.45Z"/><path class="cls-3" d="M118,139.57a11.15,11.15,0,0,0-7.41,5.45c-1.79,3.3-1.51,7.3-.15,10.69,1.44,3.56,4.49,5.32,7.83,6.87a53,53,0,0,0,11.25,3.78,57.23,57.23,0,0,0,13.63,1.28.75.75,0,0,0,0-1.5,53.51,53.51,0,0,1-26.06-5.81,10.51,10.51,0,0,1-4.78-4.13,12.83,12.83,0,0,1-1.47-6.63A9.38,9.38,0,0,1,118.4,141c.94-.21.55-1.66-.4-1.45Z"/><path class="cls-3" d="M124,164.27a9,9,0,0,0-6.5,7.2c-.62,3.46.22,7.94,2.91,10.39s6.75,4.09,10.28,5.18A38.2,38.2,0,0,0,143,188.7a.75.75,0,0,0,0-1.5,36.07,36.07,0,0,1-19.78-5.12,7.91,7.91,0,0,1-3.58-4,12.55,12.55,0,0,1-.84-5.17,7.7,7.7,0,0,1,5.57-7.21.75.75,0,0,0-.4-1.44Z"/><path class="cls-3" d="M129.26,185.33c-3,.6-5.89,2.57-6.66,5.68a8.19,8.19,0,0,0,3.57,8.7,35,35,0,0,0,10.77,3.85,51.15,51.15,0,0,0,11.9,1.13.75.75,0,0,0,0-1.5,47.75,47.75,0,0,1-19-3.38,11.73,11.73,0,0,1-4.16-2.38,7,7,0,0,1-1.76-4.55c-.06-3.37,2.7-5.5,5.76-6.11,1-.18.55-1.63-.4-1.44Z"/><ellipse class="cls-9" cx="377.6" cy="159.65" rx="4.36" ry="7.99"/><path class="cls-10" d="M362,164.37a17.13,17.13,0,0,0,10.89,13.07"/><path class="cls-3" d="M296.49,113.28a20.59,20.59,0,0,0,9.45,8.12,21,21,0,0,0,15.12.27,9.4,9.4,0,0,0,7.72,4.38,6.93,6.93,0,0,1-2.45,1.59c-3.89,1.44-7.69-1.42-8.07-1.72a7,7,0,0,0-.28,3.31,6.74,6.74,0,0,0,.94,2.52,7.79,7.79,0,0,1-8.58-6.25,3.51,3.51,0,0,0-1.44,4.76,7.33,7.33,0,0,1-3.46-1.58,7.51,7.51,0,0,1-2.52-5,2.37,2.37,0,0,0-1.37-.5,2.46,2.46,0,0,0-1.87.87,3.51,3.51,0,0,1-1.59-2.45,3.28,3.28,0,0,1,.43-2,4.7,4.7,0,0,1-2.24-2.37A4.83,4.83,0,0,1,296.49,113.28Z"/></g></g></svg>