<svg xmlns="http://www.w3.org/2000/svg" viewBox="0 0 213.65 141"><defs><style>.cls-1{fill:#fff;}.cls-2{fill:none;stroke:#fff;stroke-miterlimit:10;stroke-width:2px;}</style></defs><title>pegasuscon</title><g id="Layer_2" data-name="Layer 2"><g id="pegasus"><circle class="cls-1" cx="84.61" cy="136.96" r="4.04"/><circle class="cls-1" cx="169.61" cy="91.96" r="4.04"/><circle class="cls-1" cx="44.61" cy="28.96" r="4.96"/><circle class="cls-1" cx="126.61" cy="91.96" r="4.96"/><circle class="cls-1" cx="196.61" cy="34.96" r="4.96"/><circle class="cls-1" cx="47.61" cy="3.96" r="3.96"/><circle class="cls-1" cx="157.65" cy="90.93" r="3"/><circle class="cls-1" cx="210.65" cy="75.93" r="3"/><line class="cls-2" x1="196.65" y1="34.93" x2="210.65" y2="75.93"/><line class="cls-2" x1="169.65" y1="91.93" x2="210.65" y2="75.93"/><line class="cls-2" x1="157.65" y1="90.93" x2="169.65" y2="91.93"/><line class="cls-2" x1="126.65" y1="91.93" x2="157.65" y2="90.93"/><line class="cls-2" x1="44.65" y1="28.93" x2="126.65" y2="91.93"/><line class="cls-2" x1="83.65" y1="137.93" x2="125.65" y2="91.93"/><line class="cls-2" x1="44.65" y1="28.93" x2="47.65" y2="3.93"/><line class="cls-2" x1="0.65" y1="51.93" x2="44.65" y2="28.93"/><line class="cls-2" x1="84.65" y1="136.93" x2="0.65" y2="65.93"/><path class="cls-1" d="M100.6,46.74v-.88h3.08v1.21h-.22Zm3.3,12.65,2.86.33v.88H100.6v-.88l2.86-.33Zm-1.21-6.71c0-2.27,0-4.56-.07-6.82h2.12c-.07,2.22-.07,4.51-.07,6.82V54c0,2.24,0,4.31.07,6.58h-2.12c.07-2.22.07-4.51.07-6.82Zm3.17,2.09h-2.18v-1h2.51c2.71,0,3.76-1.43,3.76-3.52s-1.19-3.37-3.85-3.37h-2.42v-1h2.84c3.65,0,5.52,1.8,5.52,4.38S110.35,54.77,105.86,54.77Z"/><path class="cls-1" d="M122.21,54.09a4.37,4.37,0,0,1-.16,1.23h-8.12v-.93h5.24c1.06,0,1.3-.5,1.3-1.12a2.45,2.45,0,0,0-2.45-2.4c-1.4,0-3,1.19-3,4.34,0,2.79,1.41,4.29,3.61,4.29a3.83,3.83,0,0,0,3.08-1.56l.5.39a4.47,4.47,0,0,1-4.2,2.56c-3,0-4.86-2-4.86-5.4s2.29-5.61,5-5.61A3.93,3.93,0,0,1,122.21,54.09Z"/><path class="cls-1" d="M132.46,62.62c0-1-.62-1.73-2.23-1.73h-2.59a9.4,9.4,0,0,1-1.1-.07v-.07c-1.12-.24-1.7-.81-1.7-1.74,0-.77.51-1.6,2-2.9l.48.33a2.61,2.61,0,0,0-1,1.85c0,.59.25,1,1.28,1h2.9c2.36,0,3.48,1,3.48,2.81s-1.8,3.79-5.37,3.79c-3.17,0-4.55-1.1-4.55-2.68,0-1.08.68-1.9,2.9-2.84l.11.13a3.17,3.17,0,0,0-1.23,2.38c0,1.45,1.12,2,2.84,2C131.16,64.89,132.46,63.88,132.46,62.62Zm-3.88-12.74c2.25,0,3.92,1.19,3.92,3.61s-1.72,3.61-3.94,3.61-3.94-1.19-3.94-3.61S126.34,49.88,128.58,49.88Zm-2.24,3.63c0,1.61.79,2.71,2.16,2.71s2.28-1.17,2.28-2.79-.79-2.67-2.17-2.67S126.34,51.91,126.34,53.51Zm7.48-3.63.33.22v1.37h-3.23v-.6Z"/><path class="cls-1" d="M138.84,54.83a24.13,24.13,0,0,1,3.41-.92v.79a20.72,20.72,0,0,0-2.95.88c-2,.77-2.2,1.61-2.2,2.25,0,1.16.77,1.62,1.78,1.62.77,0,1.21-.28,2.6-1.27l.44-.33.31.46-.64.64c-1.32,1.32-2.07,1.94-3.41,1.94a2.69,2.69,0,0,1-3-2.75C135.23,56.9,135.89,55.91,138.84,54.83Zm2.53,3.74v-5c0-2.16-.62-2.69-2.07-2.69a5.11,5.11,0,0,0-2,.4l.88-.68-.57,1.89c-.2.64-.53,1-1.13,1a.9.9,0,0,1-1-.88c.42-1.67,2.05-2.71,4.25-2.71s3.37,1,3.37,3.81v4.66c0,1,.31,1.35.81,1.35a1.08,1.08,0,0,0,.86-.49l.44.49a2.06,2.06,0,0,1-1.87,1.12A2,2,0,0,1,141.37,58.57Z"/><path class="cls-1" d="M146.54,60.05l-.09-2.4h1.16l.6,2.6-1.08-.51V59a4.16,4.16,0,0,0,2.71.9c1.69,0,2.48-.68,2.48-1.69s-.66-1.43-2-1.94l-1-.37c-1.6-.59-2.66-1.45-2.66-3s1.34-3.06,3.79-3.06a5.52,5.52,0,0,1,3.05.91L153.36,53h-1.1l-.44-2.22.79.35v.57a3.62,3.62,0,0,0-2.25-.84c-1.36,0-2.06.6-2.06,1.52s.55,1.37,2,1.92l.66.24c2.2.81,3,1.85,3,3.21,0,1.63-1.43,3.13-4.25,3.13A6.67,6.67,0,0,1,146.54,60.05Z"/><path class="cls-1" d="M158.75,56.7c0,2,.57,2.64,1.78,2.64a4.84,4.84,0,0,0,3.36-1.65h.47v1.13h-1.13l.77-.33a5.22,5.22,0,0,1-4.18,2.4c-1.76,0-2.86-1.06-2.83-4l.06-5.8.46.41-2-.44v-.77l3.17-.28.22.22-.11,3.08ZM164,60.77l-.31-2.57.07-7.08.46.41-2-.44v-.77l3.12-.28.22.22-.06,3.08v6.58l-.53-.53,2,.44v.77Z"/><path class="cls-1" d="M168.87,60.05l-.09-2.4h1.16l.6,2.6-1.08-.51V59a4.16,4.16,0,0,0,2.71.9c1.69,0,2.48-.68,2.48-1.69s-.66-1.43-2-1.94l-1-.37c-1.6-.59-2.66-1.45-2.66-3s1.34-3.06,3.79-3.06a5.52,5.52,0,0,1,3.05.91L175.69,53h-1.1l-.44-2.22.79.35v.57a3.62,3.62,0,0,0-2.25-.84c-1.36,0-2.06.6-2.06,1.52s.55,1.37,2,1.92l.66.24c2.2.81,3,1.85,3,3.21,0,1.63-1.43,3.13-4.25,3.13A6.67,6.67,0,0,1,168.87,60.05Z"/></g></g></svg>