<svg xmlns="http://www.w3.org/2000/svg" viewBox="0 0 138 300"><defs><style>.cls-1{fill:#385e41;}.cls-2{fill:#b7d3a5;}.cls-3{fill:#42210b;}.cls-4{fill:#043927;}.cls-5{fill:#a3c474;}.cls-6{fill:#d0f0bf;}.cls-7{fill:#00a86b;}.cls-8{fill:#9aba67;}.cls-9{fill:#fff;}.cls-10{fill:#31602c;}.cls-11{fill:#3f714e;}.cls-12{fill:#038837;}.cls-13{fill:#31543a;}.cls-14{fill:#560450;}.cls-15{fill:#ce71d8;}.cls-16{fill:#706410;}.cls-17{fill:#4c845a;}.cls-18{fill:none;}</style></defs><title>pers</title><g id="Layer_2" data-name="Layer 2"><g id="Layer_1-2" data-name="Layer 1"><path class="cls-1" d="M68.49,36.79a14.58,14.58,0,0,1,6.79-1.36c3.53.18,6.73,2.4,8.85,5.27a27.54,27.54,0,0,1,4.15,9.82c1.17,4.72,1.85,9.68,1,14.47s-3.39,9.34-4.18,14.23A42.63,42.63,0,0,0,84.89,88a149.87,149.87,0,0,0,1.68,18.34c.93,5.34,2.45,5.83,3,11.22l-42.14,2.39c-.35-2.74-2-8-2.48-10.7a16.5,16.5,0,0,1-.09-3.91A78,78,0,0,1,46,96.15c1.15-6.23,3.07-12.62,1.56-18.77-1-4.2-3.59-7.93-4.19-12.21a27,27,0,0,1,.14-6.48c.5-5,1-10.21,3.17-14.8s6.19-8.57,11.15-9.15a21.49,21.49,0,0,1,8.86.47c1,.32,5.38,1.6,6.4,1.92Z"/><path class="cls-2" d="M70.2,239.16c-.88,15.41-.22,35.49.87,50.87.17,2.32-.45,2.55-.23,4.72l8.49-.48c.68-7,2.61-19.33,4.13-26.21,2.11-9.56,3.74-19.48,3-29.28"/><path class="cls-2" d="M70.82,294.74c.87,2,3.37,2.74,5.55,3.17,3.69.72,7.63,1.34,11.12-.08,1-.4,2.05-1.17,2-2.24s-1.11-1.82-2.14-2.17a40.11,40.11,0,0,0-4.23-.86,6.52,6.52,0,0,1-3.76-2Z"/><path class="cls-3" d="M70.88,294.85c.87,2,3.36,2.75,5.54,3.18,3.7.72,7.64,1.34,11.13-.08,1-.4,2-1.17,2-2.25-1.85.68-4.65.64-8.11.67C76.64,296.42,73.53,295.36,70.88,294.85Z"/><path class="cls-3" d="M84.72,292.1a20.15,20.15,0,0,0-3.06,4.38,1.59,1.59,0,0,0-.16,1.15,1.5,1.5,0,0,0,1.85,1.05,1.49,1.49,0,0,0,.9-.69A15.62,15.62,0,0,1,86,295.25l-.24.3c.36-.45.73-.9,1.11-1.33a1.6,1.6,0,0,0,.43-1.06,1.53,1.53,0,0,0-.43-1.06,1.5,1.5,0,0,0-1.07-.44,1.46,1.46,0,0,0-1.06.44Z"/><path class="cls-4" d="M69.06,262c.78,18.62.23,8,1.54,26.31.19,2.77-.83,3.52-.56,6.12l10.39-1.07c.81-8.36,3.27-23,5.08-31.22"/><path class="cls-4" d="M70.13,294.37c1,2.43,4.17,2.77,6.77,3.28,4.4.86,9.45,2,13.6.27a3.76,3.76,0,0,0,2.42-3c0-1.29-1.51-2.5-2.74-2.91a51.78,51.78,0,0,0-5.2-1.4c-1.68-.36-3.39-2.07-4.48-3.4Z"/><path d="M70,294.34A8.3,8.3,0,0,0,77,298.78c4.36,0,8,.25,13.24.07C91.68,298.8,93,296.31,93,295c-2.2.81-5.87.75-10,.79A58.39,58.39,0,0,1,70,294.34Z"/><path class="cls-2" d="M64.57,239.16c.87,15.41.22,35.49-.88,50.87-.16,2.32.46,2.55.24,4.72l-8.5-.48c-.68-7-2.6-19.33-4.12-26.21-2.12-9.56-3.74-19.48-3-29.28"/><path class="cls-2" d="M63.94,294.74c-.87,2-3.36,2.74-5.54,3.17-3.69.72-7.64,1.34-11.12-.08-1-.4-2.05-1.17-2-2.24s1.11-1.82,2.13-2.17a40.29,40.29,0,0,1,4.24-.86,6.55,6.55,0,0,0,3.76-2Z"/><path class="cls-3" d="M63.88,294.85c-.86,2-3.36,2.75-5.54,3.18-3.69.72-7.64,1.34-11.12-.08-1-.4-2-1.17-2-2.25,1.85.68,4.65.64,8.1.67C58.12,296.42,61.24,295.36,63.88,294.85Z"/><path class="cls-3" d="M47.92,294.22c.38.43.75.88,1.1,1.33l-.23-.3A15.62,15.62,0,0,1,50.52,298a1.52,1.52,0,0,0,.9.69,1.5,1.5,0,0,0,1.84-1.05,1.69,1.69,0,0,0-.15-1.15A20.19,20.19,0,0,0,50,292.1a1.5,1.5,0,0,0-2.56,1.06,1.68,1.68,0,0,0,.44,1.06Z"/><path class="cls-4" d="M65.71,262c-.79,18.62-.24,8-1.54,26.31-.2,2.77.82,3.52.56,6.12l-10.4-1.07c-.81-8.36-3.26-23-5.07-31.22"/><path class="cls-4" d="M64.63,294.37c-1,2.43-4.17,2.77-6.76,3.28-4.4.86-9.45,2-13.6.27a3.74,3.74,0,0,1-2.42-3c0-1.29,1.51-2.5,2.73-2.91a52,52,0,0,1,5.21-1.4c1.68-.36,3.38-2.07,4.48-3.4Z"/><path d="M64.73,294.34a8.33,8.33,0,0,1-6.93,4.44c-4.37,0-8,.25-13.25.07-1.46-.05-2.76-2.54-2.75-3.82,2.21.81,5.87.75,10,.79A58.39,58.39,0,0,0,64.73,294.34Z"/><path class="cls-5" d="M70.79,78.53c0,5,1,9.9,4.91,12.44,4.14,2.7,9.53,2.85,13.09,6.45C92.71,101.39,93,108,93,114c0,11.36,0,15.61-.08,27l-.18,1.23a11.07,11.07,0,0,1-2,6.42,24.86,24.86,0,0,1-4.49,4.78A17.14,17.14,0,0,1,81,156.81c-1.34.48-2.9.71-3.76,2L80.07,149c2.27-3,2.41-7.35,2.45-11.31,0-2.91-.9-6.3-.87-9.21L50.92,128c0,2.92-.42,6.78-.4,9.69,0,4,.19,8.26,2.46,11.31l2,9.82c-.85-1.25-2.41-1.48-3.75-2a17.31,17.31,0,0,1-5.2-3.46,25.5,25.5,0,0,1-4.49-4.78,11.14,11.14,0,0,1-2-6.42l-.13-2.1c0-11.36-.06-14.74-.09-26.1,0-5.91.25-12.56,4.18-16.53,3.55-3.6,9-3.75,13.09-6.45,3.87-2.54,4.55-7.43,4.59-12.44Z"/><path class="cls-6" d="M50.53,127.69c.54,1.54,2.06,3.22,2.89,4.64l2.94,7.52c.81,4.9-4.34,9.49-5.94,14.17-1,3.06-3.75,6.3-4.23,9.52-3.39,22.83-6.79,46-4.56,69l.49,1.23,1.56-1.4c1.7-1.64,4.22-1.79,6.51-1.73,6.37.17,12.7,1.24,19.07,1.39a17.26,17.26,0,0,0,3-.12c1.17-.17,2.31-.54,3.48-.72a21.77,21.77,0,0,1,5.81.16q4.5.54,9,1.17l1.65,0c2.23-23-1.17-46.15-4.56-69-.48-3.22-3.19-6.46-4.23-9.52-1.6-4.68-8.18-9.27-7.36-14.17L79.64,132c1-1.54,2.35-3.09,2.89-4.64a63.22,63.22,0,0,0,.93-8.3A62,62,0,0,0,83,107.82V93.41L79,91.72a17.41,17.41,0,0,1-11.72,5,17.63,17.63,0,0,1-12.69-5.3L50.2,93.36l.34,14.81a59.37,59.37,0,0,0-.8,9.45A61,61,0,0,0,50.53,127.69Z"/><path class="cls-7" d="M78.45,140.89c3.11,5.22,7.06,9.67,8.8,14.43A51.7,51.7,0,0,1,89.44,165c3.69,23.25,7.39,99.07,5,122.49l-1.79,0q-4.89-.64-9.81-1.19a24.78,24.78,0,0,0-6.32-.16c-1.27.18-2.51.56-3.79.73a20.36,20.36,0,0,1-3.31.12c-6.94-.15-13.83-1.24-20.77-1.41-2.5-.06-5.24.09-7.1,1.76l-1.69,1.43-.53-1.26c-2.43-23.42,1.27-99.24,5-122.49a51.7,51.7,0,0,1,2.19-9.69c1.74-4.76,4.73-7.31,8.79-14.43"/><path class="cls-8" d="M82.3,61.56c-1.69,14.26-7.17,24.14-16,24.14s-13.21-10.83-16-24.14,7.17-17,16-17S83.89,48.13,82.3,61.56Z"/><path class="cls-9" d="M63.55,63.88a3.35,3.35,0,0,0-2.3-1.39,1.27,1.27,0,0,1,.4.89,1.9,1.9,0,0,1-3.69,0,1.28,1.28,0,0,1,.44-.93,4,4,0,0,0-1.42.48c-.43.25-1,.59-1,1l.75.33,1.18.6a3.11,3.11,0,0,0,1,.21l.59,0a4,4,0,0,0,.69,0l1.68-.25h0l1.23-.29A.5.5,0,0,0,63.55,63.88Z"/><path class="cls-10" d="M58,63.38a1.9,1.9,0,0,0,3.69,0,1.27,1.27,0,0,0-.4-.89,6.82,6.82,0,0,0-1.39-.14,9,9,0,0,0-1.46.1A1.28,1.28,0,0,0,58,63.38Zm1.75-.79a.74.74,0,1,1-.83.73A.79.79,0,0,1,59.71,62.59Z"/><ellipse cx="59.71" cy="63.32" rx="0.83" ry="0.73"/><path class="cls-11" d="M64.24,60.21c.14.31.07.63-.28.72a1.92,1.92,0,0,1-1.05-.16,10.45,10.45,0,0,0-2.83-.88A14.56,14.56,0,0,0,57.7,60c-1.16.13-2.31.53-3.47.66a10.62,10.62,0,0,1,9.89-.75Z"/><path class="cls-11" d="M68.2,60.21a.48.48,0,0,0,.28.72,1.92,1.92,0,0,0,1-.16,10.67,10.67,0,0,1,2.83-.88,14.68,14.68,0,0,1,2.39.14c1.15.13,2.31.53,3.46.66a10.6,10.6,0,0,0-9.88-.75Z"/><path class="cls-12" d="M55.37,64.19a1.16,1.16,0,0,1,1.1.18c.35.2.67.46,1,.65a4.57,4.57,0,0,0,2.34.35c.29,0,.29-.46,0-.45a6.46,6.46,0,0,1-1.32,0,3.31,3.31,0,0,1-1.21-.5c-.63-.41-1.39-1-2.16-.57-.26.13,0,.52.22.38Z"/><path class="cls-9" d="M69.32,63.88a3.35,3.35,0,0,1,2.3-1.39,1.27,1.27,0,0,0-.4.89,1.9,1.9,0,0,0,3.69,0,1.28,1.28,0,0,0-.44-.93,4,4,0,0,1,1.42.48c.43.25,1,.59,1,1l-.75.33-1.18.6a3.17,3.17,0,0,1-1,.21l-.59,0a4,4,0,0,1-.69,0L71,64.87h0l-1.23-.29A.5.5,0,0,1,69.32,63.88Z"/><path class="cls-10" d="M74.91,63.38a1.9,1.9,0,0,1-3.69,0,1.27,1.27,0,0,1,.4-.89A6.82,6.82,0,0,1,73,62.35a9,9,0,0,1,1.46.1A1.28,1.28,0,0,1,74.91,63.38Zm-1.75-.79a.74.74,0,1,0,.83.73A.79.79,0,0,0,73.16,62.59Z"/><ellipse cx="73.16" cy="63.32" rx="0.83" ry="0.73"/><path class="cls-12" d="M77.72,63.81c-.77-.42-1.53.16-2.16.57a3.31,3.31,0,0,1-1.21.5,6.46,6.46,0,0,1-1.32,0c-.29,0-.29.44,0,.45A4.58,4.58,0,0,0,75.37,65c.36-.19.68-.45,1-.65a1.16,1.16,0,0,1,1.1-.18c.25.14.48-.25.22-.38Z"/><path d="M65.83,66.89c-.5,3-.86,6.08-1.06,9.15a.37.37,0,0,0,.27.36,8.45,8.45,0,0,0,1.81.08c.48,0,.49-.79,0-.75a8.7,8.7,0,0,1-1.61,0l.28.36a86.64,86.64,0,0,1,1-9c.08-.47-.65-.68-.73-.2Z"/><path d="M62.82,80.74a12.4,12.4,0,0,0,3.93.48,6.9,6.9,0,0,0,3.35-1.36c.4-.27,0-.92-.38-.65a6,6,0,0,1-3.1,1.26A11.56,11.56,0,0,1,63,80a.38.38,0,0,0-.2.73Z"/><path class="cls-13" d="M69.47,45.37a11,11,0,0,1-3.4,7.45c-2.65,2.49-6.39,3.55-9,6a24,24,0,0,0-1.74,1.9,10.39,10.39,0,0,0-1,1.31,7.82,7.82,0,0,0-.78,2,31.74,31.74,0,0,0-.68,6.31c-.11,3-.23,12.1-.35,15.07l-.76,2.67A169.32,169.32,0,0,1,49.46,56.6c.14-3.62,1-7.52,3.34-10.25,1.6-1.84,3.89-2.89,6.11-3.89a12.84,12.84,0,0,1,2.16-.83,12.88,12.88,0,0,1,4-.23c1.71.09,3.71.41,4.49,1.93Z"/><path class="cls-13" d="M69.22,43.49a10.49,10.49,0,0,1,8.07-.7A9.3,9.3,0,0,1,82.82,48,12.66,12.66,0,0,1,83.57,51a39.22,39.22,0,0,1,.29,5.2c0,3.27,0,6.55-.07,9.82a28.3,28.3,0,0,1-.19,3.19c-.13,1-.37,2-.56,3C82.15,77,82.43,82,80.87,86.6l-.11-.78c-.29-3.41,0-12.07,0-15.49a21.33,21.33,0,0,0-2-10,7.83,7.83,0,0,0-1-1.49,9.87,9.87,0,0,0-1.41-1.33c-1.59-1.3-3.29-2.46-4.75-3.91A6.79,6.79,0,0,1,70,51.36c-.46-1.17-.37-2.51-.87-3.66Z"/><path class="cls-4" d="M84,58.78l-3.69,4.53a34.72,34.72,0,0,1-2.73,3.08,14.36,14.36,0,0,1-1.17,1,8.35,8.35,0,0,1-4,2,5.46,5.46,0,0,1-2.31-.18,1.75,1.75,0,0,1-.5-.23,1.42,1.42,0,0,1-.42-.49,4,4,0,0,1-.41-1,7.11,7.11,0,0,1-.11-1.72l0-2.8c1.46-.21,2.92-.41,4.36-.7s3-.67,4.48-1a40.81,40.81,0,0,0,4.62-1.36,3.45,3.45,0,0,0,1.35-.78c.13-.13.25-.3.43-.34"/><path class="cls-4" d="M83.49,58.25,79.62,63a24,24,0,0,1-4,4.09,6.09,6.09,0,0,1-5,1.48,1.33,1.33,0,0,1-1.11-1,4.74,4.74,0,0,1-.17-1.5c0-1,0-2.05,0-3.08l-.55.72A77.74,77.74,0,0,0,77.34,62c1.33-.34,2.67-.67,4-1.09A14.59,14.59,0,0,0,83,60.32c.51-.24.88-.73,1.36-1,.88-.39.12-1.69-.75-1.3-.45.21-.72.64-1.17.86a12.2,12.2,0,0,1-1.78.65c-1.31.41-2.64.74-4,1.08a78.1,78.1,0,0,1-8.15,1.57A.73.73,0,0,0,68,63c0,1.21-.1,2.45,0,3.66A4.13,4.13,0,0,0,69,69.42a4.3,4.3,0,0,0,2.91.75,7.09,7.09,0,0,0,3-.85,17,17,0,0,0,4.88-4.21c1.61-1.91,3.16-3.87,4.74-5.8.61-.74-.45-1.81-1.06-1.06Z"/><path class="cls-4" d="M64.39,65h4.84a.75.75,0,0,0,0-1.5H64.39a.75.75,0,0,0,0,1.5Z"/><path class="cls-4" d="M49.08,58.78l3.7,4.53a34.72,34.72,0,0,0,2.73,3.08,14.36,14.36,0,0,0,1.17,1,8.31,8.31,0,0,0,4,2A5.51,5.51,0,0,0,63,69.19a1.89,1.89,0,0,0,.5-.23,1.51,1.51,0,0,0,.41-.49,3.35,3.35,0,0,0,.41-1,7.12,7.12,0,0,0,.12-1.72l0-2.8c-1.46-.21-2.92-.41-4.36-.7s-3-.67-4.49-1a41.26,41.26,0,0,1-4.61-1.36,3.45,3.45,0,0,1-1.35-.78c-.13-.13-.25-.3-.44-.34"/><path class="cls-4" d="M48.55,59.31c1.55,1.9,3.08,3.82,4.66,5.69a16.86,16.86,0,0,0,5,4.32,7.1,7.1,0,0,0,2.88.84,4.5,4.5,0,0,0,3-.67,4,4,0,0,0,1.15-2.88c.07-1.21,0-2.45,0-3.66a.76.76,0,0,0-.55-.72,78.1,78.1,0,0,1-8.15-1.57c-1.28-.33-2.57-.65-3.84-1A14.84,14.84,0,0,1,50.8,59c-.5-.22-.79-.69-1.28-.91-.87-.39-1.64.91-.76,1.3.49.22.85.72,1.37,1a14.59,14.59,0,0,0,1.67.62c1.3.42,2.63.75,4,1.09a77.92,77.92,0,0,0,8.43,1.64L63.64,63c0,1,0,2,0,2.94s0,2.31-1.14,2.64c-1.82.54-3.67-.38-5.09-1.45a23.57,23.57,0,0,1-3.88-4l-4-4.85c-.61-.75-1.66.32-1.06,1.06Z"/><path class="cls-14" d="M80.19,49.05a2.9,2.9,0,0,0,.79.77c.31.17.66.27,1,.41l.55.28,1,.55c-.52-.31-.68-1-.9-1.53a5,5,0,0,0-1.14-1.69Z"/><path class="cls-14" d="M79,48.19a2.65,2.65,0,0,0-.31,1.06,9.68,9.68,0,0,0,.09,1.06c0,.2,0,.41,0,.62l0,1.12c0-.6.54-1,.93-1.51a5.11,5.11,0,0,0,1-1.79Z"/><path class="cls-14" d="M79.34,46.86a2.56,2.56,0,0,0-1.1.09,8.39,8.39,0,0,0-1,.45,5.83,5.83,0,0,1-.58.23l-1,.37a2.8,2.8,0,0,1,1.74.33,4.74,4.74,0,0,0,2,.28Z"/><path class="cls-14" d="M80.68,46.52a2.86,2.86,0,0,0-.67-.87,10.47,10.47,0,0,0-.91-.55,5.88,5.88,0,0,1-.51-.36l-.89-.67a2.77,2.77,0,0,1,.68,1.63,4.83,4.83,0,0,0,.88,1.84Z"/><path class="cls-14" d="M81.6,48.22a2.78,2.78,0,0,0,1-.38,10.22,10.22,0,0,0,.81-.69,4.41,4.41,0,0,1,.49-.36l.92-.65a2.69,2.69,0,0,1-1.76.14,5.12,5.12,0,0,0-2,.26Z"/><path class="cls-14" d="M81.55,47.41a2.87,2.87,0,0,0,.45-1,9.29,9.29,0,0,0,0-1.06c0-.2,0-.41.08-.61l.17-1.11c-.11.59-.67,1-1.12,1.37A4.91,4.91,0,0,0,80,46.64Z"/><path class="cls-15" d="M79.46,48.37a2.67,2.67,0,0,0,.21,1.08,10.4,10.4,0,0,0,.56.9c.1.18.19.36.28.55l.5,1a2.79,2.79,0,0,1,.13-1.77,4.79,4.79,0,0,0,0-2Z"/><path class="cls-15" d="M79.06,47.36a2.62,2.62,0,0,0-.85.7,10.45,10.45,0,0,0-.53.92,4.52,4.52,0,0,1-.34.51l-.65.92a2.79,2.79,0,0,1,1.61-.73,4.7,4.7,0,0,0,1.82-.93Z"/><path class="cls-15" d="M80.71,48.63a2.86,2.86,0,0,0,1.08.19,9.29,9.29,0,0,0,1-.21l.61-.07,1.12-.1c-.61,0-1.11-.42-1.61-.75a4.77,4.77,0,0,0-1.88-.77Z"/><path class="cls-15" d="M81.05,47a2.72,2.72,0,0,0,0-1.1,7.53,7.53,0,0,0-.41-1,5.84,5.84,0,0,1-.2-.59l-.33-1.07a2.69,2.69,0,0,1-.4,1.72,5,5,0,0,0-.37,2Z"/><path class="cls-15" d="M81.09,48a2.73,2.73,0,0,0,.89-.65,8.47,8.47,0,0,0,.58-.89c.12-.17.25-.33.38-.49l.7-.88a2.77,2.77,0,0,1-1.66.63,4.86,4.86,0,0,0-1.86.82Z"/><path class="cls-15" d="M80,46.77a2.58,2.58,0,0,0-.84-.7,8.6,8.6,0,0,0-1-.35,5.62,5.62,0,0,1-.56-.25l-1-.47c.54.27.75.91,1,1.46a4.9,4.9,0,0,0,1.25,1.61Z"/><circle class="cls-16" cx="80.24" cy="47.52" r="1.1"/><path class="cls-14" d="M74.07,46.29a2.72,2.72,0,0,0,.79.76c.31.18.66.27,1,.42a5.68,5.68,0,0,1,.55.28l1,.54c-.53-.3-.69-1-.91-1.52a4.88,4.88,0,0,0-1.13-1.69Z"/><path class="cls-14" d="M72.86,45.43a2.6,2.6,0,0,0-.31,1,9.28,9.28,0,0,0,.09,1.06c0,.21,0,.41,0,.62l0,1.12c0-.6.54-1.05.93-1.51a5,5,0,0,0,1-1.79Z"/><path class="cls-14" d="M73.22,44.09a2.92,2.92,0,0,0-1.1.09,8.46,8.46,0,0,0-1,.46l-.58.22-1,.38a2.73,2.73,0,0,1,1.74.33,4.9,4.9,0,0,0,2,.27Z"/><path class="cls-14" d="M74.56,43.75a2.67,2.67,0,0,0-.67-.86,10.57,10.57,0,0,0-.91-.56c-.18-.11-.34-.23-.5-.35l-.9-.68a2.8,2.8,0,0,1,.68,1.64,4.85,4.85,0,0,0,.88,1.83Z"/><path class="cls-14" d="M75.48,45.45a2.76,2.76,0,0,0,1-.37c.29-.2.53-.47.81-.69a4.49,4.49,0,0,1,.49-.37l.92-.64a2.76,2.76,0,0,1-1.76.13,5,5,0,0,0-2,.27Z"/><path class="cls-14" d="M75.43,44.64a2.83,2.83,0,0,0,.45-1,9.4,9.4,0,0,0,.05-1.06c0-.21,0-.41.08-.62l.17-1.11c-.1.6-.67,1-1.12,1.38a4.87,4.87,0,0,0-1.2,1.64Z"/><path class="cls-15" d="M73.34,45.6a2.63,2.63,0,0,0,.21,1.08c.15.32.38.6.56.91s.19.36.28.54l.5,1A2.76,2.76,0,0,1,75,47.38a4.84,4.84,0,0,0,0-2Z"/><path class="cls-15" d="M72.94,44.59a2.75,2.75,0,0,0-.85.7,10.63,10.63,0,0,0-.53.93c-.1.17-.22.34-.34.51l-.65.91a2.72,2.72,0,0,1,1.61-.72A5,5,0,0,0,74,46Z"/><path class="cls-15" d="M74.59,45.86a2.68,2.68,0,0,0,1.08.19,9.26,9.26,0,0,0,1-.2,6,6,0,0,1,.61-.08l1.12-.1a2.76,2.76,0,0,1-1.61-.75A4.77,4.77,0,0,0,75,44.15Z"/><path class="cls-15" d="M74.93,44.27a2.9,2.9,0,0,0,0-1.1,9.32,9.32,0,0,0-.42-1c-.07-.19-.14-.39-.2-.58L74,40.53a2.72,2.72,0,0,1-.4,1.73,4.9,4.9,0,0,0-.37,2Z"/><path class="cls-15" d="M75,45.22a2.69,2.69,0,0,0,.88-.65,7.55,7.55,0,0,0,.58-.89c.12-.17.25-.33.38-.49l.7-.88a2.78,2.78,0,0,1-1.66.64,4.78,4.78,0,0,0-1.86.82Z"/><path class="cls-15" d="M73.85,44a2.71,2.71,0,0,0-.84-.7A8.6,8.6,0,0,0,72,43c-.19-.07-.38-.16-.56-.24l-1-.47c.54.26.75.91,1,1.45a4.8,4.8,0,0,0,1.25,1.61Z"/><circle class="cls-16" cx="74.12" cy="44.76" r="1.1"/><path class="cls-14" d="M59.35,46.62a2.6,2.6,0,0,0,.79.76,8.5,8.5,0,0,0,1,.42,5.68,5.68,0,0,1,.55.28l1,.54c-.52-.3-.68-1-.91-1.52a4.92,4.92,0,0,0-1.13-1.69Z"/><path class="cls-14" d="M58.13,45.76a2.76,2.76,0,0,0-.3,1.06,9.63,9.63,0,0,0,.08,1.06c0,.2,0,.41,0,.61l0,1.13c0-.61.53-1.06.92-1.52a4.73,4.73,0,0,0,1-1.79Z"/><path class="cls-14" d="M58.49,44.43a2.66,2.66,0,0,0-1.09.08c-.34.12-.64.31-1,.46s-.38.15-.57.22l-1.06.38a2.79,2.79,0,0,1,1.74.33,5,5,0,0,0,2,.28Z"/><path class="cls-14" d="M59.84,44.09a2.63,2.63,0,0,0-.68-.87,10.47,10.47,0,0,0-.91-.55c-.17-.11-.34-.24-.5-.36l-.9-.68a2.74,2.74,0,0,1,.68,1.64,5.13,5.13,0,0,0,.88,1.84Z"/><path class="cls-14" d="M60.76,45.78a2.71,2.71,0,0,0,1-.37,8.93,8.93,0,0,0,.81-.69c.16-.13.33-.25.5-.37l.92-.64a2.79,2.79,0,0,1-1.77.14,4.8,4.8,0,0,0-2,.26Z"/><path class="cls-14" d="M60.71,45a2.68,2.68,0,0,0,.44-1,9.42,9.42,0,0,0,.06-1.06,6,6,0,0,1,.08-.61l.17-1.11c-.11.59-.67,1-1.12,1.37a5,5,0,0,0-1.2,1.64Z"/><path class="cls-15" d="M58.61,45.94A2.88,2.88,0,0,0,58.82,47a10.4,10.4,0,0,0,.56.9,5.77,5.77,0,0,1,.29.55l.49,1a2.79,2.79,0,0,1,.14-1.77,5,5,0,0,0,.05-2Z"/><path class="cls-15" d="M58.22,44.93a2.62,2.62,0,0,0-.85.7,7.58,7.58,0,0,0-.53.92c-.11.18-.23.34-.34.51l-.66.92a2.79,2.79,0,0,1,1.62-.73,5,5,0,0,0,1.81-.93Z"/><path class="cls-15" d="M59.86,46.2a2.69,2.69,0,0,0,1.09.18,9.53,9.53,0,0,0,1-.2l.61-.07L63.72,46a2.76,2.76,0,0,1-1.6-.75,5,5,0,0,0-1.89-.76Z"/><path class="cls-15" d="M60.21,44.61a2.72,2.72,0,0,0,0-1.1,9.59,9.59,0,0,0-.41-1c-.08-.2-.14-.39-.2-.59l-.33-1.07a2.78,2.78,0,0,1-.41,1.72,4.91,4.91,0,0,0-.36,2Z"/><path class="cls-15" d="M60.25,45.56a2.73,2.73,0,0,0,.89-.65,10.44,10.44,0,0,0,.58-.89,5.86,5.86,0,0,1,.37-.5l.7-.87a2.72,2.72,0,0,1-1.65.63,4.86,4.86,0,0,0-1.86.82Z"/><path class="cls-15" d="M59.13,44.34a2.72,2.72,0,0,0-.84-.71c-.32-.15-.68-.23-1-.35s-.38-.15-.57-.24l-1-.47c.55.27.75.91,1,1.45A4.93,4.93,0,0,0,58,45.63Z"/><circle class="cls-16" cx="59.39" cy="45.09" r="1.1"/><path class="cls-14" d="M52.53,50a2.72,2.72,0,0,0,.79.76c.31.18.66.27,1,.42a5.68,5.68,0,0,1,.55.28l1,.54c-.52-.3-.68-1-.9-1.52a4.9,4.9,0,0,0-1.14-1.69Z"/><path class="cls-14" d="M51.31,49.17a2.76,2.76,0,0,0-.3,1,9.28,9.28,0,0,0,.09,1.06c0,.21,0,.41,0,.62l0,1.12c0-.6.53-1.05.92-1.51a4.73,4.73,0,0,0,1-1.79Z"/><path class="cls-14" d="M51.68,47.83a2.92,2.92,0,0,0-1.1.09,8.46,8.46,0,0,0-1,.46L49,48.6,48,49a2.71,2.71,0,0,1,1.74.33,5,5,0,0,0,2,.27Z"/><path class="cls-14" d="M53,47.49a2.7,2.7,0,0,0-.68-.86,9.07,9.07,0,0,0-.9-.56c-.18-.11-.34-.23-.51-.35L50,45a2.8,2.8,0,0,1,.68,1.64,4.85,4.85,0,0,0,.88,1.83Z"/><path class="cls-14" d="M53.94,49.19a2.71,2.71,0,0,0,1-.37c.3-.2.54-.47.81-.69s.33-.25.5-.37l.92-.64a2.83,2.83,0,0,1-1.76.14,4.76,4.76,0,0,0-2,.26Z"/><path class="cls-14" d="M53.89,48.39a2.68,2.68,0,0,0,.44-1,7.54,7.54,0,0,0,.06-1.06c0-.21,0-.41.08-.61l.17-1.11c-.11.59-.67,1-1.12,1.37a4.87,4.87,0,0,0-1.2,1.64Z"/><path class="cls-15" d="M51.8,49.34A2.63,2.63,0,0,0,52,50.42a8.55,8.55,0,0,0,.56.91c.1.17.19.36.28.54l.5,1a2.69,2.69,0,0,1,.13-1.76,5,5,0,0,0,.05-2Z"/><path class="cls-15" d="M51.4,48.33a2.75,2.75,0,0,0-.85.7A10.63,10.63,0,0,0,50,50c-.1.17-.22.34-.34.51l-.65.91c.36-.48,1-.56,1.61-.72a5,5,0,0,0,1.81-.93Z"/><path class="cls-15" d="M53,49.6a2.73,2.73,0,0,0,1.09.19c1.18-.08,0,0,1-.2.21,0,.41-.06.62-.08l1.11-.1a2.76,2.76,0,0,1-1.6-.75,5,5,0,0,0-1.89-.77Z"/><path class="cls-15" d="M53.39,48a2.72,2.72,0,0,0,0-1.1,9.24,9.24,0,0,0-.41-1,5.66,5.66,0,0,1-.2-.58l-.33-1.07A2.78,2.78,0,0,1,52,46a4.89,4.89,0,0,0-.36,2Z"/><path class="cls-15" d="M53.43,49a2.59,2.59,0,0,0,.89-.65,9.07,9.07,0,0,0,.58-.89c.12-.17.24-.33.37-.49l.71-.87a2.84,2.84,0,0,1-1.66.63,4.86,4.86,0,0,0-1.86.82Z"/><path class="cls-15" d="M52.31,47.75a2.61,2.61,0,0,0-.84-.71,8.6,8.6,0,0,0-1-.35c-.19-.07-.38-.16-.56-.24l-1-.47c.54.26.75.91,1,1.45A4.77,4.77,0,0,0,51.13,49Z"/><circle class="cls-16" cx="52.58" cy="48.5" r="1.1"/><path class="cls-14" d="M66.41,44.73a2.67,2.67,0,0,0,.57.94,8.94,8.94,0,0,0,.84.65c.16.13.31.27.46.41l.81.78a2.88,2.88,0,0,1-.49-1.7,4.93,4.93,0,0,0-.66-1.93Z"/><path class="cls-14" d="M65.45,43.59a2.78,2.78,0,0,0-.56.95,9.06,9.06,0,0,0-.19,1,5.84,5.84,0,0,1-.15.6l-.3,1.08c.18-.57.78-.88,1.27-1.22a5.09,5.09,0,0,0,1.4-1.49Z"/><path class="cls-14" d="M66.14,42.39a2.86,2.86,0,0,0-1.08-.19,9.26,9.26,0,0,0-1,.2l-.61.07-1.12.09a2.84,2.84,0,0,1,1.6.76,4.79,4.79,0,0,0,1.88.78Z"/><path class="cls-14" d="M67.53,42.41a2.62,2.62,0,0,0-.44-1,7.67,7.67,0,0,0-.74-.77,5.71,5.71,0,0,1-.39-.47l-.7-.88A2.72,2.72,0,0,1,65.5,41a4.92,4.92,0,0,0,.39,2Z"/><path class="cls-14" d="M68,44.28a2.73,2.73,0,0,0,1.1-.1,9.36,9.36,0,0,0,1-.46,5.65,5.65,0,0,1,.57-.23l1-.39a2.72,2.72,0,0,1-1.74-.31,4.78,4.78,0,0,0-2-.26Z"/><path class="cls-14" d="M68.14,43.49a2.88,2.88,0,0,0,.69-.86c.14-.32.21-.68.32-1s.15-.39.23-.58l.45-1c-.26.55-.9.77-1.43,1.05a4.9,4.9,0,0,0-1.58,1.28Z"/><path class="cls-15" d="M65.87,43.88A2.72,2.72,0,0,0,65.8,45a9.21,9.21,0,0,0,.31,1c.06.2.1.4.14.6l.22,1.1A2.82,2.82,0,0,1,67.05,46a4.86,4.86,0,0,0,.56-2Z"/><path class="cls-15" d="M65.74,42.81a2.75,2.75,0,0,0-1,.46c-.27.22-.49.51-.74.76l-.46.41-.86.71a2.82,2.82,0,0,1,1.74-.29,4.7,4.7,0,0,0,2-.44Z"/><path class="cls-15" d="M67,44.45a2.75,2.75,0,0,0,1,.46,9.45,9.45,0,0,0,1.07.07l.61.08,1.11.19c-.6-.12-1-.68-1.37-1.14a4.92,4.92,0,0,0-1.63-1.22Z"/><path class="cls-15" d="M67.75,43A2.65,2.65,0,0,0,68,41.93a7.38,7.38,0,0,0-.15-1c0-.21,0-.41,0-.62l0-1.12a2.73,2.73,0,0,1-.83,1.56,5.06,5.06,0,0,0-.86,1.85Z"/><path class="cls-15" d="M67.55,43.93a2.66,2.66,0,0,0,1-.4,8.88,8.88,0,0,0,.79-.71c.16-.14.32-.26.49-.39l.9-.66A2.82,2.82,0,0,1,69,42a4.77,4.77,0,0,0-2,.32Z"/><path class="cls-15" d="M66.78,42.47a2.89,2.89,0,0,0-.64-.9,9.15,9.15,0,0,0-.89-.59l-.48-.38-.87-.71a2.76,2.76,0,0,1,.61,1.66,4.87,4.87,0,0,0,.8,1.87Z"/><circle class="cls-16" cx="66.85" cy="43.27" r="1.1"/><path class="cls-14" d="M46.67,55.21a2.76,2.76,0,0,0,.8.76,9.63,9.63,0,0,0,1,.42c.18.08.36.18.54.28l1,.54c-.52-.3-.69-1-.91-1.52A4.74,4.74,0,0,0,47.94,54Z"/><path class="cls-14" d="M45.46,54.35a2.77,2.77,0,0,0-.31,1c0,.36.07.71.09,1.06s0,.41,0,.62l0,1.12c0-.6.53-1.05.92-1.51a4.88,4.88,0,0,0,1-1.79Z"/><path class="cls-14" d="M45.82,53a2.92,2.92,0,0,0-1.1.09,9.36,9.36,0,0,0-1,.46l-.57.22-1.06.38a2.73,2.73,0,0,1,1.74.33,5,5,0,0,0,2,.27Z"/><path class="cls-14" d="M47.17,52.67a2.85,2.85,0,0,0-.68-.86,10.57,10.57,0,0,0-.91-.56l-.5-.35-.9-.68a2.8,2.8,0,0,1,.68,1.64,4.85,4.85,0,0,0,.88,1.83Z"/><path class="cls-14" d="M48.08,54.37a2.76,2.76,0,0,0,1-.37c.29-.2.54-.47.81-.69s.33-.25.49-.37l.93-.64a2.86,2.86,0,0,1-1.77.14,4.8,4.8,0,0,0-2,.26Z"/><path class="cls-14" d="M48,53.57a2.7,2.7,0,0,0,.45-1c.06-.35,0-.71.06-1.06s0-.41.07-.62l.17-1.11c-.1.6-.66,1-1.11,1.38a4.89,4.89,0,0,0-1.21,1.64Z"/><path class="cls-15" d="M45.94,54.52a2.81,2.81,0,0,0,.21,1.08c.15.32.38.6.56.91a5.61,5.61,0,0,1,.29.54l.49,1a2.82,2.82,0,0,1,.13-1.76,4.84,4.84,0,0,0,.05-2Z"/><path class="cls-15" d="M45.54,53.51a2.87,2.87,0,0,0-.85.7,10.53,10.53,0,0,0-.52.93l-.35.51-.65.91a2.75,2.75,0,0,1,1.62-.72,5,5,0,0,0,1.81-.93Z"/><path class="cls-15" d="M47.19,54.78a2.68,2.68,0,0,0,1.08.19,9.26,9.26,0,0,0,1-.2c.2,0,.41-.06.61-.08l1.12-.1a2.74,2.74,0,0,1-1.6-.75,5,5,0,0,0-1.89-.77Z"/><path class="cls-15" d="M47.54,53.19a2.72,2.72,0,0,0,0-1.1c-.1-.34-.28-.65-.41-1s-.14-.39-.2-.58l-.33-1.07a2.78,2.78,0,0,1-.41,1.72,4.89,4.89,0,0,0-.36,2Z"/><path class="cls-15" d="M47.58,54.14a2.84,2.84,0,0,0,.89-.65c.22-.27.38-.59.58-.89a5.72,5.72,0,0,1,.37-.49l.7-.87a2.81,2.81,0,0,1-1.65.63,5,5,0,0,0-1.87.82Z"/><path class="cls-15" d="M46.46,52.92a2.87,2.87,0,0,0-.85-.7,9.12,9.12,0,0,0-1-.35c-.2-.07-.38-.16-.57-.24l-1-.47c.54.26.75.91,1,1.45a4.93,4.93,0,0,0,1.25,1.61Z"/><circle class="cls-16" cx="46.72" cy="53.68" r="1.1"/><path class="cls-14" d="M85.41,54.67a2.6,2.6,0,0,0,.79.76,8.5,8.5,0,0,0,1,.42,5.68,5.68,0,0,1,.55.28l1,.54c-.52-.3-.68-1-.91-1.52a4.83,4.83,0,0,0-1.13-1.69Z"/><path class="cls-14" d="M84.19,53.81a2.76,2.76,0,0,0-.3,1A9.63,9.63,0,0,0,84,55.93c0,.2,0,.41,0,.61l0,1.12c0-.6.53-1,.92-1.51a4.73,4.73,0,0,0,1-1.79Z"/><path class="cls-14" d="M84.55,52.48a2.66,2.66,0,0,0-1.09.08c-.34.12-.64.31-1,.46-.18.08-.38.15-.57.22l-1.06.38A2.79,2.79,0,0,1,82.6,54a5,5,0,0,0,2,.28Z"/><path class="cls-14" d="M85.9,52.14a2.63,2.63,0,0,0-.68-.87,8.46,8.46,0,0,0-.91-.55c-.17-.11-.34-.24-.5-.36l-.9-.68a2.74,2.74,0,0,1,.68,1.64,5,5,0,0,0,.88,1.83Z"/><path class="cls-14" d="M86.82,53.83a2.71,2.71,0,0,0,1-.37,8.93,8.93,0,0,0,.81-.69c.16-.13.33-.25.5-.37l.92-.64a2.79,2.79,0,0,1-1.77.14,4.8,4.8,0,0,0-2,.26Z"/><path class="cls-14" d="M86.77,53a2.68,2.68,0,0,0,.44-1A9.42,9.42,0,0,0,87.27,51a4.07,4.07,0,0,1,.08-.61l.17-1.11c-.11.59-.67,1-1.12,1.37a5,5,0,0,0-1.2,1.64Z"/><path class="cls-15" d="M84.67,54a2.81,2.81,0,0,0,.21,1.08,9.23,9.23,0,0,0,.56.91,5.77,5.77,0,0,1,.29.55l.49,1a2.77,2.77,0,0,1,.14-1.76,5,5,0,0,0,0-2Z"/><path class="cls-15" d="M84.28,53a2.75,2.75,0,0,0-.85.7,8.56,8.56,0,0,0-.53.93l-.34.51L81.9,56a2.84,2.84,0,0,1,1.62-.72,5,5,0,0,0,1.81-.93Z"/><path class="cls-15" d="M85.92,54.25a2.69,2.69,0,0,0,1.09.18,9.53,9.53,0,0,0,1-.2c.2,0,.41,0,.61-.07l1.12-.11a2.76,2.76,0,0,1-1.6-.75,5,5,0,0,0-1.89-.77Z"/><path class="cls-15" d="M86.27,52.65a2.73,2.73,0,0,0,0-1.1c-.1-.34-.28-.65-.41-1a5.66,5.66,0,0,1-.2-.58l-.33-1.07a2.78,2.78,0,0,1-.41,1.72,4.89,4.89,0,0,0-.36,2Z"/><path class="cls-15" d="M86.31,53.61A2.88,2.88,0,0,0,87.2,53a10.61,10.61,0,0,0,.58-.9,5.72,5.72,0,0,1,.37-.49l.7-.87c-.38.46-1.06.5-1.65.63a4.86,4.86,0,0,0-1.86.82Z"/><path class="cls-15" d="M85.19,52.39a2.72,2.72,0,0,0-.84-.71c-.32-.15-.68-.23-1-.35l-.57-.24-1-.47c.55.27.75.91,1,1.45A4.93,4.93,0,0,0,84,53.68Z"/><circle class="cls-16" cx="85.45" cy="53.14" r="1.1"/><path class="cls-4" d="M66.82,155.33c-5.4.48-13.79-.87-18.37-3.79a1.27,1.27,0,0,1-.59-.62,1.32,1.32,0,0,1,.23-1,94.53,94.53,0,0,1,5.26-8.4c.91-1.3,1.91-2.82,1.51-4.36-.51-1.93-1.09-2.89-1.44-4.84A50.33,50.33,0,0,0,65.65,134a52.61,52.61,0,0,0,14.1-1.65c-1,.65-.79,2.41-1.43,4.84-.41,1.54.59,3.06,1.5,4.36a92.27,92.27,0,0,1,5.26,8.4,1,1,0,0,1-.36,1.59c-4.57,2.92-11.54,4.27-17,3.79Z"/><path class="cls-6" d="M65.26,136.08a7.77,7.77,0,0,0,1.48,1.44c.42.38.74.86,1.14,1.26a.38.38,0,0,0,.53-.53c-.39-.39-.71-.85-1.11-1.23l-.76-.64a3.09,3.09,0,0,1-.63-.68.38.38,0,0,0-.65.38Z"/><path class="cls-6" d="M65.74,138.67a5.31,5.31,0,0,0,.81-.6c.23-.23.4-.52.6-.75a12.6,12.6,0,0,0,1.23-1.3.37.37,0,1,0-.64-.38,1.54,1.54,0,0,1-.23.29c-.09.1-.2.19-.3.29a6.33,6.33,0,0,0-.59.57c-.21.23-.36.5-.57.72a4.61,4.61,0,0,1-.69.52.37.37,0,0,0-.13.51.36.36,0,0,0,.51.13Z"/><path class="cls-6" d="M65.26,140.36a8.08,8.08,0,0,0,1.48,1.44c.42.38.74.85,1.14,1.25s.87-.18.53-.53-.71-.85-1.11-1.22c-.25-.23-.51-.43-.76-.64a3.61,3.61,0,0,1-.63-.68.38.38,0,1,0-.65.38Z"/><path class="cls-6" d="M65.74,143a5.37,5.37,0,0,0,.81-.61c.23-.22.4-.52.6-.75a12.5,12.5,0,0,0,1.23-1.29.37.37,0,1,0-.64-.38,1.49,1.49,0,0,1-.23.28,4.11,4.11,0,0,1-.3.29,7.94,7.94,0,0,0-.59.57c-.21.24-.36.51-.57.72a4,4,0,0,1-.69.52.38.38,0,0,0,.38.65Z"/><path class="cls-6" d="M65.26,144.16a8.08,8.08,0,0,0,1.48,1.44c.42.38.74.85,1.14,1.25s.87-.18.53-.53-.71-.85-1.11-1.22c-.25-.23-.51-.43-.76-.65a3.29,3.29,0,0,1-.63-.67.38.38,0,1,0-.65.38Z"/><path class="cls-6" d="M65.74,146.75a6.13,6.13,0,0,0,.81-.61c.23-.22.4-.52.6-.75a12.5,12.5,0,0,0,1.23-1.29.37.37,0,1,0-.64-.38,1.49,1.49,0,0,1-.23.28,4.11,4.11,0,0,1-.3.29,7.94,7.94,0,0,0-.59.57c-.21.24-.36.51-.57.72a4,4,0,0,1-.69.52.38.38,0,0,0,.38.65Z"/><path class="cls-6" d="M65.26,148a8.08,8.08,0,0,0,1.48,1.44c.42.38.74.85,1.14,1.25s.87-.19.53-.53-.71-.85-1.11-1.22c-.25-.23-.51-.43-.76-.65a3.29,3.29,0,0,1-.63-.67.38.38,0,1,0-.65.38Z"/><path class="cls-6" d="M65.74,150.55a6.13,6.13,0,0,0,.81-.61c.23-.22.4-.52.6-.75a11.66,11.66,0,0,0,1.23-1.3.37.37,0,0,0-.13-.51.39.39,0,0,0-.51.14,1.89,1.89,0,0,1-.23.28,4.11,4.11,0,0,1-.3.29,7.94,7.94,0,0,0-.59.57c-.21.24-.36.51-.57.72a4,4,0,0,1-.69.52.38.38,0,0,0,.38.65Z"/><path class="cls-6" d="M65.26,151.76a8.08,8.08,0,0,0,1.48,1.44c.42.38.74.85,1.14,1.25a.38.38,0,0,0,.53-.53c-.39-.39-.71-.85-1.11-1.22-.25-.23-.51-.43-.76-.65a3.29,3.29,0,0,1-.63-.67.38.38,0,1,0-.65.38Z"/><path class="cls-6" d="M65.74,154.35a6.13,6.13,0,0,0,.81-.61c.23-.22.4-.52.6-.75a11.66,11.66,0,0,0,1.23-1.3.37.37,0,1,0-.64-.37,1.89,1.89,0,0,1-.23.28,4.11,4.11,0,0,1-.3.29,6.33,6.33,0,0,0-.59.57c-.21.24-.36.51-.57.72a4,4,0,0,1-.69.52.38.38,0,0,0,.38.65Z"/><path class="cls-17" d="M78.85,91.72c-1.95,2-2.65,4.16-4.31,6.42a37.59,37.59,0,0,0-3.15,4.27c-.12.22-.26.47-.49.48s-.41-.24-.54-.47c-.82-1.44-1.72-2.81-2.63-4.18-.35-.53-.7-1.06-1-1.59a16.28,16.28,0,0,0,5.37-.84A16,16,0,0,0,78.85,91.72Z"/><path class="cls-17" d="M54.81,91.18c1.95,2,2.65,4.7,4.31,7a37.59,37.59,0,0,1,3.15,4.27c.11.22.26.47.48.48s.42-.24.55-.47c.81-1.44,1.72-2.81,2.62-4.18l1-1.59a16.37,16.37,0,0,1-5.38-.84A15.92,15.92,0,0,1,54.81,91.18Z"/><rect class="cls-18" width="138" height="300"/></g></g></svg>