<svg xmlns="http://www.w3.org/2000/svg" viewBox="0 0 83.91 130.18"><defs><style>.cls-1{fill:#fff;}.cls-2{fill:none;stroke:#fff;stroke-miterlimit:10;stroke-width:2px;}</style></defs><title>perseus</title><g id="Layer_2" data-name="Layer 2"><g id="perseus"><circle class="cls-1" cx="12.45" cy="23.51" r="3.45"/><circle class="cls-1" cx="80.45" cy="22.51" r="3.45"/><circle class="cls-1" cx="79.45" cy="68.84" r="3.45"/><circle class="cls-1" cx="59.45" cy="51.84" r="3.45"/><circle class="cls-1" cx="68.45" cy="32.84" r="4.33"/><circle class="cls-1" cx="31.45" cy="43.84" r="4.33"/><circle class="cls-1" cx="7.45" cy="76.84" r="4.33"/><circle class="cls-1" cx="62.45" cy="123.84" r="4.33"/><circle class="cls-1" cx="7.45" cy="125.84" r="4.33"/><circle class="cls-1" cx="58.27" cy="106.27" r="5.49"/><circle class="cls-1" cx="48.45" cy="42.84" r="5.33"/><circle class="cls-1" cx="56.45" cy="82.84" r="3.45"/><circle class="cls-1" cx="3.45" cy="98.84" r="3.45"/><circle class="cls-1" cx="21.45" cy="70.84" r="3.45"/><line class="cls-2" x1="13.32" y1="23.51" x2="31.32" y2="44.51"/><line class="cls-2" x1="48.32" y1="43.51" x2="29.32" y2="44.51"/><line class="cls-2" x1="69.32" y1="32.51" x2="49.32" y2="42.51"/><line class="cls-2" x1="80.32" y1="21.51" x2="69.32" y2="31.51"/><line class="cls-2" x1="59.32" y1="52.51" x2="50.32" y2="45.51"/><line class="cls-2" x1="79.32" y1="68.51" x2="59.32" y2="52.51"/><line class="cls-2" x1="56.32" y1="82.51" x2="48.32" y2="43.51"/><line class="cls-2" x1="21.32" y1="71.51" x2="31.32" y2="43.51"/><line class="cls-2" x1="7.32" y1="76.51" x2="21.32" y2="70.51"/><line class="cls-2" x1="3.32" y1="99.51" x2="7.32" y2="76.51"/><line class="cls-2" x1="7.32" y1="126.51" x2="3.32" y2="98.51"/><line class="cls-2" x1="58.32" y1="106.51" x2="56.32" y2="82.51"/><line class="cls-2" x1="62.32" y1="124.51" x2="58.32" y2="106.51"/><path class="cls-1" d="M7.51.88V0h3.08V1.21h-.22Zm3.3,12.65,2.86.33v.88H7.51v-.88l2.86-.33ZM9.6,6.82c0-2.27,0-4.55-.07-6.82h2.11c-.06,2.22-.06,4.51-.06,6.82V8.16c0,2.25,0,4.32.06,6.58H9.53c.07-2.22.07-4.51.07-6.82Zm3.17,2.09H10.59v-1H13.1c2.7,0,3.76-1.43,3.76-3.52S15.67,1,13,1H10.59V0h2.84C17.08,0,19,1.8,19,4.38S17.26,8.91,12.77,8.91Z"/><path class="cls-1" d="M29.11,8.23A4.31,4.31,0,0,1,29,9.46H20.84V8.54h5.24c1.05,0,1.3-.51,1.3-1.12A2.44,2.44,0,0,0,24.93,5c-1.41,0-3,1.19-3,4.33,0,2.8,1.4,4.29,3.6,4.29a3.85,3.85,0,0,0,3.09-1.56l.5.4A4.47,4.47,0,0,1,24.89,15C21.94,15,20,13,20,9.64S22.31,4,25,4A3.92,3.92,0,0,1,29.11,8.23Z"/><path class="cls-1" d="M32.81,10.12v-1c0-1.21,0-1.89-.07-2.77L31,6.12V5.35L34,4l.33.22L34.57,7v3.12c0,1.37,0,3.63.06,4.62H32.74C32.79,13.75,32.81,11.49,32.81,10.12ZM31.16,14l2.42-.44H34l2.42.44v.77H31.16Zm2.53-6.82h1.25l-.55.15c.71-2,2-3.27,3.35-3.27a1.9,1.9,0,0,1,1.56.74c0,1-.4,1.61-1.28,1.61a2,2,0,0,1-1.32-.53l-.59-.5,1.08-.22a5.24,5.24,0,0,0-2.67,3.5h-.83Z"/><path class="cls-1" d="M40.38,14.19l-.09-2.4h1.16l.6,2.6L41,13.88v-.74a4.21,4.21,0,0,0,2.71.9c1.69,0,2.48-.68,2.48-1.7s-.66-1.43-2-1.93l-1-.38c-1.6-.59-2.66-1.45-2.66-2.95s1.34-3,3.79-3a5.6,5.6,0,0,1,3.05.9L47.2,7.15H46.1l-.44-2.22.79.35v.57A3.6,3.6,0,0,0,44.2,5c-1.36,0-2.06.59-2.06,1.52s.55,1.36,2,1.91l.66.24c2.2.82,3,1.85,3,3.21,0,1.63-1.43,3.13-4.25,3.13A6.67,6.67,0,0,1,40.38,14.19Z"/><path class="cls-1" d="M58.86,8.23a4.26,4.26,0,0,1-.16,1.23H50.58V8.54h5.24c1.06,0,1.3-.51,1.3-1.12A2.44,2.44,0,0,0,54.68,5c-1.41,0-3,1.19-3,4.33,0,2.8,1.41,4.29,3.61,4.29a3.81,3.81,0,0,0,3.08-1.56l.51.4A4.49,4.49,0,0,1,54.63,15c-3,0-4.86-2-4.86-5.39S52.06,4,54.79,4A3.93,3.93,0,0,1,58.86,8.23Z"/><path class="cls-1" d="M63.78,10.85c0,2,.58,2.64,1.79,2.64a4.84,4.84,0,0,0,3.36-1.65h.46V13H68.27l.77-.33A5.22,5.22,0,0,1,64.86,15C63.1,15,62,14,62,11.07l.07-5.81.46.42-2-.44V4.47l3.16-.29.22.22-.11,3.08ZM69,14.92l-.31-2.58.07-7.08.46.42-2-.44V4.47l3.13-.29.22.22-.07,3.08v6.58l-.53-.53L72,14v.77Z"/><path class="cls-1" d="M73.9,14.19l-.08-2.4H75l.6,2.6-1.08-.51v-.74a4.19,4.19,0,0,0,2.7.9c1.7,0,2.49-.68,2.49-1.7s-.66-1.43-2-1.93l-1-.38C75,9.44,74,8.58,74,7.08s1.34-3,3.78-3a5.61,5.61,0,0,1,3.06.9l-.09,2.22h-1.1l-.44-2.22.8.35v.57A3.62,3.62,0,0,0,77.73,5c-1.36,0-2.07.59-2.07,1.52s.55,1.36,2,1.91l.66.24c2.2.82,3,1.85,3,3.21C81.41,13.53,80,15,77.16,15A6.73,6.73,0,0,1,73.9,14.19Z"/></g></g></svg>