<svg xmlns="http://www.w3.org/2000/svg" viewBox="0 0 231.37 72.43"><defs><style>.cls-1{fill:#fff;}.cls-2{fill:none;stroke:#fff;stroke-miterlimit:10;stroke-width:2px;}</style></defs><title>pisces</title><g id="Layer_2" data-name="Layer 2"><g id="Layer_4" data-name="Layer 4"><circle class="cls-1" cx="3.45" cy="5.54" r="3.45"/><circle class="cls-1" cx="29.45" cy="38.54" r="3.45"/><circle class="cls-1" cx="51.45" cy="67.54" r="4.89"/><circle class="cls-1" cx="67.92" cy="58.45" r="3.45"/><circle class="cls-1" cx="105.92" cy="44.45" r="3.45"/><circle class="cls-1" cx="125.92" cy="42.45" r="3.45"/><circle class="cls-1" cx="174.92" cy="23.45" r="3.45"/><circle class="cls-1" cx="194.92" cy="16.45" r="3.45"/><circle class="cls-1" cx="194.92" cy="3.45" r="3.45"/><circle class="cls-1" cx="223.92" cy="6.45" r="3.45"/><circle class="cls-1" cx="227.92" cy="34.45" r="3.45"/><line class="cls-2" x1="3.34" y1="5.76" x2="29.34" y2="38.76"/><line class="cls-2" x1="51.34" y1="68.76" x2="29.34" y2="38.76"/><line class="cls-2" x1="67.34" y1="58.76" x2="51.34" y2="68.76"/><line class="cls-2" x1="105.34" y1="44.76" x2="67.34" y2="58.76"/><line class="cls-2" x1="125.34" y1="42.76" x2="106.34" y2="44.76"/><line class="cls-2" x1="175.34" y1="23.76" x2="126.34" y2="42.76"/><line class="cls-2" x1="194.34" y1="16.76" x2="175.34" y2="23.76"/><line class="cls-2" x1="195.34" y1="3.76" x2="195.34" y2="16.76"/><line class="cls-2" x1="224.34" y1="6.76" x2="195.34" y2="3.76"/><line class="cls-2" x1="227.34" y1="34.76" x2="224.34" y2="6.76"/><line class="cls-2" x1="194.34" y1="16.76" x2="227.34" y2="34.76"/><path class="cls-1" d="M38.44,23.05v-.88h3.08v1.21H41.3Zm3.3,12.66L44.6,36v.88H38.44V36l2.86-.33ZM40.53,29c0-2.27,0-4.56-.06-6.83h2.11c-.07,2.23-.07,4.52-.07,6.83v1.34c0,2.24,0,4.31.07,6.58H40.47c.06-2.23.06-4.51.06-6.82Zm3.17,2.09H41.52v-1H44c2.71,0,3.76-1.43,3.76-3.52s-1.19-3.36-3.85-3.36H41.52v-1h2.84c3.65,0,5.52,1.81,5.52,4.38S48.19,31.09,43.7,31.09Z"/><path class="cls-1" d="M52.83,36.92c0-1,.06-3.26.06-4.62v-1c0-1.21,0-1.89-.06-2.77L51,28.29v-.77l3.33-1.32.33.22-.07,3V32.3c0,1.36,0,3.63.07,4.62Zm3.39-.77v.77H51.16v-.77l2.42-.44H54ZM52.28,22.33a1.45,1.45,0,1,1,1.45,1.38A1.37,1.37,0,0,1,52.28,22.33Z"/><path class="cls-1" d="M58.06,36.37,58,34h1.16l.6,2.59-1.08-.5v-.75a4.13,4.13,0,0,0,2.7.9c1.7,0,2.49-.68,2.49-1.69s-.66-1.43-2.05-1.94l-1-.37c-1.6-.6-2.66-1.45-2.66-2.95s1.34-3.06,3.78-3.06a5.61,5.61,0,0,1,3.06.9l-.08,2.23h-1.1l-.45-2.23.8.36V28a3.64,3.64,0,0,0-2.25-.84c-1.36,0-2.07.6-2.07,1.52s.55,1.36,2,1.91l.66.25c2.2.81,3,1.84,3,3.21,0,1.63-1.43,3.12-4.25,3.12A6.72,6.72,0,0,1,58.06,36.37Z"/><path class="cls-1" d="M69.22,31.53c0,2.77,1.47,4.29,3.54,4.29a3.55,3.55,0,0,0,3.08-1.72l.53.26A3.94,3.94,0,0,1,72.3,37.2c-3,0-4.91-2.11-4.91-5.48s2.42-5.52,5-5.52A3.75,3.75,0,0,1,76.3,29a.91.91,0,0,1-1,.81,1.13,1.13,0,0,1-1.16-1l-.55-1.93,1,.81a4.67,4.67,0,0,0-2.11-.55C70.58,27.19,69.22,28.71,69.22,31.53Z"/><path class="cls-1" d="M87.24,30.4a4.39,4.39,0,0,1-.16,1.24H79v-.93H84.2c1.06,0,1.3-.5,1.3-1.12a2.45,2.45,0,0,0-2.44-2.4c-1.41,0-3,1.19-3,4.34,0,2.79,1.41,4.29,3.61,4.29a3.81,3.81,0,0,0,3.08-1.56l.51.39A4.49,4.49,0,0,1,83,37.2c-3,0-4.86-2-4.86-5.39s2.29-5.61,5-5.61A3.93,3.93,0,0,1,87.24,30.4Z"/><path class="cls-1" d="M89.48,36.37,89.39,34h1.17l.59,2.59-1.08-.5v-.75a4.16,4.16,0,0,0,2.71.9c1.69,0,2.49-.68,2.49-1.69s-.66-1.43-2-1.94l-1-.37c-1.61-.6-2.66-1.45-2.66-2.95s1.34-3.06,3.78-3.06a5.63,5.63,0,0,1,3.06.9l-.09,2.23H95.2l-.44-2.23.79.36V28a3.59,3.59,0,0,0-2.24-.84c-1.37,0-2.07.6-2.07,1.52s.55,1.36,2.05,1.91l.66.25c2.2.81,3,1.84,3,3.21,0,1.63-1.43,3.12-4.24,3.12A6.7,6.7,0,0,1,89.48,36.37Z"/></g></g></svg>