<?xml version="1.0" encoding="utf-8"?>
<!-- Generator: Adobe Illustrator 24.0.2, SVG Export Plug-In . SVG Version: 6.00 Build 0)  -->
<svg version="1.1" id="Layer_1" xmlns="http://www.w3.org/2000/svg" xmlns:xlink="http://www.w3.org/1999/xlink" x="0px" y="0px"
	 viewBox="0 0 170 400" style="enable-background:new 0 0 170 400;" xml:space="preserve">
<style type="text/css">
	.st0{fill:#914B17;}
	.st1{fill:#BA6523;}
	.st2{fill:#F9B017;}
	.st3{fill:#020203;}
</style>
<g>
	<g>
		<path class="st0" d="M143.7,360.9c0,16.2-30.5,29.3-68.1,29.3s-62.8-11.6-68.1-29.3v-54.9h136.1V360.9z"/>
		<ellipse class="st1" cx="75.6" cy="307.4" rx="68.1" ry="24.9"/>
	</g>
	<path class="st2" d="M127.3,368.6c-10.9,4.2-29,9.7-51.9,9.6c-22.7,0-40.6-5.4-51.5-9.6c0-11.5,0-23.1,0-34.6
		c10.6,4.3,28.5,10.1,51.5,10.1c23.2,0,41.3-5.8,51.9-10.1C127.3,345.5,127.3,357,127.3,368.6z"/>
</g>
<g>
	<path class="st3" d="M34.7,361.6c-0.3,0.4-0.6,0.7-0.9,0.9c-0.4,0.2-0.7,0.4-1.1,0.5c-0.4,0.1-0.8,0.2-1.2,0.2
		c-0.4,0-0.8-0.1-1.1-0.2c-0.7-0.2-1.3-0.6-1.8-1.1c-0.5-0.6-1-1.2-1.3-2.1c-0.3-0.8-0.6-1.7-0.7-2.7c-0.1-1-0.2-2-0.1-3.1
		c0.1-0.8,0.2-1.6,0.4-2.4c0.2-0.8,0.4-1.5,0.7-2.1c0.3-0.6,0.6-1.2,1-1.7c0.4-0.5,0.8-0.9,1.2-1.2c0.4-0.3,0.9-0.5,1.4-0.6
		c0.5-0.1,1-0.1,1.5,0.1c0.2,0.1,0.4,0.1,0.6,0.2c0.2,0.1,0.4,0.2,0.7,0.3c0.2,0.1,0.4,0.3,0.6,0.5c0.2,0.2,0.4,0.4,0.5,0.6
		l-0.6,4.3c-0.2-0.2-0.5-0.4-0.8-0.6c-0.3-0.1-0.5-0.2-0.8-0.3c-0.4-0.1-0.7-0.1-1.1,0c-0.3,0.1-0.6,0.3-0.9,0.5
		c-0.3,0.3-0.5,0.6-0.7,1.1c-0.2,0.5-0.3,1-0.4,1.6c0,0.4,0,0.8,0,1.2c0,0.4,0.1,0.7,0.2,1.1c0.1,0.3,0.2,0.6,0.4,0.8
		c0.2,0.2,0.4,0.4,0.7,0.5c0.2,0.1,0.4,0.1,0.6,0c0.2,0,0.4-0.1,0.5-0.2l0.1-0.9l-1.7-0.5l0.4-3.4c0.7,0.2,1.4,0.3,2.1,0.5
		c0.7,0.2,1.4,0.3,2.1,0.5L34.7,361.6z"/>
	<path class="st3" d="M44.3,358.1c0,0.7-0.1,1.3-0.3,2c-0.1,0.6-0.3,1.2-0.6,1.7c-0.2,0.5-0.5,1-0.8,1.4c-0.3,0.4-0.6,0.7-1,1
		c-0.4,0.3-0.7,0.4-1.1,0.5c-0.4,0.1-0.8,0.1-1.3,0c-0.4-0.1-0.8-0.3-1.2-0.5c-0.4-0.3-0.7-0.6-1-1c-0.3-0.4-0.6-0.8-0.8-1.4
		c-0.2-0.5-0.4-1.1-0.6-1.6c-0.2-0.6-0.3-1.2-0.3-1.9c-0.1-0.6-0.1-1.3,0-2c0-0.7,0.1-1.3,0.3-1.9c0.1-0.6,0.3-1.2,0.6-1.7
		c0.2-0.5,0.5-1,0.8-1.4c0.3-0.4,0.6-0.7,1-1c0.3-0.3,0.7-0.4,1.1-0.5c0.4-0.1,0.8-0.1,1.2,0c0.7,0.2,1.3,0.5,1.8,1
		c0.5,0.5,1,1.1,1.3,1.8c0.3,0.7,0.6,1.6,0.8,2.5C44.3,355.9,44.3,357,44.3,358.1z M41.1,357.6c0-0.3,0-0.6,0-1s-0.1-0.6-0.2-0.9
		c-0.1-0.3-0.2-0.5-0.4-0.7c-0.2-0.2-0.3-0.3-0.6-0.4c-0.2-0.1-0.4,0-0.6,0.1c-0.2,0.1-0.3,0.2-0.5,0.4c-0.1,0.2-0.3,0.4-0.3,0.7
		c-0.1,0.3-0.1,0.6-0.2,0.9c0,0.3,0,0.6,0,1c0,0.3,0.1,0.6,0.2,0.9c0.1,0.3,0.2,0.5,0.4,0.7c0.2,0.2,0.3,0.3,0.6,0.4
		c0.2,0.1,0.4,0,0.6-0.1c0.2-0.1,0.3-0.3,0.5-0.5c0.1-0.2,0.3-0.5,0.3-0.8C41,358.3,41.1,358,41.1,357.6z"/>
	<path class="st3" d="M52.6,358.5c-0.1,1.1-0.2,2-0.4,2.8c-0.2,0.8-0.5,1.5-0.8,2.2c-0.3,0.6-0.7,1.1-1.2,1.5
		c-0.4,0.4-0.9,0.7-1.4,0.9c-0.5,0.2-1.1,0.4-1.6,0.4c-0.6,0-1.1,0-1.7-0.1c-0.2,0-0.4-0.1-0.6-0.1c-0.2-0.1-0.4-0.1-0.6-0.2l1-15.3
		c0.5-0.2,1.1-0.3,1.6-0.3c0.6,0,1.1,0,1.6,0.1c0.7,0.1,1.3,0.4,1.8,0.8c0.5,0.4,1,1,1.4,1.7s0.7,1.5,0.8,2.4
		C52.6,356.4,52.7,357.4,52.6,358.5z M49.7,358.8c0-0.4,0-0.8,0-1.2c0-0.4-0.1-0.7-0.2-1.1c-0.1-0.3-0.3-0.6-0.5-0.8
		c-0.2-0.2-0.4-0.4-0.7-0.4l-0.6,7c0.3,0,0.5-0.1,0.8-0.3c0.2-0.2,0.5-0.4,0.6-0.8c0.2-0.3,0.3-0.7,0.4-1.1c0.1-0.4,0.2-0.8,0.2-1.3
		L49.7,358.8z"/>
	<path class="st3" d="M64.3,360.9c0,0.7-0.1,1.4-0.2,2c-0.1,0.6-0.3,1.2-0.5,1.8s-0.4,1-0.7,1.5c-0.3,0.4-0.6,0.8-0.9,1.1
		c-0.3,0.3-0.7,0.5-1.1,0.7c-0.4,0.1-0.8,0.2-1.2,0.2c-0.4,0-0.8-0.2-1.2-0.4c-0.4-0.2-0.7-0.5-1.1-0.9c-0.3-0.4-0.6-0.8-0.9-1.2
		c-0.3-0.5-0.5-1-0.7-1.6c-0.2-0.6-0.3-1.2-0.4-1.8c-0.1-0.6-0.1-1.3-0.1-2c0-0.7,0.1-1.3,0.2-1.9c0.1-0.6,0.3-1.2,0.5-1.8
		c0.2-0.5,0.4-1,0.7-1.5c0.3-0.4,0.6-0.8,0.9-1.1s0.7-0.5,1.1-0.7c0.4-0.2,0.8-0.2,1.2-0.2c0.7,0.1,1.3,0.3,1.9,0.7
		c0.6,0.4,1,0.9,1.4,1.6c0.4,0.7,0.7,1.5,0.9,2.4C64.3,358.8,64.3,359.8,64.3,360.9z M61.2,360.9c0-0.3,0-0.7-0.1-1
		c-0.1-0.3-0.1-0.6-0.2-0.9c-0.1-0.3-0.2-0.5-0.4-0.6c-0.2-0.2-0.4-0.3-0.6-0.3c-0.2,0-0.4,0-0.6,0.1c-0.2,0.1-0.3,0.3-0.5,0.5
		c-0.1,0.2-0.2,0.5-0.3,0.8c-0.1,0.3-0.1,0.6-0.1,0.9c0,0.3,0,0.6,0.1,1c0,0.3,0.1,0.6,0.2,0.9c0.1,0.3,0.2,0.5,0.4,0.7
		c0.2,0.2,0.4,0.3,0.6,0.3c0.2,0,0.4,0,0.6-0.1s0.3-0.3,0.5-0.5c0.1-0.2,0.2-0.5,0.3-0.8C61.1,361.5,61.2,361.2,61.2,360.9z"/>
	<path class="st3" d="M71.4,352.8c0,0.7-0.1,1.4-0.1,2.1c0,0.7-0.1,1.4-0.1,2.1l-3,0.1l0,1.5l2.6,0.1l-0.2,3.6l-2.5,0l0,6.8
		l-3.6-0.1l0.3-16.6L71.4,352.8z"/>
	<path class="st3" d="M81.6,352.9l0,4.9l-2.1,0.2l-0.3,10.9l-3,0.3l-0.2-10.9l-2.1,0.2l0-5.4L81.6,352.9z"/>
	<path class="st3" d="M90.8,368.8l-3.5,0.5L87,364l-1.6,0.1l0.1,5l-3.2,0.2l-0.4-16.2l3.4,0l0.1,8.3l1.6-0.1l-0.4-8.9l3.2-0.1
		L90.8,368.8z"/>
	<path class="st3" d="M97.1,351.4c0,0.7,0,1.4,0.1,2.1c0,0.7,0,1.4,0,2.1l-3,0.6l0,1.5l2.1-0.2l0.1,3.6l-2.1,0.4l0,1.7l1.7-0.2
		l1.2-0.1c0,0.8,0,1.7,0.1,2.5c0,0.8,0,1.7,0.1,2.5l-6,0.9l-0.8-16.6L97.1,351.4z"/>
	<path class="st3" d="M107.9,360.1c0.1,1,0.1,2-0.1,2.8c-0.2,0.8-0.4,1.5-0.7,2.1c-0.3,0.6-0.8,1.1-1.2,1.4c-0.5,0.4-1,0.6-1.6,0.7
		c-0.2,0-0.5,0-0.8,0c-0.3,0-0.6-0.1-0.9-0.2c-0.3-0.1-0.6-0.2-0.8-0.3c-0.3-0.1-0.5-0.2-0.7-0.4l-0.1-4.8c0.4,0.3,0.9,0.5,1.4,0.6
		c0.5,0.1,1,0.1,1.4,0c0.1,0,0.2,0,0.3-0.1c0.1,0,0.2-0.1,0.4-0.2c0.1-0.1,0.2-0.2,0.3-0.3c0.1-0.1,0.1-0.3,0.1-0.5
		c0-0.1-0.1-0.3-0.1-0.4c-0.1-0.1-0.1-0.2-0.2-0.2c-0.1,0-0.2-0.1-0.3-0.1s-0.2,0-0.3,0c-0.1,0-0.2,0-0.3,0c-0.1,0-0.2,0-0.2,0
		c-0.4,0.1-0.8,0-1.1-0.1c-0.3-0.2-0.7-0.4-0.9-0.8c-0.3-0.4-0.5-0.8-0.7-1.4s-0.3-1.1-0.4-1.8c-0.1-0.9,0-1.7,0.1-2.5
		c0.2-0.8,0.4-1.4,0.7-2c0.3-0.6,0.7-1,1.2-1.4c0.5-0.4,0.9-0.6,1.5-0.7c0.2,0,0.5-0.1,0.7-0.1c0.2,0,0.5,0,0.7,0
		c0.2,0,0.5,0.1,0.7,0.1c0.2,0.1,0.5,0.2,0.7,0.3l0.1,4.7c-0.3-0.1-0.7-0.2-1-0.3c-0.4-0.1-0.7-0.1-1,0c-0.1,0-0.1,0-0.2,0
		c-0.1,0-0.2,0.1-0.3,0.1c-0.1,0-0.2,0.1-0.3,0.1c-0.1,0.1-0.2,0.1-0.3,0.2s-0.1,0.2-0.2,0.3c0,0.1-0.1,0.2,0,0.4
		c0,0.2,0.1,0.3,0.1,0.4c0.1,0.1,0.2,0.2,0.3,0.2c0.1,0,0.2,0.1,0.4,0.1c0.1,0,0.3,0,0.4,0c0.1,0,0.3,0,0.4-0.1c0.1,0,0.2,0,0.3,0
		c0.4,0,0.7,0,1,0.2c0.3,0.2,0.6,0.4,0.8,0.7s0.4,0.7,0.6,1.2C107.7,359,107.8,359.5,107.9,360.1z"/>
	<path class="st3" d="M113.7,348.1c0,0.7,0.1,1.4,0.1,2.1c0,0.7,0.1,1.4,0.1,2.1l-2.9,0.9l0.1,1.5l2.1-0.5l0.2,3.6l-2.1,0.6l0.1,1.7
		l1.7-0.4l1.2-0.3c0.1,0.8,0.1,1.7,0.2,2.5c0.1,0.8,0.1,1.7,0.2,2.5l-6,1.6l-1.5-16.5L113.7,348.1z"/>
	<path class="st3" d="M124.3,361.1l-3.3,1.7l-0.7-2.4l-1.6,0.4l0,2.7l-3.6,0.4l0.9-15.9l3.8-1.4L124.3,361.1z M119.5,357l-1-3.8
		l0,4.1L119.5,357z"/>
</g>
</svg>
