<svg xmlns="http://www.w3.org/2000/svg" viewBox="0 0 183.69 82.04"><defs><style>.cls-1{fill:#fff;}.cls-2{fill:none;stroke:#fff;stroke-miterlimit:10;stroke-width:2px;}</style></defs><title>sagittarius</title><g id="Layer_2" data-name="Layer 2"><g id="sagittarius"><circle class="cls-1" cx="113.72" cy="38.96" r="3.96"/><circle class="cls-1" cx="105.33" cy="48.46" r="5.3"/><circle class="cls-1" cx="164.33" cy="33.46" r="5.3"/><circle class="cls-1" cx="108.72" cy="65.96" r="3.96"/><circle class="cls-1" cx="120.72" cy="65.96" r="3.96"/><circle class="cls-1" cx="115.72" cy="14.96" r="3.96"/><circle class="cls-1" cx="143.72" cy="16.96" r="3.96"/><circle class="cls-1" cx="179.72" cy="32.96" r="3.96"/><circle class="cls-1" cx="153.72" cy="3.96" r="3.96"/><circle class="cls-1" cx="69.72" cy="53.96" r="3.96"/><line class="cls-2" x1="69.31" y1="53.98" x2="105.31" y2="47.98"/><line class="cls-2" x1="113.31" y1="38.98" x2="105.31" y2="47.98"/><line class="cls-2" x1="115.31" y1="14.98" x2="113.31" y2="38.98"/><line class="cls-2" x1="115.31" y1="14.98" x2="143.31" y2="16.98"/><line class="cls-2" x1="154.31" y1="3.98" x2="143.31" y2="16.98"/><line class="cls-2" x1="164.31" y1="32.98" x2="144.31" y2="16.98"/><line class="cls-2" x1="180.31" y1="32.98" x2="164.31" y2="32.98"/><line class="cls-2" x1="120.31" y1="65.98" x2="164.31" y2="32.98"/><line class="cls-2" x1="109.31" y1="65.98" x2="120.31" y2="65.98"/><line class="cls-2" x1="105.31" y1="48.98" x2="109.31" y2="65.98"/><path class="cls-1" d="M7.68,73.31c0-1.44-.86-2.07-2.77-2.82l-.84-.33C1.83,69.28.29,68,.29,65.76c0-2.53,2.13-4.07,4.92-4.07A5.86,5.86,0,0,1,8.8,62.85l-.13,2.86H7.35l-.62-3.32,1.41.73v1.1a4,4,0,0,0-3.06-1.43c-1.71,0-3,.86-3,2.51,0,1.38.9,2.2,2.51,2.81l.85.33c2.91,1.12,4,2.4,4,4.47,0,2.6-2.18,4.18-5.19,4.18A8.41,8.41,0,0,1,0,75.92l.13-3.08H1.45L2,76.23.59,75.61v-1A5.38,5.38,0,0,0,4.2,76C6.29,76,7.68,75,7.68,73.31Z"/><path class="cls-1" d="M15,71a24.13,24.13,0,0,1,3.41-.92v.79a20.72,20.72,0,0,0-3,.88c-2,.77-2.2,1.61-2.2,2.25,0,1.16.77,1.62,1.78,1.62.77,0,1.21-.28,2.6-1.27L18,74l.31.46-.64.64c-1.32,1.32-2.07,1.94-3.41,1.94a2.69,2.69,0,0,1-3-2.76C11.35,73.06,12,72.07,15,71Zm2.53,3.74v-5c0-2.16-.62-2.69-2.07-2.69a5.18,5.18,0,0,0-2,.4l.88-.68-.57,1.89c-.2.64-.53,1-1.12,1a.89.89,0,0,1-1-.88c.42-1.67,2-2.71,4.24-2.71s3.37,1,3.37,3.81v4.67c0,1,.31,1.34.81,1.34a1.08,1.08,0,0,0,.86-.49l.44.49A2.06,2.06,0,0,1,19.49,77,2,2,0,0,1,17.49,74.73Z"/><path class="cls-1" d="M30.45,78.78c0-1-.62-1.73-2.22-1.73h-2.6a9.54,9.54,0,0,1-1.1-.07v-.07c-1.12-.24-1.69-.81-1.69-1.73s.5-1.61,2-2.91l.48.33a2.61,2.61,0,0,0-.94,1.85c0,.59.24,1,1.27,1h2.91c2.35,0,3.47,1,3.47,2.82S30.23,82,26.66,82c-3.16,0-4.55-1.1-4.55-2.68,0-1.08.68-1.9,2.9-2.84l.11.13A3.17,3.17,0,0,0,23.89,79c0,1.45,1.12,2,2.84,2C29.15,81.05,30.45,80,30.45,78.78ZM26.58,66c2.24,0,3.91,1.19,3.91,3.61s-1.71,3.61-3.94,3.61-3.93-1.19-3.93-3.61S24.33,66,26.58,66Zm-2.25,3.63c0,1.61.79,2.71,2.16,2.71s2.29-1.17,2.29-2.79-.8-2.67-2.18-2.67S24.33,68.07,24.33,69.67ZM31.81,66l.33.22v1.37H28.91V67Z"/><path class="cls-1" d="M35.09,76.76c0-1,.07-3.26.07-4.62v-1c0-1.21,0-1.89-.07-2.77l-1.8-.2v-.77L36.61,66l.33.22-.07,3v2.91c0,1.36,0,3.63.07,4.62ZM38.48,76v.77H33.42V76l2.42-.44h.44ZM34.54,62.17A1.45,1.45,0,1,1,36,63.56,1.38,1.38,0,0,1,34.54,62.17Z"/><path class="cls-1" d="M44.22,75.94a2.52,2.52,0,0,0,1.5-.61l.5.59a3.13,3.13,0,0,1-2.55,1.13,2.22,2.22,0,0,1-2.46-2.49c0-.53,0-1,0-1.85V67.47H39.38v-.94l2.73-.35-.88.72.66-3.56h1.27L43,67.19v7.13C43,75.46,43.47,75.94,44.22,75.94ZM46,66.33v1.14H42.11V66.33Z"/><path class="cls-1" d="M51.55,75.94A2.47,2.47,0,0,0,53,75.33l.51.59A3.13,3.13,0,0,1,51,77.05a2.23,2.23,0,0,1-2.47-2.49c0-.53,0-1,0-1.85V67.47H46.71v-.94l2.72-.35-.88.72.66-3.56h1.28l-.18,3.85v7.13C50.31,75.46,50.8,75.94,51.55,75.94Zm1.8-9.61v1.14H49.43V66.33Z"/><path class="cls-1" d="M58.23,71a24.5,24.5,0,0,1,3.41-.92v.79a20.56,20.56,0,0,0-2.94.88c-2,.77-2.2,1.61-2.2,2.25,0,1.16.77,1.62,1.78,1.62.77,0,1.21-.28,2.59-1.27l.44-.33.31.46-.64.64c-1.32,1.32-2.06,1.94-3.41,1.94a2.69,2.69,0,0,1-2.94-2.76C54.63,73.06,55.29,72.07,58.23,71Zm2.53,3.74v-5c0-2.16-.61-2.69-2.06-2.69a5.11,5.11,0,0,0-2,.4l.88-.68L57,68.64c-.19.64-.52,1-1.12,1a.9.9,0,0,1-1-.88C55.33,67.08,57,66,59.16,66s3.36,1,3.36,3.81v4.67c0,1,.31,1.34.82,1.34a1.11,1.11,0,0,0,.86-.49l.44.49A2.07,2.07,0,0,1,62.77,77,2,2,0,0,1,60.76,74.73Z"/><path class="cls-1" d="M67.28,72.14v-1c0-1.21,0-1.89-.07-2.77l-1.76-.2v-.77l3-1.32.33.22L69,69v3.13c0,1.36,0,3.63.06,4.62H67.21C67.25,75.77,67.28,73.5,67.28,72.14ZM65.63,76l2.42-.44h.44l2.42.44v.77H65.63Zm2.53-6.82h1.25l-.55.15c.7-2,2-3.28,3.34-3.28a1.91,1.91,0,0,1,1.57.75c0,1-.4,1.61-1.28,1.61a2,2,0,0,1-1.32-.53l-.59-.51,1.07-.22A5.3,5.3,0,0,0,69,70.64h-.83Z"/><path class="cls-1" d="M76.36,76.76c0-1,.07-3.26.07-4.62v-1c0-1.21,0-1.89-.07-2.77l-1.8-.2v-.77L77.88,66l.33.22-.07,3v2.91c0,1.36,0,3.63.07,4.62ZM79.75,76v.77H74.69V76l2.42-.44h.44ZM75.81,62.17a1.46,1.46,0,0,1,2.91,0,1.46,1.46,0,0,1-2.91,0Z"/><path class="cls-1" d="M84.28,72.86c0,2,.57,2.65,1.78,2.65a4.88,4.88,0,0,0,3.37-1.65h.46V75H88.77l.77-.33a5.22,5.22,0,0,1-4.18,2.4c-1.76,0-2.86-1.06-2.84-4l.07-5.8.46.41-2-.44v-.77l3.17-.28.22.22-.11,3.08Zm5.24,4.08-.31-2.58.07-7.08.46.41-2-.44v-.77l3.13-.28.22.22L91,69.5v6.58l-.53-.53,2,.44v.77Z"/><path class="cls-1" d="M94.4,76.21l-.09-2.4h1.17l.59,2.6L95,75.9v-.75a4.14,4.14,0,0,0,2.7.91c1.7,0,2.49-.69,2.49-1.7s-.66-1.43-2-1.94l-1-.37c-1.61-.59-2.66-1.45-2.66-3S95.81,66,98.25,66a5.56,5.56,0,0,1,3.06.91l-.09,2.22h-1.1L99.68,67l.79.35v.57A3.59,3.59,0,0,0,98.23,67c-1.36,0-2.07.6-2.07,1.52s.55,1.37,2,1.92l.66.24c2.2.81,3,1.85,3,3.21,0,1.63-1.43,3.13-4.24,3.13A6.73,6.73,0,0,1,94.4,76.21Z"/></g></g></svg>