<svg xmlns="http://www.w3.org/2000/svg" viewBox="0 0 98.91 177"><defs><style>.cls-1{fill:#fff;}.cls-2{fill:none;stroke:#fff;stroke-miterlimit:10;stroke-width:2px;}</style></defs><g id="Layer_2" data-name="Layer 2"><g id="scorpius"><circle class="cls-1" cx="37.91" cy="166" r="4"/><circle class="cls-1" cx="53.91" cy="173" r="4"/><circle class="cls-1" cx="89.91" cy="151" r="4"/><circle class="cls-1" cx="80.91" cy="117" r="4"/><circle class="cls-1" cx="47.91" cy="66" r="4"/><circle class="cls-1" cx="48.91" cy="42" r="4"/><circle class="cls-1" cx="69.91" cy="24" r="4"/><circle class="cls-1" cx="37.91" cy="4" r="4"/><circle class="cls-1" cx="52.57" cy="10.34" r="5.2"/><circle class="cls-1" cx="95.91" cy="134" r="3"/><circle class="cls-1" cx="46.91" cy="150" r="5"/><circle class="cls-1" cx="63.91" cy="101" r="5"/><circle class="cls-1" cx="44.91" cy="52" r="7"/><circle class="cls-1" cx="50.91" cy="165" r="5"/><circle class="cls-1" cx="72.91" cy="172" r="5"/><line class="cls-2" x1="37.91" y1="4" x2="52.91" y2="10"/><line class="cls-2" x1="69.91" y1="24" x2="52.91" y2="10"/><line class="cls-2" x1="48.91" y1="42" x2="52.91" y2="10"/><line class="cls-2" x1="44.91" y1="51" x2="48.91" y2="42"/><line class="cls-2" x1="47.91" y1="66" x2="44.91" y2="51"/><line class="cls-2" x1="63.91" y1="101" x2="47.91" y2="66"/><line class="cls-2" x1="80.91" y1="117" x2="63.91" y2="101"/><line class="cls-2" x1="95.91" y1="134" x2="80.91" y2="117"/><line class="cls-2" x1="89.91" y1="151" x2="95.91" y2="134"/><line class="cls-2" x1="72.91" y1="172" x2="89.91" y2="151"/><line class="cls-2" x1="53.91" y1="173" x2="72.91" y2="172"/><line class="cls-2" x1="50.91" y1="165" x2="53.91" y2="173"/><line class="cls-2" x1="37.91" y1="166" x2="50.91" y2="165"/><line class="cls-2" x1="46.91" y1="150" x2="37.91" y2="166"/><line class="cls-2" x1="50.91" y1="165" x2="46.91" y2="150"/><path class="cls-1" d="M7.68,132.86c0-1.43-.86-2.07-2.77-2.82l-.84-.33c-2.24-.88-3.78-2.15-3.78-4.4,0-2.53,2.13-4.07,4.92-4.07a5.78,5.78,0,0,1,3.59,1.17l-.13,2.86H7.35l-.62-3.33,1.41.73v1.1a4,4,0,0,0-3.06-1.43c-1.71,0-3,.86-3,2.51,0,1.38.9,2.2,2.51,2.81l.85.34c2.91,1.12,4,2.39,4,4.46,0,2.6-2.18,4.18-5.19,4.18A8.51,8.51,0,0,1,0,135.48l.13-3.08H1.45L2,135.78l-1.43-.61v-1.06a5.38,5.38,0,0,0,3.61,1.43C6.29,135.54,7.68,134.57,7.68,132.86Z"/><path class="cls-1" d="M13.11,130.92c0,2.77,1.48,4.29,3.54,4.29a3.56,3.56,0,0,0,3.09-1.71l.52.26a3.94,3.94,0,0,1-4.07,2.84c-3,0-4.9-2.11-4.9-5.48s2.42-5.52,5-5.52a3.77,3.77,0,0,1,3.88,2.84.91.91,0,0,1-1,.81,1.14,1.14,0,0,1-1.17-1l-.55-1.94,1,.82a4.51,4.51,0,0,0-2.11-.55C14.48,126.59,13.11,128.11,13.11,130.92Z"/><path class="cls-1" d="M22,131.14c0-3.65,2.49-5.54,5-5.54s5,1.89,5,5.54-2.53,5.46-5,5.46S22,134.79,22,131.14Zm8.06,0c0-2.95-1.12-4.55-3-4.55s-3,1.6-3,4.55,1.08,4.47,3,4.47S30.1,134.09,30.1,131.14Z"/><path class="cls-1" d="M35.68,131.69v-1c0-1.21,0-1.89-.06-2.77l-1.76-.2v-.77l3-1.32.33.22.26,2.75v3.12c0,1.37,0,3.63.07,4.62H35.62C35.66,135.32,35.68,133.06,35.68,131.69ZM34,135.54l2.42-.44h.44l2.42.44v.77H34Zm2.53-6.82h1.26l-.55.16c.7-2,2-3.28,3.34-3.28a1.85,1.85,0,0,1,1.56.75c0,1-.39,1.6-1.27,1.6a2,2,0,0,1-1.32-.53l-.6-.5,1.08-.22a5.26,5.26,0,0,0-2.66,3.5h-.84Z"/><path class="cls-1" d="M48.73,140.82v.77H43.1v-.77l2.48-.44H46ZM45,130.66c0-1.21,0-1.89-.07-2.77l-1.76-.2v-.77l3-1.32.33.22.18,1.87.09,0v6.87l-.07.13v2.2c0,1.54,0,3.12.07,4.66H44.88c0-1.54.07-3.08.07-4.62Zm4.48-3.85c-.81,0-1.91.39-3.52,2l-.19-.4c1.27-1.94,2.7-2.77,4.2-2.77,2.33,0,4.18,2.06,4.18,5.45s-1.94,5.55-4.51,5.55c-1.34,0-2.71-.62-3.87-2.91l.19-.35c1.15,1.45,2.2,2,3.28,2,1.67,0,3-1.3,3-4.14S51.06,126.81,49.43,126.81Z"/><path class="cls-1" d="M57.55,136.31c.05-1,.07-3.25.07-4.62v-1c0-1.21,0-1.89-.07-2.77l-1.8-.2v-.77l3.32-1.32.33.22-.07,3v2.9c0,1.37,0,3.63.07,4.62Zm3.39-.77v.77H55.88v-.77l2.42-.44h.44ZM57,121.72a1.46,1.46,0,0,1,2.91,0,1.46,1.46,0,0,1-2.91,0Z"/><path class="cls-1" d="M65.47,132.42c0,2,.57,2.64,1.78,2.64a4.84,4.84,0,0,0,3.37-1.65h.46v1.12H70l.77-.33a5.22,5.22,0,0,1-4.18,2.4c-1.76,0-2.86-1.06-2.84-4l.07-5.81.46.42-2-.44V126l3.17-.29.22.22-.11,3.08Zm5.24,4.07-.31-2.58.07-7.08.46.42-2.05-.44V126l3.13-.29.22.22-.07,3.08v6.58l-.53-.53,2.05.44v.77Z"/><path class="cls-1" d="M75.59,135.76l-.09-2.4h1.17l.59,2.6-1.07-.51v-.74a4.19,4.19,0,0,0,2.7.9c1.7,0,2.49-.68,2.49-1.7s-.66-1.43-2-1.93l-1-.38c-1.61-.59-2.66-1.45-2.66-2.94s1.34-3.06,3.78-3.06a5.63,5.63,0,0,1,3.06.9l-.09,2.22h-1.1l-.44-2.22.79.35v.57a3.58,3.58,0,0,0-2.24-.83c-1.36,0-2.07.59-2.07,1.52s.55,1.36,2.05,1.91l.66.24c2.2.82,3,1.85,3,3.21,0,1.63-1.43,3.13-4.24,3.13A6.73,6.73,0,0,1,75.59,135.76Z"/></g></g></svg>