<svg xmlns="http://www.w3.org/2000/svg" viewBox="0 0 477.35 509.7"><defs><style>.cls-1{fill:#b58837;}.cls-2{fill:#dda447;}.cls-3{fill:#231907;}.cls-4{fill:#5c4414;}</style></defs><title>sphinx</title><g id="Layer_2" data-name="Layer 2"><g id="Layer_1-2" data-name="Layer 1"><path class="cls-1" d="M376,240c19.51,10.33,24.64,35.85,24.49,57.93-.06,8.67-.6,17.42-2.82,25.81-3,11.34-9,21.66-15.31,31.51-4,6.15-8.14,12.22-13.37,17.32-7,6.83-15.67,11.68-24.21,16.45-12.77,7.13-25.71,14.33-39.87,18-12.19,3.13-24.94,3.52-37.5,2.73-5.28-.33-10.65-.89-15.44-3.12-8.71-4.06-14-12.84-18.88-21.15Z"/><path class="cls-1" d="M381.89,66.27c-2.75.53-5.54-.33-8.32-.65a25.47,25.47,0,0,0-16.49,4.32A23.14,23.14,0,0,0,348.7,79c-3.94,8.19-1.3,17.87-1.91,26.93a8.47,8.47,0,0,1-.76,3.38,9.53,9.53,0,0,1-2.69,2.83l-9.87,7.88a17.93,17.93,0,0,0-3.57,3.44,22.66,22.66,0,0,0-2.45,5.66,41.35,41.35,0,0,1-11.05,16.63L311,155.12a39.86,39.86,0,0,1-5.19,6.42l-2.62,2.83c-1,1.09-2,2.19-3.09,3.26A90.54,90.54,0,0,1,281.85,182a52.91,52.91,0,0,0-5,3.13c-1.69,1.29-3.18,2.81-4.76,4.23-6.14,5.49-13.64,9.19-21,12.82l12,8q6,1.74,11.92,3.79c4.64,1.61,9.22,3.36,13.94,4.69,5.27,1.49,10.67,2.45,16.07,3.41,12.68,2.25,25.43,4.51,38.31,4.8,5.08.12,10.2-.07,15.2.82,6.56,1.17,13.1,4.18,19.62,2.83-4.28-13.32-2.49-3.07-6.78-16.39l-2.81-7.53c-2.74-9.11-5.55-26-6.88-35.44a7.27,7.27,0,0,1,0-2.75c.5-1.84-3-18.91-1.18-19.58,8.94-3.42,19.08-.84,28.45-2.83,1.19-.26,2.54-.73,3-1.87a4,4,0,0,0-.22-2.62c-.9-2.84-1.81-5.69-2.71-8.54a4.42,4.42,0,0,1-.24-2.9,6.26,6.26,0,0,1,1.56-1.89,7.68,7.68,0,0,0,.38-9.87c5.74-2.45,4.32-2.2,8-6.22a4,4,0,0,0,1.14-1.93c.36-2.1-2.18-4.85-4.09-5.8-7.1-3.52-4.19-11.75-6.75-19.25l-4.71-13.8Z"/><path class="cls-1" d="M339.58,167c5.34,3,9,8.24,12.37,13.39q8,12.25,14.84,25.2c3.87,7.33,7.47,14.82,12,21.74,7.49,11.37,17.83,21.88,19.43,35.4.69,5.79-.33,11.65-1.55,17.36-3.66,17.22-5.73,25.4-12.78,41.53l-11,12.75s-2.28,6.56-2.24,7.08a40.11,40.11,0,0,0,1,6,32.53,32.53,0,0,0,1.14,4,31.75,31.75,0,0,0,4.66,8.6l2.79,4.11,3.31,4.86,1.62,3.54c2.38,5.39,3.42,10.79,5.8,16.19.94,2.13,1.87,4.26,2.7,6.43,1.75,4.6,3,9.37,4.61,14a101.6,101.6,0,0,0,10.09,21.05c5,8,11.35,15.58,13.32,24.83l1.45,4.62c.89,5.26,5.15,9.2,7.91,13.77a8.17,8.17,0,0,0,1.28,1.8c.94.9,2.33,1.24,3.23,2.19a2.35,2.35,0,0,0,.68.62,1.89,1.89,0,0,0,1,.09,62.05,62.05,0,0,0,10.11-2c1.8-.51,3.72-1.11,5.51-.54a9,9,0,0,1,2.09,1.12,20.87,20.87,0,0,1,4.4,3.46,12.8,12.8,0,0,0,1.5,1.62,7.44,7.44,0,0,0,2.86,1.21c2,.52,4,1,6,1.36a5.15,5.15,0,0,1,1.85.59,4.63,4.63,0,0,1,1.31,1.47,29.46,29.46,0,0,1,3.7,7.1,12.9,12.9,0,0,1,.23,7.89,6.42,6.42,0,0,1-1.26,2.31,6.69,6.69,0,0,1-2.32,1.56,23.19,23.19,0,0,1-7.16,1.53q-7.17.72-14.39,1l-4.85-.46c-5.49,1.7-11.46,3.39-16.85,1.42-1.7-.62-3.3-1.59-5.09-1.81-2.64-.33-5.18,1-7.82,1.37-3.09.42-6.18-.52-9.15-1.45a7.22,7.22,0,0,1-2.62-1.21,5.64,5.64,0,0,1-1.43-2.16,10.94,10.94,0,0,1,.35-8.79,14.93,14.93,0,0,0,1.16-2.46c.67-2.35-.68-4.76-2-6.82a306.83,306.83,0,0,0-30-39.41,71.14,71.14,0,0,0-6-6.07l-5.61-5.42q-1.91-2.58-4.07-5c-1.34-1.48-2.75-2.9-4.15-4.32-1.9-1.91-3.8-3.82-5.64-5.79a49.12,49.12,0,0,1-5.81-7.22c-1-1.55-1.81-3.18-2.79-4.73-.81-1.28-1.72-2.49-2.63-3.7L334,400.19c-4-5.33-8-10.67-12.06-16a3.2,3.2,0,0,0-1.77-1.4,3.09,3.09,0,0,0-1.93.49q-7.91,4-15.53,8.47l-3.11,1.71L275.32,406c-1.8.93-3.59,1.85-5.45,2.66a28.53,28.53,0,0,1-12.82,2.68,74.92,74.92,0,0,1-8.74-1.49c-6.35-1.13-12.85-.89-19.3-.65-3.09.12-6.26.25-9.11,1.46-1.77.74-3.35,1.87-5.11,2.63-2,.86-4.2,1.21-6.28,1.88-4.56,1.48-8.46,4.44-12.26,7.35l-3.7,1.84a82.68,82.68,0,0,0-9.09,7.08q-4.12,3.59-8.09,7.35c-1.78,1.7-3.54,3.42-5.29,5.14-1.58,1.55-3.16,3.09-4.65,4.73a87.73,87.73,0,0,0-5.91,7.39A7.46,7.46,0,0,0,158,459a4.54,4.54,0,0,0,1.63,4.21,6.69,6.69,0,0,0,4.41,1.44l4.58-.58,22-3.25c7.32-1.08,14.86-2.15,22.06-.42,6,1.43,11.31,4.69,16.55,7.91C234,471.17,239,474.43,241,479.6A484.73,484.73,0,0,1,181.26,478a92.31,92.31,0,0,0-12.65-.6c-3.74.18-7.45.86-11.19.94a69.57,69.57,0,0,1-10.18-.77c-29.46-3.68-69.5,14.53-96.09,1.34-2.44-1.22,1.05-20.52-.66-22.65-3.47-4.32,3.24-11.56,5-15.69l6.75-15.38q6.63-15.15,13.28-30.3A96.43,96.43,0,0,1,80.87,384c6.64-11.1,17.35-19,26.48-28.19,13-13,23.08-29,37.34-40.59,11.38-9.29,24.94-15.44,38.33-21.48l16-7.22,35-11.8,27.31-71.27,8-23.31,76.2,13.5c-.77.59-.64,1.77-.41,2.71,1.12,4.71-3.65-19.66.43-17"/><path class="cls-2" d="M370.65,341.42a40.11,40.11,0,0,0,1,6,32.53,32.53,0,0,0,1.14,4,31.75,31.75,0,0,0,4.66,8.6l2.79,4.11,3.31,4.86,1.62,3.54c2.38,5.39,3.42,10.79,5.8,16.19.94,2.13,1.87,4.26,2.7,6.43,1.75,4.6,3,9.37,4.61,14a101.6,101.6,0,0,0,10.09,21.05c5,8,11.35,15.58,13.32,24.83l1.45,4.62c.89,5.26,5.15,9.2,7.91,13.77a8.17,8.17,0,0,0,1.28,1.8c.94.9,2.33,1.24,3.23,2.19a2.35,2.35,0,0,0,.68.62,1.89,1.89,0,0,0,1,.09,62.05,62.05,0,0,0,10.11-2c1.8-.51,3.72-1.11,5.51-.54a9,9,0,0,1,2.09,1.12,20.87,20.87,0,0,1,4.4,3.46,12.8,12.8,0,0,0,1.5,1.62,7.44,7.44,0,0,0,2.86,1.21c2,.52,4,1,6,1.36a5.15,5.15,0,0,1,1.85.59,4.63,4.63,0,0,1,1.31,1.47,29.46,29.46,0,0,1,3.7,7.1,12.9,12.9,0,0,1,.23,7.89,6.42,6.42,0,0,1-1.26,2.31,6.69,6.69,0,0,1-2.32,1.56,23.19,23.19,0,0,1-7.16,1.53q-7.17.72-14.39,1l-4.85-.46c-5.49,1.7-11.46,3.39-16.85,1.42-1.7-.62-3.3-1.59-5.09-1.81-2.64-.33-5.18,1-7.82,1.37-3.09.42-6.18-.52-9.15-1.45a7.22,7.22,0,0,1-2.62-1.21,5.64,5.64,0,0,1-1.43-2.16,10.94,10.94,0,0,1,.35-8.79,14.93,14.93,0,0,0,1.16-2.46c.67-2.35-.68-4.76-2-6.82a306.83,306.83,0,0,0-30-39.41,71.14,71.14,0,0,0-6-6.07l-5.61-5.42q-1.91-2.58-4.07-5c-1.34-1.48-2.75-2.9-4.15-4.32-1.9-1.91-3.8-3.82-5.64-5.79a49.12,49.12,0,0,1-5.81-7.22c-1-1.55-1.81-3.18-2.79-4.73-.81-1.28-1.72-2.49-2.63-3.7L334,400.19c-4-5.33-8-10.67-12.06-16-19.35-29.48-14.23-59.43-1.68-66.51C331.41,311.43,354.11,320,370.65,341.42Z"/><path class="cls-2" d="M126.74,496.12c1.64,0,2.61,1.77,3.86,2.83a9.94,9.94,0,0,0,4.66,1.78c3,.56,6.05,1,9.09,1.38,10.21,1.36,20.66,2.73,30.76.68a13,13,0,0,1,2.54-.36,18.08,18.08,0,0,1,2.2.26,16.92,16.92,0,0,0,8.65-1,32.8,32.8,0,0,1,3.73-1.47c2.47-.63,5.06-.08,7.6.14a28.61,28.61,0,0,0,10.84-1.14c.62-.19,1.39-.66,1.19-1.29l.13-3.08a31.83,31.83,0,0,0-17.7-15.36c-8.82-3-18.44-2-27.77-1.89a147.4,147.4,0,0,1-29.13-2.39c-1.62-.3-3.61-1-3.75-2.65a3.9,3.9,0,0,1,1-2.44q9.58-13.77,17.88-28.37a126.76,126.76,0,0,0,8.35-16.94,77.74,77.74,0,0,0,2.44-48.09c-2.15-7.86-6.44-16.2-14.23-18.55-4.61-1.39-9.55-.39-14.25.61-5.72,1.22-11.52,2.47-16.73,5.11a45.27,45.27,0,0,0-9.48,6.64C94.5,383,86.28,400.66,79.12,418.06c-4.84,11.79-9.38,23.71-13.91,35.63l-6,15.68-15.09,19.2L62.81,499.9Z"/><path class="cls-3" d="M381.89,66.27c-2.75.53-5.54-.33-8.32-.65a25.47,25.47,0,0,0-16.49,4.32A23.14,23.14,0,0,0,348.7,79c-3.94,8.19-1.3,17.87-1.91,26.93a8.47,8.47,0,0,1-.76,3.38,9.53,9.53,0,0,1-2.69,2.83l-9.87,7.88a17.93,17.93,0,0,0-3.57,3.44,22.66,22.66,0,0,0-2.45,5.66,41.35,41.35,0,0,1-11.05,16.63L311,155.12a39.86,39.86,0,0,1-5.19,6.42l-2.62,2.83c-1,1.09-2,2.19-3.09,3.26A90.54,90.54,0,0,1,281.85,182a52.91,52.91,0,0,0-5,3.13c-1.69,1.29-3.18,2.81-4.76,4.23-6.14,5.49-13.64,9.19-21,12.82l-35.5-3.82c1.71,1.16,4.13-.46,4.76-2.44s.19-4.1.27-6.17,1.06-4.44,3.08-4.87,4,1.19,5.93.56,2.47-3.08,2.31-5.09-.71-4.14.16-6c1.72-3.6,7-2.95,10.57-4.7a2.9,2.9,0,0,0,1.88-2.29c0-1-1.47-1.9-2.12-1.08-.7-1.85.94-3.8,2.73-4.62s3.87-1,5.52-2.11c3.86-2.54,4-8.81,8-11.07,2.39-1.33,5.64-.89,7.64-2.75,3.07-2.84,1.12-9,4.64-11.27,1.79-1.14,4.21-.63,6.13-1.53,5.07-2.36,2.73-11.61,7.68-14.21,1.55-.81,4.06-1.83,3.17-3.34-.51-.88-1.78-.76-2.79-.91-3.33-.49-4.66-4.61-4.69-8s.35-7.19-2-9.65c-1.51-1.61-3.95-2.31-5-4.27-1.94-3.81,3.12-8.77.8-12.37-1.31-2-4.74-3.19-4.1-5.51.32-1.18,1.6-1.77,2.45-2.64,3.13-3.21-.26-8.76,1.15-13,1.32-4,6.13-5.32,10.24-6.09-2.88-4.4.62-11.35,5.87-11.64,2.08-.12,4.69.39,5.79-1.36.76-1.21.27-2.82.71-4.17.89-2.71,4.72-2.86,7.41-1.92s5.63,2.44,8.22,1.24c1.66-.77,2.73-2.51,4.4-3.24,4-1.77,8.35,3.12,12.67,2.27,3-.58,5.33-3.86,8.35-3.34,3.42.6,4.5,5.6,7.85,6.49,3.93,1.05,8.37-4.19,11.57-1.67,1.47,1.16,1.77,3.58,3.51,4.28,2.64,1.06,5.67-2.93,8.06-1.38,1.74,1.13,1.08,4.08,2.6,5.49s3.88.4,5.05-1.16,1.6-3.55,2.6-5.23c2.33-3.87,7.64-5.32,11.93-3.91s7.51,5.21,9.1,9.45c2.84,7.57-.74,18-8.73,19.31a3.48,3.48,0,0,0-2.25.84c-.53.63,0,1.93.76,1.64Z"/><path class="cls-4" d="M356.74,279.94,330,333.73c-2.65,4.57-12.25,15.46-26.78,21.83-6.22,2.72-14.29,3.77-18.54-2.36-2.61-3.78-2.83-9.28-1.6-13.92s3.71-8.64,6.15-12.53c-6.55,4.63-12.76,10-19.6,14s-14.52,6.63-22.09,5.31a7.3,7.3,0,0,1-3.4-1.33c-1.63-1.32-2.42-3.73-2.73-6.06a27,27,0,0,1,3.93-16.95c2.92-4.88,6.9-8.7,11-12.23a103.55,103.55,0,0,1-33.58,11.05,21.24,21.24,0,0,1-9.12-.15,10.52,10.52,0,0,1-7-6.51c-1.2-3.42-.5-7.44,1.08-10.61a34,34,0,0,1,6.23-8.11l7.51-8c-6.51-.24-12.86,2.44-19.37,2.52s-14-3.77-15.32-11.4A16.29,16.29,0,0,1,190,266.08a26.57,26.57,0,0,1,9.24-7.24c-3.79-.64-7.67-1.31-11.09-3.38a14.19,14.19,0,0,1-6.88-10.37,15.57,15.57,0,0,1,3.87-11.4,25,25,0,0,1,8.94-6.84c-23.18,4.4-39.88-1.58-42-10.22-1.61-6.67,5.67-14.17,7.78-16.3-21.09,1.53-34.86-7.63-35.08-15.75-.16-6.18,7.48-12.81,16.84-17.06-18,1.8-29.8-8.76-29.38-17.09.33-6.46,8.13-13.4,18.63-16.35-25.16-4.1-41-13.93-40.52-23.1.09-1.9,1-6.12,8.72-11.32C88.81,94.33,72.11,84.77,73.14,49.55c.41-14-1.47-35-1.73-44.66L72.21,0c37.94,31.53,52.89,52.43,72.11,70.51,21.09,19.84,35.57,35.23,56.22,44.15,11.56,5,13.38,1.78,33.41,8,21.32,6.59,34,10.66,44.48,21.67,4.62,4.85,13.56,16,16.33,36.37a43.77,43.77,0,0,0,4.82,21.11c8.71,16.36,24.69,17.86,37.67,29.66C345.55,239,354.83,252.72,356.74,279.94Z"/><path class="cls-4" d="M213,192.05c-2.74.56-4.86,2.95-6.43,5.38a9.84,9.84,0,0,0-2,5.67,7.26,7.26,0,0,0,1.9,4.18,12.84,12.84,0,0,0,12.58,4c-.54,2.91-3.16,5.17-3.77,8.08-.48,2.26-.63,6,.2,8.06,1.08,2.68,3.43,4.08,6.12,5,2.27.73,4.8-.22,7.1-1.16l3.9-1.6a65.52,65.52,0,0,0-2.62,6.25c-1,2.86-1.87,5.89-1.45,8.82.72,5,4.93,8.51,9.33,10.59a11.42,11.42,0,0,0,6.23,1.39,12,12,0,0,0,4.71-1.87,28,28,0,0,0,8.5-8.2"/><path class="cls-4" d="M110.67,486.94a163.81,163.81,0,0,0,35-15.77c5.19-3.13,10.31-6.59,16.16-8.16,7.16-1.92,14.81-.82,21.92,1.25s13.92,5.12,21,7.19c13.23,3.84,27.18,4.23,41,4.24l14-1.66a179.87,179.87,0,0,1,22.68-7.86c2.5,7.39-2.71,15.64-9.67,19.16s-15.14,3.47-22.94,3.15c-18.25-.76-36.6-2.61-54.06-8-5.06-1.55-10.1-3.41-15.38-3.77-9.27-.65-18.25,3.37-26.09,8.35s-15,11-23.33,15.21c-16.23,8.19-35.15,8.56-53.33,8.76-21.48.24-43.11.47-64.27-3.28C8.44,504.92,3,503.37.85,498.92-1,495,.46,490.4,2.48,486.61,6,480.07,11,474.51,16.32,469.3,29,456.83,41.91,446,57.31,437.1c-1.7,3.33-2,7.53-2.83,12.51-3,17.66,6.16,31.87,9.18,36.17a44.79,44.79,0,0,0,8.14,3.79C88.41,495.36,104.06,489.79,110.67,486.94Z"/><path class="cls-2" d="M121.76,471c-2.17,6.15-7.33,11.28-13.45,14.93S95.13,491.84,88,493.65s-14.93,3.23-22.21,1.58S51.92,488,52.14,481.52c.13-3.87,2.53-7.38,4.86-10.68l6.49-9.22Z"/></g></g></svg>