<svg xmlns="http://www.w3.org/2000/svg" viewBox="0 0 216.29 156.11"><defs><style>.cls-1{fill:#fff;}.cls-2{fill:none;stroke:#fff;stroke-miterlimit:10;stroke-width:2px;}</style></defs><title>taurusInfoImg</title><g id="Layer_2" data-name="Layer 2"><g id="Layer_4" data-name="Layer 4"><path class="cls-1" d="M63.16,118.19l1-1.1L63.44,121H62.21l.18-3.91h12l.18,3.91H73.34l-.7-3.91,1,1.1Zm5.45,12.43,3.08.33v.88h-6.6V131l3.08-.33Zm-1.21-6.71c0-2.27,0-4.56-.06-6.82h2.11c-.07,2.22-.07,4.51-.07,6.82V125c0,2.26,0,4.55.07,6.82H67.34c.06-2.22.06-4.51.06-6.82Z"/><path class="cls-1" d="M78.75,126.06a24.5,24.5,0,0,1,3.41-.92v.79a20.56,20.56,0,0,0-2.94.88c-2,.77-2.2,1.61-2.2,2.25,0,1.16.77,1.62,1.78,1.62.77,0,1.21-.28,2.59-1.27l.44-.33.31.46-.64.64c-1.32,1.32-2.06,1.93-3.41,1.93a2.68,2.68,0,0,1-2.94-2.75C75.15,128.13,75.81,127.14,78.75,126.06Zm2.54,3.74v-5c0-2.16-.62-2.69-2.07-2.69a5.11,5.11,0,0,0-2,.4l.88-.68-.58,1.89c-.19.64-.52,1-1.12,1a.9.9,0,0,1-1-.88c.42-1.67,2-2.71,4.25-2.71s3.36,1,3.36,3.81v4.66c0,1,.31,1.35.82,1.35a1.09,1.09,0,0,0,.86-.49l.44.49a2.06,2.06,0,0,1-1.87,1.12A2,2,0,0,1,81.29,129.8Z"/><path class="cls-1" d="M89.14,127.93c0,2,.57,2.64,1.78,2.64a4.86,4.86,0,0,0,3.37-1.65h.46v1.13H93.63l.77-.33a5.22,5.22,0,0,1-4.18,2.39c-1.76,0-2.86-1.05-2.84-4l.06-5.81.47.42-2-.44v-.77l3.17-.28.22.22-.11,3.08ZM94.37,132l-.3-2.57.06-7.09.46.42-2-.44v-.77l3.12-.28.22.22-.06,3.08v6.58l-.53-.53,2,.44v.77Z"/><path class="cls-1" d="M100.71,127.21v-1c0-1.21,0-1.89-.07-2.77l-1.76-.2v-.77l3-1.32.33.22.26,2.75v3.13c0,1.36,0,3.63.07,4.62h-1.9C100.69,130.84,100.71,128.57,100.71,127.21Zm-1.65,3.85,2.42-.44h.44l2.42.44v.77H99.06Zm2.53-6.82h1.25l-.55.15c.71-2,2-3.28,3.35-3.28a1.88,1.88,0,0,1,1.56.75c0,1-.4,1.61-1.28,1.61a2,2,0,0,1-1.32-.53l-.59-.51,1.08-.22a5.24,5.24,0,0,0-2.66,3.5h-.84Z"/><path class="cls-1" d="M111.18,127.93c0,2,.57,2.64,1.78,2.64a4.84,4.84,0,0,0,3.37-1.65h.46v1.13h-1.12l.77-.33a5.21,5.21,0,0,1-4.18,2.39c-1.76,0-2.86-1.05-2.84-4l.07-5.81.46.42-2-.44v-.77l3.17-.28.22.22-.11,3.08Zm5.24,4.07-.31-2.57.07-7.09.46.42-2-.44v-.77l3.13-.28.22.22-.07,3.08v6.58l-.53-.53,2,.44v.77Z"/><path class="cls-1" d="M121.3,131.28l-.09-2.4h1.17l.59,2.6-1.08-.51v-.75a4.16,4.16,0,0,0,2.71.9c1.69,0,2.49-.68,2.49-1.69s-.66-1.43-2-1.94l-1-.37c-1.61-.59-2.66-1.45-2.66-3s1.34-3.06,3.78-3.06a5.63,5.63,0,0,1,3.06.9l-.09,2.23H127l-.44-2.23.79.36v.57a3.59,3.59,0,0,0-2.24-.84c-1.37,0-2.07.6-2.07,1.52s.55,1.37,2,1.92l.66.24c2.2.81,3,1.85,3,3.21,0,1.63-1.43,3.12-4.24,3.12A6.72,6.72,0,0,1,121.3,131.28Z"/><circle class="cls-1" cx="22.41" cy="3.89" r="3.89"/><circle class="cls-1" cx="99.41" cy="84.89" r="3.89"/><circle class="cls-1" cx="3.41" cy="51.89" r="3.41"/><circle class="cls-1" cx="110.41" cy="66.89" r="2.89"/><circle class="cls-1" cx="119.41" cy="77.89" r="2.89"/><circle class="cls-1" cx="124.41" cy="89.89" r="2.89"/><circle class="cls-1" cx="157.41" cy="109.89" r="2.89"/><circle class="cls-1" cx="213.41" cy="124.89" r="2.89"/><circle class="cls-1" cx="154.41" cy="153.89" r="2.22"/><line class="cls-2" x1="22.82" y1="3.77" x2="110.82" y2="66.77"/><line class="cls-2" x1="119.82" y1="78.77" x2="110.82" y2="66.77"/><line class="cls-2" x1="124.82" y1="89.77" x2="119.82" y2="78.77"/><line class="cls-2" x1="98.82" y1="84.77" x2="124.82" y2="90.77"/><line class="cls-2" x1="2.82" y1="51.77" x2="98.82" y2="84.77"/><line class="cls-2" x1="123.82" y1="89.77" x2="157.82" y2="109.77"/><line class="cls-2" x1="213.82" y1="124.77" x2="157.82" y2="110.77"/><line class="cls-2" x1="154.82" y1="153.77" x2="213.82" y2="125.77"/></g></g></svg>