<svg xmlns="http://www.w3.org/2000/svg" viewBox="0 0 131.48 166.6"><defs><style>.cls-1{fill:#fff;}.cls-2{fill:none;stroke:#fff;stroke-miterlimit:10;stroke-width:2px;}</style></defs><title>taurusLeft</title><g id="Layer_2" data-name="Layer 2"><g id="taurus"><circle class="cls-1" cx="5.21" cy="5.21" r="5.21"/><circle class="cls-1" cx="62.44" cy="143.15" r="3.45"/><circle class="cls-1" cx="69.44" cy="149.15" r="3.45"/><circle class="cls-1" cx="76.44" cy="163.15" r="3.45"/><line class="cls-2" x1="5.42" y1="5.46" x2="62.42" y2="143.46"/><line class="cls-2" x1="69.42" y1="148.46" x2="62.42" y2="143.46"/><line class="cls-2" x1="76.42" y1="162.46" x2="69.42" y2="148.46"/><path class="cls-1" d="M65.83,125.43l1-1.1-.7,3.91H64.88l.18-3.91h12l.18,3.91H76l-.71-3.91,1,1.1Zm5.46,12.43,3.08.33v.88h-6.6v-.88l3.08-.33Zm-1.21-6.71c0-2.27,0-4.56-.07-6.82h2.11c-.06,2.22-.06,4.51-.06,6.82v1.1c0,2.27,0,4.55.06,6.82H70c.07-2.22.07-4.51.07-6.82Z"/><path class="cls-1" d="M81.43,133.31a24.11,24.11,0,0,1,3.41-.93v.79a20.72,20.72,0,0,0-3,.88c-2,.77-2.2,1.61-2.2,2.25,0,1.16.77,1.63,1.78,1.63.77,0,1.21-.29,2.6-1.28l.44-.33.31.46-.64.64c-1.32,1.32-2.07,1.94-3.41,1.94a2.69,2.69,0,0,1-3-2.75C77.82,135.37,78.48,134.38,81.43,133.31ZM84,137.05v-5c0-2.16-.62-2.69-2.07-2.69a5.18,5.18,0,0,0-2,.4l.88-.68L80.22,131c-.2.64-.53,1-1.12,1a.89.89,0,0,1-1-.88c.41-1.67,2-2.71,4.24-2.71s3.37,1,3.37,3.81v4.67c0,1,.31,1.34.81,1.34a1.08,1.08,0,0,0,.86-.49l.44.49A2.06,2.06,0,0,1,86,139.29,2,2,0,0,1,84,137.05Z"/><path class="cls-1" d="M91.81,135.18c0,1.95.58,2.64,1.79,2.64A4.84,4.84,0,0,0,97,136.17h.46v1.12H96.3l.77-.33a5.22,5.22,0,0,1-4.18,2.4c-1.76,0-2.86-1.06-2.84-4l.07-5.81.46.41-2-.44v-.77l3.16-.28.22.22-.11,3.08Zm5.24,4.07-.31-2.58.07-7.08.46.41-2-.44v-.77l3.13-.28.22.22-.07,3.08v6.58l-.53-.53,2,.44v.77Z"/><path class="cls-1" d="M103.38,134.45v-1c0-1.21,0-1.89-.06-2.77l-1.76-.2v-.77l3-1.32.33.22.26,2.75v3.13c0,1.36,0,3.63.07,4.62h-1.89C103.36,138.08,103.38,135.81,103.38,134.45Zm-1.65,3.85,2.43-.44h.44l2.42.44v.77h-5.29Zm2.54-6.82h1.25l-.55.15c.7-2,2-3.28,3.34-3.28a1.91,1.91,0,0,1,1.57.75c0,1-.4,1.61-1.28,1.61a2,2,0,0,1-1.32-.53l-.59-.51,1.07-.22a5.3,5.3,0,0,0-2.66,3.5h-.83Z"/><path class="cls-1" d="M113.86,135.18c0,1.95.57,2.64,1.78,2.64a4.86,4.86,0,0,0,3.37-1.65h.46v1.12h-1.12l.77-.33a5.23,5.23,0,0,1-4.18,2.4c-1.77,0-2.87-1.06-2.84-4l.06-5.81.46.41-2-.44v-.77l3.17-.28.22.22-.11,3.08Zm5.23,4.07-.3-2.58.06-7.08.46.41-2-.44v-.77l3.12-.28.22.22-.06,3.08v6.58l-.53-.53,2,.44v.77Z"/><path class="cls-1" d="M124,138.52l-.09-2.4h1.16l.6,2.6-1.08-.51v-.75a4.17,4.17,0,0,0,2.71.91c1.69,0,2.48-.69,2.48-1.7s-.66-1.43-2-1.94l-1-.37c-1.6-.59-2.66-1.45-2.66-3s1.34-3.06,3.79-3.06a5.56,5.56,0,0,1,3.06.91l-.09,2.22h-1.1l-.44-2.22.79.35v.57a3.59,3.59,0,0,0-2.25-.84c-1.36,0-2.06.6-2.06,1.52s.55,1.37,2,1.92l.66.24c2.2.81,3,1.85,3,3.21,0,1.63-1.43,3.13-4.25,3.13A6.67,6.67,0,0,1,124,138.52Z"/></g></g></svg>