<svg xmlns="http://www.w3.org/2000/svg" viewBox="0 0 359.45 96.22"><defs><style>.cls-1{fill:#fec65a;}.cls-2{fill:#c69340;}.cls-3{fill:#e77425;}.cls-4{fill:#caab79;}.cls-5{fill:#fcd20b;}.cls-6{fill:#fdb414;}.cls-7{fill:#fff;}.cls-8{fill:#e28d0c;}.cls-9{fill:#ad8c5c;}.cls-10{fill:#a31127;}</style></defs><title>titletext2</title><g id="Layer_2" data-name="Layer 2"><g id="Layer_1-2" data-name="Layer 1"><path class="cls-1" d="M315.52,37.31c.29-.07,7.36-1.07,10.1-2.74.29-.17.6-.42.58-.75,0-.49-.66-.64-1.15-.65L319.52,33a14,14,0,0,1-2.14-.17,6.11,6.11,0,0,0-2.5-.23c-1.11.29-1.78,1.39-2.32,2.4a10.87,10.87,0,0,0-1.66,4.63l.65-3.22a38.94,38.94,0,0,0-2.6-7.5,6.64,6.64,0,0,0-1.56-2.33,2.88,2.88,0,0,0-2.8-.65l-2.07,6.87,1.21,2.49a31,31,0,0,0,1.56,4.39,20.31,20.31,0,0,0,3.26,5.8,3.94,3.94,0,0,0,1.91,1.34,2.78,2.78,0,0,0,2.87-1.12,6.4,6.4,0,0,0,.65-1.31,47.77,47.77,0,0,0,2.32-7.28"/><path class="cls-2" d="M315.56,37.46c1.36-.28,11.88-1.93,10.69-4a1.25,1.25,0,0,0-.95-.46,28.61,28.61,0,0,0-3.47-.1c-1.06,0-2.12,0-3.17-.09s-2-.39-3-.43c-1.54-.07-2.42,1-3.12,2.24a12,12,0,0,0-1.85,5c0,.18.28.22.31,0a16.45,16.45,0,0,0,.66-3.22,13.47,13.47,0,0,0-1-3.48c-.43-1.27-.92-2.52-1.47-3.74-.74-1.63-2-3.82-4.11-3.61-1,.11-1,1-1.21,1.89l-1.28,4.25c-.28.92-.34,1,.07,1.86,1.95,4,2.69,8.74,5.81,12.1,1.39,1.49,3.56,1.89,4.9.07A14.06,14.06,0,0,0,315,42.1a42,42,0,0,0,1.43-4.92c0-.2-.26-.28-.3-.08a46.57,46.57,0,0,1-2.1,6.71c-.51,1.31-1.07,2.69-2.65,2.91s-2.64-1.08-3.45-2.21a28.05,28.05,0,0,1-3.07-6.21c-.54-1.38-.87-2.78-1.52-4.1-.4-.83-.75-1.13-.54-1.82l1-3.17a16,16,0,0,1,.87-2.89c0-.07,0-.22.08-.28.23-.26,1-.05,1.43.07A4.88,4.88,0,0,1,308.82,29a37.25,37.25,0,0,1,1.61,4.06,11.6,11.6,0,0,1,.95,3.4,19.19,19.19,0,0,1-.63,3.14l.31,0a11.71,11.71,0,0,1,1.8-4.85,4,4,0,0,1,1.77-1.9c1-.43,2.1,0,3.14.17,1.41.18,2.87.13,4.29.17.84,0,1.69,0,2.53.07.63,0,.92-.19.94.59,0,.62,0,.55-.46.79-3,1.49-6.39,1.8-9.59,2.45-.2,0-.12.35.08.31Z"/><path class="cls-2" d="M319.91,35a7.32,7.32,0,0,0,2.89-1.25c.16-.12,0-.39-.16-.27a7.26,7.26,0,0,1-2.82,1.22c-.2,0-.11.34.09.3Z"/><path class="cls-1" d="M271.67,37.71c-.29-.07-7.36-1.07-10.11-2.73-.28-.18-.59-.42-.58-.76s.67-.63,1.15-.65l5.53-.14a15.19,15.19,0,0,0,2.14-.16,6,6,0,0,1,2.51-.24c1.11.29,1.77,1.4,2.32,2.41a10.92,10.92,0,0,1,1.66,4.62l-.66-3.22a39.17,39.17,0,0,1,2.6-7.5A6.62,6.62,0,0,1,279.8,27a2.87,2.87,0,0,1,2.79-.66l2.07,6.87-1.21,2.49a29.15,29.15,0,0,1-1.56,4.4,20.44,20.44,0,0,1-3.26,5.8,4,4,0,0,1-1.9,1.34,2.8,2.8,0,0,1-2.87-1.13,5.93,5.93,0,0,1-.65-1.31,45.65,45.65,0,0,1-2.32-7.28"/><path class="cls-2" d="M271.71,37.56c-3.2-.66-6.64-1-9.6-2.46a1.66,1.66,0,0,1-.47-.26c-1-1.21.53-1.1.95-1.12.77,0,1.54,0,2.31-.06a42.69,42.69,0,0,0,4.52-.18,7.65,7.65,0,0,1,2.84-.29,3.68,3.68,0,0,1,2.06,2,11.73,11.73,0,0,1,1.81,4.85l.31,0c-.19-.93-.47-1.89-.58-2.84a6,6,0,0,1,.43-2.22,37.16,37.16,0,0,1,1.22-3.55A19.14,19.14,0,0,1,279,28.17a4.11,4.11,0,0,1,1.39-1.39c.39-.22,1.65-.69,2-.35.12.11.17.58.22.73l.47,1.58,1.05,3.46c.27.89.37.87,0,1.6-1.55,3.19-2.35,6.69-4.14,9.8a8.94,8.94,0,0,1-2.52,3.1,2.67,2.67,0,0,1-3.92-1.28A34.49,34.49,0,0,1,271,37.5c-.05-.2-.35-.11-.31.08a35.72,35.72,0,0,0,2.63,8,3,3,0,0,0,4.07,1.57c2.05-1.11,3.25-3.85,4.14-5.86.5-1.15,1-2.32,1.41-3.5a26,26,0,0,1,1-2.73c.34-.71.94-1.41.77-2.19-.29-1.31-.79-2.61-1.18-3.89L283,27.15a2.92,2.92,0,0,0-.26-.87c-.35-.42-1.37-.21-1.79-.07a4,4,0,0,0-2.08,1.65A19.62,19.62,0,0,0,277,31.74a20.89,20.89,0,0,0-1.51,4.84,12.39,12.39,0,0,0,.6,3.53c0,.17.33.13.31,0a12,12,0,0,0-1.84-5c-.71-1.23-1.58-2.29-3.12-2.24-1,0-2,.37-3,.43s-2.11.07-3.16.09a28.84,28.84,0,0,0-3.48.1,1.31,1.31,0,0,0-.95.46c-1.2,2,9.36,3.7,10.69,4,.2,0,.29-.26.09-.3Z"/><path class="cls-2" d="M267.36,35a7.17,7.17,0,0,1-2.82-1.22c-.16-.12-.32.16-.16.27a7.53,7.53,0,0,0,2.9,1.26c.2,0,.28-.27.08-.31Z"/><path class="cls-3" d="M306,50.48c-.09-1.28-.56-5-.56-5.58l-1-5.82-2-11.18c0-.58-6.32,9.31-6.77,9a31,31,0,0,1-3-2.84l-4.84-2.9c-.29-.54-1.36-1-1.65-1.55s-1.51-1.58-1.58-2.25a5.06,5.06,0,0,1-.09-1.58l-2.71,0c-.32,2.14.4,4.46.79,6.58a22.13,22.13,0,0,1,.41,5.14c-.05,1-.29,1.92-.28,2.92a9.9,9.9,0,0,1-.47,2.41c-.33,1.41-.65,5.86-.88,7.14A88.93,88.93,0,0,0,292.76,51,87.76,87.76,0,0,0,306,50.48Z"/><path class="cls-1" d="M284,16a3.23,3.23,0,0,0,1.31-3.12,1.42,1.42,0,0,0-.23-.6c-.16-.24-.44-.42-.48-.7l-.76-.18c-.31.12-.67,0-1,.1a.88.88,0,0,0-.42.41,4.23,4.23,0,0,0-.24,2.71,1.51,1.51,0,0,0,.26.78,1.52,1.52,0,0,0,.44.31l.45.24Z"/><path d="M283,12.55a1.91,1.91,0,0,0,.14,2.34c.14.13.35-.08.21-.21a1.59,1.59,0,0,1-.09-2c.11-.17-.15-.32-.26-.16Z"/><path class="cls-1" d="M302.92,15.7a3.19,3.19,0,0,1-1.41-3.07,1.34,1.34,0,0,1,.2-.61c.15-.24.43-.43.46-.72l.75-.2c.31.11.67,0,1,.06a1,1,0,0,1,.43.4,4.27,4.27,0,0,1,.33,2.7,1.44,1.44,0,0,1-.24.79,1.46,1.46,0,0,1-.42.32l-.45.26Z"/><path d="M303.55,12.35a1.59,1.59,0,0,1,0,2,.16.16,0,0,0,.22.22,1.89,1.89,0,0,0,.05-2.34c-.1-.16-.36,0-.25.15Z"/><path class="cls-1" d="M303.38,13.69c.11,6.52-4.22,11.88-9.69,12s-10-5.12-10.09-11.64a13.27,13.27,0,0,1,1.9-7.21,9.67,9.67,0,0,1,15.77-.2A13.26,13.26,0,0,1,303.38,13.69Z"/><path class="cls-4" d="M289.16,22c1.57.61-1.33,2.83-3,2.86A3,3,0,0,1,283,22.07c0-1.55,1.62-3.73,3-2.87C287.62,20.18,287.78,21.43,289.16,22Z"/><circle class="cls-4" cx="285.58" cy="25.74" r="3.09"/><circle class="cls-4" cx="286.2" cy="29.58" r="3.09"/><circle class="cls-4" cx="286.81" cy="33.14" r="3.09"/><circle class="cls-4" cx="288.93" cy="36.68" r="3.09"/><circle class="cls-4" cx="292.13" cy="38.68" r="3.09"/><circle class="cls-4" cx="296.26" cy="38.89" r="3.09"/><path class="cls-4" d="M298.36,21.39c-1.31,1.1,1.44,3.07,3.15,3a3.09,3.09,0,0,0,3-3.14c0-1.71-1.86-4.18-3.14-3S299.44,20.48,298.36,21.39Z"/><circle class="cls-4" cx="302.07" cy="25.32" r="3.09"/><circle class="cls-4" cx="301.59" cy="29.17" r="3.09"/><circle class="cls-4" cx="301.1" cy="32.75" r="3.09"/><circle class="cls-4" cx="299.1" cy="36.36" r="3.09"/><path class="cls-4" d="M301.62,27c.1,5.74-3.3,10.45-7.59,10.52s-7.84-4.51-7.94-10.25c-.07-4.28,1.8-8,4.54-9.62.93-.56,2,.26,3.06.24.91,0,2.18-1,3-.6C299.72,18.62,301.54,22.44,301.62,27Z"/><path class="cls-1" d="M300,24.9c.05,2.82-2.23-1.06-6.07-1s-5.82,4.9-5.87,2,3.35-4.11,2.21-5.18c-.52-.49.53-.95,1.21-1.59s1.15,0,2.24,0c.9,0,1.42-.8,2.16-.3.91.61,1.7,1,1.54,1.5C296.94,21.85,300,21.77,300,24.9Z"/><path d="M291.61,19.41l.22.63a2.51,2.51,0,0,0,.81,1.37,2.33,2.33,0,0,0,1.38.24c.4,0,.86-.07,1.05-.43a1.13,1.13,0,0,0,.08-.24l.5-1.91c0-.05,0-.12,0-.13a3,3,0,0,1-2.31.84,5.35,5.35,0,0,1-1.3-.31Z"/><path d="M291.47,19.45c.31.94.58,2.14,1.73,2.32a3.27,3.27,0,0,0,1.46-.06.86.86,0,0,0,.48-.33,2.18,2.18,0,0,0,.26-.78l.28-1.07c.06-.2.24-.57,0-.72a.15.15,0,0,0-.18,0,3,3,0,0,1-2.11.8,4.84,4.84,0,0,1-1.24-.28,2.18,2.18,0,0,0-.51-.09c-.19,0-.27.26-.08.28a6.19,6.19,0,0,1,.62.13,4.37,4.37,0,0,0,1.34.26,3.19,3.19,0,0,0,2.19-.89l-.18,0,0,0L295.5,19c0,.09-.08.35-.11.45l-.13.49-.24.92c-.07.29-.16.48-.46.57a2.79,2.79,0,0,1-.7.08,1.59,1.59,0,0,1-1.47-.57,5.93,5.93,0,0,1-.63-1.57C291.7,19.19,291.41,19.27,291.47,19.45Z"/><path class="cls-4" d="M283.62,15.48a10.79,10.79,0,0,0,.36,2.18c1.41,4.15,5.38,7.64,9.7,7.56s8.37-3.88,9.53-8.21a10.7,10.7,0,0,0,.2-1.87c-1.46,1.28-3.6,3.93-6,5.14a9.29,9.29,0,0,1-3.84,1.47,9.07,9.07,0,0,1-3.46-1.15C287.6,19.51,285.21,16.78,283.62,15.48Z"/><ellipse class="cls-4" cx="284.31" cy="19.37" rx="0.96" ry="1.65" transform="translate(-0.29 4.9) rotate(-0.99)"/><ellipse class="cls-4" cx="303.13" cy="18.77" rx="0.96" ry="1.65" transform="translate(-0.28 5.23) rotate(-0.99)"/><circle class="cls-4" cx="299.19" cy="25.37" r="3.09"/><circle class="cls-4" cx="288.33" cy="25.69" r="3.09"/><path d="M292.82,16.77a.81.81,0,0,1-.65-.54.91.91,0,0,1,.14-.45c.08-.16.18-.32.27-.47a3.16,3.16,0,0,0,.42-2.14c0-.18-.33-.1-.29.08a2.31,2.31,0,0,1-.13,1.3,9.33,9.33,0,0,1-.54,1.1.87.87,0,0,0-.06.88,1.13,1.13,0,0,0,.76.53c.19,0,.27-.26.08-.29Z"/><path d="M293.62,17.1l.05,0,0,0h0l.13,0h0a.43.43,0,0,1,.16,0h0l.11,0a.15.15,0,0,0,.19-.1.16.16,0,0,0-.11-.19.77.77,0,0,0-.64.08.16.16,0,0,0,0,.21.16.16,0,0,0,.21.05Z"/><path class="cls-4" d="M286.39,8.66c0-.56,0-.6.94-1l4.73-1.29A13.48,13.48,0,0,1,295,6.28l4.88,1.14c.57.4,1,.43,1,1l.75,3.58,1.76,0a11.59,11.59,0,0,0-2.07-5.73,10.15,10.15,0,0,0-15.76.21,11.59,11.59,0,0,0-1.91,5.86l2,0Z"/><path class="cls-5" d="M302.89,9.22l-.3-.06a40.85,40.85,0,0,0-18.5.32l-.29.07-.15-8.37,2.46,4.26,2.11-4.34,2.53,4.25L293,1l2.42,4.25L297.73.94l2.53,4.25L302.75.85Z"/><ellipse class="cls-6" cx="288.24" cy="0.98" rx="0.79" ry="0.72" transform="translate(0.03 4.97) rotate(-0.99)"/><ellipse class="cls-6" cx="292.98" cy="0.9" rx="0.94" ry="0.9" transform="translate(0.03 5.05) rotate(-0.99)"/><ellipse class="cls-6" cx="297.78" cy="0.81" rx="0.79" ry="0.72" transform="translate(0.03 5.13) rotate(-0.99)"/><ellipse class="cls-6" cx="302.56" cy="1.11" rx="0.46" ry="0.59" transform="translate(0.03 5.22) rotate(-0.99)"/><ellipse class="cls-6" cx="283.84" cy="1.43" rx="0.46" ry="0.59" transform="translate(0.02 4.89) rotate(-0.99)"/><path class="cls-7" d="M291.55,13a1.82,1.82,0,0,0-1.17-1,.88.88,0,0,1,.17.57,1,1,0,0,1-1.08.81,1,1,0,0,1-.92-1,.8.8,0,0,1,.28-.56,2,2,0,0,0-.79.23c-.25.14-.55.33-.57.61l.3.26.21.14.48.26a1.87,1.87,0,0,0,.52.17l.32,0a2.29,2.29,0,0,0,.37,0l.93-.08h0l.68-.13A.32.32,0,0,0,291.55,13Z"/><path class="cls-8" d="M288.55,12.46a1,1,0,0,0,.92,1,1,1,0,0,0,1.08-.81.88.88,0,0,0-.17-.57,3.56,3.56,0,0,0-.75-.15,5.31,5.31,0,0,0-.8,0A.8.8,0,0,0,288.55,12.46Zm1-.42a.46.46,0,0,1,.41.49.45.45,0,0,1-.49.41.44.44,0,0,1-.41-.48A.46.46,0,0,1,289.54,12Z"/><circle cx="289.5" cy="12.49" r="0.45"/><path class="cls-7" d="M295.26,13a1.81,1.81,0,0,1,1.14-1,.78.78,0,0,0-.15.57,1,1,0,0,0,1.1.77.94.94,0,0,0,.89-1,.84.84,0,0,0-.3-.55,2,2,0,0,1,.8.21c.25.13.56.3.59.58l-.3.27a1,1,0,0,1-.2.15l-.47.27a1.37,1.37,0,0,1-.51.19l-.32.06a1.16,1.16,0,0,1-.37,0l-.93-.05h0l-.68-.1A.31.31,0,0,1,295.26,13Z"/><path class="cls-8" d="M298.24,12.29a.94.94,0,0,1-.89,1,1,1,0,0,1-1.1-.77.78.78,0,0,1,.15-.57,3,3,0,0,1,.74-.18,5.65,5.65,0,0,1,.8,0A.84.84,0,0,1,298.24,12.29Zm-1-.38a.45.45,0,1,0,.5.4A.45.45,0,0,0,297.24,11.91Z"/><circle cx="297.29" cy="12.36" r="0.45"/><path class="cls-9" d="M291.78,10.56a2,2,0,0,0-.56-.2,4.14,4.14,0,0,0-.86-.12,3,3,0,0,0-.43,0,4.76,4.76,0,0,0-1.5.4c-.18.09-.94.48-1.16.58a7,7,0,0,0-.72.42s0,0,0,.05h0c.16,0,1.44-.49,1.6-.51s.26-.07.39-.09.3,0,.44-.06a11.36,11.36,0,0,0,1.19-.2c.08,0,.22,0,.3,0l.36-.06c.35,0,.56-.14.91-.18"/><path class="cls-9" d="M291.9,10.37a3.17,3.17,0,0,0-1.89-.32,5.11,5.11,0,0,0-1.76.47l-1.08.54c-.2.1-.4.21-.59.33s-.29.19-.26.4.12.16.22.17a1.39,1.39,0,0,0,.35-.09l.54-.18c.32-.11.63-.21,1-.29.61-.14,1.25-.16,1.86-.31.21-.05.44-.08.66-.11s.6-.14.91-.18.17-.48-.12-.44-.57.13-.86.18l-.66.1c-.31.07-.61.12-.93.16a6.76,6.76,0,0,0-.9.15c-.32.08-.62.16-.93.26l-.56.19a2.46,2.46,0,0,1-.32.11l.21.16v0l-.06.22a1.51,1.51,0,0,1,.36-.24l.45-.24,1-.47a4.43,4.43,0,0,1,1.43-.41,2.87,2.87,0,0,1,1.78.25.23.23,0,0,0,.23-.39Z"/><path class="cls-9" d="M295.05,10.56a1.43,1.43,0,0,1,.55-.23,3.56,3.56,0,0,1,.85-.17,3.24,3.24,0,0,1,.44,0,4.78,4.78,0,0,1,1.51.31l1.2.52a6.34,6.34,0,0,1,.73.39s0,0,0,0h0c-.17,0-1.46-.42-1.63-.43s-.26-.06-.4-.07-.29,0-.44,0a11.38,11.38,0,0,1-1.19-.14c-.08,0-.22,0-.3,0L296,10.7c-.35,0-.56-.1-.92-.13"/><path class="cls-9" d="M295.16,10.75a2.77,2.77,0,0,1,1.64-.35,4.41,4.41,0,0,1,1.6.34l1,.41.43.2a1.81,1.81,0,0,1,.41.23l-.07-.16v0l.22-.23a2.83,2.83,0,0,1-.28-.07l-.56-.16c-.32-.08-.64-.16-1-.22-.63-.12-1.27-.11-1.9-.22-.23,0-.47-.05-.7-.08s-.58-.1-.88-.12-.29.42,0,.45.55.09.83.12.5,0,.75.09c.63.13,1.3.13,1.94.22l.35.08.53.14.54.15a1,1,0,0,0,.34.07.24.24,0,0,0,.23-.22c0-.19-.17-.27-.31-.35a4.92,4.92,0,0,0-.61-.3l-1.07-.47A5.21,5.21,0,0,0,296.8,10a3.1,3.1,0,0,0-1.86.41c-.24.16,0,.55.22.39Z"/><polyline class="cls-5" points="268.72 15.39 273.6 16.79 277.47 3.81"/><polyline class="cls-5" points="266.59 32.3 271.99 19.32 276.88 20.72"/><polygon class="cls-5" points="268.69 15.32 273.57 16.71 276.88 20.72 271.99 19.32 268.69 15.32"/><polyline class="cls-5" points="318.32 15.39 313.44 16.79 309.57 3.81"/><polyline class="cls-5" points="320.45 32.3 315.05 19.32 310.16 20.72"/><polygon class="cls-5" points="318.36 15.32 313.47 16.71 310.16 20.72 315.05 19.32 318.36 15.32"/><path class="cls-10" d="M43.85,52.47,38.3,93.66,24.84,94,22,72.68,19.06,92.47l-13.47.6L0,52.47l11.76-1.31,2.37,24.67L17.3,51.16h9.25l3.69,25,1.9-25Z"/><path class="cls-10" d="M73,93.72l-11.86.71L61,80.7H55.56l-.33,13H44.61l.9-41.79,11.28.66-.71,21.34h5.26l0-23,10.81.36Z"/><path class="cls-10" d="M105.1,91.16,93.34,93.07l-1.42-6.72H86.51l-1.18,6.72L73.24,91.58,82.67,52l13.18-.83Zm-14-13.91-1.8-10.34L87.51,77.25Z"/><path class="cls-10" d="M127.85,51.22l-.24,12.6-7.06.36-1.8,28.17-10,.66,0-28.18-7.06.48.29-14Z"/><path class="cls-10" d="M153.43,77.91A20.54,20.54,0,0,1,152.3,85a14.25,14.25,0,0,1-3.08,5.06,12.72,12.72,0,0,1-4.58,3,15.55,15.55,0,0,1-5.63,1,9.41,9.41,0,0,1-2.54-.39,25.33,25.33,0,0,1-2.81-1c-.95-.38-1.86-.8-2.74-1.24s-1.66-.87-2.33-1.27l1-12.24a14.81,14.81,0,0,0,4.47,2.3,15.53,15.53,0,0,0,4.82.79c.3,0,.66,0,1.09-.05a4.15,4.15,0,0,0,1.22-.26,2.52,2.52,0,0,0,1-.67,1.86,1.86,0,0,0,.41-1.28,1.64,1.64,0,0,0-.29-1,2.29,2.29,0,0,0-.73-.65,3.86,3.86,0,0,0-1-.39,9,9,0,0,0-1.12-.19,9.22,9.22,0,0,0-1-.06h-.76a7.79,7.79,0,0,1-3.71-.89,8.71,8.71,0,0,1-2.87-2.48,11.92,11.92,0,0,1-1.86-3.78,16.26,16.26,0,0,1-.66-4.74,16.62,16.62,0,0,1,1.12-6.28,14.63,14.63,0,0,1,3-4.73,13.24,13.24,0,0,1,4.33-3,12.79,12.79,0,0,1,5-1c.77,0,1.57,0,2.39.11a18.58,18.58,0,0,1,2.45.37,20.38,20.38,0,0,1,2.38.68,13.14,13.14,0,0,1,2.21,1l-.9,12.07a23.14,23.14,0,0,0-3.38-1.14,13.56,13.56,0,0,0-3.45-.47l-.79,0a9.18,9.18,0,0,0-1,.09,8.27,8.27,0,0,0-1.08.22,4.28,4.28,0,0,0-1,.4,1.93,1.93,0,0,0-.69.67,1.76,1.76,0,0,0-.24,1,1.6,1.6,0,0,0,.4,1.06,2.42,2.42,0,0,0,.94.62,5.58,5.58,0,0,0,1.28.31,13.22,13.22,0,0,0,1.39.11h1.28a5.58,5.58,0,0,1,1,0,8.22,8.22,0,0,1,3.42,1,8.39,8.39,0,0,1,2.57,2.29,10.5,10.5,0,0,1,1.61,3.4A16.1,16.1,0,0,1,153.43,77.91Z"/><path class="cls-10" d="M192.75,60.67c0,1.47-.06,3.08-.17,4.85S192.29,69.1,192,71s-.58,3.79-1,5.73a48.36,48.36,0,0,1-1.5,5.57,36.54,36.54,0,0,1-2.1,5,19.34,19.34,0,0,1-2.75,4.07,12,12,0,0,1-3.47,2.73,9.17,9.17,0,0,1-4.27,1A9.67,9.67,0,0,1,172.19,94a11,11,0,0,1-3.48-3,16.78,16.78,0,0,1-2.37-4.4,33.44,33.44,0,0,1-1.44-5.32,51,51,0,0,1-.73-5.73c-.13-2-.2-3.83-.2-5.64q0-4.16.33-8.3c.23-2.77.54-5.53.95-8.28l11.1.53c-.43,3.12-.8,6.24-1.11,9.38s-.46,6.3-.46,9.47c0,.34,0,.84,0,1.5s.06,1.41.13,2.23.15,1.66.27,2.52a16.47,16.47,0,0,0,.49,2.37,6.67,6.67,0,0,0,.74,1.75,1.23,1.23,0,0,0,1,.68,1.54,1.54,0,0,0,1.24-.81,8.72,8.72,0,0,0,1-2.19,28.71,28.71,0,0,0,.72-3.15c.2-1.19.38-2.43.52-3.71s.26-2.58.34-3.87.16-2.48.22-3.59.09-2.09.1-2.95,0-1.48,0-1.9q0-2.31-.06-4.62t-.18-4.59h11.09C192.65,55.08,192.75,57.86,192.75,60.67Z"/><path class="cls-10" d="M222.26,65.13a17.31,17.31,0,0,1-.69,5.11,13.53,13.53,0,0,1-1.88,3.89A12.58,12.58,0,0,1,216.88,77a16.06,16.06,0,0,1-3.45,1.88,18.42,18.42,0,0,1-3.81,1.07,24.6,24.6,0,0,1-3.86.38V94.14h-11q0-6.81,0-13.56T194.81,67c0-2.42,0-4.83,0-7.25s0-4.85.12-7.31a37.24,37.24,0,0,1,6.07-1.7,34.71,34.71,0,0,1,6.26-.56,18.16,18.16,0,0,1,3.65.37,14.81,14.81,0,0,1,3.49,1.18,14.59,14.59,0,0,1,3.11,2A12.31,12.31,0,0,1,220,56.57a14.66,14.66,0,0,1,1.64,3.79A17.19,17.19,0,0,1,222.26,65.13Zm-10.53,1a4.51,4.51,0,0,0-.93-3A3.08,3.08,0,0,0,208.37,62a5.28,5.28,0,0,0-1,.1c-.36.07-.69.16-1,.25L206,71.07a3.72,3.72,0,0,0,.64.06h.64a4.11,4.11,0,0,0,1.65-.35,4.27,4.27,0,0,0,1.41-1,5.37,5.37,0,0,0,1-1.57A5.53,5.53,0,0,0,211.73,66.14Z"/><path class="cls-10" d="M254.73,61.09,243.87,79.45h10.48l-.14,12.61-21.14,1.07-.95-11.65,12.37-20.21-11.33,1.06-.09-11.94H254.3Z"/><path class="cls-10" d="M279.12,50.86c-.1,1.87-.18,3.71-.26,5.53s-.18,3.67-.31,5.53l-10.05.65-.24,3.75h7.07l-.52,9.21-7.12.3-.23,4.34h10.05q-.15,3.27-.3,6.49t-.27,6.47l-20.43.59.76-42.86Z"/><path class="cls-10" d="M308.27,60.67c0,1.47,0,3.08-.16,4.85s-.3,3.58-.55,5.46-.58,3.79-1,5.73a50.49,50.49,0,0,1-1.51,5.57,37.81,37.81,0,0,1-2.09,5,19.73,19.73,0,0,1-2.75,4.07,12.14,12.14,0,0,1-3.48,2.73,9.16,9.16,0,0,1-4.26,1A9.68,9.68,0,0,1,287.71,94a10.94,10.94,0,0,1-3.47-3,16.21,16.21,0,0,1-2.37-4.4,32.42,32.42,0,0,1-1.45-5.32,48.74,48.74,0,0,1-.72-5.73c-.14-2-.2-3.83-.2-5.64q0-4.16.33-8.3t.95-8.28l11.09.53c-.43,3.12-.79,6.24-1.1,9.38s-.46,6.3-.46,9.47q0,.51,0,1.5c0,.66.07,1.41.13,2.23s.16,1.66.27,2.52a16.47,16.47,0,0,0,.49,2.37,6.66,6.66,0,0,0,.75,1.75,1.22,1.22,0,0,0,1,.68,1.51,1.51,0,0,0,1.23-.81,8.72,8.72,0,0,0,1-2.19,24.73,24.73,0,0,0,.72-3.15c.21-1.19.38-2.43.53-3.71s.25-2.58.34-3.87.16-2.48.21-3.59.09-2.09.11-2.95,0-1.48,0-1.9q0-2.31-.06-4.62c0-1.53-.1-3.06-.17-4.59H308C308.18,55.08,308.27,57.86,308.27,60.67Z"/><path class="cls-10" d="M334.44,77.91A20.54,20.54,0,0,1,333.31,85a14.11,14.11,0,0,1-3.08,5.06,12.68,12.68,0,0,1-4.57,3,15.59,15.59,0,0,1-5.63,1,9.48,9.48,0,0,1-2.55-.39,26.06,26.06,0,0,1-2.81-1c-.95-.38-1.86-.8-2.73-1.24s-1.66-.87-2.34-1.27l1-12.24a15,15,0,0,0,4.47,2.3,15.58,15.58,0,0,0,4.82.79c.3,0,.67,0,1.09-.05a4.22,4.22,0,0,0,1.23-.26,2.68,2.68,0,0,0,1-.67,1.85,1.85,0,0,0,.4-1.28,1.63,1.63,0,0,0-.28-1,2.33,2.33,0,0,0-.74-.65,3.86,3.86,0,0,0-1-.39,9.7,9.7,0,0,0-2.13-.25h-.76a7.82,7.82,0,0,1-3.71-.89,8.81,8.81,0,0,1-2.87-2.48,12.36,12.36,0,0,1-1.86-3.78,16.26,16.26,0,0,1-.66-4.74,16.62,16.62,0,0,1,1.13-6.28,14.46,14.46,0,0,1,3-4.73,13.1,13.1,0,0,1,4.32-3,12.83,12.83,0,0,1,5.05-1c.77,0,1.57,0,2.39.11a18.73,18.73,0,0,1,2.46.37,21,21,0,0,1,2.38.68,13,13,0,0,1,2.2,1l-.9,12.07a23,23,0,0,0-3.37-1.14,13.56,13.56,0,0,0-3.45-.47l-.8,0a9.62,9.62,0,0,0-1,.09,8.48,8.48,0,0,0-1.07.22,4.36,4.36,0,0,0-1,.4,2,2,0,0,0-.68.67,1.61,1.61,0,0,0-.24,1,1.6,1.6,0,0,0,.39,1.06,2.45,2.45,0,0,0,.95.62,5.45,5.45,0,0,0,1.28.31,13,13,0,0,0,1.39.11h1.27a5.71,5.71,0,0,1,1,0,8.18,8.18,0,0,1,3.41,1,8.28,8.28,0,0,1,2.57,2.29,10.5,10.5,0,0,1,1.61,3.4A16.1,16.1,0,0,1,334.44,77.91Z"/><path class="cls-10" d="M348.88,82.13h-8a20.77,20.77,0,0,1,.29-5.28,12.86,12.86,0,0,1,1.22-3.53A8.6,8.6,0,0,1,344.1,71,18.39,18.39,0,0,1,346,69.51a18.17,18.17,0,0,0,1.61-1.23,3,3,0,0,0,1-1.49,3,3,0,0,0,.1-1.23,2.84,2.84,0,0,0-.49-1.32,3.24,3.24,0,0,0-1.23-1.06,4.64,4.64,0,0,0-2.12-.43,13.8,13.8,0,0,0-2,.19,17.78,17.78,0,0,0-2.45.6,20.62,20.62,0,0,0-2.53,1,13.48,13.48,0,0,0-2.24,1.32l-1-11.65q.89-.64,2-1.35a15.82,15.82,0,0,1,2.43-1.25,17.8,17.8,0,0,1,2.89-.91,15.63,15.63,0,0,1,3.37-.35,15.14,15.14,0,0,1,5.51,1,12.87,12.87,0,0,1,4.54,3,14.35,14.35,0,0,1,3.08,4.83,17.72,17.72,0,0,1,1.14,6.58,13.39,13.39,0,0,1-.64,4.54,8.7,8.7,0,0,1-1.64,2.8,9.81,9.81,0,0,1-2.23,1.85,26.57,26.57,0,0,0-2.4,1.62,11,11,0,0,0-2.16,2.15A8.89,8.89,0,0,0,348.88,82.13ZM350.06,90a7.12,7.12,0,0,1-.4,2.43,6.85,6.85,0,0,1-1.08,2A5.3,5.3,0,0,1,347,95.73a4,4,0,0,1-1.92.49,4.08,4.08,0,0,1-1.94-.49,5.3,5.3,0,0,1-1.58-1.34,6.58,6.58,0,0,1-1.06-2,7.37,7.37,0,0,1-.4-2.43,7.57,7.57,0,0,1,.4-2.44,6.63,6.63,0,0,1,1.06-2,5.49,5.49,0,0,1,1.58-1.35,3.88,3.88,0,0,1,1.94-.51,3.83,3.83,0,0,1,1.92.51,5.49,5.49,0,0,1,1.58,1.35,6.9,6.9,0,0,1,1.08,2A7.3,7.3,0,0,1,350.06,90Z"/></g></g></svg>