<svg xmlns="http://www.w3.org/2000/svg" viewBox="0 0 174.69 91"><defs><style>.cls-1{fill:#fff;}.cls-2{fill:none;stroke:#fff;stroke-miterlimit:10;stroke-width:2px;}</style></defs><title>ursaMinor</title><g id="Layer_2" data-name="Layer 2"><g id="ursa_minor" data-name="ursa minor"><circle class="cls-1" cx="90.5" cy="59.19" r="3.45"/><circle class="cls-1" cx="124.5" cy="34.19" r="3.45"/><circle class="cls-1" cx="170.5" cy="6.19" r="4.19"/><circle class="cls-1" cx="151.5" cy="5.19" r="5.19"/><circle class="cls-1" cx="138.87" cy="33.56" r="2.82"/><circle class="cls-1" cx="59.5" cy="76.19" r="3.45"/><circle class="cls-1" cx="32.5" cy="85.19" r="5.81"/><line class="cls-2" x1="151.03" y1="5.38" x2="171.03" y2="5.38"/><line class="cls-2" x1="139.03" y1="34.38" x2="170.03" y2="6.38"/><line class="cls-2" x1="125.03" y1="34.38" x2="139.03" y2="34.38"/><line class="cls-2" x1="151.03" y1="5.38" x2="125.03" y2="34.38"/><line class="cls-2" x1="90.03" y1="59.38" x2="124.03" y2="35.38"/><line class="cls-2" x1="60.03" y1="76.38" x2="90.03" y2="59.38"/><line class="cls-2" x1="32.03" y1="84.38" x2="60.03" y2="76.38"/><path class="cls-1" d="M0,24.51v-.88H6.16v.88l-2.86.33H2.86ZM7.53,37.16c2.53,0,3.8-1.43,3.8-5.37V23.63h1.1v8.73c0,4.62-2.24,6.34-5.21,6.34-3.19,0-5.35-1.78-5.35-5.88V30.45c0-2.27,0-4.56-.07-6.82H3.92c-.07,2.22-.07,4.51-.07,6.82v1.74C3.85,36,5.28,37.16,7.53,37.16Zm4-12.32-2.42-.33v-.88h5.28v.88l-2.42.33Z"/><path class="cls-1" d="M17.05,33.75v-1c0-1.21,0-1.89-.07-2.77l-1.76-.2V29l3-1.32.33.22.26,2.75v3.13c0,1.36,0,3.63.07,4.62H17C17,37.38,17.05,35.11,17.05,33.75ZM15.4,37.6l2.42-.44h.44l2.42.44v.77H15.4Zm2.53-6.82h1.25l-.55.15c.71-2,2.05-3.28,3.35-3.28a1.88,1.88,0,0,1,1.56.75c0,1-.39,1.61-1.27,1.61a2,2,0,0,1-1.33-.53L20.35,29l1.08-.22a5.24,5.24,0,0,0-2.66,3.5h-.84Z"/><path class="cls-1" d="M24.62,37.82l-.09-2.4H25.7l.59,2.6-1.08-.51v-.75a4.17,4.17,0,0,0,2.71.91c1.69,0,2.49-.69,2.49-1.7s-.66-1.43-2.05-1.94l-1-.37c-1.61-.59-2.67-1.45-2.67-2.95s1.35-3.06,3.79-3.06a5.56,5.56,0,0,1,3.06.91l-.09,2.22h-1.1l-.44-2.22.79.35v.57a3.59,3.59,0,0,0-2.24-.84c-1.37,0-2.07.6-2.07,1.52s.55,1.37,2,1.92l.66.24c2.21.81,3,1.85,3,3.21,0,1.63-1.43,3.13-4.24,3.13A6.71,6.71,0,0,1,24.62,37.82Z"/><path class="cls-1" d="M37.62,32.6A24.13,24.13,0,0,1,41,31.68v.79a20.72,20.72,0,0,0-3,.88c-2,.77-2.2,1.61-2.2,2.25,0,1.16.77,1.63,1.78,1.63.77,0,1.22-.29,2.6-1.28l.44-.33.31.46-.64.64C39.05,38,38.3,38.66,37,38.66a2.69,2.69,0,0,1-3-2.75C34,34.67,34.67,33.68,37.62,32.6Zm2.53,3.75v-5c0-2.16-.61-2.69-2.07-2.69a5.18,5.18,0,0,0-2,.4l.88-.68-.57,1.89c-.2.64-.53,1-1.12,1a.89.89,0,0,1-1-.88c.42-1.67,2-2.71,4.24-2.71s3.37,1,3.37,3.81v4.67c0,1,.31,1.34.82,1.34a1.07,1.07,0,0,0,.85-.49l.44.49a2.05,2.05,0,0,1-1.87,1.12A2,2,0,0,1,40.15,36.35Z"/><path class="cls-1" d="M50.2,23.63h2.91v1.21h-.27l-2.64-.33Zm0,13.86,2.31-.33H53l2.16.33v.88H50.2Zm2-13.86h.93l.2,6.55v8.19H52.18Zm0,0h1.95l5.4,13.2h-.75l5.1-13.2h1.17L59.33,38.37H58.26Zm10,13.86,2.64-.33h.44l2.86.33v.88H62.24Zm1.91-5.94V23.63h2c-.07,2.22-.07,4.51-.07,6.82v1.1c0,2.26,0,4.55.07,6.82H64.09C64.15,36.15,64.15,33.86,64.15,31.55Zm.95-7.92h3.08v.88l-2.86.33H65.1Z"/><path class="cls-1" d="M71.61,38.37c0-1,.07-3.26.07-4.62v-1c0-1.21,0-1.89-.07-2.77l-1.8-.2V29l3.32-1.32.33.22-.07,3v2.91c0,1.36,0,3.63.07,4.62ZM75,37.6v.77H69.94V37.6l2.42-.44h.44ZM71.06,23.78a1.45,1.45,0,1,1,1.45,1.39A1.38,1.38,0,0,1,71.06,23.78Z"/><path class="cls-1" d="M78.23,38.37c0-1,.07-3.26.07-4.62v-1c0-1.21,0-1.89-.07-2.77l-1.76-.2V29l3-1.32.33.22.27,2.56v3.32c0,1.36,0,3.63.06,4.62Zm3.43-.77v.77H76.6V37.6L79,37.16h.44Zm5.09-5.88v2c0,1.41,0,3.63.06,4.62H84.92c0-1,.07-3.21.07-4.62V31.9c0-2-.53-2.71-1.85-2.71a4.83,4.83,0,0,0-3.26,1.52h-.46v-1h1.12l-.94.4A5.94,5.94,0,0,1,84,27.65C85.85,27.65,86.75,28.82,86.75,31.72Zm-.6,5.44,2.2.44v.77H83.29V37.6l2.42-.44Z"/><path class="cls-1" d="M90,33.2c0-3.65,2.49-5.55,5-5.55s5,1.9,5,5.55-2.53,5.46-5,5.46S90,36.85,90,33.2Zm8.06,0c0-3-1.13-4.56-3-4.56s-3,1.61-3,4.56,1.08,4.47,3,4.47S98.08,36.15,98.08,33.2Z"/><path class="cls-1" d="M103.66,33.75v-1c0-1.21,0-1.89-.06-2.77l-1.76-.2V29l3-1.32.33.22.26,2.75v3.13c0,1.36,0,3.63.07,4.62H103.6C103.64,37.38,103.66,35.11,103.66,33.75ZM102,37.6l2.42-.44h.44l2.42.44v.77H102Zm2.53-6.82h1.26l-.55.15c.7-2,2-3.28,3.34-3.28a1.88,1.88,0,0,1,1.56.75c0,1-.39,1.61-1.27,1.61a2,2,0,0,1-1.32-.53L107,29l1.08-.22a5.3,5.3,0,0,0-2.66,3.5h-.84Z"/></g></g></svg>