<svg xmlns="http://www.w3.org/2000/svg" viewBox="0 0 226.39 1993.74"><defs><style>.cls-1{fill:#8be01c;}.cls-2{fill:#35442d;}.cls-3{fill:#5b8648;}.cls-4{fill:#4abf18;}.cls-5{fill:#391d06;}.cls-6{fill:#297b0c;}</style></defs><title>vine2</title><g id="Layer_2" data-name="Layer 2"><g id="Layer_1-2" data-name="Layer 1"><path class="cls-1" d="M74.64,814.12c.6-9.85,1.27-20,5.49-28.89A63,63,0,0,1,86.49,775a166,166,0,0,1,25.42-27.48c8.22-7.08,17.12-13.34,26-19.58-3.55,6.07-3.12,13.56-3.41,20.59a91.62,91.62,0,0,1-28.25,62.12C100.66,816,93.62,820.77,86,820.06Z"/><path class="cls-2" d="M100.3,544.14a31.71,31.71,0,0,1-6.37-8.94,5.34,5.34,0,0,1-.65-2.19,5.13,5.13,0,0,1,1-2.7c4.59-7.27,12.38-11.78,19.87-16l12.64-7.13,19.26-10.85a101.15,101.15,0,0,0-12.29,31.33c-1.71,8.14-2.41,16.52-5,24.43-1,3.25-3.09,6.91-6.51,7.09a8.13,8.13,0,0,1-4-1.11,34.22,34.22,0,0,1-9.73-7.24l-5.78,2.68-8.53,5.73a43.3,43.3,0,0,1,4.58-7.58l4.35-5.48Z"/><path class="cls-3" d="M107.33,287.61A34.81,34.81,0,0,0,138,273.19c9.9-14.11,7.82-33.06,5.32-50.11q-2.79-19.12-5.59-38.25c.47,4.73,1.2,9.16-.74,13.44a75.89,75.89,0,0,1-13.53,20.35c-5.83,6.28-12.84,11.71-16.86,19.29-6.9,13-4.64,28.24-1,42.5Z"/><path class="cls-3" d="M82,503.12A34.81,34.81,0,0,0,93.91,471.4c-2.74-17-17.45-29.16-31.12-39.64L32.11,408.24c3.64,3.06,7.25,5.73,8.84,10.15a76,76,0,0,1,4.49,24c.2,8.57-1,17.35,1.36,25.58,4.13,14.15,16.36,23.48,29,31.14Z"/><path class="cls-3" d="M99.33,960.61A34.81,34.81,0,0,0,130,946.19c9.9-14.11,7.82-33.06,5.32-50.11q-2.79-19.12-5.59-38.25c.47,4.73,1.2,9.16-.74,13.44a75.89,75.89,0,0,1-13.53,20.35c-5.83,6.28-12.84,11.71-16.86,19.29-6.9,13-4.64,28.24-1,42.5Z"/><path class="cls-1" d="M82.19,112.58c1.74-6.43,6.75-12.09,10.84-17.35,4.89-6.29,12.9-11.11,13.7-19L109,91.8c1.49,10.28,2.94,21-.37,30.87a54.14,54.14,0,0,1-4.71,9.87,146,146,0,0,1-23.23,30.14l-3.11-19.32c-.69-4.3-1.16-8.4.46-12.88Z"/><path class="cls-1" d="M114.9,623c1.47-4.75,5.44-8.81,8.69-12.6,3.89-4.54,10.17-7.87,10.93-13.78L136,608.42c1,7.75,1.89,15.84-.84,23.1a39.28,39.28,0,0,1-3.82,7.22,106.58,106.58,0,0,1-18.49,21.74l-2.06-14.56c-.46-3.25-.75-6.33.59-9.63Z"/><path class="cls-1" d="M95.16,629.23c-2.93-4-8-6.56-12.32-9.09-5.16-3-12.18-4.12-14.83-9.46l2.45,11.6c1.62,7.64,3.37,15.59,8.32,21.56a39,39,0,0,0,6,5.58A106,106,0,0,0,109.32,664l-2.81-14.44c-.62-3.22-1.35-6.23-3.69-8.9Z"/><path class="cls-2" d="M87.53,682.34c-2.15-7.3-8.15-13.61-13.06-19.49-5.87-7-15.42-12.26-16.47-21.33q-1.24,9-2.48,18c-1.64,11.86-3.23,24.23.81,35.41A59.85,59.85,0,0,0,62,706.07a163.31,163.31,0,0,0,27.89,33.7l3.45-22.28c.77-5,1.27-9.68-.71-14.76Z"/><path class="cls-1" d="M120.8,656.94c3.09-3.89,8.27-6.22,12.68-8.57,5.28-2.81,12.34-3.63,15.2-8.85L145.76,651c-1.93,7.57-4,15.43-9.19,21.2a39.07,39.07,0,0,1-6.2,5.34,106.61,106.61,0,0,1-25.13,13.51l3.39-14.31c.75-3.19,1.61-6.17,4.05-8.75Z"/><path class="cls-1" d="M130.74,1005.11c0-5,2.62-10,4.62-14.6,2.4-5.48,7.42-10.5,6.42-16.37L146.62,985c3.2,7.13,6.45,14.59,6,22.33a38.65,38.65,0,0,1-1.54,8,106.35,106.35,0,0,1-11.31,26.21l-6.23-13.33c-1.39-3-2.57-5.83-2.26-9.38Z"/><path class="cls-2" d="M93.56,220.45l-5.4,4.11a28.78,28.78,0,0,1-29.09,5.26c-9.63-3.78-16.43-12.54-21.28-21.68s-8.23-19-13.75-27.79S10.23,163.81,0,162.28c7.64,3,16.15,1.91,24.35,2.08,10.72.23,21.27,2.62,31.58,5.57,10.76,3.07,21.62,6.9,30.17,14.13Z"/><path class="cls-4" d="M93,432.45l5.4,4.11a28.78,28.78,0,0,0,29.09,5.26c9.63-3.78,16.43-12.54,21.28-21.68s8.23-19,13.75-27.79,13.81-16.54,24-18.07c-7.64,3-16.15,1.91-24.35,2.08-10.72.23-21.27,2.62-31.58,5.57-10.76,3.07-21.62,6.9-30.17,14.13Z"/><path class="cls-4" d="M84.34,896.3A34.83,34.83,0,0,1,51.74,887c-12.05-12.33-13.05-31.37-13.33-48.6q-.31-19.32-.64-38.65c.29,4.74.29,9.23,2.89,13.15a76.09,76.09,0,0,0,16.63,17.9c6.77,5.26,14.57,9.49,19.75,16.32,8.91,11.73,9.13,27.12,7.79,41.79Z"/><path class="cls-1" d="M104.09,361.47A34.83,34.83,0,0,1,71.54,352c-12-12.4-12.86-31.45-13-48.68q-.21-19.33-.41-38.65c.26,4.74.23,9.23,2.81,13.16a76.07,76.07,0,0,0,16.52,18c6.74,5.29,14.51,9.58,19.66,16.43,8.84,11.79,9,27.18,7.54,41.84Z"/><path class="cls-4" d="M71.89,84.26a34.8,34.8,0,0,0,6-33.37C72.1,34.65,55.44,25.38,40.08,17.56L5.65,0c4.13,2.34,8.16,4.32,10.54,8.37A76.35,76.35,0,0,1,25,31.18c1.74,8.39,2.12,17.25,6,24.91,6.62,13.16,20.35,20.12,34.11,25.37Z"/><path class="cls-1" d="M151.75,1829.4c-.6-9.85-1.27-20-5.49-28.89a62.93,62.93,0,0,0-6.35-10.2,165.61,165.61,0,0,0-25.43-27.48c-8.22-7.08-17.12-13.34-26-19.58,3.55,6.08,3.12,13.56,3.4,20.59A91.64,91.64,0,0,0,120.15,1826c5.58,5.28,12.62,10.09,20.27,9.39Z"/><path class="cls-2" d="M126.09,1559.42a31.94,31.94,0,0,0,6.38-8.94,4.11,4.11,0,0,0-.36-4.89c-4.58-7.27-12.38-11.78-19.87-16l-12.64-7.12-19.26-10.86a101.42,101.42,0,0,1,12.3,31.33c1.7,8.14,2.41,16.52,5,24.43,1.06,3.26,3.09,6.92,6.51,7.09a8.22,8.22,0,0,0,4-1.1,34.45,34.45,0,0,0,9.73-7.25l5.78,2.68,8.53,5.73a43.25,43.25,0,0,0-4.57-7.58l-4.36-5.48Z"/><path class="cls-3" d="M119.06,1302.89a34.82,34.82,0,0,1-30.68-14.42c-9.9-14.1-7.82-33.06-5.32-50.11q2.81-19.12,5.6-38.24c-.48,4.72-1.2,9.15.73,13.43a75.73,75.73,0,0,0,13.53,20.35c5.83,6.28,12.84,11.72,16.86,19.29,6.9,13,4.64,28.24,1,42.5Z"/><path class="cls-3" d="M144.43,1518.41a34.84,34.84,0,0,1-12-31.73c2.74-17,17.45-29.16,31.13-39.64l30.67-23.51c-3.63,3-7.24,5.72-8.84,10.14a76.06,76.06,0,0,0-4.49,24c-.19,8.57,1,17.35-1.36,25.58-4.12,14.15-16.36,23.48-29,31.14Z"/><path class="cls-3" d="M127.06,1975.89a34.82,34.82,0,0,1-30.68-14.42c-9.9-14.1-7.82-33.06-5.32-50.11q2.81-19.12,5.6-38.24c-.48,4.72-1.2,9.15.73,13.43a75.73,75.73,0,0,0,13.53,20.35c5.83,6.28,12.84,11.72,16.86,19.29,6.9,13,4.64,28.24,1,42.5Z"/><path class="cls-1" d="M144.2,1127.86c-1.74-6.43-6.75-12.09-10.83-17.35-4.9-6.29-12.91-11.11-13.71-19l-2.25,15.61c-1.49,10.28-3,21,.36,30.87a53.62,53.62,0,0,0,4.72,9.88A145.8,145.8,0,0,0,145.71,1178l3.11-19.31c.69-4.31,1.17-8.41-.46-12.89Z"/><path class="cls-1" d="M111.49,1638.32c-1.46-4.75-5.44-8.81-8.69-12.6-3.89-4.54-10.17-7.87-10.93-13.78l-1.46,11.77c-1,7.75-1.9,15.83.83,23.09a38.73,38.73,0,0,0,3.83,7.22,106.32,106.32,0,0,0,18.49,21.75l2-14.57c.46-3.25.75-6.33-.59-9.62Z"/><path class="cls-1" d="M131.23,1644.51c2.94-4,8-6.56,12.33-9.08,5.16-3,12.17-4.13,14.82-9.47l-2.45,11.6c-1.61,7.64-3.37,15.59-8.32,21.56a39.07,39.07,0,0,1-6,5.59,106.11,106.11,0,0,1-24.56,14.52l2.8-14.43c.63-3.22,1.36-6.23,3.69-8.91Z"/><path class="cls-2" d="M138.86,1697.63c2.15-7.31,8.16-13.62,13.06-19.49,5.87-7,15.43-12.27,16.47-21.34l2.49,18c1.63,11.85,3.22,24.23-.82,35.41a59.17,59.17,0,0,1-5.71,11.14,162.73,162.73,0,0,1-27.89,33.7L133,1732.77c-.77-5-1.28-9.68.7-14.76Z"/><path class="cls-1" d="M105.59,1672.22c-3.09-3.89-8.27-6.22-12.68-8.57-5.28-2.81-12.33-3.63-15.19-8.85l2.92,11.49c1.92,7.57,4,15.44,9.19,21.2a39,39,0,0,0,6.19,5.34,106.12,106.12,0,0,0,25.14,13.51L117.77,1692c-.76-3.19-1.61-6.17-4.06-8.75Z"/><path class="cls-2" d="M132.83,1235.74l5.4,4.1a28.79,28.79,0,0,0,29.09,5.26c9.63-3.78,16.44-12.53,21.28-21.68s8.24-19,13.75-27.79,13.81-16.54,24-18.07c-7.64,3-16.15,1.91-24.35,2.08-10.71.23-21.27,2.63-31.58,5.57-10.76,3.07-21.62,6.91-30.17,14.13Z"/><path class="cls-4" d="M133.39,1447.74l-5.4,4.1a28.78,28.78,0,0,1-29.09,5.26c-9.63-3.78-16.43-12.53-21.27-21.68s-8.24-19-13.76-27.79-13.81-16.54-24-18.07c7.65,3,16.16,1.91,24.35,2.08,10.72.23,21.28,2.63,31.59,5.57,10.76,3.07,21.62,6.91,30.16,14.13Z"/><path class="cls-5" d="M125.08,1990.64c21.88-64.75,39.3-134,24.62-202.28-7.24-33.7-20.93-66-24.74-100.42-4-36.56,4.88-72.4,12.71-107.83,3.68-16.65,7.07-33.46,8-50.53.94-17.57-1-35.11-3.5-52.47-5.43-37.12-12.11-74-15.24-111.41-3-36.43-3.27-73.4,3-109.51,6.13-35.34,18.15-69.3,25.11-104.46,5.57-28.19,7.52-57.39,2-85.75-2.51-12.81-6.76-25.56-13.6-36.74-3.47-5.68-7.53-10.63-10.8-16.44-7.44-13.21-16-26.25-22.5-40-6-12.8-9.34-28-13.2-41.61a495.77,495.77,0,0,1-12.06-52.3c-6.12-36.08-6.64-72.82,1.7-108.59,7.49-32.11,19.85-63,23.72-95.93C114.4,639,106.72,604.08,99,569.72c-4-17.67-8-35.43-9.19-53.55-1.23-19.3,1-38.56,3.94-57.6,10.75-69.71,23.07-140.22,12.86-210.8-9.57-66.13-43.21-131-27.62-199C82.26,34.63,87.71,21,97,9.81,100.71,5.38,94.38-1,90.67,3.44c-38,45.73-24.91,115-11.21,167.27,9.39,35.78,19.12,71,21.34,108.09,2.18,36.51-.72,73.14-5.4,109.35S82,460.6,80.63,497.15c-1.32,35.63,9.28,69.7,16,104.31,7.31,37.44,7,72.47-2.92,109.38-8.67,32.38-19.78,63.85-22,97.57-2.35,34.87,2.64,69.92,10.84,103.77,5.71,23.55,11.1,49.82,23.07,71.08,7.5,13.31,14.29,27.44,22.65,40.22,6.35,9.7,12.32,18.09,16,29.34,4.74,14.42,6.68,29.62,7,44.75.73,34.31-8,67.44-16.83,100.31-9.19,34.2-16.77,68.19-18.22,103.7-1.47,35.71,1.7,71.45,6.43,106.82,4.86,36.35,13.88,73,14.24,109.76.37,37.13-12.21,72.81-18.19,109.14a233.21,233.21,0,0,0,4.82,99.53c9,34,20.86,66.86,22.48,102.38,1.68,36.65-4.6,73.11-14,108.4-4.57,17.07-9.91,33.9-15.57,50.63-1.86,5.5,6.83,7.86,8.68,2.4Z"/><path class="cls-4" d="M142.05,1911.58a34.85,34.85,0,0,0,32.61-9.29c12-12.33,13-31.37,13.32-48.6q.33-19.32.64-38.65c-.29,4.74-.29,9.24-2.89,13.15a76.09,76.09,0,0,1-16.63,17.9c-6.77,5.26-14.56,9.49-19.75,16.32-8.91,11.74-9.13,27.12-7.79,41.8Z"/><path class="cls-1" d="M122.3,1376.76a34.83,34.83,0,0,0,32.55-9.48c12-12.4,12.86-31.45,13.05-48.68q.19-19.33.41-38.65c-.26,4.74-.24,9.23-2.82,13.16a75.86,75.86,0,0,1-16.52,18c-6.74,5.3-14.51,9.58-19.65,16.44-8.84,11.78-9,27.17-7.55,41.84Z"/><path class="cls-6" d="M120.08,1990.64c21.88-64.75,39.3-134,24.62-202.28-7.12-33.13-20.47-64.87-24.55-98.67-4.47-37.14,4.56-73.56,12.52-109.58,3.54-16,6.83-32.23,7.88-48.66,1.12-17.56-.65-35.09-3.13-52.46-5.22-36.51-11.91-72.74-15.18-109.52-3.29-37-3.82-74.66,2.35-111.43,5.82-34.78,17.52-68.19,24.68-102.66,5.91-28.41,8.33-57.72,3.26-86.46-2.29-13-6.26-25.86-12.78-37.37-3.67-6.46-7.74-10.47-10.15-17.3-15.9-45-32.3-89.9-40.09-137.14-6.06-36.75-6.05-73.9,2.83-110.18,7.69-31.46,19.55-61.9,23.09-94.28,3.88-35.41-4.13-70.41-11.81-104.75-4-17.68-7.91-35.46-8.88-53.6-1-19.32,1.36-38.56,4.33-57.61,10.85-69.66,22.86-140.27,12.29-210.77C101.48,180,68,115.07,84.35,47.31,87.63,33.71,93,20.63,102,9.81,105.71,5.38,99.38-1,95.67,3.44c-38,45.73-24.92,115-11.21,167.27,9.23,35.15,18.86,69.76,21.22,106.22s-.4,73.13-5,109.34c-4.56,35.63-12.85,71.17-14.83,107.07-2,35.74,8.1,69.77,15.12,104.43,7.57,37.38,8.32,72.65-1.29,109.7C91.4,739.22,80.13,770,77.14,802.89,71.6,864,88.64,925.37,108.83,982.49c4.67,13.17,8.1,28,14.34,40.52,2.11,4.24,5.69,7.77,8.14,11.91a92.88,92.88,0,0,1,8.82,20.64c4.41,14.61,6.08,29.91,6.19,45.13.23,34.47-9,67.73-17.84,100.75-9,33.63-16.06,67.12-17.33,102-1.3,35.73,2,71.44,6.75,106.82,5,36.92,14.38,74.3,14,111.7-.38,36.41-12.81,71.46-18.49,107.17-5.4,33.95-3.29,66.23,5.57,99.36,9.11,34.07,20.74,66.94,22.11,102.54,1.39,36-4.84,71.87-14.11,106.56-4.57,17.07-9.91,33.9-15.57,50.63-1.86,5.5,6.83,7.86,8.68,2.4Z"/><path class="cls-4" d="M154.5,1099.54a34.85,34.85,0,0,1-6-33.37c5.78-16.23,22.45-25.5,37.8-33.33l34.43-17.56c-4.13,2.34-8.16,4.32-10.53,8.38a75.66,75.66,0,0,0-8.77,22.8c-1.75,8.39-2.13,17.25-6,24.91-6.63,13.16-20.35,20.12-34.12,25.37Z"/><path class="cls-2" d="M135.88,1035.28a34.84,34.84,0,0,1-33.45,5.49c-16.15-6-25.17-22.83-32.77-38.29l-17-34.69c2.28,4.16,4.19,8.22,8.21,10.66a75.88,75.88,0,0,0,22.67,9.1c8.37,1.88,17.22,2.39,24.82,6.35,13.06,6.82,19.82,20.65,24.86,34.5Z"/></g></g></svg>